G75*
%MOIN*%
%OFA0B0*%
%FSLAX24Y24*%
%IPPOS*%
%LPD*%
%AMOC8*
5,1,8,0,0,1.08239X$1,22.5*
%
%ADD10C,0.0800*%
%ADD11R,0.0560X0.0310*%
%ADD12OC8,0.0800*%
%ADD13C,0.0330*%
D10*
X006980Y004580D03*
X007980Y004580D03*
X008980Y004580D03*
X011180Y003780D03*
X012980Y003780D03*
X012980Y002780D03*
X011180Y002780D03*
X011221Y006421D03*
X010221Y006421D03*
X009221Y006421D03*
X025980Y006380D03*
X026980Y006380D03*
X027980Y006380D03*
X028980Y006380D03*
X029980Y006380D03*
X030980Y006380D03*
X031980Y006380D03*
X032980Y006380D03*
X033980Y006380D03*
X034980Y006380D03*
X034980Y004580D03*
X033980Y004580D03*
X032980Y004580D03*
X031980Y004580D03*
X030980Y004580D03*
X029980Y004580D03*
X028980Y004580D03*
X027980Y004580D03*
X026980Y004580D03*
X025980Y004580D03*
D11*
X034980Y003757D03*
X034980Y003403D03*
X016780Y003330D03*
X016780Y002980D03*
X016780Y002630D03*
D12*
X016780Y004680D03*
X017780Y004680D03*
X018780Y004680D03*
X019780Y004680D03*
X020780Y004680D03*
X020780Y005680D03*
X019780Y005680D03*
X018780Y005680D03*
X017780Y005680D03*
X016780Y005680D03*
D13*
X022220Y006460D03*
M02*
