G75*
%MOIN*%
%OFA0B0*%
%FSLAX24Y24*%
%IPPOS*%
%LPD*%
%AMOC8*
5,1,8,0,0,1.08239X$1,22.5*
%
%ADD10C,0.0000*%
%ADD11C,0.0030*%
%ADD12C,0.0060*%
%ADD13C,0.0040*%
%ADD14C,0.0080*%
%ADD15C,0.0050*%
%ADD16C,0.0010*%
%ADD17R,0.0200X0.0200*%
D10*
X005780Y001780D02*
X005780Y007276D01*
X036380Y007276D01*
X036380Y001780D01*
X036450Y001780D01*
X036380Y001780D02*
X005780Y001780D01*
X036380Y007276D02*
X036450Y007276D01*
D11*
X035317Y005565D02*
X035132Y005565D01*
X035132Y005195D01*
X035317Y005195D01*
X035379Y005257D01*
X035379Y005504D01*
X035317Y005565D01*
X035010Y005565D02*
X035010Y005195D01*
X034763Y005565D01*
X034763Y005195D01*
X034642Y005257D02*
X034642Y005380D01*
X034518Y005380D01*
X034395Y005257D02*
X034457Y005195D01*
X034580Y005195D01*
X034642Y005257D01*
X034642Y005504D02*
X034580Y005565D01*
X034457Y005565D01*
X034395Y005504D01*
X034395Y005257D01*
X024567Y003637D02*
X024567Y003443D01*
X024519Y003395D01*
X024374Y003395D01*
X024374Y003685D01*
X024519Y003685D01*
X024567Y003637D01*
X023978Y003685D02*
X023978Y003492D01*
X023881Y003395D01*
X023784Y003492D01*
X023784Y003685D01*
X023683Y003685D02*
X023490Y003685D01*
X023490Y003395D01*
X023683Y003395D01*
X023586Y003540D02*
X023490Y003540D01*
X023388Y003540D02*
X023340Y003492D01*
X023195Y003492D01*
X023292Y003492D02*
X023388Y003395D01*
X023388Y003540D02*
X023388Y003637D01*
X023340Y003685D01*
X023195Y003685D01*
X023195Y003395D01*
D12*
X022676Y003051D02*
X022462Y003051D01*
X022569Y003051D02*
X022569Y002410D01*
X022462Y002410D02*
X022676Y002410D01*
X022892Y002410D02*
X022892Y002837D01*
X023212Y002837D01*
X023319Y002730D01*
X023319Y002410D01*
X023643Y002517D02*
X023750Y002410D01*
X023643Y002517D02*
X023643Y002944D01*
X023537Y002837D02*
X023750Y002837D01*
X023966Y002730D02*
X024073Y002837D01*
X024287Y002837D01*
X024393Y002730D01*
X024393Y002624D01*
X023966Y002624D01*
X023966Y002730D02*
X023966Y002517D01*
X024073Y002410D01*
X024287Y002410D01*
X024611Y002410D02*
X024611Y002837D01*
X024824Y002837D02*
X024931Y002837D01*
X024824Y002837D02*
X024611Y002624D01*
X025148Y002730D02*
X025362Y002730D01*
X025255Y002944D02*
X025362Y003051D01*
X025255Y002944D02*
X025255Y002410D01*
X025578Y002517D02*
X025685Y002624D01*
X026005Y002624D01*
X026005Y002730D02*
X026005Y002410D01*
X025685Y002410D01*
X025578Y002517D01*
X025898Y002837D02*
X026005Y002730D01*
X025898Y002837D02*
X025685Y002837D01*
X026222Y002730D02*
X026222Y002517D01*
X026329Y002410D01*
X026649Y002410D01*
X026867Y002517D02*
X026867Y002730D01*
X026974Y002837D01*
X027187Y002837D01*
X027294Y002730D01*
X027294Y002624D01*
X026867Y002624D01*
X026867Y002517D02*
X026974Y002410D01*
X027187Y002410D01*
X026329Y002837D02*
X026222Y002730D01*
X026329Y002837D02*
X026649Y002837D01*
X021600Y002837D02*
X021600Y002303D01*
X021494Y002196D01*
X021387Y002196D01*
X021280Y002410D02*
X021600Y002410D01*
X021280Y002410D02*
X021173Y002517D01*
X021173Y002837D01*
X020956Y002730D02*
X020956Y002410D01*
X020636Y002410D01*
X020529Y002517D01*
X020636Y002624D01*
X020956Y002624D01*
X020956Y002730D02*
X020849Y002837D01*
X020636Y002837D01*
X020206Y003051D02*
X020206Y002410D01*
X020099Y002410D02*
X020313Y002410D01*
X019775Y002410D02*
X019561Y002410D01*
X019455Y002517D01*
X019455Y002730D01*
X019561Y002837D01*
X019775Y002837D01*
X019882Y002730D01*
X019882Y002624D01*
X019455Y002624D01*
X019237Y002730D02*
X019237Y002944D01*
X019130Y003051D01*
X018810Y003051D01*
X018810Y002410D01*
X019024Y002624D02*
X019237Y002410D01*
X019130Y002624D02*
X018810Y002624D01*
X019130Y002624D02*
X019237Y002730D01*
X020099Y003051D02*
X020206Y003051D01*
X020030Y004180D02*
X019530Y004180D01*
X019280Y004430D01*
X019280Y005930D01*
X019530Y006180D01*
X020030Y006180D01*
X020280Y005930D01*
X020530Y006180D01*
X021030Y006180D01*
X021280Y005930D01*
X021280Y004430D01*
X021030Y004180D01*
X020530Y004180D01*
X020280Y004430D01*
X020280Y005930D01*
X019280Y005930D02*
X019030Y006180D01*
X018530Y006180D01*
X018280Y005930D01*
X018280Y004430D01*
X018530Y004180D01*
X019030Y004180D01*
X019280Y004430D01*
X020030Y004180D02*
X020280Y004430D01*
X018280Y004430D02*
X018030Y004180D01*
X017530Y004180D01*
X017280Y004430D01*
X017280Y005930D01*
X017530Y006180D01*
X018030Y006180D01*
X018280Y005930D01*
X017280Y005930D02*
X017030Y006180D01*
X016530Y006180D01*
X016280Y005930D01*
X016280Y004430D01*
X016530Y004180D01*
X017030Y004180D01*
X017280Y004430D01*
X017080Y003580D02*
X016480Y003580D01*
X016463Y003578D01*
X016446Y003574D01*
X016430Y003567D01*
X016416Y003557D01*
X016403Y003544D01*
X016393Y003530D01*
X016386Y003514D01*
X016382Y003497D01*
X016380Y003480D01*
X016380Y002480D01*
X016382Y002463D01*
X016386Y002446D01*
X016393Y002430D01*
X016403Y002416D01*
X016416Y002403D01*
X016430Y002393D01*
X016446Y002386D01*
X016463Y002382D01*
X016480Y002380D01*
X017080Y002380D01*
X017097Y002382D01*
X017114Y002386D01*
X017130Y002393D01*
X017144Y002403D01*
X017157Y002416D01*
X017167Y002430D01*
X017174Y002446D01*
X017178Y002463D01*
X017180Y002480D01*
X017180Y003480D01*
X017178Y003497D01*
X017174Y003514D01*
X017167Y003530D01*
X017157Y003544D01*
X017144Y003557D01*
X017130Y003567D01*
X017114Y003574D01*
X017097Y003578D01*
X017080Y003580D01*
X014637Y003930D02*
X014210Y003930D01*
X014262Y002944D02*
X014262Y002517D01*
X014049Y002730D02*
X014476Y002730D01*
D13*
X014467Y004800D02*
X014390Y004800D01*
X014390Y004877D01*
X014467Y004877D01*
X014467Y004800D01*
X014620Y004877D02*
X014697Y004800D01*
X014927Y004800D01*
X015081Y004877D02*
X015157Y004800D01*
X015311Y004800D01*
X015388Y004877D01*
X015388Y005030D01*
X015311Y005107D01*
X015157Y005107D01*
X015081Y005030D01*
X015081Y004877D01*
X014927Y005107D02*
X014697Y005107D01*
X014620Y005030D01*
X014620Y004877D01*
X014237Y004953D02*
X013930Y004953D01*
X013930Y004877D02*
X013930Y005030D01*
X014006Y005107D01*
X014160Y005107D01*
X014237Y005030D01*
X014237Y004953D01*
X014160Y004800D02*
X014006Y004800D01*
X013930Y004877D01*
X013776Y004877D02*
X013699Y004953D01*
X013546Y004953D01*
X013469Y005030D01*
X013546Y005107D01*
X013776Y005107D01*
X013776Y004877D02*
X013699Y004800D01*
X013469Y004800D01*
X013316Y004800D02*
X013316Y005030D01*
X013239Y005107D01*
X013009Y005107D01*
X013009Y004800D01*
X012855Y004953D02*
X012548Y004953D01*
X012548Y004877D02*
X012548Y005030D01*
X012625Y005107D01*
X012779Y005107D01*
X012855Y005030D01*
X012855Y004953D01*
X012779Y004800D02*
X012625Y004800D01*
X012548Y004877D01*
X012395Y004877D02*
X012318Y004800D01*
X012088Y004800D01*
X012165Y004953D02*
X012088Y005030D01*
X012165Y005107D01*
X012395Y005107D01*
X012318Y004953D02*
X012165Y004953D01*
X012318Y004953D02*
X012395Y004877D01*
X011935Y005030D02*
X011781Y005030D01*
X011628Y005030D02*
X011551Y005107D01*
X011398Y005107D01*
X011321Y005030D01*
X011321Y004877D01*
X011398Y004800D01*
X011551Y004800D01*
X011628Y004953D02*
X011321Y004953D01*
X011167Y004953D02*
X010860Y004953D01*
X010860Y004877D02*
X010860Y005030D01*
X010937Y005107D01*
X011091Y005107D01*
X011167Y005030D01*
X011167Y004953D01*
X011091Y004800D02*
X010937Y004800D01*
X010860Y004877D01*
X010707Y004800D02*
X010553Y004953D01*
X010630Y004953D02*
X010400Y004953D01*
X010400Y004800D02*
X010400Y005260D01*
X010630Y005260D01*
X010707Y005184D01*
X010707Y005030D01*
X010630Y004953D01*
X011628Y004953D02*
X011628Y005030D01*
X011858Y005184D02*
X011858Y004800D01*
X011858Y005184D02*
X011935Y005260D01*
X015541Y005107D02*
X015541Y004800D01*
X015695Y004800D02*
X015695Y005030D01*
X015771Y005107D01*
X015848Y005030D01*
X015848Y004800D01*
X015695Y005030D02*
X015618Y005107D01*
X015541Y005107D01*
D14*
X013480Y004030D02*
X013480Y003530D01*
X013230Y003280D01*
X013480Y003030D01*
X013480Y002530D01*
X013230Y002280D01*
X012730Y002280D01*
X012480Y002530D01*
X012480Y003030D01*
X012730Y003280D01*
X012480Y003530D01*
X012480Y004030D01*
X012730Y004280D01*
X013230Y004280D01*
X013480Y004030D01*
X011680Y004030D02*
X011680Y003530D01*
X011430Y003280D01*
X011680Y003030D01*
X011680Y002530D01*
X011430Y002280D01*
X010930Y002280D01*
X010680Y002530D01*
X010680Y003030D01*
X010930Y003280D01*
X010680Y003530D01*
X010680Y004030D01*
X010930Y004280D01*
X011430Y004280D01*
X011680Y004030D01*
X009480Y004330D02*
X009230Y004080D01*
X008730Y004080D01*
X008480Y004330D01*
X008230Y004080D01*
X007730Y004080D01*
X007480Y004330D01*
X007230Y004080D01*
X006730Y004080D01*
X006480Y004330D01*
X006480Y004830D01*
X006730Y005080D01*
X007230Y005080D01*
X007480Y004830D01*
X007730Y005080D01*
X008230Y005080D01*
X008480Y004830D01*
X008730Y005080D01*
X009230Y005080D01*
X009480Y004830D01*
X009480Y004330D01*
X009471Y005921D02*
X008971Y005921D01*
X008721Y006171D01*
X008721Y006671D01*
X008971Y006921D01*
X009471Y006921D01*
X009721Y006671D01*
X009971Y006921D01*
X010471Y006921D01*
X010721Y006671D01*
X010971Y006921D01*
X011471Y006921D01*
X011721Y006671D01*
X011721Y006171D01*
X011471Y005921D01*
X010971Y005921D01*
X010721Y006171D01*
X010471Y005921D01*
X009971Y005921D01*
X009721Y006171D01*
X009471Y005921D01*
X016530Y003930D02*
X017030Y003930D01*
X025480Y004330D02*
X025480Y004830D01*
X025730Y005080D01*
X026230Y005080D01*
X026480Y004830D01*
X026730Y005080D01*
X027230Y005080D01*
X027480Y004830D01*
X027730Y005080D01*
X028230Y005080D01*
X028480Y004830D01*
X028730Y005080D01*
X029230Y005080D01*
X029480Y004830D01*
X029730Y005080D01*
X030230Y005080D01*
X030480Y004830D01*
X030730Y005080D01*
X031230Y005080D01*
X031480Y004830D01*
X031730Y005080D01*
X032230Y005080D01*
X032480Y004830D01*
X032730Y005080D01*
X033230Y005080D01*
X033480Y004830D01*
X033730Y005080D01*
X034230Y005080D01*
X034480Y004830D01*
X034730Y005080D01*
X035230Y005080D01*
X035480Y004830D01*
X035480Y004330D01*
X035230Y004080D01*
X034730Y004080D01*
X034480Y004330D01*
X034230Y004080D01*
X033730Y004080D01*
X033480Y004330D01*
X033230Y004080D01*
X032730Y004080D01*
X032480Y004330D01*
X032230Y004080D01*
X031730Y004080D01*
X031480Y004330D01*
X031230Y004080D01*
X030730Y004080D01*
X030480Y004330D01*
X030230Y004080D01*
X029730Y004080D01*
X029480Y004330D01*
X029230Y004080D01*
X028730Y004080D01*
X028480Y004330D01*
X028230Y004080D01*
X027730Y004080D01*
X027480Y004330D01*
X027230Y004080D01*
X026730Y004080D01*
X026480Y004330D01*
X026230Y004080D01*
X025730Y004080D01*
X025480Y004330D01*
X025730Y005880D02*
X025480Y006130D01*
X025480Y006630D01*
X025730Y006880D01*
X026230Y006880D01*
X026480Y006630D01*
X026730Y006880D01*
X027230Y006880D01*
X027480Y006630D01*
X027730Y006880D01*
X028230Y006880D01*
X028480Y006630D01*
X028730Y006880D01*
X029230Y006880D01*
X029480Y006630D01*
X029730Y006880D01*
X030230Y006880D01*
X030480Y006630D01*
X030730Y006880D01*
X031230Y006880D01*
X031480Y006630D01*
X031730Y006880D01*
X032230Y006880D01*
X032480Y006630D01*
X032730Y006880D01*
X033230Y006880D01*
X033480Y006630D01*
X033730Y006880D01*
X034230Y006880D01*
X034480Y006630D01*
X034730Y006880D01*
X035230Y006880D01*
X035480Y006630D01*
X035480Y006130D01*
X035230Y005880D01*
X034730Y005880D01*
X034480Y006130D01*
X034230Y005880D01*
X033730Y005880D01*
X033480Y006130D01*
X033230Y005880D01*
X032730Y005880D01*
X032480Y006130D01*
X032230Y005880D01*
X031730Y005880D01*
X031480Y006130D01*
X031230Y005880D01*
X030730Y005880D01*
X030480Y006130D01*
X030230Y005880D01*
X029730Y005880D01*
X029480Y006130D01*
X029230Y005880D01*
X028730Y005880D01*
X028480Y006130D01*
X028230Y005880D01*
X027730Y005880D01*
X027480Y006130D01*
X027230Y005880D01*
X026730Y005880D01*
X026480Y006130D01*
X026230Y005880D01*
X025730Y005880D01*
X034586Y003895D02*
X034586Y003265D01*
X034587Y003265D02*
X034593Y003247D01*
X034602Y003229D01*
X034614Y003214D01*
X034630Y003202D01*
X034647Y003193D01*
X034666Y003187D01*
X034685Y003185D01*
X034705Y003187D01*
X035255Y003187D02*
X035273Y003185D01*
X035290Y003186D01*
X035307Y003190D01*
X035323Y003197D01*
X035338Y003207D01*
X035350Y003219D01*
X035360Y003233D01*
X035368Y003249D01*
X035373Y003265D01*
X035374Y003265D02*
X035374Y003895D01*
X035373Y003895D02*
X035368Y003911D01*
X035360Y003927D01*
X035350Y003941D01*
X035338Y003953D01*
X035323Y003963D01*
X035307Y003970D01*
X035290Y003974D01*
X035273Y003975D01*
X035255Y003973D01*
X034705Y003973D02*
X034685Y003975D01*
X034666Y003973D01*
X034647Y003967D01*
X034630Y003958D01*
X034614Y003946D01*
X034602Y003931D01*
X034593Y003913D01*
X034587Y003895D01*
D15*
X012335Y003890D02*
X012260Y003815D01*
X011960Y003815D01*
X011885Y003890D01*
X011885Y004040D01*
X011960Y004115D01*
X012260Y004115D02*
X012335Y004040D01*
X012335Y003890D01*
X012260Y003654D02*
X011960Y003654D01*
X011885Y003579D01*
X011885Y003354D01*
X012335Y003354D01*
X012335Y003579D01*
X012260Y003654D01*
X012185Y003194D02*
X011885Y003194D01*
X012185Y003194D02*
X012335Y003044D01*
X012185Y002894D01*
X011885Y002894D01*
X011885Y002734D02*
X011885Y002433D01*
X012110Y002433D01*
X012035Y002584D01*
X012035Y002659D01*
X012110Y002734D01*
X012260Y002734D01*
X012335Y002659D01*
X012335Y002508D01*
X012260Y002433D01*
D16*
X016125Y002510D02*
X016150Y002485D01*
X016175Y002485D01*
X016200Y002510D01*
X016200Y002560D01*
X016225Y002585D01*
X016250Y002585D01*
X016275Y002560D01*
X016275Y002510D01*
X016250Y002485D01*
X016125Y002510D02*
X016125Y002560D01*
X016150Y002585D01*
X016125Y002682D02*
X016125Y002732D01*
X016125Y002707D02*
X016250Y002707D01*
X016275Y002682D01*
X016275Y002657D01*
X016250Y002632D01*
X016275Y002780D02*
X016275Y002880D01*
X016275Y002830D02*
X016125Y002830D01*
X016175Y002780D01*
D17*
X018780Y004680D03*
M02*
