%
M48
M72
T01C0.0130
T02C0.0400
%
T01
X22220Y6460
T02
X6980Y4580
X7980Y4580
X8980Y4580
X11180Y3780
X12980Y3780
X12980Y2780
X11180Y2780
X16780Y4680
X17780Y4680
X18780Y4680
X19780Y4680
X20780Y4680
X20780Y5680
X19780Y5680
X18780Y5680
X17780Y5680
X16780Y5680
X11221Y6421
X10221Y6421
X9221Y6421
X25980Y6380
X26980Y6380
X27980Y6380
X28980Y6380
X29980Y6380
X30980Y6380
X31980Y6380
X32980Y6380
X33980Y6380
X34980Y6380
X34980Y4580
X33980Y4580
X32980Y4580
X31980Y4580
X30980Y4580
X29980Y4580
X28980Y4580
X27980Y4580
X26980Y4580
X25980Y4580
M30
