G75*
%MOIN*%
%OFA0B0*%
%FSLAX24Y24*%
%IPPOS*%
%LPD*%
%AMOC8*
5,1,8,0,0,1.08239X$1,22.5*
%
%ADD10C,0.0000*%
%ADD11C,0.0060*%
%ADD12C,0.0040*%
%ADD13C,0.0050*%
D10*
X005780Y001780D02*
X005780Y007276D01*
X036380Y007276D01*
X036380Y001780D01*
X036450Y001780D01*
X036380Y001780D02*
X005780Y001780D01*
X036380Y007276D02*
X036450Y007276D01*
D11*
X026150Y003051D02*
X025830Y003051D01*
X025723Y002944D01*
X025723Y002730D01*
X025830Y002624D01*
X026150Y002624D01*
X025936Y002624D02*
X025723Y002410D01*
X025505Y002517D02*
X025505Y002730D01*
X025399Y002837D01*
X025185Y002837D01*
X025078Y002730D01*
X025078Y002624D01*
X025505Y002624D01*
X025505Y002517D02*
X025399Y002410D01*
X025185Y002410D01*
X024861Y002410D02*
X024647Y002410D01*
X024754Y002410D02*
X024754Y003051D01*
X024861Y003051D01*
X024324Y002837D02*
X024111Y002837D01*
X024004Y002730D01*
X024004Y002410D01*
X024324Y002410D01*
X024431Y002517D01*
X024324Y002624D01*
X024004Y002624D01*
X023787Y002517D02*
X023680Y002410D01*
X023360Y002410D01*
X023360Y002303D02*
X023466Y002196D01*
X023573Y002196D01*
X023360Y002303D02*
X023360Y002837D01*
X023787Y002837D02*
X023787Y002517D01*
X022498Y002410D02*
X022284Y002410D01*
X022391Y002410D02*
X022391Y003051D01*
X022498Y003051D02*
X022284Y003051D01*
X022068Y002837D02*
X021748Y002837D01*
X021641Y002730D01*
X021641Y002410D01*
X021317Y002517D02*
X021210Y002410D01*
X021317Y002517D02*
X021317Y002944D01*
X021423Y002837D02*
X021210Y002837D01*
X020994Y002730D02*
X020887Y002837D01*
X020673Y002837D01*
X020567Y002730D01*
X020567Y002624D01*
X020994Y002624D01*
X020994Y002730D02*
X020994Y002517D01*
X020887Y002410D01*
X020673Y002410D01*
X020349Y002410D02*
X020349Y002837D01*
X020136Y002837D02*
X020029Y002837D01*
X020136Y002837D02*
X020349Y002624D01*
X019812Y002730D02*
X019598Y002730D01*
X019705Y002944D02*
X019598Y003051D01*
X019705Y002944D02*
X019705Y002410D01*
X019382Y002517D02*
X019275Y002624D01*
X018955Y002624D01*
X018955Y002730D02*
X018955Y002410D01*
X019275Y002410D01*
X019382Y002517D01*
X019062Y002837D02*
X018955Y002730D01*
X019062Y002837D02*
X019275Y002837D01*
X018738Y002730D02*
X018738Y002517D01*
X018631Y002410D01*
X018311Y002410D01*
X018093Y002517D02*
X018093Y002730D01*
X017986Y002837D01*
X017773Y002837D01*
X017666Y002730D01*
X017666Y002624D01*
X018093Y002624D01*
X018093Y002517D02*
X017986Y002410D01*
X017773Y002410D01*
X018631Y002837D02*
X018738Y002730D01*
X018631Y002837D02*
X018311Y002837D01*
X022068Y002837D02*
X022068Y002410D01*
X026150Y002410D02*
X026150Y003051D01*
D12*
X015360Y004800D02*
X015360Y005320D01*
X015100Y005320D01*
X015013Y005234D01*
X015013Y005060D01*
X015100Y004973D01*
X015360Y004973D01*
X015187Y004973D02*
X015013Y004800D01*
X014844Y004887D02*
X014758Y004800D01*
X014584Y004800D01*
X014497Y004973D02*
X014844Y004973D01*
X014844Y004887D02*
X014844Y005060D01*
X014758Y005147D01*
X014584Y005147D01*
X014497Y005060D01*
X014497Y004973D01*
X014329Y004973D02*
X013982Y004973D01*
X013982Y005060D01*
X014068Y005147D01*
X014242Y005147D01*
X014329Y005060D01*
X014329Y004887D01*
X014242Y004800D01*
X014068Y004800D01*
X013726Y004800D02*
X013726Y005234D01*
X013640Y005320D01*
X013640Y005060D02*
X013813Y005060D01*
X013469Y005060D02*
X013383Y004973D01*
X013209Y004973D01*
X013122Y004887D01*
X013209Y004800D01*
X013469Y004800D01*
X012954Y004887D02*
X012954Y005060D01*
X012867Y005147D01*
X012693Y005147D01*
X012607Y005060D01*
X012607Y004973D01*
X012954Y004973D01*
X012954Y004887D02*
X012867Y004800D01*
X012693Y004800D01*
X012438Y004800D02*
X012438Y005147D01*
X012178Y005147D01*
X012091Y005060D01*
X012091Y004800D01*
X011922Y004800D02*
X011662Y004800D01*
X011575Y004887D01*
X011662Y004973D01*
X011836Y004973D01*
X011922Y005060D01*
X011836Y005147D01*
X011575Y005147D01*
X011407Y005060D02*
X011320Y005147D01*
X011147Y005147D01*
X011060Y005060D01*
X011060Y004973D01*
X011407Y004973D01*
X011407Y004887D02*
X011407Y005060D01*
X011407Y004887D02*
X011320Y004800D01*
X011147Y004800D01*
X010891Y004800D02*
X010891Y004887D01*
X010804Y004887D01*
X010804Y004800D01*
X010891Y004800D01*
X010633Y004887D02*
X010547Y004800D01*
X010286Y004800D01*
X010118Y004887D02*
X010031Y004800D01*
X009857Y004800D01*
X009771Y004887D01*
X009771Y005060D01*
X009857Y005147D01*
X010031Y005147D01*
X010118Y005060D01*
X010118Y004887D01*
X010286Y005147D02*
X010547Y005147D01*
X010633Y005060D01*
X010633Y004887D01*
X009602Y004800D02*
X009602Y005147D01*
X009515Y005147D01*
X009429Y005060D01*
X009342Y005147D01*
X009255Y005060D01*
X009255Y004800D01*
X009429Y004800D02*
X009429Y005060D01*
X013122Y005147D02*
X013383Y005147D01*
X013469Y005060D01*
D13*
X033117Y002714D02*
X033117Y002307D01*
X033219Y002205D01*
X033524Y002205D01*
X033524Y002816D01*
X033219Y002816D01*
X033117Y002714D01*
X034333Y002816D02*
X034333Y002409D01*
X034536Y002205D01*
X034740Y002409D01*
X034740Y002816D01*
X034940Y002816D02*
X035347Y002816D01*
X035347Y002205D01*
X034940Y002205D01*
X035144Y002510D02*
X035347Y002510D01*
X035548Y002510D02*
X035650Y002409D01*
X035955Y002409D01*
X035751Y002409D02*
X035548Y002205D01*
X035955Y002205D02*
X035955Y002816D01*
X035650Y002816D01*
X035548Y002714D01*
X035548Y002510D01*
M02*
