G75*
%MOIN*%
%OFA0B0*%
%FSLAX24Y24*%
%IPPOS*%
%LPD*%
%AMOC8*
5,1,8,0,0,1.08239X$1,22.5*
%
%ADD10C,0.0740*%
%ADD11OC8,0.0740*%
%ADD12C,0.0160*%
%ADD13C,0.0060*%
%ADD14C,0.0270*%
D10*
X006980Y004580D03*
X007980Y004580D03*
X008980Y004580D03*
X011180Y003780D03*
X012980Y003780D03*
X012980Y002780D03*
X011180Y002780D03*
X011221Y006421D03*
X010221Y006421D03*
X009221Y006421D03*
X025980Y006380D03*
X026980Y006380D03*
X027980Y006380D03*
X028980Y006380D03*
X029980Y006380D03*
X030980Y006380D03*
X031980Y006380D03*
X032980Y006380D03*
X033980Y006380D03*
X034980Y006380D03*
X034980Y004580D03*
X033980Y004580D03*
X032980Y004580D03*
X031980Y004580D03*
X030980Y004580D03*
X029980Y004580D03*
X028980Y004580D03*
X027980Y004580D03*
X026980Y004580D03*
X025980Y004580D03*
D11*
X020780Y004680D03*
X019780Y004680D03*
X018780Y004680D03*
X017780Y004680D03*
X016780Y004680D03*
X016780Y005680D03*
X017780Y005680D03*
X018780Y005680D03*
X019780Y005680D03*
X020780Y005680D03*
D12*
X006010Y007046D02*
X006010Y002010D01*
X036150Y002010D01*
X036150Y007046D01*
X029674Y007046D01*
X029845Y006876D01*
X029879Y006890D01*
X030081Y006890D01*
X030269Y006812D01*
X030412Y006669D01*
X030480Y006506D01*
X030548Y006669D01*
X030691Y006812D01*
X030879Y006890D01*
X031081Y006890D01*
X031269Y006812D01*
X031412Y006669D01*
X031480Y006506D01*
X031548Y006669D01*
X031691Y006812D01*
X031879Y006890D01*
X032081Y006890D01*
X032269Y006812D01*
X032412Y006669D01*
X032480Y006506D01*
X032548Y006669D01*
X032691Y006812D01*
X032879Y006890D01*
X033081Y006890D01*
X033269Y006812D01*
X033412Y006669D01*
X033480Y006506D01*
X033548Y006669D01*
X033691Y006812D01*
X033879Y006890D01*
X034081Y006890D01*
X034269Y006812D01*
X034412Y006669D01*
X034480Y006506D01*
X034548Y006669D01*
X034691Y006812D01*
X034879Y006890D01*
X035081Y006890D01*
X035269Y006812D01*
X035412Y006669D01*
X035490Y006481D01*
X035490Y006279D01*
X035412Y006091D01*
X035269Y005948D01*
X035081Y005870D01*
X034879Y005870D01*
X034691Y005948D01*
X034548Y006091D01*
X034480Y006254D01*
X034412Y006091D01*
X034269Y005948D01*
X034081Y005870D01*
X033879Y005870D01*
X033873Y005872D01*
X033550Y005550D01*
X033550Y005390D01*
X033859Y005082D01*
X033879Y005090D01*
X034081Y005090D01*
X034269Y005012D01*
X034412Y004869D01*
X034480Y004706D01*
X034548Y004869D01*
X034691Y005012D01*
X034879Y005090D01*
X035081Y005090D01*
X035269Y005012D01*
X035412Y004869D01*
X035490Y004681D01*
X035490Y004479D01*
X035412Y004291D01*
X035269Y004148D01*
X035081Y004070D01*
X034879Y004070D01*
X034691Y004148D01*
X034548Y004291D01*
X034480Y004454D01*
X034412Y004291D01*
X034269Y004148D01*
X034081Y004070D01*
X033879Y004070D01*
X033691Y004148D01*
X033548Y004291D01*
X033480Y004454D01*
X033412Y004291D01*
X033269Y004148D01*
X033081Y004070D01*
X032879Y004070D01*
X032816Y004096D01*
X032190Y003470D01*
X018730Y003470D01*
X018630Y003570D01*
X018010Y004189D01*
X017991Y004170D01*
X017569Y004170D01*
X017280Y004459D01*
X016991Y004170D01*
X016569Y004170D01*
X016270Y004469D01*
X016270Y004891D01*
X016559Y005180D01*
X016270Y005469D01*
X016270Y005891D01*
X016569Y006190D01*
X016991Y006190D01*
X017280Y005901D01*
X017569Y006190D01*
X017991Y006190D01*
X018280Y005901D01*
X018569Y006190D01*
X018991Y006190D01*
X019030Y006151D01*
X019926Y007046D01*
X006010Y007046D01*
X006010Y007011D02*
X019890Y007011D01*
X019732Y006852D02*
X011564Y006852D01*
X011580Y006841D02*
X011510Y006892D01*
X011432Y006931D01*
X011350Y006958D01*
X011265Y006971D01*
X011241Y006971D01*
X011241Y006441D01*
X011201Y006441D01*
X011201Y006971D01*
X011178Y006971D01*
X011093Y006958D01*
X011010Y006931D01*
X010933Y006892D01*
X010863Y006841D01*
X010802Y006780D01*
X010751Y006710D01*
X010712Y006632D01*
X010700Y006598D01*
X010654Y006710D01*
X010510Y006854D01*
X010323Y006931D01*
X010120Y006931D01*
X009932Y006854D01*
X009789Y006710D01*
X009721Y006547D01*
X009654Y006710D01*
X009510Y006854D01*
X009323Y006931D01*
X009120Y006931D01*
X008932Y006854D01*
X008789Y006710D01*
X008711Y006523D01*
X008711Y006320D01*
X008789Y006132D01*
X008932Y005989D01*
X009120Y005911D01*
X009323Y005911D01*
X009510Y005989D01*
X009654Y006132D01*
X009721Y006296D01*
X009789Y006132D01*
X009932Y005989D01*
X010120Y005911D01*
X010323Y005911D01*
X010510Y005989D01*
X010654Y006132D01*
X010700Y006245D01*
X010712Y006210D01*
X010751Y006133D01*
X010802Y006063D01*
X010863Y006002D01*
X010933Y005951D01*
X011010Y005912D01*
X011093Y005885D01*
X011178Y005871D01*
X011201Y005871D01*
X011201Y006401D01*
X011241Y006401D01*
X011241Y005871D01*
X011265Y005871D01*
X011350Y005885D01*
X011432Y005912D01*
X011510Y005951D01*
X011580Y006002D01*
X011641Y006063D01*
X011692Y006133D01*
X011731Y006210D01*
X011758Y006293D01*
X011771Y006378D01*
X011771Y006401D01*
X011241Y006401D01*
X011241Y006441D01*
X011771Y006441D01*
X011771Y006465D01*
X011758Y006550D01*
X011731Y006632D01*
X011692Y006710D01*
X011641Y006780D01*
X011580Y006841D01*
X011700Y006694D02*
X019573Y006694D01*
X019415Y006535D02*
X011760Y006535D01*
X011771Y006377D02*
X019256Y006377D01*
X019098Y006218D02*
X011734Y006218D01*
X011637Y006060D02*
X016438Y006060D01*
X016280Y005901D02*
X011400Y005901D01*
X011241Y005901D02*
X011201Y005901D01*
X011043Y005901D02*
X006010Y005901D01*
X006010Y005743D02*
X016270Y005743D01*
X016270Y005584D02*
X006010Y005584D01*
X006010Y005426D02*
X016313Y005426D01*
X016472Y005267D02*
X006010Y005267D01*
X006010Y005109D02*
X008827Y005109D01*
X008851Y005116D02*
X008769Y005090D01*
X008692Y005050D01*
X008622Y005000D01*
X008560Y004938D01*
X008510Y004868D01*
X008470Y004791D01*
X008459Y004756D01*
X008412Y004869D01*
X008269Y005012D01*
X008081Y005090D01*
X007879Y005090D01*
X007691Y005012D01*
X007548Y004869D01*
X007480Y004706D01*
X007412Y004869D01*
X007269Y005012D01*
X007081Y005090D01*
X006879Y005090D01*
X006691Y005012D01*
X006548Y004869D01*
X006470Y004681D01*
X006470Y004479D01*
X006548Y004291D01*
X006691Y004148D01*
X006879Y004070D01*
X007081Y004070D01*
X007269Y004148D01*
X007412Y004291D01*
X007480Y004454D01*
X007548Y004291D01*
X007691Y004148D01*
X007879Y004070D01*
X008081Y004070D01*
X008269Y004148D01*
X008412Y004291D01*
X008459Y004404D01*
X008470Y004369D01*
X008510Y004292D01*
X008560Y004222D01*
X008622Y004160D01*
X008692Y004110D01*
X008769Y004070D01*
X008851Y004044D01*
X008937Y004030D01*
X008960Y004030D01*
X008960Y004560D01*
X009000Y004560D01*
X009000Y004600D01*
X008960Y004600D01*
X008960Y005130D01*
X008937Y005130D01*
X008851Y005116D01*
X008960Y005109D02*
X009000Y005109D01*
X009000Y005130D02*
X009000Y004600D01*
X009530Y004600D01*
X009530Y004623D01*
X009516Y004709D01*
X009490Y004791D01*
X009450Y004868D01*
X009400Y004938D01*
X009338Y005000D01*
X009268Y005050D01*
X009191Y005090D01*
X009109Y005116D01*
X009023Y005130D01*
X009000Y005130D01*
X009133Y005109D02*
X016487Y005109D01*
X016329Y004950D02*
X009388Y004950D01*
X009490Y004792D02*
X016270Y004792D01*
X016270Y004633D02*
X009528Y004633D01*
X009530Y004560D02*
X009000Y004560D01*
X009000Y004030D01*
X009023Y004030D01*
X009109Y004044D01*
X009191Y004070D01*
X009268Y004110D01*
X009338Y004160D01*
X009400Y004222D01*
X009450Y004292D01*
X009490Y004369D01*
X009516Y004451D01*
X009530Y004537D01*
X009530Y004560D01*
X009520Y004475D02*
X016270Y004475D01*
X016423Y004316D02*
X013110Y004316D01*
X013109Y004316D02*
X013023Y004330D01*
X013000Y004330D01*
X013000Y003800D01*
X013530Y003800D01*
X013530Y003823D01*
X013516Y003909D01*
X013490Y003991D01*
X013450Y004068D01*
X013400Y004138D01*
X013338Y004200D01*
X013268Y004250D01*
X013191Y004290D01*
X013109Y004316D01*
X013000Y004316D02*
X012960Y004316D01*
X012960Y004330D02*
X012937Y004330D01*
X012851Y004316D01*
X012769Y004290D01*
X012692Y004250D01*
X012622Y004200D01*
X012560Y004138D01*
X012510Y004068D01*
X012470Y003991D01*
X012444Y003909D01*
X012430Y003823D01*
X012430Y003800D01*
X012960Y003800D01*
X012960Y004330D01*
X012850Y004316D02*
X011310Y004316D01*
X011309Y004316D02*
X011223Y004330D01*
X011200Y004330D01*
X011200Y003800D01*
X011730Y003800D01*
X011730Y003823D01*
X011716Y003909D01*
X011690Y003991D01*
X011650Y004068D01*
X011600Y004138D01*
X011538Y004200D01*
X011468Y004250D01*
X011391Y004290D01*
X011309Y004316D01*
X011200Y004316D02*
X011160Y004316D01*
X011160Y004330D02*
X011137Y004330D01*
X011051Y004316D01*
X010969Y004290D01*
X010892Y004250D01*
X010822Y004200D01*
X010760Y004138D01*
X010710Y004068D01*
X010670Y003991D01*
X010644Y003909D01*
X010630Y003823D01*
X010630Y003800D01*
X011160Y003800D01*
X011160Y004330D01*
X011050Y004316D02*
X009463Y004316D01*
X009334Y004158D02*
X010780Y004158D01*
X010674Y003999D02*
X006010Y003999D01*
X006010Y003841D02*
X010633Y003841D01*
X010630Y003760D02*
X010630Y003737D01*
X010644Y003651D01*
X010670Y003569D01*
X010710Y003492D01*
X010760Y003422D01*
X010822Y003360D01*
X010892Y003310D01*
X010969Y003270D01*
X011004Y003259D01*
X010891Y003212D01*
X010748Y003069D01*
X010670Y002881D01*
X010670Y002679D01*
X010748Y002491D01*
X010891Y002348D01*
X011079Y002270D01*
X011281Y002270D01*
X011469Y002348D01*
X011612Y002491D01*
X011690Y002679D01*
X011690Y002881D01*
X011612Y003069D01*
X011469Y003212D01*
X011356Y003259D01*
X011391Y003270D01*
X011468Y003310D01*
X011538Y003360D01*
X011600Y003422D01*
X011650Y003492D01*
X011690Y003569D01*
X011716Y003651D01*
X011730Y003737D01*
X011730Y003760D01*
X011200Y003760D01*
X011200Y003800D01*
X011160Y003800D01*
X011160Y003760D01*
X010630Y003760D01*
X010639Y003682D02*
X006010Y003682D01*
X006010Y003524D02*
X010693Y003524D01*
X010817Y003365D02*
X006010Y003365D01*
X006010Y003207D02*
X010885Y003207D01*
X010739Y003048D02*
X006010Y003048D01*
X006010Y002890D02*
X010673Y002890D01*
X010670Y002731D02*
X006010Y002731D01*
X006010Y002573D02*
X010714Y002573D01*
X010825Y002414D02*
X006010Y002414D01*
X006010Y002256D02*
X036150Y002256D01*
X036150Y002414D02*
X013335Y002414D01*
X013269Y002348D02*
X013412Y002491D01*
X013490Y002679D01*
X013490Y002881D01*
X013412Y003069D01*
X013269Y003212D01*
X013156Y003259D01*
X013191Y003270D01*
X013268Y003310D01*
X013338Y003360D01*
X013400Y003422D01*
X013450Y003492D01*
X013490Y003569D01*
X013516Y003651D01*
X013530Y003737D01*
X013530Y003760D01*
X013000Y003760D01*
X013000Y003800D01*
X012960Y003800D01*
X012960Y003760D01*
X012430Y003760D01*
X012430Y003737D01*
X012444Y003651D01*
X012470Y003569D01*
X012510Y003492D01*
X012560Y003422D01*
X012622Y003360D01*
X012692Y003310D01*
X012769Y003270D01*
X012804Y003259D01*
X012691Y003212D01*
X012548Y003069D01*
X012470Y002881D01*
X012470Y002679D01*
X012548Y002491D01*
X012691Y002348D01*
X012879Y002270D01*
X013081Y002270D01*
X013269Y002348D01*
X013446Y002573D02*
X036150Y002573D01*
X036150Y002731D02*
X013490Y002731D01*
X013487Y002890D02*
X036150Y002890D01*
X036150Y003048D02*
X013421Y003048D01*
X013275Y003207D02*
X036150Y003207D01*
X036150Y003365D02*
X013343Y003365D01*
X013467Y003524D02*
X018676Y003524D01*
X018518Y003682D02*
X013521Y003682D01*
X013527Y003841D02*
X018359Y003841D01*
X018201Y003999D02*
X013486Y003999D01*
X013380Y004158D02*
X018042Y004158D01*
X017423Y004316D02*
X017137Y004316D01*
X020760Y005700D02*
X020760Y006230D01*
X020552Y006230D01*
X020252Y005930D01*
X020251Y005930D01*
X020550Y006230D01*
X021850Y006230D01*
X022470Y005610D01*
X022570Y005510D01*
X027450Y005510D01*
X027830Y005890D01*
X027879Y005870D01*
X028081Y005870D01*
X028269Y005948D01*
X028412Y006091D01*
X028480Y006254D01*
X028548Y006091D01*
X028691Y005948D01*
X028879Y005870D01*
X029081Y005870D01*
X029269Y005948D01*
X029412Y006091D01*
X029480Y006254D01*
X029548Y006091D01*
X029691Y005948D01*
X029879Y005870D01*
X030081Y005870D01*
X030269Y005948D01*
X030412Y006091D01*
X030480Y006254D01*
X030548Y006091D01*
X030691Y005948D01*
X030879Y005870D01*
X031081Y005870D01*
X031269Y005948D01*
X031412Y006091D01*
X031480Y006254D01*
X031548Y006091D01*
X031691Y005948D01*
X031879Y005870D01*
X032081Y005870D01*
X032269Y005948D01*
X032412Y006091D01*
X032480Y006254D01*
X032548Y006091D01*
X032691Y005948D01*
X032879Y005870D01*
X033081Y005870D01*
X033269Y005948D01*
X033412Y006091D01*
X033480Y006254D01*
X033548Y006091D01*
X033579Y006060D01*
X033310Y005790D01*
X033210Y005690D01*
X033210Y005490D01*
X025690Y005490D01*
X025590Y005390D01*
X025570Y005370D01*
X021390Y005370D01*
X021319Y005441D01*
X021330Y005452D01*
X021330Y005660D01*
X020800Y005660D01*
X020800Y005700D01*
X020760Y005700D01*
X020800Y005700D02*
X020800Y006230D01*
X021008Y006230D01*
X021330Y005908D01*
X021330Y005700D01*
X020800Y005700D01*
X020800Y005743D02*
X020760Y005743D01*
X020760Y005901D02*
X020800Y005901D01*
X020800Y006060D02*
X020760Y006060D01*
X020760Y006218D02*
X020800Y006218D01*
X021020Y006218D02*
X021862Y006218D01*
X022020Y006060D02*
X021178Y006060D01*
X021330Y005901D02*
X022179Y005901D01*
X022337Y005743D02*
X021330Y005743D01*
X021330Y005584D02*
X022496Y005584D01*
X021335Y005426D02*
X025625Y005426D01*
X025590Y005390D02*
X025590Y005390D01*
X027524Y005584D02*
X033210Y005584D01*
X033262Y005743D02*
X027683Y005743D01*
X028156Y005901D02*
X028804Y005901D01*
X028579Y006060D02*
X028381Y006060D01*
X028465Y006218D02*
X028495Y006218D01*
X029156Y005901D02*
X029804Y005901D01*
X029579Y006060D02*
X029381Y006060D01*
X029465Y006218D02*
X029495Y006218D01*
X030156Y005901D02*
X030804Y005901D01*
X030579Y006060D02*
X030381Y006060D01*
X030465Y006218D02*
X030495Y006218D01*
X030492Y006535D02*
X030468Y006535D01*
X030388Y006694D02*
X030572Y006694D01*
X030787Y006852D02*
X030173Y006852D01*
X029710Y007011D02*
X036150Y007011D01*
X036150Y006852D02*
X035173Y006852D01*
X035388Y006694D02*
X036150Y006694D01*
X036150Y006535D02*
X035468Y006535D01*
X035490Y006377D02*
X036150Y006377D01*
X036150Y006218D02*
X035465Y006218D01*
X035381Y006060D02*
X036150Y006060D01*
X036150Y005901D02*
X035156Y005901D01*
X034804Y005901D02*
X034156Y005901D01*
X034381Y006060D02*
X034579Y006060D01*
X034495Y006218D02*
X034465Y006218D01*
X034468Y006535D02*
X034492Y006535D01*
X034572Y006694D02*
X034388Y006694D01*
X034173Y006852D02*
X034787Y006852D01*
X033787Y006852D02*
X033173Y006852D01*
X033388Y006694D02*
X033572Y006694D01*
X033492Y006535D02*
X033468Y006535D01*
X033465Y006218D02*
X033495Y006218D01*
X033579Y006060D02*
X033381Y006060D01*
X033421Y005901D02*
X033156Y005901D01*
X032804Y005901D02*
X032156Y005901D01*
X032381Y006060D02*
X032579Y006060D01*
X032495Y006218D02*
X032465Y006218D01*
X032468Y006535D02*
X032492Y006535D01*
X032572Y006694D02*
X032388Y006694D01*
X032173Y006852D02*
X032787Y006852D01*
X031787Y006852D02*
X031173Y006852D01*
X031388Y006694D02*
X031572Y006694D01*
X031492Y006535D02*
X031468Y006535D01*
X031465Y006218D02*
X031495Y006218D01*
X031579Y006060D02*
X031381Y006060D01*
X031156Y005901D02*
X031804Y005901D01*
X033584Y005584D02*
X036150Y005584D01*
X036150Y005426D02*
X033550Y005426D01*
X033673Y005267D02*
X036150Y005267D01*
X036150Y005109D02*
X033832Y005109D01*
X034331Y004950D02*
X034629Y004950D01*
X034516Y004792D02*
X034444Y004792D01*
X035331Y004950D02*
X036150Y004950D01*
X036150Y004792D02*
X035444Y004792D01*
X035490Y004633D02*
X036150Y004633D01*
X036150Y004475D02*
X035488Y004475D01*
X035423Y004316D02*
X036150Y004316D01*
X036150Y004158D02*
X035279Y004158D01*
X034681Y004158D02*
X034279Y004158D01*
X034423Y004316D02*
X034537Y004316D01*
X033681Y004158D02*
X033279Y004158D01*
X033423Y004316D02*
X033537Y004316D01*
X032719Y003999D02*
X036150Y003999D01*
X036150Y003841D02*
X032561Y003841D01*
X032402Y003682D02*
X036150Y003682D01*
X036150Y003524D02*
X032244Y003524D01*
X036150Y002097D02*
X006010Y002097D01*
X006010Y004158D02*
X006681Y004158D01*
X006537Y004316D02*
X006010Y004316D01*
X006010Y004475D02*
X006472Y004475D01*
X006470Y004633D02*
X006010Y004633D01*
X006010Y004792D02*
X006516Y004792D01*
X006629Y004950D02*
X006010Y004950D01*
X007331Y004950D02*
X007629Y004950D01*
X007516Y004792D02*
X007444Y004792D01*
X007423Y004316D02*
X007537Y004316D01*
X007681Y004158D02*
X007279Y004158D01*
X008279Y004158D02*
X008626Y004158D01*
X008497Y004316D02*
X008423Y004316D01*
X008960Y004316D02*
X009000Y004316D01*
X009000Y004158D02*
X008960Y004158D01*
X008960Y004475D02*
X009000Y004475D01*
X009000Y004633D02*
X008960Y004633D01*
X008960Y004792D02*
X009000Y004792D01*
X009000Y004950D02*
X008960Y004950D01*
X008572Y004950D02*
X008331Y004950D01*
X008444Y004792D02*
X008470Y004792D01*
X008862Y006060D02*
X006010Y006060D01*
X006010Y006218D02*
X008754Y006218D01*
X008711Y006377D02*
X006010Y006377D01*
X006010Y006535D02*
X008716Y006535D01*
X008782Y006694D02*
X006010Y006694D01*
X006010Y006852D02*
X008931Y006852D01*
X009512Y006852D02*
X009931Y006852D01*
X009782Y006694D02*
X009661Y006694D01*
X010512Y006852D02*
X010878Y006852D01*
X010743Y006694D02*
X010661Y006694D01*
X011201Y006694D02*
X011241Y006694D01*
X011241Y006852D02*
X011201Y006852D01*
X011201Y006535D02*
X011241Y006535D01*
X011241Y006377D02*
X011201Y006377D01*
X011201Y006218D02*
X011241Y006218D01*
X011241Y006060D02*
X011201Y006060D01*
X010805Y006060D02*
X010581Y006060D01*
X010689Y006218D02*
X010709Y006218D01*
X009862Y006060D02*
X009581Y006060D01*
X009689Y006218D02*
X009754Y006218D01*
X011160Y004158D02*
X011200Y004158D01*
X011200Y003999D02*
X011160Y003999D01*
X011160Y003841D02*
X011200Y003841D01*
X011580Y004158D02*
X012580Y004158D01*
X012474Y003999D02*
X011686Y003999D01*
X011727Y003841D02*
X012433Y003841D01*
X012439Y003682D02*
X011721Y003682D01*
X011667Y003524D02*
X012493Y003524D01*
X012617Y003365D02*
X011543Y003365D01*
X011475Y003207D02*
X012685Y003207D01*
X012539Y003048D02*
X011621Y003048D01*
X011687Y002890D02*
X012473Y002890D01*
X012470Y002731D02*
X011690Y002731D01*
X011646Y002573D02*
X012514Y002573D01*
X012625Y002414D02*
X011535Y002414D01*
X012960Y003841D02*
X013000Y003841D01*
X013000Y003999D02*
X012960Y003999D01*
X012960Y004158D02*
X013000Y004158D01*
X017122Y006060D02*
X017438Y006060D01*
X018122Y006060D02*
X018438Y006060D01*
X020380Y006060D02*
X020382Y006060D01*
X020538Y006218D02*
X020540Y006218D01*
X033743Y005743D02*
X036150Y005743D01*
D13*
X033980Y006220D02*
X033380Y005620D01*
X033380Y005320D01*
X033980Y004720D01*
X033980Y004580D01*
X033020Y004540D02*
X032980Y004580D01*
X033020Y004540D02*
X032120Y003640D01*
X018800Y003640D01*
X017780Y004660D01*
X017780Y004680D01*
X017600Y005200D02*
X021020Y005200D01*
X021140Y005320D01*
X021200Y005320D01*
X021320Y005200D01*
X025640Y005200D01*
X025760Y005320D01*
X033380Y005320D01*
X033980Y006220D02*
X033980Y006380D01*
X029980Y006380D02*
X029960Y006400D01*
X029960Y006520D01*
X029420Y007060D01*
X020180Y007060D01*
X018800Y005680D01*
X018780Y005680D01*
X019780Y005680D02*
X019820Y005680D01*
X020000Y005860D01*
X020000Y005920D01*
X020480Y006400D01*
X021920Y006400D01*
X022640Y005680D01*
X027380Y005680D01*
X027980Y006280D01*
X027980Y006380D01*
X025980Y006380D02*
X025940Y006400D01*
X025640Y006400D01*
X025580Y006460D01*
X022220Y006460D01*
X020780Y004680D02*
X020780Y004660D01*
X024920Y004660D01*
X025700Y003880D01*
X026360Y003880D01*
X027020Y004540D01*
X026980Y004580D01*
X028280Y003760D02*
X028940Y004420D01*
X028940Y004540D01*
X028980Y004580D01*
X028280Y003760D02*
X020720Y003760D01*
X019820Y004660D01*
X019780Y004680D01*
X017600Y005200D02*
X017120Y005680D01*
X016780Y005680D01*
D14*
X022220Y006460D03*
M02*
