G75*
%MOIN*%
%OFA0B0*%
%FSLAX24Y24*%
%IPPOS*%
%LPD*%
%AMOC8*
5,1,8,0,0,1.08239X$1,22.5*
%
%ADD10C,0.0000*%
%ADD11C,0.0030*%
%ADD12C,0.0060*%
%ADD13C,0.0040*%
%ADD14C,0.0080*%
%ADD15C,0.0010*%
%ADD16C,0.0100*%
D10*
X005780Y001380D02*
X005780Y016876D01*
X023580Y016876D01*
X023580Y001380D01*
X005780Y001380D01*
X006350Y002580D02*
X006352Y002630D01*
X006358Y002680D01*
X006368Y002729D01*
X006382Y002777D01*
X006399Y002824D01*
X006420Y002869D01*
X006445Y002913D01*
X006473Y002954D01*
X006505Y002993D01*
X006539Y003030D01*
X006576Y003064D01*
X006616Y003094D01*
X006658Y003121D01*
X006702Y003145D01*
X006748Y003166D01*
X006795Y003182D01*
X006843Y003195D01*
X006893Y003204D01*
X006942Y003209D01*
X006993Y003210D01*
X007043Y003207D01*
X007092Y003200D01*
X007141Y003189D01*
X007189Y003174D01*
X007235Y003156D01*
X007280Y003134D01*
X007323Y003108D01*
X007364Y003079D01*
X007403Y003047D01*
X007439Y003012D01*
X007471Y002974D01*
X007501Y002934D01*
X007528Y002891D01*
X007551Y002847D01*
X007570Y002801D01*
X007586Y002753D01*
X007598Y002704D01*
X007606Y002655D01*
X007610Y002605D01*
X007610Y002555D01*
X007606Y002505D01*
X007598Y002456D01*
X007586Y002407D01*
X007570Y002359D01*
X007551Y002313D01*
X007528Y002269D01*
X007501Y002226D01*
X007471Y002186D01*
X007439Y002148D01*
X007403Y002113D01*
X007364Y002081D01*
X007323Y002052D01*
X007280Y002026D01*
X007235Y002004D01*
X007189Y001986D01*
X007141Y001971D01*
X007092Y001960D01*
X007043Y001953D01*
X006993Y001950D01*
X006942Y001951D01*
X006893Y001956D01*
X006843Y001965D01*
X006795Y001978D01*
X006748Y001994D01*
X006702Y002015D01*
X006658Y002039D01*
X006616Y002066D01*
X006576Y002096D01*
X006539Y002130D01*
X006505Y002167D01*
X006473Y002206D01*
X006445Y002247D01*
X006420Y002291D01*
X006399Y002336D01*
X006382Y002383D01*
X006368Y002431D01*
X006358Y002480D01*
X006352Y002530D01*
X006350Y002580D01*
X021750Y002580D02*
X021752Y002630D01*
X021758Y002680D01*
X021768Y002729D01*
X021782Y002777D01*
X021799Y002824D01*
X021820Y002869D01*
X021845Y002913D01*
X021873Y002954D01*
X021905Y002993D01*
X021939Y003030D01*
X021976Y003064D01*
X022016Y003094D01*
X022058Y003121D01*
X022102Y003145D01*
X022148Y003166D01*
X022195Y003182D01*
X022243Y003195D01*
X022293Y003204D01*
X022342Y003209D01*
X022393Y003210D01*
X022443Y003207D01*
X022492Y003200D01*
X022541Y003189D01*
X022589Y003174D01*
X022635Y003156D01*
X022680Y003134D01*
X022723Y003108D01*
X022764Y003079D01*
X022803Y003047D01*
X022839Y003012D01*
X022871Y002974D01*
X022901Y002934D01*
X022928Y002891D01*
X022951Y002847D01*
X022970Y002801D01*
X022986Y002753D01*
X022998Y002704D01*
X023006Y002655D01*
X023010Y002605D01*
X023010Y002555D01*
X023006Y002505D01*
X022998Y002456D01*
X022986Y002407D01*
X022970Y002359D01*
X022951Y002313D01*
X022928Y002269D01*
X022901Y002226D01*
X022871Y002186D01*
X022839Y002148D01*
X022803Y002113D01*
X022764Y002081D01*
X022723Y002052D01*
X022680Y002026D01*
X022635Y002004D01*
X022589Y001986D01*
X022541Y001971D01*
X022492Y001960D01*
X022443Y001953D01*
X022393Y001950D01*
X022342Y001951D01*
X022293Y001956D01*
X022243Y001965D01*
X022195Y001978D01*
X022148Y001994D01*
X022102Y002015D01*
X022058Y002039D01*
X022016Y002066D01*
X021976Y002096D01*
X021939Y002130D01*
X021905Y002167D01*
X021873Y002206D01*
X021845Y002247D01*
X021820Y002291D01*
X021799Y002336D01*
X021782Y002383D01*
X021768Y002431D01*
X021758Y002480D01*
X021752Y002530D01*
X021750Y002580D01*
X021550Y015580D02*
X021552Y015630D01*
X021558Y015680D01*
X021568Y015729D01*
X021582Y015777D01*
X021599Y015824D01*
X021620Y015869D01*
X021645Y015913D01*
X021673Y015954D01*
X021705Y015993D01*
X021739Y016030D01*
X021776Y016064D01*
X021816Y016094D01*
X021858Y016121D01*
X021902Y016145D01*
X021948Y016166D01*
X021995Y016182D01*
X022043Y016195D01*
X022093Y016204D01*
X022142Y016209D01*
X022193Y016210D01*
X022243Y016207D01*
X022292Y016200D01*
X022341Y016189D01*
X022389Y016174D01*
X022435Y016156D01*
X022480Y016134D01*
X022523Y016108D01*
X022564Y016079D01*
X022603Y016047D01*
X022639Y016012D01*
X022671Y015974D01*
X022701Y015934D01*
X022728Y015891D01*
X022751Y015847D01*
X022770Y015801D01*
X022786Y015753D01*
X022798Y015704D01*
X022806Y015655D01*
X022810Y015605D01*
X022810Y015555D01*
X022806Y015505D01*
X022798Y015456D01*
X022786Y015407D01*
X022770Y015359D01*
X022751Y015313D01*
X022728Y015269D01*
X022701Y015226D01*
X022671Y015186D01*
X022639Y015148D01*
X022603Y015113D01*
X022564Y015081D01*
X022523Y015052D01*
X022480Y015026D01*
X022435Y015004D01*
X022389Y014986D01*
X022341Y014971D01*
X022292Y014960D01*
X022243Y014953D01*
X022193Y014950D01*
X022142Y014951D01*
X022093Y014956D01*
X022043Y014965D01*
X021995Y014978D01*
X021948Y014994D01*
X021902Y015015D01*
X021858Y015039D01*
X021816Y015066D01*
X021776Y015096D01*
X021739Y015130D01*
X021705Y015167D01*
X021673Y015206D01*
X021645Y015247D01*
X021620Y015291D01*
X021599Y015336D01*
X021582Y015383D01*
X021568Y015431D01*
X021558Y015480D01*
X021552Y015530D01*
X021550Y015580D01*
X006350Y015580D02*
X006352Y015630D01*
X006358Y015680D01*
X006368Y015729D01*
X006382Y015777D01*
X006399Y015824D01*
X006420Y015869D01*
X006445Y015913D01*
X006473Y015954D01*
X006505Y015993D01*
X006539Y016030D01*
X006576Y016064D01*
X006616Y016094D01*
X006658Y016121D01*
X006702Y016145D01*
X006748Y016166D01*
X006795Y016182D01*
X006843Y016195D01*
X006893Y016204D01*
X006942Y016209D01*
X006993Y016210D01*
X007043Y016207D01*
X007092Y016200D01*
X007141Y016189D01*
X007189Y016174D01*
X007235Y016156D01*
X007280Y016134D01*
X007323Y016108D01*
X007364Y016079D01*
X007403Y016047D01*
X007439Y016012D01*
X007471Y015974D01*
X007501Y015934D01*
X007528Y015891D01*
X007551Y015847D01*
X007570Y015801D01*
X007586Y015753D01*
X007598Y015704D01*
X007606Y015655D01*
X007610Y015605D01*
X007610Y015555D01*
X007606Y015505D01*
X007598Y015456D01*
X007586Y015407D01*
X007570Y015359D01*
X007551Y015313D01*
X007528Y015269D01*
X007501Y015226D01*
X007471Y015186D01*
X007439Y015148D01*
X007403Y015113D01*
X007364Y015081D01*
X007323Y015052D01*
X007280Y015026D01*
X007235Y015004D01*
X007189Y014986D01*
X007141Y014971D01*
X007092Y014960D01*
X007043Y014953D01*
X006993Y014950D01*
X006942Y014951D01*
X006893Y014956D01*
X006843Y014965D01*
X006795Y014978D01*
X006748Y014994D01*
X006702Y015015D01*
X006658Y015039D01*
X006616Y015066D01*
X006576Y015096D01*
X006539Y015130D01*
X006505Y015167D01*
X006473Y015206D01*
X006445Y015247D01*
X006420Y015291D01*
X006399Y015336D01*
X006382Y015383D01*
X006368Y015431D01*
X006358Y015480D01*
X006352Y015530D01*
X006350Y015580D01*
D11*
X013561Y012315D02*
X013684Y012315D01*
X013623Y012315D02*
X013623Y012007D01*
X013561Y011945D01*
X013499Y011945D01*
X013438Y012007D01*
X013806Y012007D02*
X013868Y011945D01*
X013991Y011945D01*
X014053Y012007D01*
X014053Y012130D01*
X013991Y012192D01*
X013868Y012192D01*
X013806Y012130D01*
X013806Y012007D01*
X014174Y011945D02*
X014298Y011945D01*
X014236Y011945D02*
X014236Y012192D01*
X014174Y012192D01*
X014236Y012315D02*
X014236Y012377D01*
X014420Y012192D02*
X014605Y012192D01*
X014667Y012130D01*
X014667Y011945D01*
X014420Y011945D02*
X014420Y012192D01*
X015156Y012254D02*
X015156Y012007D01*
X015218Y011945D01*
X015341Y011945D01*
X015403Y012007D01*
X015403Y012130D01*
X015280Y012130D01*
X015403Y012254D02*
X015341Y012315D01*
X015218Y012315D01*
X015156Y012254D01*
X015525Y012315D02*
X015772Y011945D01*
X015772Y012315D01*
X015893Y012315D02*
X016078Y012315D01*
X016140Y012254D01*
X016140Y012007D01*
X016078Y011945D01*
X015893Y011945D01*
X015893Y012315D01*
X015525Y012315D02*
X015525Y011945D01*
X015000Y002315D02*
X015124Y002192D01*
X015124Y001945D01*
X015124Y002130D02*
X014877Y002130D01*
X014877Y002192D02*
X014877Y001945D01*
X014877Y002192D02*
X015000Y002315D01*
X014387Y002192D02*
X014263Y001945D01*
X014140Y002192D01*
X014019Y002130D02*
X013957Y002192D01*
X013833Y002192D01*
X013772Y002130D01*
X013772Y002007D01*
X013833Y001945D01*
X013957Y001945D01*
X014019Y002068D02*
X013772Y002068D01*
X013650Y002130D02*
X013589Y002068D01*
X013403Y002068D01*
X013403Y001945D02*
X013403Y002315D01*
X013589Y002315D01*
X013650Y002254D01*
X013650Y002130D01*
X013527Y002068D02*
X013650Y001945D01*
X014019Y002068D02*
X014019Y002130D01*
D12*
X011837Y002130D02*
X011410Y002130D01*
X010476Y002130D02*
X010049Y002130D01*
X010262Y002344D02*
X010262Y001917D01*
X017464Y002288D02*
X017891Y002288D01*
X017677Y002075D02*
X017677Y002502D01*
X018211Y002227D02*
X018638Y002227D01*
X021849Y004610D02*
X021849Y004960D01*
X021966Y005077D01*
X022200Y005077D01*
X022316Y004960D01*
X022316Y004610D01*
X022550Y004610D02*
X021849Y004610D01*
X022200Y005310D02*
X022433Y005310D01*
X022550Y005427D01*
X022550Y005660D01*
X022433Y005777D01*
X022200Y005777D01*
X022083Y005660D01*
X022083Y005427D01*
X022200Y005310D01*
X022083Y006010D02*
X022433Y006010D01*
X022550Y006126D01*
X022433Y006243D01*
X022550Y006360D01*
X022433Y006477D01*
X022083Y006477D01*
X022200Y006709D02*
X022083Y006826D01*
X022083Y007060D01*
X022200Y007176D01*
X022316Y007176D01*
X022316Y006709D01*
X022200Y006709D02*
X022433Y006709D01*
X022550Y006826D01*
X022550Y007060D01*
X022550Y007409D02*
X022083Y007409D01*
X022316Y007409D02*
X022083Y007643D01*
X022083Y007759D01*
X022200Y008692D02*
X022200Y009042D01*
X022316Y009159D01*
X022433Y009159D01*
X022550Y009042D01*
X022550Y008692D01*
X021849Y008692D01*
X021849Y009042D01*
X021966Y009159D01*
X022083Y009159D01*
X022200Y009042D01*
X022200Y009392D02*
X022433Y009392D01*
X022550Y009509D01*
X022550Y009742D01*
X022433Y009859D01*
X022200Y009859D01*
X022083Y009742D01*
X022083Y009509D01*
X022200Y009392D01*
X022433Y010092D02*
X022316Y010209D01*
X022316Y010559D01*
X022200Y010559D02*
X022550Y010559D01*
X022550Y010209D01*
X022433Y010092D01*
X022083Y010209D02*
X022083Y010442D01*
X022200Y010559D01*
X022316Y010792D02*
X022083Y011025D01*
X022083Y011142D01*
X022200Y011375D02*
X022083Y011491D01*
X022083Y011842D01*
X021849Y011842D02*
X022550Y011842D01*
X022550Y011491D01*
X022433Y011375D01*
X022200Y011375D01*
X022083Y010792D02*
X022550Y010792D01*
X019271Y009294D02*
X019164Y009401D01*
X018950Y009401D01*
X018844Y009294D01*
X018844Y008867D01*
X018950Y008760D01*
X019164Y008760D01*
X019271Y008867D01*
X018626Y008867D02*
X018626Y009294D01*
X018519Y009401D01*
X018199Y009401D01*
X018199Y008760D01*
X018519Y008760D01*
X018626Y008867D01*
X017982Y008974D02*
X017982Y009401D01*
X017555Y009401D02*
X017555Y008974D01*
X017768Y008760D01*
X017982Y008974D01*
X017337Y009080D02*
X017017Y009080D01*
X016910Y009187D01*
X016910Y009294D01*
X017017Y009401D01*
X017230Y009401D01*
X017337Y009294D01*
X017337Y008867D01*
X017230Y008760D01*
X017017Y008760D01*
X016910Y008867D01*
X012071Y008867D02*
X011964Y008760D01*
X011750Y008760D01*
X011644Y008867D01*
X011644Y009294D01*
X011750Y009401D01*
X011964Y009401D01*
X012071Y009294D01*
X011426Y009294D02*
X011319Y009401D01*
X010999Y009401D01*
X010999Y008760D01*
X011319Y008760D01*
X011426Y008867D01*
X011426Y009294D01*
X010782Y009401D02*
X010782Y008974D01*
X010568Y008760D01*
X010355Y008974D01*
X010355Y009401D01*
X010137Y009401D02*
X009710Y009401D01*
X009710Y009080D01*
X009924Y009187D01*
X010030Y009187D01*
X010137Y009080D01*
X010137Y008867D01*
X010030Y008760D01*
X009817Y008760D01*
X009710Y008867D01*
D13*
X006960Y008957D02*
X006883Y008881D01*
X006730Y008881D01*
X006653Y008957D01*
X006653Y009111D01*
X006730Y009188D01*
X006883Y009188D01*
X006960Y009111D01*
X006960Y008957D01*
X006960Y008727D02*
X006960Y008497D01*
X006883Y008420D01*
X006730Y008420D01*
X006653Y008497D01*
X006653Y008727D01*
X006883Y008267D02*
X006960Y008267D01*
X006960Y008190D01*
X006883Y008190D01*
X006883Y008267D01*
X006807Y008037D02*
X006807Y007730D01*
X006883Y007730D02*
X006730Y007730D01*
X006653Y007806D01*
X006653Y007960D01*
X006730Y008037D01*
X006807Y008037D01*
X006960Y007960D02*
X006960Y007806D01*
X006883Y007730D01*
X006883Y007576D02*
X006807Y007499D01*
X006807Y007346D01*
X006730Y007269D01*
X006653Y007346D01*
X006653Y007576D01*
X006883Y007576D02*
X006960Y007499D01*
X006960Y007269D01*
X006960Y007116D02*
X006730Y007116D01*
X006653Y007039D01*
X006653Y006809D01*
X006960Y006809D01*
X006807Y006655D02*
X006807Y006348D01*
X006883Y006348D02*
X006730Y006348D01*
X006653Y006425D01*
X006653Y006579D01*
X006730Y006655D01*
X006807Y006655D01*
X006960Y006579D02*
X006960Y006425D01*
X006883Y006348D01*
X006883Y006195D02*
X006807Y006118D01*
X006807Y005965D01*
X006730Y005888D01*
X006653Y005965D01*
X006653Y006195D01*
X006883Y006195D02*
X006960Y006118D01*
X006960Y005888D01*
X006960Y005658D02*
X006576Y005658D01*
X006500Y005735D01*
X006730Y005735D02*
X006730Y005581D01*
X006730Y005428D02*
X006807Y005428D01*
X006807Y005121D01*
X006883Y005121D02*
X006730Y005121D01*
X006653Y005198D01*
X006653Y005351D01*
X006730Y005428D01*
X006960Y005351D02*
X006960Y005198D01*
X006883Y005121D01*
X006807Y004967D02*
X006807Y004660D01*
X006883Y004660D02*
X006730Y004660D01*
X006653Y004737D01*
X006653Y004891D01*
X006730Y004967D01*
X006807Y004967D01*
X006960Y004891D02*
X006960Y004737D01*
X006883Y004660D01*
X006960Y004507D02*
X006807Y004353D01*
X006807Y004430D02*
X006807Y004200D01*
X006960Y004200D02*
X006500Y004200D01*
X006500Y004430D01*
X006576Y004507D01*
X006730Y004507D01*
X006807Y004430D01*
X006960Y009341D02*
X006653Y009341D01*
X006653Y009418D01*
X006730Y009495D01*
X006653Y009571D01*
X006730Y009648D01*
X006960Y009648D01*
X006960Y009495D02*
X006730Y009495D01*
D14*
X008480Y009580D02*
X008780Y009580D01*
X008780Y009480D01*
X008780Y009580D02*
X009080Y009580D01*
X009080Y011580D01*
X008780Y011580D01*
X008780Y011680D01*
X008780Y011580D02*
X008480Y011580D01*
X008480Y009580D01*
X010130Y008080D02*
X009880Y007830D01*
X009880Y007330D01*
X010130Y007080D01*
X010630Y007080D01*
X010880Y007330D01*
X011130Y007080D01*
X011630Y007080D01*
X011880Y007330D01*
X011880Y007830D01*
X011630Y008080D01*
X011130Y008080D01*
X010880Y007830D01*
X010630Y008080D01*
X010130Y008080D01*
X010130Y006080D02*
X009880Y005830D01*
X009880Y005330D01*
X010130Y005080D01*
X010630Y005080D01*
X010880Y005330D01*
X011130Y005080D01*
X011630Y005080D01*
X011880Y005330D01*
X011880Y005830D01*
X011630Y006080D01*
X011130Y006080D01*
X010880Y005830D01*
X010630Y006080D01*
X010130Y006080D01*
X010130Y003880D02*
X009880Y003630D01*
X009880Y003130D01*
X010130Y002880D01*
X010630Y002880D01*
X010880Y003130D01*
X011130Y002880D01*
X011630Y002880D01*
X011880Y003130D01*
X011880Y003630D01*
X011630Y003880D01*
X011130Y003880D01*
X010880Y003630D01*
X010630Y003880D01*
X010130Y003880D01*
X017080Y003630D02*
X017080Y003130D01*
X017330Y002880D01*
X017830Y002880D01*
X018080Y003130D01*
X018330Y002880D01*
X018830Y002880D01*
X019080Y003130D01*
X019080Y003630D01*
X018830Y003880D01*
X018330Y003880D01*
X018080Y003630D01*
X017830Y003880D01*
X017330Y003880D01*
X017080Y003630D01*
X017330Y005080D02*
X017830Y005080D01*
X018080Y005330D01*
X018330Y005080D01*
X018830Y005080D01*
X019080Y005330D01*
X019080Y005830D01*
X018830Y006080D01*
X018330Y006080D01*
X018080Y005830D01*
X017830Y006080D01*
X017330Y006080D01*
X017080Y005830D01*
X017080Y005330D01*
X017330Y005080D01*
X017330Y007080D02*
X017830Y007080D01*
X018080Y007330D01*
X018330Y007080D01*
X018830Y007080D01*
X019080Y007330D01*
X019080Y007830D01*
X018830Y008080D01*
X018330Y008080D01*
X018080Y007830D01*
X017830Y008080D01*
X017330Y008080D01*
X017080Y007830D01*
X017080Y007330D01*
X017330Y007080D01*
X020580Y009680D02*
X020580Y009780D01*
X020280Y009780D01*
X020280Y011780D01*
X020580Y011780D01*
X020580Y011880D01*
X020580Y011780D02*
X020880Y011780D01*
X020880Y009780D01*
X020580Y009780D01*
X014895Y010986D02*
X014265Y010986D01*
X014265Y010987D02*
X014249Y010992D01*
X014233Y011000D01*
X014219Y011010D01*
X014207Y011022D01*
X014197Y011037D01*
X014190Y011053D01*
X014186Y011070D01*
X014185Y011087D01*
X014187Y011105D01*
X014895Y010987D02*
X014911Y010992D01*
X014927Y011000D01*
X014941Y011010D01*
X014953Y011022D01*
X014963Y011037D01*
X014970Y011053D01*
X014974Y011070D01*
X014975Y011087D01*
X014973Y011105D01*
X014973Y011655D02*
X014975Y011673D01*
X014974Y011690D01*
X014970Y011707D01*
X014963Y011723D01*
X014953Y011738D01*
X014941Y011750D01*
X014927Y011760D01*
X014911Y011768D01*
X014895Y011773D01*
X014895Y011774D02*
X014265Y011774D01*
X014265Y011773D02*
X014249Y011768D01*
X014233Y011760D01*
X014219Y011750D01*
X014207Y011738D01*
X014197Y011723D01*
X014190Y011707D01*
X014186Y011690D01*
X014185Y011673D01*
X014187Y011655D01*
X013169Y013081D02*
X008760Y013081D01*
X008760Y013474D01*
X013169Y013474D01*
X013169Y013081D01*
X013169Y013474D02*
X013169Y016034D01*
X008760Y016034D01*
X008760Y013474D01*
X015960Y013474D02*
X015960Y013081D01*
X020369Y013081D01*
X020369Y013474D01*
X015960Y013474D01*
X015960Y016034D01*
X020369Y016034D01*
X020369Y013474D01*
D15*
X017374Y014910D02*
X017349Y014885D01*
X017299Y014885D01*
X017274Y014910D01*
X017274Y015010D01*
X017299Y015035D01*
X017349Y015035D01*
X017374Y015010D01*
X017227Y015010D02*
X017202Y015035D01*
X017127Y015035D01*
X017127Y014885D01*
X017202Y014885D01*
X017227Y014910D01*
X017227Y015010D01*
X017080Y015035D02*
X017080Y014935D01*
X017030Y014885D01*
X016980Y014935D01*
X016980Y015035D01*
X016785Y015010D02*
X016760Y015035D01*
X016710Y015035D01*
X016685Y015010D01*
X016685Y014985D01*
X016710Y014960D01*
X016785Y014960D01*
X016785Y014910D02*
X016785Y015010D01*
X016785Y014910D02*
X016760Y014885D01*
X016710Y014885D01*
X016685Y014910D01*
X016710Y015385D02*
X016735Y015385D01*
X016760Y015410D01*
X016760Y015535D01*
X016735Y015535D02*
X016785Y015535D01*
X016832Y015535D02*
X016907Y015535D01*
X016932Y015510D01*
X016932Y015460D01*
X016907Y015435D01*
X016832Y015435D01*
X016832Y015385D02*
X016832Y015535D01*
X016980Y015460D02*
X016980Y015410D01*
X017005Y015385D01*
X017055Y015385D01*
X017080Y015410D01*
X017080Y015435D01*
X017055Y015460D01*
X016980Y015460D01*
X017030Y015510D01*
X017080Y015535D01*
X016710Y015385D02*
X016685Y015410D01*
X010174Y015010D02*
X010149Y015035D01*
X010099Y015035D01*
X010074Y015010D01*
X010074Y014910D01*
X010099Y014885D01*
X010149Y014885D01*
X010174Y014910D01*
X010027Y014910D02*
X010027Y015010D01*
X010002Y015035D01*
X009927Y015035D01*
X009927Y014885D01*
X010002Y014885D01*
X010027Y014910D01*
X009880Y014935D02*
X009880Y015035D01*
X009880Y014935D02*
X009830Y014885D01*
X009780Y014935D01*
X009780Y015035D01*
X009585Y015035D02*
X009485Y015035D01*
X009485Y014960D01*
X009535Y014985D01*
X009560Y014985D01*
X009585Y014960D01*
X009585Y014910D01*
X009560Y014885D01*
X009510Y014885D01*
X009485Y014910D01*
X009510Y015385D02*
X009535Y015385D01*
X009560Y015410D01*
X009560Y015535D01*
X009535Y015535D02*
X009585Y015535D01*
X009632Y015535D02*
X009707Y015535D01*
X009732Y015510D01*
X009732Y015460D01*
X009707Y015435D01*
X009632Y015435D01*
X009632Y015385D02*
X009632Y015535D01*
X009780Y015535D02*
X009780Y015460D01*
X009830Y015485D01*
X009855Y015485D01*
X009880Y015460D01*
X009880Y015410D01*
X009855Y015385D01*
X009805Y015385D01*
X009780Y015410D01*
X009780Y015535D02*
X009880Y015535D01*
X009510Y015385D02*
X009485Y015410D01*
X010249Y010557D02*
X010327Y010602D01*
X010327Y010601D02*
X010355Y010557D01*
X010386Y010515D01*
X010419Y010475D01*
X010455Y010437D01*
X010494Y010402D01*
X010535Y010370D01*
X010579Y010340D01*
X010624Y010314D01*
X010671Y010291D01*
X010719Y010271D01*
X010769Y010255D01*
X010819Y010242D01*
X010871Y010233D01*
X010923Y010227D01*
X010975Y010225D01*
X010976Y010136D01*
X010975Y010135D01*
X010920Y010137D01*
X010866Y010143D01*
X010811Y010152D01*
X010758Y010165D01*
X010706Y010181D01*
X010654Y010200D01*
X010604Y010223D01*
X010556Y010249D01*
X010509Y010278D01*
X010465Y010310D01*
X010422Y010345D01*
X010382Y010383D01*
X010345Y010423D01*
X010310Y010465D01*
X010278Y010510D01*
X010249Y010556D01*
X010257Y010561D01*
X010285Y010515D01*
X010317Y010471D01*
X010352Y010429D01*
X010389Y010389D01*
X010428Y010352D01*
X010470Y010317D01*
X010514Y010286D01*
X010560Y010257D01*
X010608Y010231D01*
X010658Y010209D01*
X010708Y010189D01*
X010760Y010173D01*
X010813Y010161D01*
X010867Y010152D01*
X010921Y010146D01*
X010975Y010144D01*
X010975Y010153D01*
X010921Y010155D01*
X010868Y010161D01*
X010815Y010170D01*
X010763Y010182D01*
X010711Y010198D01*
X010661Y010217D01*
X010612Y010239D01*
X010565Y010265D01*
X010519Y010293D01*
X010476Y010325D01*
X010434Y010359D01*
X010395Y010395D01*
X010358Y010435D01*
X010324Y010476D01*
X010293Y010520D01*
X010264Y010565D01*
X010272Y010570D01*
X010302Y010522D01*
X010336Y010476D01*
X010372Y010433D01*
X010412Y010392D01*
X010454Y010354D01*
X010498Y010319D01*
X010545Y010287D01*
X010594Y010259D01*
X010645Y010234D01*
X010698Y010212D01*
X010751Y010195D01*
X010806Y010181D01*
X010862Y010171D01*
X010918Y010164D01*
X010975Y010162D01*
X010975Y010171D01*
X010919Y010173D01*
X010863Y010179D01*
X010808Y010189D01*
X010754Y010203D01*
X010701Y010221D01*
X010649Y010242D01*
X010598Y010267D01*
X010550Y010295D01*
X010504Y010326D01*
X010459Y010361D01*
X010418Y010398D01*
X010379Y010439D01*
X010343Y010481D01*
X010310Y010527D01*
X010280Y010574D01*
X010288Y010579D01*
X010317Y010532D01*
X010350Y010487D01*
X010386Y010445D01*
X010424Y010405D01*
X010465Y010368D01*
X010509Y010333D01*
X010555Y010302D01*
X010603Y010275D01*
X010652Y010250D01*
X010704Y010229D01*
X010756Y010212D01*
X010810Y010198D01*
X010865Y010188D01*
X010920Y010182D01*
X010975Y010180D01*
X010975Y010189D01*
X010920Y010191D01*
X010866Y010197D01*
X010812Y010207D01*
X010759Y010221D01*
X010707Y010238D01*
X010656Y010258D01*
X010607Y010283D01*
X010560Y010310D01*
X010514Y010341D01*
X010471Y010374D01*
X010430Y010411D01*
X010392Y010451D01*
X010357Y010493D01*
X010325Y010537D01*
X010296Y010583D01*
X010304Y010588D01*
X010332Y010542D01*
X010364Y010498D01*
X010399Y010457D01*
X010437Y010418D01*
X010477Y010381D01*
X010519Y010348D01*
X010564Y010318D01*
X010611Y010290D01*
X010660Y010267D01*
X010710Y010246D01*
X010761Y010229D01*
X010814Y010216D01*
X010867Y010206D01*
X010921Y010200D01*
X010975Y010198D01*
X010975Y010207D01*
X010922Y010209D01*
X010868Y010215D01*
X010816Y010225D01*
X010764Y010238D01*
X010713Y010255D01*
X010663Y010275D01*
X010615Y010298D01*
X010569Y010325D01*
X010525Y010355D01*
X010483Y010388D01*
X010443Y010424D01*
X010406Y010463D01*
X010371Y010504D01*
X010340Y010547D01*
X010311Y010592D01*
X010319Y010597D01*
X010347Y010552D01*
X010378Y010509D01*
X010412Y010469D01*
X010449Y010431D01*
X010488Y010395D01*
X010530Y010363D01*
X010574Y010333D01*
X010620Y010306D01*
X010667Y010283D01*
X010716Y010263D01*
X010766Y010246D01*
X010818Y010233D01*
X010870Y010224D01*
X010922Y010218D01*
X010975Y010216D01*
X010975Y011824D02*
X010975Y011734D01*
X010975Y011735D02*
X010921Y011733D01*
X010868Y011727D01*
X010815Y011717D01*
X010763Y011703D01*
X010712Y011686D01*
X010663Y011665D01*
X010615Y011641D01*
X010569Y011613D01*
X010525Y011582D01*
X010483Y011548D01*
X010444Y011512D01*
X010407Y011472D01*
X010374Y011430D01*
X010343Y011386D01*
X010316Y011340D01*
X010237Y011382D01*
X010265Y011431D01*
X010297Y011477D01*
X010332Y011522D01*
X010369Y011564D01*
X010410Y011604D01*
X010453Y011640D01*
X010498Y011674D01*
X010545Y011705D01*
X010595Y011732D01*
X010646Y011756D01*
X010698Y011777D01*
X010752Y011794D01*
X010807Y011807D01*
X010862Y011817D01*
X010919Y011823D01*
X010975Y011825D01*
X010975Y011816D01*
X010919Y011814D01*
X010864Y011808D01*
X010809Y011798D01*
X010754Y011785D01*
X010701Y011768D01*
X010649Y011748D01*
X010599Y011724D01*
X010550Y011697D01*
X010503Y011667D01*
X010458Y011633D01*
X010416Y011597D01*
X010376Y011558D01*
X010339Y011516D01*
X010304Y011472D01*
X010273Y011426D01*
X010245Y011378D01*
X010253Y011374D01*
X010281Y011421D01*
X010312Y011467D01*
X010346Y011510D01*
X010382Y011552D01*
X010422Y011590D01*
X010464Y011626D01*
X010508Y011659D01*
X010554Y011689D01*
X010603Y011716D01*
X010653Y011739D01*
X010704Y011760D01*
X010757Y011776D01*
X010810Y011789D01*
X010865Y011799D01*
X010920Y011805D01*
X010975Y011807D01*
X010975Y011798D01*
X010920Y011796D01*
X010866Y011790D01*
X010812Y011781D01*
X010759Y011768D01*
X010707Y011751D01*
X010656Y011731D01*
X010607Y011708D01*
X010559Y011681D01*
X010513Y011652D01*
X010469Y011619D01*
X010428Y011584D01*
X010389Y011545D01*
X010352Y011505D01*
X010319Y011462D01*
X010288Y011416D01*
X010261Y011369D01*
X010269Y011365D01*
X010296Y011412D01*
X010326Y011456D01*
X010359Y011499D01*
X010395Y011539D01*
X010434Y011577D01*
X010475Y011612D01*
X010518Y011644D01*
X010564Y011674D01*
X010611Y011700D01*
X010660Y011723D01*
X010710Y011743D01*
X010762Y011759D01*
X010814Y011772D01*
X010867Y011781D01*
X010921Y011787D01*
X010975Y011789D01*
X010975Y011780D01*
X010922Y011778D01*
X010869Y011772D01*
X010816Y011763D01*
X010764Y011750D01*
X010713Y011734D01*
X010663Y011715D01*
X010615Y011692D01*
X010568Y011666D01*
X010524Y011637D01*
X010481Y011605D01*
X010440Y011570D01*
X010402Y011533D01*
X010366Y011493D01*
X010333Y011451D01*
X010303Y011407D01*
X010276Y011361D01*
X010284Y011357D01*
X010311Y011402D01*
X010341Y011446D01*
X010373Y011487D01*
X010408Y011527D01*
X010446Y011564D01*
X010486Y011598D01*
X010529Y011630D01*
X010573Y011658D01*
X010619Y011684D01*
X010667Y011706D01*
X010716Y011726D01*
X010766Y011742D01*
X010818Y011754D01*
X010870Y011763D01*
X010922Y011769D01*
X010975Y011771D01*
X010975Y011762D01*
X010919Y011760D01*
X010864Y011753D01*
X010809Y011743D01*
X010755Y011729D01*
X010703Y011711D01*
X010651Y011690D01*
X010602Y011664D01*
X010554Y011636D01*
X010508Y011604D01*
X010465Y011569D01*
X010425Y011531D01*
X010387Y011490D01*
X010352Y011446D01*
X010321Y011400D01*
X010292Y011352D01*
X010300Y011348D01*
X010328Y011396D01*
X010359Y011441D01*
X010394Y011484D01*
X010431Y011524D01*
X010471Y011562D01*
X010514Y011597D01*
X010559Y011628D01*
X010606Y011657D01*
X010655Y011681D01*
X010706Y011703D01*
X010758Y011720D01*
X010811Y011734D01*
X010865Y011744D01*
X010920Y011751D01*
X010975Y011753D01*
X010975Y011744D01*
X010921Y011742D01*
X010867Y011736D01*
X010813Y011726D01*
X010761Y011712D01*
X010709Y011694D01*
X010659Y011673D01*
X010610Y011649D01*
X010564Y011621D01*
X010519Y011589D01*
X010477Y011555D01*
X010438Y011518D01*
X010401Y011478D01*
X010367Y011436D01*
X010336Y011391D01*
X010308Y011344D01*
X011625Y011524D02*
X011556Y011467D01*
X011557Y011467D02*
X011520Y011507D01*
X011481Y011545D01*
X011439Y011579D01*
X011395Y011611D01*
X011349Y011639D01*
X011300Y011664D01*
X011250Y011685D01*
X011199Y011703D01*
X011146Y011716D01*
X011093Y011726D01*
X011039Y011733D01*
X010985Y011735D01*
X010984Y011824D01*
X010985Y011825D01*
X011041Y011823D01*
X011097Y011817D01*
X011152Y011807D01*
X011207Y011794D01*
X011260Y011777D01*
X011313Y011757D01*
X011364Y011733D01*
X011413Y011706D01*
X011460Y011675D01*
X011505Y011642D01*
X011548Y011606D01*
X011588Y011567D01*
X011626Y011525D01*
X011619Y011519D01*
X011582Y011560D01*
X011542Y011599D01*
X011500Y011635D01*
X011455Y011668D01*
X011408Y011698D01*
X011360Y011725D01*
X011309Y011748D01*
X011257Y011769D01*
X011204Y011785D01*
X011150Y011798D01*
X011096Y011808D01*
X011041Y011814D01*
X010985Y011816D01*
X010985Y011807D01*
X011040Y011805D01*
X011095Y011799D01*
X011149Y011790D01*
X011202Y011777D01*
X011254Y011760D01*
X011306Y011740D01*
X011355Y011717D01*
X011404Y011690D01*
X011450Y011661D01*
X011494Y011628D01*
X011536Y011592D01*
X011575Y011554D01*
X011612Y011513D01*
X011605Y011508D01*
X011569Y011548D01*
X011530Y011586D01*
X011488Y011621D01*
X011445Y011653D01*
X011399Y011683D01*
X011351Y011709D01*
X011302Y011732D01*
X011252Y011752D01*
X011200Y011768D01*
X011147Y011781D01*
X011093Y011790D01*
X011039Y011796D01*
X010985Y011798D01*
X010985Y011789D01*
X011039Y011787D01*
X011092Y011781D01*
X011145Y011772D01*
X011197Y011759D01*
X011249Y011743D01*
X011299Y011724D01*
X011347Y011701D01*
X011394Y011675D01*
X011440Y011646D01*
X011483Y011614D01*
X011524Y011579D01*
X011562Y011542D01*
X011598Y011502D01*
X011591Y011496D01*
X011556Y011535D01*
X011518Y011572D01*
X011477Y011607D01*
X011434Y011638D01*
X011390Y011667D01*
X011343Y011693D01*
X011295Y011715D01*
X011246Y011735D01*
X011195Y011751D01*
X011143Y011763D01*
X011091Y011772D01*
X011038Y011778D01*
X010985Y011780D01*
X010985Y011771D01*
X011037Y011769D01*
X011090Y011763D01*
X011141Y011754D01*
X011192Y011742D01*
X011243Y011726D01*
X011292Y011707D01*
X011339Y011685D01*
X011385Y011659D01*
X011429Y011631D01*
X011471Y011600D01*
X011512Y011566D01*
X011549Y011529D01*
X011584Y011490D01*
X011578Y011484D01*
X011543Y011523D01*
X011505Y011559D01*
X011466Y011593D01*
X011424Y011624D01*
X011380Y011652D01*
X011335Y011677D01*
X011288Y011699D01*
X011240Y011718D01*
X011190Y011733D01*
X011140Y011746D01*
X011088Y011754D01*
X011037Y011760D01*
X010985Y011762D01*
X010985Y011753D01*
X011036Y011751D01*
X011087Y011746D01*
X011138Y011737D01*
X011188Y011725D01*
X011237Y011709D01*
X011284Y011691D01*
X011331Y011669D01*
X011376Y011644D01*
X011419Y011616D01*
X011460Y011586D01*
X011499Y011553D01*
X011536Y011517D01*
X011571Y011479D01*
X011564Y011473D01*
X011527Y011514D01*
X011487Y011552D01*
X011445Y011586D01*
X011400Y011618D01*
X011353Y011647D01*
X011304Y011672D01*
X011253Y011693D01*
X011202Y011711D01*
X011148Y011725D01*
X011094Y011735D01*
X011040Y011742D01*
X010985Y011744D01*
X010984Y010136D02*
X010984Y010226D01*
X010985Y010225D02*
X011039Y010227D01*
X011092Y010233D01*
X011145Y010243D01*
X011197Y010257D01*
X011248Y010274D01*
X011298Y010295D01*
X011346Y010319D01*
X011392Y010347D01*
X011436Y010378D01*
X011477Y010412D01*
X011517Y010449D01*
X011553Y010488D01*
X011621Y010431D01*
X011622Y010430D01*
X011584Y010389D01*
X011544Y010351D01*
X011501Y010315D01*
X011456Y010282D01*
X011409Y010252D01*
X011361Y010226D01*
X011310Y010202D01*
X011258Y010182D01*
X011205Y010166D01*
X011151Y010152D01*
X011096Y010143D01*
X011041Y010137D01*
X010985Y010135D01*
X010985Y010144D01*
X011040Y010146D01*
X011095Y010152D01*
X011149Y010161D01*
X011203Y010174D01*
X011255Y010191D01*
X011307Y010210D01*
X011357Y010234D01*
X011405Y010260D01*
X011451Y010290D01*
X011496Y010322D01*
X011538Y010357D01*
X011578Y010396D01*
X011615Y010436D01*
X011608Y010442D01*
X011571Y010402D01*
X011532Y010364D01*
X011490Y010329D01*
X011446Y010297D01*
X011400Y010268D01*
X011352Y010242D01*
X011303Y010219D01*
X011252Y010199D01*
X011200Y010183D01*
X011147Y010170D01*
X011094Y010161D01*
X011039Y010155D01*
X010985Y010153D01*
X010985Y010162D01*
X011039Y010164D01*
X011092Y010170D01*
X011145Y010179D01*
X011198Y010192D01*
X011249Y010208D01*
X011300Y010227D01*
X011348Y010250D01*
X011396Y010275D01*
X011441Y010304D01*
X011485Y010336D01*
X011526Y010371D01*
X011565Y010408D01*
X011601Y010448D01*
X011594Y010454D01*
X011558Y010414D01*
X011520Y010377D01*
X011479Y010343D01*
X011436Y010312D01*
X011391Y010283D01*
X011344Y010258D01*
X011296Y010235D01*
X011246Y010216D01*
X011195Y010200D01*
X011144Y010188D01*
X011091Y010179D01*
X011038Y010173D01*
X010985Y010171D01*
X010985Y010180D01*
X011038Y010182D01*
X011090Y010188D01*
X011142Y010197D01*
X011193Y010209D01*
X011243Y010225D01*
X011293Y010244D01*
X011340Y010266D01*
X011387Y010291D01*
X011431Y010319D01*
X011473Y010350D01*
X011514Y010384D01*
X011552Y010421D01*
X011587Y010459D01*
X011581Y010465D01*
X011545Y010427D01*
X011508Y010391D01*
X011468Y010357D01*
X011426Y010327D01*
X011382Y010299D01*
X011336Y010274D01*
X011289Y010252D01*
X011240Y010233D01*
X011191Y010218D01*
X011140Y010205D01*
X011089Y010197D01*
X011037Y010191D01*
X010985Y010189D01*
X010985Y010198D01*
X011041Y010200D01*
X011096Y010207D01*
X011151Y010217D01*
X011205Y010231D01*
X011258Y010249D01*
X011309Y010271D01*
X011359Y010296D01*
X011407Y010325D01*
X011452Y010357D01*
X011495Y010392D01*
X011536Y010430D01*
X011574Y010471D01*
X011567Y010477D01*
X011530Y010436D01*
X011489Y010399D01*
X011447Y010364D01*
X011402Y010332D01*
X011354Y010304D01*
X011305Y010279D01*
X011254Y010257D01*
X011202Y010240D01*
X011149Y010226D01*
X011095Y010216D01*
X011040Y010209D01*
X010985Y010207D01*
X010985Y010216D01*
X011039Y010218D01*
X011093Y010224D01*
X011147Y010234D01*
X011200Y010248D01*
X011251Y010266D01*
X011301Y010287D01*
X011350Y010312D01*
X011397Y010340D01*
X011441Y010371D01*
X011483Y010405D01*
X011523Y010443D01*
X011560Y010483D01*
X014428Y010710D02*
X014453Y010685D01*
X014503Y010685D01*
X014528Y010710D01*
X014528Y010735D01*
X014503Y010760D01*
X014453Y010760D01*
X014428Y010785D01*
X014428Y010810D01*
X014453Y010835D01*
X014503Y010835D01*
X014528Y010810D01*
X014625Y010835D02*
X014675Y010835D01*
X014650Y010835D02*
X014650Y010710D01*
X014625Y010685D01*
X014600Y010685D01*
X014575Y010710D01*
X014722Y010685D02*
X014822Y010685D01*
X014772Y010685D02*
X014772Y010835D01*
X014722Y010785D01*
X017449Y010557D02*
X017527Y010602D01*
X017527Y010601D02*
X017555Y010557D01*
X017586Y010515D01*
X017619Y010475D01*
X017655Y010437D01*
X017694Y010402D01*
X017735Y010370D01*
X017779Y010340D01*
X017824Y010314D01*
X017871Y010291D01*
X017919Y010271D01*
X017969Y010255D01*
X018019Y010242D01*
X018071Y010233D01*
X018123Y010227D01*
X018175Y010225D01*
X018176Y010136D01*
X018175Y010135D01*
X018120Y010137D01*
X018066Y010143D01*
X018011Y010152D01*
X017958Y010165D01*
X017906Y010181D01*
X017854Y010200D01*
X017804Y010223D01*
X017756Y010249D01*
X017709Y010278D01*
X017665Y010310D01*
X017622Y010345D01*
X017582Y010383D01*
X017545Y010423D01*
X017510Y010465D01*
X017478Y010510D01*
X017449Y010556D01*
X017457Y010561D01*
X017485Y010515D01*
X017517Y010471D01*
X017552Y010429D01*
X017589Y010389D01*
X017628Y010352D01*
X017670Y010317D01*
X017714Y010286D01*
X017760Y010257D01*
X017808Y010231D01*
X017858Y010209D01*
X017908Y010189D01*
X017960Y010173D01*
X018013Y010161D01*
X018067Y010152D01*
X018121Y010146D01*
X018175Y010144D01*
X018175Y010153D01*
X018121Y010155D01*
X018068Y010161D01*
X018015Y010170D01*
X017963Y010182D01*
X017911Y010198D01*
X017861Y010217D01*
X017812Y010239D01*
X017765Y010265D01*
X017719Y010293D01*
X017676Y010325D01*
X017634Y010359D01*
X017595Y010395D01*
X017558Y010435D01*
X017524Y010476D01*
X017493Y010520D01*
X017464Y010565D01*
X017472Y010570D01*
X017502Y010522D01*
X017536Y010476D01*
X017572Y010433D01*
X017612Y010392D01*
X017654Y010354D01*
X017698Y010319D01*
X017745Y010287D01*
X017794Y010259D01*
X017845Y010234D01*
X017898Y010212D01*
X017951Y010195D01*
X018006Y010181D01*
X018062Y010171D01*
X018118Y010164D01*
X018175Y010162D01*
X018175Y010171D01*
X018119Y010173D01*
X018063Y010179D01*
X018008Y010189D01*
X017954Y010203D01*
X017901Y010221D01*
X017849Y010242D01*
X017798Y010267D01*
X017750Y010295D01*
X017704Y010326D01*
X017659Y010361D01*
X017618Y010398D01*
X017579Y010439D01*
X017543Y010481D01*
X017510Y010527D01*
X017480Y010574D01*
X017488Y010579D01*
X017517Y010532D01*
X017550Y010487D01*
X017586Y010445D01*
X017624Y010405D01*
X017665Y010368D01*
X017709Y010333D01*
X017755Y010302D01*
X017803Y010275D01*
X017852Y010250D01*
X017904Y010229D01*
X017956Y010212D01*
X018010Y010198D01*
X018065Y010188D01*
X018120Y010182D01*
X018175Y010180D01*
X018175Y010189D01*
X018120Y010191D01*
X018066Y010197D01*
X018012Y010207D01*
X017959Y010221D01*
X017907Y010238D01*
X017856Y010258D01*
X017807Y010283D01*
X017760Y010310D01*
X017714Y010341D01*
X017671Y010374D01*
X017630Y010411D01*
X017592Y010451D01*
X017557Y010493D01*
X017525Y010537D01*
X017496Y010583D01*
X017504Y010588D01*
X017532Y010542D01*
X017564Y010498D01*
X017599Y010457D01*
X017637Y010418D01*
X017677Y010381D01*
X017719Y010348D01*
X017764Y010318D01*
X017811Y010290D01*
X017860Y010267D01*
X017910Y010246D01*
X017961Y010229D01*
X018014Y010216D01*
X018067Y010206D01*
X018121Y010200D01*
X018175Y010198D01*
X018175Y010207D01*
X018122Y010209D01*
X018068Y010215D01*
X018016Y010225D01*
X017964Y010238D01*
X017913Y010255D01*
X017863Y010275D01*
X017815Y010298D01*
X017769Y010325D01*
X017725Y010355D01*
X017683Y010388D01*
X017643Y010424D01*
X017606Y010463D01*
X017571Y010504D01*
X017540Y010547D01*
X017511Y010592D01*
X017519Y010597D01*
X017547Y010552D01*
X017578Y010509D01*
X017612Y010469D01*
X017649Y010431D01*
X017688Y010395D01*
X017730Y010363D01*
X017774Y010333D01*
X017820Y010306D01*
X017867Y010283D01*
X017916Y010263D01*
X017966Y010246D01*
X018018Y010233D01*
X018070Y010224D01*
X018122Y010218D01*
X018175Y010216D01*
X018175Y011824D02*
X018175Y011734D01*
X018175Y011735D02*
X018121Y011733D01*
X018068Y011727D01*
X018015Y011717D01*
X017963Y011703D01*
X017912Y011686D01*
X017863Y011665D01*
X017815Y011641D01*
X017769Y011613D01*
X017725Y011582D01*
X017683Y011548D01*
X017644Y011512D01*
X017607Y011472D01*
X017574Y011430D01*
X017543Y011386D01*
X017516Y011340D01*
X017437Y011382D01*
X017465Y011431D01*
X017497Y011477D01*
X017532Y011522D01*
X017569Y011564D01*
X017610Y011604D01*
X017653Y011640D01*
X017698Y011674D01*
X017745Y011705D01*
X017795Y011732D01*
X017846Y011756D01*
X017898Y011777D01*
X017952Y011794D01*
X018007Y011807D01*
X018062Y011817D01*
X018119Y011823D01*
X018175Y011825D01*
X018175Y011816D01*
X018119Y011814D01*
X018064Y011808D01*
X018009Y011798D01*
X017954Y011785D01*
X017901Y011768D01*
X017849Y011748D01*
X017799Y011724D01*
X017750Y011697D01*
X017703Y011667D01*
X017658Y011633D01*
X017616Y011597D01*
X017576Y011558D01*
X017539Y011516D01*
X017504Y011472D01*
X017473Y011426D01*
X017445Y011378D01*
X017453Y011374D01*
X017481Y011421D01*
X017512Y011467D01*
X017546Y011510D01*
X017582Y011552D01*
X017622Y011590D01*
X017664Y011626D01*
X017708Y011659D01*
X017754Y011689D01*
X017803Y011716D01*
X017853Y011739D01*
X017904Y011760D01*
X017957Y011776D01*
X018010Y011789D01*
X018065Y011799D01*
X018120Y011805D01*
X018175Y011807D01*
X018175Y011798D01*
X018120Y011796D01*
X018066Y011790D01*
X018012Y011781D01*
X017959Y011768D01*
X017907Y011751D01*
X017856Y011731D01*
X017807Y011708D01*
X017759Y011681D01*
X017713Y011652D01*
X017669Y011619D01*
X017628Y011584D01*
X017589Y011545D01*
X017552Y011505D01*
X017519Y011462D01*
X017488Y011416D01*
X017461Y011369D01*
X017469Y011365D01*
X017496Y011412D01*
X017526Y011456D01*
X017559Y011499D01*
X017595Y011539D01*
X017634Y011577D01*
X017675Y011612D01*
X017718Y011644D01*
X017764Y011674D01*
X017811Y011700D01*
X017860Y011723D01*
X017910Y011743D01*
X017962Y011759D01*
X018014Y011772D01*
X018067Y011781D01*
X018121Y011787D01*
X018175Y011789D01*
X018175Y011780D01*
X018122Y011778D01*
X018069Y011772D01*
X018016Y011763D01*
X017964Y011750D01*
X017913Y011734D01*
X017863Y011715D01*
X017815Y011692D01*
X017768Y011666D01*
X017724Y011637D01*
X017681Y011605D01*
X017640Y011570D01*
X017602Y011533D01*
X017566Y011493D01*
X017533Y011451D01*
X017503Y011407D01*
X017476Y011361D01*
X017484Y011357D01*
X017511Y011402D01*
X017541Y011446D01*
X017573Y011487D01*
X017608Y011527D01*
X017646Y011564D01*
X017686Y011598D01*
X017729Y011630D01*
X017773Y011658D01*
X017819Y011684D01*
X017867Y011706D01*
X017916Y011726D01*
X017966Y011742D01*
X018018Y011754D01*
X018070Y011763D01*
X018122Y011769D01*
X018175Y011771D01*
X018175Y011762D01*
X018119Y011760D01*
X018064Y011753D01*
X018009Y011743D01*
X017955Y011729D01*
X017903Y011711D01*
X017851Y011690D01*
X017802Y011664D01*
X017754Y011636D01*
X017708Y011604D01*
X017665Y011569D01*
X017625Y011531D01*
X017587Y011490D01*
X017552Y011446D01*
X017521Y011400D01*
X017492Y011352D01*
X017500Y011348D01*
X017528Y011396D01*
X017559Y011441D01*
X017594Y011484D01*
X017631Y011524D01*
X017671Y011562D01*
X017714Y011597D01*
X017759Y011628D01*
X017806Y011657D01*
X017855Y011681D01*
X017906Y011703D01*
X017958Y011720D01*
X018011Y011734D01*
X018065Y011744D01*
X018120Y011751D01*
X018175Y011753D01*
X018175Y011744D01*
X018121Y011742D01*
X018067Y011736D01*
X018013Y011726D01*
X017961Y011712D01*
X017909Y011694D01*
X017859Y011673D01*
X017810Y011649D01*
X017764Y011621D01*
X017719Y011589D01*
X017677Y011555D01*
X017638Y011518D01*
X017601Y011478D01*
X017567Y011436D01*
X017536Y011391D01*
X017508Y011344D01*
X018825Y011524D02*
X018756Y011467D01*
X018757Y011467D02*
X018720Y011507D01*
X018681Y011545D01*
X018639Y011579D01*
X018595Y011611D01*
X018549Y011639D01*
X018500Y011664D01*
X018450Y011685D01*
X018399Y011703D01*
X018346Y011716D01*
X018293Y011726D01*
X018239Y011733D01*
X018185Y011735D01*
X018184Y011824D01*
X018185Y011825D01*
X018241Y011823D01*
X018297Y011817D01*
X018352Y011807D01*
X018407Y011794D01*
X018460Y011777D01*
X018513Y011757D01*
X018564Y011733D01*
X018613Y011706D01*
X018660Y011675D01*
X018705Y011642D01*
X018748Y011606D01*
X018788Y011567D01*
X018826Y011525D01*
X018819Y011519D01*
X018782Y011560D01*
X018742Y011599D01*
X018700Y011635D01*
X018655Y011668D01*
X018608Y011698D01*
X018560Y011725D01*
X018509Y011748D01*
X018457Y011769D01*
X018404Y011785D01*
X018350Y011798D01*
X018296Y011808D01*
X018241Y011814D01*
X018185Y011816D01*
X018185Y011807D01*
X018240Y011805D01*
X018295Y011799D01*
X018349Y011790D01*
X018402Y011777D01*
X018454Y011760D01*
X018506Y011740D01*
X018555Y011717D01*
X018604Y011690D01*
X018650Y011661D01*
X018694Y011628D01*
X018736Y011592D01*
X018775Y011554D01*
X018812Y011513D01*
X018805Y011508D01*
X018769Y011548D01*
X018730Y011586D01*
X018688Y011621D01*
X018645Y011653D01*
X018599Y011683D01*
X018551Y011709D01*
X018502Y011732D01*
X018452Y011752D01*
X018400Y011768D01*
X018347Y011781D01*
X018293Y011790D01*
X018239Y011796D01*
X018185Y011798D01*
X018185Y011789D01*
X018239Y011787D01*
X018292Y011781D01*
X018345Y011772D01*
X018397Y011759D01*
X018449Y011743D01*
X018499Y011724D01*
X018547Y011701D01*
X018594Y011675D01*
X018640Y011646D01*
X018683Y011614D01*
X018724Y011579D01*
X018762Y011542D01*
X018798Y011502D01*
X018791Y011496D01*
X018756Y011535D01*
X018718Y011572D01*
X018677Y011607D01*
X018634Y011638D01*
X018590Y011667D01*
X018543Y011693D01*
X018495Y011715D01*
X018446Y011735D01*
X018395Y011751D01*
X018343Y011763D01*
X018291Y011772D01*
X018238Y011778D01*
X018185Y011780D01*
X018185Y011771D01*
X018237Y011769D01*
X018290Y011763D01*
X018341Y011754D01*
X018392Y011742D01*
X018443Y011726D01*
X018492Y011707D01*
X018539Y011685D01*
X018585Y011659D01*
X018629Y011631D01*
X018671Y011600D01*
X018712Y011566D01*
X018749Y011529D01*
X018784Y011490D01*
X018778Y011484D01*
X018743Y011523D01*
X018705Y011559D01*
X018666Y011593D01*
X018624Y011624D01*
X018580Y011652D01*
X018535Y011677D01*
X018488Y011699D01*
X018440Y011718D01*
X018390Y011733D01*
X018340Y011746D01*
X018288Y011754D01*
X018237Y011760D01*
X018185Y011762D01*
X018185Y011753D01*
X018236Y011751D01*
X018287Y011746D01*
X018338Y011737D01*
X018388Y011725D01*
X018437Y011709D01*
X018484Y011691D01*
X018531Y011669D01*
X018576Y011644D01*
X018619Y011616D01*
X018660Y011586D01*
X018699Y011553D01*
X018736Y011517D01*
X018771Y011479D01*
X018764Y011473D01*
X018727Y011514D01*
X018687Y011552D01*
X018645Y011586D01*
X018600Y011618D01*
X018553Y011647D01*
X018504Y011672D01*
X018453Y011693D01*
X018402Y011711D01*
X018348Y011725D01*
X018294Y011735D01*
X018240Y011742D01*
X018185Y011744D01*
X018184Y010136D02*
X018184Y010226D01*
X018185Y010225D02*
X018239Y010227D01*
X018292Y010233D01*
X018345Y010243D01*
X018397Y010257D01*
X018448Y010274D01*
X018498Y010295D01*
X018546Y010319D01*
X018592Y010347D01*
X018636Y010378D01*
X018677Y010412D01*
X018717Y010449D01*
X018753Y010488D01*
X018821Y010431D01*
X018822Y010430D01*
X018784Y010389D01*
X018744Y010351D01*
X018701Y010315D01*
X018656Y010282D01*
X018609Y010252D01*
X018561Y010226D01*
X018510Y010202D01*
X018458Y010182D01*
X018405Y010166D01*
X018351Y010152D01*
X018296Y010143D01*
X018241Y010137D01*
X018185Y010135D01*
X018185Y010144D01*
X018240Y010146D01*
X018295Y010152D01*
X018349Y010161D01*
X018403Y010174D01*
X018455Y010191D01*
X018507Y010210D01*
X018557Y010234D01*
X018605Y010260D01*
X018651Y010290D01*
X018696Y010322D01*
X018738Y010357D01*
X018778Y010396D01*
X018815Y010436D01*
X018808Y010442D01*
X018771Y010402D01*
X018732Y010364D01*
X018690Y010329D01*
X018646Y010297D01*
X018600Y010268D01*
X018552Y010242D01*
X018503Y010219D01*
X018452Y010199D01*
X018400Y010183D01*
X018347Y010170D01*
X018294Y010161D01*
X018239Y010155D01*
X018185Y010153D01*
X018185Y010162D01*
X018239Y010164D01*
X018292Y010170D01*
X018345Y010179D01*
X018398Y010192D01*
X018449Y010208D01*
X018500Y010227D01*
X018548Y010250D01*
X018596Y010275D01*
X018641Y010304D01*
X018685Y010336D01*
X018726Y010371D01*
X018765Y010408D01*
X018801Y010448D01*
X018794Y010454D01*
X018758Y010414D01*
X018720Y010377D01*
X018679Y010343D01*
X018636Y010312D01*
X018591Y010283D01*
X018544Y010258D01*
X018496Y010235D01*
X018446Y010216D01*
X018395Y010200D01*
X018344Y010188D01*
X018291Y010179D01*
X018238Y010173D01*
X018185Y010171D01*
X018185Y010180D01*
X018238Y010182D01*
X018290Y010188D01*
X018342Y010197D01*
X018393Y010209D01*
X018443Y010225D01*
X018493Y010244D01*
X018540Y010266D01*
X018587Y010291D01*
X018631Y010319D01*
X018673Y010350D01*
X018714Y010384D01*
X018752Y010421D01*
X018787Y010459D01*
X018781Y010465D01*
X018745Y010427D01*
X018708Y010391D01*
X018668Y010357D01*
X018626Y010327D01*
X018582Y010299D01*
X018536Y010274D01*
X018489Y010252D01*
X018440Y010233D01*
X018391Y010218D01*
X018340Y010205D01*
X018289Y010197D01*
X018237Y010191D01*
X018185Y010189D01*
X018185Y010198D01*
X018241Y010200D01*
X018296Y010207D01*
X018351Y010217D01*
X018405Y010231D01*
X018458Y010249D01*
X018509Y010271D01*
X018559Y010296D01*
X018607Y010325D01*
X018652Y010357D01*
X018695Y010392D01*
X018736Y010430D01*
X018774Y010471D01*
X018767Y010477D01*
X018730Y010436D01*
X018689Y010399D01*
X018647Y010364D01*
X018602Y010332D01*
X018554Y010304D01*
X018505Y010279D01*
X018454Y010257D01*
X018402Y010240D01*
X018349Y010226D01*
X018295Y010216D01*
X018240Y010209D01*
X018185Y010207D01*
X018185Y010216D01*
X018239Y010218D01*
X018293Y010224D01*
X018347Y010234D01*
X018400Y010248D01*
X018451Y010266D01*
X018501Y010287D01*
X018550Y010312D01*
X018597Y010340D01*
X018641Y010371D01*
X018683Y010405D01*
X018723Y010443D01*
X018760Y010483D01*
X019925Y010007D02*
X019925Y009957D01*
X019950Y009932D01*
X019950Y009885D02*
X020000Y009885D01*
X020025Y009860D01*
X020025Y009785D01*
X020075Y009785D02*
X019925Y009785D01*
X019925Y009860D01*
X019950Y009885D01*
X020025Y009835D02*
X020075Y009885D01*
X020075Y009932D02*
X019975Y010032D01*
X019950Y010032D01*
X019925Y010007D01*
X020075Y010032D02*
X020075Y009932D01*
X008275Y009832D02*
X008275Y009732D01*
X008275Y009685D02*
X008225Y009635D01*
X008225Y009660D02*
X008225Y009585D01*
X008275Y009585D02*
X008125Y009585D01*
X008125Y009660D01*
X008150Y009685D01*
X008200Y009685D01*
X008225Y009660D01*
X008175Y009732D02*
X008125Y009782D01*
X008275Y009782D01*
D16*
X011600Y010470D02*
X011600Y010650D01*
X011600Y011290D02*
X011600Y011490D01*
X018800Y011490D02*
X018800Y011290D01*
X018800Y010650D02*
X018800Y010470D01*
M02*
