%
M48
M72
T01C0.0320
T02C0.0354
T03C0.0400
T04C0.0512
T05C0.1260
%
T01
X10480Y10980
X11480Y10980
X17680Y10980
X18680Y10980
T02
X20580Y12280
X20580Y9280
X8780Y9080
X8780Y12080
T03
X10380Y7580
X11380Y7580
X11380Y5580
X10380Y5580
X10380Y3380
X11380Y3380
X17580Y3380
X18580Y3380
X18580Y5580
X17580Y5580
X17580Y7580
X18580Y7580
T04
X19149Y14380
X17180Y14380
X11949Y14380
X9980Y14380
T05
X6980Y2580
X22380Y2580
X22180Y15580
X6980Y15580
M30
