G75*
%MOIN*%
%OFA0B0*%
%FSLAX24Y24*%
%IPPOS*%
%LPD*%
%AMOC8*
5,1,8,0,0,1.08239X$1,22.5*
%
%ADD10C,0.0650*%
%ADD11R,0.0740X0.0740*%
%ADD12C,0.0740*%
%ADD13C,0.0160*%
%ADD14OC8,0.0376*%
%ADD15C,0.0060*%
%ADD16C,0.0270*%
D10*
X001780Y001980D03*
X001780Y002980D03*
D11*
X010380Y005580D03*
D12*
X010380Y004580D03*
X010380Y003580D03*
X010380Y002580D03*
X004680Y006980D03*
X004680Y008380D03*
X001680Y008380D03*
X001680Y006980D03*
X011980Y007980D03*
X012980Y007980D03*
X013980Y007980D03*
D13*
X001010Y009246D02*
X001010Y001210D01*
X015620Y001210D01*
X015620Y009246D01*
X001010Y009246D01*
X001010Y009222D02*
X015620Y009222D01*
X015620Y009064D02*
X001010Y009064D01*
X001010Y008905D02*
X015620Y008905D01*
X015620Y008747D02*
X005035Y008747D01*
X004969Y008812D02*
X005112Y008669D01*
X005190Y008481D01*
X005190Y008279D01*
X005112Y008091D01*
X004969Y007948D01*
X004781Y007870D01*
X004579Y007870D01*
X004391Y007948D01*
X004248Y008091D01*
X004170Y008279D01*
X004170Y008481D01*
X004248Y008669D01*
X004391Y008812D01*
X004579Y008890D01*
X004781Y008890D01*
X004969Y008812D01*
X005146Y008588D02*
X015620Y008588D01*
X015620Y008430D02*
X014297Y008430D01*
X014268Y008450D02*
X014191Y008490D01*
X014109Y008516D01*
X014023Y008530D01*
X014000Y008530D01*
X014000Y008000D01*
X013960Y008000D01*
X013960Y008530D01*
X013937Y008530D01*
X013851Y008516D01*
X013769Y008490D01*
X013692Y008450D01*
X013622Y008400D01*
X013560Y008338D01*
X013510Y008268D01*
X013470Y008191D01*
X013459Y008156D01*
X013412Y008269D01*
X013269Y008412D01*
X013081Y008490D01*
X012879Y008490D01*
X012691Y008412D01*
X012548Y008269D01*
X012480Y008106D01*
X012412Y008269D01*
X012269Y008412D01*
X012081Y008490D01*
X011879Y008490D01*
X011691Y008412D01*
X011548Y008269D01*
X011470Y008081D01*
X011470Y007879D01*
X011484Y007845D01*
X011390Y007750D01*
X011030Y007750D01*
X010930Y007650D01*
X008270Y004990D01*
X004899Y004990D01*
X004836Y005053D01*
X004735Y005095D01*
X004625Y005095D01*
X004524Y005053D01*
X004447Y004976D01*
X004405Y004875D01*
X004405Y004765D01*
X004447Y004664D01*
X004524Y004587D01*
X004625Y004545D01*
X004735Y004545D01*
X004836Y004587D01*
X004899Y004650D01*
X008410Y004650D01*
X011170Y007410D01*
X011530Y007410D01*
X011680Y007559D01*
X011691Y007548D01*
X011879Y007470D01*
X012081Y007470D01*
X012269Y007548D01*
X012412Y007691D01*
X012480Y007854D01*
X012543Y007703D01*
X011090Y006250D01*
X010990Y006150D01*
X010990Y005010D01*
X010823Y004843D01*
X010812Y004869D01*
X010669Y005012D01*
X010626Y005030D01*
X010774Y005030D01*
X010819Y005042D01*
X010861Y005066D01*
X010894Y005099D01*
X010918Y005141D01*
X010930Y005186D01*
X010930Y005560D01*
X010400Y005560D01*
X010400Y005600D01*
X010360Y005600D01*
X010360Y006130D01*
X009986Y006130D01*
X009941Y006118D01*
X009899Y006094D01*
X009866Y006061D01*
X009842Y006019D01*
X009830Y005974D01*
X009830Y005600D01*
X010360Y005600D01*
X010360Y005560D01*
X009830Y005560D01*
X009830Y005186D01*
X009842Y005141D01*
X009866Y005099D01*
X009899Y005066D01*
X009941Y005042D01*
X009986Y005030D01*
X010134Y005030D01*
X010091Y005012D01*
X009948Y004869D01*
X009870Y004681D01*
X009870Y004479D01*
X009948Y004291D01*
X010091Y004148D01*
X010254Y004080D01*
X010091Y004012D01*
X009948Y003869D01*
X009870Y003681D01*
X009870Y003479D01*
X009948Y003291D01*
X010091Y003148D01*
X010254Y003080D01*
X010091Y003012D01*
X009948Y002869D01*
X009870Y002681D01*
X009870Y002479D01*
X009948Y002291D01*
X010091Y002148D01*
X010279Y002070D01*
X010481Y002070D01*
X010669Y002148D01*
X010812Y002291D01*
X010890Y002479D01*
X010890Y002681D01*
X010812Y002869D01*
X010669Y003012D01*
X010506Y003080D01*
X010669Y003148D01*
X010812Y003291D01*
X010890Y003479D01*
X010890Y003681D01*
X010812Y003869D01*
X010669Y004012D01*
X010506Y004080D01*
X010669Y004148D01*
X010812Y004291D01*
X010886Y004470D01*
X010930Y004470D01*
X011030Y004570D01*
X011330Y004870D01*
X011330Y006010D01*
X012816Y007496D01*
X012879Y007470D01*
X013081Y007470D01*
X013269Y007548D01*
X013412Y007691D01*
X013459Y007804D01*
X013470Y007769D01*
X013510Y007692D01*
X013560Y007622D01*
X013622Y007560D01*
X013692Y007510D01*
X013769Y007470D01*
X013851Y007444D01*
X013937Y007430D01*
X013960Y007430D01*
X013960Y007960D01*
X014000Y007960D01*
X014000Y008000D01*
X014530Y008000D01*
X014530Y008023D01*
X014516Y008109D01*
X014490Y008191D01*
X014450Y008268D01*
X014400Y008338D01*
X014338Y008400D01*
X014268Y008450D01*
X014448Y008271D02*
X015620Y008271D01*
X015620Y008113D02*
X014515Y008113D01*
X014530Y007960D02*
X014000Y007960D01*
X014000Y007430D01*
X014023Y007430D01*
X014109Y007444D01*
X014191Y007470D01*
X014268Y007510D01*
X014338Y007560D01*
X014400Y007622D01*
X014450Y007692D01*
X014490Y007769D01*
X014516Y007851D01*
X014530Y007937D01*
X014530Y007960D01*
X014530Y007954D02*
X015620Y007954D01*
X015620Y007796D02*
X014498Y007796D01*
X014411Y007637D02*
X015620Y007637D01*
X015620Y007479D02*
X014207Y007479D01*
X014000Y007479D02*
X013960Y007479D01*
X013960Y007637D02*
X014000Y007637D01*
X014000Y007796D02*
X013960Y007796D01*
X013960Y007954D02*
X014000Y007954D01*
X014000Y008113D02*
X013960Y008113D01*
X013960Y008271D02*
X014000Y008271D01*
X014000Y008430D02*
X013960Y008430D01*
X013663Y008430D02*
X013227Y008430D01*
X013410Y008271D02*
X013512Y008271D01*
X013462Y007796D02*
X013456Y007796D01*
X013549Y007637D02*
X013358Y007637D01*
X013102Y007479D02*
X013753Y007479D01*
X012858Y007479D02*
X012799Y007479D01*
X012640Y007320D02*
X015620Y007320D01*
X015620Y007162D02*
X012482Y007162D01*
X012323Y007003D02*
X015620Y007003D01*
X015620Y006845D02*
X012165Y006845D01*
X012006Y006686D02*
X015620Y006686D01*
X015620Y006528D02*
X011848Y006528D01*
X011689Y006369D02*
X015620Y006369D01*
X015620Y006211D02*
X011531Y006211D01*
X011372Y006052D02*
X015620Y006052D01*
X015620Y005894D02*
X011330Y005894D01*
X011330Y005735D02*
X015620Y005735D01*
X015620Y005577D02*
X011330Y005577D01*
X011330Y005418D02*
X015620Y005418D01*
X015620Y005260D02*
X011330Y005260D01*
X011330Y005101D02*
X015620Y005101D01*
X015620Y004943D02*
X011330Y004943D01*
X011244Y004784D02*
X015620Y004784D01*
X015620Y004626D02*
X011086Y004626D01*
X010885Y004467D02*
X015620Y004467D01*
X015620Y004309D02*
X010820Y004309D01*
X010671Y004150D02*
X015620Y004150D01*
X015620Y003992D02*
X010690Y003992D01*
X010827Y003833D02*
X015620Y003833D01*
X015620Y003675D02*
X010890Y003675D01*
X010890Y003516D02*
X015620Y003516D01*
X015620Y003358D02*
X010840Y003358D01*
X010720Y003199D02*
X015620Y003199D01*
X015620Y003041D02*
X010601Y003041D01*
X010799Y002882D02*
X015620Y002882D01*
X015620Y002724D02*
X010873Y002724D01*
X010890Y002565D02*
X015620Y002565D01*
X015620Y002407D02*
X010860Y002407D01*
X010769Y002248D02*
X015620Y002248D01*
X015620Y002090D02*
X010529Y002090D01*
X010231Y002090D02*
X002274Y002090D01*
X002273Y002098D02*
X002248Y002174D01*
X002212Y002245D01*
X002165Y002309D01*
X002109Y002365D01*
X002045Y002412D01*
X001974Y002448D01*
X001898Y002473D01*
X001820Y002485D01*
X001780Y002485D01*
X001780Y001980D01*
X001780Y001980D01*
X002285Y001980D01*
X002285Y002020D01*
X002273Y002098D01*
X002285Y001980D02*
X001780Y001980D01*
X001780Y001980D01*
X001780Y001980D01*
X001275Y001980D01*
X001275Y002020D01*
X001287Y002098D01*
X001312Y002174D01*
X001348Y002245D01*
X001395Y002309D01*
X001451Y002365D01*
X001515Y002412D01*
X001586Y002448D01*
X001662Y002473D01*
X001740Y002485D01*
X001780Y002485D01*
X001780Y001980D01*
X001780Y001475D01*
X001820Y001475D01*
X001898Y001487D01*
X001974Y001512D01*
X002045Y001548D01*
X002109Y001595D01*
X002165Y001651D01*
X002212Y001715D01*
X002248Y001786D01*
X002273Y001862D01*
X002285Y001940D01*
X002285Y001980D01*
X002284Y001931D02*
X015620Y001931D01*
X015620Y001773D02*
X002241Y001773D01*
X002128Y001614D02*
X015620Y001614D01*
X015620Y001456D02*
X001010Y001456D01*
X001010Y001614D02*
X001432Y001614D01*
X001451Y001595D02*
X001515Y001548D01*
X001586Y001512D01*
X001662Y001487D01*
X001740Y001475D01*
X001780Y001475D01*
X001780Y001980D01*
X001780Y001980D01*
X001275Y001980D01*
X001275Y001940D01*
X001287Y001862D01*
X001312Y001786D01*
X001348Y001715D01*
X001395Y001651D01*
X001451Y001595D01*
X001319Y001773D02*
X001010Y001773D01*
X001010Y001931D02*
X001276Y001931D01*
X001286Y002090D02*
X001010Y002090D01*
X001010Y002248D02*
X001351Y002248D01*
X001508Y002407D02*
X001010Y002407D01*
X001010Y002565D02*
X001567Y002565D01*
X001517Y002586D02*
X001688Y002515D01*
X001872Y002515D01*
X002043Y002586D01*
X002174Y002717D01*
X002245Y002888D01*
X002245Y003072D01*
X002174Y003243D01*
X002043Y003374D01*
X002030Y003380D01*
X002030Y003490D01*
X004330Y005790D01*
X004430Y005890D01*
X004430Y006370D01*
X004545Y006484D01*
X004579Y006470D01*
X004781Y006470D01*
X004969Y006548D01*
X005112Y006691D01*
X005190Y006879D01*
X005190Y007081D01*
X005112Y007269D01*
X004969Y007412D01*
X004781Y007490D01*
X004579Y007490D01*
X004391Y007412D01*
X004248Y007269D01*
X004170Y007081D01*
X004170Y006879D01*
X004248Y006691D01*
X004259Y006680D01*
X004090Y006510D01*
X004090Y006030D01*
X001690Y003630D01*
X001690Y003445D01*
X001688Y003445D01*
X001517Y003374D01*
X001386Y003243D01*
X001315Y003072D01*
X001315Y002888D01*
X001386Y002717D01*
X001517Y002586D01*
X001383Y002724D02*
X001010Y002724D01*
X001010Y002882D02*
X001317Y002882D01*
X001315Y003041D02*
X001010Y003041D01*
X001010Y003199D02*
X001367Y003199D01*
X001500Y003358D02*
X001010Y003358D01*
X001010Y003516D02*
X001690Y003516D01*
X001734Y003675D02*
X001010Y003675D01*
X001010Y003833D02*
X001893Y003833D01*
X002051Y003992D02*
X001010Y003992D01*
X001010Y004150D02*
X002210Y004150D01*
X002368Y004309D02*
X001010Y004309D01*
X001010Y004467D02*
X002527Y004467D01*
X002685Y004626D02*
X001010Y004626D01*
X001010Y004784D02*
X002844Y004784D01*
X003002Y004943D02*
X001010Y004943D01*
X001010Y005101D02*
X003161Y005101D01*
X003319Y005260D02*
X001010Y005260D01*
X001010Y005418D02*
X003478Y005418D01*
X003636Y005577D02*
X001010Y005577D01*
X001010Y005735D02*
X003795Y005735D01*
X003953Y005894D02*
X001010Y005894D01*
X001010Y006052D02*
X004090Y006052D01*
X004090Y006211D02*
X001010Y006211D01*
X001010Y006369D02*
X004090Y006369D01*
X004107Y006528D02*
X001920Y006528D01*
X001969Y006548D02*
X002112Y006691D01*
X002190Y006879D01*
X002190Y007081D01*
X002112Y007269D01*
X001969Y007412D01*
X001781Y007490D01*
X001579Y007490D01*
X001391Y007412D01*
X001248Y007269D01*
X001170Y007081D01*
X001170Y006879D01*
X001248Y006691D01*
X001391Y006548D01*
X001579Y006470D01*
X001781Y006470D01*
X001969Y006548D01*
X002107Y006686D02*
X004253Y006686D01*
X004184Y006845D02*
X002176Y006845D01*
X002190Y007003D02*
X004170Y007003D01*
X004203Y007162D02*
X002157Y007162D01*
X002061Y007320D02*
X004299Y007320D01*
X004551Y007479D02*
X001809Y007479D01*
X001551Y007479D02*
X001010Y007479D01*
X001010Y007637D02*
X010917Y007637D01*
X010758Y007479D02*
X004809Y007479D01*
X005061Y007320D02*
X010600Y007320D01*
X010441Y007162D02*
X005157Y007162D01*
X005190Y007003D02*
X010283Y007003D01*
X010124Y006845D02*
X005176Y006845D01*
X005107Y006686D02*
X009966Y006686D01*
X009807Y006528D02*
X004920Y006528D01*
X004430Y006369D02*
X009649Y006369D01*
X009490Y006211D02*
X004430Y006211D01*
X004430Y006052D02*
X009332Y006052D01*
X009173Y005894D02*
X004430Y005894D01*
X004275Y005735D02*
X009015Y005735D01*
X008856Y005577D02*
X004117Y005577D01*
X003958Y005418D02*
X008698Y005418D01*
X008539Y005260D02*
X003800Y005260D01*
X003641Y005101D02*
X008381Y005101D01*
X008703Y004943D02*
X010021Y004943D01*
X009912Y004784D02*
X008544Y004784D01*
X008861Y005101D02*
X009865Y005101D01*
X009830Y005260D02*
X009020Y005260D01*
X009178Y005418D02*
X009830Y005418D01*
X009337Y005577D02*
X010360Y005577D01*
X010400Y005577D02*
X010990Y005577D01*
X010930Y005600D02*
X010930Y005974D01*
X010918Y006019D01*
X010894Y006061D01*
X010861Y006094D01*
X010819Y006118D01*
X010774Y006130D01*
X010400Y006130D01*
X010400Y005600D01*
X010930Y005600D01*
X010930Y005735D02*
X010990Y005735D01*
X010990Y005894D02*
X010930Y005894D01*
X010899Y006052D02*
X010990Y006052D01*
X011050Y006211D02*
X009971Y006211D01*
X009861Y006052D02*
X009812Y006052D01*
X009830Y005894D02*
X009654Y005894D01*
X009495Y005735D02*
X009830Y005735D01*
X010360Y005735D02*
X010400Y005735D01*
X010400Y005894D02*
X010360Y005894D01*
X010360Y006052D02*
X010400Y006052D01*
X010129Y006369D02*
X011209Y006369D01*
X011367Y006528D02*
X010288Y006528D01*
X010446Y006686D02*
X011526Y006686D01*
X011684Y006845D02*
X010605Y006845D01*
X010763Y007003D02*
X011843Y007003D01*
X012001Y007162D02*
X010922Y007162D01*
X011080Y007320D02*
X012160Y007320D01*
X012102Y007479D02*
X012318Y007479D01*
X012358Y007637D02*
X012477Y007637D01*
X012456Y007796D02*
X012504Y007796D01*
X012483Y008113D02*
X012477Y008113D01*
X012410Y008271D02*
X012550Y008271D01*
X012733Y008430D02*
X012227Y008430D01*
X011733Y008430D02*
X005190Y008430D01*
X005187Y008271D02*
X011550Y008271D01*
X011483Y008113D02*
X005121Y008113D01*
X004975Y007954D02*
X011470Y007954D01*
X011435Y007796D02*
X001010Y007796D01*
X001010Y007954D02*
X001385Y007954D01*
X001391Y007948D02*
X001579Y007870D01*
X001781Y007870D01*
X001969Y007948D01*
X002112Y008091D01*
X002190Y008279D01*
X002190Y008481D01*
X002112Y008669D01*
X001969Y008812D01*
X001781Y008890D01*
X001579Y008890D01*
X001391Y008812D01*
X001248Y008669D01*
X001170Y008481D01*
X001170Y008279D01*
X001248Y008091D01*
X001391Y007948D01*
X001239Y008113D02*
X001010Y008113D01*
X001010Y008271D02*
X001173Y008271D01*
X001170Y008430D02*
X001010Y008430D01*
X001010Y008588D02*
X001214Y008588D01*
X001325Y008747D02*
X001010Y008747D01*
X002035Y008747D02*
X004325Y008747D01*
X004214Y008588D02*
X002146Y008588D01*
X002190Y008430D02*
X004170Y008430D01*
X004173Y008271D02*
X002187Y008271D01*
X002121Y008113D02*
X004239Y008113D01*
X004385Y007954D02*
X001975Y007954D01*
X001299Y007320D02*
X001010Y007320D01*
X001010Y007162D02*
X001203Y007162D01*
X001170Y007003D02*
X001010Y007003D01*
X001010Y006845D02*
X001184Y006845D01*
X001253Y006686D02*
X001010Y006686D01*
X001010Y006528D02*
X001440Y006528D01*
X003483Y004943D02*
X004433Y004943D01*
X004405Y004784D02*
X003324Y004784D01*
X003166Y004626D02*
X004486Y004626D01*
X004874Y004626D02*
X009870Y004626D01*
X009875Y004467D02*
X003007Y004467D01*
X002849Y004309D02*
X009940Y004309D01*
X010089Y004150D02*
X002690Y004150D01*
X002532Y003992D02*
X010070Y003992D01*
X009933Y003833D02*
X002373Y003833D01*
X002215Y003675D02*
X009870Y003675D01*
X009870Y003516D02*
X002056Y003516D01*
X002060Y003358D02*
X009920Y003358D01*
X010040Y003199D02*
X002193Y003199D01*
X002245Y003041D02*
X010159Y003041D01*
X009961Y002882D02*
X002243Y002882D01*
X002177Y002724D02*
X009887Y002724D01*
X009870Y002565D02*
X001993Y002565D01*
X002052Y002407D02*
X009900Y002407D01*
X009991Y002248D02*
X002209Y002248D01*
X001780Y002248D02*
X001780Y002248D01*
X001780Y002090D02*
X001780Y002090D01*
X001780Y001931D02*
X001780Y001931D01*
X001780Y001773D02*
X001780Y001773D01*
X001780Y001614D02*
X001780Y001614D01*
X001010Y001297D02*
X015620Y001297D01*
X010922Y004943D02*
X010739Y004943D01*
X010895Y005101D02*
X010990Y005101D01*
X010990Y005260D02*
X010930Y005260D01*
X010930Y005418D02*
X010990Y005418D01*
X011599Y007479D02*
X011858Y007479D01*
X001780Y002407D02*
X001780Y002407D01*
D14*
X006980Y006380D03*
X005980Y007980D03*
D15*
X004680Y006980D02*
X004680Y006860D01*
X004260Y006440D01*
X004260Y005960D01*
X001860Y003560D01*
X001860Y003320D01*
X001800Y003260D01*
X001800Y003020D01*
X001780Y002980D01*
X004680Y004820D02*
X008340Y004820D01*
X011100Y007580D01*
X011460Y007580D01*
X011820Y007940D01*
X011940Y007940D01*
X011980Y007980D01*
X012780Y007760D02*
X012780Y007700D01*
X011160Y006080D01*
X011160Y004940D01*
X010860Y004640D01*
X010800Y004640D01*
X010740Y004580D01*
X010380Y004580D01*
X012780Y007760D02*
X012960Y007940D01*
X012980Y007980D01*
D16*
X004680Y004820D03*
M02*
