G75*
%MOIN*%
%OFA0B0*%
%FSLAX24Y24*%
%IPPOS*%
%LPD*%
%AMOC8*
5,1,8,0,0,1.08239X$1,22.5*
%
%ADD10C,0.0000*%
%ADD11C,0.0040*%
%ADD12C,0.0060*%
D10*
X000980Y000980D02*
X000980Y010076D01*
X016050Y010076D01*
X016050Y000980D01*
X000980Y000980D01*
D11*
X003455Y002200D02*
X003455Y002460D01*
X003542Y002547D01*
X003629Y002460D01*
X003629Y002200D01*
X003802Y002200D02*
X003802Y002547D01*
X003715Y002547D01*
X003629Y002460D01*
X003971Y002460D02*
X003971Y002287D01*
X004057Y002200D01*
X004231Y002200D01*
X004318Y002287D01*
X004318Y002460D01*
X004231Y002547D01*
X004057Y002547D01*
X003971Y002460D01*
X004486Y002547D02*
X004747Y002547D01*
X004833Y002460D01*
X004833Y002287D01*
X004747Y002200D01*
X004486Y002200D01*
X005004Y002200D02*
X005091Y002200D01*
X005091Y002287D01*
X005004Y002287D01*
X005004Y002200D01*
X005260Y002373D02*
X005607Y002373D01*
X005607Y002287D02*
X005607Y002460D01*
X005520Y002547D01*
X005347Y002547D01*
X005260Y002460D01*
X005260Y002373D01*
X005347Y002200D02*
X005520Y002200D01*
X005607Y002287D01*
X005775Y002287D02*
X005862Y002373D01*
X006036Y002373D01*
X006122Y002460D01*
X006036Y002547D01*
X005775Y002547D01*
X005775Y002287D02*
X005862Y002200D01*
X006122Y002200D01*
X006291Y002200D02*
X006291Y002460D01*
X006378Y002547D01*
X006638Y002547D01*
X006638Y002200D01*
X006807Y002373D02*
X007154Y002373D01*
X007154Y002287D02*
X007154Y002460D01*
X007067Y002547D01*
X006893Y002547D01*
X006807Y002460D01*
X006807Y002373D01*
X006893Y002200D02*
X007067Y002200D01*
X007154Y002287D01*
X007322Y002287D02*
X007409Y002373D01*
X007583Y002373D01*
X007669Y002460D01*
X007583Y002547D01*
X007322Y002547D01*
X007322Y002287D02*
X007409Y002200D01*
X007669Y002200D01*
X007926Y002200D02*
X007926Y002634D01*
X007840Y002720D01*
X008182Y002460D02*
X008268Y002547D01*
X008442Y002547D01*
X008529Y002460D01*
X008529Y002287D01*
X008442Y002200D01*
X008268Y002200D01*
X008182Y002373D02*
X008529Y002373D01*
X008697Y002373D02*
X009044Y002373D01*
X009044Y002287D02*
X009044Y002460D01*
X008958Y002547D01*
X008784Y002547D01*
X008697Y002460D01*
X008697Y002373D01*
X008784Y002200D02*
X008958Y002200D01*
X009044Y002287D01*
X009213Y002200D02*
X009387Y002373D01*
X009300Y002373D02*
X009560Y002373D01*
X009560Y002200D02*
X009560Y002720D01*
X009300Y002720D01*
X009213Y002634D01*
X009213Y002460D01*
X009300Y002373D01*
X008182Y002373D02*
X008182Y002460D01*
X008013Y002460D02*
X007840Y002460D01*
D12*
X007723Y003010D02*
X007936Y003224D01*
X007830Y003224D02*
X008150Y003224D01*
X008150Y003010D02*
X008150Y003651D01*
X007830Y003651D01*
X007723Y003544D01*
X007723Y003330D01*
X007830Y003224D01*
X007505Y003224D02*
X007078Y003224D01*
X007078Y003330D01*
X007185Y003437D01*
X007399Y003437D01*
X007505Y003330D01*
X007505Y003117D01*
X007399Y003010D01*
X007185Y003010D01*
X006861Y003437D02*
X006647Y003010D01*
X006434Y003437D01*
X005572Y003437D02*
X005572Y003010D01*
X005572Y003330D02*
X005145Y003330D01*
X005145Y003437D02*
X005145Y003010D01*
X005145Y003437D02*
X005358Y003651D01*
X005572Y003437D01*
M02*
