G75*
%MOIN*%
%OFA0B0*%
%FSLAX24Y24*%
%IPPOS*%
%LPD*%
%AMOC8*
5,1,8,0,0,1.08239X$1,22.5*
%
%ADD10C,0.0650*%
%ADD11R,0.0500X0.0250*%
%ADD12R,0.0800X0.0260*%
%ADD13OC8,0.0480*%
%ADD14R,0.0740X0.0740*%
%ADD15C,0.0740*%
%ADD16C,0.0160*%
%ADD17C,0.0337*%
%ADD18C,0.0060*%
%ADD19C,0.0270*%
D10*
X001980Y001980D03*
X001980Y002980D03*
D11*
X006380Y006230D03*
X006380Y006580D03*
X006380Y006930D03*
X007580Y006930D03*
X007580Y006580D03*
X007580Y006230D03*
X009380Y007030D03*
X009380Y007380D03*
X009380Y007730D03*
X010780Y007730D03*
X010780Y007380D03*
X010780Y007030D03*
D12*
X005990Y005330D03*
X005990Y004830D03*
X005990Y004330D03*
X005990Y003830D03*
X003570Y003830D03*
X003570Y004330D03*
X003570Y004830D03*
X003570Y005330D03*
D13*
X003180Y008380D03*
X002180Y008380D03*
X004180Y008380D03*
D14*
X010580Y005580D03*
D15*
X010580Y004580D03*
X010580Y003580D03*
X010580Y002580D03*
X012780Y007180D03*
X012780Y008180D03*
X014580Y008180D03*
X014580Y007180D03*
X008180Y008380D03*
X007180Y008380D03*
X006180Y008380D03*
D16*
X001210Y009846D02*
X001210Y001210D01*
X015820Y001210D01*
X015820Y009846D01*
X001210Y009846D01*
X001210Y009698D02*
X015820Y009698D01*
X015820Y009539D02*
X001210Y009539D01*
X001210Y009381D02*
X015820Y009381D01*
X015820Y009222D02*
X008998Y009222D01*
X008970Y009250D02*
X009070Y009150D01*
X010390Y007830D01*
X010390Y007913D01*
X010472Y007995D01*
X011088Y007995D01*
X011170Y007913D01*
X011170Y007870D01*
X012070Y007870D01*
X012272Y008073D01*
X012270Y008079D01*
X012270Y008281D01*
X012348Y008469D01*
X012491Y008612D01*
X012679Y008690D01*
X012881Y008690D01*
X013069Y008612D01*
X013211Y008470D01*
X014149Y008470D01*
X014291Y008612D01*
X014479Y008690D01*
X014681Y008690D01*
X014869Y008612D01*
X015012Y008469D01*
X015090Y008281D01*
X015090Y008079D01*
X015012Y007891D01*
X014869Y007748D01*
X014706Y007680D01*
X014869Y007612D01*
X015012Y007469D01*
X015090Y007281D01*
X015090Y007079D01*
X015012Y006891D01*
X014869Y006748D01*
X014681Y006670D01*
X014479Y006670D01*
X014291Y006748D01*
X014148Y006891D01*
X014070Y007079D01*
X014070Y007281D01*
X014084Y007315D01*
X013990Y007410D01*
X013410Y007410D01*
X013288Y007287D01*
X013290Y007281D01*
X013290Y007079D01*
X013212Y006891D01*
X013069Y006748D01*
X012881Y006670D01*
X012679Y006670D01*
X012491Y006748D01*
X012470Y006769D01*
X012090Y006390D01*
X010330Y006390D01*
X010230Y006490D01*
X010050Y006670D01*
X010050Y007030D01*
X009770Y007310D01*
X009770Y007270D01*
X009774Y007266D01*
X009798Y007224D01*
X009810Y007179D01*
X009810Y007030D01*
X009380Y007030D01*
X009380Y007030D01*
X009810Y007030D01*
X009810Y006881D01*
X009798Y006836D01*
X009774Y006794D01*
X009741Y006761D01*
X009699Y006737D01*
X009654Y006725D01*
X009380Y006725D01*
X009380Y007030D01*
X009380Y007030D01*
X009380Y007030D01*
X008950Y007030D01*
X008950Y007179D01*
X008962Y007224D01*
X008986Y007266D01*
X008990Y007270D01*
X008990Y007370D01*
X008650Y007710D01*
X008550Y007810D01*
X008550Y007930D01*
X008500Y007979D01*
X008469Y007948D01*
X008281Y007870D01*
X008079Y007870D01*
X007891Y007948D01*
X007748Y008091D01*
X007680Y008254D01*
X007612Y008091D01*
X007469Y007948D01*
X007281Y007870D01*
X007079Y007870D01*
X006891Y007948D01*
X006748Y008091D01*
X006680Y008254D01*
X006612Y008091D01*
X006469Y007948D01*
X006281Y007870D01*
X006079Y007870D01*
X006073Y007872D01*
X005290Y007090D01*
X005290Y006250D01*
X005890Y006850D01*
X005990Y006850D01*
X005990Y007113D01*
X006072Y007195D01*
X006688Y007195D01*
X006770Y007113D01*
X006770Y007090D01*
X007190Y007090D01*
X007190Y007113D01*
X007272Y007195D01*
X007888Y007195D01*
X007970Y007113D01*
X007970Y007010D01*
X010137Y004843D01*
X010148Y004869D01*
X010291Y005012D01*
X010334Y005030D01*
X010186Y005030D01*
X010141Y005042D01*
X010099Y005066D01*
X010066Y005099D01*
X010042Y005141D01*
X010030Y005186D01*
X010030Y005560D01*
X010560Y005560D01*
X010560Y005600D01*
X010560Y006130D01*
X010186Y006130D01*
X010141Y006118D01*
X010099Y006094D01*
X010066Y006061D01*
X010042Y006019D01*
X010030Y005974D01*
X010030Y005600D01*
X010560Y005600D01*
X010600Y005600D01*
X011130Y005600D01*
X011130Y005974D01*
X011118Y006019D01*
X011094Y006061D01*
X011061Y006094D01*
X011019Y006118D01*
X010974Y006130D01*
X010600Y006130D01*
X010600Y005600D01*
X010600Y005560D01*
X011130Y005560D01*
X011130Y005186D01*
X011118Y005141D01*
X011094Y005099D01*
X011061Y005066D01*
X011019Y005042D01*
X010974Y005030D01*
X010826Y005030D01*
X010869Y005012D01*
X011012Y004869D01*
X011090Y004681D01*
X011090Y004479D01*
X011012Y004291D01*
X010869Y004148D01*
X010706Y004080D01*
X010869Y004012D01*
X011012Y003869D01*
X011090Y003681D01*
X011090Y003479D01*
X011012Y003291D01*
X010869Y003148D01*
X010706Y003080D01*
X010869Y003012D01*
X011012Y002869D01*
X011090Y002681D01*
X011090Y002479D01*
X011012Y002291D01*
X010869Y002148D01*
X010681Y002070D01*
X010479Y002070D01*
X010291Y002148D01*
X010148Y002291D01*
X010070Y002479D01*
X010070Y002681D01*
X010072Y002687D01*
X009970Y002790D01*
X005770Y002790D01*
X005670Y002890D01*
X004870Y003690D01*
X004110Y003690D01*
X004110Y003642D01*
X004028Y003560D01*
X003112Y003560D01*
X003030Y003642D01*
X003030Y004018D01*
X003065Y004053D01*
X003059Y004056D01*
X003026Y004089D01*
X003002Y004131D01*
X002990Y004176D01*
X002990Y004330D01*
X003570Y004330D01*
X004150Y004330D01*
X004150Y004484D01*
X004138Y004529D01*
X004114Y004571D01*
X004081Y004604D01*
X004075Y004607D01*
X004110Y004642D01*
X004110Y004650D01*
X004230Y004650D01*
X005070Y005490D01*
X005070Y005010D01*
X005070Y004870D01*
X005190Y004750D01*
X005290Y004650D01*
X005450Y004650D01*
X005450Y004642D01*
X005512Y004580D01*
X005450Y004518D01*
X005450Y004142D01*
X005512Y004080D01*
X005450Y004018D01*
X005450Y003642D01*
X005532Y003560D01*
X006448Y003560D01*
X006530Y003642D01*
X006530Y003690D01*
X010074Y003690D01*
X010070Y003681D01*
X010070Y003479D01*
X010148Y003291D01*
X010291Y003148D01*
X010454Y003080D01*
X010291Y003012D01*
X010260Y002981D01*
X010110Y003130D01*
X005910Y003130D01*
X005010Y004030D01*
X004098Y004030D01*
X004075Y004053D01*
X004081Y004056D01*
X004114Y004089D01*
X004138Y004131D01*
X004150Y004176D01*
X004150Y004330D01*
X003570Y004330D01*
X003570Y004330D01*
X003570Y004330D01*
X002990Y004330D01*
X002990Y004484D01*
X003002Y004529D01*
X003026Y004571D01*
X003059Y004604D01*
X003065Y004607D01*
X003030Y004642D01*
X003030Y005018D01*
X003092Y005080D01*
X003030Y005142D01*
X003030Y005518D01*
X003112Y005600D01*
X003390Y005600D01*
X003390Y006910D01*
X002300Y008000D01*
X002023Y008000D01*
X001800Y008223D01*
X001800Y008537D01*
X002023Y008760D01*
X002337Y008760D01*
X002560Y008537D01*
X002560Y008223D01*
X002559Y008222D01*
X003730Y007050D01*
X003730Y005600D01*
X004028Y005600D01*
X004110Y005518D01*
X004110Y005142D01*
X004048Y005080D01*
X004110Y005018D01*
X004110Y005010D01*
X004950Y005850D01*
X004950Y007230D01*
X005779Y008060D01*
X005748Y008091D01*
X005670Y008279D01*
X005670Y008481D01*
X005748Y008669D01*
X005891Y008812D01*
X006079Y008890D01*
X006281Y008890D01*
X006469Y008812D01*
X006612Y008669D01*
X006680Y008506D01*
X006748Y008669D01*
X006891Y008812D01*
X007079Y008890D01*
X007281Y008890D01*
X007315Y008876D01*
X007690Y009250D01*
X008970Y009250D01*
X009157Y009064D02*
X015820Y009064D01*
X015820Y008905D02*
X009315Y008905D01*
X009474Y008747D02*
X015820Y008747D01*
X015820Y008588D02*
X014893Y008588D01*
X015029Y008430D02*
X015820Y008430D01*
X015820Y008271D02*
X015090Y008271D01*
X015090Y008113D02*
X015820Y008113D01*
X015820Y007954D02*
X015038Y007954D01*
X014917Y007796D02*
X015820Y007796D01*
X015820Y007637D02*
X014809Y007637D01*
X015003Y007479D02*
X015820Y007479D01*
X015820Y007320D02*
X015074Y007320D01*
X015090Y007162D02*
X015820Y007162D01*
X015820Y007003D02*
X015059Y007003D01*
X014966Y006845D02*
X015820Y006845D01*
X015820Y006686D02*
X014720Y006686D01*
X014440Y006686D02*
X012920Y006686D01*
X012640Y006686D02*
X012386Y006686D01*
X012228Y006528D02*
X015820Y006528D01*
X015820Y006369D02*
X008611Y006369D01*
X008453Y006528D02*
X010192Y006528D01*
X010050Y006686D02*
X008294Y006686D01*
X008136Y006845D02*
X008960Y006845D01*
X008962Y006836D02*
X008986Y006794D01*
X009019Y006761D01*
X009061Y006737D01*
X009106Y006725D01*
X009380Y006725D01*
X009380Y007030D01*
X008950Y007030D01*
X008950Y006881D01*
X008962Y006836D01*
X008950Y007003D02*
X007977Y007003D01*
X007921Y007162D02*
X008950Y007162D01*
X008990Y007320D02*
X005520Y007320D01*
X005362Y007162D02*
X006039Y007162D01*
X005990Y007003D02*
X005290Y007003D01*
X005290Y006845D02*
X005884Y006845D01*
X005726Y006686D02*
X005290Y006686D01*
X005290Y006528D02*
X005567Y006528D01*
X005409Y006369D02*
X005290Y006369D01*
X005731Y006211D02*
X005950Y006211D01*
X005950Y006230D02*
X005950Y006081D01*
X005962Y006036D01*
X005986Y005994D01*
X006019Y005961D01*
X006061Y005937D01*
X006106Y005925D01*
X006380Y005925D01*
X006654Y005925D01*
X006699Y005937D01*
X006741Y005961D01*
X006774Y005994D01*
X006798Y006036D01*
X006810Y006081D01*
X006810Y006230D01*
X006810Y006379D01*
X006798Y006424D01*
X006774Y006466D01*
X006770Y006470D01*
X006770Y006750D01*
X006990Y006750D01*
X006910Y006670D01*
X006810Y006570D01*
X006810Y005910D01*
X006474Y005574D01*
X006448Y005600D01*
X005532Y005600D01*
X005450Y005518D01*
X005450Y005142D01*
X005512Y005080D01*
X005450Y005018D01*
X005450Y004990D01*
X005430Y004990D01*
X005410Y005010D01*
X005410Y005890D01*
X005990Y006470D01*
X005990Y006470D01*
X005986Y006466D01*
X005962Y006424D01*
X005950Y006379D01*
X005950Y006230D01*
X006380Y006230D01*
X006810Y006230D01*
X006380Y006230D01*
X006380Y006230D01*
X006380Y005925D01*
X006380Y006230D01*
X006380Y006230D01*
X006380Y006230D01*
X005950Y006230D01*
X005950Y006369D02*
X005889Y006369D01*
X006380Y006211D02*
X006380Y006211D01*
X006380Y006052D02*
X006380Y006052D01*
X006802Y006052D02*
X006810Y006052D01*
X006810Y006211D02*
X006810Y006211D01*
X006810Y006369D02*
X006810Y006369D01*
X006810Y006528D02*
X006770Y006528D01*
X006770Y006686D02*
X006926Y006686D01*
X007150Y006430D02*
X007190Y006470D01*
X007190Y006470D01*
X007186Y006466D01*
X007162Y006424D01*
X007150Y006379D01*
X007150Y006230D01*
X007580Y006230D01*
X008010Y006230D01*
X008010Y006379D01*
X007998Y006424D01*
X007974Y006466D01*
X007970Y006470D01*
X007970Y006530D01*
X009930Y004570D01*
X009930Y004570D01*
X010030Y004470D01*
X010074Y004470D01*
X010148Y004291D01*
X010291Y004148D01*
X010454Y004080D01*
X010291Y004012D01*
X010270Y003991D01*
X010230Y004030D01*
X006518Y004030D01*
X006468Y004080D01*
X006530Y004142D01*
X006530Y004518D01*
X006468Y004580D01*
X006530Y004642D01*
X006530Y005018D01*
X006468Y005080D01*
X006530Y005142D01*
X006530Y005190D01*
X006570Y005190D01*
X006670Y005290D01*
X007150Y005770D01*
X007150Y006430D01*
X007150Y006369D02*
X007150Y006369D01*
X007150Y006230D02*
X007150Y006081D01*
X007162Y006036D01*
X007186Y005994D01*
X007219Y005961D01*
X007261Y005937D01*
X007306Y005925D01*
X007580Y005925D01*
X007854Y005925D01*
X007899Y005937D01*
X007941Y005961D01*
X007974Y005994D01*
X007998Y006036D01*
X008010Y006081D01*
X008010Y006230D01*
X007580Y006230D01*
X007580Y006230D01*
X007580Y005925D01*
X007580Y006230D01*
X007580Y006230D01*
X007580Y006230D01*
X007150Y006230D01*
X007150Y006211D02*
X007150Y006211D01*
X007150Y006052D02*
X007158Y006052D01*
X007150Y005894D02*
X008606Y005894D01*
X008448Y006052D02*
X008002Y006052D01*
X008010Y006211D02*
X008289Y006211D01*
X008131Y006369D02*
X008010Y006369D01*
X007970Y006528D02*
X007972Y006528D01*
X007580Y006211D02*
X007580Y006211D01*
X007580Y006052D02*
X007580Y006052D01*
X007115Y005735D02*
X008765Y005735D01*
X008923Y005577D02*
X006957Y005577D01*
X006798Y005418D02*
X009082Y005418D01*
X009240Y005260D02*
X006640Y005260D01*
X006489Y005101D02*
X009399Y005101D01*
X009557Y004943D02*
X006530Y004943D01*
X006530Y004784D02*
X009716Y004784D01*
X009874Y004626D02*
X006513Y004626D01*
X006530Y004467D02*
X010075Y004467D01*
X010140Y004309D02*
X006530Y004309D01*
X006530Y004150D02*
X010289Y004150D01*
X010269Y003992D02*
X010270Y003992D01*
X010070Y003675D02*
X006530Y003675D01*
X005841Y003199D02*
X010240Y003199D01*
X010200Y003041D02*
X010359Y003041D01*
X010801Y003041D02*
X015820Y003041D01*
X015820Y003199D02*
X010920Y003199D01*
X011040Y003358D02*
X015820Y003358D01*
X015820Y003516D02*
X011090Y003516D01*
X011090Y003675D02*
X015820Y003675D01*
X015820Y003833D02*
X011027Y003833D01*
X010890Y003992D02*
X015820Y003992D01*
X015820Y004150D02*
X010871Y004150D01*
X011020Y004309D02*
X015820Y004309D01*
X015820Y004467D02*
X011085Y004467D01*
X011090Y004626D02*
X015820Y004626D01*
X015820Y004784D02*
X011048Y004784D01*
X010939Y004943D02*
X015820Y004943D01*
X015820Y005101D02*
X011095Y005101D01*
X011130Y005260D02*
X015820Y005260D01*
X015820Y005418D02*
X011130Y005418D01*
X010600Y005577D02*
X015820Y005577D01*
X015820Y005735D02*
X011130Y005735D01*
X011130Y005894D02*
X015820Y005894D01*
X015820Y006052D02*
X011099Y006052D01*
X010600Y006052D02*
X010560Y006052D01*
X010560Y005894D02*
X010600Y005894D01*
X010600Y005735D02*
X010560Y005735D01*
X010560Y005577D02*
X009404Y005577D01*
X009245Y005735D02*
X010030Y005735D01*
X010030Y005894D02*
X009087Y005894D01*
X008928Y006052D02*
X010061Y006052D01*
X010030Y005418D02*
X009562Y005418D01*
X009721Y005260D02*
X010030Y005260D01*
X010065Y005101D02*
X009879Y005101D01*
X010038Y004943D02*
X010221Y004943D01*
X010070Y003516D02*
X005524Y003516D01*
X005450Y003675D02*
X005366Y003675D01*
X005450Y003833D02*
X005207Y003833D01*
X005049Y003992D02*
X005450Y003992D01*
X005450Y004150D02*
X004143Y004150D01*
X004150Y004309D02*
X005450Y004309D01*
X005450Y004467D02*
X004150Y004467D01*
X004093Y004626D02*
X005467Y004626D01*
X005156Y004784D02*
X004364Y004784D01*
X004523Y004943D02*
X005070Y004943D01*
X005070Y005101D02*
X004681Y005101D01*
X004840Y005260D02*
X005070Y005260D01*
X005070Y005418D02*
X004998Y005418D01*
X004676Y005577D02*
X004051Y005577D01*
X004110Y005418D02*
X004518Y005418D01*
X004359Y005260D02*
X004110Y005260D01*
X004069Y005101D02*
X004201Y005101D01*
X003730Y005735D02*
X004835Y005735D01*
X004950Y005894D02*
X003730Y005894D01*
X003730Y006052D02*
X004950Y006052D01*
X004950Y006211D02*
X003730Y006211D01*
X003730Y006369D02*
X004950Y006369D01*
X004950Y006528D02*
X003730Y006528D01*
X003730Y006686D02*
X004950Y006686D01*
X004950Y006845D02*
X003730Y006845D01*
X003730Y007003D02*
X004950Y007003D01*
X004950Y007162D02*
X003619Y007162D01*
X003460Y007320D02*
X005040Y007320D01*
X005198Y007479D02*
X003302Y007479D01*
X003143Y007637D02*
X005357Y007637D01*
X005515Y007796D02*
X002985Y007796D01*
X003023Y008000D02*
X003337Y008000D01*
X003560Y008223D01*
X003560Y008537D01*
X003337Y008760D01*
X003023Y008760D01*
X002800Y008537D01*
X002800Y008223D01*
X003023Y008000D01*
X002910Y008113D02*
X002668Y008113D01*
X002560Y008271D02*
X002800Y008271D01*
X002800Y008430D02*
X002560Y008430D01*
X002509Y008588D02*
X002851Y008588D01*
X003009Y008747D02*
X002351Y008747D01*
X002009Y008747D02*
X001210Y008747D01*
X001210Y008905D02*
X007345Y008905D01*
X007503Y009064D02*
X001210Y009064D01*
X001210Y009222D02*
X007662Y009222D01*
X006825Y008747D02*
X006535Y008747D01*
X006646Y008588D02*
X006714Y008588D01*
X006739Y008113D02*
X006621Y008113D01*
X006475Y007954D02*
X006885Y007954D01*
X007475Y007954D02*
X007885Y007954D01*
X007739Y008113D02*
X007621Y008113D01*
X008475Y007954D02*
X008526Y007954D01*
X008564Y007796D02*
X005996Y007796D01*
X005837Y007637D02*
X008723Y007637D01*
X008881Y007479D02*
X005679Y007479D01*
X005674Y007954D02*
X002826Y007954D01*
X002663Y007637D02*
X001210Y007637D01*
X001210Y007479D02*
X002821Y007479D01*
X002980Y007320D02*
X001210Y007320D01*
X001210Y007162D02*
X003138Y007162D01*
X003297Y007003D02*
X001210Y007003D01*
X001210Y006845D02*
X003390Y006845D01*
X003390Y006686D02*
X001210Y006686D01*
X001210Y006528D02*
X003390Y006528D01*
X003390Y006369D02*
X001210Y006369D01*
X001210Y006211D02*
X003390Y006211D01*
X003390Y006052D02*
X001210Y006052D01*
X001210Y005894D02*
X003390Y005894D01*
X003390Y005735D02*
X001210Y005735D01*
X001210Y005577D02*
X003089Y005577D01*
X003030Y005418D02*
X001210Y005418D01*
X001210Y005260D02*
X003030Y005260D01*
X003071Y005101D02*
X001210Y005101D01*
X001210Y004943D02*
X003030Y004943D01*
X003030Y004784D02*
X001210Y004784D01*
X001210Y004626D02*
X003047Y004626D01*
X002990Y004467D02*
X001210Y004467D01*
X001210Y004309D02*
X002990Y004309D01*
X002997Y004150D02*
X001210Y004150D01*
X001210Y003992D02*
X003030Y003992D01*
X003030Y003833D02*
X001210Y003833D01*
X001210Y003675D02*
X003030Y003675D01*
X002374Y003243D02*
X002243Y003374D01*
X002072Y003445D01*
X001888Y003445D01*
X001717Y003374D01*
X001586Y003243D01*
X001515Y003072D01*
X001515Y002888D01*
X001586Y002717D01*
X001717Y002586D01*
X001888Y002515D01*
X002072Y002515D01*
X002243Y002586D01*
X002374Y002717D01*
X002445Y002888D01*
X002445Y003072D01*
X002374Y003243D01*
X002393Y003199D02*
X005361Y003199D01*
X005519Y003041D02*
X002445Y003041D01*
X002443Y002882D02*
X005678Y002882D01*
X005683Y003358D02*
X010120Y003358D01*
X010999Y002882D02*
X015820Y002882D01*
X015820Y002724D02*
X011073Y002724D01*
X011090Y002565D02*
X015820Y002565D01*
X015820Y002407D02*
X011060Y002407D01*
X010969Y002248D02*
X015820Y002248D01*
X015820Y002090D02*
X010729Y002090D01*
X010431Y002090D02*
X002474Y002090D01*
X002473Y002098D02*
X002448Y002174D01*
X002412Y002245D01*
X002365Y002309D01*
X002309Y002365D01*
X002245Y002412D01*
X002174Y002448D01*
X002098Y002473D01*
X002020Y002485D01*
X001980Y002485D01*
X001980Y001980D01*
X001980Y001980D01*
X002485Y001980D01*
X002485Y002020D01*
X002473Y002098D01*
X002485Y001980D02*
X001980Y001980D01*
X001980Y001980D01*
X001980Y001980D01*
X001475Y001980D01*
X001475Y002020D01*
X001487Y002098D01*
X001512Y002174D01*
X001548Y002245D01*
X001595Y002309D01*
X001651Y002365D01*
X001715Y002412D01*
X001786Y002448D01*
X001862Y002473D01*
X001940Y002485D01*
X001980Y002485D01*
X001980Y001980D01*
X001980Y001475D01*
X002020Y001475D01*
X002098Y001487D01*
X002174Y001512D01*
X002245Y001548D01*
X002309Y001595D01*
X002365Y001651D01*
X002412Y001715D01*
X002448Y001786D01*
X002473Y001862D01*
X002485Y001940D01*
X002485Y001980D01*
X002484Y001931D02*
X015820Y001931D01*
X015820Y001773D02*
X002441Y001773D01*
X002328Y001614D02*
X015820Y001614D01*
X015820Y001456D02*
X001210Y001456D01*
X001210Y001614D02*
X001632Y001614D01*
X001651Y001595D02*
X001715Y001548D01*
X001786Y001512D01*
X001862Y001487D01*
X001940Y001475D01*
X001980Y001475D01*
X001980Y001980D01*
X001980Y001980D01*
X001475Y001980D01*
X001475Y001940D01*
X001487Y001862D01*
X001512Y001786D01*
X001548Y001715D01*
X001595Y001651D01*
X001651Y001595D01*
X001519Y001773D02*
X001210Y001773D01*
X001210Y001931D02*
X001476Y001931D01*
X001486Y002090D02*
X001210Y002090D01*
X001210Y002248D02*
X001551Y002248D01*
X001708Y002407D02*
X001210Y002407D01*
X001210Y002565D02*
X001767Y002565D01*
X001583Y002724D02*
X001210Y002724D01*
X001210Y002882D02*
X001517Y002882D01*
X001515Y003041D02*
X001210Y003041D01*
X001210Y003199D02*
X001567Y003199D01*
X001700Y003358D02*
X001210Y003358D01*
X001210Y003516D02*
X005044Y003516D01*
X005202Y003358D02*
X002260Y003358D01*
X002377Y002724D02*
X010036Y002724D01*
X010070Y002565D02*
X002193Y002565D01*
X002252Y002407D02*
X010100Y002407D01*
X010191Y002248D02*
X002409Y002248D01*
X001980Y002248D02*
X001980Y002248D01*
X001980Y002090D02*
X001980Y002090D01*
X001980Y001931D02*
X001980Y001931D01*
X001980Y001773D02*
X001980Y001773D01*
X001980Y001614D02*
X001980Y001614D01*
X001210Y001297D02*
X015820Y001297D01*
X015820Y006211D02*
X008770Y006211D01*
X009380Y006845D02*
X009380Y006845D01*
X009380Y007003D02*
X009380Y007003D01*
X009810Y007003D02*
X010050Y007003D01*
X010050Y006845D02*
X009800Y006845D01*
X009810Y007162D02*
X009918Y007162D01*
X010266Y007954D02*
X010431Y007954D01*
X010108Y008113D02*
X012270Y008113D01*
X012270Y008271D02*
X009949Y008271D01*
X009791Y008430D02*
X012331Y008430D01*
X012467Y008588D02*
X009632Y008588D01*
X011129Y007954D02*
X012154Y007954D01*
X013093Y008588D02*
X014267Y008588D01*
X014080Y007320D02*
X013320Y007320D01*
X013290Y007162D02*
X014070Y007162D01*
X014101Y007003D02*
X013259Y007003D01*
X013166Y006845D02*
X014194Y006845D01*
X007239Y007162D02*
X006721Y007162D01*
X005739Y008113D02*
X004506Y008113D01*
X004600Y008206D02*
X004354Y007960D01*
X004180Y007960D01*
X004180Y008380D01*
X004600Y008380D01*
X004600Y008554D01*
X004354Y008800D01*
X004180Y008800D01*
X004180Y008380D01*
X004180Y008380D01*
X004180Y008380D01*
X004600Y008380D01*
X004600Y008206D01*
X004600Y008271D02*
X005673Y008271D01*
X005670Y008430D02*
X004600Y008430D01*
X004566Y008588D02*
X005714Y008588D01*
X005825Y008747D02*
X004407Y008747D01*
X004180Y008747D02*
X004180Y008747D01*
X004180Y008800D02*
X004006Y008800D01*
X003760Y008554D01*
X003760Y008380D01*
X004180Y008380D01*
X004180Y008380D01*
X004180Y008380D01*
X004180Y008800D01*
X003953Y008747D02*
X003351Y008747D01*
X003509Y008588D02*
X003794Y008588D01*
X003760Y008430D02*
X003560Y008430D01*
X003560Y008271D02*
X003760Y008271D01*
X003760Y008206D02*
X004006Y007960D01*
X004180Y007960D01*
X004180Y008380D01*
X003760Y008380D01*
X003760Y008206D01*
X003854Y008113D02*
X003450Y008113D01*
X004180Y008113D02*
X004180Y008113D01*
X004180Y008271D02*
X004180Y008271D01*
X004180Y008430D02*
X004180Y008430D01*
X004180Y008588D02*
X004180Y008588D01*
X002504Y007796D02*
X001210Y007796D01*
X001210Y007954D02*
X002346Y007954D01*
X001910Y008113D02*
X001210Y008113D01*
X001210Y008271D02*
X001800Y008271D01*
X001800Y008430D02*
X001210Y008430D01*
X001210Y008588D02*
X001851Y008588D01*
X005572Y006052D02*
X005958Y006052D01*
X005414Y005894D02*
X006793Y005894D01*
X006635Y005735D02*
X005410Y005735D01*
X005410Y005577D02*
X005509Y005577D01*
X005450Y005418D02*
X005410Y005418D01*
X005410Y005260D02*
X005450Y005260D01*
X005410Y005101D02*
X005491Y005101D01*
X006471Y005577D02*
X006476Y005577D01*
X004885Y003675D02*
X004110Y003675D01*
X001980Y002407D02*
X001980Y002407D01*
D17*
X007580Y004980D03*
X005780Y005780D03*
D18*
X006020Y005360D02*
X005990Y005330D01*
X006020Y005360D02*
X006500Y005360D01*
X006980Y005840D01*
X006980Y006500D01*
X007160Y006680D01*
X007220Y006680D01*
X007280Y006620D01*
X007580Y006620D01*
X007580Y006580D01*
X007580Y006920D02*
X007580Y006930D01*
X007580Y006920D02*
X007820Y006920D01*
X010100Y004640D01*
X010160Y004640D01*
X010220Y004580D01*
X010580Y004580D01*
X010160Y003860D02*
X010400Y003620D01*
X010580Y003620D01*
X010580Y003580D01*
X010160Y003860D02*
X006020Y003860D01*
X005990Y003830D01*
X005840Y002960D02*
X004940Y003860D01*
X003620Y003860D01*
X003570Y003830D01*
X003620Y004820D02*
X003570Y004830D01*
X003620Y004820D02*
X004160Y004820D01*
X005120Y005780D01*
X005120Y007160D01*
X006140Y008180D01*
X006140Y008360D01*
X006180Y008380D01*
X007180Y008380D02*
X007220Y008420D01*
X007220Y008540D01*
X007760Y009080D01*
X008900Y009080D01*
X010580Y007400D01*
X010760Y007400D01*
X010780Y007380D01*
X010820Y007700D02*
X010780Y007730D01*
X010820Y007700D02*
X012140Y007700D01*
X012620Y008180D01*
X012780Y008180D01*
X012800Y008180D01*
X012860Y008240D01*
X013220Y008240D01*
X013280Y008300D01*
X014120Y008300D01*
X014240Y008180D01*
X014580Y008180D01*
X014060Y007580D02*
X013340Y007580D01*
X012980Y007220D01*
X012800Y007220D01*
X012780Y007180D01*
X012740Y007160D01*
X012620Y007160D01*
X012020Y006560D01*
X010400Y006560D01*
X010220Y006740D01*
X010220Y007100D01*
X009620Y007700D01*
X009380Y007700D01*
X009380Y007730D01*
X009380Y007400D02*
X009200Y007400D01*
X008720Y007880D01*
X008720Y008000D01*
X008360Y008360D01*
X008180Y008360D01*
X008180Y008380D01*
X009380Y007400D02*
X009380Y007380D01*
X010780Y007030D02*
X010820Y006980D01*
X011120Y006980D01*
X011240Y006860D01*
X014060Y007580D02*
X014420Y007220D01*
X014540Y007220D01*
X014580Y007180D01*
X007580Y006920D02*
X006380Y006920D01*
X006380Y006930D01*
X006080Y006620D02*
X006020Y006680D01*
X005960Y006680D01*
X005240Y005960D01*
X005240Y004940D01*
X005360Y004820D01*
X005960Y004820D01*
X005990Y004830D01*
X003570Y005330D02*
X003560Y005360D01*
X003560Y006980D01*
X002180Y008360D01*
X002180Y008380D01*
X006080Y006620D02*
X006380Y006620D01*
X006380Y006580D01*
X005840Y002960D02*
X010040Y002960D01*
X010400Y002600D01*
X010580Y002600D01*
X010580Y002580D01*
D19*
X011240Y006860D03*
M02*
