G75*
%MOIN*%
%OFA0B0*%
%FSLAX24Y24*%
%IPPOS*%
%LPD*%
%AMOC8*
5,1,8,0,0,1.08239X$1,22.5*
%
%ADD10C,0.0000*%
%ADD11C,0.0040*%
%ADD12C,0.0060*%
%ADD13C,0.0080*%
%ADD14C,0.0030*%
%ADD15C,0.0020*%
%ADD16C,0.0050*%
D10*
X000780Y000980D02*
X000780Y009476D01*
X015850Y009476D01*
X015850Y000980D01*
X000780Y000980D01*
D11*
X008269Y002327D02*
X008346Y002250D01*
X008499Y002250D01*
X008576Y002327D01*
X008576Y002403D01*
X008499Y002480D01*
X008346Y002480D01*
X008269Y002557D01*
X008269Y002634D01*
X008346Y002710D01*
X008499Y002710D01*
X008576Y002634D01*
X008729Y002634D02*
X008729Y002327D01*
X008806Y002250D01*
X008959Y002250D01*
X009036Y002327D01*
X009190Y002250D02*
X009497Y002250D01*
X009190Y002250D02*
X009190Y002710D01*
X009036Y002634D02*
X008959Y002710D01*
X008806Y002710D01*
X008729Y002634D01*
X008729Y003250D02*
X008959Y003250D01*
X009036Y003327D01*
X009036Y003634D01*
X008959Y003710D01*
X008729Y003710D01*
X008729Y003250D01*
X008576Y003327D02*
X008499Y003250D01*
X008346Y003250D01*
X008269Y003327D01*
X008346Y003480D02*
X008269Y003557D01*
X008269Y003634D01*
X008346Y003710D01*
X008499Y003710D01*
X008576Y003634D01*
X008499Y003480D02*
X008576Y003403D01*
X008576Y003327D01*
X008499Y003480D02*
X008346Y003480D01*
X009190Y003480D02*
X009497Y003480D01*
X009497Y003557D02*
X009497Y003250D01*
X009190Y003250D02*
X009190Y003557D01*
X009343Y003710D01*
X009497Y003557D01*
X009420Y004250D02*
X009497Y004327D01*
X009420Y004250D02*
X009266Y004250D01*
X009190Y004327D01*
X009190Y004634D01*
X009266Y004710D01*
X009420Y004710D01*
X009497Y004634D01*
X009036Y004634D02*
X008959Y004710D01*
X008806Y004710D01*
X008729Y004634D01*
X008729Y004327D01*
X008806Y004250D01*
X008959Y004250D01*
X009036Y004327D01*
X008576Y004403D02*
X008576Y004710D01*
X008269Y004710D02*
X008269Y004403D01*
X008422Y004250D01*
X008576Y004403D01*
X008499Y005250D02*
X008576Y005327D01*
X008576Y005480D01*
X008422Y005480D01*
X008269Y005327D02*
X008346Y005250D01*
X008499Y005250D01*
X008729Y005250D02*
X008729Y005710D01*
X009036Y005250D01*
X009036Y005710D01*
X009190Y005710D02*
X009420Y005710D01*
X009497Y005634D01*
X009497Y005327D01*
X009420Y005250D01*
X009190Y005250D01*
X009190Y005710D01*
X008576Y005634D02*
X008499Y005710D01*
X008346Y005710D01*
X008269Y005634D01*
X008269Y005327D01*
D12*
X008680Y006580D02*
X007680Y006580D01*
X007663Y006582D01*
X007646Y006586D01*
X007630Y006593D01*
X007616Y006603D01*
X007603Y006616D01*
X007593Y006630D01*
X007586Y006646D01*
X007582Y006663D01*
X007580Y006680D01*
X007580Y007280D01*
X007582Y007297D01*
X007586Y007314D01*
X007593Y007330D01*
X007603Y007344D01*
X007616Y007357D01*
X007630Y007367D01*
X007646Y007374D01*
X007663Y007378D01*
X007680Y007380D01*
X008680Y007380D01*
X008697Y007378D01*
X008714Y007374D01*
X008730Y007367D01*
X008744Y007357D01*
X008757Y007344D01*
X008767Y007330D01*
X008774Y007314D01*
X008778Y007297D01*
X008780Y007280D01*
X008780Y006680D01*
X008778Y006663D01*
X008774Y006646D01*
X008767Y006630D01*
X008757Y006616D01*
X008744Y006603D01*
X008730Y006593D01*
X008714Y006586D01*
X008697Y006582D01*
X008680Y006580D01*
X009224Y006917D02*
X009224Y007344D01*
X009437Y007130D02*
X009010Y007130D01*
X008680Y007780D02*
X007680Y007780D01*
X007663Y007782D01*
X007646Y007786D01*
X007630Y007793D01*
X007616Y007803D01*
X007603Y007816D01*
X007593Y007830D01*
X007586Y007846D01*
X007582Y007863D01*
X007580Y007880D01*
X007580Y008480D01*
X007582Y008497D01*
X007586Y008514D01*
X007593Y008530D01*
X007603Y008544D01*
X007616Y008557D01*
X007630Y008567D01*
X007646Y008574D01*
X007663Y008578D01*
X007680Y008580D01*
X008680Y008580D01*
X008697Y008578D01*
X008714Y008574D01*
X008730Y008567D01*
X008744Y008557D01*
X008757Y008544D01*
X008767Y008530D01*
X008774Y008514D01*
X008778Y008497D01*
X008780Y008480D01*
X008780Y007880D01*
X008778Y007863D01*
X008774Y007846D01*
X008767Y007830D01*
X008757Y007816D01*
X008744Y007803D01*
X008730Y007793D01*
X008714Y007786D01*
X008697Y007782D01*
X008680Y007780D01*
X007437Y007130D02*
X007010Y007130D01*
X005200Y005580D02*
X004780Y005580D01*
X004380Y005580D01*
X003960Y005580D01*
X003937Y005578D01*
X003914Y005573D01*
X003892Y005564D01*
X003872Y005551D01*
X003854Y005536D01*
X003839Y005518D01*
X003826Y005498D01*
X003817Y005476D01*
X003812Y005453D01*
X003810Y005430D01*
X003810Y003730D01*
X003812Y003707D01*
X003817Y003684D01*
X003826Y003662D01*
X003839Y003642D01*
X003854Y003624D01*
X003872Y003609D01*
X003892Y003596D01*
X003914Y003587D01*
X003937Y003582D01*
X003960Y003580D01*
X005200Y003580D01*
X005223Y003582D01*
X005246Y003587D01*
X005268Y003596D01*
X005288Y003609D01*
X005306Y003624D01*
X005321Y003642D01*
X005334Y003662D01*
X005343Y003684D01*
X005348Y003707D01*
X005350Y003730D01*
X005350Y005430D01*
X005348Y005453D01*
X005343Y005476D01*
X005334Y005498D01*
X005321Y005518D01*
X005306Y005536D01*
X005288Y005551D01*
X005268Y005564D01*
X005246Y005573D01*
X005223Y005578D01*
X005200Y005580D01*
X004780Y005580D02*
X004778Y005553D01*
X004773Y005526D01*
X004763Y005500D01*
X004751Y005476D01*
X004735Y005454D01*
X004717Y005434D01*
X004695Y005417D01*
X004672Y005402D01*
X004647Y005392D01*
X004621Y005384D01*
X004594Y005380D01*
X004566Y005380D01*
X004539Y005384D01*
X004513Y005392D01*
X004488Y005402D01*
X004465Y005417D01*
X004443Y005434D01*
X004425Y005454D01*
X004409Y005476D01*
X004397Y005500D01*
X004387Y005526D01*
X004382Y005553D01*
X004380Y005580D01*
X003501Y006860D02*
X003331Y006973D01*
X003501Y007087D01*
X003331Y007200D02*
X003331Y006860D01*
X003189Y006860D02*
X002962Y006860D01*
X003189Y007087D01*
X003189Y007144D01*
X003133Y007200D01*
X003019Y007200D01*
X002962Y007144D01*
X002637Y007144D02*
X002637Y007087D01*
X002410Y006860D01*
X002637Y006860D01*
X002778Y006860D02*
X002835Y006860D01*
X002835Y006917D01*
X002778Y006917D01*
X002778Y006860D01*
X002637Y007144D02*
X002580Y007200D01*
X002467Y007200D01*
X002410Y007144D01*
X002410Y008260D02*
X002637Y008487D01*
X002637Y008544D01*
X002580Y008600D01*
X002467Y008600D01*
X002410Y008544D01*
X002410Y008260D02*
X002637Y008260D01*
X002778Y008260D02*
X002778Y008317D01*
X002835Y008317D01*
X002835Y008260D01*
X002778Y008260D01*
X002962Y008260D02*
X003189Y008487D01*
X003189Y008544D01*
X003133Y008600D01*
X003019Y008600D01*
X002962Y008544D01*
X003331Y008600D02*
X003331Y008260D01*
X003331Y008373D02*
X003501Y008487D01*
X003331Y008373D02*
X003501Y008260D01*
X003189Y008260D02*
X002962Y008260D01*
X010010Y007051D02*
X010437Y007051D01*
X010224Y007051D02*
X010224Y006410D01*
X010655Y006517D02*
X010761Y006624D01*
X011082Y006624D01*
X011082Y006730D02*
X011082Y006410D01*
X010761Y006410D01*
X010655Y006517D01*
X010761Y006837D02*
X010975Y006837D01*
X011082Y006730D01*
X011299Y006837D02*
X011619Y006837D01*
X011726Y006730D01*
X011726Y006410D01*
X011944Y006410D02*
X011944Y007051D01*
X012264Y006837D02*
X011944Y006624D01*
X012264Y006410D01*
X011299Y006410D02*
X011299Y006837D01*
X013125Y007051D02*
X013552Y007051D01*
X013339Y007051D02*
X013339Y006410D01*
X013770Y006517D02*
X013770Y006730D01*
X013877Y006837D01*
X014090Y006837D01*
X014197Y006730D01*
X014197Y006624D01*
X013770Y006624D01*
X013770Y006517D02*
X013877Y006410D01*
X014090Y006410D01*
X014414Y006410D02*
X014414Y006837D01*
X014521Y006837D01*
X014628Y006730D01*
X014735Y006837D01*
X014841Y006730D01*
X014841Y006410D01*
X014628Y006410D02*
X014628Y006730D01*
X015059Y006837D02*
X015379Y006837D01*
X015486Y006730D01*
X015486Y006517D01*
X015379Y006410D01*
X015059Y006410D01*
X015059Y006196D02*
X015059Y006837D01*
X013024Y008917D02*
X013024Y009344D01*
X013237Y009130D02*
X012810Y009130D01*
X014010Y009130D02*
X014437Y009130D01*
X012829Y002051D02*
X012722Y001944D01*
X012722Y001410D01*
X013045Y001517D02*
X013152Y001624D01*
X013472Y001624D01*
X013472Y001730D02*
X013472Y001410D01*
X013152Y001410D01*
X013045Y001517D01*
X012829Y001730D02*
X012615Y001730D01*
X012399Y001837D02*
X012292Y001837D01*
X012078Y001624D01*
X012078Y001837D02*
X012078Y001410D01*
X011861Y001624D02*
X011434Y001624D01*
X011434Y001730D02*
X011434Y001517D01*
X011540Y001410D01*
X011754Y001410D01*
X011861Y001624D02*
X011861Y001730D01*
X011754Y001837D01*
X011540Y001837D01*
X011434Y001730D01*
X011218Y001837D02*
X011004Y001837D01*
X011111Y001944D02*
X011111Y001517D01*
X011218Y001410D01*
X010786Y001410D02*
X010786Y001730D01*
X010680Y001837D01*
X010359Y001837D01*
X010359Y001410D01*
X010143Y001410D02*
X009930Y001410D01*
X010037Y001410D02*
X010037Y002051D01*
X010143Y002051D02*
X009930Y002051D01*
X009068Y001944D02*
X008961Y002051D01*
X008747Y002051D01*
X008641Y001944D01*
X008641Y001517D01*
X008747Y001410D01*
X008961Y001410D01*
X009068Y001517D01*
X008423Y001410D02*
X007996Y001410D01*
X008423Y001837D01*
X008423Y001944D01*
X008316Y002051D01*
X008103Y002051D01*
X007996Y001944D01*
X007780Y002051D02*
X007566Y002051D01*
X007673Y002051D02*
X007673Y001410D01*
X007566Y001410D02*
X007780Y001410D01*
X006704Y001517D02*
X006598Y001410D01*
X006384Y001410D01*
X006277Y001517D01*
X006704Y001944D01*
X006704Y001517D01*
X006277Y001517D02*
X006277Y001944D01*
X006384Y002051D01*
X006598Y002051D01*
X006704Y001944D01*
X006060Y001944D02*
X005953Y002051D01*
X005740Y002051D01*
X005633Y001944D01*
X005415Y001730D02*
X005308Y001837D01*
X004988Y001837D01*
X004988Y002051D02*
X004988Y001410D01*
X005308Y001410D01*
X005415Y001517D01*
X005415Y001730D01*
X005633Y001410D02*
X006060Y001837D01*
X006060Y001944D01*
X006060Y001410D02*
X005633Y001410D01*
X004771Y001517D02*
X004664Y001410D01*
X004450Y001410D01*
X004344Y001517D01*
X004344Y001624D01*
X004450Y001730D01*
X004664Y001730D01*
X004771Y001624D01*
X004771Y001517D01*
X004664Y001730D02*
X004771Y001837D01*
X004771Y001944D01*
X004664Y002051D01*
X004450Y002051D01*
X004344Y001944D01*
X004344Y001837D01*
X004450Y001730D01*
X004126Y001410D02*
X003699Y001410D01*
X003913Y001410D02*
X003913Y002051D01*
X003699Y001837D01*
X003482Y001944D02*
X003375Y002051D01*
X003161Y002051D01*
X003055Y001944D01*
X003055Y001837D01*
X003161Y001730D01*
X003375Y001730D01*
X003482Y001624D01*
X003482Y001517D01*
X003375Y001410D01*
X003161Y001410D01*
X003055Y001517D01*
X002837Y001517D02*
X002837Y001944D01*
X002730Y002051D01*
X002410Y002051D01*
X002410Y001410D01*
X002730Y001410D01*
X002837Y001517D01*
X013152Y001837D02*
X013365Y001837D01*
X013472Y001730D01*
X013690Y001730D02*
X013690Y001517D01*
X013796Y001410D01*
X014117Y001410D01*
X014334Y001517D02*
X014334Y001730D01*
X014441Y001837D01*
X014654Y001837D01*
X014761Y001730D01*
X014761Y001624D01*
X014334Y001624D01*
X014334Y001517D02*
X014441Y001410D01*
X014654Y001410D01*
X014117Y001837D02*
X013796Y001837D01*
X013690Y001730D01*
D13*
X010880Y002330D02*
X010630Y002080D01*
X010130Y002080D01*
X009880Y002330D01*
X009880Y002830D01*
X010130Y003080D01*
X009880Y003330D01*
X009880Y003830D01*
X010130Y004080D01*
X009880Y004330D01*
X009880Y004830D01*
X010130Y005080D01*
X009880Y005330D01*
X009880Y005830D01*
X010130Y006080D01*
X010630Y006080D01*
X010880Y005830D01*
X010880Y005330D01*
X010630Y005080D01*
X010880Y004830D01*
X010880Y004330D01*
X010630Y004080D01*
X010880Y003830D01*
X010880Y003330D01*
X010630Y003080D01*
X010880Y002830D01*
X010880Y002330D01*
X004180Y006680D02*
X002180Y006680D01*
X002180Y006980D01*
X002080Y006980D01*
X002180Y006980D02*
X002180Y007280D01*
X004180Y007280D01*
X004180Y006980D01*
X004280Y006980D01*
X004180Y006980D02*
X004180Y006680D01*
X004180Y008080D02*
X002180Y008080D01*
X002180Y008380D01*
X002080Y008380D01*
X002180Y008380D02*
X002180Y008680D01*
X004180Y008680D01*
X004180Y008380D01*
X004280Y008380D01*
X004180Y008380D02*
X004180Y008080D01*
X011480Y008230D02*
X011480Y007730D01*
X011730Y007480D01*
X012230Y007480D01*
X012480Y007730D01*
X012730Y007480D01*
X013230Y007480D01*
X013480Y007730D01*
X013730Y007480D01*
X014230Y007480D01*
X014480Y007730D01*
X014480Y008230D01*
X014230Y008480D01*
X013730Y008480D01*
X013480Y008230D01*
X013230Y008480D01*
X012730Y008480D01*
X012480Y008230D01*
X012230Y008480D01*
X011730Y008480D01*
X011480Y008230D01*
X002280Y003480D02*
X001280Y003480D01*
X001280Y001480D01*
X002280Y001480D01*
X002280Y003480D01*
X002030Y002480D02*
X001530Y002480D01*
D14*
X001793Y003895D02*
X001890Y003895D01*
X001938Y003943D01*
X002040Y003895D02*
X002233Y003895D01*
X002136Y003895D02*
X002136Y004185D01*
X002040Y004088D01*
X001938Y004137D02*
X001890Y004185D01*
X001793Y004185D01*
X001745Y004137D01*
X001745Y003943D01*
X001793Y003895D01*
X002995Y006295D02*
X002995Y006585D01*
X003140Y006585D01*
X003188Y006537D01*
X003188Y006440D01*
X003140Y006392D01*
X002995Y006392D01*
X003092Y006392D02*
X003188Y006295D01*
X003290Y006295D02*
X003483Y006295D01*
X003386Y006295D02*
X003386Y006585D01*
X003290Y006488D01*
X003290Y007695D02*
X003483Y007888D01*
X003483Y007937D01*
X003435Y007985D01*
X003338Y007985D01*
X003290Y007937D01*
X003188Y007937D02*
X003188Y007840D01*
X003140Y007792D01*
X002995Y007792D01*
X003092Y007792D02*
X003188Y007695D01*
X003290Y007695D02*
X003483Y007695D01*
X003188Y007937D02*
X003140Y007985D01*
X002995Y007985D01*
X002995Y007695D01*
X009095Y008095D02*
X009095Y008288D01*
X009192Y008385D01*
X009288Y008288D01*
X009288Y008095D01*
X009390Y008143D02*
X009438Y008095D01*
X009535Y008095D01*
X009583Y008143D01*
X009583Y008337D01*
X009390Y008143D01*
X009390Y008337D01*
X009438Y008385D01*
X009535Y008385D01*
X009583Y008337D01*
X009288Y008240D02*
X009095Y008240D01*
D15*
X003950Y005580D02*
X003950Y003580D01*
D16*
X003751Y003305D02*
X003601Y003305D01*
X003526Y003230D01*
X003366Y003230D02*
X003291Y003305D01*
X003140Y003305D01*
X003065Y003230D01*
X003065Y003155D01*
X003140Y003080D01*
X003291Y003080D01*
X003366Y003005D01*
X003366Y002930D01*
X003291Y002855D01*
X003140Y002855D01*
X003065Y002930D01*
X002905Y002930D02*
X002905Y003230D01*
X002830Y003305D01*
X002605Y003305D01*
X002605Y002855D01*
X002830Y002855D01*
X002905Y002930D01*
X003526Y002855D02*
X003826Y003155D01*
X003826Y003230D01*
X003751Y003305D01*
X003986Y003080D02*
X004286Y003080D01*
X004447Y003005D02*
X004447Y002930D01*
X004522Y002855D01*
X004672Y002855D01*
X004747Y002930D01*
X004747Y003005D01*
X004672Y003080D01*
X004522Y003080D01*
X004447Y003155D01*
X004447Y003230D01*
X004522Y003305D01*
X004672Y003305D01*
X004747Y003230D01*
X004747Y003155D01*
X004672Y003080D01*
X004522Y003080D02*
X004447Y003005D01*
X004211Y002855D02*
X004211Y003305D01*
X003986Y003080D01*
X003826Y002855D02*
X003526Y002855D01*
X004907Y002855D02*
X005207Y003155D01*
X005207Y003230D01*
X005132Y003305D01*
X004982Y003305D01*
X004907Y003230D01*
X004907Y002855D02*
X005207Y002855D01*
X005367Y003080D02*
X005668Y003080D01*
X005828Y003155D02*
X005978Y003305D01*
X005978Y002855D01*
X005828Y002855D02*
X006128Y002855D01*
X006288Y002930D02*
X006588Y003230D01*
X006588Y002930D01*
X006513Y002855D01*
X006363Y002855D01*
X006288Y002930D01*
X006288Y003230D01*
X006363Y003305D01*
X006513Y003305D01*
X006588Y003230D01*
X006749Y003230D02*
X006824Y003305D01*
X006974Y003305D01*
X007049Y003230D01*
X006749Y002930D01*
X006824Y002855D01*
X006974Y002855D01*
X007049Y002930D01*
X007049Y003230D01*
X007209Y003230D02*
X007209Y003155D01*
X007284Y003080D01*
X007434Y003080D01*
X007509Y003005D01*
X007509Y002930D01*
X007434Y002855D01*
X007284Y002855D01*
X007209Y002930D01*
X007209Y003230D02*
X007284Y003305D01*
X007434Y003305D01*
X007509Y003230D01*
X006749Y003230D02*
X006749Y002930D01*
X005323Y005755D02*
X005022Y005755D01*
X005323Y006055D01*
X005323Y006130D01*
X005248Y006205D01*
X005097Y006205D01*
X005022Y006130D01*
X004862Y006130D02*
X004787Y006205D01*
X004637Y006205D01*
X004562Y006130D01*
X004562Y005830D01*
X004637Y005755D01*
X004787Y005755D01*
X004862Y005830D01*
X004405Y005755D02*
X004255Y005755D01*
X004330Y005755D02*
X004330Y006205D01*
X004255Y006205D02*
X004405Y006205D01*
M02*
