G75*
%MOIN*%
%OFA0B0*%
%FSLAX24Y24*%
%IPPOS*%
%LPD*%
%AMOC8*
5,1,8,0,0,1.08239X$1,22.5*
%
%ADD10C,0.0650*%
%ADD11R,0.0740X0.0740*%
%ADD12C,0.0740*%
%ADD13R,0.0250X0.0500*%
%ADD14R,0.0800X0.0260*%
%ADD15C,0.0160*%
%ADD16C,0.0060*%
%ADD17OC8,0.0376*%
%ADD18C,0.0270*%
D10*
X001780Y001980D03*
X001780Y002980D03*
D11*
X010380Y005580D03*
D12*
X010380Y004580D03*
X010380Y003580D03*
X010380Y002580D03*
X004680Y006980D03*
X004680Y008380D03*
X001680Y008380D03*
X001680Y006980D03*
X011980Y007980D03*
X012980Y007980D03*
X013980Y007980D03*
D13*
X008530Y008180D03*
X008180Y008180D03*
X007830Y008180D03*
X007830Y006980D03*
X008180Y006980D03*
X008530Y006980D03*
D14*
X005790Y005330D03*
X005790Y004830D03*
X005790Y004330D03*
X005790Y003830D03*
X003370Y003830D03*
X003370Y004330D03*
X003370Y004830D03*
X003370Y005330D03*
D15*
X001010Y009246D02*
X001010Y001210D01*
X015620Y001210D01*
X015620Y009246D01*
X001010Y009246D01*
X001010Y009222D02*
X015620Y009222D01*
X015620Y009064D02*
X001010Y009064D01*
X001010Y008905D02*
X005105Y008905D01*
X005210Y009010D02*
X004990Y008791D01*
X004969Y008812D01*
X004781Y008890D01*
X004579Y008890D01*
X004391Y008812D01*
X004248Y008669D01*
X004170Y008481D01*
X004170Y008279D01*
X004248Y008091D01*
X004269Y008070D01*
X004190Y007990D01*
X004090Y007890D01*
X004090Y007450D01*
X004259Y007280D01*
X004248Y007269D01*
X004170Y007081D01*
X004170Y006879D01*
X004248Y006691D01*
X004391Y006548D01*
X004579Y006470D01*
X004781Y006470D01*
X004969Y006548D01*
X005112Y006691D01*
X005190Y006879D01*
X005190Y007081D01*
X005112Y007269D01*
X004969Y007412D01*
X004781Y007490D01*
X004579Y007490D01*
X004545Y007476D01*
X004430Y007590D01*
X004430Y007750D01*
X004559Y007878D01*
X004579Y007870D01*
X004781Y007870D01*
X004969Y007948D01*
X005112Y008091D01*
X005190Y008279D01*
X005190Y008481D01*
X005182Y008501D01*
X005350Y008670D01*
X007970Y008670D01*
X008070Y008570D01*
X008070Y008570D01*
X008066Y008574D01*
X008024Y008598D01*
X007979Y008610D01*
X007830Y008610D01*
X007830Y008180D01*
X007830Y008180D01*
X007830Y007750D01*
X007979Y007750D01*
X008024Y007762D01*
X008066Y007786D01*
X008070Y007790D01*
X008030Y007750D01*
X006950Y007750D01*
X004970Y005770D01*
X004870Y005670D01*
X004870Y005290D01*
X002091Y008070D01*
X002112Y008091D01*
X002190Y008279D01*
X002190Y008481D01*
X002112Y008669D01*
X001969Y008812D01*
X001781Y008890D01*
X001579Y008890D01*
X001391Y008812D01*
X001248Y008669D01*
X001170Y008481D01*
X001170Y008279D01*
X001248Y008091D01*
X001391Y007948D01*
X001579Y007870D01*
X001781Y007870D01*
X001801Y007878D01*
X004597Y005083D01*
X004524Y005053D01*
X004461Y004990D01*
X003910Y004990D01*
X003910Y005018D01*
X003848Y005080D01*
X003910Y005142D01*
X003910Y005518D01*
X003828Y005600D01*
X002912Y005600D01*
X002830Y005518D01*
X002830Y005142D01*
X002892Y005080D01*
X002830Y005018D01*
X002830Y004642D01*
X002865Y004607D01*
X002859Y004604D01*
X002826Y004571D01*
X002802Y004529D01*
X002790Y004484D01*
X002790Y004330D01*
X003370Y004330D01*
X003950Y004330D01*
X003950Y004484D01*
X003938Y004529D01*
X003914Y004571D01*
X003881Y004604D01*
X003875Y004607D01*
X003910Y004642D01*
X003910Y004650D01*
X004461Y004650D01*
X004524Y004587D01*
X004625Y004545D01*
X004735Y004545D01*
X004750Y004551D01*
X004750Y004290D01*
X004750Y004150D01*
X003943Y004150D01*
X003938Y004131D02*
X003950Y004176D01*
X003950Y004330D01*
X003370Y004330D01*
X003370Y004330D01*
X003370Y004330D01*
X002790Y004330D01*
X002790Y004176D01*
X002802Y004131D01*
X002826Y004089D01*
X002859Y004056D01*
X002865Y004053D01*
X002842Y004030D01*
X002770Y004030D01*
X002270Y004530D01*
X002270Y006510D01*
X002101Y006680D01*
X002112Y006691D01*
X002190Y006879D01*
X002190Y007081D01*
X002112Y007269D01*
X001969Y007412D01*
X001781Y007490D01*
X001579Y007490D01*
X001391Y007412D01*
X001248Y007269D01*
X001170Y007081D01*
X001170Y006879D01*
X001248Y006691D01*
X001391Y006548D01*
X001579Y006470D01*
X001781Y006470D01*
X001815Y006484D01*
X001930Y006370D01*
X001930Y004390D01*
X002030Y004290D01*
X002630Y003690D01*
X002830Y003690D01*
X002830Y003642D01*
X002912Y003560D01*
X003828Y003560D01*
X003834Y003566D01*
X004190Y003210D01*
X009350Y003210D01*
X009872Y002687D01*
X009870Y002681D01*
X009870Y002479D01*
X009948Y002291D01*
X010091Y002148D01*
X010279Y002070D01*
X010481Y002070D01*
X010669Y002148D01*
X010812Y002291D01*
X010890Y002479D01*
X010890Y002681D01*
X010812Y002869D01*
X010669Y003012D01*
X010506Y003080D01*
X010669Y003148D01*
X010812Y003291D01*
X010890Y003479D01*
X010890Y003681D01*
X010812Y003869D01*
X010669Y004012D01*
X010506Y004080D01*
X010669Y004148D01*
X010812Y004291D01*
X010890Y004479D01*
X010890Y004681D01*
X010812Y004869D01*
X010669Y005012D01*
X010626Y005030D01*
X010774Y005030D01*
X010819Y005042D01*
X010861Y005066D01*
X010894Y005099D01*
X010918Y005141D01*
X010930Y005186D01*
X010930Y005560D01*
X010400Y005560D01*
X010400Y005600D01*
X010360Y005600D01*
X010360Y006130D01*
X009986Y006130D01*
X009941Y006118D01*
X009899Y006094D01*
X009866Y006061D01*
X009842Y006019D01*
X009830Y005974D01*
X009830Y005600D01*
X010360Y005600D01*
X010360Y005560D01*
X009830Y005560D01*
X009830Y005186D01*
X009842Y005141D01*
X009866Y005099D01*
X009899Y005066D01*
X009941Y005042D01*
X009986Y005030D01*
X010134Y005030D01*
X010091Y005012D01*
X009948Y004869D01*
X009937Y004843D01*
X008690Y006090D01*
X008690Y006590D01*
X008713Y006590D01*
X008795Y006672D01*
X008795Y007288D01*
X008713Y007370D01*
X008690Y007370D01*
X008690Y007790D01*
X008713Y007790D01*
X008795Y007872D01*
X008795Y008488D01*
X008713Y008570D01*
X008550Y008570D01*
X008210Y008910D01*
X008110Y009010D01*
X005210Y009010D01*
X004325Y008747D02*
X002035Y008747D01*
X002146Y008588D02*
X004214Y008588D01*
X004170Y008430D02*
X002190Y008430D01*
X002187Y008271D02*
X004173Y008271D01*
X004239Y008113D02*
X002121Y008113D01*
X002206Y007954D02*
X004154Y007954D01*
X004090Y007796D02*
X002365Y007796D01*
X002523Y007637D02*
X004090Y007637D01*
X004090Y007479D02*
X002682Y007479D01*
X002840Y007320D02*
X004220Y007320D01*
X004203Y007162D02*
X002999Y007162D01*
X003157Y007003D02*
X004170Y007003D01*
X004184Y006845D02*
X003316Y006845D01*
X003474Y006686D02*
X004253Y006686D01*
X004440Y006528D02*
X003633Y006528D01*
X003791Y006369D02*
X005569Y006369D01*
X005727Y006528D02*
X004920Y006528D01*
X005107Y006686D02*
X005886Y006686D01*
X006044Y006845D02*
X005176Y006845D01*
X005190Y007003D02*
X006203Y007003D01*
X006361Y007162D02*
X005157Y007162D01*
X005061Y007320D02*
X006520Y007320D01*
X006678Y007479D02*
X004809Y007479D01*
X004551Y007479D02*
X004542Y007479D01*
X004430Y007637D02*
X006837Y007637D01*
X007090Y007410D02*
X008170Y007410D01*
X008270Y007510D01*
X008350Y007590D01*
X008350Y007370D01*
X008070Y007370D01*
X008066Y007374D01*
X008024Y007398D01*
X007979Y007410D01*
X007830Y007410D01*
X007830Y006980D01*
X007830Y006980D01*
X007830Y006550D01*
X007979Y006550D01*
X008024Y006562D01*
X008066Y006586D01*
X008070Y006590D01*
X007010Y005530D01*
X006318Y005530D01*
X006248Y005600D01*
X005332Y005600D01*
X005250Y005518D01*
X005250Y005142D01*
X005312Y005080D01*
X005250Y005018D01*
X005250Y004990D01*
X005230Y004990D01*
X005210Y005010D01*
X005210Y005530D01*
X007090Y007410D01*
X007000Y007320D02*
X007549Y007320D01*
X007537Y007299D02*
X007525Y007254D01*
X007525Y006980D01*
X007830Y006980D01*
X007830Y006980D01*
X007830Y006980D01*
X007830Y007410D01*
X007681Y007410D01*
X007636Y007398D01*
X007594Y007374D01*
X007561Y007341D01*
X007537Y007299D01*
X007525Y007162D02*
X006842Y007162D01*
X006683Y007003D02*
X007525Y007003D01*
X007525Y006980D02*
X007525Y006706D01*
X007537Y006661D01*
X007561Y006619D01*
X007594Y006586D01*
X007636Y006562D01*
X007681Y006550D01*
X007830Y006550D01*
X007830Y006980D01*
X007525Y006980D01*
X007525Y006845D02*
X006525Y006845D01*
X006366Y006686D02*
X007530Y006686D01*
X007830Y006686D02*
X007830Y006686D01*
X007830Y006845D02*
X007830Y006845D01*
X007830Y007003D02*
X007830Y007003D01*
X007830Y007162D02*
X007830Y007162D01*
X007830Y007320D02*
X007830Y007320D01*
X008239Y007479D02*
X008350Y007479D01*
X008690Y007479D02*
X011858Y007479D01*
X011879Y007470D02*
X012081Y007470D01*
X012269Y007548D01*
X012412Y007691D01*
X012480Y007854D01*
X012548Y007691D01*
X012691Y007548D01*
X012879Y007470D01*
X013081Y007470D01*
X013269Y007548D01*
X013412Y007691D01*
X013459Y007804D01*
X013470Y007769D01*
X013510Y007692D01*
X013560Y007622D01*
X013622Y007560D01*
X013692Y007510D01*
X013769Y007470D01*
X013851Y007444D01*
X013937Y007430D01*
X013960Y007430D01*
X013960Y007960D01*
X014000Y007960D01*
X014000Y008000D01*
X013960Y008000D01*
X013960Y008530D01*
X013937Y008530D01*
X013851Y008516D01*
X013769Y008490D01*
X013692Y008450D01*
X013622Y008400D01*
X013560Y008338D01*
X013510Y008268D01*
X013470Y008191D01*
X013459Y008156D01*
X013412Y008269D01*
X013269Y008412D01*
X013081Y008490D01*
X012879Y008490D01*
X012691Y008412D01*
X012548Y008269D01*
X012480Y008106D01*
X012412Y008269D01*
X012269Y008412D01*
X012081Y008490D01*
X011879Y008490D01*
X011691Y008412D01*
X011548Y008269D01*
X011470Y008081D01*
X011470Y007879D01*
X011548Y007691D01*
X011691Y007548D01*
X011879Y007470D01*
X012102Y007479D02*
X012858Y007479D01*
X013102Y007479D02*
X013753Y007479D01*
X013960Y007479D02*
X014000Y007479D01*
X014000Y007430D02*
X014023Y007430D01*
X014109Y007444D01*
X014191Y007470D01*
X014268Y007510D01*
X014338Y007560D01*
X014400Y007622D01*
X014450Y007692D01*
X014490Y007769D01*
X014516Y007851D01*
X014530Y007937D01*
X014530Y007960D01*
X014000Y007960D01*
X014000Y007430D01*
X014207Y007479D02*
X015620Y007479D01*
X015620Y007637D02*
X014411Y007637D01*
X014498Y007796D02*
X015620Y007796D01*
X015620Y007954D02*
X014530Y007954D01*
X014530Y008000D02*
X014530Y008023D01*
X014516Y008109D01*
X014490Y008191D01*
X014450Y008268D01*
X014400Y008338D01*
X014338Y008400D01*
X014268Y008450D01*
X014191Y008490D01*
X014109Y008516D01*
X014023Y008530D01*
X014000Y008530D01*
X014000Y008000D01*
X014530Y008000D01*
X014515Y008113D02*
X015620Y008113D01*
X015620Y008271D02*
X014448Y008271D01*
X014297Y008430D02*
X015620Y008430D01*
X015620Y008588D02*
X008532Y008588D01*
X008374Y008747D02*
X015620Y008747D01*
X015620Y008905D02*
X008215Y008905D01*
X008052Y008588D02*
X008041Y008588D01*
X007830Y008588D02*
X007830Y008588D01*
X007830Y008610D02*
X007681Y008610D01*
X007636Y008598D01*
X007594Y008574D01*
X007561Y008541D01*
X007537Y008499D01*
X007525Y008454D01*
X007525Y008180D01*
X007830Y008180D01*
X007830Y008180D01*
X007830Y008180D01*
X007830Y008610D01*
X007830Y008430D02*
X007830Y008430D01*
X007830Y008271D02*
X007830Y008271D01*
X007830Y008180D02*
X007525Y008180D01*
X007525Y007906D01*
X007537Y007861D01*
X007561Y007819D01*
X007594Y007786D01*
X007636Y007762D01*
X007681Y007750D01*
X007830Y007750D01*
X007830Y008180D01*
X007830Y008113D02*
X007830Y008113D01*
X007830Y007954D02*
X007830Y007954D01*
X007830Y007796D02*
X007830Y007796D01*
X008070Y007790D02*
X008070Y007790D01*
X007585Y007796D02*
X004476Y007796D01*
X004975Y007954D02*
X007525Y007954D01*
X007525Y008113D02*
X005121Y008113D01*
X005187Y008271D02*
X007525Y008271D01*
X007525Y008430D02*
X005190Y008430D01*
X005268Y008588D02*
X007619Y008588D01*
X008795Y008430D02*
X011733Y008430D01*
X011550Y008271D02*
X008795Y008271D01*
X008795Y008113D02*
X011483Y008113D01*
X011470Y007954D02*
X008795Y007954D01*
X008719Y007796D02*
X011504Y007796D01*
X011602Y007637D02*
X008690Y007637D01*
X008763Y007320D02*
X015620Y007320D01*
X015620Y007162D02*
X008795Y007162D01*
X008795Y007003D02*
X015620Y007003D01*
X015620Y006845D02*
X008795Y006845D01*
X008795Y006686D02*
X015620Y006686D01*
X015620Y006528D02*
X008690Y006528D01*
X008690Y006369D02*
X015620Y006369D01*
X015620Y006211D02*
X008690Y006211D01*
X008728Y006052D02*
X009861Y006052D01*
X009830Y005894D02*
X008887Y005894D01*
X009045Y005735D02*
X009830Y005735D01*
X009830Y005418D02*
X009362Y005418D01*
X009204Y005577D02*
X010360Y005577D01*
X010400Y005577D02*
X015620Y005577D01*
X015620Y005735D02*
X010930Y005735D01*
X010930Y005600D02*
X010930Y005974D01*
X010918Y006019D01*
X010894Y006061D01*
X010861Y006094D01*
X010819Y006118D01*
X010774Y006130D01*
X010400Y006130D01*
X010400Y005600D01*
X010930Y005600D01*
X010930Y005418D02*
X015620Y005418D01*
X015620Y005260D02*
X010930Y005260D01*
X010895Y005101D02*
X015620Y005101D01*
X015620Y004943D02*
X010739Y004943D01*
X010848Y004784D02*
X015620Y004784D01*
X015620Y004626D02*
X010890Y004626D01*
X010885Y004467D02*
X015620Y004467D01*
X015620Y004309D02*
X010820Y004309D01*
X010671Y004150D02*
X015620Y004150D01*
X015620Y003992D02*
X010690Y003992D01*
X010827Y003833D02*
X015620Y003833D01*
X015620Y003675D02*
X010890Y003675D01*
X010890Y003516D02*
X015620Y003516D01*
X015620Y003358D02*
X010840Y003358D01*
X010720Y003199D02*
X015620Y003199D01*
X015620Y003041D02*
X010601Y003041D01*
X010799Y002882D02*
X015620Y002882D01*
X015620Y002724D02*
X010873Y002724D01*
X010890Y002565D02*
X015620Y002565D01*
X015620Y002407D02*
X010860Y002407D01*
X010769Y002248D02*
X015620Y002248D01*
X015620Y002090D02*
X010529Y002090D01*
X010231Y002090D02*
X002274Y002090D01*
X002273Y002098D02*
X002248Y002174D01*
X002212Y002245D01*
X002165Y002309D01*
X002109Y002365D01*
X002045Y002412D01*
X001974Y002448D01*
X001898Y002473D01*
X001820Y002485D01*
X001780Y002485D01*
X001780Y001980D01*
X001780Y001980D01*
X002285Y001980D01*
X002285Y002020D01*
X002273Y002098D01*
X002285Y001980D02*
X001780Y001980D01*
X001780Y001980D01*
X001780Y001980D01*
X001275Y001980D01*
X001275Y002020D01*
X001287Y002098D01*
X001312Y002174D01*
X001348Y002245D01*
X001395Y002309D01*
X001451Y002365D01*
X001515Y002412D01*
X001586Y002448D01*
X001662Y002473D01*
X001740Y002485D01*
X001780Y002485D01*
X001780Y001980D01*
X001780Y001475D01*
X001820Y001475D01*
X001898Y001487D01*
X001974Y001512D01*
X002045Y001548D01*
X002109Y001595D01*
X002165Y001651D01*
X002212Y001715D01*
X002248Y001786D01*
X002273Y001862D01*
X002285Y001940D01*
X002285Y001980D01*
X002284Y001931D02*
X015620Y001931D01*
X015620Y001773D02*
X002241Y001773D01*
X002128Y001614D02*
X015620Y001614D01*
X015620Y001456D02*
X001010Y001456D01*
X001010Y001614D02*
X001432Y001614D01*
X001451Y001595D02*
X001515Y001548D01*
X001586Y001512D01*
X001662Y001487D01*
X001740Y001475D01*
X001780Y001475D01*
X001780Y001980D01*
X001780Y001980D01*
X001275Y001980D01*
X001275Y001940D01*
X001287Y001862D01*
X001312Y001786D01*
X001348Y001715D01*
X001395Y001651D01*
X001451Y001595D01*
X001319Y001773D02*
X001010Y001773D01*
X001010Y001931D02*
X001276Y001931D01*
X001286Y002090D02*
X001010Y002090D01*
X001010Y002248D02*
X001351Y002248D01*
X001508Y002407D02*
X001010Y002407D01*
X001010Y002565D02*
X001567Y002565D01*
X001517Y002586D02*
X001688Y002515D01*
X001872Y002515D01*
X002043Y002586D01*
X002174Y002717D01*
X002245Y002888D01*
X002245Y003072D01*
X002174Y003243D01*
X002043Y003374D01*
X001872Y003445D01*
X001688Y003445D01*
X001517Y003374D01*
X001386Y003243D01*
X001315Y003072D01*
X001315Y002888D01*
X001386Y002717D01*
X001517Y002586D01*
X001383Y002724D02*
X001010Y002724D01*
X001010Y002882D02*
X001317Y002882D01*
X001315Y003041D02*
X001010Y003041D01*
X001010Y003199D02*
X001367Y003199D01*
X001500Y003358D02*
X001010Y003358D01*
X001010Y003516D02*
X003884Y003516D01*
X004042Y003358D02*
X002060Y003358D01*
X002193Y003199D02*
X009361Y003199D01*
X009519Y003041D02*
X002245Y003041D01*
X002243Y002882D02*
X009678Y002882D01*
X009836Y002724D02*
X002177Y002724D01*
X001993Y002565D02*
X009870Y002565D01*
X009900Y002407D02*
X002052Y002407D01*
X002209Y002248D02*
X009991Y002248D01*
X010060Y002981D02*
X009590Y003450D01*
X009490Y003550D01*
X004330Y003550D01*
X003950Y003930D01*
X003910Y003970D01*
X003910Y004018D01*
X003875Y004053D01*
X003881Y004056D01*
X003914Y004089D01*
X003938Y004131D01*
X003910Y003992D02*
X004908Y003992D01*
X004750Y004150D02*
X005110Y003790D01*
X005210Y003690D01*
X005250Y003690D01*
X005250Y003642D01*
X005332Y003560D01*
X006248Y003560D01*
X006330Y003642D01*
X006330Y003690D01*
X009874Y003690D01*
X009870Y003681D01*
X009870Y003479D01*
X009948Y003291D01*
X010091Y003148D01*
X010254Y003080D01*
X010091Y003012D01*
X010060Y002981D01*
X010000Y003041D02*
X010159Y003041D01*
X010040Y003199D02*
X009841Y003199D01*
X009920Y003358D02*
X009683Y003358D01*
X009524Y003516D02*
X009870Y003516D01*
X009870Y003675D02*
X006330Y003675D01*
X005250Y003675D02*
X004206Y003675D01*
X004047Y003833D02*
X005067Y003833D01*
X004750Y004309D02*
X003950Y004309D01*
X003950Y004467D02*
X004750Y004467D01*
X004486Y004626D02*
X003893Y004626D01*
X003869Y005101D02*
X004579Y005101D01*
X004420Y005260D02*
X003910Y005260D01*
X003910Y005418D02*
X004262Y005418D01*
X004103Y005577D02*
X003851Y005577D01*
X003945Y005735D02*
X002270Y005735D01*
X002270Y005577D02*
X002889Y005577D01*
X002830Y005418D02*
X002270Y005418D01*
X002270Y005260D02*
X002830Y005260D01*
X002871Y005101D02*
X002270Y005101D01*
X002270Y004943D02*
X002830Y004943D01*
X002830Y004784D02*
X002270Y004784D01*
X002270Y004626D02*
X002847Y004626D01*
X002790Y004467D02*
X002333Y004467D01*
X002492Y004309D02*
X002790Y004309D01*
X002797Y004150D02*
X002650Y004150D01*
X002328Y003992D02*
X001010Y003992D01*
X001010Y004150D02*
X002170Y004150D01*
X002011Y004309D02*
X001010Y004309D01*
X001010Y004467D02*
X001930Y004467D01*
X001930Y004626D02*
X001010Y004626D01*
X001010Y004784D02*
X001930Y004784D01*
X001930Y004943D02*
X001010Y004943D01*
X001010Y005101D02*
X001930Y005101D01*
X001930Y005260D02*
X001010Y005260D01*
X001010Y005418D02*
X001930Y005418D01*
X001930Y005577D02*
X001010Y005577D01*
X001010Y005735D02*
X001930Y005735D01*
X001930Y005894D02*
X001010Y005894D01*
X001010Y006052D02*
X001930Y006052D01*
X001930Y006211D02*
X001010Y006211D01*
X001010Y006369D02*
X001930Y006369D01*
X002270Y006369D02*
X003311Y006369D01*
X003469Y006211D02*
X002270Y006211D01*
X002270Y006052D02*
X003628Y006052D01*
X003786Y005894D02*
X002270Y005894D01*
X002253Y006528D02*
X003152Y006528D01*
X002994Y006686D02*
X002107Y006686D01*
X002176Y006845D02*
X002835Y006845D01*
X002677Y007003D02*
X002190Y007003D01*
X002157Y007162D02*
X002518Y007162D01*
X002360Y007320D02*
X002061Y007320D01*
X002201Y007479D02*
X001809Y007479D01*
X001551Y007479D02*
X001010Y007479D01*
X001010Y007637D02*
X002043Y007637D01*
X001884Y007796D02*
X001010Y007796D01*
X001010Y007954D02*
X001385Y007954D01*
X001239Y008113D02*
X001010Y008113D01*
X001010Y008271D02*
X001173Y008271D01*
X001170Y008430D02*
X001010Y008430D01*
X001010Y008588D02*
X001214Y008588D01*
X001325Y008747D02*
X001010Y008747D01*
X001010Y007320D02*
X001299Y007320D01*
X001203Y007162D02*
X001010Y007162D01*
X001010Y007003D02*
X001170Y007003D01*
X001184Y006845D02*
X001010Y006845D01*
X001010Y006686D02*
X001253Y006686D01*
X001440Y006528D02*
X001010Y006528D01*
X003950Y006211D02*
X005410Y006211D01*
X005252Y006052D02*
X004108Y006052D01*
X004267Y005894D02*
X005093Y005894D01*
X004935Y005735D02*
X004425Y005735D01*
X004584Y005577D02*
X004870Y005577D01*
X004870Y005418D02*
X004742Y005418D01*
X005210Y005418D02*
X005250Y005418D01*
X005250Y005260D02*
X005210Y005260D01*
X005210Y005101D02*
X005291Y005101D01*
X005309Y005577D02*
X005257Y005577D01*
X005415Y005735D02*
X007215Y005735D01*
X007373Y005894D02*
X005574Y005894D01*
X005732Y006052D02*
X007532Y006052D01*
X007690Y006211D02*
X005891Y006211D01*
X006049Y006369D02*
X007849Y006369D01*
X008007Y006528D02*
X006208Y006528D01*
X006271Y005577D02*
X007056Y005577D01*
X008070Y006590D02*
X008070Y006590D01*
X010360Y006052D02*
X010400Y006052D01*
X010400Y005894D02*
X010360Y005894D01*
X010360Y005735D02*
X010400Y005735D01*
X010930Y005894D02*
X015620Y005894D01*
X015620Y006052D02*
X010899Y006052D01*
X009830Y005260D02*
X009521Y005260D01*
X009679Y005101D02*
X009865Y005101D01*
X009838Y004943D02*
X010021Y004943D01*
X012358Y007637D02*
X012602Y007637D01*
X012504Y007796D02*
X012456Y007796D01*
X012477Y008113D02*
X012483Y008113D01*
X012550Y008271D02*
X012410Y008271D01*
X012227Y008430D02*
X012733Y008430D01*
X013227Y008430D02*
X013663Y008430D01*
X013512Y008271D02*
X013410Y008271D01*
X013456Y007796D02*
X013462Y007796D01*
X013549Y007637D02*
X013358Y007637D01*
X013960Y007637D02*
X014000Y007637D01*
X014000Y007796D02*
X013960Y007796D01*
X013960Y007954D02*
X014000Y007954D01*
X014000Y008113D02*
X013960Y008113D01*
X013960Y008271D02*
X014000Y008271D01*
X014000Y008430D02*
X013960Y008430D01*
X002830Y003675D02*
X001010Y003675D01*
X001010Y003833D02*
X002487Y003833D01*
X001780Y002407D02*
X001780Y002407D01*
X001780Y002248D02*
X001780Y002248D01*
X001780Y002090D02*
X001780Y002090D01*
X001780Y001931D02*
X001780Y001931D01*
X001780Y001773D02*
X001780Y001773D01*
X001780Y001614D02*
X001780Y001614D01*
X001010Y001297D02*
X015620Y001297D01*
D16*
X010380Y002580D02*
X010380Y002600D01*
X010200Y002600D01*
X009420Y003380D01*
X004260Y003380D01*
X003780Y003860D01*
X003420Y003860D01*
X003370Y003830D01*
X003360Y003860D01*
X002700Y003860D01*
X002100Y004460D01*
X002100Y006440D01*
X001680Y006860D01*
X001680Y006980D01*
X001680Y008240D02*
X004920Y005000D01*
X004920Y004220D01*
X005280Y003860D01*
X005760Y003860D01*
X005790Y003830D01*
X005820Y003860D01*
X009960Y003860D01*
X010200Y003620D01*
X010380Y003620D01*
X010380Y003580D01*
X010380Y004580D02*
X010020Y004580D01*
X009960Y004640D01*
X009900Y004640D01*
X008520Y006020D01*
X008520Y006980D01*
X008530Y006980D01*
X008520Y006980D02*
X008520Y008180D01*
X008530Y008180D01*
X008520Y008180D02*
X008520Y008360D01*
X008040Y008840D01*
X005280Y008840D01*
X004860Y008420D01*
X004680Y008420D01*
X004680Y008380D01*
X004680Y008240D01*
X004260Y007820D01*
X004260Y007520D01*
X004680Y007100D01*
X004680Y006980D01*
X005040Y005600D02*
X007020Y007580D01*
X008100Y007580D01*
X008280Y007760D01*
X008280Y007820D01*
X008220Y007880D01*
X008220Y008180D01*
X008180Y008180D01*
X007867Y007082D02*
X007830Y007082D01*
X007867Y007082D02*
X007830Y006980D01*
X008180Y006980D02*
X008220Y006980D01*
X008220Y006680D01*
X008280Y006620D01*
X008280Y006560D01*
X007080Y005360D01*
X005820Y005360D01*
X005790Y005330D01*
X005040Y005600D02*
X005040Y004940D01*
X005160Y004820D01*
X005760Y004820D01*
X005790Y004830D01*
X004680Y004820D02*
X003420Y004820D01*
X003370Y004830D01*
X001680Y008240D02*
X001680Y008380D01*
D17*
X005980Y007980D03*
X006980Y006380D03*
D18*
X004680Y004820D03*
M02*
