G75*
%MOIN*%
%OFA0B0*%
%FSLAX24Y24*%
%IPPOS*%
%LPD*%
%AMOC8*
5,1,8,0,0,1.08239X$1,22.5*
%
%ADD10C,0.0000*%
%ADD11C,0.0040*%
%ADD12C,0.0050*%
%ADD13C,0.0030*%
%ADD14R,0.3600X0.3200*%
%ADD15C,0.0020*%
%ADD16C,0.0080*%
%ADD17C,0.0060*%
%ADD18C,0.0006*%
D10*
X000980Y000980D02*
X000980Y010076D01*
X016050Y010076D01*
X016050Y000980D01*
X000980Y000980D01*
D11*
X008269Y002327D02*
X008346Y002250D01*
X008499Y002250D01*
X008576Y002327D01*
X008576Y002403D01*
X008499Y002480D01*
X008346Y002480D01*
X008269Y002557D01*
X008269Y002634D01*
X008346Y002710D01*
X008499Y002710D01*
X008576Y002634D01*
X008729Y002634D02*
X008729Y002327D01*
X008806Y002250D01*
X008959Y002250D01*
X009036Y002327D01*
X009190Y002250D02*
X009497Y002250D01*
X009190Y002250D02*
X009190Y002710D01*
X009036Y002634D02*
X008959Y002710D01*
X008806Y002710D01*
X008729Y002634D01*
X008729Y003250D02*
X008959Y003250D01*
X009036Y003327D01*
X009036Y003634D01*
X008959Y003710D01*
X008729Y003710D01*
X008729Y003250D01*
X008576Y003327D02*
X008499Y003250D01*
X008346Y003250D01*
X008269Y003327D01*
X008346Y003480D02*
X008499Y003480D01*
X008576Y003403D01*
X008576Y003327D01*
X008346Y003480D02*
X008269Y003557D01*
X008269Y003634D01*
X008346Y003710D01*
X008499Y003710D01*
X008576Y003634D01*
X009190Y003557D02*
X009190Y003250D01*
X009190Y003480D02*
X009497Y003480D01*
X009497Y003557D02*
X009497Y003250D01*
X009497Y003557D02*
X009343Y003710D01*
X009190Y003557D01*
X009266Y004250D02*
X009420Y004250D01*
X009497Y004327D01*
X009266Y004250D02*
X009190Y004327D01*
X009190Y004634D01*
X009266Y004710D01*
X009420Y004710D01*
X009497Y004634D01*
X009036Y004634D02*
X008959Y004710D01*
X008806Y004710D01*
X008729Y004634D01*
X008729Y004327D01*
X008806Y004250D01*
X008959Y004250D01*
X009036Y004327D01*
X008576Y004403D02*
X008576Y004710D01*
X008269Y004710D02*
X008269Y004403D01*
X008422Y004250D01*
X008576Y004403D01*
X008499Y005250D02*
X008346Y005250D01*
X008269Y005327D01*
X008269Y005634D01*
X008346Y005710D01*
X008499Y005710D01*
X008576Y005634D01*
X008576Y005480D02*
X008422Y005480D01*
X008576Y005480D02*
X008576Y005327D01*
X008499Y005250D01*
X008729Y005250D02*
X008729Y005710D01*
X009036Y005250D01*
X009036Y005710D01*
X009190Y005710D02*
X009420Y005710D01*
X009497Y005634D01*
X009497Y005327D01*
X009420Y005250D01*
X009190Y005250D01*
X009190Y005710D01*
X011780Y008240D02*
X011780Y008547D01*
X011626Y008393D02*
X011933Y008393D01*
X013426Y008393D02*
X013733Y008393D01*
X013580Y008240D02*
X013580Y008547D01*
D12*
X015325Y008500D02*
X015325Y008350D01*
X015400Y008275D01*
X015700Y008275D01*
X015775Y008350D01*
X015775Y008500D01*
X015700Y008575D01*
X015400Y008575D02*
X015325Y008500D01*
X015400Y008114D02*
X015325Y008039D01*
X015325Y007814D01*
X015775Y007814D01*
X015775Y008039D01*
X015700Y008114D01*
X015400Y008114D01*
X015325Y007654D02*
X015625Y007654D01*
X015775Y007504D01*
X015625Y007354D01*
X015325Y007354D01*
X015325Y007194D02*
X015325Y006893D01*
X015550Y006893D01*
X015475Y007044D01*
X015475Y007119D01*
X015550Y007194D01*
X015700Y007194D01*
X015775Y007119D01*
X015775Y006968D01*
X015700Y006893D01*
X007709Y003230D02*
X007634Y003305D01*
X007484Y003305D01*
X007409Y003230D01*
X007409Y003155D01*
X007484Y003080D01*
X007634Y003080D01*
X007709Y003005D01*
X007709Y002930D01*
X007634Y002855D01*
X007484Y002855D01*
X007409Y002930D01*
X007249Y002930D02*
X007174Y002855D01*
X007024Y002855D01*
X006949Y002930D01*
X007249Y003230D01*
X007249Y002930D01*
X006949Y002930D02*
X006949Y003230D01*
X007024Y003305D01*
X007174Y003305D01*
X007249Y003230D01*
X006788Y003230D02*
X006788Y002930D01*
X006713Y002855D01*
X006563Y002855D01*
X006488Y002930D01*
X006788Y003230D01*
X006713Y003305D01*
X006563Y003305D01*
X006488Y003230D01*
X006488Y002930D01*
X006328Y002855D02*
X006028Y002855D01*
X006178Y002855D02*
X006178Y003305D01*
X006028Y003155D01*
X005868Y003080D02*
X005567Y003080D01*
X005407Y003155D02*
X005107Y002855D01*
X005407Y002855D01*
X005407Y003155D02*
X005407Y003230D01*
X005332Y003305D01*
X005182Y003305D01*
X005107Y003230D01*
X004947Y003230D02*
X004947Y003155D01*
X004872Y003080D01*
X004722Y003080D01*
X004647Y003155D01*
X004647Y003230D01*
X004722Y003305D01*
X004872Y003305D01*
X004947Y003230D01*
X004872Y003080D02*
X004947Y003005D01*
X004947Y002930D01*
X004872Y002855D01*
X004722Y002855D01*
X004647Y002930D01*
X004647Y003005D01*
X004722Y003080D01*
X004486Y003080D02*
X004186Y003080D01*
X004411Y003305D01*
X004411Y002855D01*
X004026Y002855D02*
X003726Y002855D01*
X004026Y003155D01*
X004026Y003230D01*
X003951Y003305D01*
X003801Y003305D01*
X003726Y003230D01*
X003566Y003230D02*
X003491Y003305D01*
X003340Y003305D01*
X003265Y003230D01*
X003265Y003155D01*
X003340Y003080D01*
X003491Y003080D01*
X003566Y003005D01*
X003566Y002930D01*
X003491Y002855D01*
X003340Y002855D01*
X003265Y002930D01*
X003105Y002930D02*
X003105Y003230D01*
X003030Y003305D01*
X002805Y003305D01*
X002805Y002855D01*
X003030Y002855D01*
X003105Y002930D01*
X003012Y002016D02*
X002605Y002016D01*
X002809Y002016D02*
X002809Y001405D01*
X003213Y001507D02*
X003213Y001710D01*
X003314Y001812D01*
X003518Y001812D01*
X003620Y001710D01*
X003620Y001609D01*
X003213Y001609D01*
X003213Y001507D02*
X003314Y001405D01*
X003518Y001405D01*
X003820Y001405D02*
X003820Y001812D01*
X003922Y001812D01*
X004024Y001710D01*
X004126Y001812D01*
X004227Y001710D01*
X004227Y001405D01*
X004428Y001405D02*
X004733Y001405D01*
X004835Y001507D01*
X004835Y001710D01*
X004733Y001812D01*
X004428Y001812D01*
X004428Y001201D01*
X004024Y001405D02*
X004024Y001710D01*
X005036Y001710D02*
X005036Y001507D01*
X005138Y001405D01*
X005341Y001405D01*
X005443Y001609D02*
X005036Y001609D01*
X005036Y001710D02*
X005138Y001812D01*
X005341Y001812D01*
X005443Y001710D01*
X005443Y001609D01*
X005644Y001609D02*
X005847Y001812D01*
X005949Y001812D01*
X006252Y001812D02*
X006455Y001812D01*
X006557Y001710D01*
X006557Y001405D01*
X006252Y001405D01*
X006150Y001507D01*
X006252Y001609D01*
X006557Y001609D01*
X006758Y001812D02*
X006961Y001812D01*
X006859Y001914D02*
X006859Y001507D01*
X006961Y001405D01*
X007163Y001507D02*
X007265Y001405D01*
X007570Y001405D01*
X007570Y001812D01*
X007771Y001812D02*
X007771Y001405D01*
X007771Y001609D02*
X007974Y001812D01*
X008076Y001812D01*
X008277Y001710D02*
X008379Y001812D01*
X008582Y001812D01*
X008684Y001710D01*
X008684Y001609D01*
X008277Y001609D01*
X008277Y001710D02*
X008277Y001507D01*
X008379Y001405D01*
X008582Y001405D01*
X009492Y001405D02*
X009696Y001405D01*
X009594Y001405D02*
X009594Y002016D01*
X009492Y002016D02*
X009696Y002016D01*
X009898Y001812D02*
X010203Y001812D01*
X010305Y001710D01*
X010305Y001405D01*
X010607Y001507D02*
X010709Y001405D01*
X010607Y001507D02*
X010607Y001914D01*
X010505Y001812D02*
X010709Y001812D01*
X010910Y001710D02*
X010910Y001507D01*
X011012Y001405D01*
X011216Y001405D01*
X011318Y001609D02*
X010910Y001609D01*
X010910Y001710D02*
X011012Y001812D01*
X011216Y001812D01*
X011318Y001710D01*
X011318Y001609D01*
X011518Y001609D02*
X011722Y001812D01*
X011823Y001812D01*
X012025Y001710D02*
X012228Y001710D01*
X012126Y001914D02*
X012228Y002016D01*
X012126Y001914D02*
X012126Y001405D01*
X012430Y001507D02*
X012532Y001609D01*
X012837Y001609D01*
X012837Y001710D02*
X012837Y001405D01*
X012532Y001405D01*
X012430Y001507D01*
X012532Y001812D02*
X012735Y001812D01*
X012837Y001710D01*
X013038Y001710D02*
X013038Y001507D01*
X013139Y001405D01*
X013445Y001405D01*
X013645Y001507D02*
X013645Y001710D01*
X013747Y001812D01*
X013950Y001812D01*
X014052Y001710D01*
X014052Y001609D01*
X013645Y001609D01*
X013645Y001507D02*
X013747Y001405D01*
X013950Y001405D01*
X013445Y001812D02*
X013139Y001812D01*
X013038Y001710D01*
X011518Y001812D02*
X011518Y001405D01*
X009898Y001405D02*
X009898Y001812D01*
X007163Y001812D02*
X007163Y001507D01*
X005644Y001405D02*
X005644Y001812D01*
D13*
X002244Y003575D02*
X002050Y003575D01*
X002147Y003575D02*
X002147Y003865D01*
X002050Y003768D01*
X001949Y003817D02*
X001901Y003865D01*
X001804Y003865D01*
X001756Y003817D01*
X001756Y003623D01*
X001804Y003575D01*
X001901Y003575D01*
X001949Y003623D01*
X004445Y005745D02*
X004542Y005745D01*
X004493Y005745D02*
X004493Y006035D01*
X004445Y006035D02*
X004542Y006035D01*
X004641Y005987D02*
X004641Y005793D01*
X004690Y005745D01*
X004787Y005745D01*
X004835Y005793D01*
X004936Y005745D02*
X005130Y005938D01*
X005130Y005987D01*
X005081Y006035D01*
X004984Y006035D01*
X004936Y005987D01*
X004835Y005987D02*
X004787Y006035D01*
X004690Y006035D01*
X004641Y005987D01*
X004936Y005745D02*
X005130Y005745D01*
X005672Y006295D02*
X005575Y006392D01*
X005672Y006488D01*
X005865Y006488D01*
X005817Y006590D02*
X005623Y006783D01*
X005817Y006783D01*
X005865Y006735D01*
X005865Y006638D01*
X005817Y006590D01*
X005623Y006590D01*
X005575Y006638D01*
X005575Y006735D01*
X005623Y006783D01*
X005720Y006488D02*
X005720Y006295D01*
X005672Y006295D02*
X005865Y006295D01*
X006876Y005822D02*
X007123Y005822D01*
X006918Y007257D02*
X006918Y007504D01*
X006795Y007380D02*
X007042Y007380D01*
X007118Y009057D02*
X007118Y009304D01*
X007085Y009395D02*
X006900Y009518D01*
X007085Y009642D01*
X006900Y009765D02*
X006900Y009395D01*
X006779Y009395D02*
X006779Y009580D01*
X006717Y009642D01*
X006532Y009642D01*
X006532Y009395D01*
X006410Y009395D02*
X006410Y009580D01*
X006348Y009642D01*
X006225Y009642D01*
X006225Y009518D02*
X006163Y009457D01*
X006225Y009395D01*
X006410Y009395D01*
X006410Y009518D02*
X006225Y009518D01*
X006042Y009765D02*
X005795Y009765D01*
X005918Y009765D02*
X005918Y009395D01*
X006995Y009180D02*
X007242Y009180D01*
X007699Y009395D02*
X007699Y009765D01*
X007822Y009765D02*
X007575Y009765D01*
X007944Y009580D02*
X008005Y009642D01*
X008129Y009642D01*
X008190Y009580D01*
X008190Y009518D01*
X007944Y009518D01*
X007944Y009457D02*
X007944Y009580D01*
X007944Y009457D02*
X008005Y009395D01*
X008129Y009395D01*
X008312Y009395D02*
X008312Y009642D01*
X008374Y009642D01*
X008435Y009580D01*
X008497Y009642D01*
X008559Y009580D01*
X008559Y009395D01*
X008680Y009395D02*
X008865Y009395D01*
X008927Y009457D01*
X008927Y009580D01*
X008865Y009642D01*
X008680Y009642D01*
X008680Y009272D01*
X008435Y009395D02*
X008435Y009580D01*
X008344Y009132D02*
X008097Y009132D01*
X004094Y009423D02*
X004045Y009375D01*
X003949Y009375D01*
X003900Y009423D01*
X004094Y009617D01*
X004094Y009423D01*
X003900Y009423D02*
X003900Y009617D01*
X003949Y009665D01*
X004045Y009665D01*
X004094Y009617D01*
X003799Y009617D02*
X003799Y009568D01*
X003606Y009375D01*
X003799Y009375D01*
X003505Y009423D02*
X003505Y009472D01*
X003456Y009520D01*
X003311Y009520D01*
X003210Y009472D02*
X003210Y009423D01*
X003162Y009375D01*
X003065Y009375D01*
X003016Y009423D01*
X003016Y009472D01*
X003065Y009520D01*
X003162Y009520D01*
X003210Y009472D01*
X003162Y009520D02*
X003210Y009568D01*
X003210Y009617D01*
X003162Y009665D01*
X003065Y009665D01*
X003016Y009617D01*
X003016Y009568D01*
X003065Y009520D01*
X002915Y009375D02*
X002722Y009375D01*
X002818Y009375D02*
X002818Y009665D01*
X002722Y009568D01*
X002621Y009617D02*
X002572Y009665D01*
X002475Y009665D01*
X002427Y009617D01*
X002427Y009568D01*
X002475Y009520D01*
X002572Y009520D01*
X002621Y009472D01*
X002621Y009423D01*
X002572Y009375D01*
X002475Y009375D01*
X002427Y009423D01*
X002326Y009423D02*
X002326Y009617D01*
X002278Y009665D01*
X002132Y009665D01*
X002132Y009375D01*
X002278Y009375D01*
X002326Y009423D01*
X003311Y009375D02*
X003456Y009375D01*
X003505Y009423D01*
X003456Y009520D02*
X003505Y009568D01*
X003505Y009617D01*
X003456Y009665D01*
X003311Y009665D01*
X003311Y009375D01*
X003606Y009617D02*
X003654Y009665D01*
X003751Y009665D01*
X003799Y009617D01*
X012195Y009565D02*
X012195Y009195D01*
X012195Y009318D02*
X012380Y009318D01*
X012442Y009380D01*
X012442Y009504D01*
X012380Y009565D01*
X012195Y009565D01*
X012318Y009318D02*
X012442Y009195D01*
X012563Y009257D02*
X012563Y009380D01*
X012625Y009442D01*
X012748Y009442D01*
X012810Y009380D01*
X012810Y009318D01*
X012563Y009318D01*
X012563Y009257D02*
X012625Y009195D01*
X012748Y009195D01*
X013055Y009195D02*
X012932Y009442D01*
X013179Y009442D02*
X013055Y009195D01*
X013668Y009195D02*
X013668Y009442D01*
X013792Y009565D01*
X013915Y009442D01*
X013915Y009195D01*
X013915Y009380D02*
X013668Y009380D01*
X013629Y006085D02*
X013629Y005795D01*
X013726Y005795D02*
X013726Y006085D01*
X013726Y005988D02*
X013774Y005988D01*
X013726Y005988D02*
X013581Y005988D01*
X013581Y005892D02*
X013774Y005892D01*
X013185Y005843D02*
X013137Y005795D01*
X012991Y005795D01*
X012991Y006085D01*
X013137Y006085D01*
X013185Y006037D01*
X013185Y005843D01*
X012892Y005795D02*
X012795Y005795D01*
X012843Y005795D02*
X012843Y006085D01*
X012795Y006085D02*
X012892Y006085D01*
D14*
X013180Y003980D03*
D15*
X011415Y008117D02*
X011379Y008117D01*
X011415Y008117D02*
X011452Y008153D01*
X011452Y008337D01*
X011305Y008337D02*
X011305Y008227D01*
X011342Y008190D01*
X011452Y008190D01*
X011231Y008190D02*
X011158Y008190D01*
X011195Y008190D02*
X011195Y008410D01*
X011158Y008410D01*
X011084Y008300D02*
X011084Y008227D01*
X011047Y008190D01*
X010937Y008190D01*
X010937Y008117D02*
X010937Y008337D01*
X011047Y008337D01*
X011084Y008300D01*
X010863Y008300D02*
X010863Y008227D01*
X010826Y008190D01*
X010716Y008190D01*
X010716Y008117D02*
X010716Y008337D01*
X010826Y008337D01*
X010863Y008300D01*
X010642Y008337D02*
X010642Y008190D01*
X010532Y008190D01*
X010495Y008227D01*
X010495Y008337D01*
X010421Y008373D02*
X010384Y008410D01*
X010311Y008410D01*
X010274Y008373D01*
X010274Y008337D01*
X010311Y008300D01*
X010384Y008300D01*
X010421Y008263D01*
X010421Y008227D01*
X010384Y008190D01*
X010311Y008190D01*
X010274Y008227D01*
X009979Y008410D02*
X009832Y008410D01*
X009905Y008410D02*
X009905Y008190D01*
X009758Y008190D02*
X009611Y008410D01*
X009537Y008410D02*
X009390Y008410D01*
X009390Y008190D01*
X009537Y008190D01*
X009611Y008190D02*
X009758Y008410D01*
X009463Y008300D02*
X009390Y008300D01*
X004150Y005580D02*
X004150Y003580D01*
D16*
X002480Y003480D02*
X001480Y003480D01*
X001480Y001480D01*
X002480Y001480D01*
X002480Y003480D01*
X002230Y002480D02*
X001730Y002480D01*
X010080Y002330D02*
X010080Y002830D01*
X010330Y003080D01*
X010080Y003330D01*
X010080Y003830D01*
X010330Y004080D01*
X010080Y004330D01*
X010080Y004830D01*
X010330Y005080D01*
X010080Y005330D01*
X010080Y005830D01*
X010330Y006080D01*
X010830Y006080D01*
X011080Y005830D01*
X011080Y005330D01*
X010830Y005080D01*
X011080Y004830D01*
X011080Y004330D01*
X010830Y004080D01*
X011080Y003830D01*
X011080Y003330D01*
X010830Y003080D01*
X011080Y002830D01*
X011080Y002330D01*
X010830Y002080D01*
X010330Y002080D01*
X010080Y002330D01*
X012530Y006680D02*
X013030Y006680D01*
X013280Y006930D01*
X013280Y007430D01*
X013030Y007680D01*
X013280Y007930D01*
X013280Y008430D01*
X013030Y008680D01*
X012530Y008680D01*
X012280Y008430D01*
X012280Y007930D01*
X012530Y007680D01*
X012280Y007430D01*
X012280Y006930D01*
X012530Y006680D01*
X014080Y006930D02*
X014080Y007430D01*
X014330Y007680D01*
X014080Y007930D01*
X014080Y008430D01*
X014330Y008680D01*
X014830Y008680D01*
X015080Y008430D01*
X015080Y007930D01*
X014830Y007680D01*
X015080Y007430D01*
X015080Y006930D01*
X014830Y006680D01*
X014330Y006680D01*
X014080Y006930D01*
X008680Y008130D02*
X008680Y008630D01*
X008430Y008880D01*
X007930Y008880D01*
X007680Y008630D01*
X007430Y008880D01*
X006930Y008880D01*
X006680Y008630D01*
X006430Y008880D01*
X005930Y008880D01*
X005680Y008630D01*
X005680Y008130D01*
X005930Y007880D01*
X006430Y007880D01*
X006680Y008130D01*
X006930Y007880D01*
X007430Y007880D01*
X007680Y008130D01*
X007930Y007880D01*
X008430Y007880D01*
X008680Y008130D01*
D17*
X009080Y007980D02*
X009680Y007980D01*
X009697Y007978D01*
X009714Y007974D01*
X009730Y007967D01*
X009744Y007957D01*
X009757Y007944D01*
X009767Y007930D01*
X009774Y007914D01*
X009778Y007897D01*
X009780Y007880D01*
X009780Y006880D01*
X009778Y006863D01*
X009774Y006846D01*
X009767Y006830D01*
X009757Y006816D01*
X009744Y006803D01*
X009730Y006793D01*
X009714Y006786D01*
X009697Y006782D01*
X009680Y006780D01*
X009080Y006780D01*
X009063Y006782D01*
X009046Y006786D01*
X009030Y006793D01*
X009016Y006803D01*
X009003Y006816D01*
X008993Y006830D01*
X008986Y006846D01*
X008982Y006863D01*
X008980Y006880D01*
X008980Y007880D01*
X008982Y007897D01*
X008986Y007914D01*
X008993Y007930D01*
X009003Y007944D01*
X009016Y007957D01*
X009030Y007967D01*
X009046Y007974D01*
X009063Y007978D01*
X009080Y007980D01*
X010380Y007880D02*
X010380Y006880D01*
X010382Y006863D01*
X010386Y006846D01*
X010393Y006830D01*
X010403Y006816D01*
X010416Y006803D01*
X010430Y006793D01*
X010446Y006786D01*
X010463Y006782D01*
X010480Y006780D01*
X011080Y006780D01*
X011097Y006782D01*
X011114Y006786D01*
X011130Y006793D01*
X011144Y006803D01*
X011157Y006816D01*
X011167Y006830D01*
X011174Y006846D01*
X011178Y006863D01*
X011180Y006880D01*
X011180Y007880D01*
X011178Y007897D01*
X011174Y007914D01*
X011167Y007930D01*
X011157Y007944D01*
X011144Y007957D01*
X011130Y007967D01*
X011114Y007974D01*
X011097Y007978D01*
X011080Y007980D01*
X010480Y007980D01*
X010463Y007978D01*
X010446Y007974D01*
X010430Y007967D01*
X010416Y007957D01*
X010403Y007944D01*
X010393Y007930D01*
X010386Y007914D01*
X010382Y007897D01*
X010380Y007880D01*
X007980Y007080D02*
X007980Y006080D01*
X007978Y006063D01*
X007974Y006046D01*
X007967Y006030D01*
X007957Y006016D01*
X007944Y006003D01*
X007930Y005993D01*
X007914Y005986D01*
X007897Y005982D01*
X007880Y005980D01*
X007280Y005980D01*
X007263Y005982D01*
X007246Y005986D01*
X007230Y005993D01*
X007216Y006003D01*
X007203Y006016D01*
X007193Y006030D01*
X007186Y006046D01*
X007182Y006063D01*
X007180Y006080D01*
X007180Y007080D01*
X007182Y007097D01*
X007186Y007114D01*
X007193Y007130D01*
X007203Y007144D01*
X007216Y007157D01*
X007230Y007167D01*
X007246Y007174D01*
X007263Y007178D01*
X007280Y007180D01*
X007880Y007180D01*
X007897Y007178D01*
X007914Y007174D01*
X007930Y007167D01*
X007944Y007157D01*
X007957Y007144D01*
X007967Y007130D01*
X007974Y007114D01*
X007978Y007097D01*
X007980Y007080D01*
X006780Y007080D02*
X006780Y006080D01*
X006778Y006063D01*
X006774Y006046D01*
X006767Y006030D01*
X006757Y006016D01*
X006744Y006003D01*
X006730Y005993D01*
X006714Y005986D01*
X006697Y005982D01*
X006680Y005980D01*
X006080Y005980D01*
X006063Y005982D01*
X006046Y005986D01*
X006030Y005993D01*
X006016Y006003D01*
X006003Y006016D01*
X005993Y006030D01*
X005986Y006046D01*
X005982Y006063D01*
X005980Y006080D01*
X005980Y007080D01*
X005982Y007097D01*
X005986Y007114D01*
X005993Y007130D01*
X006003Y007144D01*
X006016Y007157D01*
X006030Y007167D01*
X006046Y007174D01*
X006063Y007178D01*
X006080Y007180D01*
X006680Y007180D01*
X006697Y007178D01*
X006714Y007174D01*
X006730Y007167D01*
X006744Y007157D01*
X006757Y007144D01*
X006767Y007130D01*
X006774Y007114D01*
X006778Y007097D01*
X006780Y007080D01*
X005400Y005580D02*
X004980Y005580D01*
X004580Y005580D01*
X004160Y005580D01*
X004137Y005578D01*
X004114Y005573D01*
X004092Y005564D01*
X004072Y005551D01*
X004054Y005536D01*
X004039Y005518D01*
X004026Y005498D01*
X004017Y005476D01*
X004012Y005453D01*
X004010Y005430D01*
X004010Y003730D01*
X004012Y003707D01*
X004017Y003684D01*
X004026Y003662D01*
X004039Y003642D01*
X004054Y003624D01*
X004072Y003609D01*
X004092Y003596D01*
X004114Y003587D01*
X004137Y003582D01*
X004160Y003580D01*
X005400Y003580D01*
X005423Y003582D01*
X005446Y003587D01*
X005468Y003596D01*
X005488Y003609D01*
X005506Y003624D01*
X005521Y003642D01*
X005534Y003662D01*
X005543Y003684D01*
X005548Y003707D01*
X005550Y003730D01*
X005550Y005430D01*
X005548Y005453D01*
X005543Y005476D01*
X005534Y005498D01*
X005521Y005518D01*
X005506Y005536D01*
X005488Y005551D01*
X005468Y005564D01*
X005446Y005573D01*
X005423Y005578D01*
X005400Y005580D01*
X004980Y005580D02*
X004978Y005553D01*
X004973Y005526D01*
X004963Y005500D01*
X004951Y005476D01*
X004935Y005454D01*
X004917Y005434D01*
X004895Y005417D01*
X004872Y005402D01*
X004847Y005392D01*
X004821Y005384D01*
X004794Y005380D01*
X004766Y005380D01*
X004739Y005384D01*
X004713Y005392D01*
X004688Y005402D01*
X004665Y005417D01*
X004643Y005434D01*
X004625Y005454D01*
X004609Y005476D01*
X004597Y005500D01*
X004587Y005526D01*
X004582Y005553D01*
X004580Y005580D01*
X003733Y008430D02*
X003627Y008430D01*
X002733Y008430D02*
X002627Y008430D01*
X002355Y009030D02*
X004005Y009030D01*
D18*
X004153Y008841D02*
X004104Y008818D01*
X004079Y008869D01*
X004050Y008918D01*
X004019Y008965D01*
X003985Y009011D01*
X004027Y009044D01*
X004028Y009044D01*
X004063Y008996D01*
X004096Y008946D01*
X004126Y008895D01*
X004153Y008841D01*
X004149Y008839D01*
X004122Y008892D01*
X004092Y008944D01*
X004059Y008993D01*
X004024Y009041D01*
X004020Y009038D01*
X004055Y008991D01*
X004088Y008941D01*
X004117Y008890D01*
X004144Y008837D01*
X004140Y008835D01*
X004113Y008888D01*
X004083Y008939D01*
X004051Y008988D01*
X004016Y009035D01*
X004012Y009032D01*
X004047Y008985D01*
X004079Y008936D01*
X004108Y008885D01*
X004135Y008833D01*
X004131Y008831D01*
X004104Y008883D01*
X004075Y008933D01*
X004043Y008982D01*
X004008Y009029D01*
X004004Y009026D01*
X004039Y008979D01*
X004071Y008931D01*
X004100Y008880D01*
X004126Y008829D01*
X004121Y008827D01*
X004095Y008878D01*
X004066Y008928D01*
X004035Y008976D01*
X004000Y009023D01*
X003996Y009020D01*
X004030Y008973D01*
X004062Y008925D01*
X004091Y008876D01*
X004117Y008824D01*
X004112Y008822D01*
X004086Y008873D01*
X004058Y008923D01*
X004026Y008971D01*
X003992Y009017D01*
X003988Y009013D01*
X004022Y008968D01*
X004054Y008920D01*
X004082Y008871D01*
X004108Y008820D01*
X002207Y007919D02*
X002256Y007942D01*
X002284Y007886D01*
X002316Y007832D01*
X002351Y007781D01*
X002389Y007731D01*
X002430Y007684D01*
X002474Y007640D01*
X002520Y007598D01*
X002569Y007560D01*
X002620Y007524D01*
X002673Y007491D01*
X002728Y007462D01*
X002785Y007436D01*
X002843Y007414D01*
X002903Y007395D01*
X002963Y007380D01*
X003025Y007369D01*
X003087Y007361D01*
X003149Y007357D01*
X003211Y007357D01*
X003273Y007361D01*
X003335Y007369D01*
X003397Y007380D01*
X003457Y007395D01*
X003517Y007414D01*
X003575Y007436D01*
X003632Y007462D01*
X003687Y007491D01*
X003740Y007524D01*
X003791Y007560D01*
X003840Y007598D01*
X003886Y007640D01*
X003930Y007684D01*
X003971Y007731D01*
X004009Y007781D01*
X004044Y007832D01*
X004076Y007886D01*
X004104Y007942D01*
X004153Y007919D01*
X004124Y007862D01*
X004092Y007807D01*
X004056Y007753D01*
X004017Y007703D01*
X003976Y007654D01*
X003931Y007608D01*
X003884Y007565D01*
X003834Y007525D01*
X003783Y007487D01*
X003728Y007453D01*
X003673Y007422D01*
X003615Y007395D01*
X003556Y007371D01*
X003495Y007350D01*
X003433Y007333D01*
X003371Y007320D01*
X003308Y007311D01*
X003244Y007305D01*
X003180Y007303D01*
X003116Y007305D01*
X003052Y007311D01*
X002989Y007320D01*
X002927Y007333D01*
X002865Y007350D01*
X002804Y007371D01*
X002745Y007395D01*
X002687Y007422D01*
X002632Y007453D01*
X002577Y007487D01*
X002526Y007525D01*
X002476Y007565D01*
X002429Y007608D01*
X002384Y007654D01*
X002343Y007703D01*
X002304Y007753D01*
X002268Y007807D01*
X002236Y007862D01*
X002207Y007919D01*
X002211Y007921D01*
X002241Y007863D01*
X002274Y007806D01*
X002311Y007752D01*
X002351Y007700D01*
X002394Y007651D01*
X002440Y007605D01*
X002488Y007561D01*
X002540Y007520D01*
X002593Y007483D01*
X002649Y007449D01*
X002707Y007418D01*
X002766Y007391D01*
X002827Y007368D01*
X002890Y007348D01*
X002953Y007332D01*
X003017Y007320D01*
X003082Y007312D01*
X003147Y007308D01*
X003213Y007308D01*
X003278Y007312D01*
X003343Y007320D01*
X003407Y007332D01*
X003470Y007348D01*
X003533Y007368D01*
X003594Y007391D01*
X003653Y007418D01*
X003711Y007449D01*
X003767Y007483D01*
X003820Y007520D01*
X003872Y007561D01*
X003920Y007605D01*
X003966Y007651D01*
X004009Y007700D01*
X004049Y007752D01*
X004086Y007806D01*
X004119Y007863D01*
X004149Y007921D01*
X004144Y007923D01*
X004114Y007865D01*
X004081Y007809D01*
X004045Y007755D01*
X004005Y007704D01*
X003962Y007655D01*
X003917Y007608D01*
X003868Y007565D01*
X003817Y007524D01*
X003764Y007487D01*
X003709Y007453D01*
X003651Y007423D01*
X003592Y007396D01*
X003531Y007372D01*
X003469Y007353D01*
X003406Y007337D01*
X003342Y007325D01*
X003277Y007317D01*
X003213Y007313D01*
X003147Y007313D01*
X003083Y007317D01*
X003018Y007325D01*
X002954Y007337D01*
X002891Y007353D01*
X002829Y007372D01*
X002768Y007396D01*
X002709Y007423D01*
X002651Y007453D01*
X002596Y007487D01*
X002543Y007524D01*
X002492Y007565D01*
X002443Y007608D01*
X002398Y007655D01*
X002355Y007704D01*
X002315Y007755D01*
X002279Y007809D01*
X002246Y007865D01*
X002216Y007923D01*
X002220Y007925D01*
X002250Y007867D01*
X002283Y007812D01*
X002319Y007758D01*
X002359Y007707D01*
X002401Y007658D01*
X002447Y007612D01*
X002495Y007569D01*
X002546Y007528D01*
X002599Y007491D01*
X002654Y007457D01*
X002711Y007427D01*
X002770Y007400D01*
X002830Y007377D01*
X002892Y007358D01*
X002955Y007342D01*
X003019Y007330D01*
X003083Y007322D01*
X003148Y007318D01*
X003212Y007318D01*
X003277Y007322D01*
X003341Y007330D01*
X003405Y007342D01*
X003468Y007358D01*
X003530Y007377D01*
X003590Y007400D01*
X003649Y007427D01*
X003706Y007457D01*
X003761Y007491D01*
X003814Y007528D01*
X003865Y007569D01*
X003913Y007612D01*
X003959Y007658D01*
X004001Y007707D01*
X004041Y007758D01*
X004077Y007812D01*
X004110Y007867D01*
X004140Y007925D01*
X004135Y007927D01*
X004106Y007870D01*
X004073Y007814D01*
X004037Y007761D01*
X003997Y007710D01*
X003955Y007661D01*
X003910Y007615D01*
X003862Y007572D01*
X003811Y007532D01*
X003759Y007495D01*
X003704Y007462D01*
X003647Y007432D01*
X003588Y007405D01*
X003528Y007382D01*
X003466Y007363D01*
X003404Y007347D01*
X003340Y007335D01*
X003277Y007327D01*
X003212Y007323D01*
X003148Y007323D01*
X003083Y007327D01*
X003020Y007335D01*
X002956Y007347D01*
X002894Y007363D01*
X002832Y007382D01*
X002772Y007405D01*
X002713Y007432D01*
X002656Y007462D01*
X002601Y007495D01*
X002549Y007532D01*
X002498Y007572D01*
X002450Y007615D01*
X002405Y007661D01*
X002363Y007710D01*
X002323Y007761D01*
X002287Y007814D01*
X002254Y007870D01*
X002225Y007927D01*
X002229Y007929D01*
X002259Y007872D01*
X002291Y007817D01*
X002327Y007764D01*
X002366Y007713D01*
X002409Y007665D01*
X002454Y007619D01*
X002501Y007576D01*
X002552Y007536D01*
X002604Y007500D01*
X002659Y007466D01*
X002716Y007436D01*
X002774Y007410D01*
X002834Y007387D01*
X002895Y007367D01*
X002957Y007352D01*
X003020Y007340D01*
X003084Y007332D01*
X003148Y007328D01*
X003212Y007328D01*
X003276Y007332D01*
X003340Y007340D01*
X003403Y007352D01*
X003465Y007367D01*
X003526Y007387D01*
X003586Y007410D01*
X003644Y007436D01*
X003701Y007466D01*
X003756Y007500D01*
X003808Y007536D01*
X003859Y007576D01*
X003906Y007619D01*
X003951Y007665D01*
X003994Y007713D01*
X004033Y007764D01*
X004069Y007817D01*
X004101Y007872D01*
X004131Y007929D01*
X004126Y007931D01*
X004097Y007875D01*
X004064Y007820D01*
X004029Y007767D01*
X003990Y007716D01*
X003948Y007668D01*
X003903Y007623D01*
X003855Y007580D01*
X003805Y007540D01*
X003753Y007504D01*
X003699Y007470D01*
X003642Y007441D01*
X003584Y007414D01*
X003525Y007391D01*
X003464Y007372D01*
X003402Y007357D01*
X003339Y007345D01*
X003276Y007337D01*
X003212Y007333D01*
X003148Y007333D01*
X003084Y007337D01*
X003021Y007345D01*
X002958Y007357D01*
X002896Y007372D01*
X002835Y007391D01*
X002776Y007414D01*
X002718Y007441D01*
X002661Y007470D01*
X002607Y007504D01*
X002555Y007540D01*
X002505Y007580D01*
X002457Y007623D01*
X002412Y007668D01*
X002370Y007716D01*
X002331Y007767D01*
X002296Y007820D01*
X002263Y007875D01*
X002234Y007931D01*
X002239Y007933D01*
X002267Y007877D01*
X002300Y007822D01*
X002335Y007770D01*
X002374Y007719D01*
X002416Y007671D01*
X002461Y007626D01*
X002508Y007584D01*
X002558Y007544D01*
X002610Y007508D01*
X002664Y007475D01*
X002720Y007445D01*
X002778Y007419D01*
X002837Y007396D01*
X002898Y007377D01*
X002959Y007362D01*
X003022Y007350D01*
X003085Y007342D01*
X003148Y007338D01*
X003212Y007338D01*
X003275Y007342D01*
X003338Y007350D01*
X003401Y007362D01*
X003462Y007377D01*
X003523Y007396D01*
X003582Y007419D01*
X003640Y007445D01*
X003696Y007475D01*
X003750Y007508D01*
X003802Y007544D01*
X003852Y007584D01*
X003899Y007626D01*
X003944Y007671D01*
X003986Y007719D01*
X004025Y007770D01*
X004060Y007822D01*
X004093Y007877D01*
X004121Y007933D01*
X004117Y007936D01*
X004088Y007879D01*
X004056Y007825D01*
X004021Y007773D01*
X003982Y007723D01*
X003940Y007675D01*
X003896Y007630D01*
X003849Y007588D01*
X003799Y007548D01*
X003748Y007512D01*
X003694Y007479D01*
X003638Y007450D01*
X003580Y007423D01*
X003521Y007401D01*
X003461Y007382D01*
X003400Y007367D01*
X003337Y007355D01*
X003275Y007347D01*
X003212Y007343D01*
X003148Y007343D01*
X003085Y007347D01*
X003023Y007355D01*
X002960Y007367D01*
X002899Y007382D01*
X002839Y007401D01*
X002780Y007423D01*
X002722Y007450D01*
X002666Y007479D01*
X002612Y007512D01*
X002561Y007548D01*
X002511Y007588D01*
X002464Y007630D01*
X002420Y007675D01*
X002378Y007723D01*
X002339Y007773D01*
X002304Y007825D01*
X002272Y007879D01*
X002243Y007936D01*
X002248Y007938D01*
X002276Y007882D01*
X002308Y007828D01*
X002344Y007776D01*
X002382Y007726D01*
X002423Y007678D01*
X002467Y007633D01*
X002514Y007591D01*
X002564Y007552D01*
X002615Y007516D01*
X002669Y007484D01*
X002724Y007454D01*
X002782Y007428D01*
X002840Y007405D01*
X002900Y007387D01*
X002961Y007371D01*
X003023Y007360D01*
X003086Y007352D01*
X003149Y007348D01*
X003211Y007348D01*
X003274Y007352D01*
X003337Y007360D01*
X003399Y007371D01*
X003460Y007387D01*
X003520Y007405D01*
X003578Y007428D01*
X003636Y007454D01*
X003691Y007484D01*
X003745Y007516D01*
X003796Y007552D01*
X003846Y007591D01*
X003893Y007633D01*
X003937Y007678D01*
X003978Y007726D01*
X004016Y007776D01*
X004052Y007828D01*
X004084Y007882D01*
X004112Y007938D01*
X004108Y007940D01*
X004079Y007884D01*
X004047Y007830D01*
X004012Y007778D01*
X003974Y007729D01*
X003933Y007682D01*
X003889Y007637D01*
X003842Y007595D01*
X003793Y007556D01*
X003742Y007521D01*
X003689Y007488D01*
X003633Y007459D01*
X003576Y007433D01*
X003518Y007410D01*
X003458Y007391D01*
X003397Y007376D01*
X003336Y007365D01*
X003274Y007357D01*
X003211Y007353D01*
X003149Y007353D01*
X003086Y007357D01*
X003024Y007365D01*
X002963Y007376D01*
X002902Y007391D01*
X002842Y007410D01*
X002784Y007433D01*
X002727Y007459D01*
X002671Y007488D01*
X002618Y007521D01*
X002567Y007556D01*
X002518Y007595D01*
X002471Y007637D01*
X002427Y007682D01*
X002386Y007729D01*
X002348Y007778D01*
X002313Y007830D01*
X002281Y007884D01*
X002252Y007940D01*
X002333Y009044D02*
X002375Y009010D01*
X002375Y009011D02*
X002340Y008963D01*
X002307Y008914D01*
X002278Y008862D01*
X002251Y008809D01*
X002203Y008831D01*
X002202Y008832D01*
X002230Y008888D01*
X002261Y008942D01*
X002295Y008994D01*
X002332Y009044D01*
X002336Y009041D01*
X002299Y008991D01*
X002265Y008939D01*
X002235Y008885D01*
X002207Y008830D01*
X002211Y008828D01*
X002239Y008883D01*
X002270Y008937D01*
X002303Y008988D01*
X002340Y009038D01*
X002344Y009035D01*
X002308Y008986D01*
X002274Y008934D01*
X002243Y008881D01*
X002216Y008825D01*
X002220Y008823D01*
X002248Y008878D01*
X002278Y008931D01*
X002312Y008983D01*
X002348Y009032D01*
X002352Y009029D01*
X002316Y008980D01*
X002282Y008929D01*
X002252Y008876D01*
X002225Y008821D01*
X002230Y008819D01*
X002257Y008874D01*
X002287Y008926D01*
X002320Y008977D01*
X002356Y009026D01*
X002360Y009023D01*
X002324Y008974D01*
X002291Y008924D01*
X002261Y008871D01*
X002234Y008817D01*
X002239Y008815D01*
X002265Y008869D01*
X002295Y008921D01*
X002328Y008971D01*
X002364Y009020D01*
X002368Y009017D01*
X002332Y008968D01*
X002300Y008918D01*
X002270Y008866D01*
X002243Y008813D01*
X002248Y008811D01*
X002274Y008864D01*
X002304Y008916D01*
X002336Y008966D01*
X002372Y009013D01*
M02*
