G75*
%MOIN*%
%OFA0B0*%
%FSLAX24Y24*%
%IPPOS*%
%LPD*%
%AMOC8*
5,1,8,0,0,1.08239X$1,22.5*
%
%ADD10C,0.0000*%
%ADD11C,0.0030*%
%ADD12C,0.0040*%
%ADD13C,0.0060*%
%ADD14R,0.3000X0.2800*%
%ADD15C,0.0080*%
%ADD16C,0.0010*%
%ADD17C,0.0100*%
%ADD18C,0.0050*%
D10*
X001180Y000780D02*
X001180Y014676D01*
X024050Y014676D01*
X024050Y000780D01*
X001180Y000780D01*
X001550Y001780D02*
X001552Y001830D01*
X001558Y001880D01*
X001568Y001929D01*
X001582Y001977D01*
X001599Y002024D01*
X001620Y002069D01*
X001645Y002113D01*
X001673Y002154D01*
X001705Y002193D01*
X001739Y002230D01*
X001776Y002264D01*
X001816Y002294D01*
X001858Y002321D01*
X001902Y002345D01*
X001948Y002366D01*
X001995Y002382D01*
X002043Y002395D01*
X002093Y002404D01*
X002142Y002409D01*
X002193Y002410D01*
X002243Y002407D01*
X002292Y002400D01*
X002341Y002389D01*
X002389Y002374D01*
X002435Y002356D01*
X002480Y002334D01*
X002523Y002308D01*
X002564Y002279D01*
X002603Y002247D01*
X002639Y002212D01*
X002671Y002174D01*
X002701Y002134D01*
X002728Y002091D01*
X002751Y002047D01*
X002770Y002001D01*
X002786Y001953D01*
X002798Y001904D01*
X002806Y001855D01*
X002810Y001805D01*
X002810Y001755D01*
X002806Y001705D01*
X002798Y001656D01*
X002786Y001607D01*
X002770Y001559D01*
X002751Y001513D01*
X002728Y001469D01*
X002701Y001426D01*
X002671Y001386D01*
X002639Y001348D01*
X002603Y001313D01*
X002564Y001281D01*
X002523Y001252D01*
X002480Y001226D01*
X002435Y001204D01*
X002389Y001186D01*
X002341Y001171D01*
X002292Y001160D01*
X002243Y001153D01*
X002193Y001150D01*
X002142Y001151D01*
X002093Y001156D01*
X002043Y001165D01*
X001995Y001178D01*
X001948Y001194D01*
X001902Y001215D01*
X001858Y001239D01*
X001816Y001266D01*
X001776Y001296D01*
X001739Y001330D01*
X001705Y001367D01*
X001673Y001406D01*
X001645Y001447D01*
X001620Y001491D01*
X001599Y001536D01*
X001582Y001583D01*
X001568Y001631D01*
X001558Y001680D01*
X001552Y001730D01*
X001550Y001780D01*
X022350Y001780D02*
X022352Y001830D01*
X022358Y001880D01*
X022368Y001929D01*
X022382Y001977D01*
X022399Y002024D01*
X022420Y002069D01*
X022445Y002113D01*
X022473Y002154D01*
X022505Y002193D01*
X022539Y002230D01*
X022576Y002264D01*
X022616Y002294D01*
X022658Y002321D01*
X022702Y002345D01*
X022748Y002366D01*
X022795Y002382D01*
X022843Y002395D01*
X022893Y002404D01*
X022942Y002409D01*
X022993Y002410D01*
X023043Y002407D01*
X023092Y002400D01*
X023141Y002389D01*
X023189Y002374D01*
X023235Y002356D01*
X023280Y002334D01*
X023323Y002308D01*
X023364Y002279D01*
X023403Y002247D01*
X023439Y002212D01*
X023471Y002174D01*
X023501Y002134D01*
X023528Y002091D01*
X023551Y002047D01*
X023570Y002001D01*
X023586Y001953D01*
X023598Y001904D01*
X023606Y001855D01*
X023610Y001805D01*
X023610Y001755D01*
X023606Y001705D01*
X023598Y001656D01*
X023586Y001607D01*
X023570Y001559D01*
X023551Y001513D01*
X023528Y001469D01*
X023501Y001426D01*
X023471Y001386D01*
X023439Y001348D01*
X023403Y001313D01*
X023364Y001281D01*
X023323Y001252D01*
X023280Y001226D01*
X023235Y001204D01*
X023189Y001186D01*
X023141Y001171D01*
X023092Y001160D01*
X023043Y001153D01*
X022993Y001150D01*
X022942Y001151D01*
X022893Y001156D01*
X022843Y001165D01*
X022795Y001178D01*
X022748Y001194D01*
X022702Y001215D01*
X022658Y001239D01*
X022616Y001266D01*
X022576Y001296D01*
X022539Y001330D01*
X022505Y001367D01*
X022473Y001406D01*
X022445Y001447D01*
X022420Y001491D01*
X022399Y001536D01*
X022382Y001583D01*
X022368Y001631D01*
X022358Y001680D01*
X022352Y001730D01*
X022350Y001780D01*
X022350Y013580D02*
X022352Y013630D01*
X022358Y013680D01*
X022368Y013729D01*
X022382Y013777D01*
X022399Y013824D01*
X022420Y013869D01*
X022445Y013913D01*
X022473Y013954D01*
X022505Y013993D01*
X022539Y014030D01*
X022576Y014064D01*
X022616Y014094D01*
X022658Y014121D01*
X022702Y014145D01*
X022748Y014166D01*
X022795Y014182D01*
X022843Y014195D01*
X022893Y014204D01*
X022942Y014209D01*
X022993Y014210D01*
X023043Y014207D01*
X023092Y014200D01*
X023141Y014189D01*
X023189Y014174D01*
X023235Y014156D01*
X023280Y014134D01*
X023323Y014108D01*
X023364Y014079D01*
X023403Y014047D01*
X023439Y014012D01*
X023471Y013974D01*
X023501Y013934D01*
X023528Y013891D01*
X023551Y013847D01*
X023570Y013801D01*
X023586Y013753D01*
X023598Y013704D01*
X023606Y013655D01*
X023610Y013605D01*
X023610Y013555D01*
X023606Y013505D01*
X023598Y013456D01*
X023586Y013407D01*
X023570Y013359D01*
X023551Y013313D01*
X023528Y013269D01*
X023501Y013226D01*
X023471Y013186D01*
X023439Y013148D01*
X023403Y013113D01*
X023364Y013081D01*
X023323Y013052D01*
X023280Y013026D01*
X023235Y013004D01*
X023189Y012986D01*
X023141Y012971D01*
X023092Y012960D01*
X023043Y012953D01*
X022993Y012950D01*
X022942Y012951D01*
X022893Y012956D01*
X022843Y012965D01*
X022795Y012978D01*
X022748Y012994D01*
X022702Y013015D01*
X022658Y013039D01*
X022616Y013066D01*
X022576Y013096D01*
X022539Y013130D01*
X022505Y013167D01*
X022473Y013206D01*
X022445Y013247D01*
X022420Y013291D01*
X022399Y013336D01*
X022382Y013383D01*
X022368Y013431D01*
X022358Y013480D01*
X022352Y013530D01*
X022350Y013580D01*
X001550Y013580D02*
X001552Y013630D01*
X001558Y013680D01*
X001568Y013729D01*
X001582Y013777D01*
X001599Y013824D01*
X001620Y013869D01*
X001645Y013913D01*
X001673Y013954D01*
X001705Y013993D01*
X001739Y014030D01*
X001776Y014064D01*
X001816Y014094D01*
X001858Y014121D01*
X001902Y014145D01*
X001948Y014166D01*
X001995Y014182D01*
X002043Y014195D01*
X002093Y014204D01*
X002142Y014209D01*
X002193Y014210D01*
X002243Y014207D01*
X002292Y014200D01*
X002341Y014189D01*
X002389Y014174D01*
X002435Y014156D01*
X002480Y014134D01*
X002523Y014108D01*
X002564Y014079D01*
X002603Y014047D01*
X002639Y014012D01*
X002671Y013974D01*
X002701Y013934D01*
X002728Y013891D01*
X002751Y013847D01*
X002770Y013801D01*
X002786Y013753D01*
X002798Y013704D01*
X002806Y013655D01*
X002810Y013605D01*
X002810Y013555D01*
X002806Y013505D01*
X002798Y013456D01*
X002786Y013407D01*
X002770Y013359D01*
X002751Y013313D01*
X002728Y013269D01*
X002701Y013226D01*
X002671Y013186D01*
X002639Y013148D01*
X002603Y013113D01*
X002564Y013081D01*
X002523Y013052D01*
X002480Y013026D01*
X002435Y013004D01*
X002389Y012986D01*
X002341Y012971D01*
X002292Y012960D01*
X002243Y012953D01*
X002193Y012950D01*
X002142Y012951D01*
X002093Y012956D01*
X002043Y012965D01*
X001995Y012978D01*
X001948Y012994D01*
X001902Y013015D01*
X001858Y013039D01*
X001816Y013066D01*
X001776Y013096D01*
X001739Y013130D01*
X001705Y013167D01*
X001673Y013206D01*
X001645Y013247D01*
X001620Y013291D01*
X001599Y013336D01*
X001582Y013383D01*
X001568Y013431D01*
X001558Y013480D01*
X001552Y013530D01*
X001550Y013580D01*
D11*
X004361Y011267D02*
X004361Y011073D01*
X004409Y011025D01*
X004506Y011025D01*
X004555Y011073D01*
X004555Y011170D01*
X004458Y011170D01*
X004555Y011267D02*
X004506Y011315D01*
X004409Y011315D01*
X004361Y011267D01*
X004656Y011315D02*
X004849Y011025D01*
X004849Y011315D01*
X004950Y011315D02*
X005095Y011315D01*
X005144Y011267D01*
X005144Y011073D01*
X005095Y011025D01*
X004950Y011025D01*
X004950Y011315D01*
X004656Y011315D02*
X004656Y011025D01*
X004601Y010315D02*
X004504Y010315D01*
X004456Y010267D01*
X004456Y010073D01*
X004504Y010025D01*
X004601Y010025D01*
X004649Y010073D01*
X004750Y010073D02*
X004750Y010267D01*
X004799Y010315D01*
X004895Y010315D01*
X004944Y010267D01*
X004944Y010073D02*
X004895Y010025D01*
X004799Y010025D01*
X004750Y010073D01*
X004649Y010267D02*
X004601Y010315D01*
X004355Y010315D02*
X004355Y010122D01*
X004258Y010025D01*
X004161Y010122D01*
X004161Y010315D01*
X004209Y009315D02*
X004161Y009267D01*
X004161Y009218D01*
X004209Y009170D01*
X004306Y009170D01*
X004355Y009122D01*
X004355Y009073D01*
X004306Y009025D01*
X004209Y009025D01*
X004161Y009073D01*
X004355Y009267D02*
X004306Y009315D01*
X004209Y009315D01*
X004456Y009315D02*
X004601Y009315D01*
X004649Y009267D01*
X004649Y009073D01*
X004601Y009025D01*
X004456Y009025D01*
X004456Y009315D01*
X004750Y009218D02*
X004847Y009315D01*
X004944Y009218D01*
X004944Y009025D01*
X004944Y009170D02*
X004750Y009170D01*
X004750Y009218D02*
X004750Y009025D01*
X004750Y008315D02*
X004750Y008025D01*
X004944Y008025D01*
X004649Y008073D02*
X004601Y008025D01*
X004504Y008025D01*
X004456Y008073D01*
X004456Y008267D01*
X004504Y008315D01*
X004601Y008315D01*
X004649Y008267D01*
X004355Y008267D02*
X004306Y008315D01*
X004209Y008315D01*
X004161Y008267D01*
X004161Y008218D01*
X004209Y008170D01*
X004306Y008170D01*
X004355Y008122D01*
X004355Y008073D01*
X004306Y008025D01*
X004209Y008025D01*
X004161Y008073D01*
X007193Y011095D02*
X007290Y011095D01*
X007338Y011143D01*
X007440Y011095D02*
X007633Y011095D01*
X007536Y011095D02*
X007536Y011385D01*
X007440Y011288D01*
X007338Y011337D02*
X007290Y011385D01*
X007193Y011385D01*
X007145Y011337D01*
X007145Y011143D01*
X007193Y011095D01*
X014195Y013995D02*
X014388Y013995D01*
X014490Y013995D02*
X014683Y014285D01*
X014784Y014285D02*
X014978Y014285D01*
X014881Y014285D02*
X014881Y013995D01*
X014683Y013995D02*
X014490Y014285D01*
X014388Y014285D02*
X014195Y014285D01*
X014195Y013995D01*
X014195Y014140D02*
X014292Y014140D01*
X015374Y014188D02*
X015422Y014140D01*
X015519Y014140D01*
X015567Y014092D01*
X015567Y014043D01*
X015519Y013995D01*
X015422Y013995D01*
X015374Y014043D01*
X015374Y014188D02*
X015374Y014237D01*
X015422Y014285D01*
X015519Y014285D01*
X015567Y014237D01*
X015668Y014188D02*
X015668Y014043D01*
X015717Y013995D01*
X015862Y013995D01*
X015862Y014188D01*
X015963Y014188D02*
X016108Y014188D01*
X016156Y014140D01*
X016156Y014043D01*
X016108Y013995D01*
X015963Y013995D01*
X015963Y013898D02*
X015963Y014188D01*
X016258Y014188D02*
X016403Y014188D01*
X016451Y014140D01*
X016451Y014043D01*
X016403Y013995D01*
X016258Y013995D01*
X016258Y013898D02*
X016258Y014188D01*
X016552Y014285D02*
X016601Y014285D01*
X016601Y013995D01*
X016649Y013995D02*
X016552Y013995D01*
X016749Y014043D02*
X016797Y013995D01*
X016942Y013995D01*
X016942Y013947D02*
X016894Y013898D01*
X016845Y013898D01*
X016942Y013947D02*
X016942Y014188D01*
X016749Y014188D02*
X016749Y014043D01*
X020859Y011515D02*
X020956Y011515D01*
X020908Y011515D02*
X020908Y011225D01*
X020956Y011225D02*
X020859Y011225D01*
X021056Y011225D02*
X021201Y011225D01*
X021249Y011273D01*
X021249Y011467D01*
X021201Y011515D01*
X021056Y011515D01*
X021056Y011225D01*
X021350Y011322D02*
X021544Y011322D01*
X021544Y011418D02*
X021495Y011418D01*
X021350Y011418D01*
X021399Y011515D02*
X021399Y011225D01*
X021495Y011225D02*
X021495Y011515D01*
X019544Y011025D02*
X019350Y011025D01*
X019350Y011315D01*
X019249Y011267D02*
X019201Y011315D01*
X019104Y011315D01*
X019056Y011267D01*
X019056Y011073D01*
X019104Y011025D01*
X019201Y011025D01*
X019249Y011073D01*
X018955Y011073D02*
X018955Y011122D01*
X018906Y011170D01*
X018809Y011170D01*
X018761Y011218D01*
X018761Y011267D01*
X018809Y011315D01*
X018906Y011315D01*
X018955Y011267D01*
X018955Y011073D02*
X018906Y011025D01*
X018809Y011025D01*
X018761Y011073D01*
X018809Y010315D02*
X018761Y010267D01*
X018761Y010218D01*
X018809Y010170D01*
X018906Y010170D01*
X018955Y010122D01*
X018955Y010073D01*
X018906Y010025D01*
X018809Y010025D01*
X018761Y010073D01*
X018955Y010267D02*
X018906Y010315D01*
X018809Y010315D01*
X019056Y010315D02*
X019201Y010315D01*
X019249Y010267D01*
X019249Y010073D01*
X019201Y010025D01*
X019056Y010025D01*
X019056Y010315D01*
X019350Y010218D02*
X019447Y010315D01*
X019544Y010218D01*
X019544Y010025D01*
X019544Y010170D02*
X019350Y010170D01*
X019350Y010218D02*
X019350Y010025D01*
X019399Y009315D02*
X019350Y009267D01*
X019350Y009073D01*
X019399Y009025D01*
X019495Y009025D01*
X019544Y009073D01*
X019544Y009267D02*
X019495Y009315D01*
X019399Y009315D01*
X019249Y009267D02*
X019201Y009315D01*
X019104Y009315D01*
X019056Y009267D01*
X019056Y009073D01*
X019104Y009025D01*
X019201Y009025D01*
X019249Y009073D01*
X018955Y009122D02*
X018955Y009315D01*
X018955Y009122D02*
X018858Y009025D01*
X018761Y009122D01*
X018761Y009315D01*
X018809Y008315D02*
X018761Y008267D01*
X018761Y008073D01*
X018809Y008025D01*
X018906Y008025D01*
X018955Y008073D01*
X018955Y008170D01*
X018858Y008170D01*
X018955Y008267D02*
X018906Y008315D01*
X018809Y008315D01*
X019056Y008315D02*
X019249Y008025D01*
X019249Y008315D01*
X019350Y008315D02*
X019495Y008315D01*
X019544Y008267D01*
X019544Y008073D01*
X019495Y008025D01*
X019350Y008025D01*
X019350Y008315D01*
X019056Y008315D02*
X019056Y008025D01*
X016783Y008743D02*
X016735Y008695D01*
X016638Y008695D01*
X016590Y008743D01*
X016783Y008937D01*
X016783Y008743D01*
X016590Y008743D02*
X016590Y008937D01*
X016638Y008985D01*
X016735Y008985D01*
X016783Y008937D01*
X016488Y008888D02*
X016488Y008695D01*
X016488Y008840D02*
X016295Y008840D01*
X016295Y008888D02*
X016392Y008985D01*
X016488Y008888D01*
X016295Y008888D02*
X016295Y008695D01*
X016295Y011095D02*
X016295Y011288D01*
X016392Y011385D01*
X016488Y011288D01*
X016488Y011095D01*
X016590Y011095D02*
X016783Y011288D01*
X016783Y011337D01*
X016735Y011385D01*
X016638Y011385D01*
X016590Y011337D01*
X016488Y011240D02*
X016295Y011240D01*
X016590Y011095D02*
X016783Y011095D01*
X018385Y004094D02*
X018385Y003900D01*
X018385Y003997D02*
X018095Y003997D01*
X018192Y003900D01*
X018240Y003799D02*
X018288Y003751D01*
X018288Y003606D01*
X018288Y003702D02*
X018385Y003799D01*
X018240Y003799D02*
X018143Y003799D01*
X018095Y003751D01*
X018095Y003606D01*
X018385Y003606D01*
X020295Y003551D02*
X020295Y003406D01*
X020585Y003406D01*
X020488Y003406D02*
X020488Y003551D01*
X020440Y003599D01*
X020343Y003599D01*
X020295Y003551D01*
X020343Y003700D02*
X020295Y003749D01*
X020295Y003845D01*
X020343Y003894D01*
X020392Y003894D01*
X020585Y003700D01*
X020585Y003894D01*
X020585Y003599D02*
X020488Y003502D01*
X019231Y001364D02*
X019231Y001315D01*
X019231Y001218D02*
X019231Y001025D01*
X019279Y001025D02*
X019182Y001025D01*
X019081Y001025D02*
X018936Y001025D01*
X018888Y001073D01*
X018936Y001122D01*
X019081Y001122D01*
X019081Y001170D02*
X019081Y001025D01*
X019081Y001170D02*
X019033Y001218D01*
X018936Y001218D01*
X018787Y001315D02*
X018787Y001025D01*
X018593Y001025D02*
X018593Y001315D01*
X018690Y001218D01*
X018787Y001315D01*
X019182Y001218D02*
X019231Y001218D01*
X019379Y001315D02*
X019427Y001315D01*
X019427Y001025D01*
X019379Y001025D02*
X019476Y001025D01*
X019575Y001025D02*
X019672Y001025D01*
X019624Y001025D02*
X019624Y001315D01*
X019575Y001315D01*
X019772Y001170D02*
X019772Y001073D01*
X019820Y001025D01*
X019917Y001025D01*
X019965Y001073D01*
X019965Y001170D01*
X019917Y001218D01*
X019820Y001218D01*
X019772Y001170D01*
X020066Y001218D02*
X020066Y001073D01*
X020115Y001025D01*
X020260Y001025D01*
X020260Y001218D01*
X020361Y001218D02*
X020555Y001025D01*
X020555Y001218D02*
X020361Y001025D01*
X018197Y001073D02*
X018149Y001122D01*
X018052Y001122D01*
X018004Y001170D01*
X018052Y001218D01*
X018197Y001218D01*
X018197Y001073D02*
X018149Y001025D01*
X018004Y001025D01*
X017904Y001025D02*
X017807Y001025D01*
X017856Y001025D02*
X017856Y001218D01*
X017807Y001218D01*
X017707Y001218D02*
X017659Y001218D01*
X017562Y001122D01*
X017562Y001218D02*
X017562Y001025D01*
X017461Y001025D02*
X017461Y001170D01*
X017412Y001218D01*
X017316Y001218D01*
X017267Y001170D01*
X017166Y001073D02*
X017118Y001025D01*
X017021Y001025D01*
X016973Y001073D01*
X016973Y001267D01*
X017021Y001315D01*
X017118Y001315D01*
X017166Y001267D01*
X017267Y001315D02*
X017267Y001025D01*
X017856Y001315D02*
X017856Y001364D01*
X016577Y001170D02*
X016383Y001170D01*
X016528Y001315D01*
X016528Y001025D01*
X016282Y001025D02*
X016089Y001025D01*
X016185Y001025D02*
X016185Y001315D01*
X016089Y001218D01*
X015987Y001267D02*
X015794Y001073D01*
X015842Y001025D01*
X015939Y001025D01*
X015987Y001073D01*
X015987Y001267D01*
X015939Y001315D01*
X015842Y001315D01*
X015794Y001267D01*
X015794Y001073D01*
X015693Y001025D02*
X015499Y001025D01*
X015693Y001218D01*
X015693Y001267D01*
X015644Y001315D01*
X015548Y001315D01*
X015499Y001267D01*
D12*
X017800Y006400D02*
X017800Y006860D01*
X018030Y006860D01*
X018107Y006784D01*
X018107Y006630D01*
X018030Y006553D01*
X017800Y006553D01*
X017953Y006553D02*
X018107Y006400D01*
X018260Y006477D02*
X018337Y006400D01*
X018491Y006400D01*
X018567Y006553D02*
X018260Y006553D01*
X018260Y006477D02*
X018260Y006630D01*
X018337Y006707D01*
X018491Y006707D01*
X018567Y006630D01*
X018567Y006553D01*
X018721Y006553D02*
X019028Y006553D01*
X019028Y006630D01*
X018951Y006707D01*
X018798Y006707D01*
X018721Y006630D01*
X018721Y006477D01*
X018798Y006400D01*
X018951Y006400D01*
X019258Y006400D02*
X019258Y006784D01*
X019335Y006860D01*
X019335Y006630D02*
X019181Y006630D01*
X019488Y006630D02*
X019565Y006553D01*
X019718Y006553D01*
X019795Y006477D01*
X019718Y006400D01*
X019488Y006400D01*
X019488Y006630D02*
X019565Y006707D01*
X019795Y006707D01*
X019948Y006630D02*
X019948Y006477D01*
X020025Y006400D01*
X020179Y006400D01*
X020255Y006553D02*
X019948Y006553D01*
X019948Y006630D02*
X020025Y006707D01*
X020179Y006707D01*
X020255Y006630D01*
X020255Y006553D01*
X020409Y006400D02*
X020409Y006707D01*
X020639Y006707D01*
X020716Y006630D01*
X020716Y006400D01*
X020869Y006400D02*
X021099Y006400D01*
X021176Y006477D01*
X021099Y006553D01*
X020946Y006553D01*
X020869Y006630D01*
X020946Y006707D01*
X021176Y006707D01*
X021330Y006630D02*
X021330Y006477D01*
X021406Y006400D01*
X021560Y006400D01*
X021637Y006553D02*
X021330Y006553D01*
X021330Y006630D02*
X021406Y006707D01*
X021560Y006707D01*
X021637Y006630D01*
X021637Y006553D01*
X021790Y006477D02*
X021867Y006477D01*
X021867Y006400D01*
X021790Y006400D01*
X021790Y006477D01*
X022020Y006477D02*
X022097Y006400D01*
X022327Y006400D01*
X022481Y006477D02*
X022557Y006400D01*
X022711Y006400D01*
X022788Y006477D01*
X022788Y006630D01*
X022711Y006707D01*
X022557Y006707D01*
X022481Y006630D01*
X022481Y006477D01*
X022327Y006707D02*
X022097Y006707D01*
X022020Y006630D01*
X022020Y006477D01*
X022941Y006400D02*
X022941Y006707D01*
X023018Y006707D01*
X023095Y006630D01*
X023171Y006707D01*
X023248Y006630D01*
X023248Y006400D01*
X023095Y006400D02*
X023095Y006630D01*
X023000Y008498D02*
X023000Y008728D01*
X023076Y008805D01*
X023230Y008805D01*
X023307Y008728D01*
X023307Y008498D01*
X023460Y008498D02*
X023000Y008498D01*
X023307Y008651D02*
X023460Y008805D01*
X023383Y008958D02*
X023230Y008958D01*
X023153Y009035D01*
X023153Y009189D01*
X023230Y009265D01*
X023307Y009265D01*
X023307Y008958D01*
X023383Y008958D02*
X023460Y009035D01*
X023460Y009189D01*
X023153Y009419D02*
X023460Y009572D01*
X023153Y009726D01*
X023076Y010340D02*
X023000Y010416D01*
X023000Y010570D01*
X023076Y010647D01*
X023383Y010647D02*
X023460Y010570D01*
X023460Y010416D01*
X023383Y010340D01*
X023076Y010340D01*
X019780Y013840D02*
X019780Y014147D01*
X019626Y013993D02*
X019933Y013993D01*
X017333Y013993D02*
X017026Y013993D01*
X017180Y013840D02*
X017180Y014147D01*
X013960Y012826D02*
X013500Y012826D01*
X013500Y012673D02*
X013500Y012980D01*
X013730Y012519D02*
X013730Y012212D01*
X013500Y012443D01*
X013960Y012443D01*
X013576Y012059D02*
X013883Y011752D01*
X013960Y011752D01*
X013883Y011598D02*
X013960Y011522D01*
X013960Y011368D01*
X013883Y011292D01*
X013730Y011292D02*
X013653Y011445D01*
X013653Y011522D01*
X013730Y011598D01*
X013883Y011598D01*
X013500Y011598D02*
X013500Y011292D01*
X013730Y011292D01*
X013807Y011138D02*
X013883Y011138D01*
X013960Y011061D01*
X013960Y010908D01*
X013883Y010831D01*
X013807Y010831D01*
X013730Y010908D01*
X013730Y011061D01*
X013807Y011138D01*
X013730Y011061D02*
X013653Y011138D01*
X013576Y011138D01*
X013500Y011061D01*
X013500Y010908D01*
X013576Y010831D01*
X013653Y010831D01*
X013730Y010908D01*
X013500Y010678D02*
X013500Y010371D01*
X013960Y010371D01*
X013883Y010217D02*
X013960Y010141D01*
X013960Y009987D01*
X013883Y009910D01*
X013576Y009910D01*
X013500Y009987D01*
X013500Y010141D01*
X013576Y010217D01*
X013730Y010371D02*
X013730Y010524D01*
X013730Y009757D02*
X013576Y009757D01*
X013500Y009680D01*
X013500Y009450D01*
X013960Y009450D01*
X013807Y009450D02*
X013807Y009680D01*
X013730Y009757D01*
X013500Y011752D02*
X013500Y012059D01*
X013576Y012059D01*
X008860Y011524D02*
X008860Y011217D01*
X008860Y011371D02*
X008400Y011371D01*
X008553Y011217D01*
X008476Y011064D02*
X008400Y010987D01*
X008400Y010834D01*
X008476Y010757D01*
X008783Y010757D01*
X008860Y010834D01*
X008860Y010987D01*
X008783Y011064D01*
X008860Y010603D02*
X008860Y010450D01*
X008860Y010527D02*
X008400Y010527D01*
X008400Y010603D02*
X008400Y010450D01*
X008032Y012000D02*
X007878Y012000D01*
X007801Y012077D01*
X007801Y012230D01*
X007878Y012307D01*
X008032Y012307D01*
X008108Y012230D01*
X008108Y012153D01*
X007801Y012153D01*
X007648Y012000D02*
X007418Y012000D01*
X007341Y012077D01*
X007341Y012230D01*
X007418Y012307D01*
X007648Y012307D01*
X007188Y012230D02*
X007188Y012000D01*
X006957Y012000D01*
X006881Y012077D01*
X006957Y012153D01*
X007188Y012153D01*
X007188Y012230D02*
X007111Y012307D01*
X006957Y012307D01*
X006727Y012230D02*
X006574Y012230D01*
X006650Y012384D02*
X006650Y012000D01*
X006420Y012307D02*
X006344Y012307D01*
X006190Y012153D01*
X006190Y012000D02*
X006190Y012307D01*
X006037Y012230D02*
X005960Y012307D01*
X005806Y012307D01*
X005730Y012230D01*
X005730Y012077D01*
X005806Y012000D01*
X005960Y012000D01*
X006037Y012153D02*
X005730Y012153D01*
X005576Y012000D02*
X005499Y012077D01*
X005499Y012384D01*
X005423Y012307D02*
X005576Y012307D01*
X005269Y012230D02*
X005269Y012000D01*
X005269Y012230D02*
X005193Y012307D01*
X004962Y012307D01*
X004962Y012000D01*
X004809Y012000D02*
X004655Y012000D01*
X004732Y012000D02*
X004732Y012460D01*
X004655Y012460D02*
X004809Y012460D01*
X004042Y012307D02*
X003888Y012307D01*
X003965Y012384D02*
X003965Y012077D01*
X004042Y012000D01*
X003735Y012000D02*
X003735Y012307D01*
X003428Y012307D02*
X003428Y012077D01*
X003504Y012000D01*
X003735Y012000D01*
X003274Y012077D02*
X003274Y012230D01*
X003198Y012307D01*
X002967Y012307D01*
X002967Y011847D01*
X002967Y012000D02*
X003198Y012000D01*
X003274Y012077D01*
X002814Y012000D02*
X002814Y012230D01*
X002737Y012307D01*
X002507Y012307D01*
X002507Y012000D01*
X002353Y012000D02*
X002200Y012000D01*
X002277Y012000D02*
X002277Y012460D01*
X002353Y012460D02*
X002200Y012460D01*
X006037Y012230D02*
X006037Y012153D01*
X006650Y012384D02*
X006727Y012460D01*
D13*
X014210Y009930D02*
X014637Y009930D01*
X014780Y009680D02*
X014780Y010280D01*
X014782Y010297D01*
X014786Y010314D01*
X014793Y010330D01*
X014803Y010344D01*
X014816Y010357D01*
X014830Y010367D01*
X014846Y010374D01*
X014863Y010378D01*
X014880Y010380D01*
X015880Y010380D01*
X015897Y010378D01*
X015914Y010374D01*
X015930Y010367D01*
X015944Y010357D01*
X015957Y010344D01*
X015967Y010330D01*
X015974Y010314D01*
X015978Y010297D01*
X015980Y010280D01*
X015980Y009680D01*
X015978Y009663D01*
X015974Y009646D01*
X015967Y009630D01*
X015957Y009616D01*
X015944Y009603D01*
X015930Y009593D01*
X015914Y009586D01*
X015897Y009582D01*
X015880Y009580D01*
X014880Y009580D01*
X014863Y009582D01*
X014846Y009586D01*
X014830Y009593D01*
X014816Y009603D01*
X014803Y009616D01*
X014793Y009630D01*
X014786Y009646D01*
X014782Y009663D01*
X014780Y009680D01*
X014880Y009180D02*
X015880Y009180D01*
X015897Y009178D01*
X015914Y009174D01*
X015930Y009167D01*
X015944Y009157D01*
X015957Y009144D01*
X015967Y009130D01*
X015974Y009114D01*
X015978Y009097D01*
X015980Y009080D01*
X015980Y008480D01*
X015978Y008463D01*
X015974Y008446D01*
X015967Y008430D01*
X015957Y008416D01*
X015944Y008403D01*
X015930Y008393D01*
X015914Y008386D01*
X015897Y008382D01*
X015880Y008380D01*
X014880Y008380D01*
X014863Y008382D01*
X014846Y008386D01*
X014830Y008393D01*
X014816Y008403D01*
X014803Y008416D01*
X014793Y008430D01*
X014786Y008446D01*
X014782Y008463D01*
X014780Y008480D01*
X014780Y009080D01*
X014782Y009097D01*
X014786Y009114D01*
X014793Y009130D01*
X014803Y009144D01*
X014816Y009157D01*
X014830Y009167D01*
X014846Y009174D01*
X014863Y009178D01*
X014880Y009180D01*
X016424Y009917D02*
X016424Y010344D01*
X016637Y010130D02*
X016210Y010130D01*
X015880Y010780D02*
X014880Y010780D01*
X014863Y010782D01*
X014846Y010786D01*
X014830Y010793D01*
X014816Y010803D01*
X014803Y010816D01*
X014793Y010830D01*
X014786Y010846D01*
X014782Y010863D01*
X014780Y010880D01*
X014780Y011480D01*
X014782Y011497D01*
X014786Y011514D01*
X014793Y011530D01*
X014803Y011544D01*
X014816Y011557D01*
X014830Y011567D01*
X014846Y011574D01*
X014863Y011578D01*
X014880Y011580D01*
X015880Y011580D01*
X015897Y011578D01*
X015914Y011574D01*
X015930Y011567D01*
X015944Y011557D01*
X015957Y011544D01*
X015967Y011530D01*
X015974Y011514D01*
X015978Y011497D01*
X015980Y011480D01*
X015980Y010880D01*
X015978Y010863D01*
X015974Y010846D01*
X015967Y010830D01*
X015957Y010816D01*
X015944Y010803D01*
X015930Y010793D01*
X015914Y010786D01*
X015897Y010782D01*
X015880Y010780D01*
X016080Y012580D02*
X016680Y012580D01*
X016697Y012582D01*
X016714Y012586D01*
X016730Y012593D01*
X016744Y012603D01*
X016757Y012616D01*
X016767Y012630D01*
X016774Y012646D01*
X016778Y012663D01*
X016780Y012680D01*
X016780Y013680D01*
X016778Y013697D01*
X016774Y013714D01*
X016767Y013730D01*
X016757Y013744D01*
X016744Y013757D01*
X016730Y013767D01*
X016714Y013774D01*
X016697Y013778D01*
X016680Y013780D01*
X016080Y013780D01*
X016063Y013778D01*
X016046Y013774D01*
X016030Y013767D01*
X016016Y013757D01*
X016003Y013744D01*
X015993Y013730D01*
X015986Y013714D01*
X015982Y013697D01*
X015980Y013680D01*
X015980Y012680D01*
X015982Y012663D01*
X015986Y012646D01*
X015993Y012630D01*
X016003Y012616D01*
X016016Y012603D01*
X016030Y012593D01*
X016046Y012586D01*
X016063Y012582D01*
X016080Y012580D01*
X015380Y012680D02*
X015380Y013680D01*
X015378Y013697D01*
X015374Y013714D01*
X015367Y013730D01*
X015357Y013744D01*
X015344Y013757D01*
X015330Y013767D01*
X015314Y013774D01*
X015297Y013778D01*
X015280Y013780D01*
X014680Y013780D01*
X014663Y013778D01*
X014646Y013774D01*
X014630Y013767D01*
X014616Y013757D01*
X014603Y013744D01*
X014593Y013730D01*
X014586Y013714D01*
X014582Y013697D01*
X014580Y013680D01*
X014580Y012680D01*
X014582Y012663D01*
X014586Y012646D01*
X014593Y012630D01*
X014603Y012616D01*
X014616Y012603D01*
X014630Y012593D01*
X014646Y012586D01*
X014663Y012582D01*
X014680Y012580D01*
X015280Y012580D01*
X015297Y012582D01*
X015314Y012586D01*
X015330Y012593D01*
X015344Y012603D01*
X015357Y012616D01*
X015367Y012630D01*
X015374Y012646D01*
X015378Y012663D01*
X015380Y012680D01*
X002700Y007358D02*
X002700Y007188D01*
X002587Y007245D02*
X002530Y007188D01*
X002473Y007245D01*
X002473Y007415D01*
X002587Y007358D02*
X002587Y007245D01*
X002587Y007358D02*
X002643Y007415D01*
X002700Y007358D01*
X002700Y007047D02*
X002530Y007047D01*
X002473Y006990D01*
X002530Y006933D01*
X002700Y006933D01*
X002700Y006820D02*
X002473Y006820D01*
X002473Y006877D01*
X002530Y006933D01*
X002530Y006678D02*
X002700Y006678D01*
X002530Y006678D02*
X002473Y006622D01*
X002473Y006508D01*
X002530Y006452D01*
X002530Y006310D02*
X002473Y006253D01*
X002473Y006140D01*
X002530Y006083D01*
X002643Y006083D01*
X002700Y006140D01*
X002700Y006253D01*
X002643Y006310D01*
X002530Y006310D01*
X002360Y006452D02*
X002700Y006452D01*
X002643Y005573D02*
X002416Y005573D01*
X002643Y005347D01*
X002700Y005403D01*
X002700Y005517D01*
X002643Y005573D01*
X002643Y005347D02*
X002416Y005347D01*
X002360Y005403D01*
X002360Y005517D01*
X002416Y005573D01*
X002416Y005205D02*
X002473Y005205D01*
X002530Y005148D01*
X002587Y005205D01*
X002643Y005205D01*
X002700Y005148D01*
X002700Y005035D01*
X002643Y004978D01*
X002643Y004837D02*
X002700Y004780D01*
X002700Y004667D01*
X002643Y004610D01*
X002530Y004723D02*
X002530Y004780D01*
X002587Y004837D01*
X002643Y004837D01*
X002530Y004780D02*
X002473Y004837D01*
X002416Y004837D01*
X002360Y004780D01*
X002360Y004667D01*
X002416Y004610D01*
X002416Y004978D02*
X002360Y005035D01*
X002360Y005148D01*
X002416Y005205D01*
X002530Y005148D02*
X002530Y005092D01*
X006360Y004452D02*
X006700Y004452D01*
X006643Y004310D02*
X006530Y004310D01*
X006473Y004253D01*
X006473Y004140D01*
X006530Y004083D01*
X006643Y004083D01*
X006700Y004140D01*
X006700Y004253D01*
X006643Y004310D01*
X006530Y004452D02*
X006473Y004508D01*
X006473Y004622D01*
X006530Y004678D01*
X006700Y004678D01*
X006700Y004820D02*
X006473Y004820D01*
X006473Y004877D01*
X006530Y004933D01*
X006473Y004990D01*
X006530Y005047D01*
X006700Y005047D01*
X006700Y004933D02*
X006530Y004933D01*
X006530Y005188D02*
X006473Y005245D01*
X006473Y005415D01*
X006587Y005358D02*
X006587Y005245D01*
X006530Y005188D01*
X006700Y005188D02*
X006700Y005358D01*
X006643Y005415D01*
X006587Y005358D01*
X006643Y003573D02*
X006416Y003573D01*
X006643Y003347D01*
X006700Y003403D01*
X006700Y003517D01*
X006643Y003573D01*
X006643Y003347D02*
X006416Y003347D01*
X006360Y003403D01*
X006360Y003517D01*
X006416Y003573D01*
X006416Y003205D02*
X006473Y003205D01*
X006530Y003148D01*
X006587Y003205D01*
X006643Y003205D01*
X006700Y003148D01*
X006700Y003035D01*
X006643Y002978D01*
X006643Y002837D02*
X006700Y002780D01*
X006700Y002667D01*
X006643Y002610D01*
X006530Y002723D02*
X006530Y002780D01*
X006587Y002837D01*
X006643Y002837D01*
X006530Y002780D02*
X006473Y002837D01*
X006416Y002837D01*
X006360Y002780D01*
X006360Y002667D01*
X006416Y002610D01*
X006416Y002978D02*
X006360Y003035D01*
X006360Y003148D01*
X006416Y003205D01*
X006530Y003148D02*
X006530Y003092D01*
X010360Y003035D02*
X010360Y003148D01*
X010416Y003205D01*
X010473Y003205D01*
X010530Y003148D01*
X010587Y003205D01*
X010643Y003205D01*
X010700Y003148D01*
X010700Y003035D01*
X010643Y002978D01*
X010643Y002837D02*
X010700Y002780D01*
X010700Y002667D01*
X010643Y002610D01*
X010530Y002723D02*
X010530Y002780D01*
X010587Y002837D01*
X010643Y002837D01*
X010530Y002780D02*
X010473Y002837D01*
X010416Y002837D01*
X010360Y002780D01*
X010360Y002667D01*
X010416Y002610D01*
X010416Y002978D02*
X010360Y003035D01*
X010530Y003092D02*
X010530Y003148D01*
X010643Y003347D02*
X010416Y003347D01*
X010360Y003403D01*
X010360Y003517D01*
X010416Y003573D01*
X010643Y003347D01*
X010700Y003403D01*
X010700Y003517D01*
X010643Y003573D01*
X010416Y003573D01*
X010530Y004083D02*
X010643Y004083D01*
X010700Y004140D01*
X010700Y004253D01*
X010643Y004310D01*
X010530Y004310D01*
X010473Y004253D01*
X010473Y004140D01*
X010530Y004083D01*
X010530Y004452D02*
X010473Y004508D01*
X010473Y004622D01*
X010530Y004678D01*
X010700Y004678D01*
X010700Y004820D02*
X010473Y004820D01*
X010473Y004877D01*
X010530Y004933D01*
X010473Y004990D01*
X010530Y005047D01*
X010700Y005047D01*
X010700Y004933D02*
X010530Y004933D01*
X010530Y005188D02*
X010473Y005245D01*
X010473Y005415D01*
X010587Y005358D02*
X010587Y005245D01*
X010530Y005188D01*
X010700Y005188D02*
X010700Y005358D01*
X010643Y005415D01*
X010587Y005358D01*
X010700Y004452D02*
X010360Y004452D01*
X013960Y004452D02*
X014300Y004452D01*
X014243Y004310D02*
X014130Y004310D01*
X014073Y004253D01*
X014073Y004140D01*
X014130Y004083D01*
X014243Y004083D01*
X014300Y004140D01*
X014300Y004253D01*
X014243Y004310D01*
X014130Y004452D02*
X014073Y004508D01*
X014073Y004622D01*
X014130Y004678D01*
X014300Y004678D01*
X014300Y004820D02*
X014073Y004820D01*
X014073Y004877D01*
X014130Y004933D01*
X014073Y004990D01*
X014130Y005047D01*
X014300Y005047D01*
X014300Y004933D02*
X014130Y004933D01*
X014130Y005188D02*
X014073Y005245D01*
X014073Y005415D01*
X014187Y005358D02*
X014187Y005245D01*
X014130Y005188D01*
X014300Y005188D02*
X014300Y005358D01*
X014243Y005415D01*
X014187Y005358D01*
X014243Y003573D02*
X014016Y003573D01*
X014243Y003347D01*
X014300Y003403D01*
X014300Y003517D01*
X014243Y003573D01*
X014243Y003347D02*
X014016Y003347D01*
X013960Y003403D01*
X013960Y003517D01*
X014016Y003573D01*
X014016Y003205D02*
X014073Y003205D01*
X014130Y003148D01*
X014187Y003205D01*
X014243Y003205D01*
X014300Y003148D01*
X014300Y003035D01*
X014243Y002978D01*
X014243Y002837D02*
X014300Y002780D01*
X014300Y002667D01*
X014243Y002610D01*
X014130Y002723D02*
X014130Y002780D01*
X014187Y002837D01*
X014243Y002837D01*
X014130Y002780D02*
X014073Y002837D01*
X014016Y002837D01*
X013960Y002780D01*
X013960Y002667D01*
X014016Y002610D01*
X014016Y002978D02*
X013960Y003035D01*
X013960Y003148D01*
X014016Y003205D01*
X014130Y003148D02*
X014130Y003092D01*
X018860Y003439D02*
X018916Y003382D01*
X018860Y003439D02*
X018860Y003552D01*
X018916Y003609D01*
X018973Y003609D01*
X019200Y003382D01*
X019200Y003609D01*
X019200Y003751D02*
X019200Y003807D01*
X019143Y003807D01*
X019143Y003751D01*
X019200Y003751D01*
X019200Y003935D02*
X018973Y004162D01*
X018916Y004162D01*
X018860Y004105D01*
X018860Y003991D01*
X018916Y003935D01*
X019200Y003935D02*
X019200Y004162D01*
X019200Y004303D02*
X018860Y004303D01*
X018973Y004473D02*
X019087Y004303D01*
X019200Y004473D01*
X020860Y004303D02*
X021200Y004303D01*
X021087Y004303D02*
X020973Y004473D01*
X021087Y004303D02*
X021200Y004473D01*
X021200Y004162D02*
X021200Y003935D01*
X020973Y004162D01*
X020916Y004162D01*
X020860Y004105D01*
X020860Y003991D01*
X020916Y003935D01*
X021143Y003807D02*
X021200Y003807D01*
X021200Y003751D01*
X021143Y003751D01*
X021143Y003807D01*
X021200Y003609D02*
X021200Y003382D01*
X020973Y003609D01*
X020916Y003609D01*
X020860Y003552D01*
X020860Y003439D01*
X020916Y003382D01*
D14*
X021280Y009580D03*
D15*
X018280Y009430D02*
X018280Y008930D01*
X018030Y008680D01*
X018280Y008430D01*
X018280Y007930D01*
X018030Y007680D01*
X017530Y007680D01*
X017280Y007930D01*
X017280Y008430D01*
X017530Y008680D01*
X017280Y008930D01*
X017280Y009430D01*
X017530Y009680D01*
X017280Y009930D01*
X017280Y010430D01*
X017530Y010680D01*
X017280Y010930D01*
X017280Y011430D01*
X017530Y011680D01*
X018030Y011680D01*
X018280Y011430D01*
X018280Y010930D01*
X018030Y010680D01*
X018280Y010430D01*
X018280Y009930D01*
X018030Y009680D01*
X018280Y009430D01*
X018430Y012280D02*
X017930Y012280D01*
X017680Y012530D01*
X017680Y013030D01*
X017930Y013280D01*
X017680Y013530D01*
X017680Y014030D01*
X017930Y014280D01*
X018430Y014280D01*
X018680Y014030D01*
X018680Y013530D01*
X018430Y013280D01*
X018680Y013030D01*
X018680Y012530D01*
X018430Y012280D01*
X020280Y012530D02*
X020530Y012280D01*
X021030Y012280D01*
X021280Y012530D01*
X021280Y013030D01*
X021030Y013280D01*
X021280Y013530D01*
X021280Y014030D01*
X021030Y014280D01*
X020530Y014280D01*
X020280Y014030D01*
X020280Y013530D01*
X020530Y013280D01*
X020280Y013030D01*
X020280Y012530D01*
X007880Y010880D02*
X007880Y008880D01*
X006880Y008880D01*
X006880Y010880D01*
X007880Y010880D01*
X006480Y010930D02*
X006230Y010680D01*
X006480Y010430D01*
X006480Y009930D01*
X006230Y009680D01*
X006480Y009430D01*
X006480Y008930D01*
X006230Y008680D01*
X006480Y008430D01*
X006480Y007930D01*
X006230Y007680D01*
X005730Y007680D01*
X005480Y007930D01*
X005480Y008430D01*
X005730Y008680D01*
X005480Y008930D01*
X005480Y009430D01*
X005730Y009680D01*
X005480Y009930D01*
X005480Y010430D01*
X005730Y010680D01*
X005480Y010930D01*
X005480Y011430D01*
X005730Y011680D01*
X006230Y011680D01*
X006480Y011430D01*
X006480Y010930D01*
X007130Y009880D02*
X007630Y009880D01*
X002580Y006480D02*
X002580Y006380D01*
X002880Y006380D01*
X002880Y004380D01*
X002580Y004380D01*
X002580Y004280D01*
X002580Y004380D02*
X002280Y004380D01*
X002280Y006380D01*
X002580Y006380D01*
X004130Y004680D02*
X004630Y004680D01*
X004880Y004430D01*
X004880Y003930D01*
X004630Y003680D01*
X004880Y003430D01*
X004880Y002930D01*
X004630Y002680D01*
X004880Y002430D01*
X004880Y001930D01*
X004630Y001680D01*
X004130Y001680D01*
X003880Y001930D01*
X003880Y002430D01*
X004130Y002680D01*
X003880Y002930D01*
X003880Y003430D01*
X004130Y003680D01*
X003880Y003930D01*
X003880Y004430D01*
X004130Y004680D01*
X006280Y004380D02*
X006580Y004380D01*
X006580Y004480D01*
X006580Y004380D02*
X006880Y004380D01*
X006880Y002380D01*
X006580Y002380D01*
X006580Y002280D01*
X006580Y002380D02*
X006280Y002380D01*
X006280Y004380D01*
X008280Y004430D02*
X008280Y003930D01*
X008530Y003680D01*
X008280Y003430D01*
X008280Y002930D01*
X008530Y002680D01*
X008280Y002430D01*
X008280Y001930D01*
X008530Y001680D01*
X009030Y001680D01*
X009280Y001930D01*
X009280Y002430D01*
X009030Y002680D01*
X009280Y002930D01*
X009280Y003430D01*
X009030Y003680D01*
X009280Y003930D01*
X009280Y004430D01*
X009030Y004680D01*
X008530Y004680D01*
X008280Y004430D01*
X010280Y004380D02*
X010580Y004380D01*
X010580Y004480D01*
X010580Y004380D02*
X010880Y004380D01*
X010880Y002380D01*
X010580Y002380D01*
X010580Y002280D01*
X010580Y002380D02*
X010280Y002380D01*
X010280Y004380D01*
X012080Y004430D02*
X012080Y003930D01*
X012330Y003680D01*
X012080Y003430D01*
X012080Y002930D01*
X012330Y002680D01*
X012080Y002430D01*
X012080Y001930D01*
X012330Y001680D01*
X012830Y001680D01*
X013080Y001930D01*
X013080Y002430D01*
X012830Y002680D01*
X013080Y002930D01*
X013080Y003430D01*
X012830Y003680D01*
X013080Y003930D01*
X013080Y004430D01*
X012830Y004680D01*
X012330Y004680D01*
X012080Y004430D01*
X013880Y004380D02*
X014180Y004380D01*
X014180Y004480D01*
X014180Y004380D02*
X014480Y004380D01*
X014480Y002380D01*
X014180Y002380D01*
X014180Y002280D01*
X014180Y002380D02*
X013880Y002380D01*
X013880Y004380D01*
X015480Y004430D02*
X015480Y003930D01*
X015730Y003680D01*
X015480Y003430D01*
X015480Y002930D01*
X015730Y002680D01*
X015480Y002430D01*
X015480Y001930D01*
X015730Y001680D01*
X016230Y001680D01*
X016480Y001930D01*
X016480Y002430D01*
X016230Y002680D01*
X016480Y002930D01*
X016480Y003430D01*
X016230Y003680D01*
X016480Y003930D01*
X016480Y004430D01*
X016230Y004680D01*
X015730Y004680D01*
X015480Y004430D01*
X018680Y004780D02*
X018680Y002780D01*
X018980Y002780D01*
X018980Y002680D01*
X018980Y002780D02*
X019280Y002780D01*
X019280Y004780D01*
X018980Y004780D01*
X018980Y004880D01*
X018980Y004780D02*
X018680Y004780D01*
X020680Y004780D02*
X020980Y004780D01*
X020980Y004880D01*
X020980Y004780D02*
X021280Y004780D01*
X021280Y002780D01*
X020980Y002780D01*
X020980Y002680D01*
X020980Y002780D02*
X020680Y002780D01*
X020680Y004780D01*
D16*
X015975Y006824D02*
X015975Y006734D01*
X015975Y006735D02*
X015921Y006733D01*
X015868Y006727D01*
X015815Y006717D01*
X015763Y006703D01*
X015712Y006686D01*
X015663Y006665D01*
X015615Y006641D01*
X015569Y006613D01*
X015525Y006582D01*
X015483Y006548D01*
X015444Y006512D01*
X015407Y006472D01*
X015374Y006430D01*
X015343Y006386D01*
X015316Y006340D01*
X015237Y006382D01*
X015265Y006431D01*
X015297Y006477D01*
X015332Y006522D01*
X015369Y006564D01*
X015410Y006604D01*
X015453Y006640D01*
X015498Y006674D01*
X015545Y006705D01*
X015595Y006732D01*
X015646Y006756D01*
X015698Y006777D01*
X015752Y006794D01*
X015807Y006807D01*
X015862Y006817D01*
X015919Y006823D01*
X015975Y006825D01*
X015975Y006816D01*
X015919Y006814D01*
X015864Y006808D01*
X015809Y006798D01*
X015754Y006785D01*
X015701Y006768D01*
X015649Y006748D01*
X015599Y006724D01*
X015550Y006697D01*
X015503Y006667D01*
X015458Y006633D01*
X015416Y006597D01*
X015376Y006558D01*
X015339Y006516D01*
X015304Y006472D01*
X015273Y006426D01*
X015245Y006378D01*
X015253Y006374D01*
X015281Y006421D01*
X015312Y006467D01*
X015346Y006510D01*
X015382Y006552D01*
X015422Y006590D01*
X015464Y006626D01*
X015508Y006659D01*
X015554Y006689D01*
X015603Y006716D01*
X015653Y006739D01*
X015704Y006760D01*
X015757Y006776D01*
X015810Y006789D01*
X015865Y006799D01*
X015920Y006805D01*
X015975Y006807D01*
X015975Y006798D01*
X015920Y006796D01*
X015866Y006790D01*
X015812Y006781D01*
X015759Y006768D01*
X015707Y006751D01*
X015656Y006731D01*
X015607Y006708D01*
X015559Y006681D01*
X015513Y006652D01*
X015469Y006619D01*
X015428Y006584D01*
X015389Y006545D01*
X015352Y006505D01*
X015319Y006462D01*
X015288Y006416D01*
X015261Y006369D01*
X015269Y006365D01*
X015296Y006412D01*
X015326Y006456D01*
X015359Y006499D01*
X015395Y006539D01*
X015434Y006577D01*
X015475Y006612D01*
X015518Y006644D01*
X015564Y006674D01*
X015611Y006700D01*
X015660Y006723D01*
X015710Y006743D01*
X015762Y006759D01*
X015814Y006772D01*
X015867Y006781D01*
X015921Y006787D01*
X015975Y006789D01*
X015975Y006780D01*
X015922Y006778D01*
X015869Y006772D01*
X015816Y006763D01*
X015764Y006750D01*
X015713Y006734D01*
X015663Y006715D01*
X015615Y006692D01*
X015568Y006666D01*
X015524Y006637D01*
X015481Y006605D01*
X015440Y006570D01*
X015402Y006533D01*
X015366Y006493D01*
X015333Y006451D01*
X015303Y006407D01*
X015276Y006361D01*
X015284Y006357D01*
X015311Y006402D01*
X015341Y006446D01*
X015373Y006487D01*
X015408Y006527D01*
X015446Y006564D01*
X015486Y006598D01*
X015529Y006630D01*
X015573Y006658D01*
X015619Y006684D01*
X015667Y006706D01*
X015716Y006726D01*
X015766Y006742D01*
X015818Y006754D01*
X015870Y006763D01*
X015922Y006769D01*
X015975Y006771D01*
X015975Y006762D01*
X015919Y006760D01*
X015864Y006753D01*
X015809Y006743D01*
X015755Y006729D01*
X015703Y006711D01*
X015651Y006690D01*
X015602Y006664D01*
X015554Y006636D01*
X015508Y006604D01*
X015465Y006569D01*
X015425Y006531D01*
X015387Y006490D01*
X015352Y006446D01*
X015321Y006400D01*
X015292Y006352D01*
X015300Y006348D01*
X015328Y006396D01*
X015359Y006441D01*
X015394Y006484D01*
X015431Y006524D01*
X015471Y006562D01*
X015514Y006597D01*
X015559Y006628D01*
X015606Y006657D01*
X015655Y006681D01*
X015706Y006703D01*
X015758Y006720D01*
X015811Y006734D01*
X015865Y006744D01*
X015920Y006751D01*
X015975Y006753D01*
X015975Y006744D01*
X015921Y006742D01*
X015867Y006736D01*
X015813Y006726D01*
X015761Y006712D01*
X015709Y006694D01*
X015659Y006673D01*
X015610Y006649D01*
X015564Y006621D01*
X015519Y006589D01*
X015477Y006555D01*
X015438Y006518D01*
X015401Y006478D01*
X015367Y006436D01*
X015336Y006391D01*
X015308Y006344D01*
X015249Y005557D02*
X015327Y005602D01*
X015327Y005601D02*
X015355Y005557D01*
X015386Y005515D01*
X015419Y005475D01*
X015455Y005437D01*
X015494Y005402D01*
X015535Y005370D01*
X015579Y005340D01*
X015624Y005314D01*
X015671Y005291D01*
X015719Y005271D01*
X015769Y005255D01*
X015819Y005242D01*
X015871Y005233D01*
X015923Y005227D01*
X015975Y005225D01*
X015976Y005136D01*
X015975Y005135D01*
X015920Y005137D01*
X015866Y005143D01*
X015811Y005152D01*
X015758Y005165D01*
X015706Y005181D01*
X015654Y005200D01*
X015604Y005223D01*
X015556Y005249D01*
X015509Y005278D01*
X015465Y005310D01*
X015422Y005345D01*
X015382Y005383D01*
X015345Y005423D01*
X015310Y005465D01*
X015278Y005510D01*
X015249Y005556D01*
X015257Y005561D01*
X015285Y005515D01*
X015317Y005471D01*
X015352Y005429D01*
X015389Y005389D01*
X015428Y005352D01*
X015470Y005317D01*
X015514Y005286D01*
X015560Y005257D01*
X015608Y005231D01*
X015658Y005209D01*
X015708Y005189D01*
X015760Y005173D01*
X015813Y005161D01*
X015867Y005152D01*
X015921Y005146D01*
X015975Y005144D01*
X015975Y005153D01*
X015921Y005155D01*
X015868Y005161D01*
X015815Y005170D01*
X015763Y005182D01*
X015711Y005198D01*
X015661Y005217D01*
X015612Y005239D01*
X015565Y005265D01*
X015519Y005293D01*
X015476Y005325D01*
X015434Y005359D01*
X015395Y005395D01*
X015358Y005435D01*
X015324Y005476D01*
X015293Y005520D01*
X015264Y005565D01*
X015272Y005570D01*
X015302Y005522D01*
X015336Y005476D01*
X015372Y005433D01*
X015412Y005392D01*
X015454Y005354D01*
X015498Y005319D01*
X015545Y005287D01*
X015594Y005259D01*
X015645Y005234D01*
X015698Y005212D01*
X015751Y005195D01*
X015806Y005181D01*
X015862Y005171D01*
X015918Y005164D01*
X015975Y005162D01*
X015975Y005171D01*
X015919Y005173D01*
X015863Y005179D01*
X015808Y005189D01*
X015754Y005203D01*
X015701Y005221D01*
X015649Y005242D01*
X015598Y005267D01*
X015550Y005295D01*
X015504Y005326D01*
X015459Y005361D01*
X015418Y005398D01*
X015379Y005439D01*
X015343Y005481D01*
X015310Y005527D01*
X015280Y005574D01*
X015288Y005579D01*
X015317Y005532D01*
X015350Y005487D01*
X015386Y005445D01*
X015424Y005405D01*
X015465Y005368D01*
X015509Y005333D01*
X015555Y005302D01*
X015603Y005275D01*
X015652Y005250D01*
X015704Y005229D01*
X015756Y005212D01*
X015810Y005198D01*
X015865Y005188D01*
X015920Y005182D01*
X015975Y005180D01*
X015975Y005189D01*
X015920Y005191D01*
X015866Y005197D01*
X015812Y005207D01*
X015759Y005221D01*
X015707Y005238D01*
X015656Y005258D01*
X015607Y005283D01*
X015560Y005310D01*
X015514Y005341D01*
X015471Y005374D01*
X015430Y005411D01*
X015392Y005451D01*
X015357Y005493D01*
X015325Y005537D01*
X015296Y005583D01*
X015304Y005588D01*
X015332Y005542D01*
X015364Y005498D01*
X015399Y005457D01*
X015437Y005418D01*
X015477Y005381D01*
X015519Y005348D01*
X015564Y005318D01*
X015611Y005290D01*
X015660Y005267D01*
X015710Y005246D01*
X015761Y005229D01*
X015814Y005216D01*
X015867Y005206D01*
X015921Y005200D01*
X015975Y005198D01*
X015975Y005207D01*
X015922Y005209D01*
X015868Y005215D01*
X015816Y005225D01*
X015764Y005238D01*
X015713Y005255D01*
X015663Y005275D01*
X015615Y005298D01*
X015569Y005325D01*
X015525Y005355D01*
X015483Y005388D01*
X015443Y005424D01*
X015406Y005463D01*
X015371Y005504D01*
X015340Y005547D01*
X015311Y005592D01*
X015319Y005597D01*
X015347Y005552D01*
X015378Y005509D01*
X015412Y005469D01*
X015449Y005431D01*
X015488Y005395D01*
X015530Y005363D01*
X015574Y005333D01*
X015620Y005306D01*
X015667Y005283D01*
X015716Y005263D01*
X015766Y005246D01*
X015818Y005233D01*
X015870Y005224D01*
X015922Y005218D01*
X015975Y005216D01*
X015984Y005136D02*
X015984Y005226D01*
X015985Y005225D02*
X016039Y005227D01*
X016092Y005233D01*
X016145Y005243D01*
X016197Y005257D01*
X016248Y005274D01*
X016298Y005295D01*
X016346Y005319D01*
X016392Y005347D01*
X016436Y005378D01*
X016477Y005412D01*
X016517Y005449D01*
X016553Y005488D01*
X016621Y005431D01*
X016622Y005430D01*
X016584Y005389D01*
X016544Y005351D01*
X016501Y005315D01*
X016456Y005282D01*
X016409Y005252D01*
X016361Y005226D01*
X016310Y005202D01*
X016258Y005182D01*
X016205Y005166D01*
X016151Y005152D01*
X016096Y005143D01*
X016041Y005137D01*
X015985Y005135D01*
X015985Y005144D01*
X016040Y005146D01*
X016095Y005152D01*
X016149Y005161D01*
X016203Y005174D01*
X016255Y005191D01*
X016307Y005210D01*
X016357Y005234D01*
X016405Y005260D01*
X016451Y005290D01*
X016496Y005322D01*
X016538Y005357D01*
X016578Y005396D01*
X016615Y005436D01*
X016608Y005442D01*
X016571Y005402D01*
X016532Y005364D01*
X016490Y005329D01*
X016446Y005297D01*
X016400Y005268D01*
X016352Y005242D01*
X016303Y005219D01*
X016252Y005199D01*
X016200Y005183D01*
X016147Y005170D01*
X016094Y005161D01*
X016039Y005155D01*
X015985Y005153D01*
X015985Y005162D01*
X016039Y005164D01*
X016092Y005170D01*
X016145Y005179D01*
X016198Y005192D01*
X016249Y005208D01*
X016300Y005227D01*
X016348Y005250D01*
X016396Y005275D01*
X016441Y005304D01*
X016485Y005336D01*
X016526Y005371D01*
X016565Y005408D01*
X016601Y005448D01*
X016594Y005454D01*
X016558Y005414D01*
X016520Y005377D01*
X016479Y005343D01*
X016436Y005312D01*
X016391Y005283D01*
X016344Y005258D01*
X016296Y005235D01*
X016246Y005216D01*
X016195Y005200D01*
X016144Y005188D01*
X016091Y005179D01*
X016038Y005173D01*
X015985Y005171D01*
X015985Y005180D01*
X016038Y005182D01*
X016090Y005188D01*
X016142Y005197D01*
X016193Y005209D01*
X016243Y005225D01*
X016293Y005244D01*
X016340Y005266D01*
X016387Y005291D01*
X016431Y005319D01*
X016473Y005350D01*
X016514Y005384D01*
X016552Y005421D01*
X016587Y005459D01*
X016581Y005465D01*
X016545Y005427D01*
X016508Y005391D01*
X016468Y005357D01*
X016426Y005327D01*
X016382Y005299D01*
X016336Y005274D01*
X016289Y005252D01*
X016240Y005233D01*
X016191Y005218D01*
X016140Y005205D01*
X016089Y005197D01*
X016037Y005191D01*
X015985Y005189D01*
X015985Y005198D01*
X016041Y005200D01*
X016096Y005207D01*
X016151Y005217D01*
X016205Y005231D01*
X016258Y005249D01*
X016309Y005271D01*
X016359Y005296D01*
X016407Y005325D01*
X016452Y005357D01*
X016495Y005392D01*
X016536Y005430D01*
X016574Y005471D01*
X016567Y005477D01*
X016530Y005436D01*
X016489Y005399D01*
X016447Y005364D01*
X016402Y005332D01*
X016354Y005304D01*
X016305Y005279D01*
X016254Y005257D01*
X016202Y005240D01*
X016149Y005226D01*
X016095Y005216D01*
X016040Y005209D01*
X015985Y005207D01*
X015985Y005216D01*
X016039Y005218D01*
X016093Y005224D01*
X016147Y005234D01*
X016200Y005248D01*
X016251Y005266D01*
X016301Y005287D01*
X016350Y005312D01*
X016397Y005340D01*
X016441Y005371D01*
X016483Y005405D01*
X016523Y005443D01*
X016560Y005483D01*
X016625Y006524D02*
X016556Y006467D01*
X016557Y006467D02*
X016520Y006507D01*
X016481Y006545D01*
X016439Y006579D01*
X016395Y006611D01*
X016349Y006639D01*
X016300Y006664D01*
X016250Y006685D01*
X016199Y006703D01*
X016146Y006716D01*
X016093Y006726D01*
X016039Y006733D01*
X015985Y006735D01*
X015984Y006824D01*
X015985Y006825D01*
X016041Y006823D01*
X016097Y006817D01*
X016152Y006807D01*
X016207Y006794D01*
X016260Y006777D01*
X016313Y006757D01*
X016364Y006733D01*
X016413Y006706D01*
X016460Y006675D01*
X016505Y006642D01*
X016548Y006606D01*
X016588Y006567D01*
X016626Y006525D01*
X016619Y006519D01*
X016582Y006560D01*
X016542Y006599D01*
X016500Y006635D01*
X016455Y006668D01*
X016408Y006698D01*
X016360Y006725D01*
X016309Y006748D01*
X016257Y006769D01*
X016204Y006785D01*
X016150Y006798D01*
X016096Y006808D01*
X016041Y006814D01*
X015985Y006816D01*
X015985Y006807D01*
X016040Y006805D01*
X016095Y006799D01*
X016149Y006790D01*
X016202Y006777D01*
X016254Y006760D01*
X016306Y006740D01*
X016355Y006717D01*
X016404Y006690D01*
X016450Y006661D01*
X016494Y006628D01*
X016536Y006592D01*
X016575Y006554D01*
X016612Y006513D01*
X016605Y006508D01*
X016569Y006548D01*
X016530Y006586D01*
X016488Y006621D01*
X016445Y006653D01*
X016399Y006683D01*
X016351Y006709D01*
X016302Y006732D01*
X016252Y006752D01*
X016200Y006768D01*
X016147Y006781D01*
X016093Y006790D01*
X016039Y006796D01*
X015985Y006798D01*
X015985Y006789D01*
X016039Y006787D01*
X016092Y006781D01*
X016145Y006772D01*
X016197Y006759D01*
X016249Y006743D01*
X016299Y006724D01*
X016347Y006701D01*
X016394Y006675D01*
X016440Y006646D01*
X016483Y006614D01*
X016524Y006579D01*
X016562Y006542D01*
X016598Y006502D01*
X016591Y006496D01*
X016556Y006535D01*
X016518Y006572D01*
X016477Y006607D01*
X016434Y006638D01*
X016390Y006667D01*
X016343Y006693D01*
X016295Y006715D01*
X016246Y006735D01*
X016195Y006751D01*
X016143Y006763D01*
X016091Y006772D01*
X016038Y006778D01*
X015985Y006780D01*
X015985Y006771D01*
X016037Y006769D01*
X016090Y006763D01*
X016141Y006754D01*
X016192Y006742D01*
X016243Y006726D01*
X016292Y006707D01*
X016339Y006685D01*
X016385Y006659D01*
X016429Y006631D01*
X016471Y006600D01*
X016512Y006566D01*
X016549Y006529D01*
X016584Y006490D01*
X016578Y006484D01*
X016543Y006523D01*
X016505Y006559D01*
X016466Y006593D01*
X016424Y006624D01*
X016380Y006652D01*
X016335Y006677D01*
X016288Y006699D01*
X016240Y006718D01*
X016190Y006733D01*
X016140Y006746D01*
X016088Y006754D01*
X016037Y006760D01*
X015985Y006762D01*
X015985Y006753D01*
X016036Y006751D01*
X016087Y006746D01*
X016138Y006737D01*
X016188Y006725D01*
X016237Y006709D01*
X016284Y006691D01*
X016331Y006669D01*
X016376Y006644D01*
X016419Y006616D01*
X016460Y006586D01*
X016499Y006553D01*
X016536Y006517D01*
X016571Y006479D01*
X016564Y006473D01*
X016527Y006514D01*
X016487Y006552D01*
X016445Y006586D01*
X016400Y006618D01*
X016353Y006647D01*
X016304Y006672D01*
X016253Y006693D01*
X016202Y006711D01*
X016148Y006725D01*
X016094Y006735D01*
X016040Y006742D01*
X015985Y006744D01*
X012575Y006824D02*
X012575Y006734D01*
X012575Y006735D02*
X012521Y006733D01*
X012468Y006727D01*
X012415Y006717D01*
X012363Y006703D01*
X012312Y006686D01*
X012263Y006665D01*
X012215Y006641D01*
X012169Y006613D01*
X012125Y006582D01*
X012083Y006548D01*
X012044Y006512D01*
X012007Y006472D01*
X011974Y006430D01*
X011943Y006386D01*
X011916Y006340D01*
X011837Y006382D01*
X011865Y006431D01*
X011897Y006477D01*
X011932Y006522D01*
X011969Y006564D01*
X012010Y006604D01*
X012053Y006640D01*
X012098Y006674D01*
X012145Y006705D01*
X012195Y006732D01*
X012246Y006756D01*
X012298Y006777D01*
X012352Y006794D01*
X012407Y006807D01*
X012462Y006817D01*
X012519Y006823D01*
X012575Y006825D01*
X012575Y006816D01*
X012519Y006814D01*
X012464Y006808D01*
X012409Y006798D01*
X012354Y006785D01*
X012301Y006768D01*
X012249Y006748D01*
X012199Y006724D01*
X012150Y006697D01*
X012103Y006667D01*
X012058Y006633D01*
X012016Y006597D01*
X011976Y006558D01*
X011939Y006516D01*
X011904Y006472D01*
X011873Y006426D01*
X011845Y006378D01*
X011853Y006374D01*
X011881Y006421D01*
X011912Y006467D01*
X011946Y006510D01*
X011982Y006552D01*
X012022Y006590D01*
X012064Y006626D01*
X012108Y006659D01*
X012154Y006689D01*
X012203Y006716D01*
X012253Y006739D01*
X012304Y006760D01*
X012357Y006776D01*
X012410Y006789D01*
X012465Y006799D01*
X012520Y006805D01*
X012575Y006807D01*
X012575Y006798D01*
X012520Y006796D01*
X012466Y006790D01*
X012412Y006781D01*
X012359Y006768D01*
X012307Y006751D01*
X012256Y006731D01*
X012207Y006708D01*
X012159Y006681D01*
X012113Y006652D01*
X012069Y006619D01*
X012028Y006584D01*
X011989Y006545D01*
X011952Y006505D01*
X011919Y006462D01*
X011888Y006416D01*
X011861Y006369D01*
X011869Y006365D01*
X011896Y006412D01*
X011926Y006456D01*
X011959Y006499D01*
X011995Y006539D01*
X012034Y006577D01*
X012075Y006612D01*
X012118Y006644D01*
X012164Y006674D01*
X012211Y006700D01*
X012260Y006723D01*
X012310Y006743D01*
X012362Y006759D01*
X012414Y006772D01*
X012467Y006781D01*
X012521Y006787D01*
X012575Y006789D01*
X012575Y006780D01*
X012522Y006778D01*
X012469Y006772D01*
X012416Y006763D01*
X012364Y006750D01*
X012313Y006734D01*
X012263Y006715D01*
X012215Y006692D01*
X012168Y006666D01*
X012124Y006637D01*
X012081Y006605D01*
X012040Y006570D01*
X012002Y006533D01*
X011966Y006493D01*
X011933Y006451D01*
X011903Y006407D01*
X011876Y006361D01*
X011884Y006357D01*
X011911Y006402D01*
X011941Y006446D01*
X011973Y006487D01*
X012008Y006527D01*
X012046Y006564D01*
X012086Y006598D01*
X012129Y006630D01*
X012173Y006658D01*
X012219Y006684D01*
X012267Y006706D01*
X012316Y006726D01*
X012366Y006742D01*
X012418Y006754D01*
X012470Y006763D01*
X012522Y006769D01*
X012575Y006771D01*
X012575Y006762D01*
X012519Y006760D01*
X012464Y006753D01*
X012409Y006743D01*
X012355Y006729D01*
X012303Y006711D01*
X012251Y006690D01*
X012202Y006664D01*
X012154Y006636D01*
X012108Y006604D01*
X012065Y006569D01*
X012025Y006531D01*
X011987Y006490D01*
X011952Y006446D01*
X011921Y006400D01*
X011892Y006352D01*
X011900Y006348D01*
X011928Y006396D01*
X011959Y006441D01*
X011994Y006484D01*
X012031Y006524D01*
X012071Y006562D01*
X012114Y006597D01*
X012159Y006628D01*
X012206Y006657D01*
X012255Y006681D01*
X012306Y006703D01*
X012358Y006720D01*
X012411Y006734D01*
X012465Y006744D01*
X012520Y006751D01*
X012575Y006753D01*
X012575Y006744D01*
X012521Y006742D01*
X012467Y006736D01*
X012413Y006726D01*
X012361Y006712D01*
X012309Y006694D01*
X012259Y006673D01*
X012210Y006649D01*
X012164Y006621D01*
X012119Y006589D01*
X012077Y006555D01*
X012038Y006518D01*
X012001Y006478D01*
X011967Y006436D01*
X011936Y006391D01*
X011908Y006344D01*
X011849Y005557D02*
X011927Y005602D01*
X011927Y005601D02*
X011955Y005557D01*
X011986Y005515D01*
X012019Y005475D01*
X012055Y005437D01*
X012094Y005402D01*
X012135Y005370D01*
X012179Y005340D01*
X012224Y005314D01*
X012271Y005291D01*
X012319Y005271D01*
X012369Y005255D01*
X012419Y005242D01*
X012471Y005233D01*
X012523Y005227D01*
X012575Y005225D01*
X012576Y005136D01*
X012575Y005135D01*
X012520Y005137D01*
X012466Y005143D01*
X012411Y005152D01*
X012358Y005165D01*
X012306Y005181D01*
X012254Y005200D01*
X012204Y005223D01*
X012156Y005249D01*
X012109Y005278D01*
X012065Y005310D01*
X012022Y005345D01*
X011982Y005383D01*
X011945Y005423D01*
X011910Y005465D01*
X011878Y005510D01*
X011849Y005556D01*
X011857Y005561D01*
X011885Y005515D01*
X011917Y005471D01*
X011952Y005429D01*
X011989Y005389D01*
X012028Y005352D01*
X012070Y005317D01*
X012114Y005286D01*
X012160Y005257D01*
X012208Y005231D01*
X012258Y005209D01*
X012308Y005189D01*
X012360Y005173D01*
X012413Y005161D01*
X012467Y005152D01*
X012521Y005146D01*
X012575Y005144D01*
X012575Y005153D01*
X012521Y005155D01*
X012468Y005161D01*
X012415Y005170D01*
X012363Y005182D01*
X012311Y005198D01*
X012261Y005217D01*
X012212Y005239D01*
X012165Y005265D01*
X012119Y005293D01*
X012076Y005325D01*
X012034Y005359D01*
X011995Y005395D01*
X011958Y005435D01*
X011924Y005476D01*
X011893Y005520D01*
X011864Y005565D01*
X011872Y005570D01*
X011902Y005522D01*
X011936Y005476D01*
X011972Y005433D01*
X012012Y005392D01*
X012054Y005354D01*
X012098Y005319D01*
X012145Y005287D01*
X012194Y005259D01*
X012245Y005234D01*
X012298Y005212D01*
X012351Y005195D01*
X012406Y005181D01*
X012462Y005171D01*
X012518Y005164D01*
X012575Y005162D01*
X012575Y005171D01*
X012519Y005173D01*
X012463Y005179D01*
X012408Y005189D01*
X012354Y005203D01*
X012301Y005221D01*
X012249Y005242D01*
X012198Y005267D01*
X012150Y005295D01*
X012104Y005326D01*
X012059Y005361D01*
X012018Y005398D01*
X011979Y005439D01*
X011943Y005481D01*
X011910Y005527D01*
X011880Y005574D01*
X011888Y005579D01*
X011917Y005532D01*
X011950Y005487D01*
X011986Y005445D01*
X012024Y005405D01*
X012065Y005368D01*
X012109Y005333D01*
X012155Y005302D01*
X012203Y005275D01*
X012252Y005250D01*
X012304Y005229D01*
X012356Y005212D01*
X012410Y005198D01*
X012465Y005188D01*
X012520Y005182D01*
X012575Y005180D01*
X012575Y005189D01*
X012520Y005191D01*
X012466Y005197D01*
X012412Y005207D01*
X012359Y005221D01*
X012307Y005238D01*
X012256Y005258D01*
X012207Y005283D01*
X012160Y005310D01*
X012114Y005341D01*
X012071Y005374D01*
X012030Y005411D01*
X011992Y005451D01*
X011957Y005493D01*
X011925Y005537D01*
X011896Y005583D01*
X011904Y005588D01*
X011932Y005542D01*
X011964Y005498D01*
X011999Y005457D01*
X012037Y005418D01*
X012077Y005381D01*
X012119Y005348D01*
X012164Y005318D01*
X012211Y005290D01*
X012260Y005267D01*
X012310Y005246D01*
X012361Y005229D01*
X012414Y005216D01*
X012467Y005206D01*
X012521Y005200D01*
X012575Y005198D01*
X012575Y005207D01*
X012522Y005209D01*
X012468Y005215D01*
X012416Y005225D01*
X012364Y005238D01*
X012313Y005255D01*
X012263Y005275D01*
X012215Y005298D01*
X012169Y005325D01*
X012125Y005355D01*
X012083Y005388D01*
X012043Y005424D01*
X012006Y005463D01*
X011971Y005504D01*
X011940Y005547D01*
X011911Y005592D01*
X011919Y005597D01*
X011947Y005552D01*
X011978Y005509D01*
X012012Y005469D01*
X012049Y005431D01*
X012088Y005395D01*
X012130Y005363D01*
X012174Y005333D01*
X012220Y005306D01*
X012267Y005283D01*
X012316Y005263D01*
X012366Y005246D01*
X012418Y005233D01*
X012470Y005224D01*
X012522Y005218D01*
X012575Y005216D01*
X012584Y005136D02*
X012584Y005226D01*
X012585Y005225D02*
X012639Y005227D01*
X012692Y005233D01*
X012745Y005243D01*
X012797Y005257D01*
X012848Y005274D01*
X012898Y005295D01*
X012946Y005319D01*
X012992Y005347D01*
X013036Y005378D01*
X013077Y005412D01*
X013117Y005449D01*
X013153Y005488D01*
X013221Y005431D01*
X013222Y005430D01*
X013184Y005389D01*
X013144Y005351D01*
X013101Y005315D01*
X013056Y005282D01*
X013009Y005252D01*
X012961Y005226D01*
X012910Y005202D01*
X012858Y005182D01*
X012805Y005166D01*
X012751Y005152D01*
X012696Y005143D01*
X012641Y005137D01*
X012585Y005135D01*
X012585Y005144D01*
X012640Y005146D01*
X012695Y005152D01*
X012749Y005161D01*
X012803Y005174D01*
X012855Y005191D01*
X012907Y005210D01*
X012957Y005234D01*
X013005Y005260D01*
X013051Y005290D01*
X013096Y005322D01*
X013138Y005357D01*
X013178Y005396D01*
X013215Y005436D01*
X013208Y005442D01*
X013171Y005402D01*
X013132Y005364D01*
X013090Y005329D01*
X013046Y005297D01*
X013000Y005268D01*
X012952Y005242D01*
X012903Y005219D01*
X012852Y005199D01*
X012800Y005183D01*
X012747Y005170D01*
X012694Y005161D01*
X012639Y005155D01*
X012585Y005153D01*
X012585Y005162D01*
X012639Y005164D01*
X012692Y005170D01*
X012745Y005179D01*
X012798Y005192D01*
X012849Y005208D01*
X012900Y005227D01*
X012948Y005250D01*
X012996Y005275D01*
X013041Y005304D01*
X013085Y005336D01*
X013126Y005371D01*
X013165Y005408D01*
X013201Y005448D01*
X013194Y005454D01*
X013158Y005414D01*
X013120Y005377D01*
X013079Y005343D01*
X013036Y005312D01*
X012991Y005283D01*
X012944Y005258D01*
X012896Y005235D01*
X012846Y005216D01*
X012795Y005200D01*
X012744Y005188D01*
X012691Y005179D01*
X012638Y005173D01*
X012585Y005171D01*
X012585Y005180D01*
X012638Y005182D01*
X012690Y005188D01*
X012742Y005197D01*
X012793Y005209D01*
X012843Y005225D01*
X012893Y005244D01*
X012940Y005266D01*
X012987Y005291D01*
X013031Y005319D01*
X013073Y005350D01*
X013114Y005384D01*
X013152Y005421D01*
X013187Y005459D01*
X013181Y005465D01*
X013145Y005427D01*
X013108Y005391D01*
X013068Y005357D01*
X013026Y005327D01*
X012982Y005299D01*
X012936Y005274D01*
X012889Y005252D01*
X012840Y005233D01*
X012791Y005218D01*
X012740Y005205D01*
X012689Y005197D01*
X012637Y005191D01*
X012585Y005189D01*
X012585Y005198D01*
X012641Y005200D01*
X012696Y005207D01*
X012751Y005217D01*
X012805Y005231D01*
X012858Y005249D01*
X012909Y005271D01*
X012959Y005296D01*
X013007Y005325D01*
X013052Y005357D01*
X013095Y005392D01*
X013136Y005430D01*
X013174Y005471D01*
X013167Y005477D01*
X013130Y005436D01*
X013089Y005399D01*
X013047Y005364D01*
X013002Y005332D01*
X012954Y005304D01*
X012905Y005279D01*
X012854Y005257D01*
X012802Y005240D01*
X012749Y005226D01*
X012695Y005216D01*
X012640Y005209D01*
X012585Y005207D01*
X012585Y005216D01*
X012639Y005218D01*
X012693Y005224D01*
X012747Y005234D01*
X012800Y005248D01*
X012851Y005266D01*
X012901Y005287D01*
X012950Y005312D01*
X012997Y005340D01*
X013041Y005371D01*
X013083Y005405D01*
X013123Y005443D01*
X013160Y005483D01*
X013225Y006524D02*
X013156Y006467D01*
X013157Y006467D02*
X013120Y006507D01*
X013081Y006545D01*
X013039Y006579D01*
X012995Y006611D01*
X012949Y006639D01*
X012900Y006664D01*
X012850Y006685D01*
X012799Y006703D01*
X012746Y006716D01*
X012693Y006726D01*
X012639Y006733D01*
X012585Y006735D01*
X012584Y006824D01*
X012585Y006825D01*
X012641Y006823D01*
X012697Y006817D01*
X012752Y006807D01*
X012807Y006794D01*
X012860Y006777D01*
X012913Y006757D01*
X012964Y006733D01*
X013013Y006706D01*
X013060Y006675D01*
X013105Y006642D01*
X013148Y006606D01*
X013188Y006567D01*
X013226Y006525D01*
X013219Y006519D01*
X013182Y006560D01*
X013142Y006599D01*
X013100Y006635D01*
X013055Y006668D01*
X013008Y006698D01*
X012960Y006725D01*
X012909Y006748D01*
X012857Y006769D01*
X012804Y006785D01*
X012750Y006798D01*
X012696Y006808D01*
X012641Y006814D01*
X012585Y006816D01*
X012585Y006807D01*
X012640Y006805D01*
X012695Y006799D01*
X012749Y006790D01*
X012802Y006777D01*
X012854Y006760D01*
X012906Y006740D01*
X012955Y006717D01*
X013004Y006690D01*
X013050Y006661D01*
X013094Y006628D01*
X013136Y006592D01*
X013175Y006554D01*
X013212Y006513D01*
X013205Y006508D01*
X013169Y006548D01*
X013130Y006586D01*
X013088Y006621D01*
X013045Y006653D01*
X012999Y006683D01*
X012951Y006709D01*
X012902Y006732D01*
X012852Y006752D01*
X012800Y006768D01*
X012747Y006781D01*
X012693Y006790D01*
X012639Y006796D01*
X012585Y006798D01*
X012585Y006789D01*
X012639Y006787D01*
X012692Y006781D01*
X012745Y006772D01*
X012797Y006759D01*
X012849Y006743D01*
X012899Y006724D01*
X012947Y006701D01*
X012994Y006675D01*
X013040Y006646D01*
X013083Y006614D01*
X013124Y006579D01*
X013162Y006542D01*
X013198Y006502D01*
X013191Y006496D01*
X013156Y006535D01*
X013118Y006572D01*
X013077Y006607D01*
X013034Y006638D01*
X012990Y006667D01*
X012943Y006693D01*
X012895Y006715D01*
X012846Y006735D01*
X012795Y006751D01*
X012743Y006763D01*
X012691Y006772D01*
X012638Y006778D01*
X012585Y006780D01*
X012585Y006771D01*
X012637Y006769D01*
X012690Y006763D01*
X012741Y006754D01*
X012792Y006742D01*
X012843Y006726D01*
X012892Y006707D01*
X012939Y006685D01*
X012985Y006659D01*
X013029Y006631D01*
X013071Y006600D01*
X013112Y006566D01*
X013149Y006529D01*
X013184Y006490D01*
X013178Y006484D01*
X013143Y006523D01*
X013105Y006559D01*
X013066Y006593D01*
X013024Y006624D01*
X012980Y006652D01*
X012935Y006677D01*
X012888Y006699D01*
X012840Y006718D01*
X012790Y006733D01*
X012740Y006746D01*
X012688Y006754D01*
X012637Y006760D01*
X012585Y006762D01*
X012585Y006753D01*
X012636Y006751D01*
X012687Y006746D01*
X012738Y006737D01*
X012788Y006725D01*
X012837Y006709D01*
X012884Y006691D01*
X012931Y006669D01*
X012976Y006644D01*
X013019Y006616D01*
X013060Y006586D01*
X013099Y006553D01*
X013136Y006517D01*
X013171Y006479D01*
X013164Y006473D01*
X013127Y006514D01*
X013087Y006552D01*
X013045Y006586D01*
X013000Y006618D01*
X012953Y006647D01*
X012904Y006672D01*
X012853Y006693D01*
X012802Y006711D01*
X012748Y006725D01*
X012694Y006735D01*
X012640Y006742D01*
X012585Y006744D01*
X008775Y006824D02*
X008775Y006734D01*
X008775Y006735D02*
X008721Y006733D01*
X008668Y006727D01*
X008615Y006717D01*
X008563Y006703D01*
X008512Y006686D01*
X008463Y006665D01*
X008415Y006641D01*
X008369Y006613D01*
X008325Y006582D01*
X008283Y006548D01*
X008244Y006512D01*
X008207Y006472D01*
X008174Y006430D01*
X008143Y006386D01*
X008116Y006340D01*
X008037Y006382D01*
X008065Y006431D01*
X008097Y006477D01*
X008132Y006522D01*
X008169Y006564D01*
X008210Y006604D01*
X008253Y006640D01*
X008298Y006674D01*
X008345Y006705D01*
X008395Y006732D01*
X008446Y006756D01*
X008498Y006777D01*
X008552Y006794D01*
X008607Y006807D01*
X008662Y006817D01*
X008719Y006823D01*
X008775Y006825D01*
X008775Y006816D01*
X008719Y006814D01*
X008664Y006808D01*
X008609Y006798D01*
X008554Y006785D01*
X008501Y006768D01*
X008449Y006748D01*
X008399Y006724D01*
X008350Y006697D01*
X008303Y006667D01*
X008258Y006633D01*
X008216Y006597D01*
X008176Y006558D01*
X008139Y006516D01*
X008104Y006472D01*
X008073Y006426D01*
X008045Y006378D01*
X008053Y006374D01*
X008081Y006421D01*
X008112Y006467D01*
X008146Y006510D01*
X008182Y006552D01*
X008222Y006590D01*
X008264Y006626D01*
X008308Y006659D01*
X008354Y006689D01*
X008403Y006716D01*
X008453Y006739D01*
X008504Y006760D01*
X008557Y006776D01*
X008610Y006789D01*
X008665Y006799D01*
X008720Y006805D01*
X008775Y006807D01*
X008775Y006798D01*
X008720Y006796D01*
X008666Y006790D01*
X008612Y006781D01*
X008559Y006768D01*
X008507Y006751D01*
X008456Y006731D01*
X008407Y006708D01*
X008359Y006681D01*
X008313Y006652D01*
X008269Y006619D01*
X008228Y006584D01*
X008189Y006545D01*
X008152Y006505D01*
X008119Y006462D01*
X008088Y006416D01*
X008061Y006369D01*
X008069Y006365D01*
X008096Y006412D01*
X008126Y006456D01*
X008159Y006499D01*
X008195Y006539D01*
X008234Y006577D01*
X008275Y006612D01*
X008318Y006644D01*
X008364Y006674D01*
X008411Y006700D01*
X008460Y006723D01*
X008510Y006743D01*
X008562Y006759D01*
X008614Y006772D01*
X008667Y006781D01*
X008721Y006787D01*
X008775Y006789D01*
X008775Y006780D01*
X008722Y006778D01*
X008669Y006772D01*
X008616Y006763D01*
X008564Y006750D01*
X008513Y006734D01*
X008463Y006715D01*
X008415Y006692D01*
X008368Y006666D01*
X008324Y006637D01*
X008281Y006605D01*
X008240Y006570D01*
X008202Y006533D01*
X008166Y006493D01*
X008133Y006451D01*
X008103Y006407D01*
X008076Y006361D01*
X008084Y006357D01*
X008111Y006402D01*
X008141Y006446D01*
X008173Y006487D01*
X008208Y006527D01*
X008246Y006564D01*
X008286Y006598D01*
X008329Y006630D01*
X008373Y006658D01*
X008419Y006684D01*
X008467Y006706D01*
X008516Y006726D01*
X008566Y006742D01*
X008618Y006754D01*
X008670Y006763D01*
X008722Y006769D01*
X008775Y006771D01*
X008775Y006762D01*
X008719Y006760D01*
X008664Y006753D01*
X008609Y006743D01*
X008555Y006729D01*
X008503Y006711D01*
X008451Y006690D01*
X008402Y006664D01*
X008354Y006636D01*
X008308Y006604D01*
X008265Y006569D01*
X008225Y006531D01*
X008187Y006490D01*
X008152Y006446D01*
X008121Y006400D01*
X008092Y006352D01*
X008100Y006348D01*
X008128Y006396D01*
X008159Y006441D01*
X008194Y006484D01*
X008231Y006524D01*
X008271Y006562D01*
X008314Y006597D01*
X008359Y006628D01*
X008406Y006657D01*
X008455Y006681D01*
X008506Y006703D01*
X008558Y006720D01*
X008611Y006734D01*
X008665Y006744D01*
X008720Y006751D01*
X008775Y006753D01*
X008775Y006744D01*
X008721Y006742D01*
X008667Y006736D01*
X008613Y006726D01*
X008561Y006712D01*
X008509Y006694D01*
X008459Y006673D01*
X008410Y006649D01*
X008364Y006621D01*
X008319Y006589D01*
X008277Y006555D01*
X008238Y006518D01*
X008201Y006478D01*
X008167Y006436D01*
X008136Y006391D01*
X008108Y006344D01*
X008049Y005557D02*
X008127Y005602D01*
X008127Y005601D02*
X008155Y005557D01*
X008186Y005515D01*
X008219Y005475D01*
X008255Y005437D01*
X008294Y005402D01*
X008335Y005370D01*
X008379Y005340D01*
X008424Y005314D01*
X008471Y005291D01*
X008519Y005271D01*
X008569Y005255D01*
X008619Y005242D01*
X008671Y005233D01*
X008723Y005227D01*
X008775Y005225D01*
X008776Y005136D01*
X008775Y005135D01*
X008720Y005137D01*
X008666Y005143D01*
X008611Y005152D01*
X008558Y005165D01*
X008506Y005181D01*
X008454Y005200D01*
X008404Y005223D01*
X008356Y005249D01*
X008309Y005278D01*
X008265Y005310D01*
X008222Y005345D01*
X008182Y005383D01*
X008145Y005423D01*
X008110Y005465D01*
X008078Y005510D01*
X008049Y005556D01*
X008057Y005561D01*
X008085Y005515D01*
X008117Y005471D01*
X008152Y005429D01*
X008189Y005389D01*
X008228Y005352D01*
X008270Y005317D01*
X008314Y005286D01*
X008360Y005257D01*
X008408Y005231D01*
X008458Y005209D01*
X008508Y005189D01*
X008560Y005173D01*
X008613Y005161D01*
X008667Y005152D01*
X008721Y005146D01*
X008775Y005144D01*
X008775Y005153D01*
X008721Y005155D01*
X008668Y005161D01*
X008615Y005170D01*
X008563Y005182D01*
X008511Y005198D01*
X008461Y005217D01*
X008412Y005239D01*
X008365Y005265D01*
X008319Y005293D01*
X008276Y005325D01*
X008234Y005359D01*
X008195Y005395D01*
X008158Y005435D01*
X008124Y005476D01*
X008093Y005520D01*
X008064Y005565D01*
X008072Y005570D01*
X008102Y005522D01*
X008136Y005476D01*
X008172Y005433D01*
X008212Y005392D01*
X008254Y005354D01*
X008298Y005319D01*
X008345Y005287D01*
X008394Y005259D01*
X008445Y005234D01*
X008498Y005212D01*
X008551Y005195D01*
X008606Y005181D01*
X008662Y005171D01*
X008718Y005164D01*
X008775Y005162D01*
X008775Y005171D01*
X008719Y005173D01*
X008663Y005179D01*
X008608Y005189D01*
X008554Y005203D01*
X008501Y005221D01*
X008449Y005242D01*
X008398Y005267D01*
X008350Y005295D01*
X008304Y005326D01*
X008259Y005361D01*
X008218Y005398D01*
X008179Y005439D01*
X008143Y005481D01*
X008110Y005527D01*
X008080Y005574D01*
X008088Y005579D01*
X008117Y005532D01*
X008150Y005487D01*
X008186Y005445D01*
X008224Y005405D01*
X008265Y005368D01*
X008309Y005333D01*
X008355Y005302D01*
X008403Y005275D01*
X008452Y005250D01*
X008504Y005229D01*
X008556Y005212D01*
X008610Y005198D01*
X008665Y005188D01*
X008720Y005182D01*
X008775Y005180D01*
X008775Y005189D01*
X008720Y005191D01*
X008666Y005197D01*
X008612Y005207D01*
X008559Y005221D01*
X008507Y005238D01*
X008456Y005258D01*
X008407Y005283D01*
X008360Y005310D01*
X008314Y005341D01*
X008271Y005374D01*
X008230Y005411D01*
X008192Y005451D01*
X008157Y005493D01*
X008125Y005537D01*
X008096Y005583D01*
X008104Y005588D01*
X008132Y005542D01*
X008164Y005498D01*
X008199Y005457D01*
X008237Y005418D01*
X008277Y005381D01*
X008319Y005348D01*
X008364Y005318D01*
X008411Y005290D01*
X008460Y005267D01*
X008510Y005246D01*
X008561Y005229D01*
X008614Y005216D01*
X008667Y005206D01*
X008721Y005200D01*
X008775Y005198D01*
X008775Y005207D01*
X008722Y005209D01*
X008668Y005215D01*
X008616Y005225D01*
X008564Y005238D01*
X008513Y005255D01*
X008463Y005275D01*
X008415Y005298D01*
X008369Y005325D01*
X008325Y005355D01*
X008283Y005388D01*
X008243Y005424D01*
X008206Y005463D01*
X008171Y005504D01*
X008140Y005547D01*
X008111Y005592D01*
X008119Y005597D01*
X008147Y005552D01*
X008178Y005509D01*
X008212Y005469D01*
X008249Y005431D01*
X008288Y005395D01*
X008330Y005363D01*
X008374Y005333D01*
X008420Y005306D01*
X008467Y005283D01*
X008516Y005263D01*
X008566Y005246D01*
X008618Y005233D01*
X008670Y005224D01*
X008722Y005218D01*
X008775Y005216D01*
X008784Y005136D02*
X008784Y005226D01*
X008785Y005225D02*
X008839Y005227D01*
X008892Y005233D01*
X008945Y005243D01*
X008997Y005257D01*
X009048Y005274D01*
X009098Y005295D01*
X009146Y005319D01*
X009192Y005347D01*
X009236Y005378D01*
X009277Y005412D01*
X009317Y005449D01*
X009353Y005488D01*
X009421Y005431D01*
X009422Y005430D01*
X009384Y005389D01*
X009344Y005351D01*
X009301Y005315D01*
X009256Y005282D01*
X009209Y005252D01*
X009161Y005226D01*
X009110Y005202D01*
X009058Y005182D01*
X009005Y005166D01*
X008951Y005152D01*
X008896Y005143D01*
X008841Y005137D01*
X008785Y005135D01*
X008785Y005144D01*
X008840Y005146D01*
X008895Y005152D01*
X008949Y005161D01*
X009003Y005174D01*
X009055Y005191D01*
X009107Y005210D01*
X009157Y005234D01*
X009205Y005260D01*
X009251Y005290D01*
X009296Y005322D01*
X009338Y005357D01*
X009378Y005396D01*
X009415Y005436D01*
X009408Y005442D01*
X009371Y005402D01*
X009332Y005364D01*
X009290Y005329D01*
X009246Y005297D01*
X009200Y005268D01*
X009152Y005242D01*
X009103Y005219D01*
X009052Y005199D01*
X009000Y005183D01*
X008947Y005170D01*
X008894Y005161D01*
X008839Y005155D01*
X008785Y005153D01*
X008785Y005162D01*
X008839Y005164D01*
X008892Y005170D01*
X008945Y005179D01*
X008998Y005192D01*
X009049Y005208D01*
X009100Y005227D01*
X009148Y005250D01*
X009196Y005275D01*
X009241Y005304D01*
X009285Y005336D01*
X009326Y005371D01*
X009365Y005408D01*
X009401Y005448D01*
X009394Y005454D01*
X009358Y005414D01*
X009320Y005377D01*
X009279Y005343D01*
X009236Y005312D01*
X009191Y005283D01*
X009144Y005258D01*
X009096Y005235D01*
X009046Y005216D01*
X008995Y005200D01*
X008944Y005188D01*
X008891Y005179D01*
X008838Y005173D01*
X008785Y005171D01*
X008785Y005180D01*
X008838Y005182D01*
X008890Y005188D01*
X008942Y005197D01*
X008993Y005209D01*
X009043Y005225D01*
X009093Y005244D01*
X009140Y005266D01*
X009187Y005291D01*
X009231Y005319D01*
X009273Y005350D01*
X009314Y005384D01*
X009352Y005421D01*
X009387Y005459D01*
X009381Y005465D01*
X009345Y005427D01*
X009308Y005391D01*
X009268Y005357D01*
X009226Y005327D01*
X009182Y005299D01*
X009136Y005274D01*
X009089Y005252D01*
X009040Y005233D01*
X008991Y005218D01*
X008940Y005205D01*
X008889Y005197D01*
X008837Y005191D01*
X008785Y005189D01*
X008785Y005198D01*
X008841Y005200D01*
X008896Y005207D01*
X008951Y005217D01*
X009005Y005231D01*
X009058Y005249D01*
X009109Y005271D01*
X009159Y005296D01*
X009207Y005325D01*
X009252Y005357D01*
X009295Y005392D01*
X009336Y005430D01*
X009374Y005471D01*
X009367Y005477D01*
X009330Y005436D01*
X009289Y005399D01*
X009247Y005364D01*
X009202Y005332D01*
X009154Y005304D01*
X009105Y005279D01*
X009054Y005257D01*
X009002Y005240D01*
X008949Y005226D01*
X008895Y005216D01*
X008840Y005209D01*
X008785Y005207D01*
X008785Y005216D01*
X008839Y005218D01*
X008893Y005224D01*
X008947Y005234D01*
X009000Y005248D01*
X009051Y005266D01*
X009101Y005287D01*
X009150Y005312D01*
X009197Y005340D01*
X009241Y005371D01*
X009283Y005405D01*
X009323Y005443D01*
X009360Y005483D01*
X009425Y006524D02*
X009356Y006467D01*
X009357Y006467D02*
X009320Y006507D01*
X009281Y006545D01*
X009239Y006579D01*
X009195Y006611D01*
X009149Y006639D01*
X009100Y006664D01*
X009050Y006685D01*
X008999Y006703D01*
X008946Y006716D01*
X008893Y006726D01*
X008839Y006733D01*
X008785Y006735D01*
X008784Y006824D01*
X008785Y006825D01*
X008841Y006823D01*
X008897Y006817D01*
X008952Y006807D01*
X009007Y006794D01*
X009060Y006777D01*
X009113Y006757D01*
X009164Y006733D01*
X009213Y006706D01*
X009260Y006675D01*
X009305Y006642D01*
X009348Y006606D01*
X009388Y006567D01*
X009426Y006525D01*
X009419Y006519D01*
X009382Y006560D01*
X009342Y006599D01*
X009300Y006635D01*
X009255Y006668D01*
X009208Y006698D01*
X009160Y006725D01*
X009109Y006748D01*
X009057Y006769D01*
X009004Y006785D01*
X008950Y006798D01*
X008896Y006808D01*
X008841Y006814D01*
X008785Y006816D01*
X008785Y006807D01*
X008840Y006805D01*
X008895Y006799D01*
X008949Y006790D01*
X009002Y006777D01*
X009054Y006760D01*
X009106Y006740D01*
X009155Y006717D01*
X009204Y006690D01*
X009250Y006661D01*
X009294Y006628D01*
X009336Y006592D01*
X009375Y006554D01*
X009412Y006513D01*
X009405Y006508D01*
X009369Y006548D01*
X009330Y006586D01*
X009288Y006621D01*
X009245Y006653D01*
X009199Y006683D01*
X009151Y006709D01*
X009102Y006732D01*
X009052Y006752D01*
X009000Y006768D01*
X008947Y006781D01*
X008893Y006790D01*
X008839Y006796D01*
X008785Y006798D01*
X008785Y006789D01*
X008839Y006787D01*
X008892Y006781D01*
X008945Y006772D01*
X008997Y006759D01*
X009049Y006743D01*
X009099Y006724D01*
X009147Y006701D01*
X009194Y006675D01*
X009240Y006646D01*
X009283Y006614D01*
X009324Y006579D01*
X009362Y006542D01*
X009398Y006502D01*
X009391Y006496D01*
X009356Y006535D01*
X009318Y006572D01*
X009277Y006607D01*
X009234Y006638D01*
X009190Y006667D01*
X009143Y006693D01*
X009095Y006715D01*
X009046Y006735D01*
X008995Y006751D01*
X008943Y006763D01*
X008891Y006772D01*
X008838Y006778D01*
X008785Y006780D01*
X008785Y006771D01*
X008837Y006769D01*
X008890Y006763D01*
X008941Y006754D01*
X008992Y006742D01*
X009043Y006726D01*
X009092Y006707D01*
X009139Y006685D01*
X009185Y006659D01*
X009229Y006631D01*
X009271Y006600D01*
X009312Y006566D01*
X009349Y006529D01*
X009384Y006490D01*
X009378Y006484D01*
X009343Y006523D01*
X009305Y006559D01*
X009266Y006593D01*
X009224Y006624D01*
X009180Y006652D01*
X009135Y006677D01*
X009088Y006699D01*
X009040Y006718D01*
X008990Y006733D01*
X008940Y006746D01*
X008888Y006754D01*
X008837Y006760D01*
X008785Y006762D01*
X008785Y006753D01*
X008836Y006751D01*
X008887Y006746D01*
X008938Y006737D01*
X008988Y006725D01*
X009037Y006709D01*
X009084Y006691D01*
X009131Y006669D01*
X009176Y006644D01*
X009219Y006616D01*
X009260Y006586D01*
X009299Y006553D01*
X009336Y006517D01*
X009371Y006479D01*
X009364Y006473D01*
X009327Y006514D01*
X009287Y006552D01*
X009245Y006586D01*
X009200Y006618D01*
X009153Y006647D01*
X009104Y006672D01*
X009053Y006693D01*
X009002Y006711D01*
X008948Y006725D01*
X008894Y006735D01*
X008840Y006742D01*
X008785Y006744D01*
X004375Y006824D02*
X004375Y006734D01*
X004375Y006735D02*
X004321Y006733D01*
X004268Y006727D01*
X004215Y006717D01*
X004163Y006703D01*
X004112Y006686D01*
X004063Y006665D01*
X004015Y006641D01*
X003969Y006613D01*
X003925Y006582D01*
X003883Y006548D01*
X003844Y006512D01*
X003807Y006472D01*
X003774Y006430D01*
X003743Y006386D01*
X003716Y006340D01*
X003637Y006382D01*
X003665Y006431D01*
X003697Y006477D01*
X003732Y006522D01*
X003769Y006564D01*
X003810Y006604D01*
X003853Y006640D01*
X003898Y006674D01*
X003945Y006705D01*
X003995Y006732D01*
X004046Y006756D01*
X004098Y006777D01*
X004152Y006794D01*
X004207Y006807D01*
X004262Y006817D01*
X004319Y006823D01*
X004375Y006825D01*
X004375Y006816D01*
X004319Y006814D01*
X004264Y006808D01*
X004209Y006798D01*
X004154Y006785D01*
X004101Y006768D01*
X004049Y006748D01*
X003999Y006724D01*
X003950Y006697D01*
X003903Y006667D01*
X003858Y006633D01*
X003816Y006597D01*
X003776Y006558D01*
X003739Y006516D01*
X003704Y006472D01*
X003673Y006426D01*
X003645Y006378D01*
X003653Y006374D01*
X003681Y006421D01*
X003712Y006467D01*
X003746Y006510D01*
X003782Y006552D01*
X003822Y006590D01*
X003864Y006626D01*
X003908Y006659D01*
X003954Y006689D01*
X004003Y006716D01*
X004053Y006739D01*
X004104Y006760D01*
X004157Y006776D01*
X004210Y006789D01*
X004265Y006799D01*
X004320Y006805D01*
X004375Y006807D01*
X004375Y006798D01*
X004320Y006796D01*
X004266Y006790D01*
X004212Y006781D01*
X004159Y006768D01*
X004107Y006751D01*
X004056Y006731D01*
X004007Y006708D01*
X003959Y006681D01*
X003913Y006652D01*
X003869Y006619D01*
X003828Y006584D01*
X003789Y006545D01*
X003752Y006505D01*
X003719Y006462D01*
X003688Y006416D01*
X003661Y006369D01*
X003669Y006365D01*
X003696Y006412D01*
X003726Y006456D01*
X003759Y006499D01*
X003795Y006539D01*
X003834Y006577D01*
X003875Y006612D01*
X003918Y006644D01*
X003964Y006674D01*
X004011Y006700D01*
X004060Y006723D01*
X004110Y006743D01*
X004162Y006759D01*
X004214Y006772D01*
X004267Y006781D01*
X004321Y006787D01*
X004375Y006789D01*
X004375Y006780D01*
X004322Y006778D01*
X004269Y006772D01*
X004216Y006763D01*
X004164Y006750D01*
X004113Y006734D01*
X004063Y006715D01*
X004015Y006692D01*
X003968Y006666D01*
X003924Y006637D01*
X003881Y006605D01*
X003840Y006570D01*
X003802Y006533D01*
X003766Y006493D01*
X003733Y006451D01*
X003703Y006407D01*
X003676Y006361D01*
X003684Y006357D01*
X003711Y006402D01*
X003741Y006446D01*
X003773Y006487D01*
X003808Y006527D01*
X003846Y006564D01*
X003886Y006598D01*
X003929Y006630D01*
X003973Y006658D01*
X004019Y006684D01*
X004067Y006706D01*
X004116Y006726D01*
X004166Y006742D01*
X004218Y006754D01*
X004270Y006763D01*
X004322Y006769D01*
X004375Y006771D01*
X004375Y006762D01*
X004319Y006760D01*
X004264Y006753D01*
X004209Y006743D01*
X004155Y006729D01*
X004103Y006711D01*
X004051Y006690D01*
X004002Y006664D01*
X003954Y006636D01*
X003908Y006604D01*
X003865Y006569D01*
X003825Y006531D01*
X003787Y006490D01*
X003752Y006446D01*
X003721Y006400D01*
X003692Y006352D01*
X003700Y006348D01*
X003728Y006396D01*
X003759Y006441D01*
X003794Y006484D01*
X003831Y006524D01*
X003871Y006562D01*
X003914Y006597D01*
X003959Y006628D01*
X004006Y006657D01*
X004055Y006681D01*
X004106Y006703D01*
X004158Y006720D01*
X004211Y006734D01*
X004265Y006744D01*
X004320Y006751D01*
X004375Y006753D01*
X004375Y006744D01*
X004321Y006742D01*
X004267Y006736D01*
X004213Y006726D01*
X004161Y006712D01*
X004109Y006694D01*
X004059Y006673D01*
X004010Y006649D01*
X003964Y006621D01*
X003919Y006589D01*
X003877Y006555D01*
X003838Y006518D01*
X003801Y006478D01*
X003767Y006436D01*
X003736Y006391D01*
X003708Y006344D01*
X003649Y005557D02*
X003727Y005602D01*
X003727Y005601D02*
X003755Y005557D01*
X003786Y005515D01*
X003819Y005475D01*
X003855Y005437D01*
X003894Y005402D01*
X003935Y005370D01*
X003979Y005340D01*
X004024Y005314D01*
X004071Y005291D01*
X004119Y005271D01*
X004169Y005255D01*
X004219Y005242D01*
X004271Y005233D01*
X004323Y005227D01*
X004375Y005225D01*
X004376Y005136D01*
X004375Y005135D01*
X004320Y005137D01*
X004266Y005143D01*
X004211Y005152D01*
X004158Y005165D01*
X004106Y005181D01*
X004054Y005200D01*
X004004Y005223D01*
X003956Y005249D01*
X003909Y005278D01*
X003865Y005310D01*
X003822Y005345D01*
X003782Y005383D01*
X003745Y005423D01*
X003710Y005465D01*
X003678Y005510D01*
X003649Y005556D01*
X003657Y005561D01*
X003685Y005515D01*
X003717Y005471D01*
X003752Y005429D01*
X003789Y005389D01*
X003828Y005352D01*
X003870Y005317D01*
X003914Y005286D01*
X003960Y005257D01*
X004008Y005231D01*
X004058Y005209D01*
X004108Y005189D01*
X004160Y005173D01*
X004213Y005161D01*
X004267Y005152D01*
X004321Y005146D01*
X004375Y005144D01*
X004375Y005153D01*
X004321Y005155D01*
X004268Y005161D01*
X004215Y005170D01*
X004163Y005182D01*
X004111Y005198D01*
X004061Y005217D01*
X004012Y005239D01*
X003965Y005265D01*
X003919Y005293D01*
X003876Y005325D01*
X003834Y005359D01*
X003795Y005395D01*
X003758Y005435D01*
X003724Y005476D01*
X003693Y005520D01*
X003664Y005565D01*
X003672Y005570D01*
X003702Y005522D01*
X003736Y005476D01*
X003772Y005433D01*
X003812Y005392D01*
X003854Y005354D01*
X003898Y005319D01*
X003945Y005287D01*
X003994Y005259D01*
X004045Y005234D01*
X004098Y005212D01*
X004151Y005195D01*
X004206Y005181D01*
X004262Y005171D01*
X004318Y005164D01*
X004375Y005162D01*
X004375Y005171D01*
X004319Y005173D01*
X004263Y005179D01*
X004208Y005189D01*
X004154Y005203D01*
X004101Y005221D01*
X004049Y005242D01*
X003998Y005267D01*
X003950Y005295D01*
X003904Y005326D01*
X003859Y005361D01*
X003818Y005398D01*
X003779Y005439D01*
X003743Y005481D01*
X003710Y005527D01*
X003680Y005574D01*
X003688Y005579D01*
X003717Y005532D01*
X003750Y005487D01*
X003786Y005445D01*
X003824Y005405D01*
X003865Y005368D01*
X003909Y005333D01*
X003955Y005302D01*
X004003Y005275D01*
X004052Y005250D01*
X004104Y005229D01*
X004156Y005212D01*
X004210Y005198D01*
X004265Y005188D01*
X004320Y005182D01*
X004375Y005180D01*
X004375Y005189D01*
X004320Y005191D01*
X004266Y005197D01*
X004212Y005207D01*
X004159Y005221D01*
X004107Y005238D01*
X004056Y005258D01*
X004007Y005283D01*
X003960Y005310D01*
X003914Y005341D01*
X003871Y005374D01*
X003830Y005411D01*
X003792Y005451D01*
X003757Y005493D01*
X003725Y005537D01*
X003696Y005583D01*
X003704Y005588D01*
X003732Y005542D01*
X003764Y005498D01*
X003799Y005457D01*
X003837Y005418D01*
X003877Y005381D01*
X003919Y005348D01*
X003964Y005318D01*
X004011Y005290D01*
X004060Y005267D01*
X004110Y005246D01*
X004161Y005229D01*
X004214Y005216D01*
X004267Y005206D01*
X004321Y005200D01*
X004375Y005198D01*
X004375Y005207D01*
X004322Y005209D01*
X004268Y005215D01*
X004216Y005225D01*
X004164Y005238D01*
X004113Y005255D01*
X004063Y005275D01*
X004015Y005298D01*
X003969Y005325D01*
X003925Y005355D01*
X003883Y005388D01*
X003843Y005424D01*
X003806Y005463D01*
X003771Y005504D01*
X003740Y005547D01*
X003711Y005592D01*
X003719Y005597D01*
X003747Y005552D01*
X003778Y005509D01*
X003812Y005469D01*
X003849Y005431D01*
X003888Y005395D01*
X003930Y005363D01*
X003974Y005333D01*
X004020Y005306D01*
X004067Y005283D01*
X004116Y005263D01*
X004166Y005246D01*
X004218Y005233D01*
X004270Y005224D01*
X004322Y005218D01*
X004375Y005216D01*
X004384Y005136D02*
X004384Y005226D01*
X004385Y005225D02*
X004439Y005227D01*
X004492Y005233D01*
X004545Y005243D01*
X004597Y005257D01*
X004648Y005274D01*
X004698Y005295D01*
X004746Y005319D01*
X004792Y005347D01*
X004836Y005378D01*
X004877Y005412D01*
X004917Y005449D01*
X004953Y005488D01*
X005021Y005431D01*
X005022Y005430D01*
X004984Y005389D01*
X004944Y005351D01*
X004901Y005315D01*
X004856Y005282D01*
X004809Y005252D01*
X004761Y005226D01*
X004710Y005202D01*
X004658Y005182D01*
X004605Y005166D01*
X004551Y005152D01*
X004496Y005143D01*
X004441Y005137D01*
X004385Y005135D01*
X004385Y005144D01*
X004440Y005146D01*
X004495Y005152D01*
X004549Y005161D01*
X004603Y005174D01*
X004655Y005191D01*
X004707Y005210D01*
X004757Y005234D01*
X004805Y005260D01*
X004851Y005290D01*
X004896Y005322D01*
X004938Y005357D01*
X004978Y005396D01*
X005015Y005436D01*
X005008Y005442D01*
X004971Y005402D01*
X004932Y005364D01*
X004890Y005329D01*
X004846Y005297D01*
X004800Y005268D01*
X004752Y005242D01*
X004703Y005219D01*
X004652Y005199D01*
X004600Y005183D01*
X004547Y005170D01*
X004494Y005161D01*
X004439Y005155D01*
X004385Y005153D01*
X004385Y005162D01*
X004439Y005164D01*
X004492Y005170D01*
X004545Y005179D01*
X004598Y005192D01*
X004649Y005208D01*
X004700Y005227D01*
X004748Y005250D01*
X004796Y005275D01*
X004841Y005304D01*
X004885Y005336D01*
X004926Y005371D01*
X004965Y005408D01*
X005001Y005448D01*
X004994Y005454D01*
X004958Y005414D01*
X004920Y005377D01*
X004879Y005343D01*
X004836Y005312D01*
X004791Y005283D01*
X004744Y005258D01*
X004696Y005235D01*
X004646Y005216D01*
X004595Y005200D01*
X004544Y005188D01*
X004491Y005179D01*
X004438Y005173D01*
X004385Y005171D01*
X004385Y005180D01*
X004438Y005182D01*
X004490Y005188D01*
X004542Y005197D01*
X004593Y005209D01*
X004643Y005225D01*
X004693Y005244D01*
X004740Y005266D01*
X004787Y005291D01*
X004831Y005319D01*
X004873Y005350D01*
X004914Y005384D01*
X004952Y005421D01*
X004987Y005459D01*
X004981Y005465D01*
X004945Y005427D01*
X004908Y005391D01*
X004868Y005357D01*
X004826Y005327D01*
X004782Y005299D01*
X004736Y005274D01*
X004689Y005252D01*
X004640Y005233D01*
X004591Y005218D01*
X004540Y005205D01*
X004489Y005197D01*
X004437Y005191D01*
X004385Y005189D01*
X004385Y005198D01*
X004441Y005200D01*
X004496Y005207D01*
X004551Y005217D01*
X004605Y005231D01*
X004658Y005249D01*
X004709Y005271D01*
X004759Y005296D01*
X004807Y005325D01*
X004852Y005357D01*
X004895Y005392D01*
X004936Y005430D01*
X004974Y005471D01*
X004967Y005477D01*
X004930Y005436D01*
X004889Y005399D01*
X004847Y005364D01*
X004802Y005332D01*
X004754Y005304D01*
X004705Y005279D01*
X004654Y005257D01*
X004602Y005240D01*
X004549Y005226D01*
X004495Y005216D01*
X004440Y005209D01*
X004385Y005207D01*
X004385Y005216D01*
X004439Y005218D01*
X004493Y005224D01*
X004547Y005234D01*
X004600Y005248D01*
X004651Y005266D01*
X004701Y005287D01*
X004750Y005312D01*
X004797Y005340D01*
X004841Y005371D01*
X004883Y005405D01*
X004923Y005443D01*
X004960Y005483D01*
X005025Y006524D02*
X004956Y006467D01*
X004957Y006467D02*
X004920Y006507D01*
X004881Y006545D01*
X004839Y006579D01*
X004795Y006611D01*
X004749Y006639D01*
X004700Y006664D01*
X004650Y006685D01*
X004599Y006703D01*
X004546Y006716D01*
X004493Y006726D01*
X004439Y006733D01*
X004385Y006735D01*
X004384Y006824D01*
X004385Y006825D01*
X004441Y006823D01*
X004497Y006817D01*
X004552Y006807D01*
X004607Y006794D01*
X004660Y006777D01*
X004713Y006757D01*
X004764Y006733D01*
X004813Y006706D01*
X004860Y006675D01*
X004905Y006642D01*
X004948Y006606D01*
X004988Y006567D01*
X005026Y006525D01*
X005019Y006519D01*
X004982Y006560D01*
X004942Y006599D01*
X004900Y006635D01*
X004855Y006668D01*
X004808Y006698D01*
X004760Y006725D01*
X004709Y006748D01*
X004657Y006769D01*
X004604Y006785D01*
X004550Y006798D01*
X004496Y006808D01*
X004441Y006814D01*
X004385Y006816D01*
X004385Y006807D01*
X004440Y006805D01*
X004495Y006799D01*
X004549Y006790D01*
X004602Y006777D01*
X004654Y006760D01*
X004706Y006740D01*
X004755Y006717D01*
X004804Y006690D01*
X004850Y006661D01*
X004894Y006628D01*
X004936Y006592D01*
X004975Y006554D01*
X005012Y006513D01*
X005005Y006508D01*
X004969Y006548D01*
X004930Y006586D01*
X004888Y006621D01*
X004845Y006653D01*
X004799Y006683D01*
X004751Y006709D01*
X004702Y006732D01*
X004652Y006752D01*
X004600Y006768D01*
X004547Y006781D01*
X004493Y006790D01*
X004439Y006796D01*
X004385Y006798D01*
X004385Y006789D01*
X004439Y006787D01*
X004492Y006781D01*
X004545Y006772D01*
X004597Y006759D01*
X004649Y006743D01*
X004699Y006724D01*
X004747Y006701D01*
X004794Y006675D01*
X004840Y006646D01*
X004883Y006614D01*
X004924Y006579D01*
X004962Y006542D01*
X004998Y006502D01*
X004991Y006496D01*
X004956Y006535D01*
X004918Y006572D01*
X004877Y006607D01*
X004834Y006638D01*
X004790Y006667D01*
X004743Y006693D01*
X004695Y006715D01*
X004646Y006735D01*
X004595Y006751D01*
X004543Y006763D01*
X004491Y006772D01*
X004438Y006778D01*
X004385Y006780D01*
X004385Y006771D01*
X004437Y006769D01*
X004490Y006763D01*
X004541Y006754D01*
X004592Y006742D01*
X004643Y006726D01*
X004692Y006707D01*
X004739Y006685D01*
X004785Y006659D01*
X004829Y006631D01*
X004871Y006600D01*
X004912Y006566D01*
X004949Y006529D01*
X004984Y006490D01*
X004978Y006484D01*
X004943Y006523D01*
X004905Y006559D01*
X004866Y006593D01*
X004824Y006624D01*
X004780Y006652D01*
X004735Y006677D01*
X004688Y006699D01*
X004640Y006718D01*
X004590Y006733D01*
X004540Y006746D01*
X004488Y006754D01*
X004437Y006760D01*
X004385Y006762D01*
X004385Y006753D01*
X004436Y006751D01*
X004487Y006746D01*
X004538Y006737D01*
X004588Y006725D01*
X004637Y006709D01*
X004684Y006691D01*
X004731Y006669D01*
X004776Y006644D01*
X004819Y006616D01*
X004860Y006586D01*
X004899Y006553D01*
X004936Y006517D01*
X004971Y006479D01*
X004964Y006473D01*
X004927Y006514D01*
X004887Y006552D01*
X004845Y006586D01*
X004800Y006618D01*
X004753Y006647D01*
X004704Y006672D01*
X004653Y006693D01*
X004602Y006711D01*
X004548Y006725D01*
X004494Y006735D01*
X004440Y006742D01*
X004385Y006744D01*
X002075Y004607D02*
X002075Y004557D01*
X002050Y004532D01*
X002075Y004485D02*
X002025Y004435D01*
X002025Y004460D02*
X002025Y004385D01*
X002075Y004385D02*
X001925Y004385D01*
X001925Y004460D01*
X001950Y004485D01*
X002000Y004485D01*
X002025Y004460D01*
X001950Y004532D02*
X001925Y004557D01*
X001925Y004607D01*
X001950Y004632D01*
X001975Y004632D01*
X002000Y004607D01*
X002025Y004632D01*
X002050Y004632D01*
X002075Y004607D01*
X002000Y004607D02*
X002000Y004582D01*
X005925Y002607D02*
X006000Y002532D01*
X006000Y002632D01*
X006075Y002607D02*
X005925Y002607D01*
X005950Y002485D02*
X006000Y002485D01*
X006025Y002460D01*
X006025Y002385D01*
X006075Y002385D02*
X005925Y002385D01*
X005925Y002460D01*
X005950Y002485D01*
X006025Y002435D02*
X006075Y002485D01*
X009925Y002460D02*
X009950Y002485D01*
X010000Y002485D01*
X010025Y002460D01*
X010025Y002385D01*
X010075Y002385D02*
X009925Y002385D01*
X009925Y002460D01*
X009925Y002532D02*
X010000Y002532D01*
X009975Y002582D01*
X009975Y002607D01*
X010000Y002632D01*
X010050Y002632D01*
X010075Y002607D01*
X010075Y002557D01*
X010050Y002532D01*
X010075Y002485D02*
X010025Y002435D01*
X009925Y002532D02*
X009925Y002632D01*
X013525Y002632D02*
X013550Y002582D01*
X013600Y002532D01*
X013600Y002607D01*
X013625Y002632D01*
X013650Y002632D01*
X013675Y002607D01*
X013675Y002557D01*
X013650Y002532D01*
X013600Y002532D01*
X013600Y002485D02*
X013625Y002460D01*
X013625Y002385D01*
X013675Y002385D02*
X013525Y002385D01*
X013525Y002460D01*
X013550Y002485D01*
X013600Y002485D01*
X013625Y002435D02*
X013675Y002485D01*
X014375Y012685D02*
X014325Y012735D01*
X014375Y012785D01*
X014475Y012785D01*
X014400Y012785D02*
X014400Y012685D01*
X014375Y012685D02*
X014475Y012685D01*
X014400Y012832D02*
X014325Y012907D01*
X014475Y012907D01*
X014400Y012932D02*
X014400Y012832D01*
X016885Y013440D02*
X016935Y013390D01*
X017035Y013390D01*
X016960Y013390D02*
X016960Y013490D01*
X016935Y013490D02*
X017035Y013490D01*
X017010Y013538D02*
X017035Y013563D01*
X017035Y013613D01*
X017010Y013638D01*
X016985Y013638D01*
X016960Y013613D01*
X016960Y013588D01*
X016960Y013613D02*
X016935Y013638D01*
X016910Y013638D01*
X016885Y013613D01*
X016885Y013563D01*
X016910Y013538D01*
X016935Y013490D02*
X016885Y013440D01*
D17*
X016600Y006490D02*
X016600Y006290D01*
X016600Y005650D02*
X016600Y005470D01*
X013200Y005470D02*
X013200Y005650D01*
X013200Y006290D02*
X013200Y006490D01*
X009400Y006490D02*
X009400Y006290D01*
X009400Y005650D02*
X009400Y005470D01*
X005000Y005470D02*
X005000Y005650D01*
X005000Y006290D02*
X005000Y006490D01*
D18*
X004936Y007155D02*
X005236Y007155D01*
X005086Y007155D02*
X005086Y007605D01*
X004936Y007455D01*
X004776Y007530D02*
X004701Y007605D01*
X004476Y007605D01*
X004476Y007155D01*
X004701Y007155D01*
X004776Y007230D01*
X004776Y007530D01*
X004316Y007605D02*
X004015Y007605D01*
X004015Y007155D01*
X004316Y007155D01*
X004166Y007380D02*
X004015Y007380D01*
X003855Y007155D02*
X003555Y007155D01*
X003555Y007605D01*
X007955Y007605D02*
X007955Y007155D01*
X008255Y007155D01*
X008415Y007155D02*
X008716Y007155D01*
X008876Y007155D02*
X009101Y007155D01*
X009176Y007230D01*
X009176Y007530D01*
X009101Y007605D01*
X008876Y007605D01*
X008876Y007155D01*
X008566Y007380D02*
X008415Y007380D01*
X008415Y007605D02*
X008415Y007155D01*
X008415Y007605D02*
X008716Y007605D01*
X009336Y007530D02*
X009411Y007605D01*
X009561Y007605D01*
X009636Y007530D01*
X009636Y007455D01*
X009336Y007155D01*
X009636Y007155D01*
X011955Y007155D02*
X012255Y007155D01*
X012415Y007155D02*
X012716Y007155D01*
X012876Y007155D02*
X013101Y007155D01*
X013176Y007230D01*
X013176Y007530D01*
X013101Y007605D01*
X012876Y007605D01*
X012876Y007155D01*
X012566Y007380D02*
X012415Y007380D01*
X012415Y007605D02*
X012415Y007155D01*
X011955Y007155D02*
X011955Y007605D01*
X012415Y007605D02*
X012716Y007605D01*
X013336Y007530D02*
X013411Y007605D01*
X013561Y007605D01*
X013636Y007530D01*
X013636Y007455D01*
X013561Y007380D01*
X013636Y007305D01*
X013636Y007230D01*
X013561Y007155D01*
X013411Y007155D01*
X013336Y007230D01*
X013486Y007380D02*
X013561Y007380D01*
X015355Y007155D02*
X015655Y007155D01*
X015815Y007155D02*
X016116Y007155D01*
X016276Y007155D02*
X016501Y007155D01*
X016576Y007230D01*
X016576Y007530D01*
X016501Y007605D01*
X016276Y007605D01*
X016276Y007155D01*
X015966Y007380D02*
X015815Y007380D01*
X015815Y007605D02*
X015815Y007155D01*
X015355Y007155D02*
X015355Y007605D01*
X015815Y007605D02*
X016116Y007605D01*
X016736Y007380D02*
X017036Y007380D01*
X016961Y007155D02*
X016961Y007605D01*
X016736Y007380D01*
X015010Y003203D02*
X015010Y002903D01*
X014785Y003128D01*
X015235Y003128D01*
X015010Y002743D02*
X015010Y002442D01*
X015160Y002282D02*
X014860Y002282D01*
X014785Y002207D01*
X014785Y002057D01*
X014860Y001982D01*
X015160Y001982D01*
X015235Y002057D01*
X015235Y002207D01*
X015160Y002282D01*
X015235Y001825D02*
X015235Y001675D01*
X015235Y001750D02*
X014785Y001750D01*
X014785Y001675D02*
X014785Y001825D01*
X011835Y001825D02*
X011835Y001675D01*
X011835Y001750D02*
X011385Y001750D01*
X011385Y001675D02*
X011385Y001825D01*
X011460Y001982D02*
X011760Y001982D01*
X011835Y002057D01*
X011835Y002207D01*
X011760Y002282D01*
X011460Y002282D01*
X011385Y002207D01*
X011385Y002057D01*
X011460Y001982D01*
X011610Y002442D02*
X011610Y002743D01*
X011760Y002903D02*
X011835Y002978D01*
X011835Y003128D01*
X011760Y003203D01*
X011685Y003203D01*
X011610Y003128D01*
X011610Y003053D01*
X011610Y003128D02*
X011535Y003203D01*
X011460Y003203D01*
X011385Y003128D01*
X011385Y002978D01*
X011460Y002903D01*
X008035Y002903D02*
X007735Y003203D01*
X007660Y003203D01*
X007585Y003128D01*
X007585Y002978D01*
X007660Y002903D01*
X007810Y002743D02*
X007810Y002442D01*
X007960Y002282D02*
X007660Y002282D01*
X007585Y002207D01*
X007585Y002057D01*
X007660Y001982D01*
X007960Y001982D01*
X008035Y002057D01*
X008035Y002207D01*
X007960Y002282D01*
X008035Y001825D02*
X008035Y001675D01*
X008035Y001750D02*
X007585Y001750D01*
X007585Y001675D02*
X007585Y001825D01*
X008035Y002903D02*
X008035Y003203D01*
X003635Y003203D02*
X003635Y002903D01*
X003635Y003053D02*
X003185Y003053D01*
X003335Y002903D01*
X003410Y002743D02*
X003410Y002442D01*
X003560Y002282D02*
X003260Y002282D01*
X003185Y002207D01*
X003185Y002057D01*
X003260Y001982D01*
X003560Y001982D01*
X003635Y002057D01*
X003635Y002207D01*
X003560Y002282D01*
X003635Y001825D02*
X003635Y001675D01*
X003635Y001750D02*
X003185Y001750D01*
X003185Y001675D02*
X003185Y001825D01*
X018925Y012493D02*
X019150Y012493D01*
X019075Y012644D01*
X019075Y012719D01*
X019150Y012794D01*
X019300Y012794D01*
X019375Y012719D01*
X019375Y012568D01*
X019300Y012493D01*
X018925Y012493D02*
X018925Y012794D01*
X018925Y012954D02*
X019225Y012954D01*
X019375Y013104D01*
X019225Y013254D01*
X018925Y013254D01*
X018925Y013414D02*
X018925Y013639D01*
X019000Y013714D01*
X019300Y013714D01*
X019375Y013639D01*
X019375Y013414D01*
X018925Y013414D01*
X019000Y013875D02*
X019300Y013875D01*
X019375Y013950D01*
X019375Y014100D01*
X019300Y014175D01*
X019000Y014175D02*
X018925Y014100D01*
X018925Y013950D01*
X019000Y013875D01*
M02*
