G75*
%MOIN*%
%OFA0B0*%
%FSLAX24Y24*%
%IPPOS*%
%LPD*%
%AMOC8*
5,1,8,0,0,1.08239X$1,22.5*
%
%ADD10C,0.1320*%
%ADD11C,0.0710*%
%ADD12R,0.0296X0.0926*%
%ADD13R,0.0800X0.0800*%
%ADD14C,0.0800*%
%ADD15R,0.0310X0.0560*%
%ADD16R,0.0560X0.0310*%
%ADD17C,0.0330*%
D10*
X002180Y001780D03*
X022980Y001780D03*
X022980Y013580D03*
X002180Y013580D03*
D11*
X007380Y010380D03*
X007380Y009380D03*
D12*
X009330Y009069D03*
X009830Y009069D03*
X010330Y009069D03*
X010830Y009069D03*
X011330Y009069D03*
X011830Y009069D03*
X012330Y009069D03*
X012830Y009069D03*
X012830Y012691D03*
X012330Y012691D03*
X011830Y012691D03*
X011330Y012691D03*
X010830Y012691D03*
X010330Y012691D03*
X009830Y012691D03*
X009330Y012691D03*
D13*
X005980Y011180D03*
X017780Y008180D03*
D14*
X017780Y009180D03*
X017780Y010180D03*
X017780Y011180D03*
X018180Y012780D03*
X018180Y013780D03*
X020780Y013780D03*
X020780Y012780D03*
X016480Y005980D03*
X015480Y005980D03*
X014180Y004880D03*
X012580Y004180D03*
X012580Y003180D03*
X012580Y002180D03*
X014180Y001880D03*
X015980Y002180D03*
X015980Y003180D03*
X015980Y004180D03*
X018980Y005280D03*
X020980Y005280D03*
X020980Y002280D03*
X018980Y002280D03*
X013080Y005980D03*
X012080Y005980D03*
X010580Y004880D03*
X008780Y004180D03*
X008780Y003180D03*
X008780Y002180D03*
X010580Y001880D03*
X006580Y001880D03*
X004380Y002180D03*
X004380Y003180D03*
X004380Y004180D03*
X002580Y003880D03*
X003880Y005980D03*
X004880Y005980D03*
X006580Y004880D03*
X008280Y005980D03*
X009280Y005980D03*
X005980Y008180D03*
X005980Y009180D03*
X005980Y010180D03*
X002580Y006880D03*
D15*
X015030Y008780D03*
X015380Y008780D03*
X015730Y008780D03*
X015730Y009980D03*
X015380Y009980D03*
X015030Y009980D03*
X015030Y011180D03*
X015380Y011180D03*
X015730Y011180D03*
D16*
X016380Y012830D03*
X016380Y013180D03*
X016380Y013530D03*
X014980Y013530D03*
X014980Y013180D03*
X014980Y012830D03*
D17*
X016840Y013200D03*
X016600Y011220D03*
X015400Y010680D03*
X015160Y010440D03*
X015460Y009240D03*
X011860Y009840D03*
X011620Y010200D03*
X010420Y009720D03*
X009940Y009720D03*
X009460Y009720D03*
X011860Y008400D03*
X009880Y012000D03*
X010480Y013320D03*
X013120Y003840D03*
M02*
