G75*
%MOIN*%
%OFA0B0*%
%FSLAX25Y25*%
%IPPOS*%
%LPD*%
%AMOC8*
5,1,8,0,0,1.08239X$1,22.5*
%
%ADD10C,0.13098*%
%ADD11C,0.07900*%
%ADD12R,0.07500X0.07500*%
%ADD13C,0.07500*%
%ADD14OC8,0.07100*%
%ADD15C,0.08374*%
%ADD16R,0.08374X0.08374*%
%ADD17R,0.06406X0.06406*%
%ADD18C,0.06406*%
%ADD19R,0.10343X0.10343*%
%ADD20OC8,0.06800*%
%ADD21C,0.06800*%
%ADD22C,0.17500*%
%ADD23C,0.08100*%
%ADD24C,0.05815*%
%ADD25C,0.06500*%
%ADD26C,0.05224*%
%ADD27R,0.07900X0.07900*%
%ADD28C,0.07100*%
%ADD29C,0.05300*%
%ADD30C,0.05500*%
%ADD31C,0.02500*%
%ADD32C,0.02484*%
D10*
X0138342Y0081300D03*
X0136842Y0293800D03*
X0494842Y0221800D03*
X0553342Y0081300D03*
D11*
X0518342Y0116300D03*
X0508342Y0116300D03*
X0498342Y0116300D03*
X0463342Y0116300D03*
X0453342Y0116300D03*
X0443342Y0116300D03*
X0298842Y0077800D03*
X0288842Y0077800D03*
X0223342Y0146300D03*
X0213342Y0146300D03*
X0203342Y0146300D03*
X0193342Y0146300D03*
X0183342Y0146300D03*
X0163342Y0141300D03*
X0153342Y0141300D03*
X0143342Y0141300D03*
X0143342Y0151300D03*
X0153342Y0151300D03*
X0163342Y0151300D03*
X0143342Y0121300D03*
X0143342Y0111300D03*
X0203342Y0271300D03*
X0213342Y0271300D03*
X0223342Y0271300D03*
X0223342Y0281300D03*
X0223342Y0291300D03*
X0213342Y0291300D03*
X0213342Y0281300D03*
X0203342Y0281300D03*
X0203342Y0291300D03*
X0243342Y0271300D03*
X0253342Y0271300D03*
X0437842Y0294800D03*
X0447842Y0294800D03*
X0457842Y0294800D03*
X0467842Y0294800D03*
X0477842Y0294800D03*
X0487842Y0294800D03*
X0497842Y0294800D03*
X0507842Y0294800D03*
X0517842Y0294800D03*
X0527842Y0294800D03*
X0537842Y0294800D03*
X0547842Y0294800D03*
X0557842Y0289800D03*
X0557842Y0279800D03*
X0557842Y0269800D03*
X0557842Y0259800D03*
X0557842Y0249800D03*
X0557842Y0239800D03*
X0547842Y0234800D03*
X0537842Y0234800D03*
X0527842Y0234800D03*
X0517842Y0234800D03*
X0507842Y0234800D03*
X0497842Y0234800D03*
X0487842Y0234800D03*
X0477842Y0234800D03*
X0467842Y0234800D03*
X0457842Y0234800D03*
X0447842Y0234800D03*
X0437842Y0234800D03*
X0462217Y0246050D03*
X0472217Y0246050D03*
X0503467Y0246050D03*
X0513467Y0246050D03*
X0548342Y0219800D03*
X0558342Y0219800D03*
D12*
X0270842Y0180800D03*
D13*
X0280842Y0180800D03*
X0290842Y0180800D03*
X0300842Y0180800D03*
X0300842Y0190800D03*
X0290842Y0190800D03*
X0280842Y0190800D03*
X0270842Y0190800D03*
D14*
X0168342Y0226300D03*
X0158342Y0226300D03*
X0158342Y0246300D03*
X0168342Y0246300D03*
X0168342Y0266300D03*
X0158342Y0266300D03*
X0158342Y0286300D03*
X0168342Y0286300D03*
D15*
X0181842Y0257300D03*
X0181842Y0247300D03*
X0254842Y0247300D03*
X0254842Y0257300D03*
X0274842Y0127300D03*
X0274842Y0117300D03*
X0201842Y0117300D03*
X0201842Y0127300D03*
D16*
X0201842Y0085300D03*
X0201842Y0075300D03*
X0274842Y0075300D03*
X0274842Y0085300D03*
X0336842Y0190300D03*
X0254842Y0205300D03*
X0254842Y0215300D03*
X0181842Y0215300D03*
X0181842Y0205300D03*
X0336842Y0245300D03*
D17*
X0533342Y0206300D03*
D18*
X0523342Y0206300D03*
X0513342Y0206300D03*
X0503342Y0206300D03*
X0493342Y0206300D03*
X0483342Y0206300D03*
X0473342Y0206300D03*
X0463342Y0206300D03*
X0406842Y0202800D03*
X0406842Y0212800D03*
X0406842Y0222800D03*
X0406842Y0232800D03*
D19*
X0409842Y0166300D03*
X0422342Y0166300D03*
X0379842Y0166300D03*
X0367342Y0166300D03*
X0367342Y0076300D03*
X0422342Y0076300D03*
D20*
X0253342Y0181300D03*
D21*
X0253342Y0191300D03*
D22*
X0168342Y0125237D03*
X0186846Y0113426D03*
X0168342Y0101615D03*
D23*
X0293342Y0091300D03*
X0293342Y0131300D03*
D24*
X0266342Y0140800D03*
X0265842Y0149800D03*
X0237842Y0149800D03*
X0238342Y0140800D03*
D25*
X0169142Y0162400D02*
X0163142Y0162400D01*
X0143542Y0162400D02*
X0137542Y0162400D01*
X0137542Y0180200D02*
X0143542Y0180200D01*
X0143542Y0192400D02*
X0137542Y0192400D01*
X0137542Y0210200D02*
X0143542Y0210200D01*
X0163142Y0210200D02*
X0169142Y0210200D01*
X0169142Y0192400D02*
X0163142Y0192400D01*
X0163142Y0180200D02*
X0169142Y0180200D01*
X0317342Y0135800D02*
X0317342Y0129800D01*
X0327342Y0129800D02*
X0327342Y0135800D01*
X0337342Y0135800D02*
X0337342Y0129800D01*
X0347342Y0129800D02*
X0347342Y0135800D01*
D26*
X0349842Y0150800D03*
X0349842Y0170800D03*
D27*
X0473342Y0116300D03*
X0528342Y0116300D03*
X0193342Y0271300D03*
X0193342Y0281300D03*
X0193342Y0291300D03*
D28*
X0240999Y0170800D03*
X0240999Y0160300D03*
X0260684Y0160300D03*
X0260684Y0170800D03*
X0274342Y0169643D03*
X0284842Y0169143D03*
X0293842Y0168643D03*
X0303342Y0168643D03*
X0303342Y0148957D03*
X0293842Y0148957D03*
X0284842Y0149457D03*
X0274342Y0149957D03*
D29*
X0313842Y0154400D02*
X0313842Y0159200D01*
X0323842Y0159200D02*
X0323842Y0154400D01*
X0333842Y0154400D02*
X0333842Y0159200D01*
X0338342Y0258900D02*
X0338342Y0263700D01*
X0348342Y0263700D02*
X0348342Y0258900D01*
X0358342Y0258900D02*
X0358342Y0263700D01*
X0368342Y0263700D02*
X0368342Y0258900D01*
X0368342Y0288900D02*
X0368342Y0293700D01*
X0358342Y0293700D02*
X0358342Y0288900D01*
X0348342Y0288900D02*
X0348342Y0293700D01*
X0338342Y0293700D02*
X0338342Y0288900D01*
D30*
X0257842Y0286800D03*
X0247842Y0286800D03*
X0237342Y0286800D03*
X0438842Y0223800D03*
X0438842Y0217300D03*
X0450842Y0217300D03*
X0450842Y0223800D03*
X0465342Y0223800D03*
X0465342Y0217300D03*
X0476842Y0221800D03*
X0515842Y0224300D03*
X0515842Y0217800D03*
D31*
X0510389Y0211969D03*
X0465113Y0211969D03*
X0433617Y0204095D03*
X0431649Y0223780D03*
X0451334Y0253308D03*
X0453302Y0255276D03*
X0476924Y0267087D03*
X0467082Y0269056D03*
X0465113Y0271024D03*
X0423775Y0292678D03*
X0398184Y0296615D03*
X0372594Y0296615D03*
X0396216Y0257245D03*
X0358814Y0241497D03*
X0358814Y0237560D03*
X0362751Y0229686D03*
X0356846Y0221812D03*
X0333224Y0225749D03*
X0325350Y0233623D03*
X0291885Y0219843D03*
X0301728Y0208032D03*
X0299759Y0206064D03*
X0299759Y0202127D03*
X0293854Y0196221D03*
X0295822Y0186379D03*
X0307633Y0176536D03*
X0317476Y0186379D03*
X0319444Y0190316D03*
X0321413Y0210001D03*
X0356846Y0182442D03*
X0402121Y0172599D03*
X0409995Y0176536D03*
X0457239Y0164725D03*
X0459208Y0174568D03*
X0484798Y0111576D03*
X0348972Y0143072D03*
X0309602Y0154883D03*
X0305665Y0158820D03*
X0291885Y0154883D03*
X0254484Y0152914D03*
X0242673Y0176536D03*
X0219050Y0200158D03*
X0207239Y0194253D03*
X0209208Y0221812D03*
X0226924Y0239528D03*
X0236767Y0237560D03*
X0260389Y0231654D03*
X0295822Y0259213D03*
X0295822Y0272993D03*
X0284011Y0276930D03*
X0285980Y0280867D03*
X0287948Y0290709D03*
X0284011Y0290709D03*
X0303696Y0294646D03*
X0313539Y0300552D03*
X0321413Y0265119D03*
X0250547Y0282835D03*
X0232830Y0269056D03*
X0211176Y0257245D03*
X0205271Y0259213D03*
X0171806Y0257245D03*
X0154090Y0251339D03*
X0150153Y0255276D03*
X0150153Y0265119D03*
X0138342Y0271024D03*
X0134405Y0251339D03*
X0154090Y0215906D03*
X0156058Y0182442D03*
X0189523Y0164725D03*
X0189523Y0160788D03*
X0159995Y0133229D03*
X0228893Y0111576D03*
X0289917Y0117481D03*
X0221019Y0296615D03*
D32*
X0263842Y0291800D03*
X0274342Y0252800D03*
X0289342Y0241300D03*
X0296842Y0243800D03*
X0293342Y0228800D03*
X0339342Y0232800D03*
X0241842Y0219800D03*
X0224342Y0207300D03*
X0195342Y0208300D03*
M02*
