%
M48
M72
T01C0.00984
T02C0.01000
T03C0.03000
T04C0.03150
T05C0.03200
T06C0.03543
T07C0.03937
T08C0.04000
T09C0.04400
T10C0.04724
T11C0.11800
T12C0.12598
%
T01
X224342Y207300
X241842Y219800
X289342Y241300
X296842Y243800
X293342Y228800
X274342Y252800
X263842Y291800
X339342Y232800
X195342Y208300
T02
X209208Y221812
X226924Y239528
X236767Y237560
X260389Y231654
X291885Y219843
X301728Y208032
X299759Y206064
X299759Y202127
X293854Y196221
X295822Y186379
X307633Y176536
X317476Y186379
X319444Y190316
X321413Y210001
X333224Y225749
X325350Y233623
X356846Y221812
X362751Y229686
X358814Y237560
X358814Y241497
X396216Y257245
X423775Y292678
X398184Y296615
X372594Y296615
X321413Y265119
X295822Y259213
X295822Y272993
X284011Y276930
X285980Y280867
X287948Y290709
X284011Y290709
X303696Y294646
X313539Y300552
X250547Y282835
X232830Y269056
X211176Y257245
X205271Y259213
X171806Y257245
X154090Y251339
X150153Y255276
X150153Y265119
X138342Y271024
X134405Y251339
X154090Y215906
X156058Y182442
X189523Y164725
X189523Y160788
X159995Y133229
X228893Y111576
X254484Y152914
X242673Y176536
X219050Y200158
X207239Y194253
X291885Y154883
X305665Y158820
X309602Y154883
X348972Y143072
X402121Y172599
X409995Y176536
X433617Y204095
X431649Y223780
X465113Y211969
X510389Y211969
X459208Y174568
X457239Y164725
X484798Y111576
X356846Y182442
X289917Y117481
X451334Y253308
X453302Y255276
X476924Y267087
X467082Y269056
X465113Y271024
X221019Y296615
T03
X240999Y170800
X240999Y160300
X260684Y160300
X260684Y170800
X274342Y169643
X284842Y169143
X293842Y168643
X303342Y168643
X303342Y148957
X293842Y148957
X284842Y149457
X274342Y149957
T04
X270842Y180800
X280842Y180800
X290842Y180800
X300842Y180800
X300842Y190800
X290842Y190800
X280842Y190800
X270842Y190800
X349842Y170800
X349842Y150800
T05
X333842Y156800
X323842Y156800
X313842Y156800
X253342Y181300
X253342Y191300
X168342Y226300
X158342Y226300
X158342Y246300
X168342Y246300
X168342Y266300
X158342Y266300
X158342Y286300
X168342Y286300
X338342Y291300
X348342Y291300
X358342Y291300
X368342Y291300
X368342Y261300
X358342Y261300
X348342Y261300
X338342Y261300
T06
X265842Y149800
X266342Y140800
X238342Y140800
X237842Y149800
T07
X336842Y190300
X406842Y202800
X406842Y212800
X406842Y222800
X406842Y232800
X463342Y206300
X473342Y206300
X483342Y206300
X493342Y206300
X503342Y206300
X513342Y206300
X523342Y206300
X533342Y206300
X336842Y245300
T08
X253342Y271300
X243342Y271300
X223342Y271300
X213342Y271300
X203342Y271300
X193342Y271300
X193342Y281300
X203342Y281300
X213342Y281300
X223342Y281300
X223342Y291300
X213342Y291300
X203342Y291300
X193342Y291300
X166142Y210200
X166142Y192400
X166142Y180200
X140542Y180200
X140542Y192400
X140542Y210200
X140542Y162400
X143342Y151300
X153342Y151300
X163342Y151300
X166142Y162400
X183342Y146300
X193342Y146300
X203342Y146300
X213342Y146300
X223342Y146300
X163342Y141300
X153342Y141300
X143342Y141300
X143342Y121300
X143342Y111300
X288842Y77800
X298842Y77800
X317342Y132800
X327342Y132800
X337342Y132800
X347342Y132800
X443342Y116300
X453342Y116300
X463342Y116300
X473342Y116300
X498342Y116300
X508342Y116300
X518342Y116300
X528342Y116300
X548342Y219800
X558342Y219800
X547842Y234800
X537842Y234800
X527842Y234800
X517842Y234800
X507842Y234800
X497842Y234800
X487842Y234800
X477842Y234800
X467842Y234800
X457842Y234800
X447842Y234800
X437842Y234800
X462217Y246050
X472217Y246050
X503467Y246050
X513467Y246050
X557842Y249800
X557842Y259800
X557842Y269800
X557842Y279800
X557842Y289800
X547842Y294800
X537842Y294800
X527842Y294800
X517842Y294800
X507842Y294800
X497842Y294800
X487842Y294800
X477842Y294800
X467842Y294800
X457842Y294800
X447842Y294800
X437842Y294800
X557842Y239800
T09
X293342Y131300
X293342Y91300
T10
X274842Y85300
X274842Y75300
X274842Y117300
X274842Y127300
X201842Y127300
X201842Y117300
X201842Y85300
X201842Y75300
X367342Y76300
X422342Y76300
X422342Y166300
X409842Y166300
X379842Y166300
X367342Y166300
X254842Y205300
X254842Y215300
X254842Y247300
X254842Y257300
X181842Y257300
X181842Y247300
X181842Y215300
X181842Y205300
T11
X168342Y125237
X186846Y113426
X168342Y101615
T12
X138342Y81300
X136842Y293800
X494842Y221800
X553342Y81300
M30
