G75*
%MOIN*%
%OFA0B0*%
%FSLAX24Y24*%
%IPPOS*%
%LPD*%
%AMOC8*
5,1,8,0,0,1.08239X$1,22.5*
%
%ADD10C,0.0000*%
%ADD11C,0.0070*%
%ADD12C,0.0040*%
%ADD13C,0.0060*%
%ADD14R,0.3400X0.3000*%
%ADD15C,0.0030*%
%ADD16C,0.0080*%
%ADD17C,0.0010*%
%ADD18C,0.0100*%
D10*
X000580Y000580D02*
X000580Y016076D01*
X023450Y016076D01*
X023450Y000580D01*
X000580Y000580D01*
X001350Y014780D02*
X001352Y014830D01*
X001358Y014880D01*
X001368Y014929D01*
X001382Y014977D01*
X001399Y015024D01*
X001420Y015069D01*
X001445Y015113D01*
X001473Y015154D01*
X001505Y015193D01*
X001539Y015230D01*
X001576Y015264D01*
X001616Y015294D01*
X001658Y015321D01*
X001702Y015345D01*
X001748Y015366D01*
X001795Y015382D01*
X001843Y015395D01*
X001893Y015404D01*
X001942Y015409D01*
X001993Y015410D01*
X002043Y015407D01*
X002092Y015400D01*
X002141Y015389D01*
X002189Y015374D01*
X002235Y015356D01*
X002280Y015334D01*
X002323Y015308D01*
X002364Y015279D01*
X002403Y015247D01*
X002439Y015212D01*
X002471Y015174D01*
X002501Y015134D01*
X002528Y015091D01*
X002551Y015047D01*
X002570Y015001D01*
X002586Y014953D01*
X002598Y014904D01*
X002606Y014855D01*
X002610Y014805D01*
X002610Y014755D01*
X002606Y014705D01*
X002598Y014656D01*
X002586Y014607D01*
X002570Y014559D01*
X002551Y014513D01*
X002528Y014469D01*
X002501Y014426D01*
X002471Y014386D01*
X002439Y014348D01*
X002403Y014313D01*
X002364Y014281D01*
X002323Y014252D01*
X002280Y014226D01*
X002235Y014204D01*
X002189Y014186D01*
X002141Y014171D01*
X002092Y014160D01*
X002043Y014153D01*
X001993Y014150D01*
X001942Y014151D01*
X001893Y014156D01*
X001843Y014165D01*
X001795Y014178D01*
X001748Y014194D01*
X001702Y014215D01*
X001658Y014239D01*
X001616Y014266D01*
X001576Y014296D01*
X001539Y014330D01*
X001505Y014367D01*
X001473Y014406D01*
X001445Y014447D01*
X001420Y014491D01*
X001399Y014536D01*
X001382Y014583D01*
X001368Y014631D01*
X001358Y014680D01*
X001352Y014730D01*
X001350Y014780D01*
X021550Y014880D02*
X021552Y014930D01*
X021558Y014980D01*
X021568Y015029D01*
X021582Y015077D01*
X021599Y015124D01*
X021620Y015169D01*
X021645Y015213D01*
X021673Y015254D01*
X021705Y015293D01*
X021739Y015330D01*
X021776Y015364D01*
X021816Y015394D01*
X021858Y015421D01*
X021902Y015445D01*
X021948Y015466D01*
X021995Y015482D01*
X022043Y015495D01*
X022093Y015504D01*
X022142Y015509D01*
X022193Y015510D01*
X022243Y015507D01*
X022292Y015500D01*
X022341Y015489D01*
X022389Y015474D01*
X022435Y015456D01*
X022480Y015434D01*
X022523Y015408D01*
X022564Y015379D01*
X022603Y015347D01*
X022639Y015312D01*
X022671Y015274D01*
X022701Y015234D01*
X022728Y015191D01*
X022751Y015147D01*
X022770Y015101D01*
X022786Y015053D01*
X022798Y015004D01*
X022806Y014955D01*
X022810Y014905D01*
X022810Y014855D01*
X022806Y014805D01*
X022798Y014756D01*
X022786Y014707D01*
X022770Y014659D01*
X022751Y014613D01*
X022728Y014569D01*
X022701Y014526D01*
X022671Y014486D01*
X022639Y014448D01*
X022603Y014413D01*
X022564Y014381D01*
X022523Y014352D01*
X022480Y014326D01*
X022435Y014304D01*
X022389Y014286D01*
X022341Y014271D01*
X022292Y014260D01*
X022243Y014253D01*
X022193Y014250D01*
X022142Y014251D01*
X022093Y014256D01*
X022043Y014265D01*
X021995Y014278D01*
X021948Y014294D01*
X021902Y014315D01*
X021858Y014339D01*
X021816Y014366D01*
X021776Y014396D01*
X021739Y014430D01*
X021705Y014467D01*
X021673Y014506D01*
X021645Y014547D01*
X021620Y014591D01*
X021599Y014636D01*
X021582Y014683D01*
X021568Y014731D01*
X021558Y014780D01*
X021552Y014830D01*
X021550Y014880D01*
D11*
X020205Y011506D02*
X020074Y011374D01*
X020074Y010715D01*
X020470Y010847D02*
X020602Y010979D01*
X020997Y010979D01*
X020997Y011110D02*
X020997Y010715D01*
X020602Y010715D01*
X020470Y010847D01*
X020205Y011110D02*
X019942Y011110D01*
X019677Y011242D02*
X019546Y011242D01*
X019282Y010979D01*
X019282Y011242D02*
X019282Y010715D01*
X019017Y010979D02*
X018490Y010979D01*
X018490Y011110D02*
X018490Y010847D01*
X018622Y010715D01*
X018885Y010715D01*
X019017Y010979D02*
X019017Y011110D01*
X018885Y011242D01*
X018622Y011242D01*
X018490Y011110D01*
X018226Y011242D02*
X017962Y011242D01*
X018094Y011374D02*
X018094Y010847D01*
X018226Y010715D01*
X017697Y010715D02*
X017697Y011110D01*
X017566Y011242D01*
X017170Y011242D01*
X017170Y010715D01*
X016906Y010715D02*
X016642Y010715D01*
X016774Y010715D02*
X016774Y011506D01*
X016642Y011506D02*
X016906Y011506D01*
X015586Y011242D02*
X015454Y011242D01*
X015191Y010979D01*
X015191Y011242D02*
X015191Y010715D01*
X014926Y010979D02*
X014399Y010979D01*
X014399Y011110D02*
X014399Y010847D01*
X014531Y010715D01*
X014794Y010715D01*
X014926Y010979D02*
X014926Y011110D01*
X014794Y011242D01*
X014531Y011242D01*
X014399Y011110D01*
X014134Y011242D02*
X013739Y011242D01*
X013607Y011110D01*
X013739Y010979D01*
X014002Y010979D01*
X014134Y010847D01*
X014002Y010715D01*
X013607Y010715D01*
X013342Y010847D02*
X013342Y011506D01*
X012815Y011506D02*
X012815Y010847D01*
X012947Y010715D01*
X013210Y010715D01*
X013342Y010847D01*
X020602Y011242D02*
X020865Y011242D01*
X020997Y011110D01*
X021262Y011110D02*
X021262Y010847D01*
X021393Y010715D01*
X021789Y010715D01*
X022054Y010847D02*
X022054Y011110D01*
X022185Y011242D01*
X022449Y011242D01*
X022581Y011110D01*
X022581Y010979D01*
X022054Y010979D01*
X022054Y010847D02*
X022185Y010715D01*
X022449Y010715D01*
X021789Y011242D02*
X021393Y011242D01*
X021262Y011110D01*
D12*
X016810Y012427D02*
X016733Y012350D01*
X016810Y012427D02*
X016810Y012580D01*
X016733Y012657D01*
X016657Y012657D01*
X016580Y012580D01*
X016580Y012427D01*
X016503Y012350D01*
X016426Y012350D01*
X016350Y012427D01*
X016350Y012580D01*
X016426Y012657D01*
X016426Y012810D02*
X016350Y012887D01*
X016350Y013041D01*
X016426Y013117D01*
X016350Y013271D02*
X016810Y013271D01*
X016810Y013578D01*
X016733Y013117D02*
X016810Y013041D01*
X016810Y012887D01*
X016733Y012810D01*
X016426Y012810D01*
X015810Y012810D02*
X015810Y013041D01*
X015733Y013117D01*
X015426Y013117D01*
X015350Y013041D01*
X015350Y012810D01*
X015810Y012810D01*
X015733Y012657D02*
X015810Y012580D01*
X015810Y012427D01*
X015733Y012350D01*
X015580Y012427D02*
X015503Y012350D01*
X015426Y012350D01*
X015350Y012427D01*
X015350Y012580D01*
X015426Y012657D01*
X015580Y012580D02*
X015657Y012657D01*
X015733Y012657D01*
X015580Y012580D02*
X015580Y012427D01*
X014810Y012503D02*
X014657Y012350D01*
X014350Y012350D01*
X014657Y012657D02*
X014810Y012503D01*
X014657Y012657D02*
X014350Y012657D01*
X014426Y012810D02*
X014733Y012810D01*
X014810Y012887D01*
X014810Y013041D01*
X014733Y013117D01*
X014733Y013271D02*
X014426Y013271D01*
X014350Y013348D01*
X014350Y013501D01*
X014426Y013578D01*
X014733Y013578D02*
X014810Y013501D01*
X014810Y013348D01*
X014733Y013271D01*
X014426Y013117D02*
X014350Y013041D01*
X014350Y012887D01*
X014426Y012810D01*
X013810Y012810D02*
X013350Y012810D01*
X013810Y013117D01*
X013350Y013117D01*
X013350Y013271D02*
X013350Y013501D01*
X013426Y013578D01*
X013733Y013578D01*
X013810Y013501D01*
X013810Y013271D01*
X013350Y013271D01*
X013426Y012657D02*
X013350Y012580D01*
X013350Y012427D01*
X013426Y012350D01*
X013733Y012350D01*
X013810Y012427D01*
X013810Y012580D01*
X013733Y012657D01*
X013580Y012657D01*
X013580Y012503D01*
X015350Y013424D02*
X015503Y013578D01*
X015810Y013578D01*
X015580Y013578D02*
X015580Y013271D01*
X015503Y013271D02*
X015350Y013424D01*
X015503Y013271D02*
X015810Y013271D01*
X017800Y014800D02*
X017800Y015260D01*
X018030Y015260D01*
X018107Y015184D01*
X018107Y015030D01*
X018030Y014953D01*
X017800Y014953D01*
X017953Y014953D02*
X018107Y014800D01*
X018260Y014800D02*
X018567Y014800D01*
X018721Y014953D02*
X018874Y014800D01*
X019028Y014953D01*
X019028Y015260D01*
X018721Y015260D02*
X018721Y014953D01*
X018414Y015030D02*
X018260Y015030D01*
X018260Y015260D02*
X018260Y014800D01*
X018260Y015260D02*
X018567Y015260D01*
X019642Y015184D02*
X019642Y014877D01*
X019718Y014800D01*
X019872Y014800D01*
X019948Y014877D01*
X019948Y015184D02*
X019872Y015260D01*
X019718Y015260D01*
X019642Y015184D01*
X010810Y013578D02*
X010810Y013271D01*
X010350Y013271D01*
X010426Y013117D02*
X010350Y013041D01*
X010350Y012887D01*
X010426Y012810D01*
X010733Y012810D01*
X010810Y012887D01*
X010810Y013041D01*
X010733Y013117D01*
X010733Y012657D02*
X010810Y012580D01*
X010810Y012427D01*
X010733Y012350D01*
X010580Y012427D02*
X010580Y012580D01*
X010657Y012657D01*
X010733Y012657D01*
X010580Y012427D02*
X010503Y012350D01*
X010426Y012350D01*
X010350Y012427D01*
X010350Y012580D01*
X010426Y012657D01*
X009810Y012580D02*
X009810Y012427D01*
X009733Y012350D01*
X009580Y012427D02*
X009580Y012580D01*
X009657Y012657D01*
X009733Y012657D01*
X009810Y012580D01*
X009580Y012427D02*
X009503Y012350D01*
X009426Y012350D01*
X009350Y012427D01*
X009350Y012580D01*
X009426Y012657D01*
X009350Y012810D02*
X009350Y013041D01*
X009426Y013117D01*
X009733Y013117D01*
X009810Y013041D01*
X009810Y012810D01*
X009350Y012810D01*
X008810Y012887D02*
X008810Y013041D01*
X008733Y013117D01*
X008733Y013271D02*
X008426Y013271D01*
X008350Y013348D01*
X008350Y013501D01*
X008426Y013578D01*
X008733Y013578D02*
X008810Y013501D01*
X008810Y013348D01*
X008733Y013271D01*
X008426Y013117D02*
X008350Y013041D01*
X008350Y012887D01*
X008426Y012810D01*
X008733Y012810D01*
X008810Y012887D01*
X008657Y012657D02*
X008350Y012657D01*
X008657Y012657D02*
X008810Y012503D01*
X008657Y012350D01*
X008350Y012350D01*
X007810Y012427D02*
X007810Y012580D01*
X007733Y012657D01*
X007580Y012657D01*
X007580Y012503D01*
X007733Y012350D02*
X007426Y012350D01*
X007350Y012427D01*
X007350Y012580D01*
X007426Y012657D01*
X007350Y012810D02*
X007810Y013117D01*
X007350Y013117D01*
X007350Y013271D02*
X007350Y013501D01*
X007426Y013578D01*
X007733Y013578D01*
X007810Y013501D01*
X007810Y013271D01*
X007350Y013271D01*
X007350Y012810D02*
X007810Y012810D01*
X007810Y012427D02*
X007733Y012350D01*
X006124Y012300D02*
X005817Y012300D01*
X005971Y012300D02*
X005971Y012760D01*
X005817Y012607D01*
X005664Y012684D02*
X005587Y012760D01*
X005434Y012760D01*
X005357Y012684D01*
X005357Y012377D01*
X005434Y012300D01*
X005587Y012300D01*
X005664Y012377D01*
X005203Y012300D02*
X005050Y012300D01*
X005127Y012300D02*
X005127Y012760D01*
X005203Y012760D02*
X005050Y012760D01*
X009350Y013424D02*
X009503Y013271D01*
X009810Y013271D01*
X009580Y013271D02*
X009580Y013578D01*
X009503Y013578D02*
X009810Y013578D01*
X009503Y013578D02*
X009350Y013424D01*
X009400Y007860D02*
X009630Y007860D01*
X009707Y007784D01*
X009707Y007630D01*
X009630Y007553D01*
X009400Y007553D01*
X009400Y007400D02*
X009400Y007860D01*
X009860Y007630D02*
X009937Y007707D01*
X010091Y007707D01*
X010167Y007630D01*
X010167Y007553D01*
X009860Y007553D01*
X009860Y007477D02*
X009860Y007630D01*
X009860Y007477D02*
X009937Y007400D01*
X010091Y007400D01*
X010321Y007477D02*
X010321Y007630D01*
X010398Y007707D01*
X010551Y007707D01*
X010628Y007630D01*
X010628Y007553D01*
X010321Y007553D01*
X010321Y007477D02*
X010398Y007400D01*
X010551Y007400D01*
X010858Y007400D02*
X010858Y007784D01*
X010935Y007860D01*
X010935Y007630D02*
X010781Y007630D01*
X011088Y007630D02*
X011165Y007707D01*
X011395Y007707D01*
X011318Y007553D02*
X011165Y007553D01*
X011088Y007630D01*
X011318Y007553D02*
X011395Y007477D01*
X011318Y007400D01*
X011088Y007400D01*
X011548Y007477D02*
X011548Y007630D01*
X011625Y007707D01*
X011779Y007707D01*
X011855Y007630D01*
X011855Y007553D01*
X011548Y007553D01*
X011548Y007477D02*
X011625Y007400D01*
X011779Y007400D01*
X012009Y007400D02*
X012009Y007707D01*
X012239Y007707D01*
X012316Y007630D01*
X012316Y007400D01*
X012469Y007400D02*
X012699Y007400D01*
X012776Y007477D01*
X012699Y007553D01*
X012546Y007553D01*
X012469Y007630D01*
X012546Y007707D01*
X012776Y007707D01*
X012930Y007630D02*
X013006Y007707D01*
X013160Y007707D01*
X013237Y007630D01*
X013237Y007553D01*
X012930Y007553D01*
X012930Y007477D02*
X012930Y007630D01*
X012930Y007477D02*
X013006Y007400D01*
X013160Y007400D01*
X013390Y007400D02*
X013390Y007477D01*
X013467Y007477D01*
X013467Y007400D01*
X013390Y007400D01*
X013620Y007477D02*
X013697Y007400D01*
X013927Y007400D01*
X014081Y007477D02*
X014157Y007400D01*
X014311Y007400D01*
X014388Y007477D01*
X014388Y007630D01*
X014311Y007707D01*
X014157Y007707D01*
X014081Y007630D01*
X014081Y007477D01*
X013927Y007707D02*
X013697Y007707D01*
X013620Y007630D01*
X013620Y007477D01*
X014541Y007400D02*
X014541Y007707D01*
X014618Y007707D01*
X014695Y007630D01*
X014771Y007707D01*
X014848Y007630D01*
X014848Y007400D01*
X014695Y007400D02*
X014695Y007630D01*
X009707Y007400D02*
X009553Y007553D01*
X016152Y001707D02*
X016152Y001620D01*
X016152Y001447D02*
X016066Y001447D01*
X016152Y001447D02*
X016152Y001100D01*
X016066Y001100D02*
X016239Y001100D01*
X016409Y001187D02*
X016496Y001100D01*
X016756Y001100D01*
X016756Y001013D02*
X016756Y001447D01*
X016496Y001447D01*
X016409Y001360D01*
X016409Y001187D01*
X016670Y000927D02*
X016756Y001013D01*
X016670Y000927D02*
X016583Y000927D01*
X016925Y001100D02*
X016925Y001620D01*
X017012Y001447D02*
X017185Y001447D01*
X017272Y001360D01*
X017272Y001100D01*
X017527Y001187D02*
X017614Y001100D01*
X017527Y001187D02*
X017527Y001534D01*
X017441Y001447D02*
X017614Y001447D01*
X018150Y001497D02*
X018237Y001410D01*
X018410Y001410D01*
X018497Y001323D01*
X018497Y001237D01*
X018410Y001150D01*
X018237Y001150D01*
X018150Y001237D01*
X018150Y001497D02*
X018150Y001584D01*
X018237Y001670D01*
X018410Y001670D01*
X018497Y001584D01*
X018666Y001410D02*
X018752Y001497D01*
X018926Y001497D01*
X019013Y001410D01*
X019013Y001323D01*
X018666Y001323D01*
X018666Y001237D02*
X018666Y001410D01*
X018666Y001237D02*
X018752Y001150D01*
X018926Y001150D01*
X019181Y001150D02*
X019181Y001497D01*
X019442Y001497D01*
X019528Y001410D01*
X019528Y001150D01*
X019697Y001237D02*
X019784Y001150D01*
X020044Y001150D01*
X020044Y001670D01*
X020044Y001497D02*
X019784Y001497D01*
X019697Y001410D01*
X019697Y001237D01*
X020728Y001150D02*
X020728Y001670D01*
X020988Y001670D01*
X021075Y001584D01*
X021075Y001237D01*
X020988Y001150D01*
X020728Y001150D01*
X021244Y001237D02*
X021331Y001150D01*
X021591Y001150D01*
X021591Y001410D01*
X021504Y001497D01*
X021331Y001497D01*
X021331Y001323D02*
X021591Y001323D01*
X021331Y001323D02*
X021244Y001237D01*
X021759Y001497D02*
X021933Y001497D01*
X021846Y001584D02*
X021846Y001237D01*
X021933Y001150D01*
X022103Y001237D02*
X022190Y001323D01*
X022450Y001323D01*
X022450Y001410D02*
X022450Y001150D01*
X022190Y001150D01*
X022103Y001237D01*
X022363Y001497D02*
X022450Y001410D01*
X022363Y001497D02*
X022190Y001497D01*
X017012Y001447D02*
X016925Y001360D01*
X015897Y001100D02*
X015550Y001100D01*
X015550Y001620D01*
X014864Y001620D02*
X014777Y001534D01*
X014777Y001100D01*
X014520Y001100D02*
X014347Y001100D01*
X014434Y001100D02*
X014434Y001620D01*
X014347Y001620D01*
X014092Y001447D02*
X014178Y001360D01*
X014178Y001273D01*
X013831Y001273D01*
X013831Y001187D02*
X013831Y001360D01*
X013918Y001447D01*
X014092Y001447D01*
X013831Y001187D02*
X013918Y001100D01*
X014092Y001100D01*
X013663Y001100D02*
X013663Y001360D01*
X013576Y001447D01*
X013402Y001447D01*
X013316Y001360D01*
X013147Y001273D02*
X013147Y001187D01*
X013060Y001100D01*
X012887Y001100D01*
X012800Y001187D01*
X012887Y001360D02*
X013060Y001360D01*
X013147Y001273D01*
X013316Y001100D02*
X013316Y001620D01*
X013147Y001534D02*
X013060Y001620D01*
X012887Y001620D01*
X012800Y001534D01*
X012800Y001447D01*
X012887Y001360D01*
X014691Y001360D02*
X014864Y001360D01*
X010594Y001447D02*
X010334Y001447D01*
X010247Y001360D01*
X010247Y001187D01*
X010334Y001100D01*
X010594Y001100D01*
X010594Y001620D01*
X010078Y001360D02*
X010078Y001273D01*
X009731Y001273D01*
X009731Y001187D02*
X009731Y001360D01*
X009818Y001447D01*
X009992Y001447D01*
X010078Y001360D01*
X009818Y001100D02*
X009731Y001187D01*
X009818Y001100D02*
X009992Y001100D01*
X009563Y001273D02*
X009563Y001360D01*
X009476Y001447D01*
X009302Y001447D01*
X009216Y001360D01*
X009216Y001187D01*
X009302Y001100D01*
X009476Y001100D01*
X009563Y001273D02*
X009216Y001273D01*
X008873Y001360D02*
X008700Y001360D01*
X008700Y001100D02*
X008700Y001620D01*
X009047Y001620D01*
X006946Y001360D02*
X006946Y001273D01*
X006599Y001273D01*
X006599Y001187D02*
X006599Y001360D01*
X006685Y001447D01*
X006859Y001447D01*
X006946Y001360D01*
X006685Y001100D02*
X006599Y001187D01*
X006685Y001100D02*
X006859Y001100D01*
X006430Y001100D02*
X006170Y001100D01*
X006083Y001187D01*
X006083Y001360D01*
X006170Y001447D01*
X006430Y001447D01*
X006430Y001013D01*
X006343Y000927D01*
X006256Y000927D01*
X005914Y001100D02*
X005914Y001360D01*
X005828Y001447D01*
X005567Y001447D01*
X005567Y001100D01*
X005399Y001100D02*
X005138Y001100D01*
X005052Y001187D01*
X005138Y001273D01*
X005399Y001273D01*
X005399Y001360D02*
X005399Y001100D01*
X005399Y001360D02*
X005312Y001447D01*
X005138Y001447D01*
X004883Y001360D02*
X004883Y001100D01*
X004536Y001100D02*
X004536Y001620D01*
X004367Y001534D02*
X004281Y001620D01*
X004107Y001620D01*
X004020Y001534D01*
X004020Y001187D01*
X004107Y001100D01*
X004281Y001100D01*
X004367Y001187D01*
X004536Y001360D02*
X004623Y001447D01*
X004796Y001447D01*
X004883Y001360D01*
X003851Y001447D02*
X003764Y001447D01*
X003591Y001273D01*
X003422Y001273D02*
X003075Y001273D01*
X003075Y001187D02*
X003075Y001360D01*
X003162Y001447D01*
X003335Y001447D01*
X003422Y001360D01*
X003422Y001273D01*
X003335Y001100D02*
X003162Y001100D01*
X003075Y001187D01*
X002905Y001100D02*
X002818Y001187D01*
X002818Y001534D01*
X002731Y001447D02*
X002905Y001447D01*
X002563Y001360D02*
X002563Y001100D01*
X002302Y001100D01*
X002216Y001187D01*
X002302Y001273D01*
X002563Y001273D01*
X002563Y001360D02*
X002476Y001447D01*
X002302Y001447D01*
X002047Y001620D02*
X002047Y001100D01*
X001873Y001273D01*
X001700Y001100D01*
X001700Y001620D01*
X003591Y001447D02*
X003591Y001100D01*
D13*
X001543Y003710D02*
X001600Y003767D01*
X001600Y003880D01*
X001543Y003937D01*
X001487Y003937D01*
X001430Y003880D01*
X001430Y003823D01*
X001430Y003880D02*
X001373Y003937D01*
X001316Y003937D01*
X001260Y003880D01*
X001260Y003767D01*
X001316Y003710D01*
X001316Y004078D02*
X001260Y004135D01*
X001260Y004248D01*
X001316Y004305D01*
X001373Y004305D01*
X001430Y004248D01*
X001487Y004305D01*
X001543Y004305D01*
X001600Y004248D01*
X001600Y004135D01*
X001543Y004078D01*
X001430Y004192D02*
X001430Y004248D01*
X001543Y004447D02*
X001316Y004673D01*
X001543Y004673D01*
X001600Y004617D01*
X001600Y004503D01*
X001543Y004447D01*
X001316Y004447D01*
X001260Y004503D01*
X001260Y004617D01*
X001316Y004673D01*
X001430Y004815D02*
X001543Y004815D01*
X001600Y004872D01*
X001600Y004985D01*
X001543Y005042D01*
X001430Y005042D01*
X001373Y004985D01*
X001373Y004872D01*
X001430Y004815D01*
X001430Y005183D02*
X001373Y005240D01*
X001373Y005353D01*
X001430Y005410D01*
X001600Y005410D01*
X001600Y005552D02*
X001373Y005552D01*
X001373Y005608D01*
X001430Y005665D01*
X001373Y005722D01*
X001430Y005778D01*
X001600Y005778D01*
X001600Y005665D02*
X001430Y005665D01*
X001430Y005920D02*
X001373Y005977D01*
X001373Y006147D01*
X001487Y006090D02*
X001543Y006147D01*
X001600Y006090D01*
X001600Y005920D01*
X001487Y005977D02*
X001430Y005920D01*
X001487Y005977D02*
X001487Y006090D01*
X001600Y005183D02*
X001260Y005183D01*
X001280Y008180D02*
X002280Y008180D01*
X002297Y008182D01*
X002314Y008186D01*
X002330Y008193D01*
X002344Y008203D01*
X002357Y008216D01*
X002367Y008230D01*
X002374Y008246D01*
X002378Y008263D01*
X002380Y008280D01*
X002380Y008880D01*
X002378Y008897D01*
X002374Y008914D01*
X002367Y008930D01*
X002357Y008944D01*
X002344Y008957D01*
X002330Y008967D01*
X002314Y008974D01*
X002297Y008978D01*
X002280Y008980D01*
X001280Y008980D01*
X001263Y008978D01*
X001246Y008974D01*
X001230Y008967D01*
X001216Y008957D01*
X001203Y008944D01*
X001193Y008930D01*
X001186Y008914D01*
X001182Y008897D01*
X001180Y008880D01*
X001180Y008280D01*
X001182Y008263D01*
X001186Y008246D01*
X001193Y008230D01*
X001203Y008216D01*
X001216Y008203D01*
X001230Y008193D01*
X001246Y008186D01*
X001263Y008182D01*
X001280Y008180D01*
X001280Y009580D02*
X002280Y009580D01*
X002297Y009582D01*
X002314Y009586D01*
X002330Y009593D01*
X002344Y009603D01*
X002357Y009616D01*
X002367Y009630D01*
X002374Y009646D01*
X002378Y009663D01*
X002380Y009680D01*
X002380Y010280D01*
X002378Y010297D01*
X002374Y010314D01*
X002367Y010330D01*
X002357Y010344D01*
X002344Y010357D01*
X002330Y010367D01*
X002314Y010374D01*
X002297Y010378D01*
X002280Y010380D01*
X001280Y010380D01*
X001263Y010378D01*
X001246Y010374D01*
X001230Y010367D01*
X001216Y010357D01*
X001203Y010344D01*
X001193Y010330D01*
X001186Y010314D01*
X001182Y010297D01*
X001180Y010280D01*
X001180Y009680D01*
X001182Y009663D01*
X001186Y009646D01*
X001193Y009630D01*
X001203Y009616D01*
X001216Y009603D01*
X001230Y009593D01*
X001246Y009586D01*
X001263Y009582D01*
X001280Y009580D01*
X001156Y010011D02*
X000729Y010011D01*
X001280Y010780D02*
X002280Y010780D01*
X002297Y010782D01*
X002314Y010786D01*
X002330Y010793D01*
X002344Y010803D01*
X002357Y010816D01*
X002367Y010830D01*
X002374Y010846D01*
X002378Y010863D01*
X002380Y010880D01*
X002380Y011480D01*
X002378Y011497D01*
X002374Y011514D01*
X002367Y011530D01*
X002357Y011544D01*
X002344Y011557D01*
X002330Y011567D01*
X002314Y011574D01*
X002297Y011578D01*
X002280Y011580D01*
X001280Y011580D01*
X001263Y011578D01*
X001246Y011574D01*
X001230Y011567D01*
X001216Y011557D01*
X001203Y011544D01*
X001193Y011530D01*
X001186Y011514D01*
X001182Y011497D01*
X001180Y011480D01*
X001180Y010880D01*
X001182Y010863D01*
X001186Y010846D01*
X001193Y010830D01*
X001203Y010816D01*
X001216Y010803D01*
X001230Y010793D01*
X001246Y010786D01*
X001263Y010782D01*
X001280Y010780D01*
X002610Y010050D02*
X003037Y010050D01*
X002824Y010263D02*
X002824Y009836D01*
X006973Y006147D02*
X006973Y005977D01*
X007030Y005920D01*
X007087Y005977D01*
X007087Y006090D01*
X007143Y006147D01*
X007200Y006090D01*
X007200Y005920D01*
X007200Y005778D02*
X007030Y005778D01*
X006973Y005722D01*
X007030Y005665D01*
X007200Y005665D01*
X007200Y005552D02*
X006973Y005552D01*
X006973Y005608D01*
X007030Y005665D01*
X007030Y005410D02*
X007200Y005410D01*
X007030Y005410D02*
X006973Y005353D01*
X006973Y005240D01*
X007030Y005183D01*
X007030Y005042D02*
X006973Y004985D01*
X006973Y004872D01*
X007030Y004815D01*
X007143Y004815D01*
X007200Y004872D01*
X007200Y004985D01*
X007143Y005042D01*
X007030Y005042D01*
X006860Y005183D02*
X007200Y005183D01*
X007143Y004673D02*
X006916Y004673D01*
X007143Y004447D01*
X007200Y004503D01*
X007200Y004617D01*
X007143Y004673D01*
X006916Y004673D02*
X006860Y004617D01*
X006860Y004503D01*
X006916Y004447D01*
X007143Y004447D01*
X007143Y004305D02*
X007087Y004305D01*
X007030Y004248D01*
X007030Y004192D01*
X007030Y004248D02*
X006973Y004305D01*
X006916Y004305D01*
X006860Y004248D01*
X006860Y004135D01*
X006916Y004078D01*
X006916Y003937D02*
X006973Y003937D01*
X007030Y003880D01*
X007087Y003937D01*
X007143Y003937D01*
X007200Y003880D01*
X007200Y003767D01*
X007143Y003710D01*
X007030Y003823D02*
X007030Y003880D01*
X006916Y003937D02*
X006860Y003880D01*
X006860Y003767D01*
X006916Y003710D01*
X007143Y004078D02*
X007200Y004135D01*
X007200Y004248D01*
X007143Y004305D01*
X012060Y004248D02*
X012060Y004135D01*
X012116Y004078D01*
X012116Y003937D02*
X012060Y003880D01*
X012060Y003767D01*
X012116Y003710D01*
X012230Y003823D02*
X012230Y003880D01*
X012287Y003937D01*
X012343Y003937D01*
X012400Y003880D01*
X012400Y003767D01*
X012343Y003710D01*
X012230Y003880D02*
X012173Y003937D01*
X012116Y003937D01*
X012343Y004078D02*
X012400Y004135D01*
X012400Y004248D01*
X012343Y004305D01*
X012287Y004305D01*
X012230Y004248D01*
X012230Y004192D01*
X012230Y004248D02*
X012173Y004305D01*
X012116Y004305D01*
X012060Y004248D01*
X012116Y004447D02*
X012060Y004503D01*
X012060Y004617D01*
X012116Y004673D01*
X012343Y004447D01*
X012400Y004503D01*
X012400Y004617D01*
X012343Y004673D01*
X012116Y004673D01*
X012230Y004815D02*
X012343Y004815D01*
X012400Y004872D01*
X012400Y004985D01*
X012343Y005042D01*
X012230Y005042D01*
X012173Y004985D01*
X012173Y004872D01*
X012230Y004815D01*
X012230Y005183D02*
X012173Y005240D01*
X012173Y005353D01*
X012230Y005410D01*
X012400Y005410D01*
X012400Y005552D02*
X012173Y005552D01*
X012173Y005608D01*
X012230Y005665D01*
X012173Y005722D01*
X012230Y005778D01*
X012400Y005778D01*
X012400Y005665D02*
X012230Y005665D01*
X012230Y005920D02*
X012173Y005977D01*
X012173Y006147D01*
X012287Y006090D02*
X012343Y006147D01*
X012400Y006090D01*
X012400Y005920D01*
X012287Y005977D02*
X012230Y005920D01*
X012287Y005977D02*
X012287Y006090D01*
X012400Y005183D02*
X012060Y005183D01*
X012116Y004447D02*
X012343Y004447D01*
X017160Y004417D02*
X017160Y004303D01*
X017216Y004247D01*
X017443Y004247D01*
X017216Y004473D01*
X017443Y004473D01*
X017500Y004417D01*
X017500Y004303D01*
X017443Y004247D01*
X017443Y004105D02*
X017500Y004048D01*
X017500Y003935D01*
X017443Y003878D01*
X017443Y003737D02*
X017500Y003680D01*
X017500Y003567D01*
X017443Y003510D01*
X017330Y003623D02*
X017330Y003680D01*
X017387Y003737D01*
X017443Y003737D01*
X017330Y003680D02*
X017273Y003737D01*
X017216Y003737D01*
X017160Y003680D01*
X017160Y003567D01*
X017216Y003510D01*
X017216Y003878D02*
X017160Y003935D01*
X017160Y004048D01*
X017216Y004105D01*
X017273Y004105D01*
X017330Y004048D01*
X017387Y004105D01*
X017443Y004105D01*
X017330Y004048D02*
X017330Y003992D01*
X017160Y004417D02*
X017216Y004473D01*
X017330Y004615D02*
X017443Y004615D01*
X017500Y004672D01*
X017500Y004785D01*
X017443Y004842D01*
X017330Y004842D01*
X017273Y004785D01*
X017273Y004672D01*
X017330Y004615D01*
X017330Y004983D02*
X017273Y005040D01*
X017273Y005153D01*
X017330Y005210D01*
X017500Y005210D01*
X017500Y005352D02*
X017273Y005352D01*
X017273Y005408D01*
X017330Y005465D01*
X017273Y005522D01*
X017330Y005578D01*
X017500Y005578D01*
X017500Y005465D02*
X017330Y005465D01*
X017330Y005720D02*
X017273Y005777D01*
X017273Y005947D01*
X017387Y005890D02*
X017387Y005777D01*
X017330Y005720D01*
X017500Y005720D02*
X017500Y005890D01*
X017443Y005947D01*
X017387Y005890D01*
X017500Y004983D02*
X017160Y004983D01*
X010901Y008660D02*
X010731Y008773D01*
X010901Y008887D01*
X010731Y009000D02*
X010731Y008660D01*
X010589Y008660D02*
X010362Y008660D01*
X010589Y008887D01*
X010589Y008944D01*
X010533Y009000D01*
X010419Y009000D01*
X010362Y008944D01*
X010037Y008944D02*
X010037Y008887D01*
X009810Y008660D01*
X010037Y008660D01*
X010178Y008660D02*
X010235Y008660D01*
X010235Y008717D01*
X010178Y008717D01*
X010178Y008660D01*
X010037Y008944D02*
X009980Y009000D01*
X009867Y009000D01*
X009810Y008944D01*
X009810Y010060D02*
X010037Y010287D01*
X010037Y010344D01*
X009980Y010400D01*
X009867Y010400D01*
X009810Y010344D01*
X010178Y010117D02*
X010235Y010117D01*
X010235Y010060D01*
X010178Y010060D01*
X010178Y010117D01*
X010037Y010060D02*
X009810Y010060D01*
X010362Y010060D02*
X010589Y010287D01*
X010589Y010344D01*
X010533Y010400D01*
X010419Y010400D01*
X010362Y010344D01*
X010731Y010400D02*
X010731Y010060D01*
X010731Y010173D02*
X010901Y010287D01*
X010731Y010173D02*
X010901Y010060D01*
X010589Y010060D02*
X010362Y010060D01*
X011410Y012810D02*
X011624Y012810D01*
X011517Y012810D02*
X011517Y013451D01*
X011410Y013451D02*
X011624Y013451D01*
X011840Y013344D02*
X011946Y013451D01*
X012160Y013451D01*
X012267Y013344D01*
X012267Y013237D01*
X011840Y012810D01*
X012267Y012810D01*
X012484Y012917D02*
X012591Y012810D01*
X012805Y012810D01*
X012911Y012917D01*
X012484Y012917D02*
X012484Y013344D01*
X012591Y013451D01*
X012805Y013451D01*
X012911Y013344D01*
D14*
X017480Y008680D03*
D15*
X015656Y008718D02*
X015409Y008718D01*
X015409Y008842D02*
X015594Y008842D01*
X015656Y008842D01*
X015594Y008965D02*
X015594Y008595D01*
X015471Y008595D02*
X015471Y008965D01*
X015287Y008904D02*
X015226Y008965D01*
X015041Y008965D01*
X015041Y008595D01*
X015226Y008595D01*
X015287Y008657D01*
X015287Y008904D01*
X014918Y008965D02*
X014795Y008965D01*
X014857Y008965D02*
X014857Y008595D01*
X014918Y008595D02*
X014795Y008595D01*
X013283Y008537D02*
X013235Y008585D01*
X013138Y008585D01*
X013090Y008537D01*
X012988Y008537D02*
X012988Y008440D01*
X012940Y008392D01*
X012795Y008392D01*
X012892Y008392D02*
X012988Y008295D01*
X013090Y008295D02*
X013283Y008488D01*
X013283Y008537D01*
X013283Y008295D02*
X013090Y008295D01*
X012988Y008537D02*
X012940Y008585D01*
X012795Y008585D01*
X012795Y008295D01*
X012795Y009695D02*
X012795Y009985D01*
X012940Y009985D01*
X012988Y009937D01*
X012988Y009840D01*
X012940Y009792D01*
X012795Y009792D01*
X012892Y009792D02*
X012988Y009695D01*
X013090Y009695D02*
X013283Y009695D01*
X013186Y009695D02*
X013186Y009985D01*
X013090Y009888D01*
X011994Y011325D02*
X011800Y011325D01*
X011897Y011325D02*
X011897Y011615D01*
X011800Y011518D01*
X011699Y011567D02*
X011651Y011615D01*
X011554Y011615D01*
X011506Y011567D01*
X011506Y011373D01*
X011554Y011325D01*
X011651Y011325D01*
X011699Y011373D01*
X003183Y011337D02*
X003183Y011143D01*
X003135Y011095D01*
X003038Y011095D01*
X002990Y011143D01*
X003183Y011337D01*
X003135Y011385D01*
X003038Y011385D01*
X002990Y011337D01*
X002990Y011143D01*
X002888Y011095D02*
X002888Y011288D01*
X002792Y011385D01*
X002695Y011288D01*
X002695Y011095D01*
X002695Y011240D02*
X002888Y011240D01*
X002792Y008785D02*
X002888Y008688D01*
X002888Y008495D01*
X002990Y008495D02*
X003183Y008688D01*
X003183Y008737D01*
X003135Y008785D01*
X003038Y008785D01*
X002990Y008737D01*
X002888Y008640D02*
X002695Y008640D01*
X002695Y008688D02*
X002792Y008785D01*
X002695Y008688D02*
X002695Y008495D01*
X002990Y008495D02*
X003183Y008495D01*
D16*
X001780Y005480D02*
X001480Y005480D01*
X001480Y005580D01*
X001480Y005480D02*
X001180Y005480D01*
X001180Y003480D01*
X001480Y003480D01*
X001480Y003380D01*
X001480Y003480D02*
X001780Y003480D01*
X001780Y005480D01*
X003230Y004680D02*
X004930Y004680D01*
X005280Y003873D02*
X005280Y003080D01*
X003380Y003480D02*
X003382Y003532D01*
X003388Y003584D01*
X003398Y003636D01*
X003411Y003686D01*
X003428Y003736D01*
X003449Y003784D01*
X003474Y003830D01*
X003502Y003874D01*
X003533Y003916D01*
X003567Y003956D01*
X003604Y003993D01*
X003644Y004027D01*
X003686Y004058D01*
X003730Y004086D01*
X003776Y004111D01*
X003824Y004132D01*
X003874Y004149D01*
X003924Y004162D01*
X003976Y004172D01*
X004028Y004178D01*
X004080Y004180D01*
X004132Y004178D01*
X004184Y004172D01*
X004236Y004162D01*
X004286Y004149D01*
X004336Y004132D01*
X004384Y004111D01*
X004430Y004086D01*
X004474Y004058D01*
X004516Y004027D01*
X004556Y003993D01*
X004593Y003956D01*
X004627Y003916D01*
X004658Y003874D01*
X004686Y003830D01*
X004711Y003784D01*
X004732Y003736D01*
X004749Y003686D01*
X004762Y003636D01*
X004772Y003584D01*
X004778Y003532D01*
X004780Y003480D01*
X004778Y003428D01*
X004772Y003376D01*
X004762Y003324D01*
X004749Y003274D01*
X004732Y003224D01*
X004711Y003176D01*
X004686Y003130D01*
X004658Y003086D01*
X004627Y003044D01*
X004593Y003004D01*
X004556Y002967D01*
X004516Y002933D01*
X004474Y002902D01*
X004430Y002874D01*
X004384Y002849D01*
X004336Y002828D01*
X004286Y002811D01*
X004236Y002798D01*
X004184Y002788D01*
X004132Y002782D01*
X004080Y002780D01*
X004028Y002782D01*
X003976Y002788D01*
X003924Y002798D01*
X003874Y002811D01*
X003824Y002828D01*
X003776Y002849D01*
X003730Y002874D01*
X003686Y002902D01*
X003644Y002933D01*
X003604Y002967D01*
X003567Y003004D01*
X003533Y003044D01*
X003502Y003086D01*
X003474Y003130D01*
X003449Y003176D01*
X003428Y003224D01*
X003411Y003274D01*
X003398Y003324D01*
X003388Y003376D01*
X003382Y003428D01*
X003380Y003480D01*
X002880Y003080D02*
X002880Y003885D01*
X003230Y002280D02*
X004930Y002280D01*
X007080Y003380D02*
X007080Y003480D01*
X006780Y003480D01*
X006780Y005480D01*
X007080Y005480D01*
X007080Y005580D01*
X007080Y005480D02*
X007380Y005480D01*
X007380Y003480D01*
X007080Y003480D01*
X008480Y003080D02*
X008480Y003885D01*
X008980Y003480D02*
X008982Y003532D01*
X008988Y003584D01*
X008998Y003636D01*
X009011Y003686D01*
X009028Y003736D01*
X009049Y003784D01*
X009074Y003830D01*
X009102Y003874D01*
X009133Y003916D01*
X009167Y003956D01*
X009204Y003993D01*
X009244Y004027D01*
X009286Y004058D01*
X009330Y004086D01*
X009376Y004111D01*
X009424Y004132D01*
X009474Y004149D01*
X009524Y004162D01*
X009576Y004172D01*
X009628Y004178D01*
X009680Y004180D01*
X009732Y004178D01*
X009784Y004172D01*
X009836Y004162D01*
X009886Y004149D01*
X009936Y004132D01*
X009984Y004111D01*
X010030Y004086D01*
X010074Y004058D01*
X010116Y004027D01*
X010156Y003993D01*
X010193Y003956D01*
X010227Y003916D01*
X010258Y003874D01*
X010286Y003830D01*
X010311Y003784D01*
X010332Y003736D01*
X010349Y003686D01*
X010362Y003636D01*
X010372Y003584D01*
X010378Y003532D01*
X010380Y003480D01*
X010378Y003428D01*
X010372Y003376D01*
X010362Y003324D01*
X010349Y003274D01*
X010332Y003224D01*
X010311Y003176D01*
X010286Y003130D01*
X010258Y003086D01*
X010227Y003044D01*
X010193Y003004D01*
X010156Y002967D01*
X010116Y002933D01*
X010074Y002902D01*
X010030Y002874D01*
X009984Y002849D01*
X009936Y002828D01*
X009886Y002811D01*
X009836Y002798D01*
X009784Y002788D01*
X009732Y002782D01*
X009680Y002780D01*
X009628Y002782D01*
X009576Y002788D01*
X009524Y002798D01*
X009474Y002811D01*
X009424Y002828D01*
X009376Y002849D01*
X009330Y002874D01*
X009286Y002902D01*
X009244Y002933D01*
X009204Y002967D01*
X009167Y003004D01*
X009133Y003044D01*
X009102Y003086D01*
X009074Y003130D01*
X009049Y003176D01*
X009028Y003224D01*
X009011Y003274D01*
X008998Y003324D01*
X008988Y003376D01*
X008982Y003428D01*
X008980Y003480D01*
X010880Y003873D02*
X010880Y003080D01*
X011980Y003480D02*
X012280Y003480D01*
X012280Y003380D01*
X012280Y003480D02*
X012580Y003480D01*
X012580Y005480D01*
X012280Y005480D01*
X012280Y005580D01*
X012280Y005480D02*
X011980Y005480D01*
X011980Y003480D01*
X013680Y003080D02*
X013680Y003885D01*
X014180Y003480D02*
X014182Y003532D01*
X014188Y003584D01*
X014198Y003636D01*
X014211Y003686D01*
X014228Y003736D01*
X014249Y003784D01*
X014274Y003830D01*
X014302Y003874D01*
X014333Y003916D01*
X014367Y003956D01*
X014404Y003993D01*
X014444Y004027D01*
X014486Y004058D01*
X014530Y004086D01*
X014576Y004111D01*
X014624Y004132D01*
X014674Y004149D01*
X014724Y004162D01*
X014776Y004172D01*
X014828Y004178D01*
X014880Y004180D01*
X014932Y004178D01*
X014984Y004172D01*
X015036Y004162D01*
X015086Y004149D01*
X015136Y004132D01*
X015184Y004111D01*
X015230Y004086D01*
X015274Y004058D01*
X015316Y004027D01*
X015356Y003993D01*
X015393Y003956D01*
X015427Y003916D01*
X015458Y003874D01*
X015486Y003830D01*
X015511Y003784D01*
X015532Y003736D01*
X015549Y003686D01*
X015562Y003636D01*
X015572Y003584D01*
X015578Y003532D01*
X015580Y003480D01*
X015578Y003428D01*
X015572Y003376D01*
X015562Y003324D01*
X015549Y003274D01*
X015532Y003224D01*
X015511Y003176D01*
X015486Y003130D01*
X015458Y003086D01*
X015427Y003044D01*
X015393Y003004D01*
X015356Y002967D01*
X015316Y002933D01*
X015274Y002902D01*
X015230Y002874D01*
X015184Y002849D01*
X015136Y002828D01*
X015086Y002811D01*
X015036Y002798D01*
X014984Y002788D01*
X014932Y002782D01*
X014880Y002780D01*
X014828Y002782D01*
X014776Y002788D01*
X014724Y002798D01*
X014674Y002811D01*
X014624Y002828D01*
X014576Y002849D01*
X014530Y002874D01*
X014486Y002902D01*
X014444Y002933D01*
X014404Y002967D01*
X014367Y003004D01*
X014333Y003044D01*
X014302Y003086D01*
X014274Y003130D01*
X014249Y003176D01*
X014228Y003224D01*
X014211Y003274D01*
X014198Y003324D01*
X014188Y003376D01*
X014182Y003428D01*
X014180Y003480D01*
X016080Y003873D02*
X016080Y003080D01*
X017080Y003280D02*
X017380Y003280D01*
X017380Y003180D01*
X017380Y003280D02*
X017680Y003280D01*
X017680Y005280D01*
X017380Y005280D01*
X017380Y005380D01*
X017380Y005280D02*
X017080Y005280D01*
X017080Y003280D01*
X018780Y003080D02*
X018780Y003885D01*
X019280Y003480D02*
X019282Y003532D01*
X019288Y003584D01*
X019298Y003636D01*
X019311Y003686D01*
X019328Y003736D01*
X019349Y003784D01*
X019374Y003830D01*
X019402Y003874D01*
X019433Y003916D01*
X019467Y003956D01*
X019504Y003993D01*
X019544Y004027D01*
X019586Y004058D01*
X019630Y004086D01*
X019676Y004111D01*
X019724Y004132D01*
X019774Y004149D01*
X019824Y004162D01*
X019876Y004172D01*
X019928Y004178D01*
X019980Y004180D01*
X020032Y004178D01*
X020084Y004172D01*
X020136Y004162D01*
X020186Y004149D01*
X020236Y004132D01*
X020284Y004111D01*
X020330Y004086D01*
X020374Y004058D01*
X020416Y004027D01*
X020456Y003993D01*
X020493Y003956D01*
X020527Y003916D01*
X020558Y003874D01*
X020586Y003830D01*
X020611Y003784D01*
X020632Y003736D01*
X020649Y003686D01*
X020662Y003636D01*
X020672Y003584D01*
X020678Y003532D01*
X020680Y003480D01*
X020678Y003428D01*
X020672Y003376D01*
X020662Y003324D01*
X020649Y003274D01*
X020632Y003224D01*
X020611Y003176D01*
X020586Y003130D01*
X020558Y003086D01*
X020527Y003044D01*
X020493Y003004D01*
X020456Y002967D01*
X020416Y002933D01*
X020374Y002902D01*
X020330Y002874D01*
X020284Y002849D01*
X020236Y002828D01*
X020186Y002811D01*
X020136Y002798D01*
X020084Y002788D01*
X020032Y002782D01*
X019980Y002780D01*
X019928Y002782D01*
X019876Y002788D01*
X019824Y002798D01*
X019774Y002811D01*
X019724Y002828D01*
X019676Y002849D01*
X019630Y002874D01*
X019586Y002902D01*
X019544Y002933D01*
X019504Y002967D01*
X019467Y003004D01*
X019433Y003044D01*
X019402Y003086D01*
X019374Y003130D01*
X019349Y003176D01*
X019328Y003224D01*
X019311Y003274D01*
X019298Y003324D01*
X019288Y003376D01*
X019282Y003428D01*
X019280Y003480D01*
X021180Y003873D02*
X021180Y003080D01*
X020830Y002280D02*
X019130Y002280D01*
X015730Y002280D02*
X014030Y002280D01*
X010530Y002280D02*
X008830Y002280D01*
X008830Y004680D02*
X010530Y004680D01*
X014030Y004680D02*
X015730Y004680D01*
X019130Y004680D02*
X020830Y004680D01*
X011580Y008480D02*
X009580Y008480D01*
X009580Y008780D01*
X009480Y008780D01*
X009580Y008780D02*
X009580Y009080D01*
X011580Y009080D01*
X011580Y008780D01*
X011680Y008780D01*
X011580Y008780D02*
X011580Y008480D01*
X011580Y009880D02*
X009580Y009880D01*
X009580Y010180D01*
X009480Y010180D01*
X009580Y010180D02*
X009580Y010480D01*
X011580Y010480D01*
X011580Y010180D01*
X011680Y010180D01*
X011580Y010180D02*
X011580Y009880D01*
X011280Y011080D02*
X011280Y012080D01*
X009280Y012080D01*
X009280Y011080D01*
X011280Y011080D01*
X010280Y011330D02*
X010280Y011830D01*
X010330Y014080D02*
X010830Y014080D01*
X011080Y014330D01*
X011080Y014830D01*
X010830Y015080D01*
X010330Y015080D01*
X010080Y014830D01*
X009830Y015080D01*
X009330Y015080D01*
X009080Y014830D01*
X008830Y015080D01*
X008330Y015080D01*
X008080Y014830D01*
X007830Y015080D01*
X007330Y015080D01*
X007080Y014830D01*
X007080Y014330D01*
X007330Y014080D01*
X007830Y014080D01*
X008080Y014330D01*
X008330Y014080D01*
X008830Y014080D01*
X009080Y014330D01*
X009330Y014080D01*
X009830Y014080D01*
X010080Y014330D01*
X010330Y014080D01*
X013080Y014330D02*
X013330Y014080D01*
X013830Y014080D01*
X014080Y014330D01*
X014330Y014080D01*
X014830Y014080D01*
X015080Y014330D01*
X015330Y014080D01*
X015830Y014080D01*
X016080Y014330D01*
X016330Y014080D01*
X016830Y014080D01*
X017080Y014330D01*
X017080Y014830D01*
X016830Y015080D01*
X016330Y015080D01*
X016080Y014830D01*
X015830Y015080D01*
X015330Y015080D01*
X015080Y014830D01*
X014830Y015080D01*
X014330Y015080D01*
X014080Y014830D01*
X013830Y015080D01*
X013330Y015080D01*
X013080Y014830D01*
X013080Y014330D01*
D17*
X004811Y006603D02*
X004733Y006558D01*
X004733Y006559D02*
X004705Y006603D01*
X004674Y006645D01*
X004641Y006685D01*
X004605Y006723D01*
X004566Y006758D01*
X004525Y006790D01*
X004481Y006820D01*
X004436Y006846D01*
X004389Y006869D01*
X004341Y006889D01*
X004291Y006905D01*
X004241Y006918D01*
X004189Y006927D01*
X004137Y006933D01*
X004085Y006935D01*
X004084Y007024D01*
X004085Y007025D01*
X004140Y007023D01*
X004194Y007017D01*
X004249Y007008D01*
X004302Y006995D01*
X004354Y006979D01*
X004406Y006960D01*
X004456Y006937D01*
X004504Y006911D01*
X004551Y006882D01*
X004595Y006850D01*
X004638Y006815D01*
X004678Y006777D01*
X004715Y006737D01*
X004750Y006695D01*
X004782Y006650D01*
X004811Y006604D01*
X004803Y006599D01*
X004775Y006645D01*
X004743Y006689D01*
X004708Y006731D01*
X004671Y006771D01*
X004632Y006808D01*
X004590Y006843D01*
X004546Y006874D01*
X004500Y006903D01*
X004452Y006929D01*
X004402Y006951D01*
X004352Y006971D01*
X004300Y006987D01*
X004247Y006999D01*
X004193Y007008D01*
X004139Y007014D01*
X004085Y007016D01*
X004085Y007007D01*
X004139Y007005D01*
X004192Y006999D01*
X004245Y006990D01*
X004297Y006978D01*
X004349Y006962D01*
X004399Y006943D01*
X004448Y006921D01*
X004495Y006895D01*
X004541Y006867D01*
X004584Y006835D01*
X004626Y006801D01*
X004665Y006765D01*
X004702Y006725D01*
X004736Y006684D01*
X004767Y006640D01*
X004796Y006595D01*
X004788Y006590D01*
X004758Y006638D01*
X004724Y006684D01*
X004688Y006727D01*
X004648Y006768D01*
X004606Y006806D01*
X004562Y006841D01*
X004515Y006873D01*
X004466Y006901D01*
X004415Y006926D01*
X004362Y006948D01*
X004309Y006965D01*
X004254Y006979D01*
X004198Y006989D01*
X004142Y006996D01*
X004085Y006998D01*
X004085Y006989D01*
X004141Y006987D01*
X004197Y006981D01*
X004252Y006971D01*
X004306Y006957D01*
X004359Y006939D01*
X004411Y006918D01*
X004462Y006893D01*
X004510Y006865D01*
X004556Y006834D01*
X004601Y006799D01*
X004642Y006762D01*
X004681Y006721D01*
X004717Y006679D01*
X004750Y006633D01*
X004780Y006586D01*
X004772Y006581D01*
X004743Y006628D01*
X004710Y006673D01*
X004674Y006715D01*
X004636Y006755D01*
X004595Y006792D01*
X004551Y006827D01*
X004505Y006858D01*
X004457Y006885D01*
X004408Y006910D01*
X004356Y006931D01*
X004304Y006948D01*
X004250Y006962D01*
X004195Y006972D01*
X004140Y006978D01*
X004085Y006980D01*
X004085Y006971D01*
X004140Y006969D01*
X004194Y006963D01*
X004248Y006953D01*
X004301Y006939D01*
X004353Y006922D01*
X004404Y006902D01*
X004453Y006877D01*
X004500Y006850D01*
X004546Y006819D01*
X004589Y006786D01*
X004630Y006749D01*
X004668Y006709D01*
X004703Y006667D01*
X004735Y006623D01*
X004764Y006577D01*
X004756Y006572D01*
X004728Y006618D01*
X004696Y006662D01*
X004661Y006703D01*
X004623Y006742D01*
X004583Y006779D01*
X004541Y006812D01*
X004496Y006842D01*
X004449Y006870D01*
X004400Y006893D01*
X004350Y006914D01*
X004299Y006931D01*
X004246Y006944D01*
X004193Y006954D01*
X004139Y006960D01*
X004085Y006962D01*
X004085Y006953D01*
X004138Y006951D01*
X004192Y006945D01*
X004244Y006935D01*
X004296Y006922D01*
X004347Y006905D01*
X004397Y006885D01*
X004445Y006862D01*
X004491Y006835D01*
X004535Y006805D01*
X004577Y006772D01*
X004617Y006736D01*
X004654Y006697D01*
X004689Y006656D01*
X004720Y006613D01*
X004749Y006568D01*
X004741Y006563D01*
X004713Y006608D01*
X004682Y006651D01*
X004648Y006691D01*
X004611Y006729D01*
X004572Y006765D01*
X004530Y006797D01*
X004486Y006827D01*
X004440Y006854D01*
X004393Y006877D01*
X004344Y006897D01*
X004294Y006914D01*
X004242Y006927D01*
X004190Y006936D01*
X004138Y006942D01*
X004085Y006944D01*
X004085Y005336D02*
X004085Y005426D01*
X004085Y005425D02*
X004139Y005427D01*
X004192Y005433D01*
X004245Y005443D01*
X004297Y005457D01*
X004348Y005474D01*
X004397Y005495D01*
X004445Y005519D01*
X004491Y005547D01*
X004535Y005578D01*
X004577Y005612D01*
X004616Y005648D01*
X004653Y005688D01*
X004686Y005730D01*
X004717Y005774D01*
X004744Y005820D01*
X004823Y005778D01*
X004795Y005729D01*
X004763Y005683D01*
X004728Y005638D01*
X004691Y005596D01*
X004650Y005556D01*
X004607Y005520D01*
X004562Y005486D01*
X004515Y005455D01*
X004465Y005428D01*
X004414Y005404D01*
X004362Y005383D01*
X004308Y005366D01*
X004253Y005353D01*
X004198Y005343D01*
X004141Y005337D01*
X004085Y005335D01*
X004085Y005344D01*
X004141Y005346D01*
X004196Y005352D01*
X004251Y005362D01*
X004306Y005375D01*
X004359Y005392D01*
X004411Y005412D01*
X004461Y005436D01*
X004510Y005463D01*
X004557Y005493D01*
X004602Y005527D01*
X004644Y005563D01*
X004684Y005602D01*
X004721Y005644D01*
X004756Y005688D01*
X004787Y005734D01*
X004815Y005782D01*
X004807Y005786D01*
X004779Y005739D01*
X004748Y005693D01*
X004714Y005650D01*
X004678Y005608D01*
X004638Y005570D01*
X004596Y005534D01*
X004552Y005501D01*
X004506Y005471D01*
X004457Y005444D01*
X004407Y005421D01*
X004356Y005400D01*
X004303Y005384D01*
X004250Y005371D01*
X004195Y005361D01*
X004140Y005355D01*
X004085Y005353D01*
X004085Y005362D01*
X004140Y005364D01*
X004194Y005370D01*
X004248Y005379D01*
X004301Y005392D01*
X004353Y005409D01*
X004404Y005429D01*
X004453Y005452D01*
X004501Y005479D01*
X004547Y005508D01*
X004591Y005541D01*
X004632Y005576D01*
X004671Y005615D01*
X004708Y005655D01*
X004741Y005698D01*
X004772Y005744D01*
X004799Y005791D01*
X004791Y005795D01*
X004764Y005748D01*
X004734Y005704D01*
X004701Y005661D01*
X004665Y005621D01*
X004626Y005583D01*
X004585Y005548D01*
X004542Y005516D01*
X004496Y005486D01*
X004449Y005460D01*
X004400Y005437D01*
X004350Y005417D01*
X004298Y005401D01*
X004246Y005388D01*
X004193Y005379D01*
X004139Y005373D01*
X004085Y005371D01*
X004085Y005380D01*
X004138Y005382D01*
X004191Y005388D01*
X004244Y005397D01*
X004296Y005410D01*
X004347Y005426D01*
X004397Y005445D01*
X004445Y005468D01*
X004492Y005494D01*
X004536Y005523D01*
X004579Y005555D01*
X004620Y005590D01*
X004658Y005627D01*
X004694Y005667D01*
X004727Y005709D01*
X004757Y005753D01*
X004784Y005799D01*
X004776Y005803D01*
X004749Y005758D01*
X004719Y005714D01*
X004687Y005673D01*
X004652Y005633D01*
X004614Y005596D01*
X004574Y005562D01*
X004531Y005530D01*
X004487Y005502D01*
X004441Y005476D01*
X004393Y005454D01*
X004344Y005434D01*
X004294Y005418D01*
X004242Y005406D01*
X004190Y005397D01*
X004138Y005391D01*
X004085Y005389D01*
X004085Y005398D01*
X004141Y005400D01*
X004196Y005407D01*
X004251Y005417D01*
X004305Y005431D01*
X004357Y005449D01*
X004409Y005470D01*
X004458Y005496D01*
X004506Y005524D01*
X004552Y005556D01*
X004595Y005591D01*
X004635Y005629D01*
X004673Y005670D01*
X004708Y005714D01*
X004739Y005760D01*
X004768Y005808D01*
X004760Y005812D01*
X004732Y005764D01*
X004701Y005719D01*
X004666Y005676D01*
X004629Y005636D01*
X004589Y005598D01*
X004546Y005563D01*
X004501Y005532D01*
X004454Y005503D01*
X004405Y005479D01*
X004354Y005457D01*
X004302Y005440D01*
X004249Y005426D01*
X004195Y005416D01*
X004140Y005409D01*
X004085Y005407D01*
X004085Y005416D01*
X004139Y005418D01*
X004193Y005424D01*
X004247Y005434D01*
X004299Y005448D01*
X004351Y005466D01*
X004401Y005487D01*
X004450Y005511D01*
X004496Y005539D01*
X004541Y005571D01*
X004583Y005605D01*
X004622Y005642D01*
X004659Y005682D01*
X004693Y005724D01*
X004724Y005769D01*
X004752Y005816D01*
X003435Y005636D02*
X003504Y005693D01*
X003503Y005693D02*
X003540Y005653D01*
X003579Y005615D01*
X003621Y005581D01*
X003665Y005549D01*
X003711Y005521D01*
X003760Y005496D01*
X003810Y005475D01*
X003861Y005457D01*
X003914Y005444D01*
X003967Y005434D01*
X004021Y005427D01*
X004075Y005425D01*
X004076Y005336D01*
X004075Y005335D01*
X004019Y005337D01*
X003963Y005343D01*
X003908Y005353D01*
X003853Y005366D01*
X003800Y005383D01*
X003747Y005403D01*
X003696Y005427D01*
X003647Y005454D01*
X003600Y005485D01*
X003555Y005518D01*
X003512Y005554D01*
X003472Y005593D01*
X003434Y005635D01*
X003441Y005641D01*
X003478Y005600D01*
X003518Y005561D01*
X003560Y005525D01*
X003605Y005492D01*
X003652Y005462D01*
X003700Y005435D01*
X003751Y005412D01*
X003803Y005391D01*
X003856Y005375D01*
X003910Y005362D01*
X003964Y005352D01*
X004019Y005346D01*
X004075Y005344D01*
X004075Y005353D01*
X004020Y005355D01*
X003965Y005361D01*
X003911Y005370D01*
X003858Y005383D01*
X003806Y005400D01*
X003754Y005420D01*
X003705Y005443D01*
X003656Y005470D01*
X003610Y005499D01*
X003566Y005532D01*
X003524Y005568D01*
X003485Y005606D01*
X003448Y005647D01*
X003455Y005652D01*
X003491Y005612D01*
X003530Y005574D01*
X003572Y005539D01*
X003615Y005507D01*
X003661Y005477D01*
X003709Y005451D01*
X003758Y005428D01*
X003808Y005408D01*
X003860Y005392D01*
X003913Y005379D01*
X003967Y005370D01*
X004021Y005364D01*
X004075Y005362D01*
X004075Y005371D01*
X004021Y005373D01*
X003968Y005379D01*
X003915Y005388D01*
X003863Y005401D01*
X003811Y005417D01*
X003761Y005436D01*
X003713Y005459D01*
X003666Y005485D01*
X003620Y005514D01*
X003577Y005546D01*
X003536Y005581D01*
X003498Y005618D01*
X003462Y005658D01*
X003469Y005664D01*
X003504Y005625D01*
X003542Y005588D01*
X003583Y005553D01*
X003626Y005522D01*
X003670Y005493D01*
X003717Y005467D01*
X003765Y005445D01*
X003814Y005425D01*
X003865Y005409D01*
X003917Y005397D01*
X003969Y005388D01*
X004022Y005382D01*
X004075Y005380D01*
X004075Y005389D01*
X004023Y005391D01*
X003970Y005397D01*
X003919Y005406D01*
X003868Y005418D01*
X003817Y005434D01*
X003768Y005453D01*
X003721Y005475D01*
X003675Y005501D01*
X003631Y005529D01*
X003589Y005560D01*
X003548Y005594D01*
X003511Y005631D01*
X003476Y005670D01*
X003482Y005676D01*
X003517Y005637D01*
X003555Y005601D01*
X003594Y005567D01*
X003636Y005536D01*
X003680Y005508D01*
X003725Y005483D01*
X003772Y005461D01*
X003820Y005442D01*
X003870Y005427D01*
X003920Y005414D01*
X003972Y005406D01*
X004023Y005400D01*
X004075Y005398D01*
X004075Y005407D01*
X004024Y005409D01*
X003973Y005414D01*
X003922Y005423D01*
X003872Y005435D01*
X003823Y005451D01*
X003776Y005469D01*
X003729Y005491D01*
X003684Y005516D01*
X003641Y005544D01*
X003600Y005574D01*
X003561Y005607D01*
X003524Y005643D01*
X003489Y005681D01*
X003496Y005687D01*
X003533Y005646D01*
X003573Y005608D01*
X003615Y005574D01*
X003660Y005542D01*
X003707Y005513D01*
X003756Y005488D01*
X003807Y005467D01*
X003858Y005449D01*
X003912Y005435D01*
X003966Y005425D01*
X004020Y005418D01*
X004075Y005416D01*
X004076Y007024D02*
X004076Y006934D01*
X004075Y006935D02*
X004021Y006933D01*
X003968Y006927D01*
X003915Y006917D01*
X003863Y006903D01*
X003812Y006886D01*
X003762Y006865D01*
X003714Y006841D01*
X003668Y006813D01*
X003624Y006782D01*
X003583Y006748D01*
X003543Y006711D01*
X003507Y006672D01*
X003439Y006729D01*
X003438Y006730D01*
X003476Y006771D01*
X003516Y006809D01*
X003559Y006845D01*
X003604Y006878D01*
X003651Y006908D01*
X003699Y006934D01*
X003750Y006958D01*
X003802Y006978D01*
X003855Y006994D01*
X003909Y007008D01*
X003964Y007017D01*
X004019Y007023D01*
X004075Y007025D01*
X004075Y007016D01*
X004020Y007014D01*
X003965Y007008D01*
X003911Y006999D01*
X003857Y006986D01*
X003805Y006969D01*
X003753Y006950D01*
X003703Y006926D01*
X003655Y006900D01*
X003609Y006870D01*
X003564Y006838D01*
X003522Y006803D01*
X003482Y006764D01*
X003445Y006724D01*
X003452Y006718D01*
X003489Y006758D01*
X003528Y006796D01*
X003570Y006831D01*
X003614Y006863D01*
X003660Y006892D01*
X003708Y006918D01*
X003757Y006941D01*
X003808Y006961D01*
X003860Y006977D01*
X003913Y006990D01*
X003966Y006999D01*
X004021Y007005D01*
X004075Y007007D01*
X004075Y006998D01*
X004021Y006996D01*
X003968Y006990D01*
X003915Y006981D01*
X003862Y006968D01*
X003811Y006952D01*
X003760Y006933D01*
X003712Y006910D01*
X003664Y006885D01*
X003619Y006856D01*
X003575Y006824D01*
X003534Y006789D01*
X003495Y006752D01*
X003459Y006712D01*
X003466Y006706D01*
X003502Y006746D01*
X003540Y006783D01*
X003581Y006817D01*
X003624Y006848D01*
X003669Y006877D01*
X003716Y006902D01*
X003764Y006925D01*
X003814Y006944D01*
X003865Y006960D01*
X003916Y006972D01*
X003969Y006981D01*
X004022Y006987D01*
X004075Y006989D01*
X004075Y006980D01*
X004022Y006978D01*
X003970Y006972D01*
X003918Y006963D01*
X003867Y006951D01*
X003817Y006935D01*
X003767Y006916D01*
X003720Y006894D01*
X003673Y006869D01*
X003629Y006841D01*
X003587Y006810D01*
X003546Y006776D01*
X003508Y006739D01*
X003473Y006701D01*
X003479Y006695D01*
X003515Y006733D01*
X003552Y006769D01*
X003592Y006803D01*
X003634Y006833D01*
X003678Y006861D01*
X003724Y006886D01*
X003771Y006908D01*
X003820Y006927D01*
X003869Y006942D01*
X003920Y006955D01*
X003971Y006963D01*
X004023Y006969D01*
X004075Y006971D01*
X004075Y006962D01*
X004019Y006960D01*
X003964Y006953D01*
X003909Y006943D01*
X003855Y006929D01*
X003802Y006911D01*
X003751Y006889D01*
X003701Y006864D01*
X003653Y006835D01*
X003608Y006803D01*
X003565Y006768D01*
X003524Y006730D01*
X003486Y006689D01*
X003493Y006683D01*
X003530Y006724D01*
X003571Y006761D01*
X003613Y006796D01*
X003658Y006828D01*
X003706Y006856D01*
X003755Y006881D01*
X003806Y006903D01*
X003858Y006920D01*
X003911Y006934D01*
X003965Y006944D01*
X004020Y006951D01*
X004075Y006953D01*
X004075Y006944D01*
X004021Y006942D01*
X003967Y006936D01*
X003913Y006926D01*
X003860Y006912D01*
X003809Y006894D01*
X003759Y006873D01*
X003710Y006848D01*
X003663Y006820D01*
X003619Y006789D01*
X003577Y006755D01*
X003537Y006717D01*
X003500Y006677D01*
X009685Y005136D02*
X009685Y005226D01*
X009685Y005225D02*
X009739Y005227D01*
X009792Y005233D01*
X009845Y005243D01*
X009897Y005257D01*
X009948Y005274D01*
X009997Y005295D01*
X010045Y005319D01*
X010091Y005347D01*
X010135Y005378D01*
X010177Y005412D01*
X010216Y005448D01*
X010253Y005488D01*
X010286Y005530D01*
X010317Y005574D01*
X010344Y005620D01*
X010423Y005578D01*
X010395Y005529D01*
X010363Y005483D01*
X010328Y005438D01*
X010291Y005396D01*
X010250Y005356D01*
X010207Y005320D01*
X010162Y005286D01*
X010115Y005255D01*
X010065Y005228D01*
X010014Y005204D01*
X009962Y005183D01*
X009908Y005166D01*
X009853Y005153D01*
X009798Y005143D01*
X009741Y005137D01*
X009685Y005135D01*
X009685Y005144D01*
X009741Y005146D01*
X009796Y005152D01*
X009851Y005162D01*
X009906Y005175D01*
X009959Y005192D01*
X010011Y005212D01*
X010061Y005236D01*
X010110Y005263D01*
X010157Y005293D01*
X010202Y005327D01*
X010244Y005363D01*
X010284Y005402D01*
X010321Y005444D01*
X010356Y005488D01*
X010387Y005534D01*
X010415Y005582D01*
X010407Y005586D01*
X010379Y005539D01*
X010348Y005493D01*
X010314Y005450D01*
X010278Y005408D01*
X010238Y005370D01*
X010196Y005334D01*
X010152Y005301D01*
X010106Y005271D01*
X010057Y005244D01*
X010007Y005221D01*
X009956Y005200D01*
X009903Y005184D01*
X009850Y005171D01*
X009795Y005161D01*
X009740Y005155D01*
X009685Y005153D01*
X009685Y005162D01*
X009740Y005164D01*
X009794Y005170D01*
X009848Y005179D01*
X009901Y005192D01*
X009953Y005209D01*
X010004Y005229D01*
X010053Y005252D01*
X010101Y005279D01*
X010147Y005308D01*
X010191Y005341D01*
X010232Y005376D01*
X010271Y005415D01*
X010308Y005455D01*
X010341Y005498D01*
X010372Y005544D01*
X010399Y005591D01*
X010391Y005595D01*
X010364Y005548D01*
X010334Y005504D01*
X010301Y005461D01*
X010265Y005421D01*
X010226Y005383D01*
X010185Y005348D01*
X010142Y005316D01*
X010096Y005286D01*
X010049Y005260D01*
X010000Y005237D01*
X009950Y005217D01*
X009898Y005201D01*
X009846Y005188D01*
X009793Y005179D01*
X009739Y005173D01*
X009685Y005171D01*
X009685Y005180D01*
X009738Y005182D01*
X009791Y005188D01*
X009844Y005197D01*
X009896Y005210D01*
X009947Y005226D01*
X009997Y005245D01*
X010045Y005268D01*
X010092Y005294D01*
X010136Y005323D01*
X010179Y005355D01*
X010220Y005390D01*
X010258Y005427D01*
X010294Y005467D01*
X010327Y005509D01*
X010357Y005553D01*
X010384Y005599D01*
X010376Y005603D01*
X010349Y005558D01*
X010319Y005514D01*
X010287Y005473D01*
X010252Y005433D01*
X010214Y005396D01*
X010174Y005362D01*
X010131Y005330D01*
X010087Y005302D01*
X010041Y005276D01*
X009993Y005254D01*
X009944Y005234D01*
X009894Y005218D01*
X009842Y005206D01*
X009790Y005197D01*
X009738Y005191D01*
X009685Y005189D01*
X009685Y005198D01*
X009741Y005200D01*
X009796Y005207D01*
X009851Y005217D01*
X009905Y005231D01*
X009957Y005249D01*
X010009Y005270D01*
X010058Y005296D01*
X010106Y005324D01*
X010152Y005356D01*
X010195Y005391D01*
X010235Y005429D01*
X010273Y005470D01*
X010308Y005514D01*
X010339Y005560D01*
X010368Y005608D01*
X010360Y005612D01*
X010332Y005564D01*
X010301Y005519D01*
X010266Y005476D01*
X010229Y005436D01*
X010189Y005398D01*
X010146Y005363D01*
X010101Y005332D01*
X010054Y005303D01*
X010005Y005279D01*
X009954Y005257D01*
X009902Y005240D01*
X009849Y005226D01*
X009795Y005216D01*
X009740Y005209D01*
X009685Y005207D01*
X009685Y005216D01*
X009739Y005218D01*
X009793Y005224D01*
X009847Y005234D01*
X009899Y005248D01*
X009951Y005266D01*
X010001Y005287D01*
X010050Y005311D01*
X010096Y005339D01*
X010141Y005371D01*
X010183Y005405D01*
X010222Y005442D01*
X010259Y005482D01*
X010293Y005524D01*
X010324Y005569D01*
X010352Y005616D01*
X010411Y006403D02*
X010333Y006358D01*
X010333Y006359D02*
X010305Y006403D01*
X010274Y006445D01*
X010241Y006485D01*
X010205Y006523D01*
X010166Y006558D01*
X010125Y006590D01*
X010081Y006620D01*
X010036Y006646D01*
X009989Y006669D01*
X009941Y006689D01*
X009891Y006705D01*
X009841Y006718D01*
X009789Y006727D01*
X009737Y006733D01*
X009685Y006735D01*
X009684Y006824D01*
X009685Y006825D01*
X009740Y006823D01*
X009794Y006817D01*
X009849Y006808D01*
X009902Y006795D01*
X009954Y006779D01*
X010006Y006760D01*
X010056Y006737D01*
X010104Y006711D01*
X010151Y006682D01*
X010195Y006650D01*
X010238Y006615D01*
X010278Y006577D01*
X010315Y006537D01*
X010350Y006495D01*
X010382Y006450D01*
X010411Y006404D01*
X010403Y006399D01*
X010375Y006445D01*
X010343Y006489D01*
X010308Y006531D01*
X010271Y006571D01*
X010232Y006608D01*
X010190Y006643D01*
X010146Y006674D01*
X010100Y006703D01*
X010052Y006729D01*
X010002Y006751D01*
X009952Y006771D01*
X009900Y006787D01*
X009847Y006799D01*
X009793Y006808D01*
X009739Y006814D01*
X009685Y006816D01*
X009685Y006807D01*
X009739Y006805D01*
X009792Y006799D01*
X009845Y006790D01*
X009897Y006778D01*
X009949Y006762D01*
X009999Y006743D01*
X010048Y006721D01*
X010095Y006695D01*
X010141Y006667D01*
X010184Y006635D01*
X010226Y006601D01*
X010265Y006565D01*
X010302Y006525D01*
X010336Y006484D01*
X010367Y006440D01*
X010396Y006395D01*
X010388Y006390D01*
X010358Y006438D01*
X010324Y006484D01*
X010288Y006527D01*
X010248Y006568D01*
X010206Y006606D01*
X010162Y006641D01*
X010115Y006673D01*
X010066Y006701D01*
X010015Y006726D01*
X009962Y006748D01*
X009909Y006765D01*
X009854Y006779D01*
X009798Y006789D01*
X009742Y006796D01*
X009685Y006798D01*
X009685Y006789D01*
X009741Y006787D01*
X009797Y006781D01*
X009852Y006771D01*
X009906Y006757D01*
X009959Y006739D01*
X010011Y006718D01*
X010062Y006693D01*
X010110Y006665D01*
X010156Y006634D01*
X010201Y006599D01*
X010242Y006562D01*
X010281Y006521D01*
X010317Y006479D01*
X010350Y006433D01*
X010380Y006386D01*
X010372Y006381D01*
X010343Y006428D01*
X010310Y006473D01*
X010274Y006515D01*
X010236Y006555D01*
X010195Y006592D01*
X010151Y006627D01*
X010105Y006658D01*
X010057Y006685D01*
X010008Y006710D01*
X009956Y006731D01*
X009904Y006748D01*
X009850Y006762D01*
X009795Y006772D01*
X009740Y006778D01*
X009685Y006780D01*
X009685Y006771D01*
X009740Y006769D01*
X009794Y006763D01*
X009848Y006753D01*
X009901Y006739D01*
X009953Y006722D01*
X010004Y006702D01*
X010053Y006677D01*
X010100Y006650D01*
X010146Y006619D01*
X010189Y006586D01*
X010230Y006549D01*
X010268Y006509D01*
X010303Y006467D01*
X010335Y006423D01*
X010364Y006377D01*
X010356Y006372D01*
X010328Y006418D01*
X010296Y006462D01*
X010261Y006503D01*
X010223Y006542D01*
X010183Y006579D01*
X010141Y006612D01*
X010096Y006642D01*
X010049Y006670D01*
X010000Y006693D01*
X009950Y006714D01*
X009899Y006731D01*
X009846Y006744D01*
X009793Y006754D01*
X009739Y006760D01*
X009685Y006762D01*
X009685Y006753D01*
X009738Y006751D01*
X009792Y006745D01*
X009844Y006735D01*
X009896Y006722D01*
X009947Y006705D01*
X009997Y006685D01*
X010045Y006662D01*
X010091Y006635D01*
X010135Y006605D01*
X010177Y006572D01*
X010217Y006536D01*
X010254Y006497D01*
X010289Y006456D01*
X010320Y006413D01*
X010349Y006368D01*
X010341Y006363D01*
X010313Y006408D01*
X010282Y006451D01*
X010248Y006491D01*
X010211Y006529D01*
X010172Y006565D01*
X010130Y006597D01*
X010086Y006627D01*
X010040Y006654D01*
X009993Y006677D01*
X009944Y006697D01*
X009894Y006714D01*
X009842Y006727D01*
X009790Y006736D01*
X009738Y006742D01*
X009685Y006744D01*
X009676Y006824D02*
X009676Y006734D01*
X009675Y006735D02*
X009621Y006733D01*
X009568Y006727D01*
X009515Y006717D01*
X009463Y006703D01*
X009412Y006686D01*
X009362Y006665D01*
X009314Y006641D01*
X009268Y006613D01*
X009224Y006582D01*
X009183Y006548D01*
X009143Y006511D01*
X009107Y006472D01*
X009039Y006529D01*
X009038Y006530D01*
X009076Y006571D01*
X009116Y006609D01*
X009159Y006645D01*
X009204Y006678D01*
X009251Y006708D01*
X009299Y006734D01*
X009350Y006758D01*
X009402Y006778D01*
X009455Y006794D01*
X009509Y006808D01*
X009564Y006817D01*
X009619Y006823D01*
X009675Y006825D01*
X009675Y006816D01*
X009620Y006814D01*
X009565Y006808D01*
X009511Y006799D01*
X009457Y006786D01*
X009405Y006769D01*
X009353Y006750D01*
X009303Y006726D01*
X009255Y006700D01*
X009209Y006670D01*
X009164Y006638D01*
X009122Y006603D01*
X009082Y006564D01*
X009045Y006524D01*
X009052Y006518D01*
X009089Y006558D01*
X009128Y006596D01*
X009170Y006631D01*
X009214Y006663D01*
X009260Y006692D01*
X009308Y006718D01*
X009357Y006741D01*
X009408Y006761D01*
X009460Y006777D01*
X009513Y006790D01*
X009566Y006799D01*
X009621Y006805D01*
X009675Y006807D01*
X009675Y006798D01*
X009621Y006796D01*
X009568Y006790D01*
X009515Y006781D01*
X009462Y006768D01*
X009411Y006752D01*
X009360Y006733D01*
X009312Y006710D01*
X009264Y006685D01*
X009219Y006656D01*
X009175Y006624D01*
X009134Y006589D01*
X009095Y006552D01*
X009059Y006512D01*
X009066Y006506D01*
X009102Y006546D01*
X009140Y006583D01*
X009181Y006617D01*
X009224Y006648D01*
X009269Y006677D01*
X009316Y006702D01*
X009364Y006725D01*
X009414Y006744D01*
X009465Y006760D01*
X009516Y006772D01*
X009569Y006781D01*
X009622Y006787D01*
X009675Y006789D01*
X009675Y006780D01*
X009622Y006778D01*
X009570Y006772D01*
X009518Y006763D01*
X009467Y006751D01*
X009417Y006735D01*
X009367Y006716D01*
X009320Y006694D01*
X009273Y006669D01*
X009229Y006641D01*
X009187Y006610D01*
X009146Y006576D01*
X009108Y006539D01*
X009073Y006501D01*
X009079Y006495D01*
X009115Y006533D01*
X009152Y006569D01*
X009192Y006603D01*
X009234Y006633D01*
X009278Y006661D01*
X009324Y006686D01*
X009371Y006708D01*
X009420Y006727D01*
X009469Y006742D01*
X009520Y006755D01*
X009571Y006763D01*
X009623Y006769D01*
X009675Y006771D01*
X009675Y006762D01*
X009619Y006760D01*
X009564Y006753D01*
X009509Y006743D01*
X009455Y006729D01*
X009402Y006711D01*
X009351Y006689D01*
X009301Y006664D01*
X009253Y006635D01*
X009208Y006603D01*
X009165Y006568D01*
X009124Y006530D01*
X009086Y006489D01*
X009093Y006483D01*
X009130Y006524D01*
X009171Y006561D01*
X009213Y006596D01*
X009258Y006628D01*
X009306Y006656D01*
X009355Y006681D01*
X009406Y006703D01*
X009458Y006720D01*
X009511Y006734D01*
X009565Y006744D01*
X009620Y006751D01*
X009675Y006753D01*
X009675Y006744D01*
X009621Y006742D01*
X009567Y006736D01*
X009513Y006726D01*
X009460Y006712D01*
X009409Y006694D01*
X009359Y006673D01*
X009310Y006648D01*
X009263Y006620D01*
X009219Y006589D01*
X009177Y006555D01*
X009137Y006517D01*
X009100Y006477D01*
X009035Y005436D02*
X009104Y005493D01*
X009103Y005493D02*
X009140Y005453D01*
X009179Y005415D01*
X009221Y005381D01*
X009265Y005349D01*
X009311Y005321D01*
X009360Y005296D01*
X009410Y005275D01*
X009461Y005257D01*
X009514Y005244D01*
X009567Y005234D01*
X009621Y005227D01*
X009675Y005225D01*
X009676Y005136D01*
X009675Y005135D01*
X009619Y005137D01*
X009563Y005143D01*
X009508Y005153D01*
X009453Y005166D01*
X009400Y005183D01*
X009347Y005203D01*
X009296Y005227D01*
X009247Y005254D01*
X009200Y005285D01*
X009155Y005318D01*
X009112Y005354D01*
X009072Y005393D01*
X009034Y005435D01*
X009041Y005441D01*
X009078Y005400D01*
X009118Y005361D01*
X009160Y005325D01*
X009205Y005292D01*
X009252Y005262D01*
X009300Y005235D01*
X009351Y005212D01*
X009403Y005191D01*
X009456Y005175D01*
X009510Y005162D01*
X009564Y005152D01*
X009619Y005146D01*
X009675Y005144D01*
X009675Y005153D01*
X009620Y005155D01*
X009565Y005161D01*
X009511Y005170D01*
X009458Y005183D01*
X009406Y005200D01*
X009354Y005220D01*
X009305Y005243D01*
X009256Y005270D01*
X009210Y005299D01*
X009166Y005332D01*
X009124Y005368D01*
X009085Y005406D01*
X009048Y005447D01*
X009055Y005452D01*
X009091Y005412D01*
X009130Y005374D01*
X009172Y005339D01*
X009215Y005307D01*
X009261Y005277D01*
X009309Y005251D01*
X009358Y005228D01*
X009408Y005208D01*
X009460Y005192D01*
X009513Y005179D01*
X009567Y005170D01*
X009621Y005164D01*
X009675Y005162D01*
X009675Y005171D01*
X009621Y005173D01*
X009568Y005179D01*
X009515Y005188D01*
X009463Y005201D01*
X009411Y005217D01*
X009361Y005236D01*
X009313Y005259D01*
X009266Y005285D01*
X009220Y005314D01*
X009177Y005346D01*
X009136Y005381D01*
X009098Y005418D01*
X009062Y005458D01*
X009069Y005464D01*
X009104Y005425D01*
X009142Y005388D01*
X009183Y005353D01*
X009226Y005322D01*
X009270Y005293D01*
X009317Y005267D01*
X009365Y005245D01*
X009414Y005225D01*
X009465Y005209D01*
X009517Y005197D01*
X009569Y005188D01*
X009622Y005182D01*
X009675Y005180D01*
X009675Y005189D01*
X009623Y005191D01*
X009570Y005197D01*
X009519Y005206D01*
X009468Y005218D01*
X009417Y005234D01*
X009368Y005253D01*
X009321Y005275D01*
X009275Y005301D01*
X009231Y005329D01*
X009189Y005360D01*
X009148Y005394D01*
X009111Y005431D01*
X009076Y005470D01*
X009082Y005476D01*
X009117Y005437D01*
X009155Y005401D01*
X009194Y005367D01*
X009236Y005336D01*
X009280Y005308D01*
X009325Y005283D01*
X009372Y005261D01*
X009420Y005242D01*
X009470Y005227D01*
X009520Y005214D01*
X009572Y005206D01*
X009623Y005200D01*
X009675Y005198D01*
X009675Y005207D01*
X009624Y005209D01*
X009573Y005214D01*
X009522Y005223D01*
X009472Y005235D01*
X009423Y005251D01*
X009376Y005269D01*
X009329Y005291D01*
X009284Y005316D01*
X009241Y005344D01*
X009200Y005374D01*
X009161Y005407D01*
X009124Y005443D01*
X009089Y005481D01*
X009096Y005487D01*
X009133Y005446D01*
X009173Y005408D01*
X009215Y005374D01*
X009260Y005342D01*
X009307Y005313D01*
X009356Y005288D01*
X009407Y005267D01*
X009458Y005249D01*
X009512Y005235D01*
X009566Y005225D01*
X009620Y005218D01*
X009675Y005216D01*
X014885Y005136D02*
X014885Y005226D01*
X014885Y005225D02*
X014939Y005227D01*
X014992Y005233D01*
X015045Y005243D01*
X015097Y005257D01*
X015148Y005274D01*
X015197Y005295D01*
X015245Y005319D01*
X015291Y005347D01*
X015335Y005378D01*
X015377Y005412D01*
X015416Y005448D01*
X015453Y005488D01*
X015486Y005530D01*
X015517Y005574D01*
X015544Y005620D01*
X015623Y005578D01*
X015595Y005529D01*
X015563Y005483D01*
X015528Y005438D01*
X015491Y005396D01*
X015450Y005356D01*
X015407Y005320D01*
X015362Y005286D01*
X015315Y005255D01*
X015265Y005228D01*
X015214Y005204D01*
X015162Y005183D01*
X015108Y005166D01*
X015053Y005153D01*
X014998Y005143D01*
X014941Y005137D01*
X014885Y005135D01*
X014885Y005144D01*
X014941Y005146D01*
X014996Y005152D01*
X015051Y005162D01*
X015106Y005175D01*
X015159Y005192D01*
X015211Y005212D01*
X015261Y005236D01*
X015310Y005263D01*
X015357Y005293D01*
X015402Y005327D01*
X015444Y005363D01*
X015484Y005402D01*
X015521Y005444D01*
X015556Y005488D01*
X015587Y005534D01*
X015615Y005582D01*
X015607Y005586D01*
X015579Y005539D01*
X015548Y005493D01*
X015514Y005450D01*
X015478Y005408D01*
X015438Y005370D01*
X015396Y005334D01*
X015352Y005301D01*
X015306Y005271D01*
X015257Y005244D01*
X015207Y005221D01*
X015156Y005200D01*
X015103Y005184D01*
X015050Y005171D01*
X014995Y005161D01*
X014940Y005155D01*
X014885Y005153D01*
X014885Y005162D01*
X014940Y005164D01*
X014994Y005170D01*
X015048Y005179D01*
X015101Y005192D01*
X015153Y005209D01*
X015204Y005229D01*
X015253Y005252D01*
X015301Y005279D01*
X015347Y005308D01*
X015391Y005341D01*
X015432Y005376D01*
X015471Y005415D01*
X015508Y005455D01*
X015541Y005498D01*
X015572Y005544D01*
X015599Y005591D01*
X015591Y005595D01*
X015564Y005548D01*
X015534Y005504D01*
X015501Y005461D01*
X015465Y005421D01*
X015426Y005383D01*
X015385Y005348D01*
X015342Y005316D01*
X015296Y005286D01*
X015249Y005260D01*
X015200Y005237D01*
X015150Y005217D01*
X015098Y005201D01*
X015046Y005188D01*
X014993Y005179D01*
X014939Y005173D01*
X014885Y005171D01*
X014885Y005180D01*
X014938Y005182D01*
X014991Y005188D01*
X015044Y005197D01*
X015096Y005210D01*
X015147Y005226D01*
X015197Y005245D01*
X015245Y005268D01*
X015292Y005294D01*
X015336Y005323D01*
X015379Y005355D01*
X015420Y005390D01*
X015458Y005427D01*
X015494Y005467D01*
X015527Y005509D01*
X015557Y005553D01*
X015584Y005599D01*
X015576Y005603D01*
X015549Y005558D01*
X015519Y005514D01*
X015487Y005473D01*
X015452Y005433D01*
X015414Y005396D01*
X015374Y005362D01*
X015331Y005330D01*
X015287Y005302D01*
X015241Y005276D01*
X015193Y005254D01*
X015144Y005234D01*
X015094Y005218D01*
X015042Y005206D01*
X014990Y005197D01*
X014938Y005191D01*
X014885Y005189D01*
X014885Y005198D01*
X014941Y005200D01*
X014996Y005207D01*
X015051Y005217D01*
X015105Y005231D01*
X015157Y005249D01*
X015209Y005270D01*
X015258Y005296D01*
X015306Y005324D01*
X015352Y005356D01*
X015395Y005391D01*
X015435Y005429D01*
X015473Y005470D01*
X015508Y005514D01*
X015539Y005560D01*
X015568Y005608D01*
X015560Y005612D01*
X015532Y005564D01*
X015501Y005519D01*
X015466Y005476D01*
X015429Y005436D01*
X015389Y005398D01*
X015346Y005363D01*
X015301Y005332D01*
X015254Y005303D01*
X015205Y005279D01*
X015154Y005257D01*
X015102Y005240D01*
X015049Y005226D01*
X014995Y005216D01*
X014940Y005209D01*
X014885Y005207D01*
X014885Y005216D01*
X014939Y005218D01*
X014993Y005224D01*
X015047Y005234D01*
X015099Y005248D01*
X015151Y005266D01*
X015201Y005287D01*
X015250Y005311D01*
X015296Y005339D01*
X015341Y005371D01*
X015383Y005405D01*
X015422Y005442D01*
X015459Y005482D01*
X015493Y005524D01*
X015524Y005569D01*
X015552Y005616D01*
X015611Y006403D02*
X015533Y006358D01*
X015533Y006359D02*
X015505Y006403D01*
X015474Y006445D01*
X015441Y006485D01*
X015405Y006523D01*
X015366Y006558D01*
X015325Y006590D01*
X015281Y006620D01*
X015236Y006646D01*
X015189Y006669D01*
X015141Y006689D01*
X015091Y006705D01*
X015041Y006718D01*
X014989Y006727D01*
X014937Y006733D01*
X014885Y006735D01*
X014884Y006824D01*
X014885Y006825D01*
X014940Y006823D01*
X014994Y006817D01*
X015049Y006808D01*
X015102Y006795D01*
X015154Y006779D01*
X015206Y006760D01*
X015256Y006737D01*
X015304Y006711D01*
X015351Y006682D01*
X015395Y006650D01*
X015438Y006615D01*
X015478Y006577D01*
X015515Y006537D01*
X015550Y006495D01*
X015582Y006450D01*
X015611Y006404D01*
X015603Y006399D01*
X015575Y006445D01*
X015543Y006489D01*
X015508Y006531D01*
X015471Y006571D01*
X015432Y006608D01*
X015390Y006643D01*
X015346Y006674D01*
X015300Y006703D01*
X015252Y006729D01*
X015202Y006751D01*
X015152Y006771D01*
X015100Y006787D01*
X015047Y006799D01*
X014993Y006808D01*
X014939Y006814D01*
X014885Y006816D01*
X014885Y006807D01*
X014939Y006805D01*
X014992Y006799D01*
X015045Y006790D01*
X015097Y006778D01*
X015149Y006762D01*
X015199Y006743D01*
X015248Y006721D01*
X015295Y006695D01*
X015341Y006667D01*
X015384Y006635D01*
X015426Y006601D01*
X015465Y006565D01*
X015502Y006525D01*
X015536Y006484D01*
X015567Y006440D01*
X015596Y006395D01*
X015588Y006390D01*
X015558Y006438D01*
X015524Y006484D01*
X015488Y006527D01*
X015448Y006568D01*
X015406Y006606D01*
X015362Y006641D01*
X015315Y006673D01*
X015266Y006701D01*
X015215Y006726D01*
X015162Y006748D01*
X015109Y006765D01*
X015054Y006779D01*
X014998Y006789D01*
X014942Y006796D01*
X014885Y006798D01*
X014885Y006789D01*
X014941Y006787D01*
X014997Y006781D01*
X015052Y006771D01*
X015106Y006757D01*
X015159Y006739D01*
X015211Y006718D01*
X015262Y006693D01*
X015310Y006665D01*
X015356Y006634D01*
X015401Y006599D01*
X015442Y006562D01*
X015481Y006521D01*
X015517Y006479D01*
X015550Y006433D01*
X015580Y006386D01*
X015572Y006381D01*
X015543Y006428D01*
X015510Y006473D01*
X015474Y006515D01*
X015436Y006555D01*
X015395Y006592D01*
X015351Y006627D01*
X015305Y006658D01*
X015257Y006685D01*
X015208Y006710D01*
X015156Y006731D01*
X015104Y006748D01*
X015050Y006762D01*
X014995Y006772D01*
X014940Y006778D01*
X014885Y006780D01*
X014885Y006771D01*
X014940Y006769D01*
X014994Y006763D01*
X015048Y006753D01*
X015101Y006739D01*
X015153Y006722D01*
X015204Y006702D01*
X015253Y006677D01*
X015300Y006650D01*
X015346Y006619D01*
X015389Y006586D01*
X015430Y006549D01*
X015468Y006509D01*
X015503Y006467D01*
X015535Y006423D01*
X015564Y006377D01*
X015556Y006372D01*
X015528Y006418D01*
X015496Y006462D01*
X015461Y006503D01*
X015423Y006542D01*
X015383Y006579D01*
X015341Y006612D01*
X015296Y006642D01*
X015249Y006670D01*
X015200Y006693D01*
X015150Y006714D01*
X015099Y006731D01*
X015046Y006744D01*
X014993Y006754D01*
X014939Y006760D01*
X014885Y006762D01*
X014885Y006753D01*
X014938Y006751D01*
X014992Y006745D01*
X015044Y006735D01*
X015096Y006722D01*
X015147Y006705D01*
X015197Y006685D01*
X015245Y006662D01*
X015291Y006635D01*
X015335Y006605D01*
X015377Y006572D01*
X015417Y006536D01*
X015454Y006497D01*
X015489Y006456D01*
X015520Y006413D01*
X015549Y006368D01*
X015541Y006363D01*
X015513Y006408D01*
X015482Y006451D01*
X015448Y006491D01*
X015411Y006529D01*
X015372Y006565D01*
X015330Y006597D01*
X015286Y006627D01*
X015240Y006654D01*
X015193Y006677D01*
X015144Y006697D01*
X015094Y006714D01*
X015042Y006727D01*
X014990Y006736D01*
X014938Y006742D01*
X014885Y006744D01*
X014876Y006824D02*
X014876Y006734D01*
X014875Y006735D02*
X014821Y006733D01*
X014768Y006727D01*
X014715Y006717D01*
X014663Y006703D01*
X014612Y006686D01*
X014562Y006665D01*
X014514Y006641D01*
X014468Y006613D01*
X014424Y006582D01*
X014383Y006548D01*
X014343Y006511D01*
X014307Y006472D01*
X014239Y006529D01*
X014238Y006530D01*
X014276Y006571D01*
X014316Y006609D01*
X014359Y006645D01*
X014404Y006678D01*
X014451Y006708D01*
X014499Y006734D01*
X014550Y006758D01*
X014602Y006778D01*
X014655Y006794D01*
X014709Y006808D01*
X014764Y006817D01*
X014819Y006823D01*
X014875Y006825D01*
X014875Y006816D01*
X014820Y006814D01*
X014765Y006808D01*
X014711Y006799D01*
X014657Y006786D01*
X014605Y006769D01*
X014553Y006750D01*
X014503Y006726D01*
X014455Y006700D01*
X014409Y006670D01*
X014364Y006638D01*
X014322Y006603D01*
X014282Y006564D01*
X014245Y006524D01*
X014252Y006518D01*
X014289Y006558D01*
X014328Y006596D01*
X014370Y006631D01*
X014414Y006663D01*
X014460Y006692D01*
X014508Y006718D01*
X014557Y006741D01*
X014608Y006761D01*
X014660Y006777D01*
X014713Y006790D01*
X014766Y006799D01*
X014821Y006805D01*
X014875Y006807D01*
X014875Y006798D01*
X014821Y006796D01*
X014768Y006790D01*
X014715Y006781D01*
X014662Y006768D01*
X014611Y006752D01*
X014560Y006733D01*
X014512Y006710D01*
X014464Y006685D01*
X014419Y006656D01*
X014375Y006624D01*
X014334Y006589D01*
X014295Y006552D01*
X014259Y006512D01*
X014266Y006506D01*
X014302Y006546D01*
X014340Y006583D01*
X014381Y006617D01*
X014424Y006648D01*
X014469Y006677D01*
X014516Y006702D01*
X014564Y006725D01*
X014614Y006744D01*
X014665Y006760D01*
X014716Y006772D01*
X014769Y006781D01*
X014822Y006787D01*
X014875Y006789D01*
X014875Y006780D01*
X014822Y006778D01*
X014770Y006772D01*
X014718Y006763D01*
X014667Y006751D01*
X014617Y006735D01*
X014567Y006716D01*
X014520Y006694D01*
X014473Y006669D01*
X014429Y006641D01*
X014387Y006610D01*
X014346Y006576D01*
X014308Y006539D01*
X014273Y006501D01*
X014279Y006495D01*
X014315Y006533D01*
X014352Y006569D01*
X014392Y006603D01*
X014434Y006633D01*
X014478Y006661D01*
X014524Y006686D01*
X014571Y006708D01*
X014620Y006727D01*
X014669Y006742D01*
X014720Y006755D01*
X014771Y006763D01*
X014823Y006769D01*
X014875Y006771D01*
X014875Y006762D01*
X014819Y006760D01*
X014764Y006753D01*
X014709Y006743D01*
X014655Y006729D01*
X014602Y006711D01*
X014551Y006689D01*
X014501Y006664D01*
X014453Y006635D01*
X014408Y006603D01*
X014365Y006568D01*
X014324Y006530D01*
X014286Y006489D01*
X014293Y006483D01*
X014330Y006524D01*
X014371Y006561D01*
X014413Y006596D01*
X014458Y006628D01*
X014506Y006656D01*
X014555Y006681D01*
X014606Y006703D01*
X014658Y006720D01*
X014711Y006734D01*
X014765Y006744D01*
X014820Y006751D01*
X014875Y006753D01*
X014875Y006744D01*
X014821Y006742D01*
X014767Y006736D01*
X014713Y006726D01*
X014660Y006712D01*
X014609Y006694D01*
X014559Y006673D01*
X014510Y006648D01*
X014463Y006620D01*
X014419Y006589D01*
X014377Y006555D01*
X014337Y006517D01*
X014300Y006477D01*
X014235Y005436D02*
X014304Y005493D01*
X014303Y005493D02*
X014340Y005453D01*
X014379Y005415D01*
X014421Y005381D01*
X014465Y005349D01*
X014511Y005321D01*
X014560Y005296D01*
X014610Y005275D01*
X014661Y005257D01*
X014714Y005244D01*
X014767Y005234D01*
X014821Y005227D01*
X014875Y005225D01*
X014876Y005136D01*
X014875Y005135D01*
X014819Y005137D01*
X014763Y005143D01*
X014708Y005153D01*
X014653Y005166D01*
X014600Y005183D01*
X014547Y005203D01*
X014496Y005227D01*
X014447Y005254D01*
X014400Y005285D01*
X014355Y005318D01*
X014312Y005354D01*
X014272Y005393D01*
X014234Y005435D01*
X014241Y005441D01*
X014278Y005400D01*
X014318Y005361D01*
X014360Y005325D01*
X014405Y005292D01*
X014452Y005262D01*
X014500Y005235D01*
X014551Y005212D01*
X014603Y005191D01*
X014656Y005175D01*
X014710Y005162D01*
X014764Y005152D01*
X014819Y005146D01*
X014875Y005144D01*
X014875Y005153D01*
X014820Y005155D01*
X014765Y005161D01*
X014711Y005170D01*
X014658Y005183D01*
X014606Y005200D01*
X014554Y005220D01*
X014505Y005243D01*
X014456Y005270D01*
X014410Y005299D01*
X014366Y005332D01*
X014324Y005368D01*
X014285Y005406D01*
X014248Y005447D01*
X014255Y005452D01*
X014291Y005412D01*
X014330Y005374D01*
X014372Y005339D01*
X014415Y005307D01*
X014461Y005277D01*
X014509Y005251D01*
X014558Y005228D01*
X014608Y005208D01*
X014660Y005192D01*
X014713Y005179D01*
X014767Y005170D01*
X014821Y005164D01*
X014875Y005162D01*
X014875Y005171D01*
X014821Y005173D01*
X014768Y005179D01*
X014715Y005188D01*
X014663Y005201D01*
X014611Y005217D01*
X014561Y005236D01*
X014513Y005259D01*
X014466Y005285D01*
X014420Y005314D01*
X014377Y005346D01*
X014336Y005381D01*
X014298Y005418D01*
X014262Y005458D01*
X014269Y005464D01*
X014304Y005425D01*
X014342Y005388D01*
X014383Y005353D01*
X014426Y005322D01*
X014470Y005293D01*
X014517Y005267D01*
X014565Y005245D01*
X014614Y005225D01*
X014665Y005209D01*
X014717Y005197D01*
X014769Y005188D01*
X014822Y005182D01*
X014875Y005180D01*
X014875Y005189D01*
X014823Y005191D01*
X014770Y005197D01*
X014719Y005206D01*
X014668Y005218D01*
X014617Y005234D01*
X014568Y005253D01*
X014521Y005275D01*
X014475Y005301D01*
X014431Y005329D01*
X014389Y005360D01*
X014348Y005394D01*
X014311Y005431D01*
X014276Y005470D01*
X014282Y005476D01*
X014317Y005437D01*
X014355Y005401D01*
X014394Y005367D01*
X014436Y005336D01*
X014480Y005308D01*
X014525Y005283D01*
X014572Y005261D01*
X014620Y005242D01*
X014670Y005227D01*
X014720Y005214D01*
X014772Y005206D01*
X014823Y005200D01*
X014875Y005198D01*
X014875Y005207D01*
X014824Y005209D01*
X014773Y005214D01*
X014722Y005223D01*
X014672Y005235D01*
X014623Y005251D01*
X014576Y005269D01*
X014529Y005291D01*
X014484Y005316D01*
X014441Y005344D01*
X014400Y005374D01*
X014361Y005407D01*
X014324Y005443D01*
X014289Y005481D01*
X014296Y005487D01*
X014333Y005446D01*
X014373Y005408D01*
X014415Y005374D01*
X014460Y005342D01*
X014507Y005313D01*
X014556Y005288D01*
X014607Y005267D01*
X014658Y005249D01*
X014712Y005235D01*
X014766Y005225D01*
X014820Y005218D01*
X014875Y005216D01*
X019985Y005136D02*
X019985Y005226D01*
X019985Y005225D02*
X020039Y005227D01*
X020092Y005233D01*
X020145Y005243D01*
X020197Y005257D01*
X020248Y005274D01*
X020297Y005295D01*
X020345Y005319D01*
X020391Y005347D01*
X020435Y005378D01*
X020477Y005412D01*
X020516Y005448D01*
X020553Y005488D01*
X020586Y005530D01*
X020617Y005574D01*
X020644Y005620D01*
X020723Y005578D01*
X020695Y005529D01*
X020663Y005483D01*
X020628Y005438D01*
X020591Y005396D01*
X020550Y005356D01*
X020507Y005320D01*
X020462Y005286D01*
X020415Y005255D01*
X020365Y005228D01*
X020314Y005204D01*
X020262Y005183D01*
X020208Y005166D01*
X020153Y005153D01*
X020098Y005143D01*
X020041Y005137D01*
X019985Y005135D01*
X019985Y005144D01*
X020041Y005146D01*
X020096Y005152D01*
X020151Y005162D01*
X020206Y005175D01*
X020259Y005192D01*
X020311Y005212D01*
X020361Y005236D01*
X020410Y005263D01*
X020457Y005293D01*
X020502Y005327D01*
X020544Y005363D01*
X020584Y005402D01*
X020621Y005444D01*
X020656Y005488D01*
X020687Y005534D01*
X020715Y005582D01*
X020707Y005586D01*
X020679Y005539D01*
X020648Y005493D01*
X020614Y005450D01*
X020578Y005408D01*
X020538Y005370D01*
X020496Y005334D01*
X020452Y005301D01*
X020406Y005271D01*
X020357Y005244D01*
X020307Y005221D01*
X020256Y005200D01*
X020203Y005184D01*
X020150Y005171D01*
X020095Y005161D01*
X020040Y005155D01*
X019985Y005153D01*
X019985Y005162D01*
X020040Y005164D01*
X020094Y005170D01*
X020148Y005179D01*
X020201Y005192D01*
X020253Y005209D01*
X020304Y005229D01*
X020353Y005252D01*
X020401Y005279D01*
X020447Y005308D01*
X020491Y005341D01*
X020532Y005376D01*
X020571Y005415D01*
X020608Y005455D01*
X020641Y005498D01*
X020672Y005544D01*
X020699Y005591D01*
X020691Y005595D01*
X020664Y005548D01*
X020634Y005504D01*
X020601Y005461D01*
X020565Y005421D01*
X020526Y005383D01*
X020485Y005348D01*
X020442Y005316D01*
X020396Y005286D01*
X020349Y005260D01*
X020300Y005237D01*
X020250Y005217D01*
X020198Y005201D01*
X020146Y005188D01*
X020093Y005179D01*
X020039Y005173D01*
X019985Y005171D01*
X019985Y005180D01*
X020038Y005182D01*
X020091Y005188D01*
X020144Y005197D01*
X020196Y005210D01*
X020247Y005226D01*
X020297Y005245D01*
X020345Y005268D01*
X020392Y005294D01*
X020436Y005323D01*
X020479Y005355D01*
X020520Y005390D01*
X020558Y005427D01*
X020594Y005467D01*
X020627Y005509D01*
X020657Y005553D01*
X020684Y005599D01*
X020676Y005603D01*
X020649Y005558D01*
X020619Y005514D01*
X020587Y005473D01*
X020552Y005433D01*
X020514Y005396D01*
X020474Y005362D01*
X020431Y005330D01*
X020387Y005302D01*
X020341Y005276D01*
X020293Y005254D01*
X020244Y005234D01*
X020194Y005218D01*
X020142Y005206D01*
X020090Y005197D01*
X020038Y005191D01*
X019985Y005189D01*
X019985Y005198D01*
X020041Y005200D01*
X020096Y005207D01*
X020151Y005217D01*
X020205Y005231D01*
X020257Y005249D01*
X020309Y005270D01*
X020358Y005296D01*
X020406Y005324D01*
X020452Y005356D01*
X020495Y005391D01*
X020535Y005429D01*
X020573Y005470D01*
X020608Y005514D01*
X020639Y005560D01*
X020668Y005608D01*
X020660Y005612D01*
X020632Y005564D01*
X020601Y005519D01*
X020566Y005476D01*
X020529Y005436D01*
X020489Y005398D01*
X020446Y005363D01*
X020401Y005332D01*
X020354Y005303D01*
X020305Y005279D01*
X020254Y005257D01*
X020202Y005240D01*
X020149Y005226D01*
X020095Y005216D01*
X020040Y005209D01*
X019985Y005207D01*
X019985Y005216D01*
X020039Y005218D01*
X020093Y005224D01*
X020147Y005234D01*
X020199Y005248D01*
X020251Y005266D01*
X020301Y005287D01*
X020350Y005311D01*
X020396Y005339D01*
X020441Y005371D01*
X020483Y005405D01*
X020522Y005442D01*
X020559Y005482D01*
X020593Y005524D01*
X020624Y005569D01*
X020652Y005616D01*
X020711Y006403D02*
X020633Y006358D01*
X020633Y006359D02*
X020605Y006403D01*
X020574Y006445D01*
X020541Y006485D01*
X020505Y006523D01*
X020466Y006558D01*
X020425Y006590D01*
X020381Y006620D01*
X020336Y006646D01*
X020289Y006669D01*
X020241Y006689D01*
X020191Y006705D01*
X020141Y006718D01*
X020089Y006727D01*
X020037Y006733D01*
X019985Y006735D01*
X019984Y006824D01*
X019985Y006825D01*
X020040Y006823D01*
X020094Y006817D01*
X020149Y006808D01*
X020202Y006795D01*
X020254Y006779D01*
X020306Y006760D01*
X020356Y006737D01*
X020404Y006711D01*
X020451Y006682D01*
X020495Y006650D01*
X020538Y006615D01*
X020578Y006577D01*
X020615Y006537D01*
X020650Y006495D01*
X020682Y006450D01*
X020711Y006404D01*
X020703Y006399D01*
X020675Y006445D01*
X020643Y006489D01*
X020608Y006531D01*
X020571Y006571D01*
X020532Y006608D01*
X020490Y006643D01*
X020446Y006674D01*
X020400Y006703D01*
X020352Y006729D01*
X020302Y006751D01*
X020252Y006771D01*
X020200Y006787D01*
X020147Y006799D01*
X020093Y006808D01*
X020039Y006814D01*
X019985Y006816D01*
X019985Y006807D01*
X020039Y006805D01*
X020092Y006799D01*
X020145Y006790D01*
X020197Y006778D01*
X020249Y006762D01*
X020299Y006743D01*
X020348Y006721D01*
X020395Y006695D01*
X020441Y006667D01*
X020484Y006635D01*
X020526Y006601D01*
X020565Y006565D01*
X020602Y006525D01*
X020636Y006484D01*
X020667Y006440D01*
X020696Y006395D01*
X020688Y006390D01*
X020658Y006438D01*
X020624Y006484D01*
X020588Y006527D01*
X020548Y006568D01*
X020506Y006606D01*
X020462Y006641D01*
X020415Y006673D01*
X020366Y006701D01*
X020315Y006726D01*
X020262Y006748D01*
X020209Y006765D01*
X020154Y006779D01*
X020098Y006789D01*
X020042Y006796D01*
X019985Y006798D01*
X019985Y006789D01*
X020041Y006787D01*
X020097Y006781D01*
X020152Y006771D01*
X020206Y006757D01*
X020259Y006739D01*
X020311Y006718D01*
X020362Y006693D01*
X020410Y006665D01*
X020456Y006634D01*
X020501Y006599D01*
X020542Y006562D01*
X020581Y006521D01*
X020617Y006479D01*
X020650Y006433D01*
X020680Y006386D01*
X020672Y006381D01*
X020643Y006428D01*
X020610Y006473D01*
X020574Y006515D01*
X020536Y006555D01*
X020495Y006592D01*
X020451Y006627D01*
X020405Y006658D01*
X020357Y006685D01*
X020308Y006710D01*
X020256Y006731D01*
X020204Y006748D01*
X020150Y006762D01*
X020095Y006772D01*
X020040Y006778D01*
X019985Y006780D01*
X019985Y006771D01*
X020040Y006769D01*
X020094Y006763D01*
X020148Y006753D01*
X020201Y006739D01*
X020253Y006722D01*
X020304Y006702D01*
X020353Y006677D01*
X020400Y006650D01*
X020446Y006619D01*
X020489Y006586D01*
X020530Y006549D01*
X020568Y006509D01*
X020603Y006467D01*
X020635Y006423D01*
X020664Y006377D01*
X020656Y006372D01*
X020628Y006418D01*
X020596Y006462D01*
X020561Y006503D01*
X020523Y006542D01*
X020483Y006579D01*
X020441Y006612D01*
X020396Y006642D01*
X020349Y006670D01*
X020300Y006693D01*
X020250Y006714D01*
X020199Y006731D01*
X020146Y006744D01*
X020093Y006754D01*
X020039Y006760D01*
X019985Y006762D01*
X019985Y006753D01*
X020038Y006751D01*
X020092Y006745D01*
X020144Y006735D01*
X020196Y006722D01*
X020247Y006705D01*
X020297Y006685D01*
X020345Y006662D01*
X020391Y006635D01*
X020435Y006605D01*
X020477Y006572D01*
X020517Y006536D01*
X020554Y006497D01*
X020589Y006456D01*
X020620Y006413D01*
X020649Y006368D01*
X020641Y006363D01*
X020613Y006408D01*
X020582Y006451D01*
X020548Y006491D01*
X020511Y006529D01*
X020472Y006565D01*
X020430Y006597D01*
X020386Y006627D01*
X020340Y006654D01*
X020293Y006677D01*
X020244Y006697D01*
X020194Y006714D01*
X020142Y006727D01*
X020090Y006736D01*
X020038Y006742D01*
X019985Y006744D01*
X019976Y006824D02*
X019976Y006734D01*
X019975Y006735D02*
X019921Y006733D01*
X019868Y006727D01*
X019815Y006717D01*
X019763Y006703D01*
X019712Y006686D01*
X019662Y006665D01*
X019614Y006641D01*
X019568Y006613D01*
X019524Y006582D01*
X019483Y006548D01*
X019443Y006511D01*
X019407Y006472D01*
X019339Y006529D01*
X019338Y006530D01*
X019376Y006571D01*
X019416Y006609D01*
X019459Y006645D01*
X019504Y006678D01*
X019551Y006708D01*
X019599Y006734D01*
X019650Y006758D01*
X019702Y006778D01*
X019755Y006794D01*
X019809Y006808D01*
X019864Y006817D01*
X019919Y006823D01*
X019975Y006825D01*
X019975Y006816D01*
X019920Y006814D01*
X019865Y006808D01*
X019811Y006799D01*
X019757Y006786D01*
X019705Y006769D01*
X019653Y006750D01*
X019603Y006726D01*
X019555Y006700D01*
X019509Y006670D01*
X019464Y006638D01*
X019422Y006603D01*
X019382Y006564D01*
X019345Y006524D01*
X019352Y006518D01*
X019389Y006558D01*
X019428Y006596D01*
X019470Y006631D01*
X019514Y006663D01*
X019560Y006692D01*
X019608Y006718D01*
X019657Y006741D01*
X019708Y006761D01*
X019760Y006777D01*
X019813Y006790D01*
X019866Y006799D01*
X019921Y006805D01*
X019975Y006807D01*
X019975Y006798D01*
X019921Y006796D01*
X019868Y006790D01*
X019815Y006781D01*
X019762Y006768D01*
X019711Y006752D01*
X019660Y006733D01*
X019612Y006710D01*
X019564Y006685D01*
X019519Y006656D01*
X019475Y006624D01*
X019434Y006589D01*
X019395Y006552D01*
X019359Y006512D01*
X019366Y006506D01*
X019402Y006546D01*
X019440Y006583D01*
X019481Y006617D01*
X019524Y006648D01*
X019569Y006677D01*
X019616Y006702D01*
X019664Y006725D01*
X019714Y006744D01*
X019765Y006760D01*
X019816Y006772D01*
X019869Y006781D01*
X019922Y006787D01*
X019975Y006789D01*
X019975Y006780D01*
X019922Y006778D01*
X019870Y006772D01*
X019818Y006763D01*
X019767Y006751D01*
X019717Y006735D01*
X019667Y006716D01*
X019620Y006694D01*
X019573Y006669D01*
X019529Y006641D01*
X019487Y006610D01*
X019446Y006576D01*
X019408Y006539D01*
X019373Y006501D01*
X019379Y006495D01*
X019415Y006533D01*
X019452Y006569D01*
X019492Y006603D01*
X019534Y006633D01*
X019578Y006661D01*
X019624Y006686D01*
X019671Y006708D01*
X019720Y006727D01*
X019769Y006742D01*
X019820Y006755D01*
X019871Y006763D01*
X019923Y006769D01*
X019975Y006771D01*
X019975Y006762D01*
X019919Y006760D01*
X019864Y006753D01*
X019809Y006743D01*
X019755Y006729D01*
X019702Y006711D01*
X019651Y006689D01*
X019601Y006664D01*
X019553Y006635D01*
X019508Y006603D01*
X019465Y006568D01*
X019424Y006530D01*
X019386Y006489D01*
X019393Y006483D01*
X019430Y006524D01*
X019471Y006561D01*
X019513Y006596D01*
X019558Y006628D01*
X019606Y006656D01*
X019655Y006681D01*
X019706Y006703D01*
X019758Y006720D01*
X019811Y006734D01*
X019865Y006744D01*
X019920Y006751D01*
X019975Y006753D01*
X019975Y006744D01*
X019921Y006742D01*
X019867Y006736D01*
X019813Y006726D01*
X019760Y006712D01*
X019709Y006694D01*
X019659Y006673D01*
X019610Y006648D01*
X019563Y006620D01*
X019519Y006589D01*
X019477Y006555D01*
X019437Y006517D01*
X019400Y006477D01*
X019335Y005436D02*
X019404Y005493D01*
X019403Y005493D02*
X019440Y005453D01*
X019479Y005415D01*
X019521Y005381D01*
X019565Y005349D01*
X019611Y005321D01*
X019660Y005296D01*
X019710Y005275D01*
X019761Y005257D01*
X019814Y005244D01*
X019867Y005234D01*
X019921Y005227D01*
X019975Y005225D01*
X019976Y005136D01*
X019975Y005135D01*
X019919Y005137D01*
X019863Y005143D01*
X019808Y005153D01*
X019753Y005166D01*
X019700Y005183D01*
X019647Y005203D01*
X019596Y005227D01*
X019547Y005254D01*
X019500Y005285D01*
X019455Y005318D01*
X019412Y005354D01*
X019372Y005393D01*
X019334Y005435D01*
X019341Y005441D01*
X019378Y005400D01*
X019418Y005361D01*
X019460Y005325D01*
X019505Y005292D01*
X019552Y005262D01*
X019600Y005235D01*
X019651Y005212D01*
X019703Y005191D01*
X019756Y005175D01*
X019810Y005162D01*
X019864Y005152D01*
X019919Y005146D01*
X019975Y005144D01*
X019975Y005153D01*
X019920Y005155D01*
X019865Y005161D01*
X019811Y005170D01*
X019758Y005183D01*
X019706Y005200D01*
X019654Y005220D01*
X019605Y005243D01*
X019556Y005270D01*
X019510Y005299D01*
X019466Y005332D01*
X019424Y005368D01*
X019385Y005406D01*
X019348Y005447D01*
X019355Y005452D01*
X019391Y005412D01*
X019430Y005374D01*
X019472Y005339D01*
X019515Y005307D01*
X019561Y005277D01*
X019609Y005251D01*
X019658Y005228D01*
X019708Y005208D01*
X019760Y005192D01*
X019813Y005179D01*
X019867Y005170D01*
X019921Y005164D01*
X019975Y005162D01*
X019975Y005171D01*
X019921Y005173D01*
X019868Y005179D01*
X019815Y005188D01*
X019763Y005201D01*
X019711Y005217D01*
X019661Y005236D01*
X019613Y005259D01*
X019566Y005285D01*
X019520Y005314D01*
X019477Y005346D01*
X019436Y005381D01*
X019398Y005418D01*
X019362Y005458D01*
X019369Y005464D01*
X019404Y005425D01*
X019442Y005388D01*
X019483Y005353D01*
X019526Y005322D01*
X019570Y005293D01*
X019617Y005267D01*
X019665Y005245D01*
X019714Y005225D01*
X019765Y005209D01*
X019817Y005197D01*
X019869Y005188D01*
X019922Y005182D01*
X019975Y005180D01*
X019975Y005189D01*
X019923Y005191D01*
X019870Y005197D01*
X019819Y005206D01*
X019768Y005218D01*
X019717Y005234D01*
X019668Y005253D01*
X019621Y005275D01*
X019575Y005301D01*
X019531Y005329D01*
X019489Y005360D01*
X019448Y005394D01*
X019411Y005431D01*
X019376Y005470D01*
X019382Y005476D01*
X019417Y005437D01*
X019455Y005401D01*
X019494Y005367D01*
X019536Y005336D01*
X019580Y005308D01*
X019625Y005283D01*
X019672Y005261D01*
X019720Y005242D01*
X019770Y005227D01*
X019820Y005214D01*
X019872Y005206D01*
X019923Y005200D01*
X019975Y005198D01*
X019975Y005207D01*
X019924Y005209D01*
X019873Y005214D01*
X019822Y005223D01*
X019772Y005235D01*
X019723Y005251D01*
X019676Y005269D01*
X019629Y005291D01*
X019584Y005316D01*
X019541Y005344D01*
X019500Y005374D01*
X019461Y005407D01*
X019424Y005443D01*
X019389Y005481D01*
X019396Y005487D01*
X019433Y005446D01*
X019473Y005408D01*
X019515Y005374D01*
X019560Y005342D01*
X019607Y005313D01*
X019656Y005288D01*
X019707Y005267D01*
X019758Y005249D01*
X019812Y005235D01*
X019866Y005225D01*
X019920Y005218D01*
X019975Y005216D01*
D18*
X019360Y005470D02*
X019360Y005670D01*
X019360Y006310D02*
X019360Y006490D01*
X014260Y006490D02*
X014260Y006310D01*
X014260Y005670D02*
X014260Y005470D01*
X009060Y005470D02*
X009060Y005670D01*
X009060Y006310D02*
X009060Y006490D01*
X003460Y006510D02*
X003460Y006690D01*
X003460Y005870D02*
X003460Y005670D01*
M02*
