G75*
%MOIN*%
%OFA0B0*%
%FSLAX24Y24*%
%IPPOS*%
%LPD*%
%AMOC8*
5,1,8,0,0,1.08239X$1,22.5*
%
%ADD10C,0.0000*%
D10*
X000580Y000580D02*
X000580Y016076D01*
X023450Y016076D01*
X023450Y000580D01*
X000580Y000580D01*
X001350Y014780D02*
X001352Y014830D01*
X001358Y014880D01*
X001368Y014929D01*
X001382Y014977D01*
X001399Y015024D01*
X001420Y015069D01*
X001445Y015113D01*
X001473Y015154D01*
X001505Y015193D01*
X001539Y015230D01*
X001576Y015264D01*
X001616Y015294D01*
X001658Y015321D01*
X001702Y015345D01*
X001748Y015366D01*
X001795Y015382D01*
X001843Y015395D01*
X001893Y015404D01*
X001942Y015409D01*
X001993Y015410D01*
X002043Y015407D01*
X002092Y015400D01*
X002141Y015389D01*
X002189Y015374D01*
X002235Y015356D01*
X002280Y015334D01*
X002323Y015308D01*
X002364Y015279D01*
X002403Y015247D01*
X002439Y015212D01*
X002471Y015174D01*
X002501Y015134D01*
X002528Y015091D01*
X002551Y015047D01*
X002570Y015001D01*
X002586Y014953D01*
X002598Y014904D01*
X002606Y014855D01*
X002610Y014805D01*
X002610Y014755D01*
X002606Y014705D01*
X002598Y014656D01*
X002586Y014607D01*
X002570Y014559D01*
X002551Y014513D01*
X002528Y014469D01*
X002501Y014426D01*
X002471Y014386D01*
X002439Y014348D01*
X002403Y014313D01*
X002364Y014281D01*
X002323Y014252D01*
X002280Y014226D01*
X002235Y014204D01*
X002189Y014186D01*
X002141Y014171D01*
X002092Y014160D01*
X002043Y014153D01*
X001993Y014150D01*
X001942Y014151D01*
X001893Y014156D01*
X001843Y014165D01*
X001795Y014178D01*
X001748Y014194D01*
X001702Y014215D01*
X001658Y014239D01*
X001616Y014266D01*
X001576Y014296D01*
X001539Y014330D01*
X001505Y014367D01*
X001473Y014406D01*
X001445Y014447D01*
X001420Y014491D01*
X001399Y014536D01*
X001382Y014583D01*
X001368Y014631D01*
X001358Y014680D01*
X001352Y014730D01*
X001350Y014780D01*
X021550Y014880D02*
X021552Y014930D01*
X021558Y014980D01*
X021568Y015029D01*
X021582Y015077D01*
X021599Y015124D01*
X021620Y015169D01*
X021645Y015213D01*
X021673Y015254D01*
X021705Y015293D01*
X021739Y015330D01*
X021776Y015364D01*
X021816Y015394D01*
X021858Y015421D01*
X021902Y015445D01*
X021948Y015466D01*
X021995Y015482D01*
X022043Y015495D01*
X022093Y015504D01*
X022142Y015509D01*
X022193Y015510D01*
X022243Y015507D01*
X022292Y015500D01*
X022341Y015489D01*
X022389Y015474D01*
X022435Y015456D01*
X022480Y015434D01*
X022523Y015408D01*
X022564Y015379D01*
X022603Y015347D01*
X022639Y015312D01*
X022671Y015274D01*
X022701Y015234D01*
X022728Y015191D01*
X022751Y015147D01*
X022770Y015101D01*
X022786Y015053D01*
X022798Y015004D01*
X022806Y014955D01*
X022810Y014905D01*
X022810Y014855D01*
X022806Y014805D01*
X022798Y014756D01*
X022786Y014707D01*
X022770Y014659D01*
X022751Y014613D01*
X022728Y014569D01*
X022701Y014526D01*
X022671Y014486D01*
X022639Y014448D01*
X022603Y014413D01*
X022564Y014381D01*
X022523Y014352D01*
X022480Y014326D01*
X022435Y014304D01*
X022389Y014286D01*
X022341Y014271D01*
X022292Y014260D01*
X022243Y014253D01*
X022193Y014250D01*
X022142Y014251D01*
X022093Y014256D01*
X022043Y014265D01*
X021995Y014278D01*
X021948Y014294D01*
X021902Y014315D01*
X021858Y014339D01*
X021816Y014366D01*
X021776Y014396D01*
X021739Y014430D01*
X021705Y014467D01*
X021673Y014506D01*
X021645Y014547D01*
X021620Y014591D01*
X021599Y014636D01*
X021582Y014683D01*
X021568Y014731D01*
X021558Y014780D01*
X021552Y014830D01*
X021550Y014880D01*
M02*
