G75*
%MOIN*%
%OFA0B0*%
%FSLAX24Y24*%
%IPPOS*%
%LPD*%
%AMOC8*
5,1,8,0,0,1.08239X$1,22.5*
%
%ADD10C,0.1320*%
%ADD11C,0.0710*%
%ADD12C,0.0800*%
%ADD13R,0.0800X0.0800*%
%ADD14C,0.0397*%
%ADD15C,0.0330*%
D10*
X001980Y014780D03*
X022180Y014880D03*
D11*
X010780Y011580D03*
X009780Y011580D03*
D12*
X002800Y002590D03*
X001480Y002980D03*
X002800Y004370D03*
X005360Y004370D03*
X007080Y002980D03*
X008400Y002590D03*
X010960Y002590D03*
X012280Y002980D03*
X013600Y002590D03*
X016160Y002590D03*
X017380Y002780D03*
X018700Y002590D03*
X021260Y002590D03*
X021260Y004370D03*
X018700Y004370D03*
X017380Y005780D03*
X019480Y005980D03*
X020480Y005980D03*
X016160Y004370D03*
X013600Y004370D03*
X010960Y004370D03*
X008400Y004370D03*
X009180Y005980D03*
X010180Y005980D03*
X012280Y005980D03*
X014380Y005980D03*
X015380Y005980D03*
X012080Y008780D03*
X012080Y010180D03*
X009080Y010180D03*
X009080Y008780D03*
X004580Y006180D03*
X003580Y006180D03*
X001480Y005980D03*
X007080Y005980D03*
X005360Y002590D03*
X008580Y014580D03*
X009580Y014580D03*
X010580Y014580D03*
X014580Y014580D03*
X015580Y014580D03*
X016580Y014580D03*
D13*
X013580Y014580D03*
X007580Y014580D03*
D14*
X001780Y011861D03*
D15*
X003040Y010780D03*
X004300Y009760D03*
X004300Y008800D03*
X006640Y008320D03*
X007960Y008680D03*
X008260Y006160D03*
X001840Y009040D03*
M02*
