G75*
%MOIN*%
%OFA0B0*%
%FSLAX24Y24*%
%IPPOS*%
%LPD*%
%AMOC8*
5,1,8,0,0,1.08239X$1,22.5*
%
%ADD10C,0.0650*%
%ADD11R,0.0740X0.0740*%
%ADD12C,0.0740*%
%ADD13R,0.0250X0.0500*%
%ADD14R,0.0800X0.0260*%
%ADD15C,0.0160*%
%ADD16OC8,0.0376*%
%ADD17C,0.0060*%
%ADD18C,0.0270*%
D10*
X001780Y001980D03*
X001780Y002980D03*
D11*
X009980Y002580D03*
D12*
X009980Y003580D03*
X009980Y004580D03*
X009980Y005580D03*
X007580Y005780D03*
X006580Y005780D03*
X005580Y005780D03*
X004480Y005980D03*
X004480Y004980D03*
X001480Y004980D03*
X001480Y005980D03*
D13*
X007430Y003980D03*
X007780Y003980D03*
X008130Y003980D03*
X008130Y002780D03*
X007780Y002780D03*
X007430Y002780D03*
D14*
X005790Y002630D03*
X005790Y003130D03*
X005790Y003630D03*
X005790Y004130D03*
X003370Y004130D03*
X003370Y003630D03*
X003370Y003130D03*
X003370Y002630D03*
D15*
X001010Y001210D02*
X001010Y004782D01*
X001048Y004691D01*
X001191Y004548D01*
X001379Y004470D01*
X001581Y004470D01*
X001601Y004478D01*
X002290Y003790D01*
X002290Y002830D01*
X002390Y002730D01*
X002630Y002490D01*
X002830Y002490D01*
X002830Y002442D01*
X002912Y002360D01*
X003828Y002360D01*
X003834Y002366D01*
X004550Y001650D01*
X010570Y001650D01*
X010670Y001750D01*
X010910Y001990D01*
X010910Y005010D01*
X010810Y005110D01*
X010476Y005445D01*
X010490Y005479D01*
X010490Y005681D01*
X010412Y005869D01*
X010269Y006012D01*
X010081Y006090D01*
X009879Y006090D01*
X009691Y006012D01*
X009548Y005869D01*
X009470Y005681D01*
X009470Y005479D01*
X009548Y005291D01*
X009691Y005148D01*
X009854Y005080D01*
X009691Y005012D01*
X009548Y004869D01*
X009470Y004681D01*
X009470Y004479D01*
X009548Y004291D01*
X009691Y004148D01*
X009854Y004080D01*
X009691Y004012D01*
X009548Y003869D01*
X009470Y003681D01*
X009470Y003670D01*
X009410Y003670D01*
X009310Y003570D01*
X009290Y003550D01*
X008270Y003550D01*
X008270Y003590D01*
X008313Y003590D01*
X008395Y003672D01*
X008395Y004288D01*
X008313Y004370D01*
X008190Y004370D01*
X008170Y004390D01*
X007810Y004750D01*
X007690Y004750D01*
X006981Y005460D01*
X007012Y005491D01*
X007080Y005654D01*
X007148Y005491D01*
X007291Y005348D01*
X007479Y005270D01*
X007681Y005270D01*
X007869Y005348D01*
X008012Y005491D01*
X008090Y005679D01*
X008090Y005881D01*
X008012Y006069D01*
X007869Y006212D01*
X007681Y006290D01*
X007479Y006290D01*
X007291Y006212D01*
X007148Y006069D01*
X007080Y005906D01*
X007012Y006069D01*
X006869Y006212D01*
X006681Y006290D01*
X006479Y006290D01*
X006291Y006212D01*
X006148Y006069D01*
X006101Y005956D01*
X006090Y005991D01*
X006050Y006068D01*
X006000Y006138D01*
X005938Y006200D01*
X005868Y006250D01*
X005791Y006290D01*
X005709Y006316D01*
X005623Y006330D01*
X005600Y006330D01*
X005600Y005800D01*
X005560Y005800D01*
X005560Y006330D01*
X005537Y006330D01*
X005451Y006316D01*
X005369Y006290D01*
X005292Y006250D01*
X005222Y006200D01*
X005160Y006138D01*
X005110Y006068D01*
X005070Y005991D01*
X005044Y005909D01*
X005030Y005823D01*
X005030Y005800D01*
X005560Y005800D01*
X005560Y005760D01*
X005600Y005760D01*
X005600Y005230D01*
X005623Y005230D01*
X005709Y005244D01*
X005791Y005270D01*
X005868Y005310D01*
X005938Y005360D01*
X006000Y005422D01*
X006050Y005492D01*
X006090Y005569D01*
X006101Y005604D01*
X006148Y005491D01*
X006169Y005470D01*
X005870Y005170D01*
X005150Y005170D01*
X005050Y005070D01*
X005030Y005050D01*
X004990Y005050D01*
X004990Y005081D01*
X004912Y005269D01*
X004769Y005412D01*
X004610Y005478D01*
X004610Y005482D01*
X004769Y005548D01*
X004912Y005691D01*
X004990Y005879D01*
X004990Y006081D01*
X004912Y006269D01*
X004769Y006412D01*
X004688Y006446D01*
X014820Y006446D01*
X014820Y001210D01*
X001010Y001210D01*
X001010Y001297D02*
X014820Y001297D01*
X014820Y001456D02*
X001010Y001456D01*
X001010Y001614D02*
X001432Y001614D01*
X001451Y001595D02*
X001515Y001548D01*
X001586Y001512D01*
X001662Y001487D01*
X001740Y001475D01*
X001780Y001475D01*
X001820Y001475D01*
X001898Y001487D01*
X001974Y001512D01*
X002045Y001548D01*
X002109Y001595D01*
X002165Y001651D01*
X002212Y001715D01*
X002248Y001786D01*
X002273Y001862D01*
X002285Y001940D01*
X002285Y001980D01*
X002285Y002020D01*
X002273Y002098D01*
X002248Y002174D01*
X002212Y002245D01*
X002165Y002309D01*
X002109Y002365D01*
X002045Y002412D01*
X001974Y002448D01*
X001898Y002473D01*
X001820Y002485D01*
X001780Y002485D01*
X001780Y001980D01*
X001780Y001980D01*
X002285Y001980D01*
X001780Y001980D01*
X001780Y001980D01*
X001780Y001980D01*
X001275Y001980D01*
X001275Y002020D01*
X001287Y002098D01*
X001312Y002174D01*
X001348Y002245D01*
X001395Y002309D01*
X001451Y002365D01*
X001515Y002412D01*
X001586Y002448D01*
X001662Y002473D01*
X001740Y002485D01*
X001780Y002485D01*
X001780Y001980D01*
X001780Y001475D01*
X001780Y001980D01*
X001780Y001980D01*
X001275Y001980D01*
X001275Y001940D01*
X001287Y001862D01*
X001312Y001786D01*
X001348Y001715D01*
X001395Y001651D01*
X001451Y001595D01*
X001319Y001773D02*
X001010Y001773D01*
X001010Y001931D02*
X001276Y001931D01*
X001286Y002090D02*
X001010Y002090D01*
X001010Y002248D02*
X001351Y002248D01*
X001508Y002407D02*
X001010Y002407D01*
X001010Y002565D02*
X001567Y002565D01*
X001517Y002586D02*
X001688Y002515D01*
X001872Y002515D01*
X002043Y002586D01*
X002174Y002717D01*
X002245Y002888D01*
X002245Y003072D01*
X002174Y003243D01*
X002043Y003374D01*
X001872Y003445D01*
X001688Y003445D01*
X001517Y003374D01*
X001386Y003243D01*
X001315Y003072D01*
X001315Y002888D01*
X001386Y002717D01*
X001517Y002586D01*
X001383Y002724D02*
X001010Y002724D01*
X001010Y002882D02*
X001317Y002882D01*
X001315Y003041D02*
X001010Y003041D01*
X001010Y003199D02*
X001367Y003199D01*
X001500Y003358D02*
X001010Y003358D01*
X001010Y003516D02*
X002290Y003516D01*
X002290Y003358D02*
X002060Y003358D01*
X002193Y003199D02*
X002290Y003199D01*
X002290Y003041D02*
X002245Y003041D01*
X002243Y002882D02*
X002290Y002882D01*
X002396Y002724D02*
X002177Y002724D01*
X001993Y002565D02*
X002555Y002565D01*
X002866Y002407D02*
X002052Y002407D01*
X002209Y002248D02*
X003952Y002248D01*
X004110Y002090D02*
X002274Y002090D01*
X002284Y001931D02*
X004269Y001931D01*
X004427Y001773D02*
X002241Y001773D01*
X002128Y001614D02*
X014820Y001614D01*
X014820Y001773D02*
X010693Y001773D01*
X010851Y001931D02*
X014820Y001931D01*
X014820Y002090D02*
X010910Y002090D01*
X010910Y002248D02*
X014820Y002248D01*
X014820Y002407D02*
X010910Y002407D01*
X010910Y002565D02*
X014820Y002565D01*
X014820Y002724D02*
X010910Y002724D01*
X010910Y002882D02*
X014820Y002882D01*
X014820Y003041D02*
X010910Y003041D01*
X010910Y003199D02*
X014820Y003199D01*
X014820Y003358D02*
X010910Y003358D01*
X010910Y003516D02*
X014820Y003516D01*
X014820Y003675D02*
X010910Y003675D01*
X010910Y003833D02*
X014820Y003833D01*
X014820Y003992D02*
X010910Y003992D01*
X010910Y004150D02*
X014820Y004150D01*
X014820Y004309D02*
X010910Y004309D01*
X010910Y004467D02*
X014820Y004467D01*
X014820Y004626D02*
X010910Y004626D01*
X010910Y004784D02*
X014820Y004784D01*
X014820Y004943D02*
X010910Y004943D01*
X010819Y005101D02*
X014820Y005101D01*
X014820Y005260D02*
X010661Y005260D01*
X010502Y005418D02*
X014820Y005418D01*
X014820Y005577D02*
X010490Y005577D01*
X010468Y005735D02*
X014820Y005735D01*
X014820Y005894D02*
X010388Y005894D01*
X010173Y006052D02*
X014820Y006052D01*
X014820Y006211D02*
X007871Y006211D01*
X008019Y006052D02*
X009787Y006052D01*
X009572Y005894D02*
X008085Y005894D01*
X008090Y005735D02*
X009492Y005735D01*
X009470Y005577D02*
X008048Y005577D01*
X007939Y005418D02*
X009495Y005418D01*
X009579Y005260D02*
X007181Y005260D01*
X007221Y005418D02*
X007022Y005418D01*
X007048Y005577D02*
X007112Y005577D01*
X007141Y006052D02*
X007019Y006052D01*
X006871Y006211D02*
X007289Y006211D01*
X006289Y006211D02*
X005923Y006211D01*
X006059Y006052D02*
X006141Y006052D01*
X005600Y006052D02*
X005560Y006052D01*
X005560Y005894D02*
X005600Y005894D01*
X005560Y005760D02*
X005030Y005760D01*
X005030Y005737D01*
X005044Y005651D01*
X005070Y005569D01*
X005110Y005492D01*
X005160Y005422D01*
X005222Y005360D01*
X005292Y005310D01*
X005369Y005270D01*
X005451Y005244D01*
X005537Y005230D01*
X005560Y005230D01*
X005560Y005760D01*
X005560Y005735D02*
X005600Y005735D01*
X005600Y005577D02*
X005560Y005577D01*
X005560Y005418D02*
X005600Y005418D01*
X005600Y005260D02*
X005560Y005260D01*
X005402Y005260D02*
X004916Y005260D01*
X004982Y005101D02*
X005081Y005101D01*
X004990Y005050D02*
X004990Y005050D01*
X004920Y004710D02*
X004912Y004691D01*
X004769Y004548D01*
X004581Y004470D01*
X004379Y004470D01*
X004191Y004548D01*
X004048Y004691D01*
X003970Y004879D01*
X003970Y005081D01*
X004048Y005269D01*
X004191Y005412D01*
X004210Y005420D01*
X004210Y005540D01*
X004191Y005548D01*
X004048Y005691D01*
X003970Y005879D01*
X003970Y006081D01*
X004048Y006269D01*
X004191Y006412D01*
X004272Y006446D01*
X001688Y006446D01*
X001769Y006412D01*
X001912Y006269D01*
X001990Y006081D01*
X001990Y005879D01*
X001912Y005691D01*
X001769Y005548D01*
X001606Y005480D01*
X001769Y005412D01*
X001912Y005269D01*
X001990Y005081D01*
X001990Y004879D01*
X001912Y004691D01*
X001891Y004670D01*
X002630Y003930D01*
X002630Y002970D01*
X002770Y002830D01*
X002842Y002830D01*
X002865Y002853D01*
X002859Y002856D01*
X002826Y002889D01*
X002802Y002931D01*
X002790Y002976D01*
X002790Y003130D01*
X003370Y003130D01*
X003950Y003130D01*
X003950Y003284D01*
X003938Y003329D01*
X003914Y003371D01*
X003881Y003404D01*
X003875Y003407D01*
X003910Y003442D01*
X003910Y003450D01*
X004330Y003450D01*
X005590Y004710D01*
X006741Y004710D01*
X006744Y004707D01*
X006845Y004665D01*
X006955Y004665D01*
X007056Y004707D01*
X007133Y004784D01*
X007176Y004784D01*
X007146Y004814D02*
X007133Y004784D01*
X007146Y004814D02*
X007450Y004510D01*
X007550Y004410D01*
X007670Y004410D01*
X007710Y004370D01*
X007670Y004370D01*
X007666Y004374D01*
X007624Y004398D01*
X007579Y004410D01*
X007430Y004410D01*
X007430Y003980D01*
X007430Y003980D01*
X007430Y003550D01*
X007579Y003550D01*
X007624Y003562D01*
X007666Y003586D01*
X007670Y003590D01*
X007690Y003590D01*
X007690Y003570D01*
X007670Y003550D01*
X006730Y003550D01*
X006590Y003690D01*
X006490Y003790D01*
X006330Y003790D01*
X006330Y003818D01*
X006268Y003880D01*
X006330Y003942D01*
X006330Y004318D01*
X006248Y004400D01*
X005332Y004400D01*
X005250Y004318D01*
X005250Y004270D01*
X005210Y004270D01*
X005110Y004170D01*
X004870Y003930D01*
X004870Y002290D01*
X004970Y002190D01*
X005170Y001990D01*
X004690Y001990D01*
X003950Y002730D01*
X003910Y002770D01*
X003910Y002818D01*
X003875Y002853D01*
X003881Y002856D01*
X003914Y002889D01*
X003938Y002931D01*
X003950Y002976D01*
X003950Y003130D01*
X003370Y003130D01*
X003370Y003130D01*
X003370Y003130D01*
X002790Y003130D01*
X002790Y003284D01*
X002802Y003329D01*
X002826Y003371D01*
X002859Y003404D01*
X002865Y003407D01*
X002830Y003442D01*
X002830Y003818D01*
X002892Y003880D01*
X002830Y003942D01*
X002830Y004318D01*
X002912Y004400D01*
X003828Y004400D01*
X003910Y004318D01*
X003910Y003942D01*
X003848Y003880D01*
X003910Y003818D01*
X003910Y003790D01*
X004190Y003790D01*
X005110Y004710D01*
X004920Y004710D01*
X004847Y004626D02*
X005025Y004626D01*
X004867Y004467D02*
X002093Y004467D01*
X001935Y004626D02*
X004113Y004626D01*
X004009Y004784D02*
X001951Y004784D01*
X001990Y004943D02*
X003970Y004943D01*
X003978Y005101D02*
X001982Y005101D01*
X001916Y005260D02*
X004044Y005260D01*
X004205Y005418D02*
X001755Y005418D01*
X001798Y005577D02*
X004162Y005577D01*
X004029Y005735D02*
X001931Y005735D01*
X001990Y005894D02*
X003970Y005894D01*
X003970Y006052D02*
X001990Y006052D01*
X001937Y006211D02*
X004023Y006211D01*
X004148Y006369D02*
X001812Y006369D01*
X004812Y006369D02*
X014820Y006369D01*
X010570Y004870D02*
X010570Y002130D01*
X010430Y001990D01*
X007790Y001990D01*
X007850Y002050D01*
X008030Y002230D01*
X008030Y002370D01*
X008030Y002390D01*
X008313Y002390D01*
X008395Y002472D01*
X008395Y003088D01*
X008313Y003170D01*
X008270Y003170D01*
X008270Y003210D01*
X009430Y003210D01*
X009537Y003317D01*
X009548Y003291D01*
X009691Y003148D01*
X009734Y003130D01*
X009586Y003130D01*
X009541Y003118D01*
X009499Y003094D01*
X009466Y003061D01*
X009442Y003019D01*
X009430Y002974D01*
X009430Y002600D01*
X009960Y002600D01*
X009960Y002560D01*
X010000Y002560D01*
X010000Y002600D01*
X010530Y002600D01*
X010530Y002974D01*
X010518Y003019D01*
X010494Y003061D01*
X010461Y003094D01*
X010419Y003118D01*
X010374Y003130D01*
X010226Y003130D01*
X010269Y003148D01*
X010412Y003291D01*
X010490Y003479D01*
X010490Y003681D01*
X010412Y003869D01*
X010269Y004012D01*
X010106Y004080D01*
X010269Y004148D01*
X010412Y004291D01*
X010490Y004479D01*
X010490Y004681D01*
X010412Y004869D01*
X010269Y005012D01*
X010106Y005080D01*
X010269Y005148D01*
X010280Y005159D01*
X010570Y004870D01*
X010570Y004784D02*
X010448Y004784D01*
X010490Y004626D02*
X010570Y004626D01*
X010570Y004467D02*
X010485Y004467D01*
X010420Y004309D02*
X010570Y004309D01*
X010570Y004150D02*
X010271Y004150D01*
X010290Y003992D02*
X010570Y003992D01*
X010570Y003833D02*
X010427Y003833D01*
X010490Y003675D02*
X010570Y003675D01*
X010570Y003516D02*
X010490Y003516D01*
X010440Y003358D02*
X010570Y003358D01*
X010570Y003199D02*
X010320Y003199D01*
X010506Y003041D02*
X010570Y003041D01*
X010570Y002882D02*
X010530Y002882D01*
X010530Y002724D02*
X010570Y002724D01*
X010570Y002565D02*
X010000Y002565D01*
X010000Y002560D02*
X010530Y002560D01*
X010530Y002186D01*
X010518Y002141D01*
X010494Y002099D01*
X010461Y002066D01*
X010419Y002042D01*
X010374Y002030D01*
X010000Y002030D01*
X010000Y002560D01*
X009960Y002560D02*
X009960Y002030D01*
X009586Y002030D01*
X009541Y002042D01*
X009499Y002066D01*
X009466Y002099D01*
X009442Y002141D01*
X009430Y002186D01*
X009430Y002560D01*
X009960Y002560D01*
X009960Y002565D02*
X008395Y002565D01*
X008395Y002724D02*
X009430Y002724D01*
X009430Y002882D02*
X008395Y002882D01*
X008395Y003041D02*
X009454Y003041D01*
X009640Y003199D02*
X008270Y003199D01*
X007930Y003199D02*
X007620Y003199D01*
X007624Y003198D02*
X007579Y003210D01*
X007430Y003210D01*
X007430Y002780D01*
X007430Y002780D01*
X007430Y002350D01*
X007579Y002350D01*
X007624Y002362D01*
X007666Y002386D01*
X007670Y002390D01*
X007690Y002390D01*
X007690Y002370D01*
X007610Y002290D01*
X005350Y002290D01*
X005210Y002430D01*
X005210Y003790D01*
X005306Y003886D01*
X005312Y003880D01*
X005250Y003818D01*
X005250Y003442D01*
X005312Y003380D01*
X005250Y003318D01*
X005250Y002942D01*
X005312Y002880D01*
X005250Y002818D01*
X005250Y002442D01*
X005332Y002360D01*
X006248Y002360D01*
X006300Y002412D01*
X006365Y002385D01*
X006475Y002385D01*
X006576Y002427D01*
X006653Y002504D01*
X006695Y002605D01*
X006695Y002715D01*
X006653Y002816D01*
X006576Y002893D01*
X006475Y002935D01*
X006365Y002935D01*
X006293Y002905D01*
X006330Y002942D01*
X006330Y003318D01*
X006268Y003380D01*
X006330Y003442D01*
X006330Y003450D01*
X006350Y003450D01*
X006590Y003210D01*
X007810Y003210D01*
X007910Y003310D01*
X007930Y003330D01*
X007930Y003170D01*
X007670Y003170D01*
X007666Y003174D01*
X007624Y003198D01*
X007430Y003199D02*
X007430Y003199D01*
X007430Y003210D02*
X007281Y003210D01*
X007236Y003198D01*
X007194Y003174D01*
X007161Y003141D01*
X007137Y003099D01*
X007125Y003054D01*
X007125Y002780D01*
X007430Y002780D01*
X007430Y002780D01*
X007430Y002780D01*
X007430Y003210D01*
X007430Y003041D02*
X007430Y003041D01*
X007430Y002882D02*
X007430Y002882D01*
X007430Y002780D02*
X007125Y002780D01*
X007125Y002506D01*
X007137Y002461D01*
X007161Y002419D01*
X007194Y002386D01*
X007236Y002362D01*
X007281Y002350D01*
X007430Y002350D01*
X007430Y002780D01*
X007430Y002724D02*
X007430Y002724D01*
X007430Y002565D02*
X007430Y002565D01*
X007430Y002407D02*
X007430Y002407D01*
X007174Y002407D02*
X006527Y002407D01*
X006313Y002407D02*
X006294Y002407D01*
X006678Y002565D02*
X007125Y002565D01*
X007125Y002724D02*
X006691Y002724D01*
X006587Y002882D02*
X007125Y002882D01*
X007125Y003041D02*
X006330Y003041D01*
X006330Y003199D02*
X007240Y003199D01*
X007281Y003550D02*
X007430Y003550D01*
X007430Y003980D01*
X007430Y003980D01*
X007430Y003980D01*
X007125Y003980D01*
X007125Y004254D01*
X007137Y004299D01*
X007161Y004341D01*
X007194Y004374D01*
X007236Y004398D01*
X007281Y004410D01*
X007430Y004410D01*
X007430Y003980D01*
X007125Y003980D01*
X007125Y003706D01*
X007137Y003661D01*
X007161Y003619D01*
X007194Y003586D01*
X007236Y003562D01*
X007281Y003550D01*
X007134Y003675D02*
X006606Y003675D01*
X006315Y003833D02*
X007125Y003833D01*
X007125Y003992D02*
X006330Y003992D01*
X006330Y004150D02*
X007125Y004150D01*
X007142Y004309D02*
X006330Y004309D01*
X005506Y004626D02*
X007334Y004626D01*
X007493Y004467D02*
X005347Y004467D01*
X005250Y004309D02*
X005189Y004309D01*
X005090Y004150D02*
X005030Y004150D01*
X004931Y003992D02*
X004872Y003992D01*
X004870Y003833D02*
X004713Y003833D01*
X004870Y003675D02*
X004555Y003675D01*
X004396Y003516D02*
X004870Y003516D01*
X004870Y003358D02*
X003922Y003358D01*
X003950Y003199D02*
X004870Y003199D01*
X004870Y003041D02*
X003950Y003041D01*
X003907Y002882D02*
X004870Y002882D01*
X004870Y002724D02*
X003957Y002724D01*
X004115Y002565D02*
X004870Y002565D01*
X004870Y002407D02*
X004274Y002407D01*
X004432Y002248D02*
X004912Y002248D01*
X005070Y002090D02*
X004591Y002090D01*
X005234Y002407D02*
X005286Y002407D01*
X005250Y002565D02*
X005210Y002565D01*
X005210Y002724D02*
X005250Y002724D01*
X005210Y002882D02*
X005310Y002882D01*
X005250Y003041D02*
X005210Y003041D01*
X005210Y003199D02*
X005250Y003199D01*
X005210Y003358D02*
X005290Y003358D01*
X005250Y003516D02*
X005210Y003516D01*
X005210Y003675D02*
X005250Y003675D01*
X005253Y003833D02*
X005265Y003833D01*
X004708Y004309D02*
X003910Y004309D01*
X003910Y004150D02*
X004550Y004150D01*
X004391Y003992D02*
X003910Y003992D01*
X003895Y003833D02*
X004233Y003833D01*
X002845Y003833D02*
X002630Y003833D01*
X002630Y003675D02*
X002830Y003675D01*
X002830Y003516D02*
X002630Y003516D01*
X002630Y003358D02*
X002818Y003358D01*
X002790Y003199D02*
X002630Y003199D01*
X002630Y003041D02*
X002790Y003041D01*
X002833Y002882D02*
X002718Y002882D01*
X001780Y002407D02*
X001780Y002407D01*
X001780Y002248D02*
X001780Y002248D01*
X001780Y002090D02*
X001780Y002090D01*
X001780Y001931D02*
X001780Y001931D01*
X001780Y001773D02*
X001780Y001773D01*
X001780Y001614D02*
X001780Y001614D01*
X002290Y003675D02*
X001010Y003675D01*
X001010Y003833D02*
X002247Y003833D01*
X002088Y003992D02*
X001010Y003992D01*
X001010Y004150D02*
X001930Y004150D01*
X001771Y004309D02*
X001010Y004309D01*
X001010Y004467D02*
X001613Y004467D01*
X001113Y004626D02*
X001010Y004626D01*
X002252Y004309D02*
X002830Y004309D01*
X002830Y004150D02*
X002410Y004150D01*
X002569Y003992D02*
X002830Y003992D01*
X004755Y005418D02*
X005164Y005418D01*
X005068Y005577D02*
X004798Y005577D01*
X004931Y005735D02*
X005030Y005735D01*
X005041Y005894D02*
X004990Y005894D01*
X004990Y006052D02*
X005101Y006052D01*
X005237Y006211D02*
X004937Y006211D01*
X005560Y006211D02*
X005600Y006211D01*
X006092Y005577D02*
X006112Y005577D01*
X006118Y005418D02*
X005996Y005418D01*
X005959Y005260D02*
X005758Y005260D01*
X007339Y005101D02*
X009804Y005101D01*
X009621Y004943D02*
X007498Y004943D01*
X007656Y004784D02*
X009512Y004784D01*
X009470Y004626D02*
X007935Y004626D01*
X008093Y004467D02*
X009475Y004467D01*
X009540Y004309D02*
X008374Y004309D01*
X008395Y004150D02*
X009689Y004150D01*
X009670Y003992D02*
X008395Y003992D01*
X008395Y003833D02*
X009533Y003833D01*
X009470Y003675D02*
X008395Y003675D01*
X007430Y003675D02*
X007430Y003675D01*
X007430Y003833D02*
X007430Y003833D01*
X007430Y003992D02*
X007430Y003992D01*
X007430Y004150D02*
X007430Y004150D01*
X007430Y004309D02*
X007430Y004309D01*
X006442Y003358D02*
X006290Y003358D01*
X008030Y002248D02*
X009430Y002248D01*
X009430Y002407D02*
X008329Y002407D01*
X007890Y002090D02*
X009476Y002090D01*
X009960Y002090D02*
X010000Y002090D01*
X010000Y002248D02*
X009960Y002248D01*
X009960Y002407D02*
X010000Y002407D01*
X010530Y002407D02*
X010570Y002407D01*
X010570Y002248D02*
X010530Y002248D01*
X010529Y002090D02*
X010484Y002090D01*
X010497Y004943D02*
X010339Y004943D01*
X010339Y005101D02*
X010156Y005101D01*
D16*
X006780Y004180D03*
X006980Y002980D03*
D17*
X006420Y002660D02*
X005820Y002660D01*
X005790Y002630D01*
X005280Y002120D02*
X005040Y002360D01*
X005040Y003860D01*
X005280Y004100D01*
X005760Y004100D01*
X005790Y004130D01*
X005790Y003630D02*
X005820Y003620D01*
X006420Y003620D01*
X006660Y003380D01*
X007740Y003380D01*
X007860Y003500D01*
X007860Y003680D01*
X007800Y003740D01*
X007800Y003980D01*
X007780Y003980D01*
X008100Y003980D02*
X008100Y004220D01*
X007740Y004580D01*
X007620Y004580D01*
X006600Y005600D01*
X006600Y005660D01*
X006580Y005780D01*
X006600Y005780D01*
X006600Y005660D01*
X005940Y005000D01*
X005220Y005000D01*
X005100Y004880D01*
X004920Y004880D01*
X004860Y004940D01*
X004500Y004940D01*
X004480Y004980D01*
X004440Y005000D01*
X004380Y005060D01*
X004380Y005480D01*
X004440Y005540D01*
X004440Y005960D01*
X004480Y005980D01*
X005520Y004880D02*
X006840Y004880D01*
X006900Y004940D01*
X005520Y004880D02*
X004260Y003620D01*
X003420Y003620D01*
X003370Y003630D01*
X002460Y003860D02*
X001500Y004820D01*
X001500Y004940D01*
X001480Y004980D01*
X002460Y003860D02*
X002460Y002900D01*
X002700Y002660D01*
X003360Y002660D01*
X003370Y002630D01*
X003420Y002660D01*
X003780Y002660D01*
X004620Y001820D01*
X010500Y001820D01*
X010740Y002060D01*
X010740Y004940D01*
X010140Y005540D01*
X010020Y005540D01*
X009980Y005580D01*
X008130Y003980D02*
X008100Y003980D01*
X008100Y003380D01*
X009360Y003380D01*
X009480Y003500D01*
X009900Y003500D01*
X009980Y003580D01*
X008100Y003380D02*
X008100Y002780D01*
X008130Y002780D01*
X007800Y002780D02*
X007800Y002540D01*
X007860Y002480D01*
X007860Y002300D01*
X007680Y002120D01*
X005280Y002120D01*
X007780Y002780D02*
X007800Y002780D01*
D18*
X006420Y002660D03*
X006900Y004940D03*
M02*
