G75*
%MOIN*%
%OFA0B0*%
%FSLAX24Y24*%
%IPPOS*%
%LPD*%
%AMOC8*
5,1,8,0,0,1.08239X$1,22.5*
%
%ADD10C,0.0000*%
%ADD11C,0.0060*%
%ADD12C,0.0040*%
%ADD13C,0.0050*%
D10*
X005780Y001780D02*
X005780Y009276D01*
X036380Y009276D01*
X036380Y001780D01*
X036450Y001780D01*
X036380Y001780D02*
X005780Y001780D01*
X036380Y009276D02*
X036450Y009276D01*
D11*
X026350Y004451D02*
X026030Y004451D01*
X025923Y004344D01*
X025923Y004130D01*
X026030Y004024D01*
X026350Y004024D01*
X026136Y004024D02*
X025923Y003810D01*
X025705Y003917D02*
X025705Y004130D01*
X025599Y004237D01*
X025385Y004237D01*
X025278Y004130D01*
X025278Y004024D01*
X025705Y004024D01*
X025705Y003917D02*
X025599Y003810D01*
X025385Y003810D01*
X025061Y003810D02*
X024847Y003810D01*
X024954Y003810D02*
X024954Y004451D01*
X025061Y004451D01*
X024524Y004237D02*
X024311Y004237D01*
X024204Y004130D01*
X024204Y003810D01*
X024524Y003810D01*
X024631Y003917D01*
X024524Y004024D01*
X024204Y004024D01*
X023987Y003917D02*
X023880Y003810D01*
X023560Y003810D01*
X023560Y003703D02*
X023666Y003596D01*
X023773Y003596D01*
X023560Y003703D02*
X023560Y004237D01*
X023987Y004237D02*
X023987Y003917D01*
X022698Y003810D02*
X022484Y003810D01*
X022591Y003810D02*
X022591Y004451D01*
X022698Y004451D02*
X022484Y004451D01*
X022268Y004237D02*
X021948Y004237D01*
X021841Y004130D01*
X021841Y003810D01*
X021517Y003917D02*
X021410Y003810D01*
X021517Y003917D02*
X021517Y004344D01*
X021623Y004237D02*
X021410Y004237D01*
X021194Y004130D02*
X021087Y004237D01*
X020873Y004237D01*
X020767Y004130D01*
X020767Y004024D01*
X021194Y004024D01*
X021194Y004130D02*
X021194Y003917D01*
X021087Y003810D01*
X020873Y003810D01*
X020549Y003810D02*
X020549Y004237D01*
X020549Y004024D02*
X020336Y004237D01*
X020229Y004237D01*
X020012Y004130D02*
X019798Y004130D01*
X019905Y004344D02*
X019798Y004451D01*
X019905Y004344D02*
X019905Y003810D01*
X019582Y003917D02*
X019475Y004024D01*
X019155Y004024D01*
X019155Y004130D02*
X019155Y003810D01*
X019475Y003810D01*
X019582Y003917D01*
X019262Y004237D02*
X019155Y004130D01*
X019262Y004237D02*
X019475Y004237D01*
X018938Y004130D02*
X018938Y003917D01*
X018831Y003810D01*
X018511Y003810D01*
X018293Y003917D02*
X018293Y004130D01*
X018186Y004237D01*
X017973Y004237D01*
X017866Y004130D01*
X017866Y004024D01*
X018293Y004024D01*
X018293Y003917D02*
X018186Y003810D01*
X017973Y003810D01*
X018511Y004237D02*
X018831Y004237D01*
X018938Y004130D01*
X022268Y004237D02*
X022268Y003810D01*
X026350Y003810D02*
X026350Y004451D01*
D12*
X026360Y002920D02*
X026100Y002920D01*
X026013Y002834D01*
X026013Y002660D01*
X026100Y002573D01*
X026360Y002573D01*
X026360Y002400D02*
X026360Y002920D01*
X025844Y002660D02*
X025758Y002747D01*
X025584Y002747D01*
X025497Y002660D01*
X025497Y002573D01*
X025844Y002573D01*
X025844Y002487D02*
X025844Y002660D01*
X025844Y002487D02*
X025758Y002400D01*
X025584Y002400D01*
X025329Y002487D02*
X025329Y002660D01*
X025242Y002747D01*
X025068Y002747D01*
X024982Y002660D01*
X024982Y002573D01*
X025329Y002573D01*
X025329Y002487D02*
X025242Y002400D01*
X025068Y002400D01*
X024726Y002400D02*
X024726Y002834D01*
X024640Y002920D01*
X024640Y002660D02*
X024813Y002660D01*
X024469Y002660D02*
X024383Y002573D01*
X024209Y002573D01*
X024122Y002487D01*
X024209Y002400D01*
X024469Y002400D01*
X023954Y002487D02*
X023954Y002660D01*
X023867Y002747D01*
X023693Y002747D01*
X023607Y002660D01*
X023607Y002573D01*
X023954Y002573D01*
X023954Y002487D02*
X023867Y002400D01*
X023693Y002400D01*
X023438Y002400D02*
X023438Y002747D01*
X023178Y002747D01*
X023091Y002660D01*
X023091Y002400D01*
X022922Y002400D02*
X022662Y002400D01*
X022575Y002487D01*
X022662Y002573D01*
X022836Y002573D01*
X022922Y002660D01*
X022836Y002747D01*
X022575Y002747D01*
X022407Y002660D02*
X022320Y002747D01*
X022147Y002747D01*
X022060Y002660D01*
X022060Y002573D01*
X022407Y002573D01*
X022407Y002487D02*
X022407Y002660D01*
X022407Y002487D02*
X022320Y002400D01*
X022147Y002400D01*
X021891Y002400D02*
X021891Y002487D01*
X021804Y002487D01*
X021804Y002400D01*
X021891Y002400D01*
X021633Y002487D02*
X021547Y002400D01*
X021286Y002400D01*
X021118Y002487D02*
X021031Y002400D01*
X020857Y002400D01*
X020771Y002487D01*
X020771Y002660D01*
X020857Y002747D01*
X021031Y002747D01*
X021118Y002660D01*
X021118Y002487D01*
X021286Y002747D02*
X021547Y002747D01*
X021633Y002660D01*
X021633Y002487D01*
X020602Y002400D02*
X020602Y002747D01*
X020515Y002747D01*
X020429Y002660D01*
X020342Y002747D01*
X020255Y002660D01*
X020255Y002400D01*
X020429Y002400D02*
X020429Y002660D01*
X024122Y002747D02*
X024383Y002747D01*
X024469Y002660D01*
X026013Y002400D02*
X026187Y002573D01*
D13*
X033117Y002714D02*
X033219Y002816D01*
X033422Y002816D01*
X033524Y002714D01*
X033524Y002307D01*
X033422Y002205D01*
X033219Y002205D01*
X033117Y002307D01*
X034333Y002409D02*
X034333Y002816D01*
X034740Y002816D02*
X034740Y002409D01*
X034536Y002205D01*
X034333Y002409D01*
X034940Y002205D02*
X035347Y002205D01*
X035347Y002816D01*
X034940Y002816D01*
X035144Y002510D02*
X035347Y002510D01*
X035548Y002510D02*
X035650Y002409D01*
X035955Y002409D01*
X035751Y002409D02*
X035548Y002205D01*
X035955Y002205D02*
X035955Y002816D01*
X035650Y002816D01*
X035548Y002714D01*
X035548Y002510D01*
M02*
