G75*
%MOIN*%
%OFA0B0*%
%FSLAX24Y24*%
%IPPOS*%
%LPD*%
%AMOC8*
5,1,8,0,0,1.08239X$1,22.5*
%
%ADD10C,0.0000*%
%ADD11C,0.0040*%
%ADD12C,0.0060*%
%ADD13C,0.0030*%
%ADD14R,0.3200X0.2800*%
%ADD15C,0.0080*%
%ADD16C,0.0050*%
%ADD17C,0.0010*%
D10*
X005780Y001780D02*
X005780Y009276D01*
X036380Y009276D01*
X036380Y001780D01*
X036450Y001780D01*
X036380Y001780D02*
X005780Y001780D01*
X036380Y009276D02*
X036450Y009276D01*
D11*
X032590Y005310D02*
X032590Y004850D01*
X032897Y004850D01*
X032743Y004510D02*
X032897Y004357D01*
X032897Y004050D01*
X032897Y004280D02*
X032590Y004280D01*
X032590Y004357D02*
X032590Y004050D01*
X032436Y004127D02*
X032436Y004434D01*
X032359Y004510D01*
X032129Y004510D01*
X032129Y004050D01*
X032359Y004050D01*
X032436Y004127D01*
X031976Y004127D02*
X031976Y004203D01*
X031899Y004280D01*
X031746Y004280D01*
X031669Y004357D01*
X031669Y004434D01*
X031746Y004510D01*
X031899Y004510D01*
X031976Y004434D01*
X031976Y004127D02*
X031899Y004050D01*
X031746Y004050D01*
X031669Y004127D01*
X031669Y003510D02*
X031669Y003203D01*
X031822Y003050D01*
X031976Y003203D01*
X031976Y003510D01*
X032129Y003434D02*
X032129Y003127D01*
X032206Y003050D01*
X032359Y003050D01*
X032436Y003127D01*
X032590Y003127D02*
X032666Y003050D01*
X032820Y003050D01*
X032897Y003127D01*
X032590Y003127D02*
X032590Y003434D01*
X032666Y003510D01*
X032820Y003510D01*
X032897Y003434D01*
X032436Y003434D02*
X032359Y003510D01*
X032206Y003510D01*
X032129Y003434D01*
X032129Y002710D02*
X032436Y002250D01*
X032436Y002710D01*
X032590Y002710D02*
X032820Y002710D01*
X032897Y002634D01*
X032897Y002327D01*
X032820Y002250D01*
X032590Y002250D01*
X032590Y002710D01*
X032129Y002710D02*
X032129Y002250D01*
X031976Y002327D02*
X031976Y002480D01*
X031822Y002480D01*
X031669Y002327D02*
X031746Y002250D01*
X031899Y002250D01*
X031976Y002327D01*
X031669Y002327D02*
X031669Y002634D01*
X031746Y002710D01*
X031899Y002710D01*
X031976Y002634D01*
X032590Y004357D02*
X032743Y004510D01*
X032359Y004850D02*
X032436Y004927D01*
X032359Y004850D02*
X032206Y004850D01*
X032129Y004927D01*
X032129Y005234D01*
X032206Y005310D01*
X032359Y005310D01*
X032436Y005234D01*
X031976Y005234D02*
X031899Y005310D01*
X031746Y005310D01*
X031669Y005234D01*
X031669Y005157D01*
X031746Y005080D01*
X031899Y005080D01*
X031976Y005003D01*
X031976Y004927D01*
X031899Y004850D01*
X031746Y004850D01*
X031669Y004927D01*
X025848Y004030D02*
X025848Y003800D01*
X025695Y003800D02*
X025695Y004030D01*
X025771Y004107D01*
X025848Y004030D01*
X025695Y004030D02*
X025618Y004107D01*
X025541Y004107D01*
X025541Y003800D01*
X025388Y003877D02*
X025311Y003800D01*
X025157Y003800D01*
X025081Y003877D01*
X025081Y004030D01*
X025157Y004107D01*
X025311Y004107D01*
X025388Y004030D01*
X025388Y003877D01*
X024927Y003800D02*
X024697Y003800D01*
X024620Y003877D01*
X024620Y004030D01*
X024697Y004107D01*
X024927Y004107D01*
X024467Y003877D02*
X024467Y003800D01*
X024390Y003800D01*
X024390Y003877D01*
X024467Y003877D01*
X024237Y003953D02*
X023930Y003953D01*
X023930Y003877D02*
X023930Y004030D01*
X024006Y004107D01*
X024160Y004107D01*
X024237Y004030D01*
X024237Y003953D01*
X024160Y003800D02*
X024006Y003800D01*
X023930Y003877D01*
X023776Y003877D02*
X023699Y003800D01*
X023469Y003800D01*
X023316Y003800D02*
X023316Y004030D01*
X023239Y004107D01*
X023009Y004107D01*
X023009Y003800D01*
X022855Y003953D02*
X022548Y003953D01*
X022548Y003877D02*
X022548Y004030D01*
X022625Y004107D01*
X022779Y004107D01*
X022855Y004030D01*
X022855Y003953D01*
X022779Y003800D02*
X022625Y003800D01*
X022548Y003877D01*
X022395Y003877D02*
X022318Y003953D01*
X022165Y003953D01*
X022088Y004030D01*
X022165Y004107D01*
X022395Y004107D01*
X022395Y003877D02*
X022318Y003800D01*
X022088Y003800D01*
X021858Y003800D02*
X021858Y004184D01*
X021935Y004260D01*
X021935Y004030D02*
X021781Y004030D01*
X021628Y004030D02*
X021628Y003953D01*
X021321Y003953D01*
X021321Y003877D02*
X021321Y004030D01*
X021398Y004107D01*
X021551Y004107D01*
X021628Y004030D01*
X021398Y003800D02*
X021321Y003877D01*
X021398Y003800D02*
X021551Y003800D01*
X021167Y003953D02*
X020860Y003953D01*
X020860Y003877D02*
X020860Y004030D01*
X020937Y004107D01*
X021091Y004107D01*
X021167Y004030D01*
X021167Y003953D01*
X021091Y003800D02*
X020937Y003800D01*
X020860Y003877D01*
X020707Y003800D02*
X020553Y003953D01*
X020630Y003953D02*
X020400Y003953D01*
X020400Y003800D02*
X020400Y004260D01*
X020630Y004260D01*
X020707Y004184D01*
X020707Y004030D01*
X020630Y003953D01*
X023469Y004030D02*
X023546Y003953D01*
X023699Y003953D01*
X023776Y003877D01*
X023776Y004107D02*
X023546Y004107D01*
X023469Y004030D01*
X022724Y006300D02*
X022417Y006300D01*
X022571Y006300D02*
X022571Y006760D01*
X022417Y006607D01*
X022264Y006684D02*
X022187Y006760D01*
X022034Y006760D01*
X021957Y006684D01*
X021957Y006377D01*
X022034Y006300D01*
X022187Y006300D01*
X022264Y006377D01*
X021803Y006300D02*
X021650Y006300D01*
X021727Y006300D02*
X021727Y006760D01*
X021803Y006760D02*
X021650Y006760D01*
X015074Y005507D02*
X014998Y005507D01*
X014767Y005507D01*
X014767Y005353D02*
X015074Y005353D01*
X014998Y005200D02*
X014998Y005660D01*
X014844Y005660D02*
X014844Y005200D01*
X014614Y005277D02*
X014614Y005584D01*
X014537Y005660D01*
X014307Y005660D01*
X014307Y005200D01*
X014537Y005200D01*
X014614Y005277D01*
X014153Y005200D02*
X014000Y005200D01*
X014077Y005200D02*
X014077Y005660D01*
X014153Y005660D02*
X014000Y005660D01*
X009897Y005527D02*
X009897Y005834D01*
X009820Y005910D01*
X009590Y005910D01*
X009590Y005450D01*
X009820Y005450D01*
X009897Y005527D01*
X009436Y005450D02*
X009436Y005910D01*
X009129Y005910D02*
X009436Y005450D01*
X009129Y005450D02*
X009129Y005910D01*
X008976Y005834D02*
X008899Y005910D01*
X008746Y005910D01*
X008669Y005834D01*
X008669Y005527D01*
X008746Y005450D01*
X008899Y005450D01*
X008976Y005527D01*
X008976Y005680D01*
X008822Y005680D01*
X008669Y004910D02*
X008669Y004603D01*
X008822Y004450D01*
X008976Y004603D01*
X008976Y004910D01*
X009129Y004834D02*
X009129Y004527D01*
X009206Y004450D01*
X009359Y004450D01*
X009436Y004527D01*
X009590Y004527D02*
X009666Y004450D01*
X009820Y004450D01*
X009897Y004527D01*
X009897Y004834D02*
X009820Y004910D01*
X009666Y004910D01*
X009590Y004834D01*
X009590Y004527D01*
X009436Y004834D02*
X009359Y004910D01*
X009206Y004910D01*
X009129Y004834D01*
X009129Y003910D02*
X009359Y003910D01*
X009436Y003834D01*
X009436Y003527D01*
X009359Y003450D01*
X009129Y003450D01*
X009129Y003910D01*
X008976Y003834D02*
X008899Y003910D01*
X008746Y003910D01*
X008669Y003834D01*
X008669Y003757D01*
X008746Y003680D01*
X008899Y003680D01*
X008976Y003603D01*
X008976Y003527D01*
X008899Y003450D01*
X008746Y003450D01*
X008669Y003527D01*
X009590Y003450D02*
X009590Y003757D01*
X009743Y003910D01*
X009897Y003757D01*
X009897Y003450D01*
X009897Y003680D02*
X009590Y003680D01*
X009590Y002910D02*
X009590Y002450D01*
X009897Y002450D01*
X009436Y002527D02*
X009359Y002450D01*
X009206Y002450D01*
X009129Y002527D01*
X009129Y002834D01*
X009206Y002910D01*
X009359Y002910D01*
X009436Y002834D01*
X008976Y002834D02*
X008899Y002910D01*
X008746Y002910D01*
X008669Y002834D01*
X008669Y002757D01*
X008746Y002680D01*
X008899Y002680D01*
X008976Y002603D01*
X008976Y002527D01*
X008899Y002450D01*
X008746Y002450D01*
X008669Y002527D01*
D12*
X007680Y003980D02*
X006680Y003980D01*
X006663Y003982D01*
X006646Y003986D01*
X006630Y003993D01*
X006616Y004003D01*
X006603Y004016D01*
X006593Y004030D01*
X006586Y004046D01*
X006582Y004063D01*
X006580Y004080D01*
X006580Y004680D01*
X006582Y004697D01*
X006586Y004714D01*
X006593Y004730D01*
X006603Y004744D01*
X006616Y004757D01*
X006630Y004767D01*
X006646Y004774D01*
X006663Y004778D01*
X006680Y004780D01*
X007680Y004780D01*
X007697Y004778D01*
X007714Y004774D01*
X007730Y004767D01*
X007744Y004757D01*
X007757Y004744D01*
X007767Y004730D01*
X007774Y004714D01*
X007778Y004697D01*
X007780Y004680D01*
X007780Y004080D01*
X007778Y004063D01*
X007774Y004046D01*
X007767Y004030D01*
X007757Y004016D01*
X007744Y004003D01*
X007730Y003993D01*
X007714Y003986D01*
X007697Y003982D01*
X007680Y003980D01*
X013862Y007317D02*
X013862Y007744D01*
X013649Y007530D02*
X014076Y007530D01*
X014237Y008530D02*
X013810Y008530D01*
X017277Y007102D02*
X017277Y006675D01*
X017491Y006888D02*
X017064Y006888D01*
X017580Y007080D02*
X017580Y006080D01*
X017582Y006063D01*
X017586Y006046D01*
X017593Y006030D01*
X017603Y006016D01*
X017616Y006003D01*
X017630Y005993D01*
X017646Y005986D01*
X017663Y005982D01*
X017680Y005980D01*
X018280Y005980D01*
X018297Y005982D01*
X018314Y005986D01*
X018330Y005993D01*
X018344Y006003D01*
X018357Y006016D01*
X018367Y006030D01*
X018374Y006046D01*
X018378Y006063D01*
X018380Y006080D01*
X018380Y007080D01*
X018378Y007097D01*
X018374Y007114D01*
X018367Y007130D01*
X018357Y007144D01*
X018344Y007157D01*
X018330Y007167D01*
X018314Y007174D01*
X018297Y007178D01*
X018280Y007180D01*
X017680Y007180D01*
X017663Y007178D01*
X017646Y007174D01*
X017630Y007167D01*
X017616Y007157D01*
X017603Y007144D01*
X017593Y007130D01*
X017586Y007114D01*
X017582Y007097D01*
X017580Y007080D01*
X017680Y007580D02*
X018280Y007580D01*
X018297Y007582D01*
X018314Y007586D01*
X018330Y007593D01*
X018344Y007603D01*
X018357Y007616D01*
X018367Y007630D01*
X018374Y007646D01*
X018378Y007663D01*
X018380Y007680D01*
X018380Y008680D01*
X018378Y008697D01*
X018374Y008714D01*
X018367Y008730D01*
X018357Y008744D01*
X018344Y008757D01*
X018330Y008767D01*
X018314Y008774D01*
X018297Y008778D01*
X018280Y008780D01*
X017680Y008780D01*
X017663Y008778D01*
X017646Y008774D01*
X017630Y008767D01*
X017616Y008757D01*
X017603Y008744D01*
X017593Y008730D01*
X017586Y008714D01*
X017582Y008697D01*
X017580Y008680D01*
X017580Y007680D01*
X017582Y007663D01*
X017586Y007646D01*
X017593Y007630D01*
X017603Y007616D01*
X017616Y007603D01*
X017630Y007593D01*
X017646Y007586D01*
X017663Y007582D01*
X017680Y007580D01*
X017238Y006227D02*
X016811Y006227D01*
X017680Y005580D02*
X018280Y005580D01*
X018297Y005578D01*
X018314Y005574D01*
X018330Y005567D01*
X018344Y005557D01*
X018357Y005544D01*
X018367Y005530D01*
X018374Y005514D01*
X018378Y005497D01*
X018380Y005480D01*
X018380Y004480D01*
X018378Y004463D01*
X018374Y004446D01*
X018367Y004430D01*
X018357Y004416D01*
X018344Y004403D01*
X018330Y004393D01*
X018314Y004386D01*
X018297Y004382D01*
X018280Y004380D01*
X017680Y004380D01*
X017663Y004382D01*
X017646Y004386D01*
X017630Y004393D01*
X017616Y004403D01*
X017603Y004416D01*
X017593Y004430D01*
X017586Y004446D01*
X017582Y004463D01*
X017580Y004480D01*
X017580Y005480D01*
X017582Y005497D01*
X017586Y005514D01*
X017593Y005530D01*
X017603Y005544D01*
X017616Y005557D01*
X017630Y005567D01*
X017646Y005574D01*
X017663Y005578D01*
X017680Y005580D01*
X019210Y003051D02*
X019530Y003051D01*
X019637Y002944D01*
X019637Y002730D01*
X019530Y002624D01*
X019210Y002624D01*
X019424Y002624D02*
X019637Y002410D01*
X019855Y002517D02*
X019961Y002410D01*
X020175Y002410D01*
X020499Y002410D02*
X020713Y002410D01*
X020606Y002410D02*
X020606Y003051D01*
X020499Y003051D01*
X020282Y002730D02*
X020175Y002837D01*
X019961Y002837D01*
X019855Y002730D01*
X019855Y002517D01*
X019855Y002624D02*
X020282Y002624D01*
X020282Y002730D01*
X020929Y002517D02*
X021036Y002410D01*
X021356Y002410D01*
X021356Y002730D01*
X021249Y002837D01*
X021036Y002837D01*
X021036Y002624D02*
X021356Y002624D01*
X021573Y002517D02*
X021680Y002410D01*
X022000Y002410D01*
X022000Y002303D02*
X021894Y002196D01*
X021787Y002196D01*
X022000Y002303D02*
X022000Y002837D01*
X021573Y002837D02*
X021573Y002517D01*
X021036Y002624D02*
X020929Y002517D01*
X019210Y002410D02*
X019210Y003051D01*
X022862Y003051D02*
X023076Y003051D01*
X022969Y003051D02*
X022969Y002410D01*
X022862Y002410D02*
X023076Y002410D01*
X023292Y002410D02*
X023292Y002837D01*
X023612Y002837D01*
X023719Y002730D01*
X023719Y002410D01*
X024043Y002517D02*
X024150Y002410D01*
X024043Y002517D02*
X024043Y002944D01*
X023937Y002837D02*
X024150Y002837D01*
X024366Y002730D02*
X024473Y002837D01*
X024687Y002837D01*
X024793Y002730D01*
X024793Y002624D01*
X024366Y002624D01*
X024366Y002730D02*
X024366Y002517D01*
X024473Y002410D01*
X024687Y002410D01*
X025011Y002410D02*
X025011Y002837D01*
X025224Y002837D02*
X025331Y002837D01*
X025224Y002837D02*
X025011Y002624D01*
X025548Y002730D02*
X025762Y002730D01*
X025655Y002944D02*
X025762Y003051D01*
X025655Y002944D02*
X025655Y002410D01*
X025978Y002517D02*
X026085Y002624D01*
X026405Y002624D01*
X026405Y002730D02*
X026405Y002410D01*
X026085Y002410D01*
X025978Y002517D01*
X026298Y002837D02*
X026405Y002730D01*
X026298Y002837D02*
X026085Y002837D01*
X026622Y002730D02*
X026622Y002517D01*
X026729Y002410D01*
X027049Y002410D01*
X027267Y002517D02*
X027267Y002730D01*
X027374Y002837D01*
X027587Y002837D01*
X027694Y002730D01*
X027694Y002624D01*
X027267Y002624D01*
X027267Y002517D02*
X027374Y002410D01*
X027587Y002410D01*
X027049Y002837D02*
X026729Y002837D01*
X026622Y002730D01*
D13*
X026895Y003606D02*
X026895Y003751D01*
X026943Y003799D01*
X027040Y003799D01*
X027088Y003751D01*
X027088Y003606D01*
X027088Y003702D02*
X027185Y003799D01*
X027185Y003900D02*
X027185Y004094D01*
X027185Y003997D02*
X026895Y003997D01*
X026992Y003900D01*
X026895Y003606D02*
X027185Y003606D01*
X028495Y003606D02*
X028495Y003751D01*
X028543Y003799D01*
X028640Y003799D01*
X028688Y003751D01*
X028688Y003606D01*
X028688Y003702D02*
X028785Y003799D01*
X028785Y003900D02*
X028592Y004094D01*
X028543Y004094D01*
X028495Y004045D01*
X028495Y003949D01*
X028543Y003900D01*
X028785Y003900D02*
X028785Y004094D01*
X028785Y003606D02*
X028495Y003606D01*
X024567Y003637D02*
X024519Y003685D01*
X024422Y003685D01*
X024374Y003637D01*
X024374Y003443D01*
X024422Y003395D01*
X024519Y003395D01*
X024567Y003443D01*
X023978Y003492D02*
X023978Y003685D01*
X023978Y003492D02*
X023881Y003395D01*
X023784Y003492D01*
X023784Y003685D01*
X023683Y003685D02*
X023490Y003685D01*
X023490Y003395D01*
X023683Y003395D01*
X023586Y003540D02*
X023490Y003540D01*
X023388Y003540D02*
X023340Y003492D01*
X023195Y003492D01*
X023292Y003492D02*
X023388Y003395D01*
X023388Y003540D02*
X023388Y003637D01*
X023340Y003685D01*
X023195Y003685D01*
X023195Y003395D01*
X017265Y004895D02*
X017072Y004895D01*
X016975Y004992D01*
X017072Y005088D01*
X017265Y005088D01*
X017265Y005190D02*
X017072Y005383D01*
X017023Y005383D01*
X016975Y005335D01*
X016975Y005238D01*
X017023Y005190D01*
X017120Y005088D02*
X017120Y004895D01*
X017265Y005190D02*
X017265Y005383D01*
X017265Y007895D02*
X017072Y007895D01*
X016975Y007992D01*
X017072Y008088D01*
X017265Y008088D01*
X017217Y008190D02*
X017023Y008383D01*
X017217Y008383D01*
X017265Y008335D01*
X017265Y008238D01*
X017217Y008190D01*
X017023Y008190D01*
X016975Y008238D01*
X016975Y008335D01*
X017023Y008383D01*
X017120Y008088D02*
X017120Y007895D01*
X014995Y007976D02*
X014801Y007976D01*
X014898Y007976D02*
X014898Y008266D01*
X014801Y008169D01*
X014700Y008218D02*
X014652Y008266D01*
X014555Y008266D01*
X014506Y008218D01*
X014506Y008024D01*
X014555Y007976D01*
X014652Y007976D01*
X014700Y008024D01*
X034595Y008657D02*
X034657Y008595D01*
X034780Y008595D01*
X034842Y008657D01*
X034842Y008780D01*
X034718Y008780D01*
X034595Y008657D02*
X034595Y008904D01*
X034657Y008965D01*
X034780Y008965D01*
X034842Y008904D01*
X034963Y008965D02*
X035210Y008595D01*
X035210Y008965D01*
X035332Y008965D02*
X035517Y008965D01*
X035579Y008904D01*
X035579Y008657D01*
X035517Y008595D01*
X035332Y008595D01*
X035332Y008965D01*
X034963Y008965D02*
X034963Y008595D01*
D14*
X014380Y003580D03*
D15*
X011680Y003330D02*
X011430Y003080D01*
X011680Y002830D01*
X011680Y002330D01*
X011430Y002080D01*
X010930Y002080D01*
X010680Y002330D01*
X010680Y002830D01*
X010930Y003080D01*
X010680Y003330D01*
X010680Y003830D01*
X010930Y004080D01*
X010680Y004330D01*
X010680Y004830D01*
X010930Y005080D01*
X010680Y005330D01*
X010680Y005830D01*
X010930Y006080D01*
X011430Y006080D01*
X011680Y005830D01*
X011680Y005330D01*
X011430Y005080D01*
X011680Y004830D01*
X011680Y004330D01*
X011430Y004080D01*
X011680Y003830D01*
X011680Y003330D01*
X015080Y006680D02*
X015080Y008680D01*
X016080Y008680D01*
X016080Y006680D01*
X015080Y006680D01*
X013480Y007130D02*
X013230Y006880D01*
X012730Y006880D01*
X012480Y007130D01*
X012480Y007630D01*
X012730Y007880D01*
X012480Y008130D01*
X012480Y008630D01*
X012730Y008880D01*
X013230Y008880D01*
X013480Y008630D01*
X013480Y008130D01*
X013230Y007880D01*
X013480Y007630D01*
X013480Y007130D01*
X015330Y007680D02*
X015830Y007680D01*
X011480Y007630D02*
X011480Y007130D01*
X011230Y006880D01*
X010730Y006880D01*
X010480Y007130D01*
X010480Y007630D01*
X010730Y007880D01*
X010480Y008130D01*
X010480Y008630D01*
X010730Y008880D01*
X011230Y008880D01*
X011480Y008630D01*
X011480Y008130D01*
X011230Y007880D01*
X011480Y007630D01*
X009680Y007730D02*
X009430Y007480D01*
X008930Y007480D01*
X008680Y007730D01*
X008430Y007480D01*
X007930Y007480D01*
X007680Y007730D01*
X007430Y007480D01*
X006930Y007480D01*
X006680Y007730D01*
X006680Y008230D01*
X006930Y008480D01*
X007430Y008480D01*
X007680Y008230D01*
X007930Y008480D01*
X008430Y008480D01*
X008680Y008230D01*
X008930Y008480D01*
X009430Y008480D01*
X009680Y008230D01*
X009680Y007730D01*
X025680Y007730D02*
X025930Y007480D01*
X026430Y007480D01*
X026680Y007730D01*
X026930Y007480D01*
X027430Y007480D01*
X027680Y007730D01*
X027930Y007480D01*
X028430Y007480D01*
X028680Y007730D01*
X028930Y007480D01*
X029430Y007480D01*
X029680Y007730D01*
X029930Y007480D01*
X030430Y007480D01*
X030680Y007730D01*
X030930Y007480D01*
X031430Y007480D01*
X031680Y007730D01*
X031930Y007480D01*
X032430Y007480D01*
X032680Y007730D01*
X032930Y007480D01*
X033430Y007480D01*
X033680Y007730D01*
X033930Y007480D01*
X034430Y007480D01*
X034680Y007730D01*
X034930Y007480D01*
X035430Y007480D01*
X035680Y007730D01*
X035680Y008230D01*
X035430Y008480D01*
X034930Y008480D01*
X034680Y008230D01*
X034430Y008480D01*
X033930Y008480D01*
X033680Y008230D01*
X033430Y008480D01*
X032930Y008480D01*
X032680Y008230D01*
X032430Y008480D01*
X031930Y008480D01*
X031680Y008230D01*
X031430Y008480D01*
X030930Y008480D01*
X030680Y008230D01*
X030430Y008480D01*
X029930Y008480D01*
X029680Y008230D01*
X029430Y008480D01*
X028930Y008480D01*
X028680Y008230D01*
X028430Y008480D01*
X027930Y008480D01*
X027680Y008230D01*
X027430Y008480D01*
X026930Y008480D01*
X026680Y008230D01*
X026430Y008480D01*
X025930Y008480D01*
X025680Y008230D01*
X025680Y007730D01*
X030280Y005630D02*
X030530Y005880D01*
X031030Y005880D01*
X031280Y005630D01*
X031280Y005130D01*
X031030Y004880D01*
X031280Y004630D01*
X031280Y004130D01*
X031030Y003880D01*
X031280Y003630D01*
X031280Y003130D01*
X031030Y002880D01*
X031280Y002630D01*
X031280Y002130D01*
X031030Y001880D01*
X030530Y001880D01*
X030280Y002130D01*
X030280Y002630D01*
X030530Y002880D01*
X030280Y003130D01*
X030280Y003630D01*
X030530Y003880D01*
X030280Y004130D01*
X030280Y004630D01*
X030530Y004880D01*
X030280Y005130D01*
X030280Y005630D01*
X034786Y006665D02*
X034786Y007295D01*
X034787Y007295D02*
X034793Y007313D01*
X034802Y007331D01*
X034814Y007346D01*
X034830Y007358D01*
X034847Y007367D01*
X034866Y007373D01*
X034885Y007375D01*
X034905Y007373D01*
X035455Y007373D02*
X035473Y007375D01*
X035490Y007374D01*
X035507Y007370D01*
X035523Y007363D01*
X035538Y007353D01*
X035550Y007341D01*
X035560Y007327D01*
X035568Y007311D01*
X035573Y007295D01*
X035574Y007295D02*
X035574Y006665D01*
X035573Y006665D02*
X035568Y006649D01*
X035560Y006633D01*
X035550Y006619D01*
X035538Y006607D01*
X035523Y006597D01*
X035507Y006590D01*
X035490Y006586D01*
X035473Y006585D01*
X035455Y006587D01*
X034905Y006587D02*
X034885Y006585D01*
X034866Y006587D01*
X034847Y006593D01*
X034830Y006602D01*
X034814Y006614D01*
X034802Y006629D01*
X034793Y006647D01*
X034787Y006665D01*
D16*
X012135Y007108D02*
X012060Y007033D01*
X012135Y007108D02*
X012135Y007259D01*
X012060Y007334D01*
X011910Y007334D01*
X011835Y007259D01*
X011835Y007184D01*
X011910Y007033D01*
X011685Y007033D01*
X011685Y007334D01*
X011685Y007494D02*
X011985Y007494D01*
X012135Y007644D01*
X011985Y007794D01*
X011685Y007794D01*
X011685Y007954D02*
X011685Y008179D01*
X011760Y008254D01*
X012060Y008254D01*
X012135Y008179D01*
X012135Y007954D01*
X011685Y007954D01*
X011760Y008415D02*
X011685Y008490D01*
X011685Y008640D01*
X011760Y008715D01*
X012060Y008715D02*
X012135Y008640D01*
X012135Y008490D01*
X012060Y008415D01*
X011760Y008415D01*
D17*
X007030Y005035D02*
X007030Y004885D01*
X006980Y004885D02*
X007080Y004885D01*
X006980Y004985D02*
X007030Y005035D01*
X006932Y005035D02*
X006882Y005035D01*
X006907Y005035D02*
X006907Y004910D01*
X006882Y004885D01*
X006857Y004885D01*
X006832Y004910D01*
X006785Y004910D02*
X006760Y004885D01*
X006710Y004885D01*
X006685Y004910D01*
X006710Y004960D02*
X006760Y004960D01*
X006785Y004935D01*
X006785Y004910D01*
X006710Y004960D02*
X006685Y004985D01*
X006685Y005010D01*
X006710Y005035D01*
X006760Y005035D01*
X006785Y005010D01*
M02*
