G75*
%MOIN*%
%OFA0B0*%
%FSLAX24Y24*%
%IPPOS*%
%LPD*%
%AMOC8*
5,1,8,0,0,1.08239X$1,22.5*
%
%ADD10C,0.0710*%
%ADD11R,0.0926X0.0296*%
%ADD12R,0.0800X0.0800*%
%ADD13C,0.0800*%
%ADD14R,0.0769X0.0690*%
%ADD15R,0.0560X0.0310*%
%ADD16R,0.0310X0.0560*%
%ADD17OC8,0.0436*%
%ADD18C,0.0330*%
D10*
X015580Y007180D03*
X015580Y008180D03*
D11*
X020469Y008130D03*
X020469Y007630D03*
X020469Y007130D03*
X020469Y006630D03*
X020469Y006130D03*
X020469Y005630D03*
X020469Y005130D03*
X024091Y005130D03*
X024091Y005630D03*
X024091Y006130D03*
X024091Y006630D03*
X024091Y007130D03*
X024091Y007630D03*
X024091Y008130D03*
X024091Y008630D03*
X020469Y008630D03*
D12*
X011180Y005580D03*
X030780Y002380D03*
D13*
X030780Y003380D03*
X030780Y004380D03*
X030780Y005380D03*
X031180Y007980D03*
X030180Y007980D03*
X029180Y007980D03*
X028180Y007980D03*
X027180Y007980D03*
X026180Y007980D03*
X032180Y007980D03*
X033180Y007980D03*
X034180Y007980D03*
X035180Y007980D03*
X012980Y008380D03*
X010980Y008380D03*
X009180Y007980D03*
X008180Y007980D03*
X007180Y007980D03*
X010980Y007380D03*
X012980Y007380D03*
X011180Y004580D03*
X011180Y003580D03*
X011180Y002580D03*
D14*
X027780Y003429D03*
X029180Y003429D03*
X029180Y004531D03*
X027780Y004531D03*
D15*
X035180Y006803D03*
X035180Y007157D03*
X017980Y006930D03*
X017980Y006580D03*
X017980Y006230D03*
X017980Y005330D03*
X017980Y004980D03*
X017980Y004630D03*
X017980Y007830D03*
X017980Y008180D03*
X017980Y008530D03*
D16*
X006830Y004380D03*
X007180Y004380D03*
X007530Y004380D03*
D17*
X018780Y004180D03*
X018780Y006180D03*
X018980Y008180D03*
D18*
X021620Y006640D03*
X022400Y007240D03*
X023420Y008620D03*
X023060Y004780D03*
X023660Y004720D03*
X013220Y006520D03*
M02*
