%
M48
M72
T01C0.0130
T02C0.0276
T03C0.0320
T04C0.0354
T05C0.0400
T06C0.1260
%
T01
X13120Y3840
X11860Y8400
X10420Y9720
X9940Y9720
X9460Y9720
X11620Y10200
X11860Y9840
X15160Y10440
X15400Y10680
X16600Y11220
X16840Y13200
X10480Y13320
X9880Y12000
X15460Y9240
T02
X7380Y9380
X7380Y10380
T03
X8280Y5980
X9280Y5980
X12080Y5980
X13080Y5980
X15480Y5980
X16480Y5980
X4880Y5980
X3880Y5980
T04
X2580Y6880
X6580Y4880
X10580Y4880
X14180Y4880
X18980Y5280
X20980Y5280
X20980Y2280
X18980Y2280
X14180Y1880
X10580Y1880
X6580Y1880
X2580Y3880
T05
X4380Y4180
X4380Y3180
X4380Y2180
X8780Y2180
X8780Y3180
X8780Y4180
X12580Y4180
X12580Y3180
X12580Y2180
X15980Y2180
X15980Y3180
X15980Y4180
X17780Y8180
X17780Y9180
X17780Y10180
X17780Y11180
X18180Y12780
X18180Y13780
X20780Y13780
X20780Y12780
X5980Y11180
X5980Y10180
X5980Y9180
X5980Y8180
T06
X2180Y1780
X22980Y1780
X22980Y13580
X2180Y13580
M30
