G75*
%MOIN*%
%OFA0B0*%
%FSLAX24Y24*%
%IPPOS*%
%LPD*%
%AMOC8*
5,1,8,0,0,1.08239X$1,22.5*
%
%ADD10C,0.0650*%
%ADD11R,0.0740X0.0740*%
%ADD12C,0.0740*%
%ADD13C,0.0160*%
%ADD14OC8,0.0376*%
%ADD15C,0.0060*%
%ADD16C,0.0270*%
D10*
X007980Y009380D03*
X007980Y010380D03*
D11*
X006580Y011180D03*
X018380Y008180D03*
D12*
X018380Y009180D03*
X018380Y010180D03*
X018380Y011180D03*
X017080Y005980D03*
X016080Y005980D03*
X014780Y004880D03*
X013180Y004180D03*
X013180Y003180D03*
X013180Y002180D03*
X014780Y001880D03*
X016580Y002180D03*
X016580Y003180D03*
X016580Y004180D03*
X019580Y005280D03*
X021580Y005280D03*
X021580Y002280D03*
X019580Y002280D03*
X013680Y005980D03*
X012680Y005980D03*
X011180Y004880D03*
X009880Y005980D03*
X008880Y005980D03*
X007180Y004880D03*
X005480Y005980D03*
X004480Y005980D03*
X003180Y006880D03*
X006580Y008180D03*
X006580Y009180D03*
X006580Y010180D03*
X004980Y004180D03*
X004980Y003180D03*
X003180Y003880D03*
X004980Y002180D03*
X007180Y001880D03*
X009380Y002180D03*
X009380Y003180D03*
X009380Y004180D03*
X011180Y001880D03*
D13*
X003267Y001051D02*
X003168Y001010D01*
X023192Y001010D01*
X023093Y001051D01*
X022851Y001293D01*
X022720Y001609D01*
X022720Y001951D01*
X022851Y002267D01*
X023093Y002509D01*
X023409Y002640D01*
X023751Y002640D01*
X024067Y002509D01*
X024309Y002267D01*
X024420Y001999D01*
X024420Y012961D01*
X024309Y012693D01*
X024067Y012451D01*
X023751Y012320D01*
X023409Y012320D01*
X023093Y012451D01*
X022851Y012693D01*
X022720Y013009D01*
X022720Y013351D01*
X022851Y013667D01*
X023093Y013909D01*
X023409Y014040D01*
X023751Y014040D01*
X024067Y013909D01*
X024309Y013667D01*
X024420Y013399D01*
X024420Y014046D01*
X002010Y014046D01*
X002010Y013568D01*
X002051Y013667D01*
X002293Y013909D01*
X002609Y014040D01*
X002951Y014040D01*
X003267Y013909D01*
X003509Y013667D01*
X003640Y013351D01*
X003640Y013009D01*
X003509Y012693D01*
X003267Y012451D01*
X002951Y012320D01*
X002609Y012320D01*
X002293Y012451D01*
X002051Y012693D01*
X002010Y012792D01*
X002010Y002168D01*
X002051Y002267D01*
X002293Y002509D01*
X002609Y002640D01*
X002951Y002640D01*
X003267Y002509D01*
X003509Y002267D01*
X003640Y001951D01*
X003640Y001609D01*
X003509Y001293D01*
X003267Y001051D01*
X003313Y001097D02*
X010703Y001097D01*
X010670Y001130D02*
X010770Y001030D01*
X014030Y001030D01*
X014470Y001469D01*
X014491Y001448D01*
X014679Y001370D01*
X014881Y001370D01*
X015069Y001448D01*
X015212Y001591D01*
X015290Y001779D01*
X015290Y001981D01*
X015212Y002169D01*
X015069Y002312D01*
X014881Y002390D01*
X014679Y002390D01*
X014491Y002312D01*
X014348Y002169D01*
X014270Y001981D01*
X014270Y001779D01*
X014278Y001759D01*
X013890Y001370D01*
X013650Y001370D01*
X014130Y001850D01*
X014130Y004970D01*
X014610Y005450D01*
X014610Y006010D01*
X015650Y004970D01*
X015650Y002750D01*
X016084Y002315D01*
X016070Y002281D01*
X016070Y002079D01*
X016148Y001891D01*
X016291Y001748D01*
X016479Y001670D01*
X016681Y001670D01*
X016869Y001748D01*
X017012Y001891D01*
X017090Y002079D01*
X017090Y002281D01*
X017012Y002469D01*
X016869Y002612D01*
X016706Y002680D01*
X016869Y002748D01*
X017012Y002891D01*
X017090Y003079D01*
X017090Y003281D01*
X017012Y003469D01*
X016869Y003612D01*
X016756Y003659D01*
X016791Y003670D01*
X016868Y003710D01*
X016938Y003760D01*
X017000Y003822D01*
X017050Y003892D01*
X017090Y003969D01*
X017116Y004051D01*
X017130Y004137D01*
X017130Y004160D01*
X016600Y004160D01*
X016600Y004200D01*
X017130Y004200D01*
X017130Y004223D01*
X017116Y004309D01*
X017090Y004391D01*
X017050Y004468D01*
X017000Y004538D01*
X016938Y004600D01*
X016868Y004650D01*
X016791Y004690D01*
X016709Y004716D01*
X016623Y004730D01*
X016600Y004730D01*
X016600Y004200D01*
X016560Y004200D01*
X016560Y004730D01*
X016537Y004730D01*
X016451Y004716D01*
X016369Y004690D01*
X016292Y004650D01*
X016222Y004600D01*
X016160Y004538D01*
X016110Y004468D01*
X016070Y004391D01*
X016044Y004309D01*
X016030Y004223D01*
X016030Y004200D01*
X016560Y004200D01*
X016560Y004160D01*
X016030Y004160D01*
X016030Y004137D01*
X016044Y004051D01*
X016070Y003969D01*
X016110Y003892D01*
X016160Y003822D01*
X016222Y003760D01*
X016292Y003710D01*
X016369Y003670D01*
X016404Y003659D01*
X016291Y003612D01*
X016148Y003469D01*
X016070Y003281D01*
X016070Y003079D01*
X016148Y002891D01*
X016291Y002748D01*
X016454Y002680D01*
X016291Y002612D01*
X016280Y002601D01*
X015990Y002890D01*
X015990Y005110D01*
X015890Y005210D01*
X012870Y008230D01*
X012870Y008241D01*
X012933Y008304D01*
X012975Y008405D01*
X012975Y008515D01*
X012933Y008616D01*
X012856Y008693D01*
X012755Y008735D01*
X012645Y008735D01*
X012570Y008704D01*
X012570Y011371D01*
X012585Y011365D01*
X012695Y011365D01*
X012796Y011407D01*
X012859Y011470D01*
X016710Y011470D01*
X017878Y010301D01*
X017870Y010281D01*
X017870Y010079D01*
X017948Y009891D01*
X018091Y009748D01*
X018254Y009680D01*
X018091Y009612D01*
X017948Y009469D01*
X017870Y009281D01*
X017870Y009079D01*
X017948Y008891D01*
X018091Y008748D01*
X018134Y008730D01*
X017986Y008730D01*
X017941Y008718D01*
X017899Y008694D01*
X017866Y008661D01*
X017842Y008619D01*
X017830Y008574D01*
X017830Y008200D01*
X018360Y008200D01*
X018360Y008160D01*
X018400Y008160D01*
X018400Y008200D01*
X018930Y008200D01*
X018930Y008574D01*
X018918Y008619D01*
X018894Y008661D01*
X018861Y008694D01*
X018819Y008718D01*
X018774Y008730D01*
X018626Y008730D01*
X018669Y008748D01*
X018812Y008891D01*
X018890Y009079D01*
X018890Y009281D01*
X018812Y009469D01*
X018669Y009612D01*
X018506Y009680D01*
X018669Y009748D01*
X018812Y009891D01*
X018890Y010079D01*
X018890Y010281D01*
X018812Y010469D01*
X018669Y010612D01*
X018506Y010680D01*
X018669Y010748D01*
X018680Y010759D01*
X018950Y010490D01*
X018950Y005810D01*
X019050Y005710D01*
X019169Y005590D01*
X019148Y005569D01*
X019070Y005381D01*
X019070Y005179D01*
X019148Y004991D01*
X019291Y004848D01*
X019479Y004770D01*
X019681Y004770D01*
X019869Y004848D01*
X020012Y004991D01*
X020090Y005179D01*
X020090Y005381D01*
X020012Y005569D01*
X019869Y005712D01*
X019681Y005790D01*
X019479Y005790D01*
X019459Y005782D01*
X019290Y005950D01*
X019290Y010630D01*
X018876Y011045D01*
X018890Y011079D01*
X018890Y011281D01*
X018812Y011469D01*
X018669Y011612D01*
X018481Y011690D01*
X018279Y011690D01*
X018091Y011612D01*
X017948Y011469D01*
X017870Y011281D01*
X017870Y011079D01*
X017948Y010891D01*
X018091Y010748D01*
X018254Y010680D01*
X018091Y010612D01*
X018070Y010591D01*
X016850Y011810D01*
X012859Y011810D01*
X012796Y011873D01*
X012695Y011915D01*
X012585Y011915D01*
X012570Y011909D01*
X012570Y013101D01*
X012610Y013141D01*
X012664Y013087D01*
X012765Y013045D01*
X012875Y013045D01*
X012976Y013087D01*
X013053Y013164D01*
X013095Y013265D01*
X013095Y013375D01*
X013053Y013476D01*
X012976Y013553D01*
X012875Y013595D01*
X012785Y013595D01*
X012750Y013630D01*
X012650Y013730D01*
X011730Y013730D01*
X010590Y012590D01*
X010490Y012490D01*
X010490Y005590D01*
X010050Y005150D01*
X009950Y005050D01*
X009950Y003310D01*
X009890Y003250D01*
X009890Y003281D01*
X009812Y003469D01*
X009669Y003612D01*
X009556Y003659D01*
X009591Y003670D01*
X009668Y003710D01*
X009738Y003760D01*
X009800Y003822D01*
X009850Y003892D01*
X009890Y003969D01*
X009916Y004051D01*
X009930Y004137D01*
X009930Y004160D01*
X009400Y004160D01*
X009400Y004200D01*
X009360Y004200D01*
X009360Y004730D01*
X009337Y004730D01*
X009251Y004716D01*
X009169Y004690D01*
X009092Y004650D01*
X009022Y004600D01*
X008960Y004538D01*
X008910Y004468D01*
X008870Y004391D01*
X008844Y004309D01*
X008830Y004223D01*
X008830Y004200D01*
X009360Y004200D01*
X009360Y004160D01*
X008830Y004160D01*
X008830Y004137D01*
X008844Y004051D01*
X008870Y003969D01*
X008910Y003892D01*
X008960Y003822D01*
X009022Y003760D01*
X009092Y003710D01*
X009169Y003670D01*
X009204Y003659D01*
X009091Y003612D01*
X009060Y003581D01*
X008870Y003770D01*
X006390Y003770D01*
X006390Y006370D01*
X006290Y006470D01*
X006030Y006730D01*
X006030Y009530D01*
X006270Y009769D01*
X006291Y009748D01*
X006454Y009680D01*
X006291Y009612D01*
X006148Y009469D01*
X006070Y009281D01*
X006070Y009079D01*
X006148Y008891D01*
X006291Y008748D01*
X006454Y008680D01*
X006291Y008612D01*
X006148Y008469D01*
X006070Y008281D01*
X006070Y008079D01*
X006148Y007891D01*
X006291Y007748D01*
X006479Y007670D01*
X006681Y007670D01*
X006869Y007748D01*
X007012Y007891D01*
X007090Y008079D01*
X007090Y008281D01*
X007012Y008469D01*
X006869Y008612D01*
X006706Y008680D01*
X006869Y008748D01*
X007012Y008891D01*
X007090Y009079D01*
X007090Y009281D01*
X007012Y009469D01*
X006869Y009612D01*
X006706Y009680D01*
X006869Y009748D01*
X007012Y009891D01*
X007090Y010079D01*
X007090Y010281D01*
X007012Y010469D01*
X006869Y010612D01*
X006826Y010630D01*
X006974Y010630D01*
X007019Y010642D01*
X007061Y010666D01*
X007094Y010699D01*
X007118Y010741D01*
X007130Y010786D01*
X007130Y011160D01*
X006600Y011160D01*
X006600Y011200D01*
X006560Y011200D01*
X006560Y011730D01*
X006186Y011730D01*
X006141Y011718D01*
X006099Y011694D01*
X006066Y011661D01*
X006042Y011619D01*
X006030Y011574D01*
X006030Y011200D01*
X006560Y011200D01*
X006560Y011160D01*
X006030Y011160D01*
X006030Y010786D01*
X006042Y010741D01*
X006066Y010699D01*
X006099Y010666D01*
X006141Y010642D01*
X006186Y010630D01*
X006334Y010630D01*
X006291Y010612D01*
X006148Y010469D01*
X006070Y010281D01*
X006070Y010079D01*
X006078Y010059D01*
X005790Y009770D01*
X005790Y009770D01*
X005690Y009670D01*
X005690Y006590D01*
X006050Y006230D01*
X006050Y003770D01*
X005490Y003770D01*
X005390Y003670D01*
X005300Y003581D01*
X005269Y003612D01*
X005156Y003659D01*
X005191Y003670D01*
X005268Y003710D01*
X005338Y003760D01*
X005400Y003822D01*
X005450Y003892D01*
X005490Y003969D01*
X005516Y004051D01*
X005530Y004137D01*
X005530Y004160D01*
X005000Y004160D01*
X005000Y004200D01*
X004960Y004200D01*
X004960Y004730D01*
X004937Y004730D01*
X004851Y004716D01*
X004769Y004690D01*
X004692Y004650D01*
X004622Y004600D01*
X004560Y004538D01*
X004510Y004468D01*
X004470Y004391D01*
X004444Y004309D01*
X004430Y004223D01*
X004430Y004200D01*
X004960Y004200D01*
X004960Y004160D01*
X004430Y004160D01*
X004430Y004137D01*
X004444Y004051D01*
X004470Y003969D01*
X004510Y003892D01*
X004560Y003822D01*
X004622Y003760D01*
X004692Y003710D01*
X004769Y003670D01*
X004804Y003659D01*
X004691Y003612D01*
X004548Y003469D01*
X004470Y003281D01*
X004470Y003079D01*
X004548Y002891D01*
X004691Y002748D01*
X004854Y002680D01*
X004691Y002612D01*
X004548Y002469D01*
X004470Y002281D01*
X004470Y002079D01*
X004548Y001891D01*
X004691Y001748D01*
X004879Y001670D01*
X005081Y001670D01*
X005269Y001748D01*
X005412Y001891D01*
X005490Y002079D01*
X005490Y002281D01*
X005412Y002469D01*
X005269Y002612D01*
X005106Y002680D01*
X005269Y002748D01*
X005412Y002891D01*
X005490Y003079D01*
X005490Y003281D01*
X005488Y003287D01*
X005630Y003430D01*
X008730Y003430D01*
X008872Y003287D01*
X008870Y003281D01*
X008870Y003079D01*
X008948Y002891D01*
X009059Y002780D01*
X009010Y002730D01*
X008930Y002810D01*
X008010Y002810D01*
X007490Y002291D01*
X007469Y002312D01*
X007281Y002390D01*
X007079Y002390D01*
X006891Y002312D01*
X006748Y002169D01*
X006670Y001981D01*
X006670Y001779D01*
X006748Y001591D01*
X006891Y001448D01*
X007079Y001370D01*
X007281Y001370D01*
X007469Y001448D01*
X007612Y001591D01*
X007690Y001779D01*
X007690Y001981D01*
X007682Y002001D01*
X008150Y002470D01*
X008790Y002470D01*
X008902Y002358D01*
X008870Y002281D01*
X008870Y002079D01*
X008948Y001891D01*
X009091Y001748D01*
X009279Y001670D01*
X009481Y001670D01*
X009669Y001748D01*
X009812Y001891D01*
X009890Y002079D01*
X009890Y002281D01*
X009870Y002330D01*
X010410Y002870D01*
X010410Y004850D01*
X011690Y006130D01*
X011690Y003610D01*
X010310Y002230D01*
X010310Y001490D01*
X010670Y001130D01*
X010670Y001130D01*
X010544Y001256D02*
X003472Y001256D01*
X003559Y001414D02*
X006972Y001414D01*
X006766Y001573D02*
X003625Y001573D01*
X003640Y001731D02*
X004731Y001731D01*
X004549Y001890D02*
X003640Y001890D01*
X003600Y002048D02*
X004483Y002048D01*
X004470Y002207D02*
X003534Y002207D01*
X003411Y002365D02*
X004505Y002365D01*
X004602Y002524D02*
X003232Y002524D01*
X002328Y002524D02*
X002010Y002524D01*
X002010Y002682D02*
X004850Y002682D01*
X005110Y002682D02*
X007882Y002682D01*
X007723Y002524D02*
X005358Y002524D01*
X005455Y002365D02*
X007018Y002365D01*
X006785Y002207D02*
X005490Y002207D01*
X005477Y002048D02*
X006698Y002048D01*
X006670Y001890D02*
X005411Y001890D01*
X005229Y001731D02*
X006690Y001731D01*
X007388Y001414D02*
X010386Y001414D01*
X010310Y001573D02*
X007594Y001573D01*
X007670Y001731D02*
X009131Y001731D01*
X008949Y001890D02*
X007690Y001890D01*
X007728Y002048D02*
X008883Y002048D01*
X008870Y002207D02*
X007887Y002207D01*
X008045Y002365D02*
X008895Y002365D01*
X009811Y001890D02*
X010310Y001890D01*
X010310Y002048D02*
X009877Y002048D01*
X009890Y002207D02*
X010310Y002207D01*
X010445Y002365D02*
X009905Y002365D01*
X010064Y002524D02*
X010603Y002524D01*
X010762Y002682D02*
X010222Y002682D01*
X010381Y002841D02*
X010920Y002841D01*
X011079Y002999D02*
X010410Y002999D01*
X010410Y003158D02*
X011237Y003158D01*
X011396Y003316D02*
X010410Y003316D01*
X010410Y003475D02*
X011554Y003475D01*
X011690Y003633D02*
X010410Y003633D01*
X010410Y003792D02*
X011690Y003792D01*
X011690Y003950D02*
X010410Y003950D01*
X010410Y004109D02*
X011690Y004109D01*
X011690Y004267D02*
X010410Y004267D01*
X010410Y004426D02*
X010945Y004426D01*
X010891Y004448D02*
X011079Y004370D01*
X011281Y004370D01*
X011469Y004448D01*
X011612Y004591D01*
X011690Y004779D01*
X011690Y004981D01*
X011612Y005169D01*
X011469Y005312D01*
X011281Y005390D01*
X011079Y005390D01*
X010891Y005312D01*
X010748Y005169D01*
X010670Y004981D01*
X010670Y004779D01*
X010748Y004591D01*
X010891Y004448D01*
X010755Y004584D02*
X010410Y004584D01*
X010410Y004743D02*
X010685Y004743D01*
X010670Y004901D02*
X010461Y004901D01*
X010620Y005060D02*
X010702Y005060D01*
X010778Y005218D02*
X010797Y005218D01*
X010937Y005377D02*
X011046Y005377D01*
X011095Y005535D02*
X011690Y005535D01*
X011690Y005377D02*
X011314Y005377D01*
X011563Y005218D02*
X011690Y005218D01*
X011690Y005060D02*
X011658Y005060D01*
X011690Y004901D02*
X011690Y004901D01*
X011675Y004743D02*
X011690Y004743D01*
X011690Y004584D02*
X011605Y004584D01*
X011690Y004426D02*
X011415Y004426D01*
X012150Y004426D02*
X012688Y004426D01*
X012670Y004391D02*
X012644Y004309D01*
X012630Y004223D01*
X012630Y004200D01*
X013160Y004200D01*
X013160Y004730D01*
X013137Y004730D01*
X013051Y004716D01*
X012969Y004690D01*
X012892Y004650D01*
X012822Y004600D01*
X012760Y004538D01*
X012710Y004468D01*
X012670Y004391D01*
X012637Y004267D02*
X012150Y004267D01*
X012150Y004109D02*
X012634Y004109D01*
X012630Y004137D02*
X012644Y004051D01*
X012670Y003969D01*
X012710Y003892D01*
X012760Y003822D01*
X012822Y003760D01*
X012892Y003710D01*
X012969Y003670D01*
X013004Y003659D01*
X012891Y003612D01*
X012748Y003469D01*
X012670Y003281D01*
X012670Y003079D01*
X012748Y002891D01*
X012891Y002748D01*
X013054Y002680D01*
X012891Y002612D01*
X012870Y002591D01*
X012150Y003310D01*
X012150Y006110D01*
X012204Y006164D01*
X012170Y006081D01*
X012170Y005879D01*
X012248Y005691D01*
X012391Y005548D01*
X012579Y005470D01*
X012781Y005470D01*
X012969Y005548D01*
X013112Y005691D01*
X013159Y005804D01*
X013170Y005769D01*
X013210Y005692D01*
X013260Y005622D01*
X013322Y005560D01*
X013392Y005510D01*
X013469Y005470D01*
X013551Y005444D01*
X013637Y005430D01*
X013680Y005430D01*
X013723Y005430D01*
X013809Y005444D01*
X013891Y005470D01*
X013968Y005510D01*
X014038Y005560D01*
X014100Y005622D01*
X014150Y005692D01*
X014190Y005769D01*
X014216Y005851D01*
X014230Y005937D01*
X014230Y005980D01*
X014230Y006023D01*
X014216Y006109D01*
X014190Y006191D01*
X014150Y006268D01*
X014100Y006338D01*
X014038Y006400D01*
X013968Y006450D01*
X013891Y006490D01*
X013809Y006516D01*
X013723Y006530D01*
X013680Y006530D01*
X013680Y005980D01*
X014230Y005980D01*
X013680Y005980D01*
X013680Y005980D01*
X013680Y005980D01*
X013680Y005430D01*
X013680Y005980D01*
X013680Y005980D01*
X013680Y006530D01*
X013637Y006530D01*
X013551Y006516D01*
X013469Y006490D01*
X013392Y006450D01*
X013322Y006400D01*
X013260Y006338D01*
X013210Y006268D01*
X013170Y006191D01*
X013159Y006156D01*
X013112Y006269D01*
X012969Y006412D01*
X012781Y006490D01*
X012579Y006490D01*
X012391Y006412D01*
X012248Y006269D01*
X012210Y006178D01*
X012210Y006290D01*
X012330Y006410D01*
X012330Y008110D01*
X014270Y006170D01*
X014270Y005590D01*
X013890Y005210D01*
X013790Y005110D01*
X013790Y001990D01*
X013410Y001610D01*
X011810Y001610D01*
X011676Y001745D01*
X011690Y001779D01*
X011690Y001981D01*
X011612Y002169D01*
X011469Y002312D01*
X011281Y002390D01*
X011079Y002390D01*
X010891Y002312D01*
X010748Y002169D01*
X010670Y001981D01*
X010670Y001779D01*
X010748Y001591D01*
X010891Y001448D01*
X011079Y001370D01*
X011281Y001370D01*
X011469Y001448D01*
X011480Y001459D01*
X011570Y001370D01*
X010910Y001370D01*
X010650Y001630D01*
X010650Y002090D01*
X011810Y003250D01*
X011810Y003170D01*
X012678Y002301D01*
X012670Y002281D01*
X012670Y002079D01*
X012748Y001891D01*
X012891Y001748D01*
X013079Y001670D01*
X013281Y001670D01*
X013469Y001748D01*
X013612Y001891D01*
X013690Y002079D01*
X013690Y002281D01*
X013612Y002469D01*
X013469Y002612D01*
X013306Y002680D01*
X013469Y002748D01*
X013612Y002891D01*
X013690Y003079D01*
X013690Y003281D01*
X013612Y003469D01*
X013469Y003612D01*
X013356Y003659D01*
X013391Y003670D01*
X013468Y003710D01*
X013538Y003760D01*
X013600Y003822D01*
X013650Y003892D01*
X013690Y003969D01*
X013716Y004051D01*
X013730Y004137D01*
X013730Y004160D01*
X013200Y004160D01*
X013200Y004200D01*
X013160Y004200D01*
X013160Y004160D01*
X012630Y004160D01*
X012630Y004137D01*
X012680Y003950D02*
X012150Y003950D01*
X012150Y003792D02*
X012791Y003792D01*
X012941Y003633D02*
X012150Y003633D01*
X012150Y003475D02*
X012753Y003475D01*
X012684Y003316D02*
X012150Y003316D01*
X012303Y003158D02*
X012670Y003158D01*
X012703Y002999D02*
X012461Y002999D01*
X012620Y002841D02*
X012798Y002841D01*
X012778Y002682D02*
X013050Y002682D01*
X013310Y002682D02*
X013790Y002682D01*
X013790Y002524D02*
X013558Y002524D01*
X013655Y002365D02*
X013790Y002365D01*
X013790Y002207D02*
X013690Y002207D01*
X013677Y002048D02*
X013790Y002048D01*
X013689Y001890D02*
X013611Y001890D01*
X013531Y001731D02*
X013429Y001731D01*
X013853Y001573D02*
X014092Y001573D01*
X014011Y001731D02*
X014251Y001731D01*
X014270Y001890D02*
X014130Y001890D01*
X014130Y002048D02*
X014298Y002048D01*
X014385Y002207D02*
X014130Y002207D01*
X014130Y002365D02*
X014618Y002365D01*
X014942Y002365D02*
X016035Y002365D01*
X016070Y002207D02*
X015175Y002207D01*
X015262Y002048D02*
X016083Y002048D01*
X016149Y001890D02*
X015290Y001890D01*
X015270Y001731D02*
X016331Y001731D01*
X016829Y001731D02*
X022720Y001731D01*
X022720Y001890D02*
X021911Y001890D01*
X021869Y001848D02*
X022012Y001991D01*
X022090Y002179D01*
X022090Y002381D01*
X022012Y002569D01*
X021869Y002712D01*
X021681Y002790D01*
X021479Y002790D01*
X021291Y002712D01*
X021148Y002569D01*
X021070Y002381D01*
X021070Y002179D01*
X021148Y001991D01*
X021291Y001848D01*
X021479Y001770D01*
X021681Y001770D01*
X021869Y001848D01*
X022036Y002048D02*
X022760Y002048D01*
X022826Y002207D02*
X022090Y002207D01*
X022090Y002365D02*
X022949Y002365D01*
X023128Y002524D02*
X022031Y002524D01*
X021899Y002682D02*
X024420Y002682D01*
X024420Y002524D02*
X024032Y002524D01*
X024211Y002365D02*
X024420Y002365D01*
X024420Y002207D02*
X024334Y002207D01*
X024400Y002048D02*
X024420Y002048D01*
X024420Y002841D02*
X016962Y002841D01*
X017057Y002999D02*
X024420Y002999D01*
X024420Y003158D02*
X017090Y003158D01*
X017076Y003316D02*
X024420Y003316D01*
X024420Y003475D02*
X017007Y003475D01*
X016819Y003633D02*
X024420Y003633D01*
X024420Y003792D02*
X016969Y003792D01*
X017080Y003950D02*
X024420Y003950D01*
X024420Y004109D02*
X017126Y004109D01*
X017123Y004267D02*
X024420Y004267D01*
X024420Y004426D02*
X017072Y004426D01*
X016954Y004584D02*
X024420Y004584D01*
X024420Y004743D02*
X015990Y004743D01*
X015990Y004901D02*
X019238Y004901D01*
X019119Y005060D02*
X015990Y005060D01*
X015882Y005218D02*
X019070Y005218D01*
X019070Y005377D02*
X015724Y005377D01*
X015791Y005548D02*
X015979Y005470D01*
X016181Y005470D01*
X016369Y005548D01*
X016512Y005691D01*
X016559Y005804D01*
X016570Y005769D01*
X016610Y005692D01*
X016660Y005622D01*
X016722Y005560D01*
X016792Y005510D01*
X016869Y005470D01*
X016951Y005444D01*
X017037Y005430D01*
X017080Y005430D01*
X017123Y005430D01*
X017209Y005444D01*
X017291Y005470D01*
X017368Y005510D01*
X017438Y005560D01*
X017500Y005622D01*
X017550Y005692D01*
X017590Y005769D01*
X017616Y005851D01*
X017630Y005937D01*
X017630Y005980D01*
X017630Y006023D01*
X017616Y006109D01*
X017590Y006191D01*
X017550Y006268D01*
X017500Y006338D01*
X017438Y006400D01*
X017368Y006450D01*
X017291Y006490D01*
X017209Y006516D01*
X017123Y006530D01*
X017080Y006530D01*
X017080Y005980D01*
X017630Y005980D01*
X017080Y005980D01*
X017080Y005980D01*
X017080Y005980D01*
X017080Y005430D01*
X017080Y005980D01*
X017080Y005980D01*
X017080Y006530D01*
X017037Y006530D01*
X016951Y006516D01*
X016869Y006490D01*
X016792Y006450D01*
X016722Y006400D01*
X016660Y006338D01*
X016610Y006268D01*
X016570Y006191D01*
X016559Y006156D01*
X016512Y006269D01*
X016369Y006412D01*
X016181Y006490D01*
X015979Y006490D01*
X015791Y006412D01*
X015648Y006269D01*
X015570Y006081D01*
X015570Y005879D01*
X015648Y005691D01*
X015791Y005548D01*
X015822Y005535D02*
X015565Y005535D01*
X015647Y005694D02*
X015407Y005694D01*
X015248Y005852D02*
X015581Y005852D01*
X015570Y006011D02*
X015090Y006011D01*
X014931Y006169D02*
X015606Y006169D01*
X015706Y006328D02*
X014773Y006328D01*
X014614Y006486D02*
X015969Y006486D01*
X016191Y006486D02*
X016862Y006486D01*
X017080Y006486D02*
X017080Y006486D01*
X017080Y006328D02*
X017080Y006328D01*
X017080Y006169D02*
X017080Y006169D01*
X017080Y006011D02*
X017080Y006011D01*
X017080Y005852D02*
X017080Y005852D01*
X017080Y005694D02*
X017080Y005694D01*
X017080Y005535D02*
X017080Y005535D01*
X017403Y005535D02*
X019134Y005535D01*
X019066Y005694D02*
X017551Y005694D01*
X017617Y005852D02*
X018950Y005852D01*
X018950Y006011D02*
X017630Y006011D01*
X017597Y006169D02*
X018950Y006169D01*
X018950Y006328D02*
X017507Y006328D01*
X017298Y006486D02*
X018950Y006486D01*
X018950Y006645D02*
X014456Y006645D01*
X014297Y006803D02*
X018950Y006803D01*
X018950Y006962D02*
X014139Y006962D01*
X013980Y007120D02*
X018950Y007120D01*
X018950Y007279D02*
X013822Y007279D01*
X013663Y007437D02*
X018950Y007437D01*
X018950Y007596D02*
X013505Y007596D01*
X013346Y007754D02*
X017839Y007754D01*
X017842Y007741D02*
X017866Y007699D01*
X017899Y007666D01*
X017941Y007642D01*
X017986Y007630D01*
X018360Y007630D01*
X018360Y008160D01*
X017830Y008160D01*
X017830Y007786D01*
X017842Y007741D01*
X017830Y007913D02*
X013188Y007913D01*
X013029Y008071D02*
X017830Y008071D01*
X017830Y008230D02*
X012871Y008230D01*
X012968Y008388D02*
X017830Y008388D01*
X017830Y008547D02*
X012962Y008547D01*
X012827Y008705D02*
X017918Y008705D01*
X017975Y008864D02*
X012570Y008864D01*
X012570Y009022D02*
X017893Y009022D01*
X017870Y009181D02*
X012570Y009181D01*
X012570Y009339D02*
X017894Y009339D01*
X017976Y009498D02*
X012570Y009498D01*
X012570Y009656D02*
X018197Y009656D01*
X018024Y009815D02*
X012570Y009815D01*
X012570Y009973D02*
X017914Y009973D01*
X017870Y010132D02*
X012570Y010132D01*
X012570Y010290D02*
X017874Y010290D01*
X017731Y010449D02*
X012570Y010449D01*
X012570Y010607D02*
X017573Y010607D01*
X017414Y010766D02*
X012570Y010766D01*
X012570Y010924D02*
X017256Y010924D01*
X017097Y011083D02*
X012570Y011083D01*
X012570Y011241D02*
X016939Y011241D01*
X016780Y011400D02*
X012778Y011400D01*
X012791Y011875D02*
X024420Y011875D01*
X024420Y011717D02*
X016944Y011717D01*
X017102Y011558D02*
X018037Y011558D01*
X017919Y011400D02*
X017261Y011400D01*
X017419Y011241D02*
X017870Y011241D01*
X017870Y011083D02*
X017578Y011083D01*
X017736Y010924D02*
X017934Y010924D01*
X017895Y010766D02*
X018073Y010766D01*
X018086Y010607D02*
X018053Y010607D01*
X018674Y010607D02*
X018833Y010607D01*
X018821Y010449D02*
X018950Y010449D01*
X018950Y010290D02*
X018886Y010290D01*
X018890Y010132D02*
X018950Y010132D01*
X018950Y009973D02*
X018846Y009973D01*
X018950Y009815D02*
X018736Y009815D01*
X018563Y009656D02*
X018950Y009656D01*
X018950Y009498D02*
X018784Y009498D01*
X018866Y009339D02*
X018950Y009339D01*
X018950Y009181D02*
X018890Y009181D01*
X018867Y009022D02*
X018950Y009022D01*
X018950Y008864D02*
X018785Y008864D01*
X018842Y008705D02*
X018950Y008705D01*
X018950Y008547D02*
X018930Y008547D01*
X018930Y008388D02*
X018950Y008388D01*
X018950Y008230D02*
X018930Y008230D01*
X018930Y008160D02*
X018400Y008160D01*
X018400Y007630D01*
X018774Y007630D01*
X018819Y007642D01*
X018861Y007666D01*
X018894Y007699D01*
X018918Y007741D01*
X018930Y007786D01*
X018930Y008160D01*
X018930Y008071D02*
X018950Y008071D01*
X018950Y007913D02*
X018930Y007913D01*
X018921Y007754D02*
X018950Y007754D01*
X019290Y007754D02*
X024420Y007754D01*
X024420Y007596D02*
X019290Y007596D01*
X019290Y007437D02*
X024420Y007437D01*
X024420Y007279D02*
X019290Y007279D01*
X019290Y007120D02*
X024420Y007120D01*
X024420Y006962D02*
X019290Y006962D01*
X019290Y006803D02*
X024420Y006803D01*
X024420Y006645D02*
X019290Y006645D01*
X019290Y006486D02*
X024420Y006486D01*
X024420Y006328D02*
X019290Y006328D01*
X019290Y006169D02*
X024420Y006169D01*
X024420Y006011D02*
X019290Y006011D01*
X019388Y005852D02*
X024420Y005852D01*
X024420Y005694D02*
X021888Y005694D01*
X021869Y005712D02*
X021681Y005790D01*
X021479Y005790D01*
X021291Y005712D01*
X021148Y005569D01*
X021070Y005381D01*
X021070Y005179D01*
X021148Y004991D01*
X021291Y004848D01*
X021479Y004770D01*
X021681Y004770D01*
X021869Y004848D01*
X022012Y004991D01*
X022090Y005179D01*
X022090Y005381D01*
X022012Y005569D01*
X021869Y005712D01*
X022026Y005535D02*
X024420Y005535D01*
X024420Y005377D02*
X022090Y005377D01*
X022090Y005218D02*
X024420Y005218D01*
X024420Y005060D02*
X022041Y005060D01*
X021922Y004901D02*
X024420Y004901D01*
X021238Y004901D02*
X019922Y004901D01*
X020041Y005060D02*
X021119Y005060D01*
X021070Y005218D02*
X020090Y005218D01*
X020090Y005377D02*
X021070Y005377D01*
X021134Y005535D02*
X020026Y005535D01*
X019888Y005694D02*
X021272Y005694D01*
X018400Y007754D02*
X018360Y007754D01*
X018360Y007913D02*
X018400Y007913D01*
X018400Y008071D02*
X018360Y008071D01*
X019290Y008071D02*
X024420Y008071D01*
X024420Y007913D02*
X019290Y007913D01*
X019290Y008230D02*
X024420Y008230D01*
X024420Y008388D02*
X019290Y008388D01*
X019290Y008547D02*
X024420Y008547D01*
X024420Y008705D02*
X019290Y008705D01*
X019290Y008864D02*
X024420Y008864D01*
X024420Y009022D02*
X019290Y009022D01*
X019290Y009181D02*
X024420Y009181D01*
X024420Y009339D02*
X019290Y009339D01*
X019290Y009498D02*
X024420Y009498D01*
X024420Y009656D02*
X019290Y009656D01*
X019290Y009815D02*
X024420Y009815D01*
X024420Y009973D02*
X019290Y009973D01*
X019290Y010132D02*
X024420Y010132D01*
X024420Y010290D02*
X019290Y010290D01*
X019290Y010449D02*
X024420Y010449D01*
X024420Y010607D02*
X019290Y010607D01*
X019155Y010766D02*
X024420Y010766D01*
X024420Y010924D02*
X018996Y010924D01*
X018890Y011083D02*
X024420Y011083D01*
X024420Y011241D02*
X018890Y011241D01*
X018841Y011400D02*
X024420Y011400D01*
X024420Y011558D02*
X018723Y011558D01*
X022730Y012985D02*
X012570Y012985D01*
X012570Y012826D02*
X022796Y012826D01*
X022876Y012668D02*
X012570Y012668D01*
X012570Y012509D02*
X023035Y012509D01*
X023335Y012351D02*
X012570Y012351D01*
X012570Y012192D02*
X024420Y012192D01*
X024420Y012034D02*
X012570Y012034D01*
X010984Y012985D02*
X003630Y012985D01*
X003640Y013143D02*
X011143Y013143D01*
X011301Y013302D02*
X003640Y013302D01*
X003595Y013460D02*
X011460Y013460D01*
X011618Y013619D02*
X003529Y013619D01*
X003399Y013777D02*
X022961Y013777D01*
X022831Y013619D02*
X012762Y013619D01*
X013060Y013460D02*
X022765Y013460D01*
X022720Y013302D02*
X013095Y013302D01*
X013032Y013143D02*
X022720Y013143D01*
X023157Y013936D02*
X003203Y013936D01*
X002357Y013936D02*
X002010Y013936D01*
X002010Y013777D02*
X002161Y013777D01*
X002031Y013619D02*
X002010Y013619D01*
X003564Y012826D02*
X010826Y012826D01*
X010667Y012668D02*
X003484Y012668D01*
X003325Y012509D02*
X010509Y012509D01*
X010490Y012351D02*
X003025Y012351D01*
X002535Y012351D02*
X002010Y012351D01*
X002010Y012509D02*
X002235Y012509D01*
X002076Y012668D02*
X002010Y012668D01*
X002010Y012192D02*
X010490Y012192D01*
X010490Y012034D02*
X002010Y012034D01*
X002010Y011875D02*
X010490Y011875D01*
X010490Y011717D02*
X007022Y011717D01*
X007019Y011718D02*
X006974Y011730D01*
X006600Y011730D01*
X006600Y011200D01*
X007130Y011200D01*
X007130Y011574D01*
X007118Y011619D01*
X007094Y011661D01*
X007061Y011694D01*
X007019Y011718D01*
X007130Y011558D02*
X010490Y011558D01*
X010490Y011400D02*
X007130Y011400D01*
X007130Y011241D02*
X010490Y011241D01*
X010490Y011083D02*
X007130Y011083D01*
X007130Y010924D02*
X010490Y010924D01*
X010490Y010766D02*
X008252Y010766D01*
X008243Y010774D02*
X008072Y010845D01*
X007888Y010845D01*
X007717Y010774D01*
X007586Y010643D01*
X007515Y010472D01*
X007515Y010288D01*
X007586Y010117D01*
X007717Y009986D01*
X007888Y009915D01*
X008072Y009915D01*
X008243Y009986D01*
X008374Y010117D01*
X008445Y010288D01*
X008445Y010472D01*
X008374Y010643D01*
X008243Y010774D01*
X008389Y010607D02*
X010490Y010607D01*
X010490Y010449D02*
X008445Y010449D01*
X008445Y010290D02*
X010490Y010290D01*
X010490Y010132D02*
X008380Y010132D01*
X008213Y009973D02*
X010490Y009973D01*
X010490Y009815D02*
X008146Y009815D01*
X008072Y009845D02*
X007888Y009845D01*
X007717Y009774D01*
X007586Y009643D01*
X007515Y009472D01*
X007515Y009288D01*
X007586Y009117D01*
X007717Y008986D01*
X007888Y008915D01*
X008072Y008915D01*
X008243Y008986D01*
X008374Y009117D01*
X008445Y009288D01*
X008445Y009472D01*
X008374Y009643D01*
X008243Y009774D01*
X008072Y009845D01*
X007814Y009815D02*
X006936Y009815D01*
X007046Y009973D02*
X007747Y009973D01*
X007580Y010132D02*
X007090Y010132D01*
X007086Y010290D02*
X007515Y010290D01*
X007515Y010449D02*
X007021Y010449D01*
X006874Y010607D02*
X007571Y010607D01*
X007708Y010766D02*
X007124Y010766D01*
X006600Y011241D02*
X006560Y011241D01*
X006560Y011400D02*
X006600Y011400D01*
X006600Y011558D02*
X006560Y011558D01*
X006560Y011717D02*
X006600Y011717D01*
X006138Y011717D02*
X002010Y011717D01*
X002010Y011558D02*
X006030Y011558D01*
X006030Y011400D02*
X002010Y011400D01*
X002010Y011241D02*
X006030Y011241D01*
X006030Y011083D02*
X002010Y011083D01*
X002010Y010924D02*
X006030Y010924D01*
X006036Y010766D02*
X002010Y010766D01*
X002010Y010607D02*
X006286Y010607D01*
X006139Y010449D02*
X002010Y010449D01*
X002010Y010290D02*
X006074Y010290D01*
X006070Y010132D02*
X002010Y010132D01*
X002010Y009973D02*
X005993Y009973D01*
X005834Y009815D02*
X002010Y009815D01*
X002010Y009656D02*
X005690Y009656D01*
X005690Y009498D02*
X002010Y009498D01*
X002010Y009339D02*
X005690Y009339D01*
X005690Y009181D02*
X002010Y009181D01*
X002010Y009022D02*
X005690Y009022D01*
X005690Y008864D02*
X002010Y008864D01*
X002010Y008705D02*
X005690Y008705D01*
X005690Y008547D02*
X002010Y008547D01*
X002010Y008388D02*
X005690Y008388D01*
X005690Y008230D02*
X002010Y008230D01*
X002010Y008071D02*
X005690Y008071D01*
X005690Y007913D02*
X002010Y007913D01*
X002010Y007754D02*
X005690Y007754D01*
X005690Y007596D02*
X002010Y007596D01*
X002010Y007437D02*
X005690Y007437D01*
X005690Y007279D02*
X003503Y007279D01*
X003469Y007312D02*
X003612Y007169D01*
X003690Y006981D01*
X003690Y006779D01*
X003612Y006591D01*
X003469Y006448D01*
X003281Y006370D01*
X003079Y006370D01*
X002891Y006448D01*
X002748Y006591D01*
X002670Y006779D01*
X002670Y006981D01*
X002748Y007169D01*
X002891Y007312D01*
X003079Y007390D01*
X003281Y007390D01*
X003469Y007312D01*
X003633Y007120D02*
X005690Y007120D01*
X005690Y006962D02*
X003690Y006962D01*
X003690Y006803D02*
X005690Y006803D01*
X005690Y006645D02*
X003634Y006645D01*
X003507Y006486D02*
X004369Y006486D01*
X004379Y006490D02*
X004191Y006412D01*
X004048Y006269D01*
X003970Y006081D01*
X003970Y005879D01*
X004048Y005691D01*
X004191Y005548D01*
X004379Y005470D01*
X004581Y005470D01*
X004769Y005548D01*
X004912Y005691D01*
X004959Y005804D01*
X004970Y005769D01*
X005010Y005692D01*
X005060Y005622D01*
X005122Y005560D01*
X005192Y005510D01*
X005269Y005470D01*
X005351Y005444D01*
X005437Y005430D01*
X005480Y005430D01*
X005523Y005430D01*
X005609Y005444D01*
X005691Y005470D01*
X005768Y005510D01*
X005838Y005560D01*
X005900Y005622D01*
X005950Y005692D01*
X005990Y005769D01*
X006016Y005851D01*
X006030Y005937D01*
X006030Y005980D01*
X006030Y006023D01*
X006016Y006109D01*
X005990Y006191D01*
X005950Y006268D01*
X005900Y006338D01*
X005838Y006400D01*
X005768Y006450D01*
X005691Y006490D01*
X005609Y006516D01*
X005523Y006530D01*
X005480Y006530D01*
X005480Y005980D01*
X006030Y005980D01*
X005480Y005980D01*
X005480Y005980D01*
X005480Y005980D01*
X005480Y005430D01*
X005480Y005980D01*
X005480Y005980D01*
X005480Y006530D01*
X005437Y006530D01*
X005351Y006516D01*
X005269Y006490D01*
X005192Y006450D01*
X005122Y006400D01*
X005060Y006338D01*
X005010Y006268D01*
X004970Y006191D01*
X004959Y006156D01*
X004912Y006269D01*
X004769Y006412D01*
X004581Y006490D01*
X004379Y006490D01*
X004591Y006486D02*
X005262Y006486D01*
X005480Y006486D02*
X005480Y006486D01*
X005480Y006328D02*
X005480Y006328D01*
X005480Y006169D02*
X005480Y006169D01*
X005480Y006011D02*
X005480Y006011D01*
X005480Y005852D02*
X005480Y005852D01*
X005480Y005694D02*
X005480Y005694D01*
X005480Y005535D02*
X005480Y005535D01*
X005803Y005535D02*
X006050Y005535D01*
X006050Y005377D02*
X002010Y005377D01*
X002010Y005535D02*
X004222Y005535D01*
X004047Y005694D02*
X002010Y005694D01*
X002010Y005852D02*
X003981Y005852D01*
X003970Y006011D02*
X002010Y006011D01*
X002010Y006169D02*
X004006Y006169D01*
X004106Y006328D02*
X002010Y006328D01*
X002010Y006486D02*
X002853Y006486D01*
X002726Y006645D02*
X002010Y006645D01*
X002010Y006803D02*
X002670Y006803D01*
X002670Y006962D02*
X002010Y006962D01*
X002010Y007120D02*
X002727Y007120D01*
X002857Y007279D02*
X002010Y007279D01*
X004854Y006328D02*
X005053Y006328D01*
X004963Y006169D02*
X004954Y006169D01*
X004913Y005694D02*
X005009Y005694D01*
X005157Y005535D02*
X004738Y005535D01*
X005951Y005694D02*
X006050Y005694D01*
X006050Y005852D02*
X006017Y005852D01*
X006030Y006011D02*
X006050Y006011D01*
X006050Y006169D02*
X005997Y006169D01*
X005952Y006328D02*
X005907Y006328D01*
X005794Y006486D02*
X005698Y006486D01*
X006116Y006645D02*
X010490Y006645D01*
X010490Y006803D02*
X006030Y006803D01*
X006030Y006962D02*
X010490Y006962D01*
X010490Y007120D02*
X006030Y007120D01*
X006030Y007279D02*
X010490Y007279D01*
X010490Y007437D02*
X006030Y007437D01*
X006030Y007596D02*
X010490Y007596D01*
X010490Y007754D02*
X006875Y007754D01*
X007021Y007913D02*
X010490Y007913D01*
X010490Y008071D02*
X007087Y008071D01*
X007090Y008230D02*
X010490Y008230D01*
X010490Y008388D02*
X007046Y008388D01*
X006935Y008547D02*
X010490Y008547D01*
X010490Y008705D02*
X006766Y008705D01*
X006985Y008864D02*
X010490Y008864D01*
X010490Y009022D02*
X008280Y009022D01*
X008401Y009181D02*
X010490Y009181D01*
X010490Y009339D02*
X008445Y009339D01*
X008435Y009498D02*
X010490Y009498D01*
X010490Y009656D02*
X008362Y009656D01*
X007598Y009656D02*
X006763Y009656D01*
X006984Y009498D02*
X007525Y009498D01*
X007515Y009339D02*
X007066Y009339D01*
X007090Y009181D02*
X007559Y009181D01*
X007680Y009022D02*
X007067Y009022D01*
X006394Y008705D02*
X006030Y008705D01*
X006030Y008547D02*
X006225Y008547D01*
X006114Y008388D02*
X006030Y008388D01*
X006030Y008230D02*
X006070Y008230D01*
X006073Y008071D02*
X006030Y008071D01*
X006030Y007913D02*
X006139Y007913D01*
X006030Y007754D02*
X006285Y007754D01*
X006175Y008864D02*
X006030Y008864D01*
X006030Y009022D02*
X006093Y009022D01*
X006070Y009181D02*
X006030Y009181D01*
X006030Y009339D02*
X006094Y009339D01*
X006030Y009498D02*
X006176Y009498D01*
X006156Y009656D02*
X006397Y009656D01*
X006274Y006486D02*
X008769Y006486D01*
X008779Y006490D02*
X008591Y006412D01*
X008448Y006269D01*
X008370Y006081D01*
X008370Y005879D01*
X008448Y005691D01*
X008591Y005548D01*
X008779Y005470D01*
X008981Y005470D01*
X009169Y005548D01*
X009312Y005691D01*
X009359Y005804D01*
X009370Y005769D01*
X009410Y005692D01*
X009460Y005622D01*
X009522Y005560D01*
X009592Y005510D01*
X009669Y005470D01*
X009751Y005444D01*
X009837Y005430D01*
X009880Y005430D01*
X009923Y005430D01*
X010009Y005444D01*
X010091Y005470D01*
X010168Y005510D01*
X010238Y005560D01*
X010300Y005622D01*
X010350Y005692D01*
X010390Y005769D01*
X010416Y005851D01*
X010430Y005937D01*
X010430Y005980D01*
X010430Y006023D01*
X010416Y006109D01*
X010390Y006191D01*
X010350Y006268D01*
X010300Y006338D01*
X010238Y006400D01*
X010168Y006450D01*
X010091Y006490D01*
X010009Y006516D01*
X009923Y006530D01*
X009880Y006530D01*
X009880Y005980D01*
X010430Y005980D01*
X009880Y005980D01*
X009880Y005980D01*
X009880Y005980D01*
X009880Y005430D01*
X009880Y005980D01*
X009880Y005980D01*
X009880Y006530D01*
X009837Y006530D01*
X009751Y006516D01*
X009669Y006490D01*
X009592Y006450D01*
X009522Y006400D01*
X009460Y006338D01*
X009410Y006268D01*
X009370Y006191D01*
X009359Y006156D01*
X009312Y006269D01*
X009169Y006412D01*
X008981Y006490D01*
X008779Y006490D01*
X008991Y006486D02*
X009662Y006486D01*
X009880Y006486D02*
X009880Y006486D01*
X009880Y006328D02*
X009880Y006328D01*
X009880Y006169D02*
X009880Y006169D01*
X009880Y006011D02*
X009880Y006011D01*
X009880Y005852D02*
X009880Y005852D01*
X009880Y005694D02*
X009880Y005694D01*
X009880Y005535D02*
X009880Y005535D01*
X010203Y005535D02*
X010435Y005535D01*
X010490Y005694D02*
X010351Y005694D01*
X010417Y005852D02*
X010490Y005852D01*
X010490Y006011D02*
X010430Y006011D01*
X010397Y006169D02*
X010490Y006169D01*
X010490Y006328D02*
X010307Y006328D01*
X010490Y006486D02*
X010098Y006486D01*
X009453Y006328D02*
X009254Y006328D01*
X009354Y006169D02*
X009363Y006169D01*
X009313Y005694D02*
X009409Y005694D01*
X009557Y005535D02*
X009138Y005535D01*
X008622Y005535D02*
X006390Y005535D01*
X006390Y005377D02*
X007046Y005377D01*
X007079Y005390D02*
X006891Y005312D01*
X006748Y005169D01*
X006670Y004981D01*
X006670Y004779D01*
X006748Y004591D01*
X006891Y004448D01*
X007079Y004370D01*
X007281Y004370D01*
X007469Y004448D01*
X007612Y004591D01*
X007690Y004779D01*
X007690Y004981D01*
X007612Y005169D01*
X007469Y005312D01*
X007281Y005390D01*
X007079Y005390D01*
X007314Y005377D02*
X010276Y005377D01*
X010118Y005218D02*
X007563Y005218D01*
X007658Y005060D02*
X009959Y005060D01*
X009950Y004901D02*
X007690Y004901D01*
X007675Y004743D02*
X009950Y004743D01*
X009950Y004584D02*
X009754Y004584D01*
X009738Y004600D02*
X009800Y004538D01*
X009850Y004468D01*
X009890Y004391D01*
X009916Y004309D01*
X009930Y004223D01*
X009930Y004200D01*
X009400Y004200D01*
X009400Y004730D01*
X009423Y004730D01*
X009509Y004716D01*
X009591Y004690D01*
X009668Y004650D01*
X009738Y004600D01*
X009872Y004426D02*
X009950Y004426D01*
X009950Y004267D02*
X009923Y004267D01*
X009926Y004109D02*
X009950Y004109D01*
X009950Y003950D02*
X009880Y003950D01*
X009950Y003792D02*
X009769Y003792D01*
X009619Y003633D02*
X009950Y003633D01*
X009950Y003475D02*
X009807Y003475D01*
X009876Y003316D02*
X009950Y003316D01*
X009141Y003633D02*
X009007Y003633D01*
X008991Y003792D02*
X006390Y003792D01*
X006390Y003950D02*
X008880Y003950D01*
X008834Y004109D02*
X006390Y004109D01*
X006390Y004267D02*
X008837Y004267D01*
X008888Y004426D02*
X007415Y004426D01*
X007605Y004584D02*
X009006Y004584D01*
X009360Y004584D02*
X009400Y004584D01*
X009400Y004426D02*
X009360Y004426D01*
X009360Y004267D02*
X009400Y004267D01*
X008844Y003316D02*
X005516Y003316D01*
X005490Y003158D02*
X008870Y003158D01*
X008903Y002999D02*
X005457Y002999D01*
X005362Y002841D02*
X008998Y002841D01*
X007565Y002365D02*
X007342Y002365D01*
X005353Y003633D02*
X005219Y003633D01*
X005369Y003792D02*
X006050Y003792D01*
X006050Y003950D02*
X005480Y003950D01*
X005526Y004109D02*
X006050Y004109D01*
X006050Y004267D02*
X005523Y004267D01*
X005516Y004309D02*
X005490Y004391D01*
X005450Y004468D01*
X005400Y004538D01*
X005338Y004600D01*
X005268Y004650D01*
X005191Y004690D01*
X005109Y004716D01*
X005023Y004730D01*
X005000Y004730D01*
X005000Y004200D01*
X005530Y004200D01*
X005530Y004223D01*
X005516Y004309D01*
X005472Y004426D02*
X006050Y004426D01*
X006050Y004584D02*
X005354Y004584D01*
X005000Y004584D02*
X004960Y004584D01*
X004960Y004426D02*
X005000Y004426D01*
X005000Y004267D02*
X004960Y004267D01*
X004606Y004584D02*
X002010Y004584D01*
X002010Y004426D02*
X004488Y004426D01*
X004437Y004267D02*
X003514Y004267D01*
X003469Y004312D02*
X003612Y004169D01*
X003690Y003981D01*
X003690Y003779D01*
X003612Y003591D01*
X003469Y003448D01*
X003281Y003370D01*
X003079Y003370D01*
X002891Y003448D01*
X002748Y003591D01*
X002670Y003779D01*
X002670Y003981D01*
X002748Y004169D01*
X002891Y004312D01*
X003079Y004390D01*
X003281Y004390D01*
X003469Y004312D01*
X003637Y004109D02*
X004434Y004109D01*
X004480Y003950D02*
X003690Y003950D01*
X003690Y003792D02*
X004591Y003792D01*
X004741Y003633D02*
X003630Y003633D01*
X003496Y003475D02*
X004553Y003475D01*
X004484Y003316D02*
X002010Y003316D01*
X002010Y003158D02*
X004470Y003158D01*
X004503Y002999D02*
X002010Y002999D01*
X002010Y002841D02*
X004598Y002841D01*
X002864Y003475D02*
X002010Y003475D01*
X002010Y003633D02*
X002730Y003633D01*
X002670Y003792D02*
X002010Y003792D01*
X002010Y003950D02*
X002670Y003950D01*
X002723Y004109D02*
X002010Y004109D01*
X002010Y004267D02*
X002846Y004267D01*
X002010Y004743D02*
X006050Y004743D01*
X006050Y004901D02*
X002010Y004901D01*
X002010Y005060D02*
X006050Y005060D01*
X006050Y005218D02*
X002010Y005218D01*
X006390Y005218D02*
X006797Y005218D01*
X006702Y005060D02*
X006390Y005060D01*
X006390Y004901D02*
X006670Y004901D01*
X006685Y004743D02*
X006390Y004743D01*
X006390Y004584D02*
X006755Y004584D01*
X006945Y004426D02*
X006390Y004426D01*
X006390Y005694D02*
X008447Y005694D01*
X008381Y005852D02*
X006390Y005852D01*
X006390Y006011D02*
X008370Y006011D01*
X008406Y006169D02*
X006390Y006169D01*
X006390Y006328D02*
X008506Y006328D01*
X011254Y005694D02*
X011690Y005694D01*
X011690Y005852D02*
X011412Y005852D01*
X011571Y006011D02*
X011690Y006011D01*
X012150Y006011D02*
X012170Y006011D01*
X012181Y005852D02*
X012150Y005852D01*
X012150Y005694D02*
X012247Y005694D01*
X012150Y005535D02*
X012422Y005535D01*
X012150Y005377D02*
X014056Y005377D01*
X014003Y005535D02*
X014215Y005535D01*
X014270Y005694D02*
X014151Y005694D01*
X014217Y005852D02*
X014270Y005852D01*
X014270Y006011D02*
X014230Y006011D01*
X014197Y006169D02*
X014270Y006169D01*
X014112Y006328D02*
X014107Y006328D01*
X013954Y006486D02*
X013898Y006486D01*
X013795Y006645D02*
X012330Y006645D01*
X012330Y006803D02*
X013637Y006803D01*
X013478Y006962D02*
X012330Y006962D01*
X012330Y007120D02*
X013320Y007120D01*
X013161Y007279D02*
X012330Y007279D01*
X012330Y007437D02*
X013003Y007437D01*
X012844Y007596D02*
X012330Y007596D01*
X012330Y007754D02*
X012686Y007754D01*
X012527Y007913D02*
X012330Y007913D01*
X012330Y008071D02*
X012369Y008071D01*
X012570Y008705D02*
X012573Y008705D01*
X012569Y006486D02*
X012330Y006486D01*
X012306Y006328D02*
X012248Y006328D01*
X012791Y006486D02*
X013462Y006486D01*
X013680Y006486D02*
X013680Y006486D01*
X013680Y006328D02*
X013680Y006328D01*
X013680Y006169D02*
X013680Y006169D01*
X013680Y006011D02*
X013680Y006011D01*
X013680Y005852D02*
X013680Y005852D01*
X013680Y005694D02*
X013680Y005694D01*
X013680Y005535D02*
X013680Y005535D01*
X013357Y005535D02*
X012938Y005535D01*
X013113Y005694D02*
X013209Y005694D01*
X013163Y006169D02*
X013154Y006169D01*
X013054Y006328D02*
X013253Y006328D01*
X014610Y005852D02*
X014768Y005852D01*
X014610Y005694D02*
X014926Y005694D01*
X015085Y005535D02*
X014610Y005535D01*
X014679Y005390D02*
X014491Y005312D01*
X014348Y005169D01*
X014270Y004981D01*
X014270Y004779D01*
X014348Y004591D01*
X014491Y004448D01*
X014679Y004370D01*
X014881Y004370D01*
X015069Y004448D01*
X015212Y004591D01*
X015290Y004779D01*
X015290Y004981D01*
X015212Y005169D01*
X015069Y005312D01*
X014881Y005390D01*
X014679Y005390D01*
X014646Y005377D02*
X014537Y005377D01*
X014397Y005218D02*
X014378Y005218D01*
X014302Y005060D02*
X014220Y005060D01*
X014270Y004901D02*
X014130Y004901D01*
X014130Y004743D02*
X014285Y004743D01*
X014355Y004584D02*
X014130Y004584D01*
X014130Y004426D02*
X014545Y004426D01*
X014130Y004267D02*
X015650Y004267D01*
X015650Y004109D02*
X014130Y004109D01*
X014130Y003950D02*
X015650Y003950D01*
X015650Y003792D02*
X014130Y003792D01*
X014130Y003633D02*
X015650Y003633D01*
X015650Y003475D02*
X014130Y003475D01*
X014130Y003316D02*
X015650Y003316D01*
X015650Y003158D02*
X014130Y003158D01*
X014130Y002999D02*
X015650Y002999D01*
X015650Y002841D02*
X014130Y002841D01*
X014130Y002682D02*
X015718Y002682D01*
X015876Y002524D02*
X014130Y002524D01*
X013790Y002841D02*
X013562Y002841D01*
X013657Y002999D02*
X013790Y002999D01*
X013790Y003158D02*
X013690Y003158D01*
X013676Y003316D02*
X013790Y003316D01*
X013790Y003475D02*
X013607Y003475D01*
X013790Y003633D02*
X013419Y003633D01*
X013569Y003792D02*
X013790Y003792D01*
X013790Y003950D02*
X013680Y003950D01*
X013726Y004109D02*
X013790Y004109D01*
X013730Y004200D02*
X013730Y004223D01*
X013716Y004309D01*
X013690Y004391D01*
X013650Y004468D01*
X013600Y004538D01*
X013538Y004600D01*
X013468Y004650D01*
X013391Y004690D01*
X013309Y004716D01*
X013223Y004730D01*
X013200Y004730D01*
X013200Y004200D01*
X013730Y004200D01*
X013723Y004267D02*
X013790Y004267D01*
X013790Y004426D02*
X013672Y004426D01*
X013554Y004584D02*
X013790Y004584D01*
X013790Y004743D02*
X012150Y004743D01*
X012150Y004901D02*
X013790Y004901D01*
X013790Y005060D02*
X012150Y005060D01*
X012150Y005218D02*
X013898Y005218D01*
X014914Y005377D02*
X015243Y005377D01*
X015163Y005218D02*
X015402Y005218D01*
X015258Y005060D02*
X015560Y005060D01*
X015650Y004901D02*
X015290Y004901D01*
X015275Y004743D02*
X015650Y004743D01*
X015650Y004584D02*
X015205Y004584D01*
X015015Y004426D02*
X015650Y004426D01*
X015990Y004426D02*
X016088Y004426D01*
X016037Y004267D02*
X015990Y004267D01*
X015990Y004109D02*
X016034Y004109D01*
X015990Y003950D02*
X016080Y003950D01*
X015990Y003792D02*
X016191Y003792D01*
X016341Y003633D02*
X015990Y003633D01*
X015990Y003475D02*
X016153Y003475D01*
X016084Y003316D02*
X015990Y003316D01*
X015990Y003158D02*
X016070Y003158D01*
X016103Y002999D02*
X015990Y002999D01*
X016040Y002841D02*
X016198Y002841D01*
X016198Y002682D02*
X016450Y002682D01*
X016710Y002682D02*
X019261Y002682D01*
X019291Y002712D02*
X019148Y002569D01*
X019070Y002381D01*
X019070Y002179D01*
X019148Y001991D01*
X019291Y001848D01*
X019479Y001770D01*
X019681Y001770D01*
X019869Y001848D01*
X020012Y001991D01*
X020090Y002179D01*
X020090Y002381D01*
X020012Y002569D01*
X019869Y002712D01*
X019681Y002790D01*
X019479Y002790D01*
X019291Y002712D01*
X019129Y002524D02*
X016958Y002524D01*
X017055Y002365D02*
X019070Y002365D01*
X019070Y002207D02*
X017090Y002207D01*
X017077Y002048D02*
X019124Y002048D01*
X019249Y001890D02*
X017011Y001890D01*
X015194Y001573D02*
X022735Y001573D01*
X022801Y001414D02*
X014988Y001414D01*
X014572Y001414D02*
X014414Y001414D01*
X014256Y001256D02*
X022888Y001256D01*
X023047Y001097D02*
X014097Y001097D01*
X013934Y001414D02*
X013694Y001414D01*
X012931Y001731D02*
X011689Y001731D01*
X011690Y001890D02*
X012749Y001890D01*
X012683Y002048D02*
X011662Y002048D01*
X011575Y002207D02*
X012670Y002207D01*
X012615Y002365D02*
X011342Y002365D01*
X011084Y002524D02*
X012456Y002524D01*
X012298Y002682D02*
X011242Y002682D01*
X011401Y002841D02*
X012139Y002841D01*
X011981Y002999D02*
X011559Y002999D01*
X011718Y003158D02*
X011822Y003158D01*
X011018Y002365D02*
X010925Y002365D01*
X010785Y002207D02*
X010767Y002207D01*
X010698Y002048D02*
X010650Y002048D01*
X010650Y001890D02*
X010670Y001890D01*
X010650Y001731D02*
X010690Y001731D01*
X010708Y001573D02*
X010766Y001573D01*
X010866Y001414D02*
X010972Y001414D01*
X011388Y001414D02*
X011526Y001414D01*
X010310Y001731D02*
X009629Y001731D01*
X013160Y004267D02*
X013200Y004267D01*
X013200Y004426D02*
X013160Y004426D01*
X013160Y004584D02*
X013200Y004584D01*
X012806Y004584D02*
X012150Y004584D01*
X015990Y004584D02*
X016206Y004584D01*
X016560Y004584D02*
X016600Y004584D01*
X016600Y004426D02*
X016560Y004426D01*
X016560Y004267D02*
X016600Y004267D01*
X016757Y005535D02*
X016338Y005535D01*
X016513Y005694D02*
X016609Y005694D01*
X016563Y006169D02*
X016554Y006169D01*
X016454Y006328D02*
X016653Y006328D01*
X019899Y002682D02*
X021261Y002682D01*
X021129Y002524D02*
X020031Y002524D01*
X020090Y002365D02*
X021070Y002365D01*
X021070Y002207D02*
X020090Y002207D01*
X020036Y002048D02*
X021124Y002048D01*
X021249Y001890D02*
X019911Y001890D01*
X002149Y002365D02*
X002010Y002365D01*
X002010Y002207D02*
X002026Y002207D01*
X023825Y012351D02*
X024420Y012351D01*
X024420Y012509D02*
X024125Y012509D01*
X024284Y012668D02*
X024420Y012668D01*
X024420Y012826D02*
X024364Y012826D01*
X024395Y013460D02*
X024420Y013460D01*
X024420Y013619D02*
X024329Y013619D01*
X024420Y013777D02*
X024199Y013777D01*
X024003Y013936D02*
X024420Y013936D01*
D14*
X014980Y010580D03*
X014780Y008780D03*
D15*
X012700Y008460D02*
X012700Y008160D01*
X015820Y005040D01*
X015820Y002820D01*
X016420Y002220D01*
X016540Y002220D01*
X016580Y002180D01*
X014780Y001880D02*
X014740Y001860D01*
X014620Y001860D01*
X013960Y001200D01*
X010840Y001200D01*
X010480Y001560D01*
X010480Y002160D01*
X011860Y003540D01*
X011860Y006240D01*
X011920Y006300D01*
X011920Y013320D01*
X011800Y013560D02*
X010660Y012420D01*
X010660Y005520D01*
X010120Y004980D01*
X010120Y003240D01*
X009520Y002640D01*
X009160Y002640D01*
X009040Y002520D01*
X008980Y002520D01*
X008860Y002640D01*
X008080Y002640D01*
X007360Y001920D01*
X007180Y001920D01*
X007180Y001880D01*
X009380Y002180D02*
X009400Y002220D01*
X009520Y002220D01*
X010240Y002940D01*
X010240Y004920D01*
X011680Y006360D01*
X011680Y008460D01*
X012160Y008460D02*
X012160Y006480D01*
X012040Y006360D01*
X012040Y006240D01*
X011980Y006180D01*
X011980Y003240D01*
X013000Y002220D01*
X013180Y002220D01*
X013180Y002180D01*
X013480Y001440D02*
X013960Y001920D01*
X013960Y005040D01*
X014440Y005520D01*
X014440Y006240D01*
X012400Y008280D01*
X012400Y013320D01*
X012580Y013560D02*
X011800Y013560D01*
X012580Y013560D02*
X012820Y013320D01*
X012640Y011640D02*
X016780Y011640D01*
X018220Y010200D01*
X018340Y010200D01*
X018380Y010180D01*
X019120Y010560D02*
X018520Y011160D01*
X018400Y011160D01*
X018380Y011180D01*
X019120Y010560D02*
X019120Y005880D01*
X019540Y005460D01*
X019540Y005280D01*
X019580Y005280D01*
X013480Y001440D02*
X011740Y001440D01*
X011320Y001860D01*
X011200Y001860D01*
X011180Y001880D01*
X009380Y003180D02*
X009220Y003180D01*
X008800Y003600D01*
X006220Y003600D01*
X006220Y006300D01*
X005860Y006660D01*
X005860Y009600D01*
X006400Y010140D01*
X006580Y010140D01*
X006580Y010180D01*
X006220Y003600D02*
X005560Y003600D01*
X005140Y003180D01*
X004980Y003180D01*
D16*
X011680Y008460D03*
X012160Y008460D03*
X012700Y008460D03*
X012640Y011640D03*
X012820Y013320D03*
X012400Y013320D03*
X011920Y013320D03*
M02*
