G75*
%MOIN*%
%OFA0B0*%
%FSLAX24Y24*%
%IPPOS*%
%LPD*%
%AMOC8*
5,1,8,0,0,1.08239X$1,22.5*
%
%ADD10C,0.0650*%
%ADD11R,0.0866X0.0236*%
%ADD12R,0.0740X0.0740*%
%ADD13C,0.0740*%
%ADD14R,0.0709X0.0630*%
%ADD15R,0.0500X0.0250*%
%ADD16R,0.0250X0.0500*%
%ADD17C,0.0160*%
%ADD18OC8,0.0376*%
%ADD19C,0.0060*%
%ADD20C,0.0270*%
D10*
X015580Y007180D03*
X015580Y008180D03*
D11*
X020469Y008130D03*
X020469Y007630D03*
X020469Y007130D03*
X020469Y006630D03*
X020469Y006130D03*
X020469Y005630D03*
X020469Y005130D03*
X024091Y005130D03*
X024091Y005630D03*
X024091Y006130D03*
X024091Y006630D03*
X024091Y007130D03*
X024091Y007630D03*
X024091Y008130D03*
X024091Y008630D03*
X020469Y008630D03*
D12*
X011180Y005580D03*
X030780Y002380D03*
D13*
X030780Y003380D03*
X030780Y004380D03*
X030780Y005380D03*
X031180Y007980D03*
X030180Y007980D03*
X029180Y007980D03*
X028180Y007980D03*
X027180Y007980D03*
X026180Y007980D03*
X032180Y007980D03*
X033180Y007980D03*
X034180Y007980D03*
X035180Y007980D03*
X012980Y008380D03*
X010980Y008380D03*
X009180Y007980D03*
X008180Y007980D03*
X007180Y007980D03*
X010980Y007380D03*
X012980Y007380D03*
X011180Y004580D03*
X011180Y003580D03*
X011180Y002580D03*
D14*
X027780Y003429D03*
X029180Y003429D03*
X029180Y004531D03*
X027780Y004531D03*
D15*
X035180Y006803D03*
X035180Y007157D03*
X017980Y006930D03*
X017980Y006580D03*
X017980Y006230D03*
X017980Y005330D03*
X017980Y004980D03*
X017980Y004630D03*
X017980Y007830D03*
X017980Y008180D03*
X017980Y008530D03*
D16*
X007530Y004380D03*
X007180Y004380D03*
X006830Y004380D03*
D17*
X006010Y002010D02*
X006010Y009046D01*
X024446Y009046D01*
X024430Y009030D01*
X023230Y009030D01*
X023130Y008930D01*
X021490Y007290D01*
X021042Y007290D01*
X021042Y007306D01*
X020968Y007380D01*
X021042Y007454D01*
X021042Y007806D01*
X020968Y007880D01*
X021042Y007954D01*
X021042Y008306D01*
X020968Y008380D01*
X021042Y008454D01*
X021042Y008806D01*
X020960Y008888D01*
X019978Y008888D01*
X019896Y008806D01*
X019896Y008790D01*
X018610Y008790D01*
X018510Y008690D01*
X018370Y008550D01*
X018370Y008713D01*
X018288Y008795D01*
X017672Y008795D01*
X017590Y008713D01*
X017590Y008610D01*
X017290Y008310D01*
X017190Y008210D01*
X017190Y008190D01*
X016230Y008190D01*
X016110Y008310D01*
X016029Y008310D01*
X015974Y008443D01*
X015843Y008574D01*
X015672Y008645D01*
X015488Y008645D01*
X015317Y008574D01*
X015186Y008443D01*
X015115Y008272D01*
X015115Y008115D01*
X015030Y008030D01*
X015010Y008010D01*
X014830Y008010D01*
X014730Y007910D01*
X013465Y006646D01*
X013453Y006676D01*
X013376Y006753D01*
X013275Y006795D01*
X013165Y006795D01*
X013064Y006753D01*
X013001Y006690D01*
X009070Y006690D01*
X008970Y006590D01*
X007150Y004770D01*
X007030Y004770D01*
X007030Y007070D01*
X010350Y007070D01*
X010410Y007130D01*
X010532Y007130D01*
X010548Y007091D01*
X010691Y006948D01*
X010879Y006870D01*
X011081Y006870D01*
X011269Y006948D01*
X011280Y006959D01*
X011470Y006770D01*
X012450Y006770D01*
X012660Y006979D01*
X012691Y006948D01*
X012879Y006870D01*
X013081Y006870D01*
X013269Y006948D01*
X013412Y007091D01*
X013490Y007279D01*
X013490Y007481D01*
X013412Y007669D01*
X013269Y007812D01*
X013156Y007859D01*
X013191Y007870D01*
X013268Y007910D01*
X013338Y007960D01*
X013400Y008022D01*
X013450Y008092D01*
X013490Y008169D01*
X013516Y008251D01*
X013530Y008337D01*
X013530Y008360D01*
X013000Y008360D01*
X013000Y008400D01*
X012960Y008400D01*
X012960Y008930D01*
X012937Y008930D01*
X012851Y008916D01*
X012769Y008890D01*
X012692Y008850D01*
X012622Y008800D01*
X012560Y008738D01*
X012510Y008668D01*
X012470Y008591D01*
X012444Y008509D01*
X012430Y008423D01*
X012430Y008400D01*
X012960Y008400D01*
X012960Y008360D01*
X012430Y008360D01*
X012430Y008337D01*
X012444Y008251D01*
X012470Y008169D01*
X012510Y008092D01*
X012560Y008022D01*
X012622Y007960D01*
X012692Y007910D01*
X012769Y007870D01*
X012804Y007859D01*
X012691Y007812D01*
X012548Y007669D01*
X012470Y007481D01*
X012470Y007279D01*
X012472Y007273D01*
X012310Y007110D01*
X011610Y007110D01*
X011476Y007245D01*
X011490Y007279D01*
X011490Y007481D01*
X011412Y007669D01*
X011269Y007812D01*
X011156Y007859D01*
X011191Y007870D01*
X011268Y007910D01*
X011338Y007960D01*
X011400Y008022D01*
X011450Y008092D01*
X011490Y008169D01*
X011516Y008251D01*
X011530Y008337D01*
X011530Y008360D01*
X011000Y008360D01*
X011000Y008400D01*
X011530Y008400D01*
X011530Y008423D01*
X011516Y008509D01*
X011490Y008591D01*
X011450Y008668D01*
X011400Y008738D01*
X011338Y008800D01*
X011268Y008850D01*
X011191Y008890D01*
X011109Y008916D01*
X011023Y008930D01*
X011000Y008930D01*
X011000Y008400D01*
X010960Y008400D01*
X010960Y008930D01*
X010937Y008930D01*
X010851Y008916D01*
X010769Y008890D01*
X010692Y008850D01*
X010622Y008800D01*
X010560Y008738D01*
X010510Y008668D01*
X010470Y008591D01*
X010444Y008509D01*
X010430Y008423D01*
X010430Y008400D01*
X010960Y008400D01*
X010960Y008360D01*
X010430Y008360D01*
X010430Y008337D01*
X010444Y008251D01*
X010470Y008169D01*
X010510Y008092D01*
X010560Y008022D01*
X010622Y007960D01*
X010692Y007910D01*
X010769Y007870D01*
X010804Y007859D01*
X010691Y007812D01*
X010548Y007669D01*
X010470Y007481D01*
X010470Y007470D01*
X010270Y007470D01*
X010210Y007410D01*
X007270Y007410D01*
X007270Y007470D01*
X007281Y007470D01*
X007469Y007548D01*
X007612Y007691D01*
X007680Y007854D01*
X007748Y007691D01*
X007891Y007548D01*
X008079Y007470D01*
X008281Y007470D01*
X008469Y007548D01*
X008612Y007691D01*
X008659Y007804D01*
X008670Y007769D01*
X008710Y007692D01*
X008760Y007622D01*
X008822Y007560D01*
X008892Y007510D01*
X008969Y007470D01*
X009051Y007444D01*
X009137Y007430D01*
X009160Y007430D01*
X009160Y007960D01*
X009200Y007960D01*
X009200Y008000D01*
X009160Y008000D01*
X009160Y008530D01*
X009137Y008530D01*
X009051Y008516D01*
X008969Y008490D01*
X008892Y008450D01*
X008822Y008400D01*
X008760Y008338D01*
X008710Y008268D01*
X008670Y008191D01*
X008659Y008156D01*
X008612Y008269D01*
X008469Y008412D01*
X008281Y008490D01*
X008079Y008490D01*
X007891Y008412D01*
X007748Y008269D01*
X007680Y008106D01*
X007612Y008269D01*
X007469Y008412D01*
X007281Y008490D01*
X007079Y008490D01*
X006891Y008412D01*
X006748Y008269D01*
X006670Y008081D01*
X006670Y007879D01*
X006748Y007691D01*
X006891Y007548D01*
X006917Y007537D01*
X006910Y007530D01*
X006910Y007530D01*
X006810Y007430D01*
X006690Y007310D01*
X006690Y004770D01*
X006647Y004770D01*
X006565Y004688D01*
X006565Y004072D01*
X006647Y003990D01*
X007713Y003990D01*
X007795Y004072D01*
X007795Y004190D01*
X010590Y004190D01*
X010710Y004310D01*
X010740Y004310D01*
X010748Y004291D01*
X010891Y004148D01*
X011054Y004080D01*
X010891Y004012D01*
X010748Y003869D01*
X010670Y003681D01*
X010670Y003479D01*
X010748Y003291D01*
X010891Y003148D01*
X011054Y003080D01*
X010891Y003012D01*
X010748Y002869D01*
X010670Y002681D01*
X010670Y002479D01*
X010748Y002291D01*
X010891Y002148D01*
X011079Y002070D01*
X011281Y002070D01*
X011469Y002148D01*
X011612Y002291D01*
X011690Y002479D01*
X011690Y002681D01*
X011612Y002869D01*
X011469Y003012D01*
X011306Y003080D01*
X011469Y003148D01*
X011612Y003291D01*
X011690Y003479D01*
X011690Y003681D01*
X011612Y003869D01*
X011469Y004012D01*
X011306Y004080D01*
X011469Y004148D01*
X011612Y004291D01*
X011690Y004479D01*
X011690Y004490D01*
X011790Y004490D01*
X014970Y007670D01*
X015150Y007670D01*
X015270Y007790D01*
X015312Y007790D01*
X015317Y007786D01*
X015488Y007715D01*
X015672Y007715D01*
X015843Y007786D01*
X015974Y007917D01*
X015988Y007951D01*
X015990Y007950D01*
X016090Y007850D01*
X017190Y007850D01*
X017190Y006690D01*
X017240Y006640D01*
X017190Y006590D01*
X017190Y005430D01*
X017240Y005380D01*
X017190Y005330D01*
X017190Y004290D01*
X017290Y004190D01*
X018250Y003230D01*
X027286Y003230D01*
X027286Y003056D01*
X027368Y002974D01*
X028192Y002974D01*
X028274Y003056D01*
X028274Y003230D01*
X028686Y003230D01*
X028686Y003056D01*
X028768Y002974D01*
X029592Y002974D01*
X029674Y003056D01*
X029674Y003230D01*
X030150Y003230D01*
X030210Y003290D01*
X030270Y003290D01*
X030270Y003279D01*
X030348Y003091D01*
X030491Y002948D01*
X030534Y002930D01*
X030386Y002930D01*
X030341Y002918D01*
X030299Y002894D01*
X030266Y002861D01*
X030242Y002819D01*
X030230Y002774D01*
X030230Y002400D01*
X030760Y002400D01*
X030760Y002360D01*
X030230Y002360D01*
X030230Y002010D01*
X006010Y002010D01*
X006010Y002097D02*
X011013Y002097D01*
X010783Y002256D02*
X006010Y002256D01*
X006010Y002414D02*
X010697Y002414D01*
X010670Y002573D02*
X006010Y002573D01*
X006010Y002731D02*
X010691Y002731D01*
X010768Y002890D02*
X006010Y002890D01*
X006010Y003048D02*
X010977Y003048D01*
X010832Y003207D02*
X006010Y003207D01*
X006010Y003365D02*
X010717Y003365D01*
X010670Y003524D02*
X006010Y003524D01*
X006010Y003682D02*
X010670Y003682D01*
X010736Y003841D02*
X006010Y003841D01*
X006010Y003999D02*
X006638Y003999D01*
X006565Y004158D02*
X006010Y004158D01*
X006010Y004316D02*
X006565Y004316D01*
X006565Y004475D02*
X006010Y004475D01*
X006010Y004633D02*
X006565Y004633D01*
X006690Y004792D02*
X006010Y004792D01*
X006010Y004950D02*
X006690Y004950D01*
X006690Y005109D02*
X006010Y005109D01*
X006010Y005267D02*
X006690Y005267D01*
X006690Y005426D02*
X006010Y005426D01*
X006010Y005584D02*
X006690Y005584D01*
X006690Y005743D02*
X006010Y005743D01*
X006010Y005901D02*
X006690Y005901D01*
X006690Y006060D02*
X006010Y006060D01*
X006010Y006218D02*
X006690Y006218D01*
X006690Y006377D02*
X006010Y006377D01*
X006010Y006535D02*
X006690Y006535D01*
X006690Y006694D02*
X006010Y006694D01*
X006010Y006852D02*
X006690Y006852D01*
X006690Y007011D02*
X006010Y007011D01*
X006010Y007169D02*
X006690Y007169D01*
X006707Y007328D02*
X006010Y007328D01*
X006010Y007486D02*
X006866Y007486D01*
X006810Y007430D02*
X006810Y007430D01*
X006794Y007645D02*
X006010Y007645D01*
X006010Y007803D02*
X006701Y007803D01*
X006670Y007962D02*
X006010Y007962D01*
X006010Y008120D02*
X006686Y008120D01*
X006757Y008279D02*
X006010Y008279D01*
X006010Y008437D02*
X006951Y008437D01*
X007409Y008437D02*
X007951Y008437D01*
X007757Y008279D02*
X007603Y008279D01*
X007674Y008120D02*
X007686Y008120D01*
X007701Y007803D02*
X007659Y007803D01*
X007566Y007645D02*
X007794Y007645D01*
X008040Y007486D02*
X007320Y007486D01*
X007030Y007011D02*
X010628Y007011D01*
X011388Y006852D02*
X007030Y006852D01*
X007030Y006694D02*
X013005Y006694D01*
X013435Y006694D02*
X013513Y006694D01*
X013672Y006852D02*
X012532Y006852D01*
X012369Y007169D02*
X011551Y007169D01*
X011490Y007328D02*
X012470Y007328D01*
X012472Y007486D02*
X011488Y007486D01*
X011422Y007645D02*
X012538Y007645D01*
X012682Y007803D02*
X011278Y007803D01*
X011339Y007962D02*
X012621Y007962D01*
X012495Y008120D02*
X011465Y008120D01*
X011521Y008279D02*
X012439Y008279D01*
X012432Y008437D02*
X011528Y008437D01*
X011487Y008596D02*
X012473Y008596D01*
X012576Y008754D02*
X011384Y008754D01*
X011121Y008913D02*
X012839Y008913D01*
X012960Y008913D02*
X013000Y008913D01*
X013000Y008930D02*
X013000Y008400D01*
X013530Y008400D01*
X013530Y008423D01*
X013516Y008509D01*
X013490Y008591D01*
X013450Y008668D01*
X013400Y008738D01*
X013338Y008800D01*
X013268Y008850D01*
X013191Y008890D01*
X013109Y008916D01*
X013023Y008930D01*
X013000Y008930D01*
X013121Y008913D02*
X023112Y008913D01*
X022954Y008754D02*
X021042Y008754D01*
X021042Y008596D02*
X022795Y008596D01*
X022637Y008437D02*
X021025Y008437D01*
X021042Y008279D02*
X022478Y008279D01*
X022320Y008120D02*
X021042Y008120D01*
X021042Y007962D02*
X022161Y007962D01*
X022003Y007803D02*
X021042Y007803D01*
X021042Y007645D02*
X021844Y007645D01*
X021686Y007486D02*
X021042Y007486D01*
X021021Y007328D02*
X021527Y007328D01*
X022612Y006852D02*
X023010Y006852D01*
X023010Y006694D02*
X022454Y006694D01*
X022295Y006535D02*
X023010Y006535D01*
X023010Y006377D02*
X022137Y006377D01*
X021978Y006218D02*
X023010Y006218D01*
X023010Y006060D02*
X021820Y006060D01*
X021661Y005901D02*
X023010Y005901D01*
X023010Y005743D02*
X021503Y005743D01*
X021344Y005584D02*
X023010Y005584D01*
X023010Y005426D02*
X021014Y005426D01*
X020992Y005404D02*
X021038Y005450D01*
X021210Y005450D01*
X023010Y007250D01*
X023010Y005055D01*
X023005Y005055D01*
X022904Y005013D01*
X022827Y004936D01*
X022785Y004835D01*
X022785Y004725D01*
X022827Y004624D01*
X022904Y004547D01*
X023005Y004505D01*
X023115Y004505D01*
X023216Y004547D01*
X023224Y004555D01*
X023550Y004230D01*
X023650Y004130D01*
X027130Y004130D01*
X027210Y004050D01*
X027310Y003950D01*
X028290Y003950D01*
X028530Y004190D01*
X028686Y004190D01*
X028686Y004158D01*
X028768Y004076D01*
X029592Y004076D01*
X029674Y004158D01*
X029674Y004370D01*
X030130Y004370D01*
X030190Y004310D01*
X030270Y004310D01*
X030270Y004279D01*
X030348Y004091D01*
X030491Y003948D01*
X030654Y003880D01*
X030491Y003812D01*
X030348Y003669D01*
X030332Y003630D01*
X030070Y003630D01*
X030010Y003570D01*
X029674Y003570D01*
X029674Y003802D01*
X029592Y003884D01*
X028768Y003884D01*
X028686Y003802D01*
X028686Y003570D01*
X028274Y003570D01*
X028274Y003802D01*
X028192Y003884D01*
X027368Y003884D01*
X027286Y003802D01*
X027286Y003570D01*
X018390Y003570D01*
X017530Y004430D01*
X017530Y005150D01*
X017590Y005150D01*
X017590Y004870D01*
X017586Y004866D01*
X017562Y004824D01*
X017550Y004779D01*
X017550Y004630D01*
X017980Y004630D01*
X018410Y004630D01*
X018410Y004779D01*
X018398Y004824D01*
X018374Y004866D01*
X018370Y004870D01*
X018370Y004950D01*
X019770Y006350D01*
X019870Y006450D01*
X019870Y007290D01*
X019965Y007385D01*
X019970Y007380D01*
X019896Y007306D01*
X019896Y006954D01*
X019970Y006880D01*
X019896Y006806D01*
X019896Y006454D01*
X019970Y006380D01*
X019896Y006306D01*
X019896Y005954D01*
X019970Y005880D01*
X019896Y005806D01*
X019896Y005454D01*
X019946Y005404D01*
X019925Y005392D01*
X019892Y005359D01*
X019868Y005318D01*
X019856Y005272D01*
X019856Y005130D01*
X019856Y004988D01*
X019868Y004942D01*
X019892Y004901D01*
X019925Y004868D01*
X019966Y004844D01*
X020012Y004832D01*
X020469Y004832D01*
X020926Y004832D01*
X020972Y004844D01*
X021013Y004868D01*
X021046Y004901D01*
X021070Y004942D01*
X021082Y004988D01*
X021082Y005130D01*
X021082Y005272D01*
X021070Y005318D01*
X021046Y005359D01*
X021013Y005392D01*
X020992Y005404D01*
X021082Y005267D02*
X023010Y005267D01*
X023010Y005109D02*
X021082Y005109D01*
X021082Y005130D02*
X020469Y005130D01*
X021082Y005130D01*
X021072Y004950D02*
X022841Y004950D01*
X022785Y004792D02*
X018407Y004792D01*
X018410Y004633D02*
X022823Y004633D01*
X023305Y004475D02*
X018408Y004475D01*
X018410Y004481D02*
X018410Y004630D01*
X017980Y004630D01*
X017980Y004630D01*
X017980Y004325D01*
X018254Y004325D01*
X018299Y004337D01*
X018341Y004361D01*
X018374Y004394D01*
X018398Y004436D01*
X018410Y004481D01*
X017980Y004475D02*
X017980Y004475D01*
X017980Y004325D02*
X017706Y004325D01*
X017661Y004337D01*
X017619Y004361D01*
X017586Y004394D01*
X017562Y004436D01*
X017550Y004481D01*
X017550Y004630D01*
X017980Y004630D01*
X017980Y004630D01*
X017980Y004630D01*
X017980Y004325D01*
X017803Y004158D02*
X023622Y004158D01*
X023464Y004316D02*
X017644Y004316D01*
X017552Y004475D02*
X017530Y004475D01*
X017530Y004633D02*
X017550Y004633D01*
X017553Y004792D02*
X017530Y004792D01*
X017530Y004950D02*
X017590Y004950D01*
X017590Y005109D02*
X017530Y005109D01*
X017190Y005109D02*
X012409Y005109D01*
X012567Y005267D02*
X017190Y005267D01*
X017194Y005426D02*
X012726Y005426D01*
X012884Y005584D02*
X017190Y005584D01*
X017190Y005743D02*
X013043Y005743D01*
X013201Y005901D02*
X017190Y005901D01*
X017190Y006060D02*
X013360Y006060D01*
X013518Y006218D02*
X017190Y006218D01*
X017190Y006377D02*
X013677Y006377D01*
X013835Y006535D02*
X017190Y006535D01*
X017190Y006694D02*
X013994Y006694D01*
X014152Y006852D02*
X015250Y006852D01*
X015186Y006917D02*
X015317Y006786D01*
X015488Y006715D01*
X015672Y006715D01*
X015843Y006786D01*
X015974Y006917D01*
X016045Y007088D01*
X016045Y007272D01*
X015974Y007443D01*
X015843Y007574D01*
X015672Y007645D01*
X015488Y007645D01*
X015317Y007574D01*
X015186Y007443D01*
X015115Y007272D01*
X015115Y007088D01*
X015186Y006917D01*
X015147Y007011D02*
X014311Y007011D01*
X014469Y007169D02*
X015115Y007169D01*
X015138Y007328D02*
X014628Y007328D01*
X014786Y007486D02*
X015228Y007486D01*
X015486Y007645D02*
X014945Y007645D01*
X014623Y007803D02*
X013278Y007803D01*
X013339Y007962D02*
X014781Y007962D01*
X015115Y008120D02*
X013465Y008120D01*
X013521Y008279D02*
X015117Y008279D01*
X015183Y008437D02*
X013528Y008437D01*
X013487Y008596D02*
X015368Y008596D01*
X015792Y008596D02*
X017575Y008596D01*
X017631Y008754D02*
X013384Y008754D01*
X013000Y008754D02*
X012960Y008754D01*
X012960Y008596D02*
X013000Y008596D01*
X013000Y008437D02*
X012960Y008437D01*
X013422Y007645D02*
X014464Y007645D01*
X014306Y007486D02*
X013488Y007486D01*
X013490Y007328D02*
X014147Y007328D01*
X013989Y007169D02*
X013445Y007169D01*
X013332Y007011D02*
X013830Y007011D01*
X013094Y006274D02*
X011650Y004830D01*
X011628Y004830D01*
X011612Y004869D01*
X011469Y005012D01*
X011426Y005030D01*
X011574Y005030D01*
X011619Y005042D01*
X011661Y005066D01*
X011694Y005099D01*
X011718Y005141D01*
X011730Y005186D01*
X011730Y005560D01*
X011200Y005560D01*
X011200Y005600D01*
X011160Y005600D01*
X011160Y006130D01*
X010786Y006130D01*
X010741Y006118D01*
X010699Y006094D01*
X010666Y006061D01*
X010642Y006019D01*
X010630Y005974D01*
X010630Y005600D01*
X011160Y005600D01*
X011160Y005560D01*
X010630Y005560D01*
X010630Y005186D01*
X010642Y005141D01*
X010666Y005099D01*
X010699Y005066D01*
X010741Y005042D01*
X010786Y005030D01*
X010934Y005030D01*
X010891Y005012D01*
X010748Y004869D01*
X010670Y004681D01*
X010670Y004650D01*
X010570Y004650D01*
X010470Y004550D01*
X010450Y004530D01*
X007795Y004530D01*
X007795Y004688D01*
X007713Y004770D01*
X007630Y004770D01*
X009210Y006350D01*
X013001Y006350D01*
X013064Y006287D01*
X013094Y006274D01*
X013038Y006218D02*
X009078Y006218D01*
X008920Y006060D02*
X010665Y006060D01*
X010630Y005901D02*
X008761Y005901D01*
X008603Y005743D02*
X010630Y005743D01*
X011160Y005743D02*
X011200Y005743D01*
X011200Y005600D02*
X011200Y006130D01*
X011574Y006130D01*
X011619Y006118D01*
X011661Y006094D01*
X011694Y006061D01*
X011718Y006019D01*
X011730Y005974D01*
X011730Y005600D01*
X011200Y005600D01*
X011200Y005584D02*
X012404Y005584D01*
X012562Y005743D02*
X011730Y005743D01*
X011730Y005901D02*
X012721Y005901D01*
X012879Y006060D02*
X011695Y006060D01*
X011200Y006060D02*
X011160Y006060D01*
X011160Y005901D02*
X011200Y005901D01*
X011160Y005584D02*
X008444Y005584D01*
X008286Y005426D02*
X010630Y005426D01*
X010630Y005267D02*
X008127Y005267D01*
X007969Y005109D02*
X010661Y005109D01*
X010829Y004950D02*
X007810Y004950D01*
X007652Y004792D02*
X010716Y004792D01*
X010553Y004633D02*
X007795Y004633D01*
X007330Y004950D02*
X007030Y004950D01*
X007030Y004792D02*
X007171Y004792D01*
X007030Y005109D02*
X007488Y005109D01*
X007647Y005267D02*
X007030Y005267D01*
X007030Y005426D02*
X007805Y005426D01*
X007964Y005584D02*
X007030Y005584D01*
X007030Y005743D02*
X008122Y005743D01*
X008281Y005901D02*
X007030Y005901D01*
X007030Y006060D02*
X008439Y006060D01*
X008598Y006218D02*
X007030Y006218D01*
X007030Y006377D02*
X008756Y006377D01*
X008915Y006535D02*
X007030Y006535D01*
X008320Y007486D02*
X008938Y007486D01*
X009160Y007486D02*
X009200Y007486D01*
X009200Y007430D02*
X009223Y007430D01*
X009309Y007444D01*
X009391Y007470D01*
X009468Y007510D01*
X009538Y007560D01*
X009600Y007622D01*
X009650Y007692D01*
X009690Y007769D01*
X009716Y007851D01*
X009730Y007937D01*
X009730Y007960D01*
X009200Y007960D01*
X009200Y007430D01*
X009200Y007645D02*
X009160Y007645D01*
X009160Y007803D02*
X009200Y007803D01*
X009200Y007962D02*
X010621Y007962D01*
X010682Y007803D02*
X009701Y007803D01*
X009616Y007645D02*
X010538Y007645D01*
X010472Y007486D02*
X009422Y007486D01*
X008744Y007645D02*
X008566Y007645D01*
X008659Y007803D02*
X008659Y007803D01*
X009200Y008000D02*
X009200Y008530D01*
X009223Y008530D01*
X009309Y008516D01*
X009391Y008490D01*
X009468Y008450D01*
X009538Y008400D01*
X009600Y008338D01*
X009650Y008268D01*
X009690Y008191D01*
X009716Y008109D01*
X009730Y008023D01*
X009730Y008000D01*
X009200Y008000D01*
X009200Y008120D02*
X009160Y008120D01*
X009160Y008279D02*
X009200Y008279D01*
X009200Y008437D02*
X009160Y008437D01*
X008873Y008437D02*
X008409Y008437D01*
X008603Y008279D02*
X008717Y008279D01*
X009487Y008437D02*
X010432Y008437D01*
X010439Y008279D02*
X009643Y008279D01*
X009713Y008120D02*
X010495Y008120D01*
X010960Y008437D02*
X011000Y008437D01*
X011000Y008596D02*
X010960Y008596D01*
X010960Y008754D02*
X011000Y008754D01*
X011000Y008913D02*
X010960Y008913D01*
X010839Y008913D02*
X006010Y008913D01*
X006010Y008754D02*
X010576Y008754D01*
X010473Y008596D02*
X006010Y008596D01*
X011730Y005426D02*
X012245Y005426D01*
X012087Y005267D02*
X011730Y005267D01*
X011699Y005109D02*
X011928Y005109D01*
X011770Y004950D02*
X011531Y004950D01*
X011933Y004633D02*
X017190Y004633D01*
X017190Y004475D02*
X011688Y004475D01*
X011623Y004316D02*
X017190Y004316D01*
X017322Y004158D02*
X011479Y004158D01*
X011482Y003999D02*
X017481Y003999D01*
X017639Y003841D02*
X011624Y003841D01*
X011690Y003682D02*
X017798Y003682D01*
X017956Y003524D02*
X011690Y003524D01*
X011643Y003365D02*
X018115Y003365D01*
X018278Y003682D02*
X027286Y003682D01*
X027324Y003841D02*
X018120Y003841D01*
X017961Y003999D02*
X027261Y003999D01*
X028236Y003841D02*
X028724Y003841D01*
X028686Y003682D02*
X028274Y003682D01*
X028339Y003999D02*
X030440Y003999D01*
X030559Y003841D02*
X029636Y003841D01*
X029674Y003682D02*
X030361Y003682D01*
X030906Y003880D02*
X031069Y003948D01*
X031212Y004091D01*
X031290Y004279D01*
X031290Y004481D01*
X031212Y004669D01*
X031069Y004812D01*
X030906Y004880D01*
X031069Y004948D01*
X031212Y005091D01*
X031290Y005279D01*
X031290Y005481D01*
X031212Y005669D01*
X031069Y005812D01*
X030881Y005890D01*
X030679Y005890D01*
X030491Y005812D01*
X030348Y005669D01*
X030270Y005481D01*
X030270Y005450D01*
X030250Y005430D01*
X028690Y005430D01*
X028590Y005330D01*
X028290Y005030D01*
X028290Y004910D01*
X028274Y004895D01*
X028274Y004904D01*
X028192Y004986D01*
X027368Y004986D01*
X027286Y004904D01*
X027286Y004830D01*
X023912Y004830D01*
X023895Y004872D01*
X024582Y004872D01*
X024664Y004954D01*
X024664Y004970D01*
X027330Y004970D01*
X029550Y007190D01*
X029730Y007190D01*
X030030Y007490D01*
X030079Y007470D01*
X030281Y007470D01*
X030469Y007548D01*
X030612Y007691D01*
X030680Y007854D01*
X030748Y007691D01*
X030891Y007548D01*
X031079Y007470D01*
X031281Y007470D01*
X031469Y007548D01*
X031612Y007691D01*
X031680Y007854D01*
X031748Y007691D01*
X031891Y007548D01*
X032079Y007470D01*
X032281Y007470D01*
X032469Y007548D01*
X032612Y007691D01*
X032680Y007854D01*
X032748Y007691D01*
X032891Y007548D01*
X033079Y007470D01*
X033281Y007470D01*
X033469Y007548D01*
X033612Y007691D01*
X033680Y007854D01*
X033748Y007691D01*
X033891Y007548D01*
X034079Y007470D01*
X034281Y007470D01*
X034469Y007548D01*
X034612Y007691D01*
X034680Y007854D01*
X034748Y007691D01*
X034891Y007548D01*
X034950Y007523D01*
X034950Y007422D01*
X034872Y007422D01*
X034790Y007340D01*
X034790Y007042D01*
X034786Y007038D01*
X034762Y006997D01*
X034750Y006952D01*
X034750Y006803D01*
X035180Y006803D01*
X035180Y006803D01*
X035610Y006803D01*
X035610Y006952D01*
X035598Y006997D01*
X035574Y007038D01*
X035570Y007042D01*
X035570Y007340D01*
X035488Y007422D01*
X035298Y007422D01*
X035290Y007430D01*
X035290Y007474D01*
X035469Y007548D01*
X035612Y007691D01*
X035690Y007879D01*
X035690Y008081D01*
X035612Y008269D01*
X035469Y008412D01*
X035281Y008490D01*
X035079Y008490D01*
X034891Y008412D01*
X034748Y008269D01*
X034680Y008106D01*
X034612Y008269D01*
X034469Y008412D01*
X034281Y008490D01*
X034079Y008490D01*
X034016Y008464D01*
X033510Y008970D01*
X024990Y008970D01*
X024914Y009046D01*
X036150Y009046D01*
X036150Y002010D01*
X031330Y002010D01*
X031330Y002360D01*
X030800Y002360D01*
X030800Y002400D01*
X031330Y002400D01*
X031330Y002774D01*
X031318Y002819D01*
X031294Y002861D01*
X031261Y002894D01*
X031219Y002918D01*
X031174Y002930D01*
X031026Y002930D01*
X031069Y002948D01*
X031212Y003091D01*
X031290Y003279D01*
X031290Y003481D01*
X031212Y003669D01*
X031069Y003812D01*
X030906Y003880D01*
X031001Y003841D02*
X036150Y003841D01*
X036150Y003999D02*
X031120Y003999D01*
X031240Y004158D02*
X036150Y004158D01*
X036150Y004316D02*
X031290Y004316D01*
X031290Y004475D02*
X036150Y004475D01*
X036150Y004633D02*
X031227Y004633D01*
X031090Y004792D02*
X036150Y004792D01*
X036150Y004950D02*
X031071Y004950D01*
X031220Y005109D02*
X036150Y005109D01*
X036150Y005267D02*
X031285Y005267D01*
X031290Y005426D02*
X036150Y005426D01*
X036150Y005584D02*
X031248Y005584D01*
X031139Y005743D02*
X036150Y005743D01*
X036150Y005901D02*
X028261Y005901D01*
X028103Y005743D02*
X030421Y005743D01*
X030312Y005584D02*
X027944Y005584D01*
X027786Y005426D02*
X028685Y005426D01*
X028590Y005330D02*
X028590Y005330D01*
X028527Y005267D02*
X027627Y005267D01*
X027469Y005109D02*
X028368Y005109D01*
X028290Y004950D02*
X028228Y004950D01*
X027332Y004950D02*
X024660Y004950D01*
X027286Y003207D02*
X011528Y003207D01*
X011383Y003048D02*
X027294Y003048D01*
X028266Y003048D02*
X028694Y003048D01*
X028686Y003207D02*
X028274Y003207D01*
X029674Y003207D02*
X030300Y003207D01*
X030391Y003048D02*
X029666Y003048D01*
X030230Y002731D02*
X011669Y002731D01*
X011690Y002573D02*
X030230Y002573D01*
X030230Y002414D02*
X011663Y002414D01*
X011577Y002256D02*
X030230Y002256D01*
X030230Y002097D02*
X011347Y002097D01*
X011592Y002890D02*
X030295Y002890D01*
X031169Y003048D02*
X036150Y003048D01*
X036150Y002890D02*
X031265Y002890D01*
X031330Y002731D02*
X036150Y002731D01*
X036150Y002573D02*
X031330Y002573D01*
X031330Y002414D02*
X036150Y002414D01*
X036150Y002256D02*
X031330Y002256D01*
X031330Y002097D02*
X036150Y002097D01*
X036150Y003207D02*
X031260Y003207D01*
X031290Y003365D02*
X036150Y003365D01*
X036150Y003524D02*
X031273Y003524D01*
X031199Y003682D02*
X036150Y003682D01*
X036150Y006060D02*
X028420Y006060D01*
X028578Y006218D02*
X036150Y006218D01*
X036150Y006377D02*
X028737Y006377D01*
X028895Y006535D02*
X034818Y006535D01*
X034819Y006534D02*
X034861Y006510D01*
X034906Y006498D01*
X035180Y006498D01*
X035454Y006498D01*
X035499Y006510D01*
X035541Y006534D01*
X035574Y006567D01*
X035598Y006608D01*
X035610Y006654D01*
X035610Y006803D01*
X035180Y006803D01*
X035180Y006803D01*
X034750Y006803D01*
X034750Y006654D01*
X034762Y006608D01*
X034786Y006567D01*
X034819Y006534D01*
X034750Y006694D02*
X029054Y006694D01*
X029212Y006852D02*
X034750Y006852D01*
X034770Y007011D02*
X029371Y007011D01*
X029529Y007169D02*
X034790Y007169D01*
X034790Y007328D02*
X029868Y007328D01*
X030026Y007486D02*
X030040Y007486D01*
X030320Y007486D02*
X031040Y007486D01*
X031320Y007486D02*
X032040Y007486D01*
X032320Y007486D02*
X033040Y007486D01*
X033320Y007486D02*
X034040Y007486D01*
X034320Y007486D02*
X034950Y007486D01*
X034794Y007645D02*
X034566Y007645D01*
X034659Y007803D02*
X034701Y007803D01*
X034686Y008120D02*
X034674Y008120D01*
X034603Y008279D02*
X034757Y008279D01*
X034951Y008437D02*
X034409Y008437D01*
X033885Y008596D02*
X036150Y008596D01*
X036150Y008754D02*
X033726Y008754D01*
X033568Y008913D02*
X036150Y008913D01*
X036150Y008437D02*
X035409Y008437D01*
X035603Y008279D02*
X036150Y008279D01*
X036150Y008120D02*
X035674Y008120D01*
X035690Y007962D02*
X036150Y007962D01*
X036150Y007803D02*
X035659Y007803D01*
X035566Y007645D02*
X036150Y007645D01*
X036150Y007486D02*
X035320Y007486D01*
X035570Y007328D02*
X036150Y007328D01*
X036150Y007169D02*
X035570Y007169D01*
X035590Y007011D02*
X036150Y007011D01*
X036150Y006852D02*
X035610Y006852D01*
X035610Y006694D02*
X036150Y006694D01*
X036150Y006535D02*
X035542Y006535D01*
X035180Y006535D02*
X035180Y006535D01*
X035180Y006498D02*
X035180Y006803D01*
X035180Y006803D01*
X035180Y006498D01*
X035180Y006694D02*
X035180Y006694D01*
X033794Y007645D02*
X033566Y007645D01*
X033659Y007803D02*
X033701Y007803D01*
X032794Y007645D02*
X032566Y007645D01*
X032659Y007803D02*
X032701Y007803D01*
X031794Y007645D02*
X031566Y007645D01*
X031659Y007803D02*
X031701Y007803D01*
X030794Y007645D02*
X030566Y007645D01*
X030659Y007803D02*
X030701Y007803D01*
X030184Y004316D02*
X029674Y004316D01*
X029674Y004158D02*
X030320Y004158D01*
X028686Y004158D02*
X028498Y004158D01*
X023010Y007011D02*
X022771Y007011D01*
X022929Y007169D02*
X023010Y007169D01*
X019942Y006852D02*
X019870Y006852D01*
X019870Y006694D02*
X019896Y006694D01*
X019896Y006535D02*
X019870Y006535D01*
X019797Y006377D02*
X019966Y006377D01*
X019896Y006218D02*
X019638Y006218D01*
X019480Y006060D02*
X019896Y006060D01*
X019949Y005901D02*
X019321Y005901D01*
X019163Y005743D02*
X019896Y005743D01*
X019896Y005584D02*
X019004Y005584D01*
X018846Y005426D02*
X019924Y005426D01*
X019856Y005267D02*
X018687Y005267D01*
X018529Y005109D02*
X019856Y005109D01*
X019856Y005130D02*
X020469Y005130D01*
X020469Y005130D01*
X020469Y004832D01*
X020469Y005130D01*
X020469Y005130D01*
X020469Y005130D01*
X019856Y005130D01*
X019866Y004950D02*
X018370Y004950D01*
X018370Y005430D02*
X018370Y005513D01*
X018288Y005595D01*
X017672Y005595D01*
X017590Y005513D01*
X017590Y005510D01*
X017550Y005550D01*
X017530Y005570D01*
X017530Y006450D01*
X017550Y006470D01*
X017590Y006510D01*
X017590Y006470D01*
X017586Y006466D01*
X017562Y006424D01*
X017550Y006379D01*
X017550Y006230D01*
X017980Y006230D01*
X018410Y006230D01*
X018410Y006379D01*
X018398Y006424D01*
X018374Y006466D01*
X018370Y006470D01*
X018370Y006510D01*
X019830Y007970D01*
X019896Y007970D01*
X019896Y007954D01*
X019970Y007880D01*
X019896Y007806D01*
X019896Y007770D01*
X019870Y007770D01*
X019770Y007670D01*
X019530Y007430D01*
X019530Y006590D01*
X018370Y005430D01*
X018299Y005584D02*
X018524Y005584D01*
X018682Y005743D02*
X017530Y005743D01*
X017530Y005901D02*
X018841Y005901D01*
X018999Y006060D02*
X018404Y006060D01*
X018410Y006081D02*
X018410Y006230D01*
X017980Y006230D01*
X017980Y006230D01*
X017980Y005925D01*
X018254Y005925D01*
X018299Y005937D01*
X018341Y005961D01*
X018374Y005994D01*
X018398Y006036D01*
X018410Y006081D01*
X018410Y006218D02*
X019158Y006218D01*
X019316Y006377D02*
X018410Y006377D01*
X018395Y006535D02*
X019475Y006535D01*
X019530Y006694D02*
X018554Y006694D01*
X018712Y006852D02*
X019530Y006852D01*
X019530Y007011D02*
X018871Y007011D01*
X019029Y007169D02*
X019530Y007169D01*
X019530Y007328D02*
X019188Y007328D01*
X019346Y007486D02*
X019586Y007486D01*
X019505Y007645D02*
X019744Y007645D01*
X019663Y007803D02*
X019896Y007803D01*
X019896Y007962D02*
X019822Y007962D01*
X019500Y008120D02*
X018420Y008120D01*
X018370Y008070D02*
X018750Y008450D01*
X019900Y008450D01*
X019970Y008380D01*
X019900Y008310D01*
X019690Y008310D01*
X019590Y008210D01*
X018370Y006990D01*
X018370Y007113D01*
X018288Y007195D01*
X017672Y007195D01*
X017590Y007113D01*
X017590Y006990D01*
X017550Y006950D01*
X017530Y006930D01*
X017530Y008070D01*
X017590Y008130D01*
X017590Y008070D01*
X017586Y008066D01*
X017562Y008024D01*
X017550Y007979D01*
X017550Y007830D01*
X017980Y007830D01*
X018410Y007830D01*
X018410Y007979D01*
X018398Y008024D01*
X018374Y008066D01*
X018370Y008070D01*
X018370Y008070D01*
X018410Y007962D02*
X019341Y007962D01*
X019183Y007803D02*
X018410Y007803D01*
X018410Y007830D02*
X018410Y007681D01*
X018398Y007636D01*
X018374Y007594D01*
X018341Y007561D01*
X018299Y007537D01*
X018254Y007525D01*
X017980Y007525D01*
X017980Y007830D01*
X017980Y007830D01*
X018410Y007830D01*
X017980Y007830D02*
X017980Y007830D01*
X017980Y007830D01*
X017980Y007525D01*
X017706Y007525D01*
X017661Y007537D01*
X017619Y007561D01*
X017586Y007594D01*
X017562Y007636D01*
X017550Y007681D01*
X017550Y007830D01*
X017980Y007830D01*
X017980Y007803D02*
X017980Y007803D01*
X017980Y007645D02*
X017980Y007645D01*
X018400Y007645D02*
X019024Y007645D01*
X018866Y007486D02*
X017530Y007486D01*
X017530Y007328D02*
X018707Y007328D01*
X018549Y007169D02*
X018314Y007169D01*
X018370Y007011D02*
X018390Y007011D01*
X017646Y007169D02*
X017530Y007169D01*
X017530Y007011D02*
X017590Y007011D01*
X017190Y007011D02*
X016013Y007011D01*
X016045Y007169D02*
X017190Y007169D01*
X017190Y007328D02*
X016022Y007328D01*
X015932Y007486D02*
X017190Y007486D01*
X017190Y007645D02*
X015674Y007645D01*
X015861Y007803D02*
X017190Y007803D01*
X017530Y007803D02*
X017550Y007803D01*
X017550Y007962D02*
X017530Y007962D01*
X017580Y008120D02*
X017590Y008120D01*
X017258Y008279D02*
X016142Y008279D01*
X015977Y008437D02*
X017417Y008437D01*
X018329Y008754D02*
X018574Y008754D01*
X018415Y008596D02*
X018370Y008596D01*
X018737Y008437D02*
X019913Y008437D01*
X019658Y008279D02*
X018579Y008279D01*
X017560Y007645D02*
X017530Y007645D01*
X017190Y006852D02*
X015910Y006852D01*
X017530Y006377D02*
X017550Y006377D01*
X017550Y006230D02*
X017550Y006081D01*
X017562Y006036D01*
X017586Y005994D01*
X017619Y005961D01*
X017661Y005937D01*
X017706Y005925D01*
X017980Y005925D01*
X017980Y006230D01*
X017980Y006230D01*
X017980Y006230D01*
X017550Y006230D01*
X017550Y006218D02*
X017530Y006218D01*
X017530Y006060D02*
X017556Y006060D01*
X017980Y006060D02*
X017980Y006060D01*
X017980Y006218D02*
X017980Y006218D01*
X017661Y005584D02*
X017530Y005584D01*
X017190Y004950D02*
X012250Y004950D01*
X012092Y004792D02*
X017190Y004792D01*
X020469Y004950D02*
X020469Y004950D01*
X020469Y005109D02*
X020469Y005109D01*
X019896Y007011D02*
X019870Y007011D01*
X019870Y007169D02*
X019896Y007169D01*
X019908Y007328D02*
X019917Y007328D01*
X010881Y004158D02*
X007795Y004158D01*
X007722Y003999D02*
X010878Y003999D01*
D18*
X018780Y004180D03*
X018780Y006180D03*
X018980Y008180D03*
D19*
X018680Y008620D02*
X020420Y008620D01*
X020469Y008630D01*
X020420Y008140D02*
X019760Y008140D01*
X018200Y006580D01*
X017980Y006580D01*
X017720Y006880D02*
X017480Y006640D01*
X017360Y006760D01*
X017360Y008020D01*
X016160Y008020D01*
X016040Y008140D01*
X015620Y008140D01*
X015580Y008180D01*
X015560Y008140D01*
X015440Y008140D01*
X015260Y007960D01*
X015200Y007960D01*
X015080Y007840D01*
X014900Y007840D01*
X011720Y004660D01*
X011600Y004660D01*
X011540Y004600D01*
X011180Y004600D01*
X011180Y004580D01*
X011180Y004540D01*
X011120Y004480D01*
X010640Y004480D01*
X010520Y004360D01*
X007580Y004360D01*
X007530Y004380D01*
X007220Y004420D02*
X007180Y004380D01*
X007220Y004420D02*
X007220Y004600D01*
X009140Y006520D01*
X013220Y006520D01*
X012800Y007360D02*
X012380Y006940D01*
X011540Y006940D01*
X011120Y007360D01*
X011000Y007360D01*
X010980Y007380D01*
X010940Y007360D01*
X010640Y007360D01*
X010580Y007300D01*
X010340Y007300D01*
X010280Y007240D01*
X007100Y007240D01*
X006980Y007360D01*
X006860Y007240D01*
X006860Y004420D01*
X006830Y004380D01*
X006980Y007360D02*
X007100Y007480D01*
X007100Y007900D01*
X007180Y007980D01*
X012800Y007360D02*
X012980Y007360D01*
X012980Y007380D01*
X017360Y008020D02*
X017360Y008140D01*
X017720Y008500D01*
X017960Y008500D01*
X017980Y008530D01*
X018020Y008200D02*
X017980Y008180D01*
X018020Y008200D02*
X018260Y008200D01*
X018680Y008620D01*
X020420Y008140D02*
X020469Y008130D01*
X020469Y007630D02*
X020420Y007600D01*
X019940Y007600D01*
X019700Y007360D01*
X019700Y006520D01*
X018200Y005020D01*
X018020Y005020D01*
X017980Y004980D01*
X017960Y005320D02*
X017540Y005320D01*
X017480Y005380D01*
X017360Y005260D01*
X017360Y004360D01*
X018320Y003400D01*
X027740Y003400D01*
X027780Y003429D01*
X027800Y003400D01*
X029180Y003400D01*
X029180Y003429D01*
X029180Y003400D02*
X030080Y003400D01*
X030140Y003460D01*
X030380Y003460D01*
X030440Y003400D01*
X030740Y003400D01*
X030780Y003380D01*
X030780Y004380D02*
X030740Y004420D01*
X030440Y004420D01*
X030380Y004480D01*
X030260Y004480D01*
X030200Y004540D01*
X029180Y004540D01*
X029180Y004531D01*
X029180Y004480D01*
X029060Y004360D01*
X028460Y004360D01*
X028220Y004120D01*
X027380Y004120D01*
X027200Y004300D01*
X023720Y004300D01*
X023180Y004840D01*
X023180Y004900D01*
X023060Y004780D01*
X023180Y004900D02*
X023180Y007900D01*
X023420Y008140D01*
X024080Y008140D01*
X024091Y008130D01*
X023660Y008380D02*
X023540Y008260D01*
X023360Y008260D01*
X023060Y007960D01*
X023060Y007540D01*
X021140Y005620D01*
X020480Y005620D01*
X020469Y005630D01*
X020469Y006130D02*
X020480Y006160D01*
X021500Y006160D01*
X022400Y007060D01*
X022400Y007240D01*
X021560Y007120D02*
X023300Y008860D01*
X024500Y008860D01*
X024680Y009040D01*
X024920Y008800D01*
X033440Y008800D01*
X034220Y008020D01*
X034180Y007980D01*
X035120Y007900D02*
X035120Y007360D01*
X035180Y007300D01*
X035180Y007157D01*
X035120Y007900D02*
X035180Y007960D01*
X035180Y007980D01*
X031220Y008020D02*
X031180Y007980D01*
X031220Y008020D02*
X030560Y008680D01*
X024860Y008680D01*
X024560Y008380D01*
X023660Y008380D01*
X023420Y008620D02*
X024080Y008620D01*
X024091Y008630D01*
X024091Y007630D02*
X024080Y007600D01*
X023420Y007600D01*
X023300Y007480D01*
X023300Y004900D01*
X023540Y004660D01*
X023660Y004660D01*
X023660Y004720D01*
X023660Y004660D02*
X027620Y004660D01*
X027740Y004540D01*
X027780Y004531D01*
X027800Y004540D01*
X028160Y004540D01*
X028460Y004840D01*
X028460Y004960D01*
X028760Y005260D01*
X030320Y005260D01*
X030440Y005380D01*
X030780Y005380D01*
X029480Y007360D02*
X027260Y005140D01*
X024140Y005140D01*
X024091Y005130D01*
X024140Y005620D02*
X024091Y005630D01*
X024140Y005620D02*
X026960Y005620D01*
X029180Y007840D01*
X029180Y007980D01*
X029660Y007360D02*
X030140Y007840D01*
X030140Y007960D01*
X030180Y007980D01*
X029660Y007360D02*
X029480Y007360D01*
X028160Y007840D02*
X028160Y007960D01*
X028180Y007980D01*
X028160Y007840D02*
X026480Y006160D01*
X024140Y006160D01*
X024091Y006130D01*
X024091Y006630D02*
X024140Y006640D01*
X025940Y006640D01*
X027140Y007840D01*
X027140Y007960D01*
X027180Y007980D01*
X021560Y007120D02*
X020480Y007120D01*
X020469Y007130D01*
X020480Y006640D02*
X020469Y006630D01*
X020480Y006640D02*
X021620Y006640D01*
X017980Y006930D02*
X017960Y006880D01*
X017720Y006880D01*
X017480Y006640D02*
X017360Y006520D01*
X017360Y005500D01*
X017480Y005380D01*
X017960Y005320D02*
X017980Y005330D01*
D20*
X021620Y006640D03*
X022400Y007240D03*
X023420Y008620D03*
X023060Y004780D03*
X023660Y004720D03*
X013220Y006520D03*
M02*
