G75*
%MOIN*%
%OFA0B0*%
%FSLAX24Y24*%
%IPPOS*%
%LPD*%
%AMOC8*
5,1,8,0,0,1.08239X$1,22.5*
%
%ADD10C,0.0650*%
%ADD11C,0.0740*%
%ADD12R,0.0740X0.0740*%
%ADD13C,0.0160*%
%ADD14C,0.0337*%
%ADD15C,0.0060*%
%ADD16C,0.0270*%
D10*
X009780Y011580D03*
X010780Y011580D03*
D11*
X012080Y010180D03*
X012080Y008780D03*
X009080Y008780D03*
X009080Y010180D03*
X004580Y006180D03*
X003580Y006180D03*
X001480Y005980D03*
X002800Y004370D03*
X005360Y004370D03*
X007080Y002980D03*
X008400Y002590D03*
X010960Y002590D03*
X012280Y002980D03*
X013600Y002590D03*
X016160Y002590D03*
X017380Y002780D03*
X018700Y002590D03*
X021260Y002590D03*
X021260Y004370D03*
X018700Y004370D03*
X017380Y005780D03*
X019480Y005980D03*
X020480Y005980D03*
X016160Y004370D03*
X013600Y004370D03*
X010960Y004370D03*
X008400Y004370D03*
X009180Y005980D03*
X010180Y005980D03*
X012280Y005980D03*
X014380Y005980D03*
X015380Y005980D03*
X007080Y005980D03*
X001480Y002980D03*
X002800Y002590D03*
X005360Y002590D03*
X008580Y014580D03*
X009580Y014580D03*
X010580Y014580D03*
X014580Y014580D03*
X015580Y014580D03*
X016580Y014580D03*
D12*
X013580Y014580D03*
X007580Y014580D03*
D13*
X000810Y015846D02*
X000810Y000810D01*
X023220Y000810D01*
X023220Y015846D01*
X000810Y015846D01*
X000810Y015796D02*
X023220Y015796D01*
X023220Y015638D02*
X022598Y015638D01*
X022667Y015609D02*
X022351Y015740D01*
X022009Y015740D01*
X021693Y015609D01*
X021451Y015367D01*
X021320Y015051D01*
X021320Y014709D01*
X021451Y014393D01*
X021693Y014151D01*
X022009Y014020D01*
X022351Y014020D01*
X022667Y014151D01*
X022909Y014393D01*
X023040Y014709D01*
X023040Y015051D01*
X022909Y015367D01*
X022667Y015609D01*
X022797Y015479D02*
X023220Y015479D01*
X023220Y015321D02*
X022928Y015321D01*
X022994Y015162D02*
X023220Y015162D01*
X023220Y015004D02*
X023040Y015004D01*
X023040Y014845D02*
X023220Y014845D01*
X023220Y014687D02*
X023031Y014687D01*
X022965Y014528D02*
X023220Y014528D01*
X023220Y014370D02*
X022886Y014370D01*
X022727Y014211D02*
X023220Y014211D01*
X023220Y014053D02*
X022429Y014053D01*
X021931Y014053D02*
X016393Y014053D01*
X016430Y014090D02*
X016479Y014070D01*
X016681Y014070D01*
X016869Y014148D01*
X017012Y014291D01*
X017090Y014479D01*
X017090Y014681D01*
X017012Y014869D01*
X016869Y015012D01*
X016681Y015090D01*
X016479Y015090D01*
X016291Y015012D01*
X016148Y014869D01*
X016080Y014706D01*
X016012Y014869D01*
X015869Y015012D01*
X015681Y015090D01*
X015479Y015090D01*
X015291Y015012D01*
X015148Y014869D01*
X015080Y014706D01*
X015012Y014869D01*
X014869Y015012D01*
X014681Y015090D01*
X014479Y015090D01*
X014291Y015012D01*
X014148Y014869D01*
X014130Y014826D01*
X014130Y014974D01*
X014118Y015019D01*
X014094Y015061D01*
X014061Y015094D01*
X014019Y015118D01*
X013974Y015130D01*
X013600Y015130D01*
X013600Y014600D01*
X013560Y014600D01*
X013560Y015130D01*
X013186Y015130D01*
X013141Y015118D01*
X013099Y015094D01*
X013066Y015061D01*
X013042Y015019D01*
X013030Y014974D01*
X013030Y014600D01*
X013560Y014600D01*
X013560Y014560D01*
X013600Y014560D01*
X013600Y014030D01*
X013974Y014030D01*
X014019Y014042D01*
X014061Y014066D01*
X014094Y014099D01*
X014118Y014141D01*
X014130Y014186D01*
X014130Y014334D01*
X014148Y014291D01*
X014291Y014148D01*
X014479Y014070D01*
X014681Y014070D01*
X014869Y014148D01*
X015012Y014291D01*
X015080Y014454D01*
X015148Y014291D01*
X015291Y014148D01*
X015479Y014070D01*
X015681Y014070D01*
X015869Y014148D01*
X016012Y014291D01*
X016080Y014454D01*
X016148Y014291D01*
X016149Y014290D01*
X015210Y013350D01*
X011510Y013350D01*
X010830Y014030D01*
X010830Y014132D01*
X010869Y014148D01*
X011012Y014291D01*
X011090Y014479D01*
X011090Y014681D01*
X011012Y014869D01*
X010869Y015012D01*
X010681Y015090D01*
X010479Y015090D01*
X010291Y015012D01*
X010148Y014869D01*
X010080Y014706D01*
X010012Y014869D01*
X009869Y015012D01*
X009681Y015090D01*
X009479Y015090D01*
X009291Y015012D01*
X009148Y014869D01*
X009080Y014706D01*
X009012Y014869D01*
X008869Y015012D01*
X008681Y015090D01*
X008479Y015090D01*
X008291Y015012D01*
X008148Y014869D01*
X008130Y014826D01*
X008130Y014974D01*
X008118Y015019D01*
X008094Y015061D01*
X008061Y015094D01*
X008019Y015118D01*
X007974Y015130D01*
X007600Y015130D01*
X007600Y014600D01*
X007560Y014600D01*
X007560Y015130D01*
X007186Y015130D01*
X007141Y015118D01*
X007099Y015094D01*
X007066Y015061D01*
X007042Y015019D01*
X007030Y014974D01*
X007030Y014600D01*
X007560Y014600D01*
X007560Y014560D01*
X007600Y014560D01*
X007600Y014030D01*
X007974Y014030D01*
X008019Y014042D01*
X008061Y014066D01*
X008094Y014099D01*
X008118Y014141D01*
X008130Y014186D01*
X008130Y014334D01*
X008148Y014291D01*
X008291Y014148D01*
X008479Y014070D01*
X008681Y014070D01*
X008730Y014090D01*
X010310Y012510D01*
X010310Y012090D01*
X010471Y011929D01*
X010386Y011843D01*
X010315Y011672D01*
X010315Y011488D01*
X010386Y011317D01*
X010517Y011186D01*
X010688Y011115D01*
X010872Y011115D01*
X011043Y011186D01*
X011174Y011317D01*
X011245Y011488D01*
X011245Y011672D01*
X011174Y011843D01*
X011043Y011974D01*
X010872Y012045D01*
X010835Y012045D01*
X010650Y012230D01*
X010650Y012650D01*
X010550Y012750D01*
X009011Y014290D01*
X009012Y014291D01*
X009080Y014454D01*
X009148Y014291D01*
X009291Y014148D01*
X009479Y014070D01*
X009681Y014070D01*
X009869Y014148D01*
X010012Y014291D01*
X010080Y014454D01*
X010148Y014291D01*
X010291Y014148D01*
X010479Y014070D01*
X010490Y014070D01*
X010490Y013890D01*
X011270Y013110D01*
X011270Y011390D01*
X010650Y010770D01*
X009570Y010770D01*
X009390Y010591D01*
X009369Y010612D01*
X009181Y010690D01*
X008979Y010690D01*
X008791Y010612D01*
X008648Y010469D01*
X008570Y010281D01*
X008570Y010079D01*
X008648Y009891D01*
X008791Y009748D01*
X008979Y009670D01*
X009181Y009670D01*
X009369Y009748D01*
X009512Y009891D01*
X009590Y010079D01*
X009590Y010281D01*
X009582Y010301D01*
X009710Y010430D01*
X010790Y010430D01*
X010890Y010530D01*
X011610Y011250D01*
X011610Y013010D01*
X015350Y013010D01*
X015450Y013110D01*
X016430Y014090D01*
X016115Y014370D02*
X016045Y014370D01*
X016071Y014211D02*
X015932Y014211D01*
X015912Y014053D02*
X014037Y014053D01*
X014130Y014211D02*
X014228Y014211D01*
X013600Y014211D02*
X013560Y014211D01*
X013560Y014053D02*
X013600Y014053D01*
X013560Y014030D02*
X013560Y014560D01*
X013030Y014560D01*
X013030Y014186D01*
X013042Y014141D01*
X013066Y014099D01*
X013099Y014066D01*
X013141Y014042D01*
X013186Y014030D01*
X013560Y014030D01*
X013123Y014053D02*
X010830Y014053D01*
X010932Y014211D02*
X013030Y014211D01*
X013030Y014370D02*
X011045Y014370D01*
X011090Y014528D02*
X013030Y014528D01*
X013030Y014687D02*
X011088Y014687D01*
X011022Y014845D02*
X013030Y014845D01*
X013038Y015004D02*
X010878Y015004D01*
X010282Y015004D02*
X009878Y015004D01*
X010022Y014845D02*
X010138Y014845D01*
X010115Y014370D02*
X010045Y014370D01*
X009932Y014211D02*
X010228Y014211D01*
X010490Y014053D02*
X009248Y014053D01*
X009228Y014211D02*
X009089Y014211D01*
X009115Y014370D02*
X009045Y014370D01*
X008767Y014053D02*
X008037Y014053D01*
X008130Y014211D02*
X008228Y014211D01*
X007600Y014211D02*
X007560Y014211D01*
X007560Y014053D02*
X007600Y014053D01*
X007560Y014030D02*
X007560Y014560D01*
X007030Y014560D01*
X007030Y014186D01*
X007042Y014141D01*
X007066Y014099D01*
X007099Y014066D01*
X007141Y014042D01*
X007186Y014030D01*
X007560Y014030D01*
X007123Y014053D02*
X002469Y014053D01*
X002467Y014051D02*
X002709Y014293D01*
X002840Y014609D01*
X002840Y014951D01*
X002709Y015267D01*
X002467Y015509D01*
X002151Y015640D01*
X001809Y015640D01*
X001493Y015509D01*
X001251Y015267D01*
X001120Y014951D01*
X001120Y014609D01*
X001251Y014293D01*
X001493Y014051D01*
X001809Y013920D01*
X002151Y013920D01*
X002467Y014051D01*
X002627Y014211D02*
X007030Y014211D01*
X007030Y014370D02*
X002741Y014370D01*
X002806Y014528D02*
X007030Y014528D01*
X007030Y014687D02*
X002840Y014687D01*
X002840Y014845D02*
X007030Y014845D01*
X007038Y015004D02*
X002818Y015004D01*
X002753Y015162D02*
X021366Y015162D01*
X021320Y015004D02*
X016878Y015004D01*
X017022Y014845D02*
X021320Y014845D01*
X021329Y014687D02*
X017088Y014687D01*
X017090Y014528D02*
X021395Y014528D01*
X021474Y014370D02*
X017045Y014370D01*
X016932Y014211D02*
X021633Y014211D01*
X023220Y013894D02*
X016234Y013894D01*
X016076Y013736D02*
X023220Y013736D01*
X023220Y013577D02*
X015917Y013577D01*
X015759Y013419D02*
X023220Y013419D01*
X023220Y013260D02*
X015600Y013260D01*
X015442Y013102D02*
X023220Y013102D01*
X023220Y012943D02*
X011610Y012943D01*
X011610Y012785D02*
X023220Y012785D01*
X023220Y012626D02*
X011610Y012626D01*
X011610Y012468D02*
X023220Y012468D01*
X023220Y012309D02*
X011610Y012309D01*
X011610Y012151D02*
X023220Y012151D01*
X023220Y011992D02*
X011610Y011992D01*
X011610Y011834D02*
X023220Y011834D01*
X023220Y011675D02*
X011610Y011675D01*
X011610Y011517D02*
X023220Y011517D01*
X023220Y011358D02*
X011610Y011358D01*
X011560Y011200D02*
X023220Y011200D01*
X023220Y011041D02*
X011401Y011041D01*
X011243Y010883D02*
X023220Y010883D01*
X023220Y010724D02*
X011084Y010724D01*
X010926Y010566D02*
X011744Y010566D01*
X011791Y010612D02*
X011648Y010469D01*
X011570Y010281D01*
X011570Y010079D01*
X011648Y009891D01*
X011791Y009748D01*
X011979Y009670D01*
X012181Y009670D01*
X012369Y009748D01*
X012512Y009891D01*
X012590Y010079D01*
X012590Y010281D01*
X012512Y010469D01*
X012369Y010612D01*
X012181Y010690D01*
X011979Y010690D01*
X011791Y010612D01*
X011622Y010407D02*
X009687Y010407D01*
X009590Y010249D02*
X011570Y010249D01*
X011570Y010090D02*
X009590Y010090D01*
X009529Y009932D02*
X011631Y009932D01*
X011766Y009773D02*
X009394Y009773D01*
X008766Y009773D02*
X004887Y009773D01*
X004729Y009932D02*
X008631Y009932D01*
X008570Y010090D02*
X004570Y010090D01*
X004590Y010070D02*
X004490Y010170D01*
X004110Y010170D01*
X002130Y008190D01*
X002030Y008090D01*
X002030Y004850D01*
X001830Y004650D01*
X001730Y004550D01*
X001730Y003590D01*
X001615Y003476D01*
X001581Y003490D01*
X001379Y003490D01*
X001191Y003412D01*
X001048Y003269D01*
X000970Y003081D01*
X000970Y002879D01*
X001048Y002691D01*
X001191Y002548D01*
X001379Y002470D01*
X001581Y002470D01*
X001769Y002548D01*
X001912Y002691D01*
X001990Y002879D01*
X001990Y003081D01*
X001912Y003269D01*
X001901Y003280D01*
X002070Y003450D01*
X002070Y004410D01*
X002370Y004710D01*
X002370Y007950D01*
X004054Y009634D01*
X004067Y009604D01*
X004144Y009527D01*
X004245Y009485D01*
X004335Y009485D01*
X007970Y005850D01*
X007970Y004950D01*
X008115Y004804D01*
X008111Y004802D01*
X007968Y004659D01*
X007890Y004471D01*
X007890Y004269D01*
X007968Y004081D01*
X008111Y003938D01*
X008299Y003860D01*
X008501Y003860D01*
X008689Y003938D01*
X008832Y004081D01*
X008910Y004269D01*
X008910Y004310D01*
X008990Y004310D01*
X009090Y004410D01*
X009110Y004430D01*
X010230Y004430D01*
X010350Y004310D01*
X010410Y004310D01*
X010450Y004270D01*
X010450Y004269D01*
X010528Y004081D01*
X010671Y003938D01*
X010859Y003860D01*
X011061Y003860D01*
X011249Y003938D01*
X011392Y004081D01*
X011470Y004269D01*
X011470Y004471D01*
X011392Y004659D01*
X011249Y004802D01*
X011061Y004880D01*
X010859Y004880D01*
X010671Y004802D01*
X010528Y004659D01*
X010524Y004650D01*
X010490Y004650D01*
X010470Y004670D01*
X010370Y004770D01*
X008970Y004770D01*
X008850Y004650D01*
X008836Y004650D01*
X008832Y004659D01*
X008689Y004802D01*
X008501Y004880D01*
X008490Y004880D01*
X008490Y004910D01*
X008390Y005010D01*
X008310Y005090D01*
X008310Y005885D01*
X008315Y005885D01*
X008416Y005927D01*
X008493Y006004D01*
X008535Y006105D01*
X008535Y006215D01*
X008493Y006316D01*
X008416Y006393D01*
X008315Y006435D01*
X008225Y006435D01*
X008130Y006530D01*
X008130Y008461D01*
X008193Y008524D01*
X008235Y008625D01*
X008235Y008735D01*
X008193Y008836D01*
X008116Y008913D01*
X008015Y008955D01*
X007905Y008955D01*
X007804Y008913D01*
X007727Y008836D01*
X007685Y008735D01*
X007685Y008625D01*
X007727Y008524D01*
X007790Y008461D01*
X007790Y006510D01*
X006150Y008150D01*
X006421Y008150D01*
X006484Y008087D01*
X006585Y008045D01*
X006695Y008045D01*
X006796Y008087D01*
X006873Y008164D01*
X006915Y008265D01*
X006915Y008375D01*
X006873Y008476D01*
X006796Y008553D01*
X006695Y008595D01*
X006585Y008595D01*
X006484Y008553D01*
X006421Y008490D01*
X006170Y008490D01*
X004590Y010070D01*
X004030Y010090D02*
X002590Y010090D01*
X002432Y009932D02*
X003871Y009932D01*
X003713Y009773D02*
X002273Y009773D01*
X002115Y009615D02*
X003554Y009615D01*
X003396Y009456D02*
X002010Y009456D01*
X002010Y009510D02*
X002010Y009259D01*
X002073Y009196D01*
X002115Y009095D01*
X002115Y008985D01*
X002073Y008884D01*
X001996Y008807D01*
X001895Y008765D01*
X001785Y008765D01*
X001684Y008807D01*
X001607Y008884D01*
X001565Y008985D01*
X001565Y009095D01*
X001607Y009196D01*
X001670Y009259D01*
X001670Y009650D01*
X002765Y010745D01*
X002765Y010835D01*
X002807Y010936D01*
X002884Y011013D01*
X002985Y011055D01*
X003095Y011055D01*
X003196Y011013D01*
X003273Y010936D01*
X003315Y010835D01*
X003315Y010725D01*
X003273Y010624D01*
X003196Y010547D01*
X003095Y010505D01*
X003005Y010505D01*
X002010Y009510D01*
X002010Y009298D02*
X003237Y009298D01*
X003079Y009139D02*
X002097Y009139D01*
X002113Y008981D02*
X002920Y008981D01*
X002762Y008822D02*
X002011Y008822D01*
X001669Y008822D02*
X000810Y008822D01*
X000810Y008664D02*
X002603Y008664D01*
X002445Y008505D02*
X000810Y008505D01*
X000810Y008347D02*
X002286Y008347D01*
X002128Y008188D02*
X000810Y008188D01*
X000810Y008030D02*
X002030Y008030D01*
X002030Y007871D02*
X000810Y007871D01*
X000810Y007713D02*
X002030Y007713D01*
X002030Y007554D02*
X000810Y007554D01*
X000810Y007396D02*
X002030Y007396D01*
X002030Y007237D02*
X000810Y007237D01*
X000810Y007079D02*
X002030Y007079D01*
X002030Y006920D02*
X000810Y006920D01*
X000810Y006762D02*
X002030Y006762D01*
X002030Y006603D02*
X000810Y006603D01*
X000810Y006445D02*
X001269Y006445D01*
X001191Y006412D02*
X001048Y006269D01*
X000970Y006081D01*
X000970Y005879D01*
X001048Y005691D01*
X001191Y005548D01*
X001379Y005470D01*
X001581Y005470D01*
X001769Y005548D01*
X001912Y005691D01*
X001990Y005879D01*
X001990Y006081D01*
X001912Y006269D01*
X001769Y006412D01*
X001581Y006490D01*
X001379Y006490D01*
X001191Y006412D01*
X001065Y006286D02*
X000810Y006286D01*
X000810Y006128D02*
X000989Y006128D01*
X000970Y005969D02*
X000810Y005969D01*
X000810Y005811D02*
X000998Y005811D01*
X001087Y005652D02*
X000810Y005652D01*
X000810Y005494D02*
X001322Y005494D01*
X001638Y005494D02*
X002030Y005494D01*
X002030Y005652D02*
X001873Y005652D01*
X001962Y005811D02*
X002030Y005811D01*
X002030Y005969D02*
X001990Y005969D01*
X001971Y006128D02*
X002030Y006128D01*
X002030Y006286D02*
X001895Y006286D01*
X002030Y006445D02*
X001691Y006445D01*
X002370Y006445D02*
X003138Y006445D01*
X003148Y006469D02*
X003070Y006281D01*
X003070Y006079D01*
X003148Y005891D01*
X003291Y005748D01*
X003479Y005670D01*
X003681Y005670D01*
X003869Y005748D01*
X004012Y005891D01*
X004080Y006054D01*
X004148Y005891D01*
X004291Y005748D01*
X004310Y005740D01*
X004310Y005490D01*
X004490Y005310D01*
X004490Y003330D01*
X004934Y002885D01*
X004928Y002879D01*
X004850Y002691D01*
X004850Y002489D01*
X004928Y002301D01*
X005071Y002158D01*
X005259Y002080D01*
X005461Y002080D01*
X005649Y002158D01*
X005792Y002301D01*
X005870Y002489D01*
X005870Y002691D01*
X005792Y002879D01*
X005649Y003022D01*
X005461Y003100D01*
X005259Y003100D01*
X005217Y003083D01*
X004830Y003470D01*
X004830Y005450D01*
X004730Y005550D01*
X004650Y005630D01*
X004650Y005670D01*
X004681Y005670D01*
X004869Y005748D01*
X005012Y005891D01*
X005090Y006079D01*
X005090Y006281D01*
X005012Y006469D01*
X004869Y006612D01*
X004681Y006690D01*
X004479Y006690D01*
X004291Y006612D01*
X004148Y006469D01*
X004080Y006306D01*
X004012Y006469D01*
X003869Y006612D01*
X003681Y006690D01*
X003479Y006690D01*
X003291Y006612D01*
X003148Y006469D01*
X003282Y006603D02*
X002370Y006603D01*
X002370Y006762D02*
X006098Y006762D01*
X006170Y006690D02*
X006170Y005370D01*
X007970Y003570D01*
X008070Y003470D01*
X012110Y003470D01*
X012170Y003530D01*
X013290Y003530D01*
X013350Y003470D01*
X017630Y003470D01*
X018260Y004100D01*
X018268Y004081D01*
X018411Y003938D01*
X018599Y003860D01*
X018801Y003860D01*
X018989Y003938D01*
X019132Y004081D01*
X019210Y004269D01*
X019210Y004471D01*
X019199Y004498D01*
X019310Y004610D01*
X020670Y004610D01*
X020767Y004513D01*
X020750Y004471D01*
X020750Y004269D01*
X020828Y004081D01*
X020971Y003938D01*
X021159Y003860D01*
X021361Y003860D01*
X021549Y003938D01*
X021692Y004081D01*
X021770Y004269D01*
X021770Y004471D01*
X021692Y004659D01*
X021549Y004802D01*
X021361Y004880D01*
X021159Y004880D01*
X020971Y004802D01*
X020965Y004796D01*
X020910Y004850D01*
X020810Y004950D01*
X019170Y004950D01*
X019005Y004786D01*
X018989Y004802D01*
X018801Y004880D01*
X018599Y004880D01*
X018411Y004802D01*
X018268Y004659D01*
X018190Y004471D01*
X018190Y004470D01*
X018150Y004470D01*
X018050Y004370D01*
X017490Y003810D01*
X013490Y003810D01*
X013430Y003870D01*
X012030Y003870D01*
X011970Y003810D01*
X008210Y003810D01*
X006510Y005510D01*
X006510Y006830D01*
X006410Y006930D01*
X004575Y008765D01*
X004575Y008855D01*
X004533Y008956D01*
X004456Y009033D01*
X004355Y009075D01*
X004245Y009075D01*
X004144Y009033D01*
X004067Y008956D01*
X004025Y008855D01*
X004025Y008745D01*
X004067Y008644D01*
X004144Y008567D01*
X004245Y008525D01*
X004335Y008525D01*
X006170Y006690D01*
X006170Y006603D02*
X004878Y006603D01*
X005022Y006445D02*
X006170Y006445D01*
X006170Y006286D02*
X005088Y006286D01*
X005090Y006128D02*
X006170Y006128D01*
X006170Y005969D02*
X005045Y005969D01*
X004932Y005811D02*
X006170Y005811D01*
X006170Y005652D02*
X004650Y005652D01*
X004650Y005670D02*
X004650Y005670D01*
X004787Y005494D02*
X006170Y005494D01*
X006205Y005335D02*
X004830Y005335D01*
X004830Y005177D02*
X006363Y005177D01*
X006522Y005018D02*
X004830Y005018D01*
X004830Y004860D02*
X005209Y004860D01*
X005259Y004880D02*
X005071Y004802D01*
X004928Y004659D01*
X004850Y004471D01*
X004850Y004269D01*
X004928Y004081D01*
X005071Y003938D01*
X005259Y003860D01*
X005461Y003860D01*
X005649Y003938D01*
X005792Y004081D01*
X005870Y004269D01*
X005870Y004471D01*
X005792Y004659D01*
X005649Y004802D01*
X005461Y004880D01*
X005259Y004880D01*
X005511Y004860D02*
X006680Y004860D01*
X006839Y004701D02*
X005750Y004701D01*
X005841Y004543D02*
X006997Y004543D01*
X007156Y004384D02*
X005870Y004384D01*
X005852Y004226D02*
X007314Y004226D01*
X007473Y004067D02*
X005778Y004067D01*
X005579Y003909D02*
X007631Y003909D01*
X007790Y003750D02*
X004830Y003750D01*
X004830Y003592D02*
X007948Y003592D01*
X008112Y003909D02*
X008181Y003909D01*
X007982Y004067D02*
X007953Y004067D01*
X007908Y004226D02*
X007795Y004226D01*
X007890Y004384D02*
X007636Y004384D01*
X007478Y004543D02*
X007919Y004543D01*
X008010Y004701D02*
X007319Y004701D01*
X007161Y004860D02*
X008060Y004860D01*
X007970Y005018D02*
X007002Y005018D01*
X006844Y005177D02*
X007970Y005177D01*
X007970Y005335D02*
X006685Y005335D01*
X006527Y005494D02*
X006922Y005494D01*
X006979Y005470D02*
X007181Y005470D01*
X007369Y005548D01*
X007512Y005691D01*
X007590Y005879D01*
X007590Y006081D01*
X007512Y006269D01*
X007369Y006412D01*
X007181Y006490D01*
X006979Y006490D01*
X006791Y006412D01*
X006648Y006269D01*
X006570Y006081D01*
X006570Y005879D01*
X006648Y005691D01*
X006791Y005548D01*
X006979Y005470D01*
X007238Y005494D02*
X007970Y005494D01*
X007970Y005652D02*
X007473Y005652D01*
X007562Y005811D02*
X007970Y005811D01*
X007851Y005969D02*
X007590Y005969D01*
X007571Y006128D02*
X007692Y006128D01*
X007534Y006286D02*
X007495Y006286D01*
X007375Y006445D02*
X007291Y006445D01*
X007217Y006603D02*
X006510Y006603D01*
X006510Y006445D02*
X006869Y006445D01*
X006665Y006286D02*
X006510Y006286D01*
X006510Y006128D02*
X006589Y006128D01*
X006570Y005969D02*
X006510Y005969D01*
X006510Y005811D02*
X006598Y005811D01*
X006510Y005652D02*
X006687Y005652D01*
X007697Y006603D02*
X007790Y006603D01*
X007790Y006762D02*
X007539Y006762D01*
X007380Y006920D02*
X007790Y006920D01*
X007790Y007079D02*
X007222Y007079D01*
X007063Y007237D02*
X007790Y007237D01*
X007790Y007396D02*
X006905Y007396D01*
X006746Y007554D02*
X007790Y007554D01*
X007790Y007713D02*
X006588Y007713D01*
X006429Y007871D02*
X007790Y007871D01*
X007790Y008030D02*
X006271Y008030D01*
X005949Y007871D02*
X005469Y007871D01*
X005311Y008030D02*
X005790Y008030D01*
X005632Y008188D02*
X005152Y008188D01*
X004994Y008347D02*
X005473Y008347D01*
X005315Y008505D02*
X004835Y008505D01*
X004677Y008664D02*
X005156Y008664D01*
X004998Y008822D02*
X004575Y008822D01*
X004508Y008981D02*
X004839Y008981D01*
X004681Y009139D02*
X003559Y009139D01*
X003401Y008981D02*
X004092Y008981D01*
X004025Y008822D02*
X003242Y008822D01*
X003084Y008664D02*
X004059Y008664D01*
X004355Y008505D02*
X002925Y008505D01*
X002767Y008347D02*
X004513Y008347D01*
X004672Y008188D02*
X002608Y008188D01*
X002450Y008030D02*
X004830Y008030D01*
X004989Y007871D02*
X002370Y007871D01*
X002370Y007713D02*
X005147Y007713D01*
X005306Y007554D02*
X002370Y007554D01*
X002370Y007396D02*
X005464Y007396D01*
X005623Y007237D02*
X002370Y007237D01*
X002370Y007079D02*
X005781Y007079D01*
X005940Y006920D02*
X002370Y006920D01*
X002370Y006286D02*
X003072Y006286D01*
X003070Y006128D02*
X002370Y006128D01*
X002370Y005969D02*
X003115Y005969D01*
X003228Y005811D02*
X002370Y005811D01*
X002370Y005652D02*
X004310Y005652D01*
X004310Y005494D02*
X002370Y005494D01*
X002370Y005335D02*
X004465Y005335D01*
X004490Y005177D02*
X002370Y005177D01*
X002370Y005018D02*
X004490Y005018D01*
X004490Y004860D02*
X002951Y004860D01*
X002901Y004880D02*
X002699Y004880D01*
X002511Y004802D01*
X002368Y004659D01*
X002290Y004471D01*
X002290Y004269D01*
X002368Y004081D01*
X002511Y003938D01*
X002699Y003860D01*
X002901Y003860D01*
X003089Y003938D01*
X003232Y004081D01*
X003310Y004269D01*
X003310Y004471D01*
X003232Y004659D01*
X003089Y004802D01*
X002901Y004880D01*
X002649Y004860D02*
X002370Y004860D01*
X002361Y004701D02*
X002410Y004701D01*
X002319Y004543D02*
X002203Y004543D01*
X002290Y004384D02*
X002070Y004384D01*
X002070Y004226D02*
X002308Y004226D01*
X002382Y004067D02*
X002070Y004067D01*
X002070Y003909D02*
X002581Y003909D01*
X003019Y003909D02*
X004490Y003909D01*
X004490Y004067D02*
X003218Y004067D01*
X003292Y004226D02*
X004490Y004226D01*
X004490Y004384D02*
X003310Y004384D01*
X003281Y004543D02*
X004490Y004543D01*
X004490Y004701D02*
X003190Y004701D01*
X002030Y004860D02*
X000810Y004860D01*
X000810Y005018D02*
X002030Y005018D01*
X002030Y005177D02*
X000810Y005177D01*
X000810Y005335D02*
X002030Y005335D01*
X001881Y004701D02*
X000810Y004701D01*
X000810Y004543D02*
X001730Y004543D01*
X001730Y004384D02*
X000810Y004384D01*
X000810Y004226D02*
X001730Y004226D01*
X001730Y004067D02*
X000810Y004067D01*
X000810Y003909D02*
X001730Y003909D01*
X001730Y003750D02*
X000810Y003750D01*
X000810Y003592D02*
X001730Y003592D01*
X002070Y003592D02*
X004490Y003592D01*
X004490Y003750D02*
X002070Y003750D01*
X002053Y003433D02*
X004490Y003433D01*
X004545Y003275D02*
X001907Y003275D01*
X001976Y003116D02*
X004704Y003116D01*
X004862Y002958D02*
X003154Y002958D01*
X003089Y003022D02*
X003232Y002879D01*
X003310Y002691D01*
X003310Y002489D01*
X003232Y002301D01*
X003089Y002158D01*
X002901Y002080D01*
X002699Y002080D01*
X002511Y002158D01*
X002368Y002301D01*
X002290Y002489D01*
X002290Y002691D01*
X002368Y002879D01*
X002511Y003022D01*
X002699Y003100D01*
X002901Y003100D01*
X003089Y003022D01*
X003265Y002799D02*
X004895Y002799D01*
X004850Y002641D02*
X003310Y002641D01*
X003307Y002482D02*
X004853Y002482D01*
X004918Y002324D02*
X003242Y002324D01*
X003096Y002165D02*
X005064Y002165D01*
X005656Y002165D02*
X008104Y002165D01*
X008111Y002158D02*
X008299Y002080D01*
X008501Y002080D01*
X008689Y002158D01*
X008832Y002301D01*
X008910Y002489D01*
X008910Y002691D01*
X008832Y002879D01*
X008689Y003022D01*
X008501Y003100D01*
X008299Y003100D01*
X008111Y003022D01*
X007968Y002879D01*
X007890Y002691D01*
X007890Y002489D01*
X007968Y002301D01*
X008111Y002158D01*
X007958Y002324D02*
X005802Y002324D01*
X005867Y002482D02*
X006950Y002482D01*
X006979Y002470D02*
X007181Y002470D01*
X007369Y002548D01*
X007512Y002691D01*
X007590Y002879D01*
X007590Y003081D01*
X007512Y003269D01*
X007369Y003412D01*
X007181Y003490D01*
X006979Y003490D01*
X006791Y003412D01*
X006648Y003269D01*
X006570Y003081D01*
X006570Y002879D01*
X006648Y002691D01*
X006791Y002548D01*
X006979Y002470D01*
X007210Y002482D02*
X007893Y002482D01*
X007890Y002641D02*
X007462Y002641D01*
X007557Y002799D02*
X007935Y002799D01*
X008046Y002958D02*
X007590Y002958D01*
X007576Y003116D02*
X011784Y003116D01*
X011770Y003081D02*
X011770Y002879D01*
X011848Y002691D01*
X011991Y002548D01*
X012179Y002470D01*
X012381Y002470D01*
X012569Y002548D01*
X012712Y002691D01*
X012790Y002879D01*
X012790Y003081D01*
X012712Y003269D01*
X012569Y003412D01*
X012381Y003490D01*
X012179Y003490D01*
X011991Y003412D01*
X011848Y003269D01*
X011770Y003081D01*
X011770Y002958D02*
X011314Y002958D01*
X011249Y003022D02*
X011392Y002879D01*
X011470Y002691D01*
X011470Y002489D01*
X011392Y002301D01*
X011249Y002158D01*
X011061Y002080D01*
X010859Y002080D01*
X010671Y002158D01*
X010528Y002301D01*
X010450Y002489D01*
X010450Y002691D01*
X010528Y002879D01*
X010671Y003022D01*
X010859Y003100D01*
X011061Y003100D01*
X011249Y003022D01*
X011425Y002799D02*
X011803Y002799D01*
X011898Y002641D02*
X011470Y002641D01*
X011467Y002482D02*
X012150Y002482D01*
X012410Y002482D02*
X013093Y002482D01*
X013090Y002489D02*
X013168Y002301D01*
X013311Y002158D01*
X013499Y002080D01*
X013701Y002080D01*
X013889Y002158D01*
X014032Y002301D01*
X014110Y002489D01*
X014110Y002691D01*
X014032Y002879D01*
X013889Y003022D01*
X013701Y003100D01*
X013499Y003100D01*
X013311Y003022D01*
X013168Y002879D01*
X013090Y002691D01*
X013090Y002489D01*
X013090Y002641D02*
X012662Y002641D01*
X012757Y002799D02*
X013135Y002799D01*
X013246Y002958D02*
X012790Y002958D01*
X012776Y003116D02*
X016995Y003116D01*
X016948Y003069D02*
X016870Y002881D01*
X016870Y002679D01*
X016948Y002491D01*
X017091Y002348D01*
X017279Y002270D01*
X017481Y002270D01*
X017669Y002348D01*
X017812Y002491D01*
X017890Y002679D01*
X017890Y002881D01*
X017812Y003069D01*
X017669Y003212D01*
X017481Y003290D01*
X017279Y003290D01*
X017091Y003212D01*
X016948Y003069D01*
X016902Y002958D02*
X016514Y002958D01*
X016449Y003022D02*
X016592Y002879D01*
X016670Y002691D01*
X016670Y002489D01*
X016592Y002301D01*
X016449Y002158D01*
X016261Y002080D01*
X016059Y002080D01*
X015871Y002158D01*
X015728Y002301D01*
X015650Y002489D01*
X015650Y002691D01*
X015728Y002879D01*
X015871Y003022D01*
X016059Y003100D01*
X016261Y003100D01*
X016449Y003022D01*
X016625Y002799D02*
X016870Y002799D01*
X016886Y002641D02*
X016670Y002641D01*
X016667Y002482D02*
X016957Y002482D01*
X017149Y002324D02*
X016602Y002324D01*
X016456Y002165D02*
X018404Y002165D01*
X018411Y002158D02*
X018599Y002080D01*
X018801Y002080D01*
X018989Y002158D01*
X019132Y002301D01*
X019210Y002489D01*
X019210Y002691D01*
X019132Y002879D01*
X018989Y003022D01*
X018801Y003100D01*
X018599Y003100D01*
X018411Y003022D01*
X018268Y002879D01*
X018190Y002691D01*
X018190Y002489D01*
X018268Y002301D01*
X018411Y002158D01*
X018258Y002324D02*
X017611Y002324D01*
X017803Y002482D02*
X018193Y002482D01*
X018190Y002641D02*
X017874Y002641D01*
X017890Y002799D02*
X018235Y002799D01*
X018346Y002958D02*
X017858Y002958D01*
X017765Y003116D02*
X023220Y003116D01*
X023220Y002958D02*
X021614Y002958D01*
X021549Y003022D02*
X021361Y003100D01*
X021159Y003100D01*
X020971Y003022D01*
X020828Y002879D01*
X020750Y002691D01*
X020750Y002489D01*
X020828Y002301D01*
X020971Y002158D01*
X021159Y002080D01*
X021361Y002080D01*
X021549Y002158D01*
X021692Y002301D01*
X021770Y002489D01*
X021770Y002691D01*
X021692Y002879D01*
X021549Y003022D01*
X021725Y002799D02*
X023220Y002799D01*
X023220Y002641D02*
X021770Y002641D01*
X021767Y002482D02*
X023220Y002482D01*
X023220Y002324D02*
X021702Y002324D01*
X021556Y002165D02*
X023220Y002165D01*
X023220Y002007D02*
X000810Y002007D01*
X000810Y002165D02*
X002504Y002165D01*
X002358Y002324D02*
X000810Y002324D01*
X000810Y002482D02*
X001350Y002482D01*
X001610Y002482D02*
X002293Y002482D01*
X002290Y002641D02*
X001862Y002641D01*
X001957Y002799D02*
X002335Y002799D01*
X002446Y002958D02*
X001990Y002958D01*
X001241Y003433D02*
X000810Y003433D01*
X000810Y003275D02*
X001053Y003275D01*
X000984Y003116D02*
X000810Y003116D01*
X000810Y002958D02*
X000970Y002958D01*
X001003Y002799D02*
X000810Y002799D01*
X000810Y002641D02*
X001098Y002641D01*
X000810Y001848D02*
X023220Y001848D01*
X023220Y001690D02*
X000810Y001690D01*
X000810Y001531D02*
X023220Y001531D01*
X023220Y001373D02*
X000810Y001373D01*
X000810Y001214D02*
X023220Y001214D01*
X023220Y001056D02*
X000810Y001056D01*
X000810Y000897D02*
X023220Y000897D01*
X020964Y002165D02*
X018996Y002165D01*
X019142Y002324D02*
X020818Y002324D01*
X020753Y002482D02*
X019207Y002482D01*
X019210Y002641D02*
X020750Y002641D01*
X020795Y002799D02*
X019165Y002799D01*
X019054Y002958D02*
X020906Y002958D01*
X021041Y003909D02*
X018919Y003909D01*
X019118Y004067D02*
X020842Y004067D01*
X020768Y004226D02*
X019192Y004226D01*
X019210Y004384D02*
X020750Y004384D01*
X020737Y004543D02*
X019243Y004543D01*
X019079Y004860D02*
X018851Y004860D01*
X018549Y004860D02*
X016311Y004860D01*
X016261Y004880D02*
X016059Y004880D01*
X015871Y004802D01*
X015865Y004796D01*
X015810Y004850D01*
X015710Y004950D01*
X014070Y004950D01*
X013905Y004786D01*
X013889Y004802D01*
X013701Y004880D01*
X013499Y004880D01*
X013311Y004802D01*
X013168Y004659D01*
X013090Y004471D01*
X013090Y004269D01*
X013168Y004081D01*
X013311Y003938D01*
X013499Y003860D01*
X013701Y003860D01*
X013889Y003938D01*
X014032Y004081D01*
X014110Y004269D01*
X014110Y004471D01*
X014099Y004498D01*
X014210Y004610D01*
X015570Y004610D01*
X015667Y004513D01*
X015650Y004471D01*
X015650Y004269D01*
X015728Y004081D01*
X015871Y003938D01*
X016059Y003860D01*
X016261Y003860D01*
X016449Y003938D01*
X016592Y004081D01*
X016670Y004269D01*
X016670Y004471D01*
X016592Y004659D01*
X016449Y004802D01*
X016261Y004880D01*
X016009Y004860D02*
X015801Y004860D01*
X015637Y004543D02*
X014143Y004543D01*
X014110Y004384D02*
X015650Y004384D01*
X015668Y004226D02*
X014092Y004226D01*
X014018Y004067D02*
X015742Y004067D01*
X015941Y003909D02*
X013819Y003909D01*
X013381Y003909D02*
X011179Y003909D01*
X011378Y004067D02*
X013182Y004067D01*
X013108Y004226D02*
X011452Y004226D01*
X011470Y004384D02*
X013090Y004384D01*
X013119Y004543D02*
X011441Y004543D01*
X011350Y004701D02*
X013210Y004701D01*
X013449Y004860D02*
X011111Y004860D01*
X010809Y004860D02*
X008551Y004860D01*
X008382Y005018D02*
X023220Y005018D01*
X023220Y004860D02*
X021411Y004860D01*
X021650Y004701D02*
X023220Y004701D01*
X023220Y004543D02*
X021741Y004543D01*
X021770Y004384D02*
X023220Y004384D01*
X023220Y004226D02*
X021752Y004226D01*
X021678Y004067D02*
X023220Y004067D01*
X023220Y003909D02*
X021479Y003909D01*
X021109Y004860D02*
X020901Y004860D01*
X020638Y005494D02*
X023220Y005494D01*
X023220Y005652D02*
X020873Y005652D01*
X020912Y005691D02*
X020990Y005879D01*
X020990Y006081D01*
X020912Y006269D01*
X020769Y006412D01*
X020581Y006490D01*
X020379Y006490D01*
X020191Y006412D01*
X020048Y006269D01*
X019980Y006106D01*
X019912Y006269D01*
X019769Y006412D01*
X019581Y006490D01*
X019379Y006490D01*
X019191Y006412D01*
X019048Y006269D01*
X018970Y006081D01*
X018970Y005879D01*
X019048Y005691D01*
X019191Y005548D01*
X019379Y005470D01*
X019581Y005470D01*
X019769Y005548D01*
X019912Y005691D01*
X019980Y005854D01*
X020048Y005691D01*
X020191Y005548D01*
X020379Y005470D01*
X020581Y005470D01*
X020769Y005548D01*
X020912Y005691D01*
X020962Y005811D02*
X023220Y005811D01*
X023220Y005969D02*
X020990Y005969D01*
X020971Y006128D02*
X023220Y006128D01*
X023220Y006286D02*
X020895Y006286D01*
X020691Y006445D02*
X023220Y006445D01*
X023220Y006603D02*
X010923Y006603D01*
X010765Y006445D02*
X012069Y006445D01*
X011991Y006412D02*
X011848Y006269D01*
X011770Y006081D01*
X011770Y005879D01*
X011848Y005691D01*
X011991Y005548D01*
X012179Y005470D01*
X012381Y005470D01*
X012569Y005548D01*
X012712Y005691D01*
X012790Y005879D01*
X012790Y006081D01*
X012712Y006269D01*
X012569Y006412D01*
X012381Y006490D01*
X012179Y006490D01*
X011991Y006412D01*
X011865Y006286D02*
X010606Y006286D01*
X010601Y006280D02*
X011750Y007430D01*
X011850Y007530D01*
X011850Y008190D01*
X011945Y008284D01*
X011979Y008270D01*
X012181Y008270D01*
X012369Y008348D01*
X012512Y008491D01*
X012590Y008679D01*
X012590Y008881D01*
X012512Y009069D01*
X012369Y009212D01*
X012181Y009290D01*
X011979Y009290D01*
X011791Y009212D01*
X011648Y009069D01*
X011570Y008881D01*
X011570Y008679D01*
X011648Y008491D01*
X011659Y008480D01*
X011510Y008330D01*
X011510Y007670D01*
X010315Y006476D01*
X010281Y006490D01*
X010079Y006490D01*
X009891Y006412D01*
X009748Y006269D01*
X009680Y006106D01*
X009612Y006269D01*
X009469Y006412D01*
X009281Y006490D01*
X009079Y006490D01*
X008891Y006412D01*
X008748Y006269D01*
X008670Y006081D01*
X008670Y005879D01*
X008748Y005691D01*
X008891Y005548D01*
X009079Y005470D01*
X009281Y005470D01*
X009469Y005548D01*
X009612Y005691D01*
X009680Y005854D01*
X009748Y005691D01*
X009891Y005548D01*
X010079Y005470D01*
X010281Y005470D01*
X010469Y005548D01*
X010612Y005691D01*
X010690Y005879D01*
X010690Y006081D01*
X010612Y006269D01*
X010601Y006280D01*
X010671Y006128D02*
X011789Y006128D01*
X011770Y005969D02*
X010690Y005969D01*
X010662Y005811D02*
X011798Y005811D01*
X011887Y005652D02*
X010573Y005652D01*
X010338Y005494D02*
X012122Y005494D01*
X012438Y005494D02*
X014222Y005494D01*
X014279Y005470D02*
X014091Y005548D01*
X013948Y005691D01*
X013870Y005879D01*
X013870Y006081D01*
X013948Y006269D01*
X014091Y006412D01*
X014279Y006490D01*
X014481Y006490D01*
X014669Y006412D01*
X014812Y006269D01*
X014880Y006106D01*
X014948Y006269D01*
X015091Y006412D01*
X015279Y006490D01*
X015481Y006490D01*
X015669Y006412D01*
X015812Y006269D01*
X015890Y006081D01*
X015890Y005879D01*
X015812Y005691D01*
X015669Y005548D01*
X015481Y005470D01*
X015279Y005470D01*
X015091Y005548D01*
X014948Y005691D01*
X014880Y005854D01*
X014812Y005691D01*
X014669Y005548D01*
X014481Y005470D01*
X014279Y005470D01*
X014538Y005494D02*
X015222Y005494D01*
X014987Y005652D02*
X014773Y005652D01*
X014862Y005811D02*
X014898Y005811D01*
X014889Y006128D02*
X014871Y006128D01*
X014795Y006286D02*
X014965Y006286D01*
X015169Y006445D02*
X014591Y006445D01*
X014169Y006445D02*
X012491Y006445D01*
X012695Y006286D02*
X013965Y006286D01*
X013889Y006128D02*
X012771Y006128D01*
X012790Y005969D02*
X013870Y005969D01*
X013898Y005811D02*
X012762Y005811D01*
X012673Y005652D02*
X013987Y005652D01*
X013979Y004860D02*
X013751Y004860D01*
X015538Y005494D02*
X016947Y005494D01*
X016948Y005491D02*
X017091Y005348D01*
X017279Y005270D01*
X017481Y005270D01*
X017669Y005348D01*
X017812Y005491D01*
X017890Y005679D01*
X017890Y005881D01*
X017812Y006069D01*
X017669Y006212D01*
X017481Y006290D01*
X017279Y006290D01*
X017091Y006212D01*
X016948Y006069D01*
X016870Y005881D01*
X016870Y005679D01*
X016948Y005491D01*
X016881Y005652D02*
X015773Y005652D01*
X015862Y005811D02*
X016870Y005811D01*
X016906Y005969D02*
X015890Y005969D01*
X015871Y006128D02*
X017006Y006128D01*
X017269Y006286D02*
X015795Y006286D01*
X015591Y006445D02*
X019269Y006445D01*
X019065Y006286D02*
X017491Y006286D01*
X017754Y006128D02*
X018989Y006128D01*
X018970Y005969D02*
X017854Y005969D01*
X017890Y005811D02*
X018998Y005811D01*
X019087Y005652D02*
X017879Y005652D01*
X017813Y005494D02*
X019322Y005494D01*
X019638Y005494D02*
X020322Y005494D01*
X020087Y005652D02*
X019873Y005652D01*
X019962Y005811D02*
X019998Y005811D01*
X019989Y006128D02*
X019971Y006128D01*
X019895Y006286D02*
X020065Y006286D01*
X020269Y006445D02*
X019691Y006445D01*
X017638Y005335D02*
X023220Y005335D01*
X023220Y005177D02*
X008310Y005177D01*
X008310Y005335D02*
X017122Y005335D01*
X016550Y004701D02*
X018310Y004701D01*
X018219Y004543D02*
X016641Y004543D01*
X016670Y004384D02*
X018064Y004384D01*
X017905Y004226D02*
X016652Y004226D01*
X016578Y004067D02*
X017747Y004067D01*
X017588Y003909D02*
X016379Y003909D01*
X017241Y003275D02*
X012707Y003275D01*
X012519Y003433D02*
X023220Y003433D01*
X023220Y003275D02*
X017519Y003275D01*
X017752Y003592D02*
X023220Y003592D01*
X023220Y003750D02*
X017910Y003750D01*
X018069Y003909D02*
X018481Y003909D01*
X018282Y004067D02*
X018227Y004067D01*
X015806Y002958D02*
X013954Y002958D01*
X014065Y002799D02*
X015695Y002799D01*
X015650Y002641D02*
X014110Y002641D01*
X014107Y002482D02*
X015653Y002482D01*
X015718Y002324D02*
X014042Y002324D01*
X013896Y002165D02*
X015864Y002165D01*
X013304Y002165D02*
X011256Y002165D01*
X011402Y002324D02*
X013158Y002324D01*
X011853Y003275D02*
X007507Y003275D01*
X007319Y003433D02*
X012041Y003433D01*
X010741Y003909D02*
X008619Y003909D01*
X008818Y004067D02*
X010542Y004067D01*
X010468Y004226D02*
X008892Y004226D01*
X009064Y004384D02*
X010276Y004384D01*
X010439Y004701D02*
X010570Y004701D01*
X010022Y005494D02*
X009338Y005494D01*
X009573Y005652D02*
X009787Y005652D01*
X009698Y005811D02*
X009662Y005811D01*
X009671Y006128D02*
X009689Y006128D01*
X009765Y006286D02*
X009595Y006286D01*
X009391Y006445D02*
X009969Y006445D01*
X010443Y006603D02*
X008130Y006603D01*
X008130Y006762D02*
X010601Y006762D01*
X010760Y006920D02*
X008130Y006920D01*
X008130Y007079D02*
X010918Y007079D01*
X011077Y007237D02*
X008130Y007237D01*
X008130Y007396D02*
X011235Y007396D01*
X011394Y007554D02*
X008130Y007554D01*
X008130Y007713D02*
X011510Y007713D01*
X011510Y007871D02*
X008130Y007871D01*
X008130Y008030D02*
X011510Y008030D01*
X011510Y008188D02*
X008130Y008188D01*
X008130Y008347D02*
X008794Y008347D01*
X008791Y008348D02*
X008979Y008270D01*
X009181Y008270D01*
X009369Y008348D01*
X009512Y008491D01*
X009590Y008679D01*
X009590Y008881D01*
X009512Y009069D01*
X009369Y009212D01*
X009181Y009290D01*
X008979Y009290D01*
X008791Y009212D01*
X008648Y009069D01*
X008570Y008881D01*
X008570Y008679D01*
X008648Y008491D01*
X008791Y008348D01*
X008642Y008505D02*
X008174Y008505D01*
X008235Y008664D02*
X008576Y008664D01*
X008570Y008822D02*
X008199Y008822D01*
X008611Y008981D02*
X005680Y008981D01*
X005521Y009139D02*
X008718Y009139D01*
X009442Y009139D02*
X011718Y009139D01*
X011611Y008981D02*
X009549Y008981D01*
X009590Y008822D02*
X011570Y008822D01*
X011576Y008664D02*
X009584Y008664D01*
X009518Y008505D02*
X011642Y008505D01*
X011526Y008347D02*
X009366Y008347D01*
X007790Y008347D02*
X006915Y008347D01*
X006883Y008188D02*
X007790Y008188D01*
X007746Y008505D02*
X006844Y008505D01*
X006436Y008505D02*
X006155Y008505D01*
X005997Y008664D02*
X007685Y008664D01*
X007721Y008822D02*
X005838Y008822D01*
X005363Y009298D02*
X023220Y009298D01*
X023220Y009456D02*
X005204Y009456D01*
X005046Y009615D02*
X023220Y009615D01*
X023220Y009773D02*
X012394Y009773D01*
X012529Y009932D02*
X023220Y009932D01*
X023220Y010090D02*
X012590Y010090D01*
X012590Y010249D02*
X023220Y010249D01*
X023220Y010407D02*
X012538Y010407D01*
X012416Y010566D02*
X023220Y010566D01*
X023220Y009139D02*
X012442Y009139D01*
X012549Y008981D02*
X023220Y008981D01*
X023220Y008822D02*
X012590Y008822D01*
X012584Y008664D02*
X023220Y008664D01*
X023220Y008505D02*
X012518Y008505D01*
X012366Y008347D02*
X023220Y008347D01*
X023220Y008188D02*
X011850Y008188D01*
X011850Y008030D02*
X023220Y008030D01*
X023220Y007871D02*
X011850Y007871D01*
X011850Y007713D02*
X023220Y007713D01*
X023220Y007554D02*
X011850Y007554D01*
X011716Y007396D02*
X023220Y007396D01*
X023220Y007237D02*
X011557Y007237D01*
X011399Y007079D02*
X023220Y007079D01*
X023220Y006920D02*
X011240Y006920D01*
X011082Y006762D02*
X023220Y006762D01*
X011238Y011358D02*
X011191Y011358D01*
X011245Y011517D02*
X011270Y011517D01*
X011270Y011675D02*
X011244Y011675D01*
X011270Y011834D02*
X011178Y011834D01*
X011270Y011992D02*
X011000Y011992D01*
X010730Y012151D02*
X011270Y012151D01*
X011270Y012309D02*
X010650Y012309D01*
X010650Y012468D02*
X011270Y012468D01*
X011270Y012626D02*
X010650Y012626D01*
X010516Y012785D02*
X011270Y012785D01*
X011270Y012943D02*
X010357Y012943D01*
X010199Y013102D02*
X011270Y013102D01*
X011120Y013260D02*
X010040Y013260D01*
X009882Y013419D02*
X010961Y013419D01*
X010803Y013577D02*
X009723Y013577D01*
X009565Y013736D02*
X010644Y013736D01*
X010490Y013894D02*
X009406Y013894D01*
X009084Y013736D02*
X000810Y013736D01*
X000810Y013894D02*
X008926Y013894D01*
X009243Y013577D02*
X000810Y013577D01*
X000810Y013419D02*
X009401Y013419D01*
X009560Y013260D02*
X000810Y013260D01*
X000810Y013102D02*
X009718Y013102D01*
X009877Y012943D02*
X000810Y012943D01*
X000810Y012785D02*
X010035Y012785D01*
X010194Y012626D02*
X000810Y012626D01*
X000810Y012468D02*
X010310Y012468D01*
X010310Y012309D02*
X000810Y012309D01*
X000810Y012151D02*
X010310Y012151D01*
X010408Y011992D02*
X010000Y011992D01*
X010043Y011974D02*
X009872Y012045D01*
X009688Y012045D01*
X009517Y011974D01*
X009386Y011843D01*
X009315Y011672D01*
X009315Y011488D01*
X009386Y011317D01*
X009517Y011186D01*
X009688Y011115D01*
X009872Y011115D01*
X010043Y011186D01*
X010174Y011317D01*
X010245Y011488D01*
X010245Y011672D01*
X010174Y011843D01*
X010043Y011974D01*
X010178Y011834D02*
X010382Y011834D01*
X010316Y011675D02*
X010244Y011675D01*
X010245Y011517D02*
X010315Y011517D01*
X010369Y011358D02*
X010191Y011358D01*
X010057Y011200D02*
X010503Y011200D01*
X010762Y010883D02*
X003295Y010883D01*
X003314Y010724D02*
X009524Y010724D01*
X008744Y010566D02*
X003214Y010566D01*
X002907Y010407D02*
X008622Y010407D01*
X008570Y010249D02*
X002749Y010249D01*
X002427Y010407D02*
X000810Y010407D01*
X000810Y010249D02*
X002268Y010249D01*
X002110Y010090D02*
X000810Y010090D01*
X000810Y009932D02*
X001951Y009932D01*
X001793Y009773D02*
X000810Y009773D01*
X000810Y009615D02*
X001670Y009615D01*
X001670Y009456D02*
X000810Y009456D01*
X000810Y009298D02*
X001670Y009298D01*
X001583Y009139D02*
X000810Y009139D01*
X000810Y008981D02*
X001567Y008981D01*
X003718Y009298D02*
X004522Y009298D01*
X004364Y009456D02*
X003876Y009456D01*
X004035Y009615D02*
X004063Y009615D01*
X002585Y010566D02*
X000810Y010566D01*
X000810Y010724D02*
X002744Y010724D01*
X002785Y010883D02*
X000810Y010883D01*
X000810Y011041D02*
X002952Y011041D01*
X003128Y011041D02*
X010921Y011041D01*
X011057Y011200D02*
X011079Y011200D01*
X009503Y011200D02*
X000810Y011200D01*
X000810Y011358D02*
X009369Y011358D01*
X009315Y011517D02*
X000810Y011517D01*
X000810Y011675D02*
X009316Y011675D01*
X009382Y011834D02*
X000810Y011834D01*
X000810Y011992D02*
X009560Y011992D01*
X011283Y013577D02*
X015437Y013577D01*
X015595Y013736D02*
X011125Y013736D01*
X010966Y013894D02*
X015754Y013894D01*
X015228Y014211D02*
X014932Y014211D01*
X015045Y014370D02*
X015115Y014370D01*
X015138Y014845D02*
X015022Y014845D01*
X014878Y015004D02*
X015282Y015004D01*
X015878Y015004D02*
X016282Y015004D01*
X016138Y014845D02*
X016022Y014845D01*
X014282Y015004D02*
X014122Y015004D01*
X014130Y014845D02*
X014138Y014845D01*
X013600Y014845D02*
X013560Y014845D01*
X013560Y014687D02*
X013600Y014687D01*
X013600Y014528D02*
X013560Y014528D01*
X013560Y014370D02*
X013600Y014370D01*
X013600Y015004D02*
X013560Y015004D01*
X015278Y013419D02*
X011442Y013419D01*
X009138Y014845D02*
X009022Y014845D01*
X008878Y015004D02*
X009282Y015004D01*
X008282Y015004D02*
X008122Y015004D01*
X008130Y014845D02*
X008138Y014845D01*
X007600Y014845D02*
X007560Y014845D01*
X007560Y014687D02*
X007600Y014687D01*
X007600Y014528D02*
X007560Y014528D01*
X007560Y014370D02*
X007600Y014370D01*
X007600Y015004D02*
X007560Y015004D01*
X002656Y015321D02*
X021432Y015321D01*
X021563Y015479D02*
X002497Y015479D01*
X002157Y015638D02*
X021762Y015638D01*
X006424Y007396D02*
X005945Y007396D01*
X005786Y007554D02*
X006266Y007554D01*
X006107Y007713D02*
X005628Y007713D01*
X006103Y007237D02*
X006583Y007237D01*
X006741Y007079D02*
X006262Y007079D01*
X006420Y006920D02*
X006900Y006920D01*
X007058Y006762D02*
X006510Y006762D01*
X008216Y006445D02*
X008969Y006445D01*
X008765Y006286D02*
X008505Y006286D01*
X008535Y006128D02*
X008689Y006128D01*
X008670Y005969D02*
X008458Y005969D01*
X008310Y005811D02*
X008698Y005811D01*
X008787Y005652D02*
X008310Y005652D01*
X008310Y005494D02*
X009022Y005494D01*
X008901Y004701D02*
X008790Y004701D01*
X006841Y003433D02*
X004867Y003433D01*
X005026Y003275D02*
X006653Y003275D01*
X006584Y003116D02*
X005184Y003116D01*
X005714Y002958D02*
X006570Y002958D01*
X006603Y002799D02*
X005825Y002799D01*
X005870Y002641D02*
X006698Y002641D01*
X008696Y002165D02*
X010664Y002165D01*
X010518Y002324D02*
X008842Y002324D01*
X008907Y002482D02*
X010453Y002482D01*
X010450Y002641D02*
X008910Y002641D01*
X008865Y002799D02*
X010495Y002799D01*
X010606Y002958D02*
X008754Y002958D01*
X005141Y003909D02*
X004830Y003909D01*
X004830Y004067D02*
X004942Y004067D01*
X004868Y004226D02*
X004830Y004226D01*
X004830Y004384D02*
X004850Y004384D01*
X004830Y004543D02*
X004879Y004543D01*
X004830Y004701D02*
X004970Y004701D01*
X004228Y005811D02*
X003932Y005811D01*
X004045Y005969D02*
X004115Y005969D01*
X004138Y006445D02*
X004022Y006445D01*
X003878Y006603D02*
X004282Y006603D01*
X001491Y014053D02*
X000810Y014053D01*
X000810Y014211D02*
X001333Y014211D01*
X001219Y014370D02*
X000810Y014370D01*
X000810Y014528D02*
X001154Y014528D01*
X001120Y014687D02*
X000810Y014687D01*
X000810Y014845D02*
X001120Y014845D01*
X001142Y015004D02*
X000810Y015004D01*
X000810Y015162D02*
X001207Y015162D01*
X001304Y015321D02*
X000810Y015321D01*
X000810Y015479D02*
X001463Y015479D01*
X001803Y015638D02*
X000810Y015638D01*
D14*
X001780Y011861D03*
D15*
X003040Y010780D02*
X001840Y009580D01*
X001840Y009040D01*
X002200Y008020D02*
X002200Y004780D01*
X001900Y004480D01*
X001900Y003520D01*
X001480Y003100D01*
X001480Y002980D01*
X004660Y003400D02*
X005320Y002740D01*
X005320Y002620D01*
X005360Y002590D01*
X004660Y003400D02*
X004660Y005380D01*
X004480Y005560D01*
X004480Y005740D01*
X004540Y005800D01*
X004540Y006160D01*
X004580Y006180D01*
X006340Y006760D02*
X006340Y005440D01*
X008140Y003640D01*
X012040Y003640D01*
X012100Y003700D01*
X013360Y003700D01*
X013420Y003640D01*
X017560Y003640D01*
X018220Y004300D01*
X018280Y004300D01*
X018340Y004360D01*
X018700Y004360D01*
X018700Y004370D01*
X018700Y004420D01*
X018880Y004420D01*
X019240Y004780D01*
X020740Y004780D01*
X021100Y004420D01*
X021220Y004420D01*
X021260Y004370D01*
X016160Y004370D02*
X016120Y004420D01*
X016000Y004420D01*
X015640Y004780D01*
X014140Y004780D01*
X013780Y004420D01*
X013600Y004420D01*
X013600Y004370D01*
X010960Y004360D02*
X010960Y004370D01*
X010960Y004360D02*
X010600Y004360D01*
X010480Y004480D01*
X010420Y004480D01*
X010300Y004600D01*
X009040Y004600D01*
X008920Y004480D01*
X008800Y004480D01*
X008740Y004420D01*
X008440Y004420D01*
X008400Y004370D01*
X008380Y004420D01*
X008380Y004720D01*
X008320Y004780D01*
X008320Y004840D01*
X008140Y005020D01*
X008140Y005920D01*
X004300Y009760D01*
X004180Y010000D02*
X002200Y008020D01*
X004300Y008800D02*
X006340Y006760D01*
X007960Y006460D02*
X008260Y006160D01*
X007960Y006460D02*
X007960Y008680D01*
X006640Y008320D02*
X006100Y008320D01*
X004420Y010000D01*
X004180Y010000D01*
X009080Y010180D02*
X009220Y010180D01*
X009640Y010600D01*
X010720Y010600D01*
X011440Y011320D01*
X011440Y013180D01*
X015280Y013180D01*
X016540Y014440D01*
X016540Y014560D01*
X016580Y014580D01*
X011440Y013180D02*
X010660Y013960D01*
X010660Y014200D01*
X010600Y014260D01*
X010600Y014560D01*
X010580Y014580D01*
X008620Y014560D02*
X008580Y014580D01*
X008620Y014560D02*
X008620Y014440D01*
X010480Y012580D01*
X010480Y012160D01*
X010780Y011860D01*
X010780Y011580D01*
X012080Y008780D02*
X012040Y008740D01*
X012040Y008620D01*
X011680Y008260D01*
X011680Y007600D01*
X010180Y006100D01*
X010180Y005980D01*
D16*
X008260Y006160D03*
X006640Y008320D03*
X007960Y008680D03*
X004300Y008800D03*
X004300Y009760D03*
X003040Y010780D03*
X001840Y009040D03*
M02*
