G75*
%MOIN*%
%OFA0B0*%
%FSLAX24Y24*%
%IPPOS*%
%LPD*%
%AMOC8*
5,1,8,0,0,1.08239X$1,22.5*
%
%ADD10C,0.0650*%
%ADD11R,0.0866X0.0236*%
%ADD12C,0.0740*%
%ADD13R,0.0740X0.0740*%
%ADD14R,0.0250X0.0500*%
%ADD15C,0.0060*%
%ADD16C,0.0160*%
%ADD17C,0.0337*%
%ADD18C,0.0270*%
D10*
X009780Y011580D03*
X010780Y011580D03*
D11*
X007291Y011330D03*
X007291Y010830D03*
X007291Y010330D03*
X007291Y009830D03*
X007291Y009330D03*
X007291Y008830D03*
X007291Y008330D03*
X003669Y008330D03*
X003669Y008830D03*
X003669Y009330D03*
X003669Y009830D03*
X003669Y010330D03*
X003669Y010830D03*
X003669Y011330D03*
X003669Y011830D03*
X007291Y011830D03*
D12*
X009080Y010180D03*
X009080Y008780D03*
X012080Y008780D03*
X012080Y010180D03*
X012280Y005980D03*
X010180Y005980D03*
X009180Y005980D03*
X007080Y005980D03*
X004580Y006180D03*
X003580Y006180D03*
X001480Y005980D03*
X002800Y004370D03*
X005360Y004370D03*
X007080Y002980D03*
X008400Y002590D03*
X010960Y002590D03*
X012280Y002980D03*
X013600Y002590D03*
X016160Y002590D03*
X017380Y002780D03*
X018700Y002590D03*
X021260Y002590D03*
X021260Y004370D03*
X018700Y004370D03*
X017380Y005780D03*
X019480Y005980D03*
X020480Y005980D03*
X016160Y004370D03*
X013600Y004370D03*
X010960Y004370D03*
X008400Y004370D03*
X005360Y002590D03*
X002800Y002590D03*
X001480Y002980D03*
X014380Y005980D03*
X015380Y005980D03*
X015580Y014580D03*
X014580Y014580D03*
X016580Y014580D03*
X010580Y014580D03*
X009580Y014580D03*
X008580Y014580D03*
D13*
X007580Y014580D03*
X013580Y014580D03*
D14*
X002130Y011180D03*
X001780Y011180D03*
X001430Y011180D03*
X001430Y009980D03*
X001780Y009980D03*
X002130Y009980D03*
X002130Y008580D03*
X001780Y008580D03*
X001430Y008580D03*
D15*
X001780Y008580D02*
X001780Y008800D01*
X001840Y008860D01*
X001840Y009040D01*
X002140Y008620D02*
X002130Y008580D01*
X002140Y008560D01*
X002380Y008560D01*
X002920Y008020D01*
X002920Y007960D01*
X004540Y006340D01*
X004540Y006220D01*
X004580Y006180D01*
X003580Y006160D02*
X003580Y006180D01*
X003580Y006160D02*
X003400Y006160D01*
X002800Y005560D01*
X002020Y005560D01*
X001600Y005980D01*
X001480Y005980D01*
X003160Y004360D02*
X003280Y004480D01*
X003340Y004480D01*
X003460Y004600D01*
X004720Y004600D01*
X004840Y004480D01*
X004960Y004480D01*
X005020Y004420D01*
X005320Y004420D01*
X005360Y004370D01*
X005380Y004420D01*
X005380Y004720D01*
X005440Y004780D01*
X005440Y009220D01*
X004360Y010300D01*
X003700Y010300D01*
X003669Y010330D01*
X003220Y010600D02*
X004120Y010600D01*
X004300Y010420D01*
X004420Y010420D01*
X006400Y008440D01*
X006400Y008200D01*
X007900Y006700D01*
X010540Y006700D01*
X012460Y004780D01*
X013060Y004780D01*
X013420Y004420D01*
X013600Y004420D01*
X013600Y004370D01*
X013900Y005080D02*
X014320Y004660D01*
X014320Y004060D01*
X013660Y003400D01*
X012820Y003400D01*
X012400Y002980D01*
X012280Y002980D01*
X011500Y002200D02*
X011140Y002560D01*
X010960Y002560D01*
X010960Y002590D01*
X010780Y002560D01*
X010780Y002920D01*
X010240Y003460D01*
X010240Y004660D01*
X010420Y004840D01*
X010420Y005320D01*
X010300Y005440D01*
X010300Y005500D01*
X010180Y005620D01*
X010180Y005980D01*
X009180Y005980D02*
X009040Y005980D01*
X008620Y006400D01*
X007660Y006400D01*
X007240Y005980D01*
X007080Y005980D01*
X008260Y006160D02*
X008260Y005260D01*
X007480Y004480D01*
X007480Y003520D01*
X007120Y003160D01*
X007120Y002980D01*
X007080Y002980D01*
X007840Y002140D02*
X008260Y002560D01*
X008380Y002560D01*
X008400Y002590D01*
X008440Y002560D01*
X008560Y002560D01*
X008920Y002200D01*
X010420Y002200D01*
X010780Y002560D01*
X010960Y002560D01*
X011500Y002200D02*
X013060Y002200D01*
X013420Y002560D01*
X013600Y002560D01*
X013600Y002590D01*
X013600Y002620D01*
X013780Y002620D01*
X014140Y002980D01*
X014980Y002980D01*
X014980Y005440D01*
X015340Y005800D01*
X015340Y005980D01*
X015380Y005980D01*
X014380Y005980D02*
X014260Y005980D01*
X013840Y005560D01*
X012820Y005560D01*
X012400Y005980D01*
X012280Y005980D01*
X012340Y005080D02*
X010600Y006820D01*
X010060Y006820D01*
X008380Y008500D01*
X008380Y008920D01*
X007960Y009340D01*
X007300Y009340D01*
X007291Y009330D01*
X007300Y009820D02*
X007291Y009830D01*
X007300Y009820D02*
X007960Y009820D01*
X008440Y009340D01*
X008440Y009040D01*
X008500Y008980D01*
X008500Y008920D01*
X008620Y008800D01*
X008620Y008560D01*
X010240Y006940D01*
X015460Y006940D01*
X016660Y005740D01*
X016660Y004900D01*
X016960Y004600D01*
X016960Y003340D01*
X017380Y002920D01*
X017380Y002780D01*
X018040Y002080D02*
X018520Y002560D01*
X018700Y002560D01*
X018700Y002590D01*
X018700Y002620D01*
X018880Y002620D01*
X019240Y002980D01*
X020080Y002980D01*
X020080Y005440D01*
X020440Y005800D01*
X020440Y005980D01*
X020480Y005980D01*
X019480Y005980D02*
X019120Y005980D01*
X019060Y006040D01*
X019000Y006040D01*
X018820Y006220D01*
X017980Y006220D01*
X017560Y005800D01*
X017380Y005800D01*
X017380Y005780D01*
X013900Y005080D02*
X012340Y005080D01*
X014980Y002980D02*
X015640Y002980D01*
X016000Y002620D01*
X016120Y002620D01*
X016160Y002590D01*
X016180Y002560D01*
X016300Y002560D01*
X016780Y002080D01*
X018040Y002080D01*
X020080Y002980D02*
X020740Y002980D01*
X021100Y002620D01*
X021220Y002620D01*
X021260Y002590D01*
X012080Y008780D02*
X012040Y008800D01*
X012040Y009160D01*
X011980Y009220D01*
X011980Y010120D01*
X012040Y010180D01*
X012080Y010180D01*
X012040Y010180D02*
X012040Y010360D01*
X011800Y010600D01*
X011800Y010660D01*
X011380Y011080D01*
X014260Y013960D01*
X014260Y014020D01*
X014560Y014320D01*
X014560Y014560D01*
X014580Y014580D01*
X014980Y015340D02*
X015580Y014740D01*
X015580Y014580D01*
X014980Y015340D02*
X010240Y015340D01*
X009580Y014680D01*
X009580Y014580D01*
X009580Y014440D01*
X007420Y012280D01*
X006700Y012280D01*
X006520Y012100D01*
X006520Y011560D01*
X006760Y011320D01*
X007240Y011320D01*
X007291Y011330D01*
X007300Y011320D01*
X008980Y011320D01*
X009820Y010480D01*
X009820Y009640D01*
X009100Y008920D01*
X009100Y008800D01*
X009080Y008780D01*
X007960Y008680D02*
X007840Y008800D01*
X007300Y008800D01*
X007291Y008830D01*
X007291Y008330D02*
X007240Y008320D01*
X006640Y008320D01*
X004300Y008800D02*
X003700Y008800D01*
X003669Y008830D01*
X003669Y009330D02*
X003640Y009340D01*
X002980Y009340D01*
X002920Y009400D01*
X002920Y010300D01*
X003220Y010600D01*
X003040Y010780D02*
X003640Y010780D01*
X003669Y010830D01*
X003700Y011320D02*
X003669Y011330D01*
X003700Y011320D02*
X004180Y011320D01*
X004420Y011560D01*
X004420Y012100D01*
X004240Y012280D01*
X001600Y012280D01*
X001000Y011680D01*
X001000Y011620D01*
X000760Y011380D01*
X000760Y010960D01*
X001120Y010600D01*
X001360Y010600D01*
X001780Y010180D01*
X001780Y009980D01*
X002130Y009980D02*
X002140Y010000D01*
X002140Y011140D01*
X002130Y011180D01*
X001780Y011180D02*
X001780Y011380D01*
X002200Y011800D01*
X003640Y011800D01*
X003669Y011830D01*
X002130Y009980D02*
X002140Y009940D01*
X002140Y008620D01*
X003669Y009830D02*
X003700Y009820D01*
X004240Y009820D01*
X004300Y009760D01*
X007291Y010830D02*
X007300Y010840D01*
X008260Y010840D01*
X008920Y010180D01*
X009080Y010180D01*
X010900Y011560D02*
X011380Y011080D01*
X010900Y011560D02*
X010780Y011560D01*
X010780Y011580D01*
X009780Y011580D02*
X009700Y011500D01*
X009460Y011500D01*
X009100Y011860D01*
X007300Y011860D01*
X007291Y011830D01*
X003160Y004360D02*
X002800Y004360D01*
X002800Y004370D01*
X003340Y002980D02*
X004840Y002980D01*
X005200Y002620D01*
X005320Y002620D01*
X005360Y002590D01*
X005380Y002560D01*
X005500Y002560D01*
X005920Y002140D01*
X007840Y002140D01*
X003340Y002980D02*
X002980Y002620D01*
X002800Y002620D01*
X002800Y002590D01*
D16*
X000810Y000810D02*
X000810Y010670D01*
X001050Y010430D01*
X001290Y010430D01*
X001310Y010410D01*
X001281Y010410D01*
X001236Y010398D01*
X001194Y010374D01*
X001161Y010341D01*
X001137Y010299D01*
X001125Y010254D01*
X001125Y009980D01*
X001430Y009980D01*
X001430Y009550D01*
X001579Y009550D01*
X001624Y009562D01*
X001666Y009586D01*
X001670Y009590D01*
X001970Y009590D01*
X001970Y009284D01*
X001895Y009315D01*
X001785Y009315D01*
X001684Y009273D01*
X001607Y009196D01*
X001565Y009095D01*
X001565Y009010D01*
X001430Y009010D01*
X001430Y008580D01*
X001430Y008580D01*
X001430Y008150D01*
X001579Y008150D01*
X001624Y008162D01*
X001666Y008186D01*
X001670Y008190D01*
X002313Y008190D01*
X002395Y008272D01*
X002395Y008305D01*
X002750Y007950D01*
X002750Y007890D01*
X004159Y006480D01*
X004148Y006469D01*
X004080Y006306D01*
X004012Y006469D01*
X003869Y006612D01*
X003681Y006690D01*
X003479Y006690D01*
X003291Y006612D01*
X003148Y006469D01*
X003070Y006281D01*
X003070Y006079D01*
X003072Y006073D01*
X002730Y005730D01*
X002090Y005730D01*
X001976Y005845D01*
X001990Y005879D01*
X001990Y006081D01*
X001912Y006269D01*
X001769Y006412D01*
X001581Y006490D01*
X001379Y006490D01*
X001191Y006412D01*
X001048Y006269D01*
X000970Y006081D01*
X000970Y005879D01*
X001048Y005691D01*
X001191Y005548D01*
X001379Y005470D01*
X001581Y005470D01*
X001769Y005548D01*
X001780Y005559D01*
X001850Y005490D01*
X001950Y005390D01*
X002870Y005390D01*
X002970Y005490D01*
X003260Y005779D01*
X003291Y005748D01*
X003479Y005670D01*
X003681Y005670D01*
X003869Y005748D01*
X004012Y005891D01*
X004080Y006054D01*
X004148Y005891D01*
X004291Y005748D01*
X004479Y005670D01*
X004681Y005670D01*
X004869Y005748D01*
X005012Y005891D01*
X005090Y006079D01*
X005090Y006281D01*
X005012Y006469D01*
X004869Y006612D01*
X004681Y006690D01*
X004479Y006690D01*
X004445Y006676D01*
X003090Y008030D01*
X003090Y008090D01*
X002990Y008190D01*
X002450Y008730D01*
X002395Y008730D01*
X002395Y008888D01*
X002313Y008970D01*
X002310Y008970D01*
X002310Y009590D01*
X002313Y009590D01*
X002395Y009672D01*
X002395Y010288D01*
X002313Y010370D01*
X002310Y010370D01*
X002310Y010790D01*
X002313Y010790D01*
X002395Y010872D01*
X002395Y011488D01*
X002313Y011570D01*
X002210Y011570D01*
X002270Y011630D01*
X003120Y011630D01*
X003170Y011580D01*
X003096Y011506D01*
X003096Y011154D01*
X003170Y011080D01*
X003130Y011040D01*
X003095Y011055D01*
X002985Y011055D01*
X002884Y011013D01*
X002807Y010936D01*
X002765Y010835D01*
X002765Y010725D01*
X002807Y010624D01*
X002884Y010547D01*
X002914Y010534D01*
X002750Y010370D01*
X002750Y009330D01*
X002850Y009230D01*
X002910Y009170D01*
X003096Y009170D01*
X003096Y009154D01*
X003170Y009080D01*
X003096Y009006D01*
X003096Y008654D01*
X003146Y008604D01*
X003125Y008592D01*
X003092Y008559D01*
X003068Y008518D01*
X003056Y008472D01*
X003056Y008330D01*
X003056Y008188D01*
X002992Y008188D01*
X003056Y008188D02*
X003068Y008142D01*
X003092Y008101D01*
X003125Y008068D01*
X003166Y008044D01*
X003212Y008032D01*
X003669Y008032D01*
X004126Y008032D01*
X004172Y008044D01*
X004213Y008068D01*
X004246Y008101D01*
X004270Y008142D01*
X004282Y008188D01*
X005270Y008188D01*
X005270Y008030D02*
X003091Y008030D01*
X003249Y007871D02*
X005270Y007871D01*
X005270Y007713D02*
X003408Y007713D01*
X003566Y007554D02*
X005270Y007554D01*
X005270Y007396D02*
X003725Y007396D01*
X003883Y007237D02*
X005270Y007237D01*
X005270Y007079D02*
X004042Y007079D01*
X004200Y006920D02*
X005270Y006920D01*
X005270Y006762D02*
X004359Y006762D01*
X004037Y006603D02*
X003878Y006603D01*
X003878Y006762D02*
X000810Y006762D01*
X000810Y006920D02*
X003720Y006920D01*
X003561Y007079D02*
X000810Y007079D01*
X000810Y007237D02*
X003403Y007237D01*
X003244Y007396D02*
X000810Y007396D01*
X000810Y007554D02*
X003086Y007554D01*
X002927Y007713D02*
X000810Y007713D01*
X000810Y007871D02*
X002769Y007871D01*
X002670Y008030D02*
X000810Y008030D01*
X000810Y008188D02*
X001192Y008188D01*
X001194Y008186D02*
X001236Y008162D01*
X001281Y008150D01*
X001430Y008150D01*
X001430Y008580D01*
X001430Y008580D01*
X001430Y008580D01*
X001125Y008580D01*
X001125Y008854D01*
X001137Y008899D01*
X001161Y008941D01*
X001194Y008974D01*
X001236Y008998D01*
X001281Y009010D01*
X001430Y009010D01*
X001430Y008580D01*
X001125Y008580D01*
X001125Y008306D01*
X001137Y008261D01*
X001161Y008219D01*
X001194Y008186D01*
X001125Y008347D02*
X000810Y008347D01*
X000810Y008505D02*
X001125Y008505D01*
X001125Y008664D02*
X000810Y008664D01*
X000810Y008822D02*
X001125Y008822D01*
X001206Y008981D02*
X000810Y008981D01*
X000810Y009139D02*
X001583Y009139D01*
X001430Y008981D02*
X001430Y008981D01*
X001430Y008822D02*
X001430Y008822D01*
X001430Y008664D02*
X001430Y008664D01*
X001430Y008505D02*
X001430Y008505D01*
X001430Y008347D02*
X001430Y008347D01*
X001430Y008188D02*
X001430Y008188D01*
X001668Y008188D02*
X002512Y008188D01*
X002834Y008347D02*
X003056Y008347D01*
X003056Y008330D02*
X003669Y008330D01*
X004282Y008330D01*
X004282Y008472D01*
X004270Y008518D01*
X004265Y008525D01*
X004355Y008525D01*
X004456Y008567D01*
X004533Y008644D01*
X004575Y008745D01*
X004575Y008855D01*
X004533Y008956D01*
X004456Y009033D01*
X004355Y009075D01*
X004245Y009075D01*
X004194Y009054D01*
X004168Y009080D01*
X004242Y009154D01*
X004242Y009486D01*
X004245Y009485D01*
X004355Y009485D01*
X004456Y009527D01*
X004533Y009604D01*
X004575Y009705D01*
X004575Y009815D01*
X004554Y009866D01*
X005270Y009150D01*
X005270Y004880D01*
X005259Y004880D01*
X005071Y004802D01*
X004928Y004659D01*
X004924Y004650D01*
X004910Y004650D01*
X004790Y004770D01*
X003390Y004770D01*
X003290Y004670D01*
X003270Y004650D01*
X003236Y004650D01*
X003232Y004659D01*
X003089Y004802D01*
X002901Y004880D01*
X002699Y004880D01*
X002511Y004802D01*
X002368Y004659D01*
X002290Y004471D01*
X002290Y004269D01*
X002368Y004081D01*
X002511Y003938D01*
X002699Y003860D01*
X002901Y003860D01*
X003089Y003938D01*
X003232Y004081D01*
X003310Y004269D01*
X003310Y004270D01*
X003330Y004290D01*
X003350Y004310D01*
X003410Y004310D01*
X003530Y004430D01*
X004650Y004430D01*
X004670Y004410D01*
X004770Y004310D01*
X004850Y004310D01*
X004850Y004269D01*
X004928Y004081D01*
X005071Y003938D01*
X005259Y003860D01*
X005461Y003860D01*
X005649Y003938D01*
X005792Y004081D01*
X005870Y004269D01*
X005870Y004471D01*
X005792Y004659D01*
X005649Y004802D01*
X005610Y004818D01*
X005610Y008990D01*
X006230Y008370D01*
X006230Y008130D01*
X007730Y006630D01*
X007790Y006570D01*
X007590Y006570D01*
X007490Y006470D01*
X007400Y006381D01*
X007369Y006412D01*
X007181Y006490D01*
X006979Y006490D01*
X006791Y006412D01*
X006648Y006269D01*
X006570Y006081D01*
X006570Y005879D01*
X006648Y005691D01*
X006791Y005548D01*
X006979Y005470D01*
X007181Y005470D01*
X007369Y005548D01*
X007512Y005691D01*
X007590Y005879D01*
X007590Y006081D01*
X007588Y006087D01*
X007730Y006230D01*
X007991Y006230D01*
X007985Y006215D01*
X007985Y006105D01*
X008027Y006004D01*
X008090Y005941D01*
X008090Y005330D01*
X007410Y004650D01*
X007410Y004650D01*
X007310Y004550D01*
X007310Y003590D01*
X007201Y003482D01*
X007181Y003490D01*
X006979Y003490D01*
X006791Y003412D01*
X006648Y003269D01*
X006570Y003081D01*
X006570Y002879D01*
X006648Y002691D01*
X006791Y002548D01*
X006979Y002470D01*
X007181Y002470D01*
X007369Y002548D01*
X007512Y002691D01*
X007590Y002879D01*
X007590Y003081D01*
X007512Y003269D01*
X007491Y003290D01*
X007650Y003450D01*
X007650Y004410D01*
X008330Y005090D01*
X008330Y005090D01*
X008430Y005190D01*
X008430Y005941D01*
X008493Y006004D01*
X008535Y006105D01*
X008535Y006215D01*
X008529Y006230D01*
X008550Y006230D01*
X008678Y006101D01*
X008670Y006081D01*
X008670Y005879D01*
X008748Y005691D01*
X008891Y005548D01*
X009079Y005470D01*
X009281Y005470D01*
X009469Y005548D01*
X009612Y005691D01*
X009680Y005854D01*
X009748Y005691D01*
X009891Y005548D01*
X010079Y005470D01*
X010090Y005470D01*
X010130Y005430D01*
X010130Y005370D01*
X010250Y005250D01*
X010250Y004910D01*
X010170Y004830D01*
X010070Y004730D01*
X010070Y003390D01*
X010554Y002905D01*
X010528Y002879D01*
X010450Y002691D01*
X010450Y002489D01*
X010455Y002476D01*
X010350Y002370D01*
X008990Y002370D01*
X008899Y002462D01*
X008910Y002489D01*
X008910Y002691D01*
X008832Y002879D01*
X008689Y003022D01*
X008501Y003100D01*
X008299Y003100D01*
X008111Y003022D01*
X007968Y002879D01*
X007890Y002691D01*
X007890Y002489D01*
X007907Y002447D01*
X007770Y002310D01*
X005990Y002310D01*
X005853Y002447D01*
X005870Y002489D01*
X005870Y002691D01*
X005792Y002879D01*
X005649Y003022D01*
X005461Y003100D01*
X005259Y003100D01*
X005071Y003022D01*
X005055Y003006D01*
X004910Y003150D01*
X003270Y003150D01*
X003170Y003050D01*
X003115Y002996D01*
X003089Y003022D01*
X002901Y003100D01*
X002699Y003100D01*
X002511Y003022D01*
X002368Y002879D01*
X002290Y002691D01*
X002290Y002489D01*
X002368Y002301D01*
X002511Y002158D01*
X002699Y002080D01*
X002901Y002080D01*
X003089Y002158D01*
X003232Y002301D01*
X003310Y002489D01*
X003310Y002691D01*
X003305Y002704D01*
X003410Y002810D01*
X004770Y002810D01*
X004861Y002718D01*
X004850Y002691D01*
X004850Y002489D01*
X004928Y002301D01*
X005071Y002158D01*
X005259Y002080D01*
X005461Y002080D01*
X005649Y002158D01*
X005655Y002164D01*
X005750Y002070D01*
X005850Y001970D01*
X007910Y001970D01*
X008105Y002164D01*
X008111Y002158D01*
X008299Y002080D01*
X008501Y002080D01*
X008689Y002158D01*
X008705Y002174D01*
X008750Y002130D01*
X008850Y002030D01*
X010490Y002030D01*
X010645Y002184D01*
X010671Y002158D01*
X010859Y002080D01*
X011061Y002080D01*
X011249Y002158D01*
X011275Y002184D01*
X011430Y002030D01*
X013130Y002030D01*
X013230Y002130D01*
X013285Y002184D01*
X013311Y002158D01*
X013499Y002080D01*
X013701Y002080D01*
X013889Y002158D01*
X014032Y002301D01*
X014110Y002489D01*
X014110Y002691D01*
X014105Y002704D01*
X014210Y002810D01*
X015570Y002810D01*
X015661Y002718D01*
X015650Y002691D01*
X015650Y002489D01*
X015728Y002301D01*
X015871Y002158D01*
X016059Y002080D01*
X016261Y002080D01*
X016449Y002158D01*
X016455Y002164D01*
X016610Y002010D01*
X016710Y001910D01*
X018110Y001910D01*
X018385Y002184D01*
X018411Y002158D01*
X018599Y002080D01*
X018801Y002080D01*
X018989Y002158D01*
X019132Y002301D01*
X019210Y002489D01*
X019210Y002691D01*
X019205Y002704D01*
X019310Y002810D01*
X020670Y002810D01*
X020761Y002718D01*
X020750Y002691D01*
X020750Y002489D01*
X020828Y002301D01*
X020971Y002158D01*
X021159Y002080D01*
X021361Y002080D01*
X021549Y002158D01*
X021692Y002301D01*
X021770Y002489D01*
X021770Y002691D01*
X021692Y002879D01*
X021549Y003022D01*
X021361Y003100D01*
X021159Y003100D01*
X020971Y003022D01*
X020955Y003006D01*
X020810Y003150D01*
X020250Y003150D01*
X020250Y005370D01*
X020359Y005478D01*
X020379Y005470D01*
X020581Y005470D01*
X020769Y005548D01*
X020912Y005691D01*
X020990Y005879D01*
X020990Y006081D01*
X020912Y006269D01*
X020769Y006412D01*
X020581Y006490D01*
X020379Y006490D01*
X020191Y006412D01*
X020048Y006269D01*
X019980Y006106D01*
X019912Y006269D01*
X019769Y006412D01*
X019581Y006490D01*
X019379Y006490D01*
X019191Y006412D01*
X019048Y006269D01*
X019037Y006243D01*
X018890Y006390D01*
X017910Y006390D01*
X017810Y006290D01*
X017700Y006181D01*
X017669Y006212D01*
X017481Y006290D01*
X017279Y006290D01*
X017091Y006212D01*
X016948Y006069D01*
X016870Y005881D01*
X016870Y005679D01*
X016948Y005491D01*
X017091Y005348D01*
X017279Y005270D01*
X017481Y005270D01*
X017669Y005348D01*
X017812Y005491D01*
X017890Y005679D01*
X017890Y005881D01*
X017888Y005887D01*
X018050Y006050D01*
X018750Y006050D01*
X018830Y005970D01*
X018930Y005870D01*
X018974Y005870D01*
X019048Y005691D01*
X019191Y005548D01*
X019379Y005470D01*
X019581Y005470D01*
X019769Y005548D01*
X019912Y005691D01*
X019980Y005854D01*
X020048Y005691D01*
X020069Y005670D01*
X020010Y005610D01*
X020010Y005610D01*
X019910Y005510D01*
X019910Y003150D01*
X019170Y003150D01*
X019070Y003050D01*
X019015Y002996D01*
X018989Y003022D01*
X018801Y003100D01*
X018599Y003100D01*
X018411Y003022D01*
X018268Y002879D01*
X018190Y002691D01*
X018190Y002489D01*
X018195Y002476D01*
X017970Y002250D01*
X016850Y002250D01*
X016653Y002447D01*
X016670Y002489D01*
X016670Y002691D01*
X016592Y002879D01*
X016449Y003022D01*
X016261Y003100D01*
X016059Y003100D01*
X015871Y003022D01*
X015855Y003006D01*
X015710Y003150D01*
X015150Y003150D01*
X015150Y005370D01*
X015259Y005478D01*
X015279Y005470D01*
X015481Y005470D01*
X015669Y005548D01*
X015812Y005691D01*
X015890Y005879D01*
X015890Y006081D01*
X015812Y006269D01*
X015669Y006412D01*
X015481Y006490D01*
X015279Y006490D01*
X015091Y006412D01*
X014948Y006269D01*
X014880Y006106D01*
X014812Y006269D01*
X014669Y006412D01*
X014481Y006490D01*
X014279Y006490D01*
X014091Y006412D01*
X013948Y006269D01*
X013870Y006081D01*
X013870Y005879D01*
X013884Y005845D01*
X013770Y005730D01*
X012890Y005730D01*
X012776Y005845D01*
X012790Y005879D01*
X012790Y006081D01*
X012712Y006269D01*
X012569Y006412D01*
X012381Y006490D01*
X012179Y006490D01*
X011991Y006412D01*
X011848Y006269D01*
X011770Y006081D01*
X011770Y005890D01*
X010890Y006770D01*
X015390Y006770D01*
X016490Y005670D01*
X016490Y004830D01*
X016790Y004530D01*
X016790Y003270D01*
X016969Y003090D01*
X016948Y003069D01*
X016870Y002881D01*
X016870Y002679D01*
X016948Y002491D01*
X017091Y002348D01*
X017279Y002270D01*
X017481Y002270D01*
X017669Y002348D01*
X017812Y002491D01*
X017890Y002679D01*
X017890Y002881D01*
X017812Y003069D01*
X017669Y003212D01*
X017481Y003290D01*
X017279Y003290D01*
X017259Y003282D01*
X017130Y003410D01*
X017130Y004670D01*
X017030Y004770D01*
X016830Y004970D01*
X016830Y005810D01*
X016730Y005910D01*
X015530Y007110D01*
X010310Y007110D01*
X009150Y008270D01*
X009181Y008270D01*
X009369Y008348D01*
X009512Y008491D01*
X009590Y008679D01*
X009590Y008881D01*
X009512Y009069D01*
X009501Y009080D01*
X009990Y009570D01*
X009990Y010550D01*
X009890Y010650D01*
X009050Y011490D01*
X007864Y011490D01*
X007864Y011506D01*
X007790Y011580D01*
X007864Y011654D01*
X007864Y011690D01*
X009030Y011690D01*
X009290Y011430D01*
X009374Y011346D01*
X009386Y011317D01*
X009517Y011186D01*
X009688Y011115D01*
X009872Y011115D01*
X010043Y011186D01*
X010174Y011317D01*
X010245Y011488D01*
X010245Y011672D01*
X010174Y011843D01*
X010043Y011974D01*
X009872Y012045D01*
X009688Y012045D01*
X009517Y011974D01*
X009386Y011843D01*
X009377Y011823D01*
X009170Y012030D01*
X007840Y012030D01*
X007782Y012088D01*
X006800Y012088D01*
X006718Y012006D01*
X006718Y011654D01*
X006792Y011580D01*
X006766Y011554D01*
X006690Y011630D01*
X006690Y012030D01*
X006770Y012110D01*
X007490Y012110D01*
X007590Y012210D01*
X009459Y014078D01*
X009479Y014070D01*
X009681Y014070D01*
X009869Y014148D01*
X010012Y014291D01*
X010080Y014454D01*
X010148Y014291D01*
X010291Y014148D01*
X010479Y014070D01*
X010681Y014070D01*
X010869Y014148D01*
X011012Y014291D01*
X011090Y014479D01*
X011090Y014681D01*
X011012Y014869D01*
X010869Y015012D01*
X010681Y015090D01*
X010479Y015090D01*
X010291Y015012D01*
X010148Y014869D01*
X010080Y014706D01*
X010012Y014869D01*
X010011Y014870D01*
X010310Y015170D01*
X014910Y015170D01*
X015179Y014900D01*
X015148Y014869D01*
X015080Y014706D01*
X015012Y014869D01*
X014869Y015012D01*
X014681Y015090D01*
X014479Y015090D01*
X014291Y015012D01*
X014148Y014869D01*
X014130Y014826D01*
X014130Y014974D01*
X014118Y015019D01*
X014094Y015061D01*
X014061Y015094D01*
X014019Y015118D01*
X013974Y015130D01*
X013600Y015130D01*
X013600Y014600D01*
X013560Y014600D01*
X013560Y015130D01*
X013186Y015130D01*
X013141Y015118D01*
X013099Y015094D01*
X013066Y015061D01*
X013042Y015019D01*
X013030Y014974D01*
X013030Y014600D01*
X013560Y014600D01*
X013560Y014560D01*
X013600Y014560D01*
X013600Y014030D01*
X013974Y014030D01*
X014019Y014042D01*
X014061Y014066D01*
X014094Y014099D01*
X014118Y014141D01*
X014130Y014186D01*
X014130Y014334D01*
X014148Y014291D01*
X014219Y014220D01*
X014190Y014190D01*
X014090Y014090D01*
X014090Y014030D01*
X011380Y011320D01*
X011236Y011465D01*
X011245Y011488D01*
X011245Y011672D01*
X011174Y011843D01*
X011043Y011974D01*
X010872Y012045D01*
X010688Y012045D01*
X010517Y011974D01*
X010386Y011843D01*
X010315Y011672D01*
X010315Y011488D01*
X010386Y011317D01*
X010517Y011186D01*
X010688Y011115D01*
X010872Y011115D01*
X011037Y011183D01*
X011210Y011010D01*
X011210Y011010D01*
X011630Y010590D01*
X011630Y010530D01*
X011669Y010490D01*
X011648Y010469D01*
X011570Y010281D01*
X011570Y010079D01*
X011648Y009891D01*
X011791Y009748D01*
X011810Y009740D01*
X011810Y009220D01*
X011791Y009212D01*
X011648Y009069D01*
X011570Y008881D01*
X011570Y008679D01*
X011648Y008491D01*
X011791Y008348D01*
X011979Y008270D01*
X012181Y008270D01*
X012369Y008348D01*
X012512Y008491D01*
X012590Y008679D01*
X012590Y008881D01*
X012512Y009069D01*
X012369Y009212D01*
X012181Y009290D01*
X012150Y009290D01*
X012150Y009670D01*
X012181Y009670D01*
X012369Y009748D01*
X012512Y009891D01*
X012590Y010079D01*
X012590Y010281D01*
X012512Y010469D01*
X012369Y010612D01*
X012181Y010690D01*
X011979Y010690D01*
X011970Y010686D01*
X011970Y010730D01*
X011620Y011080D01*
X014430Y013890D01*
X014430Y013950D01*
X014550Y014070D01*
X014681Y014070D01*
X014869Y014148D01*
X015012Y014291D01*
X015080Y014454D01*
X015148Y014291D01*
X015291Y014148D01*
X015479Y014070D01*
X015681Y014070D01*
X015869Y014148D01*
X016012Y014291D01*
X016080Y014454D01*
X016148Y014291D01*
X016291Y014148D01*
X016479Y014070D01*
X016681Y014070D01*
X016869Y014148D01*
X017012Y014291D01*
X017090Y014479D01*
X017090Y014681D01*
X017012Y014869D01*
X016869Y015012D01*
X016681Y015090D01*
X016479Y015090D01*
X016291Y015012D01*
X016148Y014869D01*
X016080Y014706D01*
X016012Y014869D01*
X015869Y015012D01*
X015681Y015090D01*
X015479Y015090D01*
X015473Y015088D01*
X015150Y015410D01*
X015050Y015510D01*
X010170Y015510D01*
X009730Y015070D01*
X009681Y015090D01*
X009479Y015090D01*
X009291Y015012D01*
X009148Y014869D01*
X009080Y014706D01*
X009012Y014869D01*
X008869Y015012D01*
X008681Y015090D01*
X008479Y015090D01*
X008291Y015012D01*
X008148Y014869D01*
X008130Y014826D01*
X008130Y014974D01*
X008118Y015019D01*
X008094Y015061D01*
X008061Y015094D01*
X008019Y015118D01*
X007974Y015130D01*
X007600Y015130D01*
X007600Y014600D01*
X007560Y014600D01*
X007560Y015130D01*
X007186Y015130D01*
X007141Y015118D01*
X007099Y015094D01*
X007066Y015061D01*
X007042Y015019D01*
X007030Y014974D01*
X007030Y014600D01*
X007560Y014600D01*
X007560Y014560D01*
X007600Y014560D01*
X007600Y014030D01*
X007974Y014030D01*
X008019Y014042D01*
X008061Y014066D01*
X008094Y014099D01*
X008118Y014141D01*
X008130Y014186D01*
X008130Y014334D01*
X008148Y014291D01*
X008291Y014148D01*
X008479Y014070D01*
X008681Y014070D01*
X008869Y014148D01*
X009012Y014291D01*
X009080Y014454D01*
X009148Y014291D01*
X009169Y014270D01*
X007350Y012450D01*
X006630Y012450D01*
X006450Y012270D01*
X006350Y012170D01*
X006350Y011490D01*
X006590Y011250D01*
X006690Y011150D01*
X006722Y011150D01*
X006792Y011080D01*
X006718Y011006D01*
X006718Y010654D01*
X006792Y010580D01*
X006718Y010506D01*
X006718Y010154D01*
X006792Y010080D01*
X006718Y010006D01*
X006718Y009654D01*
X006792Y009580D01*
X006718Y009506D01*
X006718Y009154D01*
X006792Y009080D01*
X006718Y009006D01*
X006718Y008654D01*
X006792Y008580D01*
X006774Y008562D01*
X006695Y008595D01*
X006585Y008595D01*
X006515Y008566D01*
X006470Y008610D01*
X004490Y010590D01*
X004370Y010590D01*
X004242Y010718D01*
X004242Y011006D01*
X004168Y011080D01*
X004238Y011150D01*
X004250Y011150D01*
X004350Y011250D01*
X004590Y011490D01*
X004590Y012170D01*
X004310Y012450D01*
X001530Y012450D01*
X001430Y012350D01*
X000830Y011750D01*
X000830Y011690D01*
X000810Y011670D01*
X000810Y015846D01*
X023220Y015846D01*
X023220Y000810D01*
X000810Y000810D01*
X000810Y000897D02*
X023220Y000897D01*
X023220Y001056D02*
X000810Y001056D01*
X000810Y001214D02*
X023220Y001214D01*
X023220Y001373D02*
X000810Y001373D01*
X000810Y001531D02*
X023220Y001531D01*
X023220Y001690D02*
X000810Y001690D01*
X000810Y001848D02*
X023220Y001848D01*
X023220Y002007D02*
X018207Y002007D01*
X018365Y002165D02*
X018404Y002165D01*
X018193Y002482D02*
X017803Y002482D01*
X017874Y002641D02*
X018190Y002641D01*
X018235Y002799D02*
X017890Y002799D01*
X017858Y002958D02*
X018346Y002958D01*
X017765Y003116D02*
X019136Y003116D01*
X019299Y002799D02*
X020681Y002799D01*
X020750Y002641D02*
X019210Y002641D01*
X019207Y002482D02*
X020753Y002482D01*
X020818Y002324D02*
X019142Y002324D01*
X018996Y002165D02*
X020964Y002165D01*
X021556Y002165D02*
X023220Y002165D01*
X023220Y002324D02*
X021702Y002324D01*
X021767Y002482D02*
X023220Y002482D01*
X023220Y002641D02*
X021770Y002641D01*
X021725Y002799D02*
X023220Y002799D01*
X023220Y002958D02*
X021614Y002958D01*
X020844Y003116D02*
X023220Y003116D01*
X023220Y003275D02*
X020250Y003275D01*
X020250Y003433D02*
X023220Y003433D01*
X023220Y003592D02*
X020250Y003592D01*
X020250Y003750D02*
X023220Y003750D01*
X023220Y003909D02*
X021479Y003909D01*
X021549Y003938D02*
X021692Y004081D01*
X021770Y004269D01*
X021770Y004471D01*
X021692Y004659D01*
X021549Y004802D01*
X021361Y004880D01*
X021159Y004880D01*
X020971Y004802D01*
X020828Y004659D01*
X020750Y004471D01*
X020750Y004269D01*
X020828Y004081D01*
X020971Y003938D01*
X021159Y003860D01*
X021361Y003860D01*
X021549Y003938D01*
X021678Y004067D02*
X023220Y004067D01*
X023220Y004226D02*
X021752Y004226D01*
X021770Y004384D02*
X023220Y004384D01*
X023220Y004543D02*
X021741Y004543D01*
X021650Y004701D02*
X023220Y004701D01*
X023220Y004860D02*
X021411Y004860D01*
X021109Y004860D02*
X020250Y004860D01*
X020250Y005018D02*
X023220Y005018D01*
X023220Y005177D02*
X020250Y005177D01*
X020250Y005335D02*
X023220Y005335D01*
X023220Y005494D02*
X020638Y005494D01*
X020873Y005652D02*
X023220Y005652D01*
X023220Y005811D02*
X020962Y005811D01*
X020990Y005969D02*
X023220Y005969D01*
X023220Y006128D02*
X020971Y006128D01*
X020895Y006286D02*
X023220Y006286D01*
X023220Y006445D02*
X020691Y006445D01*
X020269Y006445D02*
X019691Y006445D01*
X019895Y006286D02*
X020065Y006286D01*
X019989Y006128D02*
X019971Y006128D01*
X019962Y005811D02*
X019998Y005811D01*
X020052Y005652D02*
X019873Y005652D01*
X019910Y005494D02*
X019638Y005494D01*
X019910Y005335D02*
X017638Y005335D01*
X017813Y005494D02*
X019322Y005494D01*
X019087Y005652D02*
X017879Y005652D01*
X017890Y005811D02*
X018998Y005811D01*
X018831Y005969D02*
X017969Y005969D01*
X017806Y006286D02*
X017491Y006286D01*
X017269Y006286D02*
X016354Y006286D01*
X016196Y006445D02*
X019269Y006445D01*
X019065Y006286D02*
X018994Y006286D01*
X019910Y005177D02*
X016830Y005177D01*
X016830Y005335D02*
X017122Y005335D01*
X016947Y005494D02*
X016830Y005494D01*
X016830Y005652D02*
X016881Y005652D01*
X016870Y005811D02*
X016830Y005811D01*
X016906Y005969D02*
X016671Y005969D01*
X016513Y006128D02*
X017006Y006128D01*
X016349Y005811D02*
X015862Y005811D01*
X015890Y005969D02*
X016191Y005969D01*
X016032Y006128D02*
X015871Y006128D01*
X015874Y006286D02*
X015795Y006286D01*
X015715Y006445D02*
X015591Y006445D01*
X015557Y006603D02*
X011057Y006603D01*
X010899Y006762D02*
X015398Y006762D01*
X015720Y006920D02*
X023220Y006920D01*
X023220Y006762D02*
X015879Y006762D01*
X016037Y006603D02*
X023220Y006603D01*
X023220Y007079D02*
X015562Y007079D01*
X015169Y006445D02*
X014591Y006445D01*
X014795Y006286D02*
X014965Y006286D01*
X014889Y006128D02*
X014871Y006128D01*
X014169Y006445D02*
X012491Y006445D01*
X012695Y006286D02*
X013965Y006286D01*
X013889Y006128D02*
X012771Y006128D01*
X012790Y005969D02*
X013870Y005969D01*
X013850Y005811D02*
X012810Y005811D01*
X012069Y006445D02*
X011216Y006445D01*
X011374Y006286D02*
X011865Y006286D01*
X011789Y006128D02*
X011533Y006128D01*
X011691Y005969D02*
X011770Y005969D01*
X010250Y005177D02*
X008417Y005177D01*
X008430Y005335D02*
X010165Y005335D01*
X010022Y005494D02*
X009338Y005494D01*
X009573Y005652D02*
X009787Y005652D01*
X009698Y005811D02*
X009662Y005811D01*
X009022Y005494D02*
X008430Y005494D01*
X008430Y005652D02*
X008787Y005652D01*
X008698Y005811D02*
X008430Y005811D01*
X008458Y005969D02*
X008670Y005969D01*
X008652Y006128D02*
X008535Y006128D01*
X008062Y005969D02*
X007590Y005969D01*
X007562Y005811D02*
X008090Y005811D01*
X008090Y005652D02*
X007473Y005652D01*
X007238Y005494D02*
X008090Y005494D01*
X008090Y005335D02*
X005610Y005335D01*
X005610Y005177D02*
X007936Y005177D01*
X007778Y005018D02*
X005610Y005018D01*
X005610Y004860D02*
X007619Y004860D01*
X007461Y004701D02*
X005750Y004701D01*
X005841Y004543D02*
X007310Y004543D01*
X007310Y004384D02*
X005870Y004384D01*
X005852Y004226D02*
X007310Y004226D01*
X007310Y004067D02*
X005778Y004067D01*
X005579Y003909D02*
X007310Y003909D01*
X007310Y003750D02*
X000810Y003750D01*
X000810Y003592D02*
X007310Y003592D01*
X007650Y003592D02*
X010070Y003592D01*
X010070Y003750D02*
X007650Y003750D01*
X007650Y003909D02*
X008181Y003909D01*
X008111Y003938D02*
X008299Y003860D01*
X008501Y003860D01*
X008689Y003938D01*
X008832Y004081D01*
X008910Y004269D01*
X008910Y004471D01*
X008832Y004659D01*
X008689Y004802D01*
X008501Y004880D01*
X008299Y004880D01*
X008111Y004802D01*
X007968Y004659D01*
X007890Y004471D01*
X007890Y004269D01*
X007968Y004081D01*
X008111Y003938D01*
X007982Y004067D02*
X007650Y004067D01*
X007650Y004226D02*
X007908Y004226D01*
X007890Y004384D02*
X007650Y004384D01*
X007783Y004543D02*
X007919Y004543D01*
X007941Y004701D02*
X008010Y004701D01*
X008100Y004860D02*
X008249Y004860D01*
X008258Y005018D02*
X010250Y005018D01*
X010199Y004860D02*
X008551Y004860D01*
X008790Y004701D02*
X010070Y004701D01*
X010070Y004543D02*
X008881Y004543D01*
X008910Y004384D02*
X010070Y004384D01*
X010070Y004226D02*
X008892Y004226D01*
X008818Y004067D02*
X010070Y004067D01*
X010070Y003909D02*
X008619Y003909D01*
X007633Y003433D02*
X010070Y003433D01*
X010185Y003275D02*
X007507Y003275D01*
X007576Y003116D02*
X010344Y003116D01*
X010502Y002958D02*
X008754Y002958D01*
X008865Y002799D02*
X010495Y002799D01*
X010450Y002641D02*
X008910Y002641D01*
X008907Y002482D02*
X010453Y002482D01*
X010625Y002165D02*
X010664Y002165D01*
X011256Y002165D02*
X011295Y002165D01*
X013265Y002165D02*
X013304Y002165D01*
X013896Y002165D02*
X015864Y002165D01*
X015718Y002324D02*
X014042Y002324D01*
X014107Y002482D02*
X015653Y002482D01*
X015650Y002641D02*
X014110Y002641D01*
X014199Y002799D02*
X015581Y002799D01*
X015744Y003116D02*
X016944Y003116D01*
X016902Y002958D02*
X016514Y002958D01*
X016625Y002799D02*
X016870Y002799D01*
X016886Y002641D02*
X016670Y002641D01*
X016667Y002482D02*
X016957Y002482D01*
X016777Y002324D02*
X017149Y002324D01*
X017611Y002324D02*
X018043Y002324D01*
X017519Y003275D02*
X019910Y003275D01*
X019910Y003433D02*
X017130Y003433D01*
X017130Y003592D02*
X019910Y003592D01*
X019910Y003750D02*
X017130Y003750D01*
X017130Y003909D02*
X018481Y003909D01*
X018411Y003938D02*
X018599Y003860D01*
X018801Y003860D01*
X018989Y003938D01*
X019132Y004081D01*
X019210Y004269D01*
X019210Y004471D01*
X019132Y004659D01*
X018989Y004802D01*
X018801Y004880D01*
X018599Y004880D01*
X018411Y004802D01*
X018268Y004659D01*
X018190Y004471D01*
X018190Y004269D01*
X018268Y004081D01*
X018411Y003938D01*
X018282Y004067D02*
X017130Y004067D01*
X017130Y004226D02*
X018208Y004226D01*
X018190Y004384D02*
X017130Y004384D01*
X017130Y004543D02*
X018219Y004543D01*
X018310Y004701D02*
X017099Y004701D01*
X016941Y004860D02*
X018549Y004860D01*
X018851Y004860D02*
X019910Y004860D01*
X019910Y005018D02*
X016830Y005018D01*
X016490Y005018D02*
X015150Y005018D01*
X015150Y004860D02*
X016009Y004860D01*
X016059Y004880D02*
X015871Y004802D01*
X015728Y004659D01*
X015650Y004471D01*
X015650Y004269D01*
X015728Y004081D01*
X015871Y003938D01*
X016059Y003860D01*
X016261Y003860D01*
X016449Y003938D01*
X016592Y004081D01*
X016670Y004269D01*
X016670Y004471D01*
X016592Y004659D01*
X016449Y004802D01*
X016261Y004880D01*
X016059Y004880D01*
X016311Y004860D02*
X016490Y004860D01*
X016550Y004701D02*
X016619Y004701D01*
X016641Y004543D02*
X016777Y004543D01*
X016790Y004384D02*
X016670Y004384D01*
X016652Y004226D02*
X016790Y004226D01*
X016790Y004067D02*
X016578Y004067D01*
X016379Y003909D02*
X016790Y003909D01*
X016790Y003750D02*
X015150Y003750D01*
X015150Y003592D02*
X016790Y003592D01*
X016790Y003433D02*
X015150Y003433D01*
X015150Y003275D02*
X016790Y003275D01*
X015941Y003909D02*
X015150Y003909D01*
X015150Y004067D02*
X015742Y004067D01*
X015668Y004226D02*
X015150Y004226D01*
X015150Y004384D02*
X015650Y004384D01*
X015679Y004543D02*
X015150Y004543D01*
X015150Y004701D02*
X015770Y004701D01*
X015150Y005177D02*
X016490Y005177D01*
X016490Y005335D02*
X015150Y005335D01*
X015538Y005494D02*
X016490Y005494D01*
X016490Y005652D02*
X015773Y005652D01*
X019090Y004701D02*
X019910Y004701D01*
X019910Y004543D02*
X019181Y004543D01*
X019210Y004384D02*
X019910Y004384D01*
X019910Y004226D02*
X019192Y004226D01*
X019118Y004067D02*
X019910Y004067D01*
X019910Y003909D02*
X018919Y003909D01*
X020250Y003909D02*
X021041Y003909D01*
X020842Y004067D02*
X020250Y004067D01*
X020250Y004226D02*
X020768Y004226D01*
X020750Y004384D02*
X020250Y004384D01*
X020250Y004543D02*
X020779Y004543D01*
X020870Y004701D02*
X020250Y004701D01*
X023220Y007237D02*
X010183Y007237D01*
X010025Y007396D02*
X023220Y007396D01*
X023220Y007554D02*
X009866Y007554D01*
X009708Y007713D02*
X023220Y007713D01*
X023220Y007871D02*
X009549Y007871D01*
X009391Y008030D02*
X023220Y008030D01*
X023220Y008188D02*
X009232Y008188D01*
X009366Y008347D02*
X011794Y008347D01*
X011642Y008505D02*
X009518Y008505D01*
X009584Y008664D02*
X011576Y008664D01*
X011570Y008822D02*
X009590Y008822D01*
X009549Y008981D02*
X011611Y008981D01*
X011718Y009139D02*
X009559Y009139D01*
X009718Y009298D02*
X011810Y009298D01*
X011810Y009456D02*
X009876Y009456D01*
X009990Y009615D02*
X011810Y009615D01*
X011766Y009773D02*
X009990Y009773D01*
X009990Y009932D02*
X011631Y009932D01*
X011570Y010090D02*
X009990Y010090D01*
X009990Y010249D02*
X011570Y010249D01*
X011622Y010407D02*
X009990Y010407D01*
X009975Y010566D02*
X011630Y010566D01*
X011496Y010724D02*
X009816Y010724D01*
X009658Y010883D02*
X011337Y010883D01*
X011179Y011041D02*
X009499Y011041D01*
X009503Y011200D02*
X009341Y011200D01*
X009362Y011358D02*
X009182Y011358D01*
X009203Y011517D02*
X007854Y011517D01*
X007864Y011675D02*
X009045Y011675D01*
X009367Y011834D02*
X009382Y011834D01*
X009208Y011992D02*
X009560Y011992D01*
X010000Y011992D02*
X010560Y011992D01*
X010382Y011834D02*
X010178Y011834D01*
X010244Y011675D02*
X010316Y011675D01*
X010315Y011517D02*
X010245Y011517D01*
X010191Y011358D02*
X010369Y011358D01*
X010503Y011200D02*
X010057Y011200D01*
X011245Y011517D02*
X011576Y011517D01*
X011735Y011675D02*
X011244Y011675D01*
X011178Y011834D02*
X011893Y011834D01*
X012052Y011992D02*
X011000Y011992D01*
X012057Y011517D02*
X023220Y011517D01*
X023220Y011675D02*
X012215Y011675D01*
X012374Y011834D02*
X023220Y011834D01*
X023220Y011992D02*
X012532Y011992D01*
X012691Y012151D02*
X023220Y012151D01*
X023220Y012309D02*
X012849Y012309D01*
X013008Y012468D02*
X023220Y012468D01*
X023220Y012626D02*
X013166Y012626D01*
X013325Y012785D02*
X023220Y012785D01*
X023220Y012943D02*
X013483Y012943D01*
X013642Y013102D02*
X023220Y013102D01*
X023220Y013260D02*
X013800Y013260D01*
X013959Y013419D02*
X023220Y013419D01*
X023220Y013577D02*
X014117Y013577D01*
X014276Y013736D02*
X023220Y013736D01*
X023220Y013894D02*
X014430Y013894D01*
X014533Y014053D02*
X021931Y014053D01*
X022009Y014020D02*
X021693Y014151D01*
X021451Y014393D01*
X021320Y014709D01*
X021320Y015051D01*
X021451Y015367D01*
X021693Y015609D01*
X022009Y015740D01*
X022351Y015740D01*
X022667Y015609D01*
X022909Y015367D01*
X023040Y015051D01*
X023040Y014709D01*
X022909Y014393D01*
X022667Y014151D01*
X022351Y014020D01*
X022009Y014020D01*
X022429Y014053D02*
X023220Y014053D01*
X023220Y014211D02*
X022727Y014211D01*
X022886Y014370D02*
X023220Y014370D01*
X023220Y014528D02*
X022965Y014528D01*
X023031Y014687D02*
X023220Y014687D01*
X023220Y014845D02*
X023040Y014845D01*
X023040Y015004D02*
X023220Y015004D01*
X023220Y015162D02*
X022994Y015162D01*
X022928Y015321D02*
X023220Y015321D01*
X023220Y015479D02*
X022797Y015479D01*
X022598Y015638D02*
X023220Y015638D01*
X023220Y015796D02*
X000810Y015796D01*
X000810Y015638D02*
X001803Y015638D01*
X001809Y015640D02*
X001493Y015509D01*
X001251Y015267D01*
X001120Y014951D01*
X001120Y014609D01*
X001251Y014293D01*
X001493Y014051D01*
X001809Y013920D01*
X002151Y013920D01*
X002467Y014051D01*
X002709Y014293D01*
X002840Y014609D01*
X002840Y014951D01*
X002709Y015267D01*
X002467Y015509D01*
X002151Y015640D01*
X001809Y015640D01*
X002157Y015638D02*
X021762Y015638D01*
X021563Y015479D02*
X015081Y015479D01*
X015240Y015321D02*
X021432Y015321D01*
X021366Y015162D02*
X015398Y015162D01*
X015076Y015004D02*
X014878Y015004D01*
X014918Y015162D02*
X010302Y015162D01*
X010282Y015004D02*
X010144Y015004D01*
X010138Y014845D02*
X010022Y014845D01*
X009822Y015162D02*
X002753Y015162D01*
X002818Y015004D02*
X007038Y015004D01*
X007030Y014845D02*
X002840Y014845D01*
X002840Y014687D02*
X007030Y014687D01*
X007030Y014560D02*
X007030Y014186D01*
X007042Y014141D01*
X007066Y014099D01*
X007099Y014066D01*
X007141Y014042D01*
X007186Y014030D01*
X007560Y014030D01*
X007560Y014560D01*
X007030Y014560D01*
X007030Y014528D02*
X002806Y014528D01*
X002741Y014370D02*
X007030Y014370D01*
X007030Y014211D02*
X002627Y014211D01*
X002469Y014053D02*
X007123Y014053D01*
X007560Y014053D02*
X007600Y014053D01*
X007600Y014211D02*
X007560Y014211D01*
X007560Y014370D02*
X007600Y014370D01*
X007600Y014528D02*
X007560Y014528D01*
X007560Y014687D02*
X007600Y014687D01*
X007600Y014845D02*
X007560Y014845D01*
X007560Y015004D02*
X007600Y015004D01*
X008122Y015004D02*
X008282Y015004D01*
X008138Y014845D02*
X008130Y014845D01*
X008878Y015004D02*
X009282Y015004D01*
X009138Y014845D02*
X009022Y014845D01*
X009045Y014370D02*
X009115Y014370D01*
X009111Y014211D02*
X008932Y014211D01*
X008952Y014053D02*
X008037Y014053D01*
X008130Y014211D02*
X008228Y014211D01*
X008794Y013894D02*
X000810Y013894D01*
X000810Y013736D02*
X008635Y013736D01*
X008477Y013577D02*
X000810Y013577D01*
X000810Y013419D02*
X008318Y013419D01*
X008160Y013260D02*
X000810Y013260D01*
X000810Y013102D02*
X008001Y013102D01*
X007843Y012943D02*
X000810Y012943D01*
X000810Y012785D02*
X007684Y012785D01*
X007526Y012626D02*
X000810Y012626D01*
X000810Y012468D02*
X007367Y012468D01*
X007689Y012309D02*
X012369Y012309D01*
X012527Y012468D02*
X007848Y012468D01*
X008006Y012626D02*
X012686Y012626D01*
X012844Y012785D02*
X008165Y012785D01*
X008323Y012943D02*
X013003Y012943D01*
X013161Y013102D02*
X008482Y013102D01*
X008640Y013260D02*
X013320Y013260D01*
X013478Y013419D02*
X008799Y013419D01*
X008957Y013577D02*
X013637Y013577D01*
X013795Y013736D02*
X009116Y013736D01*
X009274Y013894D02*
X013954Y013894D01*
X014037Y014053D02*
X014090Y014053D01*
X014130Y014211D02*
X014211Y014211D01*
X013600Y014211D02*
X013560Y014211D01*
X013560Y014053D02*
X013600Y014053D01*
X013560Y014030D02*
X013560Y014560D01*
X013030Y014560D01*
X013030Y014186D01*
X013042Y014141D01*
X013066Y014099D01*
X013099Y014066D01*
X013141Y014042D01*
X013186Y014030D01*
X013560Y014030D01*
X013123Y014053D02*
X009433Y014053D01*
X009932Y014211D02*
X010228Y014211D01*
X010115Y014370D02*
X010045Y014370D01*
X010932Y014211D02*
X013030Y014211D01*
X013030Y014370D02*
X011045Y014370D01*
X011090Y014528D02*
X013030Y014528D01*
X013030Y014687D02*
X011088Y014687D01*
X011022Y014845D02*
X013030Y014845D01*
X013038Y015004D02*
X010878Y015004D01*
X010139Y015479D02*
X002497Y015479D01*
X002656Y015321D02*
X009980Y015321D01*
X013560Y015004D02*
X013600Y015004D01*
X013600Y014845D02*
X013560Y014845D01*
X013560Y014687D02*
X013600Y014687D01*
X013600Y014528D02*
X013560Y014528D01*
X013560Y014370D02*
X013600Y014370D01*
X014130Y014845D02*
X014138Y014845D01*
X014122Y015004D02*
X014282Y015004D01*
X015022Y014845D02*
X015138Y014845D01*
X015115Y014370D02*
X015045Y014370D01*
X014932Y014211D02*
X015228Y014211D01*
X015932Y014211D02*
X016228Y014211D01*
X016115Y014370D02*
X016045Y014370D01*
X016022Y014845D02*
X016138Y014845D01*
X016282Y015004D02*
X015878Y015004D01*
X016878Y015004D02*
X021320Y015004D01*
X021320Y014845D02*
X017022Y014845D01*
X017088Y014687D02*
X021329Y014687D01*
X021395Y014528D02*
X017090Y014528D01*
X017045Y014370D02*
X021474Y014370D01*
X021633Y014211D02*
X016932Y014211D01*
X012210Y012151D02*
X007531Y012151D01*
X006718Y011992D02*
X006690Y011992D01*
X006690Y011834D02*
X006718Y011834D01*
X006718Y011675D02*
X006690Y011675D01*
X006350Y011675D02*
X004590Y011675D01*
X004590Y011517D02*
X006350Y011517D01*
X006482Y011358D02*
X004458Y011358D01*
X004350Y011250D02*
X004350Y011250D01*
X004300Y011200D02*
X006640Y011200D01*
X006753Y011041D02*
X004207Y011041D01*
X004242Y010883D02*
X006718Y010883D01*
X006718Y010724D02*
X004242Y010724D01*
X004515Y010566D02*
X006777Y010566D01*
X006718Y010407D02*
X004673Y010407D01*
X004832Y010249D02*
X006718Y010249D01*
X006782Y010090D02*
X004990Y010090D01*
X005149Y009932D02*
X006718Y009932D01*
X006718Y009773D02*
X005307Y009773D01*
X005466Y009615D02*
X006757Y009615D01*
X006718Y009456D02*
X005624Y009456D01*
X005783Y009298D02*
X006718Y009298D01*
X006733Y009139D02*
X005941Y009139D01*
X006100Y008981D02*
X006718Y008981D01*
X006718Y008822D02*
X006258Y008822D01*
X006417Y008664D02*
X006718Y008664D01*
X006230Y008347D02*
X005610Y008347D01*
X005610Y008505D02*
X006095Y008505D01*
X005936Y008664D02*
X005610Y008664D01*
X005610Y008822D02*
X005778Y008822D01*
X005619Y008981D02*
X005610Y008981D01*
X005270Y008981D02*
X004508Y008981D01*
X004575Y008822D02*
X005270Y008822D01*
X005270Y008664D02*
X004541Y008664D01*
X004273Y008505D02*
X005270Y008505D01*
X005270Y008347D02*
X004282Y008347D01*
X004282Y008330D02*
X003669Y008330D01*
X003669Y008330D01*
X003669Y008032D01*
X003669Y008330D01*
X003669Y008330D01*
X003056Y008330D01*
X003065Y008505D02*
X002675Y008505D01*
X002517Y008664D02*
X003096Y008664D01*
X003096Y008822D02*
X002395Y008822D01*
X002310Y008981D02*
X003096Y008981D01*
X003111Y009139D02*
X002310Y009139D01*
X002310Y009298D02*
X002782Y009298D01*
X002750Y009456D02*
X002310Y009456D01*
X002338Y009615D02*
X002750Y009615D01*
X002750Y009773D02*
X002395Y009773D01*
X002395Y009932D02*
X002750Y009932D01*
X002750Y010090D02*
X002395Y010090D01*
X002395Y010249D02*
X002750Y010249D01*
X002787Y010407D02*
X002310Y010407D01*
X002310Y010566D02*
X002866Y010566D01*
X002766Y010724D02*
X002310Y010724D01*
X002395Y010883D02*
X002785Y010883D01*
X002952Y011041D02*
X002395Y011041D01*
X002395Y011200D02*
X003096Y011200D01*
X003096Y011358D02*
X002395Y011358D01*
X002366Y011517D02*
X003106Y011517D01*
X003096Y011970D02*
X002130Y011970D01*
X002030Y011870D01*
X001730Y011570D01*
X001670Y011570D01*
X001666Y011574D01*
X001624Y011598D01*
X001579Y011610D01*
X001430Y011610D01*
X001430Y011180D01*
X001430Y011180D01*
X001430Y011180D01*
X001125Y011180D01*
X001125Y011454D01*
X001137Y011499D01*
X001161Y011541D01*
X001194Y011574D01*
X001236Y011598D01*
X001281Y011610D01*
X001430Y011610D01*
X001430Y011180D01*
X001125Y011180D01*
X001125Y010906D01*
X001137Y010861D01*
X001161Y010819D01*
X001194Y010786D01*
X001222Y010770D01*
X001190Y010770D01*
X000930Y011030D01*
X000930Y011310D01*
X001070Y011450D01*
X001170Y011550D01*
X001170Y011610D01*
X001670Y012110D01*
X004170Y012110D01*
X004250Y012030D01*
X004250Y011630D01*
X004184Y011564D01*
X004168Y011580D01*
X004242Y011654D01*
X004242Y012006D01*
X004160Y012088D01*
X003178Y012088D01*
X003096Y012006D01*
X003096Y011970D01*
X003096Y011992D02*
X001552Y011992D01*
X001394Y011834D02*
X001993Y011834D01*
X001835Y011675D02*
X001235Y011675D01*
X001147Y011517D02*
X001137Y011517D01*
X001125Y011358D02*
X000978Y011358D01*
X000930Y011200D02*
X001125Y011200D01*
X001125Y011041D02*
X000930Y011041D01*
X001078Y010883D02*
X001131Y010883D01*
X000914Y010566D02*
X000810Y010566D01*
X000810Y010407D02*
X001270Y010407D01*
X001125Y010249D02*
X000810Y010249D01*
X000810Y010090D02*
X001125Y010090D01*
X001125Y009980D02*
X001125Y009706D01*
X001137Y009661D01*
X001161Y009619D01*
X001194Y009586D01*
X001236Y009562D01*
X001281Y009550D01*
X001430Y009550D01*
X001430Y009980D01*
X001430Y009980D01*
X001430Y009980D01*
X001125Y009980D01*
X001125Y009932D02*
X000810Y009932D01*
X000810Y009773D02*
X001125Y009773D01*
X001166Y009615D02*
X000810Y009615D01*
X000810Y009456D02*
X001970Y009456D01*
X001970Y009298D02*
X001937Y009298D01*
X001743Y009298D02*
X000810Y009298D01*
X001430Y009615D02*
X001430Y009615D01*
X001430Y009773D02*
X001430Y009773D01*
X001430Y009932D02*
X001430Y009932D01*
X003128Y011041D02*
X003131Y011041D01*
X004242Y011675D02*
X004250Y011675D01*
X004242Y011834D02*
X004250Y011834D01*
X004242Y011992D02*
X004250Y011992D01*
X004590Y011992D02*
X006350Y011992D01*
X006350Y011834D02*
X004590Y011834D01*
X004590Y012151D02*
X006350Y012151D01*
X006489Y012309D02*
X004451Y012309D01*
X001389Y012309D02*
X000810Y012309D01*
X000810Y012151D02*
X001230Y012151D01*
X001072Y011992D02*
X000810Y011992D01*
X000810Y011834D02*
X000913Y011834D01*
X000815Y011675D02*
X000810Y011675D01*
X001430Y011517D02*
X001430Y011517D01*
X001430Y011358D02*
X001430Y011358D01*
X001430Y011200D02*
X001430Y011200D01*
X004242Y009456D02*
X004964Y009456D01*
X005122Y009298D02*
X004242Y009298D01*
X004227Y009139D02*
X005270Y009139D01*
X004805Y009615D02*
X004537Y009615D01*
X004575Y009773D02*
X004647Y009773D01*
X004282Y008330D02*
X004282Y008188D01*
X003669Y008188D02*
X003669Y008188D01*
X003669Y008330D02*
X003669Y008330D01*
X005610Y008188D02*
X006230Y008188D01*
X006330Y008030D02*
X005610Y008030D01*
X005610Y007871D02*
X006489Y007871D01*
X006647Y007713D02*
X005610Y007713D01*
X005610Y007554D02*
X006806Y007554D01*
X006964Y007396D02*
X005610Y007396D01*
X005610Y007237D02*
X007123Y007237D01*
X007281Y007079D02*
X005610Y007079D01*
X005610Y006920D02*
X007440Y006920D01*
X007598Y006762D02*
X005610Y006762D01*
X005610Y006603D02*
X007757Y006603D01*
X007464Y006445D02*
X007291Y006445D01*
X006869Y006445D02*
X005610Y006445D01*
X005610Y006286D02*
X006665Y006286D01*
X006589Y006128D02*
X005610Y006128D01*
X005610Y005969D02*
X006570Y005969D01*
X006598Y005811D02*
X005610Y005811D01*
X005610Y005652D02*
X006687Y005652D01*
X006922Y005494D02*
X005610Y005494D01*
X005270Y005494D02*
X002974Y005494D01*
X002970Y005490D02*
X002970Y005490D01*
X003132Y005652D02*
X005270Y005652D01*
X005270Y005811D02*
X004932Y005811D01*
X005045Y005969D02*
X005270Y005969D01*
X005270Y006128D02*
X005090Y006128D01*
X005088Y006286D02*
X005270Y006286D01*
X005270Y006445D02*
X005022Y006445D01*
X004878Y006603D02*
X005270Y006603D01*
X004138Y006445D02*
X004022Y006445D01*
X004045Y005969D02*
X004115Y005969D01*
X004228Y005811D02*
X003932Y005811D01*
X003070Y006128D02*
X001971Y006128D01*
X001990Y005969D02*
X002969Y005969D01*
X002810Y005811D02*
X002010Y005811D01*
X001846Y005494D02*
X001638Y005494D01*
X001322Y005494D02*
X000810Y005494D01*
X000810Y005652D02*
X001087Y005652D01*
X000998Y005811D02*
X000810Y005811D01*
X000810Y005969D02*
X000970Y005969D01*
X000989Y006128D02*
X000810Y006128D01*
X000810Y006286D02*
X001065Y006286D01*
X001269Y006445D02*
X000810Y006445D01*
X000810Y006603D02*
X003282Y006603D01*
X003138Y006445D02*
X001691Y006445D01*
X001895Y006286D02*
X003072Y006286D01*
X005270Y005335D02*
X000810Y005335D01*
X000810Y005177D02*
X005270Y005177D01*
X005270Y005018D02*
X000810Y005018D01*
X000810Y004860D02*
X002649Y004860D01*
X002410Y004701D02*
X000810Y004701D01*
X000810Y004543D02*
X002319Y004543D01*
X002290Y004384D02*
X000810Y004384D01*
X000810Y004226D02*
X002308Y004226D01*
X002382Y004067D02*
X000810Y004067D01*
X000810Y003909D02*
X002581Y003909D01*
X003019Y003909D02*
X005141Y003909D01*
X004942Y004067D02*
X003218Y004067D01*
X003292Y004226D02*
X004868Y004226D01*
X004696Y004384D02*
X003484Y004384D01*
X003330Y004290D02*
X003330Y004290D01*
X003321Y004701D02*
X003190Y004701D01*
X002951Y004860D02*
X005209Y004860D01*
X004970Y004701D02*
X004859Y004701D01*
X006841Y003433D02*
X001719Y003433D01*
X001769Y003412D02*
X001581Y003490D01*
X001379Y003490D01*
X001191Y003412D01*
X001048Y003269D01*
X000970Y003081D01*
X000970Y002879D01*
X001048Y002691D01*
X001191Y002548D01*
X001379Y002470D01*
X001581Y002470D01*
X001769Y002548D01*
X001912Y002691D01*
X001990Y002879D01*
X001990Y003081D01*
X001912Y003269D01*
X001769Y003412D01*
X001907Y003275D02*
X006653Y003275D01*
X006584Y003116D02*
X004944Y003116D01*
X004781Y002799D02*
X003399Y002799D01*
X003310Y002641D02*
X004850Y002641D01*
X004853Y002482D02*
X003307Y002482D01*
X003242Y002324D02*
X004918Y002324D01*
X005064Y002165D02*
X003096Y002165D01*
X002504Y002165D02*
X000810Y002165D01*
X000810Y002007D02*
X005813Y002007D01*
X005977Y002324D02*
X007783Y002324D01*
X007893Y002482D02*
X007210Y002482D01*
X006950Y002482D02*
X005867Y002482D01*
X005870Y002641D02*
X006698Y002641D01*
X006603Y002799D02*
X005825Y002799D01*
X005714Y002958D02*
X006570Y002958D01*
X007462Y002641D02*
X007890Y002641D01*
X007935Y002799D02*
X007557Y002799D01*
X007590Y002958D02*
X008046Y002958D01*
X008696Y002165D02*
X008715Y002165D01*
X007947Y002007D02*
X016613Y002007D01*
X007985Y006128D02*
X007628Y006128D01*
X012366Y008347D02*
X023220Y008347D01*
X023220Y008505D02*
X012518Y008505D01*
X012584Y008664D02*
X023220Y008664D01*
X023220Y008822D02*
X012590Y008822D01*
X012549Y008981D02*
X023220Y008981D01*
X023220Y009139D02*
X012442Y009139D01*
X012150Y009290D02*
X012150Y009290D01*
X012150Y009298D02*
X023220Y009298D01*
X023220Y009456D02*
X012150Y009456D01*
X012150Y009615D02*
X023220Y009615D01*
X023220Y009773D02*
X012394Y009773D01*
X012529Y009932D02*
X023220Y009932D01*
X023220Y010090D02*
X012590Y010090D01*
X012590Y010249D02*
X023220Y010249D01*
X023220Y010407D02*
X012538Y010407D01*
X012416Y010566D02*
X023220Y010566D01*
X023220Y010724D02*
X011970Y010724D01*
X011818Y010883D02*
X023220Y010883D01*
X023220Y011041D02*
X011659Y011041D01*
X011740Y011200D02*
X023220Y011200D01*
X023220Y011358D02*
X011898Y011358D01*
X011418Y011358D02*
X011342Y011358D01*
X001491Y014053D02*
X000810Y014053D01*
X000810Y014211D02*
X001333Y014211D01*
X001219Y014370D02*
X000810Y014370D01*
X000810Y014528D02*
X001154Y014528D01*
X001120Y014687D02*
X000810Y014687D01*
X000810Y014845D02*
X001120Y014845D01*
X001142Y015004D02*
X000810Y015004D01*
X000810Y015162D02*
X001207Y015162D01*
X001304Y015321D02*
X000810Y015321D01*
X000810Y015479D02*
X001463Y015479D01*
X001241Y003433D02*
X000810Y003433D01*
X000810Y003275D02*
X001053Y003275D01*
X000984Y003116D02*
X000810Y003116D01*
X000810Y002958D02*
X000970Y002958D01*
X001003Y002799D02*
X000810Y002799D01*
X000810Y002641D02*
X001098Y002641D01*
X001350Y002482D02*
X000810Y002482D01*
X000810Y002324D02*
X002358Y002324D01*
X002293Y002482D02*
X001610Y002482D01*
X001862Y002641D02*
X002290Y002641D01*
X002335Y002799D02*
X001957Y002799D01*
X001990Y002958D02*
X002446Y002958D01*
X001976Y003116D02*
X003236Y003116D01*
D17*
X001780Y011861D03*
D18*
X003040Y010780D03*
X004300Y009760D03*
X004300Y008800D03*
X006640Y008320D03*
X007960Y008680D03*
X008260Y006160D03*
X001840Y009040D03*
M02*
