%
M48
M72
T01C0.0130
T02C0.0197
T03C0.0276
T04C0.0320
T05C0.0354
T06C0.0400
T07C0.1260
%
T01
X8260Y6160
X6640Y8320
X7960Y8680
X4300Y8800
X4300Y9760
X3040Y10780
X1840Y9040
T02
X1780Y11861
T03
X9780Y11580
X10780Y11580
T04
X4580Y6180
X3580Y6180
X9180Y5980
X10180Y5980
X14380Y5980
X15380Y5980
X19480Y5980
X20480Y5980
T05
X17380Y5780
X12280Y5980
X12080Y8780
X12080Y10180
X9080Y10180
X9080Y8780
X7080Y5980
X1480Y5980
X1480Y2980
X7080Y2980
X12280Y2980
X17380Y2780
T06
X2800Y2590
X5360Y2590
X8400Y2590
X10960Y2590
X13600Y2590
X16160Y2590
X18700Y2590
X21260Y2590
X21260Y4370
X18700Y4370
X16160Y4370
X13600Y4370
X10960Y4370
X8400Y4370
X5360Y4370
X2800Y4370
X7580Y14580
X8580Y14580
X9580Y14580
X10580Y14580
X13580Y14580
X14580Y14580
X15580Y14580
X16580Y14580
T07
X22180Y14880
X1980Y14780
M30
