%
M48
M72
T01C0.0240
T02C0.0354
T03C0.0400
%
T01
X8010Y9880
X8100Y15370
X5940Y16360
T02
X12880Y8180
X12880Y6180
X15880Y6180
X15880Y8180
T03
X5880Y4680
X5880Y5680
X5880Y6680
X5880Y7680
X5880Y8680
X6880Y8680
X6880Y7680
X6880Y6680
X6880Y5680
X6880Y4680
X9880Y4680
X9880Y3680
X10880Y3680
X10880Y4680
X10880Y5680
X10880Y6680
X9880Y6680
X9880Y5680
X9880Y7680
X9880Y8680
X9880Y9680
X9880Y10680
X9880Y11680
X10880Y11680
X10880Y10680
X10880Y9680
X10880Y8680
X10880Y7680
X13880Y3680
X14880Y3680
X15880Y3680
X16880Y3680
X10880Y12680
X10880Y13680
X10880Y14680
X10880Y15680
X10880Y16680
X9880Y16680
X9880Y15680
X9880Y14680
X9880Y13680
X9880Y12680
X6880Y12180
X6880Y13180
X6880Y14180
X6880Y15180
X5880Y15180
X5880Y14180
X5880Y13180
X5880Y12180
X5880Y11180
X6880Y11180
X6880Y17180
X6880Y18180
X6880Y19180
X6880Y20180
X9880Y19680
X9880Y18680
X9880Y17680
X10880Y17680
X10880Y18680
X10880Y19680
X10880Y20680
X9880Y20680
M30
