G75*
%MOIN*%
%OFA0B0*%
%FSLAX24Y24*%
%IPPOS*%
%LPD*%
%AMOC8*
5,1,8,0,0,1.08239X$1,22.5*
%
%ADD10C,0.0000*%
%ADD11C,0.0080*%
%ADD12C,0.0050*%
%ADD13C,0.0060*%
%ADD14C,0.0010*%
%ADD15R,0.0200X0.0200*%
D10*
X002880Y002680D02*
X002880Y022176D01*
X012880Y022180D01*
X012880Y011180D01*
X017880Y009180D01*
X017880Y002680D01*
X002880Y002680D01*
D11*
X007630Y004430D02*
X007630Y004930D01*
X007630Y010930D02*
X007630Y011430D01*
X007130Y016680D02*
X006630Y016680D01*
X006380Y016930D01*
X006380Y017430D01*
X006630Y017680D01*
X006380Y017930D01*
X006380Y018430D01*
X006630Y018680D01*
X006380Y018930D01*
X006380Y019430D01*
X006630Y019680D01*
X006380Y019930D01*
X006380Y020430D01*
X006630Y020680D01*
X007130Y020680D01*
X007380Y020430D01*
X007380Y019930D01*
X007130Y019680D01*
X007380Y019430D01*
X007380Y018930D01*
X007130Y018680D01*
X007380Y018430D01*
X007380Y017930D01*
X007130Y017680D01*
X007380Y017430D01*
X007380Y016930D01*
X007130Y016680D01*
X013380Y008480D02*
X015380Y008480D01*
X015380Y008180D01*
X015480Y008180D01*
X015380Y008180D02*
X015380Y007880D01*
X013380Y007880D01*
X013380Y008180D01*
X013280Y008180D01*
X013380Y008180D02*
X013380Y008480D01*
X013380Y006480D02*
X015380Y006480D01*
X015380Y006180D01*
X015480Y006180D01*
X015380Y006180D02*
X015380Y005880D01*
X013380Y005880D01*
X013380Y006180D01*
X013280Y006180D01*
X013380Y006180D02*
X013380Y006480D01*
X013630Y004180D02*
X013380Y003930D01*
X013380Y003430D01*
X013630Y003180D01*
X014130Y003180D01*
X014380Y003430D01*
X014630Y003180D01*
X015130Y003180D01*
X015380Y003430D01*
X015630Y003180D01*
X016130Y003180D01*
X016380Y003430D01*
X016630Y003180D01*
X017130Y003180D01*
X017380Y003430D01*
X017380Y003930D01*
X017130Y004180D01*
X016630Y004180D01*
X016380Y003930D01*
X016130Y004180D01*
X015630Y004180D01*
X015380Y003930D01*
X015130Y004180D01*
X014630Y004180D01*
X014380Y003930D01*
X014130Y004180D01*
X013630Y004180D01*
D12*
X013525Y004425D02*
X013450Y004425D01*
X013375Y004500D01*
X013525Y004425D02*
X013600Y004500D01*
X013600Y004875D01*
X013525Y004875D02*
X013675Y004875D01*
X013835Y004875D02*
X014061Y004875D01*
X014136Y004800D01*
X014136Y004650D01*
X014061Y004575D01*
X013835Y004575D01*
X013835Y004425D02*
X013835Y004875D01*
X014296Y004800D02*
X014371Y004875D01*
X014521Y004875D01*
X014596Y004800D01*
X014596Y004725D01*
X014521Y004650D01*
X014596Y004575D01*
X014596Y004500D01*
X014521Y004425D01*
X014371Y004425D01*
X014296Y004500D01*
X014446Y004650D02*
X014521Y004650D01*
X009105Y004351D02*
X008655Y004351D01*
X008880Y004126D01*
X008880Y004426D01*
X008880Y003966D02*
X008730Y003966D01*
X008655Y003891D01*
X008655Y003665D01*
X009105Y003665D01*
X008955Y003665D02*
X008955Y003891D01*
X008880Y003966D01*
X008655Y003505D02*
X008655Y003355D01*
X008655Y003430D02*
X009030Y003430D01*
X009105Y003355D01*
X009105Y003280D01*
X009030Y003205D01*
X006060Y016675D02*
X006135Y016750D01*
X006135Y016825D01*
X006060Y016900D01*
X005685Y016900D01*
X005685Y016825D02*
X005685Y016975D01*
X005685Y017135D02*
X005685Y017361D01*
X005760Y017436D01*
X005910Y017436D01*
X005985Y017361D01*
X005985Y017135D01*
X006135Y017135D02*
X005685Y017135D01*
X005835Y017596D02*
X005685Y017746D01*
X006135Y017746D01*
X006135Y017596D02*
X006135Y017896D01*
D13*
X005630Y015680D02*
X007130Y015680D01*
X007380Y015430D01*
X007380Y014930D01*
X007130Y014680D01*
X005630Y014680D01*
X005380Y014930D01*
X005380Y015430D01*
X005630Y015680D01*
X005630Y014680D02*
X005380Y014430D01*
X005380Y013930D01*
X005630Y013680D01*
X007130Y013680D01*
X007380Y013930D01*
X007380Y014430D01*
X007130Y014680D01*
X007130Y013680D02*
X007380Y013430D01*
X007380Y012930D01*
X007130Y012680D01*
X005630Y012680D01*
X005380Y012930D01*
X005380Y013430D01*
X005630Y013680D01*
X005630Y012680D02*
X005380Y012430D01*
X005380Y011930D01*
X005630Y011680D01*
X007130Y011680D01*
X007380Y011930D01*
X007380Y012430D01*
X007130Y012680D01*
X007130Y011680D02*
X007380Y011430D01*
X007380Y010930D01*
X007130Y010680D01*
X005630Y010680D01*
X005380Y010930D01*
X005380Y011430D01*
X005630Y011680D01*
X005630Y009180D02*
X007130Y009180D01*
X007380Y008930D01*
X007380Y008430D01*
X007130Y008180D01*
X005630Y008180D01*
X005380Y008430D01*
X005380Y008930D01*
X005630Y009180D01*
X005630Y008180D02*
X005380Y007930D01*
X005380Y007430D01*
X005630Y007180D01*
X007130Y007180D01*
X007380Y007430D01*
X007380Y007930D01*
X007130Y008180D01*
X007130Y007180D02*
X007380Y006930D01*
X007380Y006430D01*
X007130Y006180D01*
X005630Y006180D01*
X005380Y006430D01*
X005380Y006930D01*
X005630Y007180D01*
X005630Y006180D02*
X005380Y005930D01*
X005380Y005430D01*
X005630Y005180D01*
X007130Y005180D01*
X007380Y005430D01*
X007380Y005930D01*
X007130Y006180D01*
X007130Y005180D02*
X007380Y004930D01*
X007380Y004430D01*
X007130Y004180D01*
X005630Y004180D01*
X005380Y004430D01*
X005380Y004930D01*
X005630Y005180D01*
X009380Y004930D02*
X009380Y004430D01*
X009630Y004180D01*
X011130Y004180D01*
X011380Y004430D01*
X011380Y004930D01*
X011130Y005180D01*
X009630Y005180D01*
X009380Y005430D01*
X009380Y005930D01*
X009630Y006180D01*
X011130Y006180D01*
X011380Y006430D01*
X011380Y006930D01*
X011130Y007180D01*
X009630Y007180D01*
X009380Y007430D01*
X009380Y007930D01*
X009630Y008180D01*
X011130Y008180D01*
X011380Y008430D01*
X011380Y008930D01*
X011130Y009180D01*
X009630Y009180D01*
X009380Y009430D01*
X009380Y009930D01*
X009630Y010180D01*
X011130Y010180D01*
X011380Y009930D01*
X011380Y009430D01*
X011130Y009180D01*
X011130Y008180D02*
X011380Y007930D01*
X011380Y007430D01*
X011130Y007180D01*
X011130Y006180D02*
X011380Y005930D01*
X011380Y005430D01*
X011130Y005180D01*
X011130Y004180D02*
X011380Y003930D01*
X011380Y003430D01*
X011130Y003180D01*
X009630Y003180D01*
X009380Y003430D01*
X009380Y003930D01*
X009630Y004180D01*
X009380Y004930D02*
X009630Y005180D01*
X009630Y006180D02*
X009380Y006430D01*
X009380Y006930D01*
X009630Y007180D01*
X009630Y008180D02*
X009380Y008430D01*
X009380Y008930D01*
X009630Y009180D01*
X009630Y010180D02*
X009380Y010430D01*
X009380Y010930D01*
X009630Y011180D01*
X011130Y011180D01*
X011380Y010930D01*
X011380Y010430D01*
X011130Y010180D01*
X011130Y011180D02*
X011380Y011430D01*
X011380Y011930D01*
X011130Y012180D01*
X009630Y012180D01*
X009380Y012430D01*
X009380Y012930D01*
X009630Y013180D01*
X011130Y013180D01*
X011380Y012930D01*
X011380Y012430D01*
X011130Y012180D01*
X011130Y013180D02*
X011380Y013430D01*
X011380Y013930D01*
X011130Y014180D01*
X009630Y014180D01*
X009380Y014430D01*
X009380Y014930D01*
X009630Y015180D01*
X011130Y015180D01*
X011380Y014930D01*
X011380Y014430D01*
X011130Y014180D01*
X011130Y015180D02*
X011380Y015430D01*
X011380Y015930D01*
X011130Y016180D01*
X009630Y016180D01*
X009380Y016430D01*
X009380Y016930D01*
X009630Y017180D01*
X011130Y017180D01*
X011380Y016930D01*
X011380Y016430D01*
X011130Y016180D01*
X011130Y017180D02*
X011380Y017430D01*
X011380Y017930D01*
X011130Y018180D01*
X009630Y018180D01*
X009380Y018430D01*
X009380Y018930D01*
X009630Y019180D01*
X011130Y019180D01*
X011380Y018930D01*
X011380Y018430D01*
X011130Y018180D01*
X011130Y019180D02*
X011380Y019430D01*
X011380Y019930D01*
X011130Y020180D01*
X009630Y020180D01*
X009380Y020430D01*
X009380Y020930D01*
X009630Y021180D01*
X011130Y021180D01*
X011380Y020930D01*
X011380Y020430D01*
X011130Y020180D01*
X009630Y020180D02*
X009380Y019930D01*
X009380Y019430D01*
X009630Y019180D01*
X009630Y018180D02*
X009380Y017930D01*
X009380Y017430D01*
X009630Y017180D01*
X009630Y016180D02*
X009380Y015930D01*
X009380Y015430D01*
X009630Y015180D01*
X009630Y014180D02*
X009380Y013930D01*
X009380Y013430D01*
X009630Y013180D01*
X009630Y012180D02*
X009380Y011930D01*
X009380Y011430D01*
X009630Y011180D01*
D14*
X007635Y013159D02*
X007485Y013159D01*
X007485Y013234D01*
X007510Y013259D01*
X007560Y013259D01*
X007585Y013234D01*
X007585Y013159D01*
X007585Y013209D02*
X007635Y013259D01*
X007635Y013306D02*
X007635Y013406D01*
X007635Y013454D02*
X007635Y013554D01*
X007635Y013601D02*
X007535Y013601D01*
X007485Y013651D01*
X007535Y013701D01*
X007635Y013701D01*
X007560Y013701D02*
X007560Y013601D01*
X007510Y013748D02*
X007560Y013798D01*
X007635Y013798D01*
X007560Y013798D02*
X007510Y013848D01*
X007485Y013848D01*
X007485Y013748D02*
X007510Y013748D01*
X007660Y013896D02*
X007660Y013996D01*
X007635Y014093D02*
X007485Y014093D01*
X007485Y014043D02*
X007485Y014143D01*
X007510Y014190D02*
X007610Y014190D01*
X007635Y014215D01*
X007635Y014265D01*
X007610Y014290D01*
X007510Y014290D01*
X007485Y014265D01*
X007485Y014215D01*
X007510Y014190D01*
X007485Y014338D02*
X007485Y014413D01*
X007510Y014438D01*
X007560Y014438D01*
X007585Y014413D01*
X007585Y014338D01*
X007635Y014338D02*
X007485Y014338D01*
X007485Y013454D02*
X007635Y013454D01*
X007560Y013356D02*
X007560Y013306D01*
X007485Y013306D02*
X007635Y013306D01*
X007485Y013306D02*
X007485Y013406D01*
X007485Y007938D02*
X007635Y007938D01*
X007635Y007838D02*
X007485Y007838D01*
X007535Y007888D01*
X007485Y007938D01*
X007510Y007790D02*
X007485Y007765D01*
X007485Y007715D01*
X007510Y007690D01*
X007610Y007690D01*
X007635Y007715D01*
X007635Y007765D01*
X007610Y007790D01*
X007510Y007790D01*
X007485Y007643D02*
X007485Y007543D01*
X007485Y007496D02*
X007485Y007396D01*
X007485Y007446D02*
X007635Y007446D01*
X007610Y007348D02*
X007510Y007348D01*
X007485Y007323D01*
X007485Y007273D01*
X007510Y007248D01*
X007610Y007248D01*
X007635Y007273D01*
X007635Y007323D01*
X007610Y007348D01*
X007610Y007201D02*
X007635Y007176D01*
X007635Y007101D01*
X007485Y007101D01*
X007485Y007176D01*
X007510Y007201D01*
X007535Y007201D01*
X007560Y007176D01*
X007560Y007101D01*
X007560Y007176D02*
X007585Y007201D01*
X007610Y007201D01*
X007660Y007054D02*
X007660Y006954D01*
X007610Y006906D02*
X007635Y006881D01*
X007635Y006831D01*
X007610Y006806D01*
X007560Y006831D02*
X007560Y006881D01*
X007585Y006906D01*
X007610Y006906D01*
X007560Y006831D02*
X007535Y006806D01*
X007510Y006806D01*
X007485Y006831D01*
X007485Y006881D01*
X007510Y006906D01*
X007510Y006759D02*
X007485Y006759D01*
X007510Y006759D02*
X007560Y006709D01*
X007635Y006709D01*
X007560Y006709D02*
X007510Y006659D01*
X007485Y006659D01*
X007535Y006612D02*
X007635Y006612D01*
X007560Y006612D02*
X007560Y006512D01*
X007535Y006512D02*
X007485Y006562D01*
X007535Y006612D01*
X007535Y006512D02*
X007635Y006512D01*
X007635Y006464D02*
X007635Y006364D01*
X007485Y006364D01*
X007485Y006317D02*
X007485Y006217D01*
X007635Y006217D01*
X007635Y006317D01*
X007560Y006267D02*
X007560Y006217D01*
X007560Y006170D02*
X007585Y006145D01*
X007585Y006070D01*
X007585Y006120D02*
X007635Y006170D01*
X007560Y006170D02*
X007510Y006170D01*
X007485Y006145D01*
X007485Y006070D01*
X007635Y006070D01*
X007635Y007593D02*
X007485Y007593D01*
X015090Y007575D02*
X015165Y007575D01*
X015190Y007600D01*
X015190Y007650D01*
X015165Y007675D01*
X015090Y007675D01*
X015090Y007525D01*
X015140Y007575D02*
X015190Y007525D01*
X015238Y007525D02*
X015338Y007525D01*
X015288Y007525D02*
X015288Y007675D01*
X015238Y007625D01*
X015263Y005675D02*
X015238Y005650D01*
X015263Y005675D02*
X015313Y005675D01*
X015338Y005650D01*
X015338Y005625D01*
X015238Y005525D01*
X015338Y005525D01*
X015190Y005525D02*
X015140Y005575D01*
X015165Y005575D02*
X015090Y005575D01*
X015090Y005525D02*
X015090Y005675D01*
X015165Y005675D01*
X015190Y005650D01*
X015190Y005600D01*
X015165Y005575D01*
D15*
X006880Y006680D03*
X006880Y013180D03*
M02*
