G75*
%MOIN*%
%OFA0B0*%
%FSLAX24Y24*%
%IPPOS*%
%LPD*%
%AMOC8*
5,1,8,0,0,1.08239X$1,22.5*
%
%ADD10R,0.0820X0.0820*%
%ADD11C,0.0820*%
%ADD12OC8,0.0680*%
%ADD13OC8,0.0820*%
%ADD14C,0.0480*%
D10*
X013880Y003680D03*
X006880Y017180D03*
D11*
X006880Y018180D03*
X006880Y019180D03*
X006880Y020180D03*
X012880Y008180D03*
X012880Y006180D03*
X014880Y003680D03*
X015880Y003680D03*
X016880Y003680D03*
X015880Y006180D03*
X015880Y008180D03*
D12*
X010880Y007680D03*
X010880Y008680D03*
X010880Y009680D03*
X010880Y010680D03*
X010880Y011680D03*
X009880Y011680D03*
X009880Y010680D03*
X009880Y009680D03*
X009880Y008680D03*
X009880Y007680D03*
X009880Y006680D03*
X009880Y005680D03*
X009880Y004680D03*
X009880Y003680D03*
X010880Y003680D03*
X010880Y004680D03*
X010880Y005680D03*
X010880Y006680D03*
X010880Y012680D03*
X010880Y013680D03*
X010880Y014680D03*
X010880Y015680D03*
X010880Y016680D03*
X009880Y016680D03*
X009880Y015680D03*
X009880Y014680D03*
X009880Y013680D03*
X009880Y012680D03*
X009880Y017680D03*
X009880Y018680D03*
X009880Y019680D03*
X009880Y020680D03*
X010880Y020680D03*
X010880Y019680D03*
X010880Y018680D03*
X010880Y017680D03*
D13*
X005880Y004680D03*
X005880Y005680D03*
X005880Y006680D03*
X005880Y007680D03*
X005880Y008680D03*
X006880Y008680D03*
X006880Y007680D03*
X006880Y006680D03*
X006880Y005680D03*
X006880Y004680D03*
X006880Y011180D03*
X006880Y012180D03*
X006880Y013180D03*
X006880Y014180D03*
X006880Y015180D03*
X005880Y015180D03*
X005880Y014180D03*
X005880Y013180D03*
X005880Y012180D03*
X005880Y011180D03*
D14*
X008010Y009880D03*
X008100Y015370D03*
X005940Y016360D03*
M02*
