%
M48
M72
T01C0.0130
T02C0.0236
T03C0.0276
T04C0.0400
%
T01
X13220Y6520
X21620Y6640
X22400Y7240
X23420Y8620
X23060Y4780
X23660Y4720
T02
X18780Y4180
X18780Y6180
X18980Y8180
T03
X15580Y8180
X15580Y7180
T04
X11180Y2580
X11180Y3580
X11180Y4580
X11180Y5580
X10980Y7380
X9180Y7980
X8180Y7980
X7180Y7980
X10980Y8380
X12980Y8380
X12980Y7380
X26180Y7980
X27180Y7980
X28180Y7980
X29180Y7980
X30180Y7980
X31180Y7980
X32180Y7980
X33180Y7980
X34180Y7980
X35180Y7980
X30780Y5380
X30780Y4380
X30780Y3380
X30780Y2380
M30
