G75*
%MOIN*%
%OFA0B0*%
%FSLAX24Y24*%
%IPPOS*%
%LPD*%
%AMOC8*
5,1,8,0,0,1.08239X$1,22.5*
%
%ADD10C,0.0000*%
D10*
X005780Y001380D02*
X005780Y016876D01*
X023580Y016876D01*
X023580Y001380D01*
X005780Y001380D01*
X006350Y002580D02*
X006352Y002630D01*
X006358Y002680D01*
X006368Y002729D01*
X006382Y002777D01*
X006399Y002824D01*
X006420Y002869D01*
X006445Y002913D01*
X006473Y002954D01*
X006505Y002993D01*
X006539Y003030D01*
X006576Y003064D01*
X006616Y003094D01*
X006658Y003121D01*
X006702Y003145D01*
X006748Y003166D01*
X006795Y003182D01*
X006843Y003195D01*
X006893Y003204D01*
X006942Y003209D01*
X006993Y003210D01*
X007043Y003207D01*
X007092Y003200D01*
X007141Y003189D01*
X007189Y003174D01*
X007235Y003156D01*
X007280Y003134D01*
X007323Y003108D01*
X007364Y003079D01*
X007403Y003047D01*
X007439Y003012D01*
X007471Y002974D01*
X007501Y002934D01*
X007528Y002891D01*
X007551Y002847D01*
X007570Y002801D01*
X007586Y002753D01*
X007598Y002704D01*
X007606Y002655D01*
X007610Y002605D01*
X007610Y002555D01*
X007606Y002505D01*
X007598Y002456D01*
X007586Y002407D01*
X007570Y002359D01*
X007551Y002313D01*
X007528Y002269D01*
X007501Y002226D01*
X007471Y002186D01*
X007439Y002148D01*
X007403Y002113D01*
X007364Y002081D01*
X007323Y002052D01*
X007280Y002026D01*
X007235Y002004D01*
X007189Y001986D01*
X007141Y001971D01*
X007092Y001960D01*
X007043Y001953D01*
X006993Y001950D01*
X006942Y001951D01*
X006893Y001956D01*
X006843Y001965D01*
X006795Y001978D01*
X006748Y001994D01*
X006702Y002015D01*
X006658Y002039D01*
X006616Y002066D01*
X006576Y002096D01*
X006539Y002130D01*
X006505Y002167D01*
X006473Y002206D01*
X006445Y002247D01*
X006420Y002291D01*
X006399Y002336D01*
X006382Y002383D01*
X006368Y002431D01*
X006358Y002480D01*
X006352Y002530D01*
X006350Y002580D01*
X021750Y002580D02*
X021752Y002630D01*
X021758Y002680D01*
X021768Y002729D01*
X021782Y002777D01*
X021799Y002824D01*
X021820Y002869D01*
X021845Y002913D01*
X021873Y002954D01*
X021905Y002993D01*
X021939Y003030D01*
X021976Y003064D01*
X022016Y003094D01*
X022058Y003121D01*
X022102Y003145D01*
X022148Y003166D01*
X022195Y003182D01*
X022243Y003195D01*
X022293Y003204D01*
X022342Y003209D01*
X022393Y003210D01*
X022443Y003207D01*
X022492Y003200D01*
X022541Y003189D01*
X022589Y003174D01*
X022635Y003156D01*
X022680Y003134D01*
X022723Y003108D01*
X022764Y003079D01*
X022803Y003047D01*
X022839Y003012D01*
X022871Y002974D01*
X022901Y002934D01*
X022928Y002891D01*
X022951Y002847D01*
X022970Y002801D01*
X022986Y002753D01*
X022998Y002704D01*
X023006Y002655D01*
X023010Y002605D01*
X023010Y002555D01*
X023006Y002505D01*
X022998Y002456D01*
X022986Y002407D01*
X022970Y002359D01*
X022951Y002313D01*
X022928Y002269D01*
X022901Y002226D01*
X022871Y002186D01*
X022839Y002148D01*
X022803Y002113D01*
X022764Y002081D01*
X022723Y002052D01*
X022680Y002026D01*
X022635Y002004D01*
X022589Y001986D01*
X022541Y001971D01*
X022492Y001960D01*
X022443Y001953D01*
X022393Y001950D01*
X022342Y001951D01*
X022293Y001956D01*
X022243Y001965D01*
X022195Y001978D01*
X022148Y001994D01*
X022102Y002015D01*
X022058Y002039D01*
X022016Y002066D01*
X021976Y002096D01*
X021939Y002130D01*
X021905Y002167D01*
X021873Y002206D01*
X021845Y002247D01*
X021820Y002291D01*
X021799Y002336D01*
X021782Y002383D01*
X021768Y002431D01*
X021758Y002480D01*
X021752Y002530D01*
X021750Y002580D01*
X021550Y015580D02*
X021552Y015630D01*
X021558Y015680D01*
X021568Y015729D01*
X021582Y015777D01*
X021599Y015824D01*
X021620Y015869D01*
X021645Y015913D01*
X021673Y015954D01*
X021705Y015993D01*
X021739Y016030D01*
X021776Y016064D01*
X021816Y016094D01*
X021858Y016121D01*
X021902Y016145D01*
X021948Y016166D01*
X021995Y016182D01*
X022043Y016195D01*
X022093Y016204D01*
X022142Y016209D01*
X022193Y016210D01*
X022243Y016207D01*
X022292Y016200D01*
X022341Y016189D01*
X022389Y016174D01*
X022435Y016156D01*
X022480Y016134D01*
X022523Y016108D01*
X022564Y016079D01*
X022603Y016047D01*
X022639Y016012D01*
X022671Y015974D01*
X022701Y015934D01*
X022728Y015891D01*
X022751Y015847D01*
X022770Y015801D01*
X022786Y015753D01*
X022798Y015704D01*
X022806Y015655D01*
X022810Y015605D01*
X022810Y015555D01*
X022806Y015505D01*
X022798Y015456D01*
X022786Y015407D01*
X022770Y015359D01*
X022751Y015313D01*
X022728Y015269D01*
X022701Y015226D01*
X022671Y015186D01*
X022639Y015148D01*
X022603Y015113D01*
X022564Y015081D01*
X022523Y015052D01*
X022480Y015026D01*
X022435Y015004D01*
X022389Y014986D01*
X022341Y014971D01*
X022292Y014960D01*
X022243Y014953D01*
X022193Y014950D01*
X022142Y014951D01*
X022093Y014956D01*
X022043Y014965D01*
X021995Y014978D01*
X021948Y014994D01*
X021902Y015015D01*
X021858Y015039D01*
X021816Y015066D01*
X021776Y015096D01*
X021739Y015130D01*
X021705Y015167D01*
X021673Y015206D01*
X021645Y015247D01*
X021620Y015291D01*
X021599Y015336D01*
X021582Y015383D01*
X021568Y015431D01*
X021558Y015480D01*
X021552Y015530D01*
X021550Y015580D01*
X006350Y015580D02*
X006352Y015630D01*
X006358Y015680D01*
X006368Y015729D01*
X006382Y015777D01*
X006399Y015824D01*
X006420Y015869D01*
X006445Y015913D01*
X006473Y015954D01*
X006505Y015993D01*
X006539Y016030D01*
X006576Y016064D01*
X006616Y016094D01*
X006658Y016121D01*
X006702Y016145D01*
X006748Y016166D01*
X006795Y016182D01*
X006843Y016195D01*
X006893Y016204D01*
X006942Y016209D01*
X006993Y016210D01*
X007043Y016207D01*
X007092Y016200D01*
X007141Y016189D01*
X007189Y016174D01*
X007235Y016156D01*
X007280Y016134D01*
X007323Y016108D01*
X007364Y016079D01*
X007403Y016047D01*
X007439Y016012D01*
X007471Y015974D01*
X007501Y015934D01*
X007528Y015891D01*
X007551Y015847D01*
X007570Y015801D01*
X007586Y015753D01*
X007598Y015704D01*
X007606Y015655D01*
X007610Y015605D01*
X007610Y015555D01*
X007606Y015505D01*
X007598Y015456D01*
X007586Y015407D01*
X007570Y015359D01*
X007551Y015313D01*
X007528Y015269D01*
X007501Y015226D01*
X007471Y015186D01*
X007439Y015148D01*
X007403Y015113D01*
X007364Y015081D01*
X007323Y015052D01*
X007280Y015026D01*
X007235Y015004D01*
X007189Y014986D01*
X007141Y014971D01*
X007092Y014960D01*
X007043Y014953D01*
X006993Y014950D01*
X006942Y014951D01*
X006893Y014956D01*
X006843Y014965D01*
X006795Y014978D01*
X006748Y014994D01*
X006702Y015015D01*
X006658Y015039D01*
X006616Y015066D01*
X006576Y015096D01*
X006539Y015130D01*
X006505Y015167D01*
X006473Y015206D01*
X006445Y015247D01*
X006420Y015291D01*
X006399Y015336D01*
X006382Y015383D01*
X006368Y015431D01*
X006358Y015480D01*
X006352Y015530D01*
X006350Y015580D01*
M02*
