G75*
%MOIN*%
%OFA0B0*%
%FSLAX24Y24*%
%IPPOS*%
%LPD*%
%AMOC8*
5,1,8,0,0,1.08239X$1,22.5*
%
%ADD10R,0.0800X0.0800*%
%ADD11C,0.0800*%
%ADD12C,0.0740*%
%ADD13R,0.0250X0.0500*%
%ADD14C,0.0160*%
%ADD15C,0.0060*%
D10*
X009980Y014380D03*
X017180Y014380D03*
D11*
X019149Y014380D03*
X011949Y014380D03*
D12*
X008780Y012080D03*
X010480Y010980D03*
X011480Y010980D03*
X008780Y009080D03*
X010380Y007580D03*
X011380Y007580D03*
X011380Y005580D03*
X010380Y005580D03*
X010380Y003380D03*
X011380Y003380D03*
X017580Y003380D03*
X018580Y003380D03*
X018580Y005580D03*
X017580Y005580D03*
X017580Y007580D03*
X018580Y007580D03*
X020580Y009280D03*
X018680Y010980D03*
X017680Y010980D03*
X020580Y012280D03*
D13*
X014757Y011380D03*
X014403Y011380D03*
D14*
X006010Y001610D02*
X023350Y001610D01*
X023350Y016646D01*
X006010Y016646D01*
X006010Y001610D01*
X006010Y001697D02*
X023350Y001697D01*
X023350Y001856D02*
X022872Y001856D01*
X022867Y001851D02*
X023109Y002093D01*
X023240Y002409D01*
X023240Y002751D01*
X023109Y003067D01*
X022867Y003309D01*
X022551Y003440D01*
X022209Y003440D01*
X021893Y003309D01*
X021651Y003067D01*
X021520Y002751D01*
X021520Y002409D01*
X021651Y002093D01*
X021893Y001851D01*
X022209Y001720D01*
X022551Y001720D01*
X022867Y001851D01*
X023030Y002014D02*
X023350Y002014D01*
X023350Y002173D02*
X023142Y002173D01*
X023208Y002331D02*
X023350Y002331D01*
X023350Y002490D02*
X023240Y002490D01*
X023240Y002648D02*
X023350Y002648D01*
X023350Y002807D02*
X023217Y002807D01*
X023151Y002965D02*
X023350Y002965D01*
X023350Y003124D02*
X023053Y003124D01*
X022894Y003282D02*
X023350Y003282D01*
X023350Y003441D02*
X019090Y003441D01*
X019090Y003481D02*
X019012Y003669D01*
X019001Y003680D01*
X019050Y003730D01*
X019150Y003830D01*
X019150Y005110D01*
X018991Y005270D01*
X019012Y005291D01*
X019090Y005479D01*
X019090Y005681D01*
X019012Y005869D01*
X018869Y006012D01*
X018681Y006090D01*
X018479Y006090D01*
X018473Y006088D01*
X018310Y006250D01*
X018310Y006950D01*
X018445Y007084D01*
X018479Y007070D01*
X018681Y007070D01*
X018869Y007148D01*
X019012Y007291D01*
X019090Y007479D01*
X019090Y007681D01*
X019012Y007869D01*
X018869Y008012D01*
X018681Y008090D01*
X018479Y008090D01*
X018291Y008012D01*
X018148Y007869D01*
X018080Y007706D01*
X018012Y007869D01*
X017869Y008012D01*
X017681Y008090D01*
X017479Y008090D01*
X017291Y008012D01*
X017148Y007869D01*
X017070Y007681D01*
X017070Y007479D01*
X017148Y007291D01*
X017291Y007148D01*
X017479Y007070D01*
X017681Y007070D01*
X017715Y007084D01*
X017850Y006950D01*
X017850Y006250D01*
X017687Y006088D01*
X017681Y006090D01*
X017479Y006090D01*
X017291Y006012D01*
X017148Y005869D01*
X017070Y005681D01*
X017070Y005479D01*
X017148Y005291D01*
X017291Y005148D01*
X017479Y005070D01*
X017681Y005070D01*
X017687Y005072D01*
X017850Y004910D01*
X017850Y003970D01*
X017744Y003864D01*
X017681Y003890D01*
X017479Y003890D01*
X017291Y003812D01*
X017148Y003669D01*
X017070Y003481D01*
X017070Y003279D01*
X017148Y003091D01*
X017291Y002948D01*
X017479Y002870D01*
X017681Y002870D01*
X017869Y002948D01*
X018012Y003091D01*
X018080Y003254D01*
X018148Y003091D01*
X018291Y002948D01*
X018479Y002870D01*
X018681Y002870D01*
X018869Y002948D01*
X019012Y003091D01*
X019090Y003279D01*
X019090Y003481D01*
X019041Y003599D02*
X023350Y003599D01*
X023350Y003758D02*
X019078Y003758D01*
X019150Y003916D02*
X023350Y003916D01*
X023350Y004075D02*
X019150Y004075D01*
X019150Y004233D02*
X023350Y004233D01*
X023350Y004392D02*
X019150Y004392D01*
X019150Y004550D02*
X023350Y004550D01*
X023350Y004709D02*
X019150Y004709D01*
X019150Y004867D02*
X023350Y004867D01*
X023350Y005026D02*
X019150Y005026D01*
X019076Y005184D02*
X023350Y005184D01*
X023350Y005343D02*
X019034Y005343D01*
X019090Y005501D02*
X023350Y005501D01*
X023350Y005660D02*
X019090Y005660D01*
X019033Y005818D02*
X023350Y005818D01*
X023350Y005977D02*
X018905Y005977D01*
X018425Y006135D02*
X023350Y006135D01*
X023350Y006294D02*
X018310Y006294D01*
X018310Y006452D02*
X023350Y006452D01*
X023350Y006611D02*
X018310Y006611D01*
X018310Y006769D02*
X023350Y006769D01*
X023350Y006928D02*
X018310Y006928D01*
X018720Y007086D02*
X023350Y007086D01*
X023350Y007245D02*
X018966Y007245D01*
X019059Y007403D02*
X023350Y007403D01*
X023350Y007562D02*
X019090Y007562D01*
X019074Y007720D02*
X023350Y007720D01*
X023350Y007879D02*
X019003Y007879D01*
X018809Y008037D02*
X023350Y008037D01*
X023350Y008196D02*
X006010Y008196D01*
X006010Y008354D02*
X023350Y008354D01*
X023350Y008513D02*
X006010Y008513D01*
X006010Y008671D02*
X008468Y008671D01*
X008491Y008648D02*
X008679Y008570D01*
X008881Y008570D01*
X009069Y008648D01*
X009212Y008791D01*
X009290Y008979D01*
X009290Y009181D01*
X009212Y009369D01*
X009181Y009400D01*
X010050Y010270D01*
X010170Y010270D01*
X010373Y010472D01*
X010379Y010470D01*
X010581Y010470D01*
X010769Y010548D01*
X010912Y010691D01*
X010959Y010804D01*
X010970Y010769D01*
X011010Y010692D01*
X011060Y010622D01*
X011122Y010560D01*
X011192Y010510D01*
X011269Y010470D01*
X011351Y010444D01*
X011437Y010430D01*
X011480Y010430D01*
X011523Y010430D01*
X011609Y010444D01*
X011691Y010470D01*
X011768Y010510D01*
X011838Y010560D01*
X011900Y010622D01*
X011950Y010692D01*
X011990Y010769D01*
X012016Y010851D01*
X012030Y010937D01*
X012030Y010980D01*
X012030Y011023D01*
X012016Y011109D01*
X011990Y011191D01*
X011950Y011268D01*
X011900Y011338D01*
X011838Y011400D01*
X011768Y011450D01*
X011691Y011490D01*
X011609Y011516D01*
X011523Y011530D01*
X011480Y011530D01*
X011480Y010980D01*
X011480Y010980D01*
X012030Y010980D01*
X011480Y010980D01*
X011480Y010980D01*
X011480Y011530D01*
X011437Y011530D01*
X011351Y011516D01*
X011269Y011490D01*
X011192Y011450D01*
X011122Y011400D01*
X011060Y011338D01*
X011010Y011268D01*
X010970Y011191D01*
X010959Y011156D01*
X010912Y011269D01*
X010769Y011412D01*
X010581Y011490D01*
X010379Y011490D01*
X010191Y011412D01*
X010048Y011269D01*
X009970Y011081D01*
X009970Y010879D01*
X010048Y010691D01*
X010079Y010660D01*
X010030Y010610D01*
X009910Y010610D01*
X009810Y010510D01*
X008887Y009588D01*
X008881Y009590D01*
X008679Y009590D01*
X008491Y009512D01*
X008348Y009369D01*
X008270Y009181D01*
X008270Y008979D01*
X008348Y008791D01*
X008491Y008648D01*
X008332Y008830D02*
X006010Y008830D01*
X006010Y008988D02*
X008270Y008988D01*
X008270Y009147D02*
X006010Y009147D01*
X006010Y009305D02*
X008321Y009305D01*
X008442Y009464D02*
X006010Y009464D01*
X006010Y009622D02*
X008922Y009622D01*
X009080Y009781D02*
X006010Y009781D01*
X006010Y009939D02*
X009239Y009939D01*
X009397Y010098D02*
X006010Y010098D01*
X006010Y010256D02*
X009556Y010256D01*
X009714Y010415D02*
X006010Y010415D01*
X006010Y010573D02*
X009873Y010573D01*
X010031Y010732D02*
X006010Y010732D01*
X006010Y010890D02*
X009970Y010890D01*
X009970Y011049D02*
X006010Y011049D01*
X006010Y011207D02*
X010022Y011207D01*
X010144Y011366D02*
X006010Y011366D01*
X006010Y011524D02*
X011399Y011524D01*
X011480Y011524D02*
X011480Y011524D01*
X011561Y011524D02*
X014098Y011524D01*
X014098Y011654D02*
X014098Y011380D01*
X014098Y011106D01*
X014110Y011061D01*
X014134Y011019D01*
X014167Y010986D01*
X014208Y010962D01*
X014254Y010950D01*
X014403Y010950D01*
X014552Y010950D01*
X014597Y010962D01*
X014638Y010986D01*
X014642Y010990D01*
X014940Y010990D01*
X015022Y011072D01*
X015022Y011230D01*
X017130Y011230D01*
X017430Y011530D01*
X018010Y011530D01*
X018259Y011280D01*
X018248Y011269D01*
X018180Y011106D01*
X018112Y011269D01*
X017969Y011412D01*
X017781Y011490D01*
X017579Y011490D01*
X017391Y011412D01*
X017248Y011269D01*
X017170Y011081D01*
X017170Y010879D01*
X017248Y010691D01*
X017391Y010548D01*
X017579Y010470D01*
X017781Y010470D01*
X017801Y010478D01*
X018630Y009650D01*
X018730Y009550D01*
X019930Y009550D01*
X020078Y009401D01*
X020070Y009381D01*
X020070Y009179D01*
X020148Y008991D01*
X020291Y008848D01*
X020479Y008770D01*
X020681Y008770D01*
X020869Y008848D01*
X021012Y008991D01*
X021090Y009179D01*
X021090Y009381D01*
X021012Y009569D01*
X020869Y009712D01*
X020681Y009790D01*
X020479Y009790D01*
X020291Y009712D01*
X020270Y009691D01*
X020070Y009890D01*
X018870Y009890D01*
X018091Y010670D01*
X018112Y010691D01*
X018180Y010854D01*
X018248Y010691D01*
X018391Y010548D01*
X018579Y010470D01*
X018781Y010470D01*
X018969Y010548D01*
X019112Y010691D01*
X019190Y010879D01*
X019190Y011081D01*
X019112Y011269D01*
X018969Y011412D01*
X018781Y011490D01*
X018579Y011490D01*
X018545Y011476D01*
X018320Y011700D01*
X018910Y012290D01*
X018910Y013730D01*
X019026Y013846D01*
X019041Y013840D01*
X019256Y013840D01*
X019454Y013922D01*
X019606Y014074D01*
X019689Y014273D01*
X019689Y014487D01*
X019606Y014686D01*
X019454Y014838D01*
X019256Y014920D01*
X019041Y014920D01*
X018843Y014838D01*
X018691Y014686D01*
X018609Y014487D01*
X018609Y014273D01*
X018691Y014074D01*
X018732Y014033D01*
X018670Y013970D01*
X018570Y013870D01*
X018570Y012430D01*
X018010Y011870D01*
X017290Y011870D01*
X017190Y011770D01*
X016990Y011570D01*
X015022Y011570D01*
X015022Y011688D01*
X014940Y011770D01*
X014642Y011770D01*
X014638Y011774D01*
X014597Y011798D01*
X014552Y011810D01*
X014403Y011810D01*
X014403Y011380D01*
X014403Y010950D01*
X014403Y011380D01*
X014403Y011380D01*
X014403Y011380D01*
X014403Y011810D01*
X014254Y011810D01*
X014208Y011798D01*
X014167Y011774D01*
X014134Y011741D01*
X014110Y011699D01*
X014098Y011654D01*
X014106Y011683D02*
X009104Y011683D01*
X009069Y011648D02*
X009212Y011791D01*
X009290Y011979D01*
X009290Y012181D01*
X009212Y012369D01*
X009181Y012400D01*
X009810Y013030D01*
X009910Y013130D01*
X009910Y013840D01*
X010438Y013840D01*
X010520Y013922D01*
X010520Y014838D01*
X010438Y014920D01*
X009522Y014920D01*
X009440Y014838D01*
X009440Y013922D01*
X009522Y013840D01*
X009570Y013840D01*
X009570Y013270D01*
X008887Y012588D01*
X008881Y012590D01*
X008679Y012590D01*
X008491Y012512D01*
X008348Y012369D01*
X008270Y012181D01*
X008270Y011979D01*
X008348Y011791D01*
X008491Y011648D01*
X008679Y011570D01*
X008881Y011570D01*
X009069Y011648D01*
X009233Y011841D02*
X017261Y011841D01*
X017102Y011683D02*
X015022Y011683D01*
X014403Y011683D02*
X014403Y011683D01*
X014403Y011524D02*
X014403Y011524D01*
X014403Y011380D02*
X014098Y011380D01*
X014403Y011380D01*
X014403Y011380D01*
X014403Y011366D02*
X014403Y011366D01*
X014403Y011207D02*
X014403Y011207D01*
X014403Y011049D02*
X014403Y011049D01*
X014117Y011049D02*
X012026Y011049D01*
X012023Y010890D02*
X017170Y010890D01*
X017170Y011049D02*
X014999Y011049D01*
X015022Y011207D02*
X017222Y011207D01*
X017266Y011366D02*
X017344Y011366D01*
X017424Y011524D02*
X018016Y011524D01*
X018016Y011366D02*
X018174Y011366D01*
X018138Y011207D02*
X018222Y011207D01*
X018496Y011524D02*
X023350Y011524D01*
X023350Y011366D02*
X019016Y011366D01*
X019138Y011207D02*
X023350Y011207D01*
X023350Y011049D02*
X019190Y011049D01*
X019190Y010890D02*
X023350Y010890D01*
X023350Y010732D02*
X019129Y010732D01*
X018994Y010573D02*
X023350Y010573D01*
X023350Y010415D02*
X018346Y010415D01*
X018366Y010573D02*
X018187Y010573D01*
X018231Y010732D02*
X018129Y010732D01*
X017366Y010573D02*
X011851Y010573D01*
X011971Y010732D02*
X017231Y010732D01*
X017865Y010415D02*
X010315Y010415D01*
X010036Y010256D02*
X018024Y010256D01*
X018182Y010098D02*
X009878Y010098D01*
X009719Y009939D02*
X018341Y009939D01*
X018499Y009781D02*
X009561Y009781D01*
X009402Y009622D02*
X018658Y009622D01*
X018821Y009939D02*
X023350Y009939D01*
X023350Y009781D02*
X020704Y009781D01*
X020456Y009781D02*
X020180Y009781D01*
X020016Y009464D02*
X009244Y009464D01*
X009239Y009305D02*
X020070Y009305D01*
X020083Y009147D02*
X009290Y009147D01*
X009290Y008988D02*
X020151Y008988D01*
X020335Y008830D02*
X009228Y008830D01*
X009092Y008671D02*
X023350Y008671D01*
X023350Y008830D02*
X020825Y008830D01*
X021009Y008988D02*
X023350Y008988D01*
X023350Y009147D02*
X021077Y009147D01*
X021090Y009305D02*
X023350Y009305D01*
X023350Y009464D02*
X021056Y009464D01*
X020959Y009622D02*
X023350Y009622D01*
X023350Y010098D02*
X018663Y010098D01*
X018504Y010256D02*
X023350Y010256D01*
X023350Y011683D02*
X018338Y011683D01*
X018461Y011841D02*
X020307Y011841D01*
X020291Y011848D02*
X020479Y011770D01*
X020681Y011770D01*
X020869Y011848D01*
X021012Y011991D01*
X021090Y012179D01*
X021090Y012381D01*
X021012Y012569D01*
X020869Y012712D01*
X020681Y012790D01*
X020479Y012790D01*
X020291Y012712D01*
X020148Y012569D01*
X020070Y012381D01*
X020070Y012179D01*
X020148Y011991D01*
X020291Y011848D01*
X020144Y012000D02*
X018620Y012000D01*
X018778Y012158D02*
X020079Y012158D01*
X020070Y012317D02*
X018910Y012317D01*
X018910Y012475D02*
X020109Y012475D01*
X020212Y012634D02*
X018910Y012634D01*
X018910Y012792D02*
X023350Y012792D01*
X023350Y012634D02*
X020948Y012634D01*
X021051Y012475D02*
X023350Y012475D01*
X023350Y012317D02*
X021090Y012317D01*
X021081Y012158D02*
X023350Y012158D01*
X023350Y012000D02*
X021016Y012000D01*
X020853Y011841D02*
X023350Y011841D01*
X023350Y012951D02*
X018910Y012951D01*
X018910Y013109D02*
X023350Y013109D01*
X023350Y013268D02*
X018910Y013268D01*
X018910Y013426D02*
X023350Y013426D01*
X023350Y013585D02*
X018910Y013585D01*
X018923Y013743D02*
X023350Y013743D01*
X023350Y013902D02*
X019404Y013902D01*
X019592Y014060D02*
X023350Y014060D01*
X023350Y014219D02*
X019666Y014219D01*
X019689Y014377D02*
X023350Y014377D01*
X023350Y014536D02*
X019669Y014536D01*
X019598Y014694D02*
X023350Y014694D01*
X023350Y014853D02*
X022669Y014853D01*
X022667Y014851D02*
X022909Y015093D01*
X023040Y015409D01*
X023040Y015751D01*
X022909Y016067D01*
X022667Y016309D01*
X022351Y016440D01*
X022009Y016440D01*
X021693Y016309D01*
X021451Y016067D01*
X021320Y015751D01*
X021320Y015409D01*
X021451Y015093D01*
X021693Y014851D01*
X022009Y014720D01*
X022351Y014720D01*
X022667Y014851D01*
X022827Y015011D02*
X023350Y015011D01*
X023350Y015170D02*
X022941Y015170D01*
X023006Y015328D02*
X023350Y015328D01*
X023350Y015487D02*
X023040Y015487D01*
X023040Y015645D02*
X023350Y015645D01*
X023350Y015804D02*
X023018Y015804D01*
X022953Y015962D02*
X023350Y015962D01*
X023350Y016121D02*
X022856Y016121D01*
X022697Y016279D02*
X023350Y016279D01*
X023350Y016438D02*
X022357Y016438D01*
X022003Y016438D02*
X007157Y016438D01*
X007151Y016440D02*
X006809Y016440D01*
X006493Y016309D01*
X006251Y016067D01*
X006120Y015751D01*
X006120Y015409D01*
X006251Y015093D01*
X006493Y014851D01*
X006809Y014720D01*
X007151Y014720D01*
X007467Y014851D01*
X007709Y015093D01*
X007840Y015409D01*
X007840Y015751D01*
X007709Y016067D01*
X007467Y016309D01*
X007151Y016440D01*
X006803Y016438D02*
X006010Y016438D01*
X006010Y016596D02*
X023350Y016596D01*
X021663Y016279D02*
X007497Y016279D01*
X007656Y016121D02*
X021504Y016121D01*
X021407Y015962D02*
X007753Y015962D01*
X007818Y015804D02*
X021342Y015804D01*
X021320Y015645D02*
X007840Y015645D01*
X007840Y015487D02*
X021320Y015487D01*
X021354Y015328D02*
X007806Y015328D01*
X007741Y015170D02*
X021419Y015170D01*
X021533Y015011D02*
X007627Y015011D01*
X007469Y014853D02*
X009455Y014853D01*
X009440Y014694D02*
X006010Y014694D01*
X006010Y014536D02*
X009440Y014536D01*
X009440Y014377D02*
X006010Y014377D01*
X006010Y014219D02*
X009440Y014219D01*
X009440Y014060D02*
X006010Y014060D01*
X006010Y013902D02*
X009460Y013902D01*
X009570Y013743D02*
X006010Y013743D01*
X006010Y013585D02*
X009570Y013585D01*
X009570Y013426D02*
X006010Y013426D01*
X006010Y013268D02*
X009567Y013268D01*
X009409Y013109D02*
X006010Y013109D01*
X006010Y012951D02*
X009250Y012951D01*
X009092Y012792D02*
X006010Y012792D01*
X006010Y012634D02*
X008933Y012634D01*
X009255Y012475D02*
X018570Y012475D01*
X018570Y012634D02*
X009414Y012634D01*
X009572Y012792D02*
X018570Y012792D01*
X018570Y012951D02*
X009731Y012951D01*
X009889Y013109D02*
X018570Y013109D01*
X018570Y013268D02*
X009910Y013268D01*
X009910Y013426D02*
X018570Y013426D01*
X018570Y013585D02*
X009910Y013585D01*
X009910Y013743D02*
X018570Y013743D01*
X018601Y013902D02*
X017700Y013902D01*
X017720Y013922D02*
X017638Y013840D01*
X016722Y013840D01*
X016640Y013922D01*
X016640Y014838D01*
X016722Y014920D01*
X017638Y014920D01*
X017720Y014838D01*
X017720Y013922D01*
X017720Y014060D02*
X018705Y014060D01*
X018631Y014219D02*
X017720Y014219D01*
X017720Y014377D02*
X018609Y014377D01*
X018628Y014536D02*
X017720Y014536D01*
X017720Y014694D02*
X018699Y014694D01*
X018878Y014853D02*
X017705Y014853D01*
X016655Y014853D02*
X012285Y014853D01*
X012252Y014876D02*
X012171Y014918D01*
X012084Y014946D01*
X011996Y014960D01*
X011996Y014428D01*
X011901Y014428D01*
X011901Y014960D01*
X011813Y014946D01*
X011726Y014918D01*
X011645Y014876D01*
X011571Y014822D01*
X011506Y014758D01*
X011452Y014684D01*
X011411Y014603D01*
X011383Y014516D01*
X011369Y014428D01*
X011901Y014428D01*
X011901Y014332D01*
X011996Y014332D01*
X011996Y013800D01*
X012084Y013814D01*
X012171Y013842D01*
X012252Y013884D01*
X012326Y013938D01*
X012391Y014002D01*
X012445Y014076D01*
X012486Y014157D01*
X012514Y014244D01*
X012528Y014332D01*
X011996Y014332D01*
X011996Y014428D01*
X012528Y014428D01*
X012514Y014516D01*
X012486Y014603D01*
X012445Y014684D01*
X012391Y014758D01*
X012326Y014822D01*
X012252Y014876D01*
X011996Y014853D02*
X011901Y014853D01*
X011901Y014694D02*
X011996Y014694D01*
X011996Y014536D02*
X011901Y014536D01*
X011901Y014377D02*
X010520Y014377D01*
X010520Y014219D02*
X011391Y014219D01*
X011383Y014244D02*
X011411Y014157D01*
X011452Y014076D01*
X011506Y014002D01*
X011571Y013938D01*
X011645Y013884D01*
X011726Y013842D01*
X011813Y013814D01*
X011901Y013800D01*
X011901Y014332D01*
X011369Y014332D01*
X011383Y014244D01*
X011464Y014060D02*
X010520Y014060D01*
X010500Y013902D02*
X011620Y013902D01*
X011901Y013902D02*
X011996Y013902D01*
X011996Y014060D02*
X011901Y014060D01*
X011901Y014219D02*
X011996Y014219D01*
X011996Y014377D02*
X016640Y014377D01*
X016640Y014219D02*
X012506Y014219D01*
X012433Y014060D02*
X016640Y014060D01*
X016660Y013902D02*
X012277Y013902D01*
X012508Y014536D02*
X016640Y014536D01*
X016640Y014694D02*
X012437Y014694D01*
X011612Y014853D02*
X010505Y014853D01*
X010520Y014694D02*
X011460Y014694D01*
X011389Y014536D02*
X010520Y014536D01*
X006491Y014853D02*
X006010Y014853D01*
X006010Y015011D02*
X006333Y015011D01*
X006219Y015170D02*
X006010Y015170D01*
X006010Y015328D02*
X006154Y015328D01*
X006120Y015487D02*
X006010Y015487D01*
X006010Y015645D02*
X006120Y015645D01*
X006142Y015804D02*
X006010Y015804D01*
X006010Y015962D02*
X006207Y015962D01*
X006304Y016121D02*
X006010Y016121D01*
X006010Y016279D02*
X006463Y016279D01*
X006010Y012475D02*
X008454Y012475D01*
X008326Y012317D02*
X006010Y012317D01*
X006010Y012158D02*
X008270Y012158D01*
X008270Y012000D02*
X006010Y012000D01*
X006010Y011841D02*
X008327Y011841D01*
X008456Y011683D02*
X006010Y011683D01*
X009234Y012317D02*
X018456Y012317D01*
X018298Y012158D02*
X009290Y012158D01*
X009290Y012000D02*
X018139Y012000D01*
X014098Y011366D02*
X011872Y011366D01*
X011982Y011207D02*
X014098Y011207D01*
X011480Y011207D02*
X011480Y011207D01*
X011480Y011049D02*
X011480Y011049D01*
X011480Y010980D02*
X011480Y010430D01*
X011480Y010980D01*
X011480Y010980D01*
X011480Y010890D02*
X011480Y010890D01*
X011480Y010732D02*
X011480Y010732D01*
X011480Y010573D02*
X011480Y010573D01*
X011109Y010573D02*
X010794Y010573D01*
X010929Y010732D02*
X010989Y010732D01*
X010978Y011207D02*
X010938Y011207D01*
X010816Y011366D02*
X011088Y011366D01*
X011480Y011366D02*
X011480Y011366D01*
X011423Y008130D02*
X011400Y008130D01*
X011400Y007600D01*
X011360Y007600D01*
X011360Y008130D01*
X011337Y008130D01*
X011251Y008116D01*
X011169Y008090D01*
X011092Y008050D01*
X011022Y008000D01*
X010960Y007938D01*
X010910Y007868D01*
X010870Y007791D01*
X010859Y007756D01*
X010812Y007869D01*
X010669Y008012D01*
X010481Y008090D01*
X010279Y008090D01*
X010091Y008012D01*
X009948Y007869D01*
X009870Y007681D01*
X009870Y007479D01*
X009948Y007291D01*
X010091Y007148D01*
X010279Y007070D01*
X010481Y007070D01*
X010515Y007084D01*
X010650Y006950D01*
X010650Y006250D01*
X010487Y006088D01*
X010481Y006090D01*
X010279Y006090D01*
X010091Y006012D01*
X009948Y005869D01*
X009870Y005681D01*
X009870Y005479D01*
X009948Y005291D01*
X010091Y005148D01*
X010279Y005070D01*
X010481Y005070D01*
X010487Y005072D01*
X010650Y004910D01*
X010650Y003970D01*
X010544Y003864D01*
X010481Y003890D01*
X010279Y003890D01*
X010091Y003812D01*
X009948Y003669D01*
X009870Y003481D01*
X009870Y003279D01*
X009948Y003091D01*
X010091Y002948D01*
X010279Y002870D01*
X010481Y002870D01*
X010669Y002948D01*
X010812Y003091D01*
X010859Y003204D01*
X010870Y003169D01*
X010910Y003092D01*
X010960Y003022D01*
X011022Y002960D01*
X011092Y002910D01*
X011169Y002870D01*
X011251Y002844D01*
X011337Y002830D01*
X011360Y002830D01*
X011360Y003360D01*
X011400Y003360D01*
X011400Y003400D01*
X011360Y003400D01*
X011360Y003930D01*
X011337Y003930D01*
X011251Y003916D01*
X011169Y003890D01*
X011092Y003850D01*
X011022Y003800D01*
X010960Y003738D01*
X010910Y003668D01*
X010870Y003591D01*
X010859Y003556D01*
X010817Y003657D01*
X010890Y003730D01*
X010990Y003830D01*
X010990Y005050D01*
X010781Y005260D01*
X010812Y005291D01*
X010859Y005404D01*
X010870Y005369D01*
X010910Y005292D01*
X010960Y005222D01*
X011022Y005160D01*
X011092Y005110D01*
X011169Y005070D01*
X011251Y005044D01*
X011337Y005030D01*
X011360Y005030D01*
X011360Y005560D01*
X011400Y005560D01*
X011400Y005600D01*
X011360Y005600D01*
X011360Y006130D01*
X011337Y006130D01*
X011251Y006116D01*
X011169Y006090D01*
X011092Y006050D01*
X011022Y006000D01*
X010960Y005938D01*
X010910Y005868D01*
X010870Y005791D01*
X010859Y005756D01*
X010812Y005869D01*
X010781Y005900D01*
X010890Y006010D01*
X010890Y006010D01*
X010990Y006110D01*
X010990Y007090D01*
X010890Y007190D01*
X010801Y007280D01*
X010812Y007291D01*
X010859Y007404D01*
X010870Y007369D01*
X010910Y007292D01*
X010960Y007222D01*
X011022Y007160D01*
X011092Y007110D01*
X011169Y007070D01*
X011251Y007044D01*
X011337Y007030D01*
X011360Y007030D01*
X011360Y007560D01*
X011400Y007560D01*
X011400Y007600D01*
X011930Y007600D01*
X011930Y007623D01*
X011916Y007709D01*
X011890Y007791D01*
X011850Y007868D01*
X011800Y007938D01*
X011738Y008000D01*
X011668Y008050D01*
X011591Y008090D01*
X011509Y008116D01*
X011423Y008130D01*
X011400Y008037D02*
X011360Y008037D01*
X011360Y007879D02*
X011400Y007879D01*
X011400Y007720D02*
X011360Y007720D01*
X011400Y007562D02*
X017070Y007562D01*
X017086Y007720D02*
X011913Y007720D01*
X011930Y007560D02*
X011400Y007560D01*
X011400Y007030D01*
X011423Y007030D01*
X011509Y007044D01*
X011591Y007070D01*
X011668Y007110D01*
X011738Y007160D01*
X011800Y007222D01*
X011850Y007292D01*
X011890Y007369D01*
X011916Y007451D01*
X011930Y007537D01*
X011930Y007560D01*
X011901Y007403D02*
X017101Y007403D01*
X017194Y007245D02*
X011816Y007245D01*
X011622Y007086D02*
X017440Y007086D01*
X017850Y006928D02*
X010990Y006928D01*
X010990Y007086D02*
X011138Y007086D01*
X011360Y007086D02*
X011400Y007086D01*
X011400Y007245D02*
X011360Y007245D01*
X011360Y007403D02*
X011400Y007403D01*
X010944Y007245D02*
X010836Y007245D01*
X010859Y007403D02*
X010859Y007403D01*
X009994Y007245D02*
X006010Y007245D01*
X006010Y007403D02*
X009901Y007403D01*
X009870Y007562D02*
X006010Y007562D01*
X006010Y007720D02*
X009886Y007720D01*
X009957Y007879D02*
X006010Y007879D01*
X006010Y008037D02*
X010151Y008037D01*
X010609Y008037D02*
X011073Y008037D01*
X010917Y007879D02*
X010803Y007879D01*
X011687Y008037D02*
X017351Y008037D01*
X017157Y007879D02*
X011843Y007879D01*
X010650Y006928D02*
X006010Y006928D01*
X006010Y007086D02*
X010240Y007086D01*
X010650Y006769D02*
X006010Y006769D01*
X006010Y006611D02*
X010650Y006611D01*
X010650Y006452D02*
X006010Y006452D01*
X006010Y006294D02*
X010650Y006294D01*
X010535Y006135D02*
X006010Y006135D01*
X006010Y005977D02*
X010055Y005977D01*
X009927Y005818D02*
X006010Y005818D01*
X006010Y005660D02*
X009870Y005660D01*
X009870Y005501D02*
X006010Y005501D01*
X006010Y005343D02*
X009926Y005343D01*
X010055Y005184D02*
X006010Y005184D01*
X006010Y005026D02*
X010534Y005026D01*
X010650Y004867D02*
X006010Y004867D01*
X006010Y004709D02*
X010650Y004709D01*
X010650Y004550D02*
X006010Y004550D01*
X006010Y004392D02*
X010650Y004392D01*
X010650Y004233D02*
X006010Y004233D01*
X006010Y004075D02*
X010650Y004075D01*
X010596Y003916D02*
X006010Y003916D01*
X006010Y003758D02*
X010036Y003758D01*
X009919Y003599D02*
X006010Y003599D01*
X006010Y003441D02*
X009870Y003441D01*
X009870Y003282D02*
X007494Y003282D01*
X007467Y003309D02*
X007151Y003440D01*
X006809Y003440D01*
X006493Y003309D01*
X006251Y003067D01*
X006120Y002751D01*
X006120Y002409D01*
X006251Y002093D01*
X006493Y001851D01*
X006809Y001720D01*
X007151Y001720D01*
X007467Y001851D01*
X007709Y002093D01*
X007840Y002409D01*
X007840Y002751D01*
X007709Y003067D01*
X007467Y003309D01*
X007653Y003124D02*
X009934Y003124D01*
X010074Y002965D02*
X007751Y002965D01*
X007817Y002807D02*
X021543Y002807D01*
X021520Y002648D02*
X007840Y002648D01*
X007840Y002490D02*
X021520Y002490D01*
X021552Y002331D02*
X007808Y002331D01*
X007742Y002173D02*
X021618Y002173D01*
X021730Y002014D02*
X007630Y002014D01*
X007472Y001856D02*
X021888Y001856D01*
X021609Y002965D02*
X018886Y002965D01*
X019026Y003124D02*
X021707Y003124D01*
X021866Y003282D02*
X019090Y003282D01*
X018274Y002965D02*
X017886Y002965D01*
X018026Y003124D02*
X018134Y003124D01*
X017274Y002965D02*
X011743Y002965D01*
X011738Y002960D02*
X011800Y003022D01*
X011850Y003092D01*
X011890Y003169D01*
X011916Y003251D01*
X011930Y003337D01*
X011930Y003360D01*
X011400Y003360D01*
X011400Y002830D01*
X011423Y002830D01*
X011509Y002844D01*
X011591Y002870D01*
X011668Y002910D01*
X011738Y002960D01*
X011867Y003124D02*
X017134Y003124D01*
X017070Y003282D02*
X011921Y003282D01*
X011930Y003400D02*
X011400Y003400D01*
X011400Y003930D01*
X011423Y003930D01*
X011509Y003916D01*
X011591Y003890D01*
X011668Y003850D01*
X011738Y003800D01*
X011800Y003738D01*
X011850Y003668D01*
X011890Y003591D01*
X011916Y003509D01*
X011930Y003423D01*
X011930Y003400D01*
X011927Y003441D02*
X017070Y003441D01*
X017119Y003599D02*
X011886Y003599D01*
X011780Y003758D02*
X017236Y003758D01*
X017796Y003916D02*
X011510Y003916D01*
X011400Y003916D02*
X011360Y003916D01*
X011250Y003916D02*
X010990Y003916D01*
X010990Y004075D02*
X017850Y004075D01*
X017850Y004233D02*
X010990Y004233D01*
X010990Y004392D02*
X017850Y004392D01*
X017850Y004550D02*
X010990Y004550D01*
X010990Y004709D02*
X017850Y004709D01*
X017850Y004867D02*
X010990Y004867D01*
X010990Y005026D02*
X017734Y005026D01*
X017255Y005184D02*
X011762Y005184D01*
X011738Y005160D02*
X011800Y005222D01*
X011850Y005292D01*
X011890Y005369D01*
X011916Y005451D01*
X011930Y005537D01*
X011930Y005560D01*
X011400Y005560D01*
X011400Y005030D01*
X011423Y005030D01*
X011509Y005044D01*
X011591Y005070D01*
X011668Y005110D01*
X011738Y005160D01*
X011876Y005343D02*
X017126Y005343D01*
X017070Y005501D02*
X011924Y005501D01*
X011930Y005600D02*
X011400Y005600D01*
X011400Y006130D01*
X011423Y006130D01*
X011509Y006116D01*
X011591Y006090D01*
X011668Y006050D01*
X011738Y006000D01*
X011800Y005938D01*
X011850Y005868D01*
X011890Y005791D01*
X011916Y005709D01*
X011930Y005623D01*
X011930Y005600D01*
X011924Y005660D02*
X017070Y005660D01*
X017127Y005818D02*
X011876Y005818D01*
X011761Y005977D02*
X017255Y005977D01*
X017735Y006135D02*
X010990Y006135D01*
X010990Y006294D02*
X017850Y006294D01*
X017850Y006452D02*
X010990Y006452D01*
X010990Y006611D02*
X017850Y006611D01*
X017850Y006769D02*
X010990Y006769D01*
X010999Y005977D02*
X010857Y005977D01*
X010833Y005818D02*
X010884Y005818D01*
X011360Y005818D02*
X011400Y005818D01*
X011400Y005660D02*
X011360Y005660D01*
X011360Y005501D02*
X011400Y005501D01*
X011400Y005343D02*
X011360Y005343D01*
X011360Y005184D02*
X011400Y005184D01*
X010998Y005184D02*
X010856Y005184D01*
X010834Y005343D02*
X010884Y005343D01*
X011360Y005977D02*
X011400Y005977D01*
X011360Y003758D02*
X011400Y003758D01*
X011400Y003599D02*
X011360Y003599D01*
X011360Y003441D02*
X011400Y003441D01*
X011400Y003282D02*
X011360Y003282D01*
X011360Y003124D02*
X011400Y003124D01*
X011400Y002965D02*
X011360Y002965D01*
X011017Y002965D02*
X010686Y002965D01*
X010826Y003124D02*
X010893Y003124D01*
X010874Y003599D02*
X010841Y003599D01*
X010918Y003758D02*
X010980Y003758D01*
X006466Y003282D02*
X006010Y003282D01*
X006010Y003124D02*
X006307Y003124D01*
X006209Y002965D02*
X006010Y002965D01*
X006010Y002807D02*
X006143Y002807D01*
X006120Y002648D02*
X006010Y002648D01*
X006010Y002490D02*
X006120Y002490D01*
X006152Y002331D02*
X006010Y002331D01*
X006010Y002173D02*
X006218Y002173D01*
X006330Y002014D02*
X006010Y002014D01*
X006010Y001856D02*
X006488Y001856D01*
X018074Y007720D02*
X018086Y007720D01*
X018157Y007879D02*
X018003Y007879D01*
X017809Y008037D02*
X018351Y008037D01*
X019419Y014853D02*
X021691Y014853D01*
D15*
X019149Y014380D02*
X019100Y014340D01*
X019100Y014160D01*
X018740Y013800D01*
X018740Y012360D01*
X018080Y011700D01*
X018680Y011100D01*
X018680Y010980D01*
X017720Y010980D02*
X017720Y010800D01*
X018800Y009720D01*
X020000Y009720D01*
X020420Y009300D01*
X020540Y009300D01*
X020580Y009280D01*
X018580Y007580D02*
X018560Y007560D01*
X018560Y007440D01*
X018140Y007020D01*
X018140Y006180D01*
X018560Y005760D01*
X018560Y005580D01*
X018580Y005580D01*
X018620Y005580D01*
X018620Y005400D01*
X018980Y005040D01*
X018980Y003900D01*
X018620Y003540D01*
X018620Y003420D01*
X018580Y003380D01*
X018020Y003900D02*
X018020Y004980D01*
X017600Y005400D01*
X017600Y005580D01*
X017580Y005580D01*
X017600Y005580D02*
X017600Y005760D01*
X018020Y006180D01*
X018020Y007020D01*
X017600Y007440D01*
X017600Y007560D01*
X017580Y007580D01*
X010820Y007020D02*
X010820Y006180D01*
X010400Y005760D01*
X010400Y005580D01*
X010380Y005580D01*
X010400Y005580D02*
X010400Y005400D01*
X010820Y004980D01*
X010820Y003900D01*
X010580Y003660D01*
X010580Y003600D01*
X010400Y003420D01*
X010380Y003380D01*
X017580Y003380D02*
X017600Y003420D01*
X017780Y003600D01*
X017780Y003660D01*
X018020Y003900D01*
X010820Y007020D02*
X010400Y007440D01*
X010400Y007560D01*
X010380Y007580D01*
X008780Y009080D02*
X008780Y009240D01*
X009980Y010440D01*
X010100Y010440D01*
X010460Y010800D01*
X010460Y010980D01*
X010480Y010980D01*
X008780Y012080D02*
X008780Y012240D01*
X009740Y013200D01*
X009740Y014100D01*
X009980Y014340D01*
X009980Y014380D01*
X014757Y011380D02*
X014780Y011400D01*
X017060Y011400D01*
X017360Y011700D01*
X018080Y011700D01*
X017720Y010980D02*
X017680Y010980D01*
M02*
