%
M48
M72
T01C0.0236
T02C0.0276
T03C0.0354
T04C0.0400
T05C0.0512
%
T01
X3680Y11180
T02
X4180Y4680
X5180Y4680
T03
X6680Y3680
X6180Y1680
X7180Y1680
X10180Y1680
X6680Y6680
X6680Y8680
X6680Y11680
X3180Y1680
T04
X1680Y1680
X1680Y2680
X1680Y3680
X1680Y4680
X1680Y5680
X1680Y6680
X1680Y8680
X1680Y9680
X1680Y10680
X1680Y11680
X1680Y12680
X1680Y13680
T05
X9180Y11180
X9180Y9211
X9180Y6180
X9180Y4211
M30
