%
M48
M72
T01C0.0130
T02C0.0236
T03C0.0276
T04C0.0320
T05C0.0354
T06C0.0400
T07C0.1260
%
T01
X11680Y8460
X12160Y8460
X12700Y8460
X12640Y11640
X12820Y13320
X12400Y13320
X11920Y13320
T02
X14980Y10580
X14780Y8780
T03
X7980Y9380
X7980Y10380
T04
X8880Y5980
X9880Y5980
X12680Y5980
X13680Y5980
X16080Y5980
X17080Y5980
X5480Y5980
X4480Y5980
T05
X3180Y6880
X7180Y4880
X3180Y3880
X7180Y1880
X11180Y1880
X14780Y1880
X19580Y2280
X21580Y2280
X21580Y5280
X19580Y5280
X14780Y4880
X11180Y4880
T06
X9380Y4180
X9380Y3180
X9380Y2180
X13180Y2180
X13180Y3180
X13180Y4180
X16580Y4180
X16580Y3180
X16580Y2180
X18380Y8180
X18380Y9180
X18380Y10180
X18380Y11180
X6580Y11180
X6580Y10180
X6580Y9180
X6580Y8180
X4980Y4180
X4980Y3180
X4980Y2180
T07
X2780Y1780
X2780Y13180
X23580Y13180
X23580Y1780
M30
