G75*
%MOIN*%
%OFA0B0*%
%FSLAX24Y24*%
%IPPOS*%
%LPD*%
%AMOC8*
5,1,8,0,0,1.08239X$1,22.5*
%
%ADD10C,0.0000*%
%ADD11C,0.0040*%
D10*
X001780Y000780D02*
X001780Y014276D01*
X024650Y014276D01*
X024650Y000780D01*
X001780Y000780D01*
X002150Y001780D02*
X002152Y001830D01*
X002158Y001880D01*
X002168Y001929D01*
X002182Y001977D01*
X002199Y002024D01*
X002220Y002069D01*
X002245Y002113D01*
X002273Y002154D01*
X002305Y002193D01*
X002339Y002230D01*
X002376Y002264D01*
X002416Y002294D01*
X002458Y002321D01*
X002502Y002345D01*
X002548Y002366D01*
X002595Y002382D01*
X002643Y002395D01*
X002693Y002404D01*
X002742Y002409D01*
X002793Y002410D01*
X002843Y002407D01*
X002892Y002400D01*
X002941Y002389D01*
X002989Y002374D01*
X003035Y002356D01*
X003080Y002334D01*
X003123Y002308D01*
X003164Y002279D01*
X003203Y002247D01*
X003239Y002212D01*
X003271Y002174D01*
X003301Y002134D01*
X003328Y002091D01*
X003351Y002047D01*
X003370Y002001D01*
X003386Y001953D01*
X003398Y001904D01*
X003406Y001855D01*
X003410Y001805D01*
X003410Y001755D01*
X003406Y001705D01*
X003398Y001656D01*
X003386Y001607D01*
X003370Y001559D01*
X003351Y001513D01*
X003328Y001469D01*
X003301Y001426D01*
X003271Y001386D01*
X003239Y001348D01*
X003203Y001313D01*
X003164Y001281D01*
X003123Y001252D01*
X003080Y001226D01*
X003035Y001204D01*
X002989Y001186D01*
X002941Y001171D01*
X002892Y001160D01*
X002843Y001153D01*
X002793Y001150D01*
X002742Y001151D01*
X002693Y001156D01*
X002643Y001165D01*
X002595Y001178D01*
X002548Y001194D01*
X002502Y001215D01*
X002458Y001239D01*
X002416Y001266D01*
X002376Y001296D01*
X002339Y001330D01*
X002305Y001367D01*
X002273Y001406D01*
X002245Y001447D01*
X002220Y001491D01*
X002199Y001536D01*
X002182Y001583D01*
X002168Y001631D01*
X002158Y001680D01*
X002152Y001730D01*
X002150Y001780D01*
X002150Y013180D02*
X002152Y013230D01*
X002158Y013280D01*
X002168Y013329D01*
X002182Y013377D01*
X002199Y013424D01*
X002220Y013469D01*
X002245Y013513D01*
X002273Y013554D01*
X002305Y013593D01*
X002339Y013630D01*
X002376Y013664D01*
X002416Y013694D01*
X002458Y013721D01*
X002502Y013745D01*
X002548Y013766D01*
X002595Y013782D01*
X002643Y013795D01*
X002693Y013804D01*
X002742Y013809D01*
X002793Y013810D01*
X002843Y013807D01*
X002892Y013800D01*
X002941Y013789D01*
X002989Y013774D01*
X003035Y013756D01*
X003080Y013734D01*
X003123Y013708D01*
X003164Y013679D01*
X003203Y013647D01*
X003239Y013612D01*
X003271Y013574D01*
X003301Y013534D01*
X003328Y013491D01*
X003351Y013447D01*
X003370Y013401D01*
X003386Y013353D01*
X003398Y013304D01*
X003406Y013255D01*
X003410Y013205D01*
X003410Y013155D01*
X003406Y013105D01*
X003398Y013056D01*
X003386Y013007D01*
X003370Y012959D01*
X003351Y012913D01*
X003328Y012869D01*
X003301Y012826D01*
X003271Y012786D01*
X003239Y012748D01*
X003203Y012713D01*
X003164Y012681D01*
X003123Y012652D01*
X003080Y012626D01*
X003035Y012604D01*
X002989Y012586D01*
X002941Y012571D01*
X002892Y012560D01*
X002843Y012553D01*
X002793Y012550D01*
X002742Y012551D01*
X002693Y012556D01*
X002643Y012565D01*
X002595Y012578D01*
X002548Y012594D01*
X002502Y012615D01*
X002458Y012639D01*
X002416Y012666D01*
X002376Y012696D01*
X002339Y012730D01*
X002305Y012767D01*
X002273Y012806D01*
X002245Y012847D01*
X002220Y012891D01*
X002199Y012936D01*
X002182Y012983D01*
X002168Y013031D01*
X002158Y013080D01*
X002152Y013130D01*
X002150Y013180D01*
X022950Y013180D02*
X022952Y013230D01*
X022958Y013280D01*
X022968Y013329D01*
X022982Y013377D01*
X022999Y013424D01*
X023020Y013469D01*
X023045Y013513D01*
X023073Y013554D01*
X023105Y013593D01*
X023139Y013630D01*
X023176Y013664D01*
X023216Y013694D01*
X023258Y013721D01*
X023302Y013745D01*
X023348Y013766D01*
X023395Y013782D01*
X023443Y013795D01*
X023493Y013804D01*
X023542Y013809D01*
X023593Y013810D01*
X023643Y013807D01*
X023692Y013800D01*
X023741Y013789D01*
X023789Y013774D01*
X023835Y013756D01*
X023880Y013734D01*
X023923Y013708D01*
X023964Y013679D01*
X024003Y013647D01*
X024039Y013612D01*
X024071Y013574D01*
X024101Y013534D01*
X024128Y013491D01*
X024151Y013447D01*
X024170Y013401D01*
X024186Y013353D01*
X024198Y013304D01*
X024206Y013255D01*
X024210Y013205D01*
X024210Y013155D01*
X024206Y013105D01*
X024198Y013056D01*
X024186Y013007D01*
X024170Y012959D01*
X024151Y012913D01*
X024128Y012869D01*
X024101Y012826D01*
X024071Y012786D01*
X024039Y012748D01*
X024003Y012713D01*
X023964Y012681D01*
X023923Y012652D01*
X023880Y012626D01*
X023835Y012604D01*
X023789Y012586D01*
X023741Y012571D01*
X023692Y012560D01*
X023643Y012553D01*
X023593Y012550D01*
X023542Y012551D01*
X023493Y012556D01*
X023443Y012565D01*
X023395Y012578D01*
X023348Y012594D01*
X023302Y012615D01*
X023258Y012639D01*
X023216Y012666D01*
X023176Y012696D01*
X023139Y012730D01*
X023105Y012767D01*
X023073Y012806D01*
X023045Y012847D01*
X023020Y012891D01*
X022999Y012936D01*
X022982Y012983D01*
X022968Y013031D01*
X022958Y013080D01*
X022952Y013130D01*
X022950Y013180D01*
X022950Y001780D02*
X022952Y001830D01*
X022958Y001880D01*
X022968Y001929D01*
X022982Y001977D01*
X022999Y002024D01*
X023020Y002069D01*
X023045Y002113D01*
X023073Y002154D01*
X023105Y002193D01*
X023139Y002230D01*
X023176Y002264D01*
X023216Y002294D01*
X023258Y002321D01*
X023302Y002345D01*
X023348Y002366D01*
X023395Y002382D01*
X023443Y002395D01*
X023493Y002404D01*
X023542Y002409D01*
X023593Y002410D01*
X023643Y002407D01*
X023692Y002400D01*
X023741Y002389D01*
X023789Y002374D01*
X023835Y002356D01*
X023880Y002334D01*
X023923Y002308D01*
X023964Y002279D01*
X024003Y002247D01*
X024039Y002212D01*
X024071Y002174D01*
X024101Y002134D01*
X024128Y002091D01*
X024151Y002047D01*
X024170Y002001D01*
X024186Y001953D01*
X024198Y001904D01*
X024206Y001855D01*
X024210Y001805D01*
X024210Y001755D01*
X024206Y001705D01*
X024198Y001656D01*
X024186Y001607D01*
X024170Y001559D01*
X024151Y001513D01*
X024128Y001469D01*
X024101Y001426D01*
X024071Y001386D01*
X024039Y001348D01*
X024003Y001313D01*
X023964Y001281D01*
X023923Y001252D01*
X023880Y001226D01*
X023835Y001204D01*
X023789Y001186D01*
X023741Y001171D01*
X023692Y001160D01*
X023643Y001153D01*
X023593Y001150D01*
X023542Y001151D01*
X023493Y001156D01*
X023443Y001165D01*
X023395Y001178D01*
X023348Y001194D01*
X023302Y001215D01*
X023258Y001239D01*
X023216Y001266D01*
X023176Y001296D01*
X023139Y001330D01*
X023105Y001367D01*
X023073Y001406D01*
X023045Y001447D01*
X023020Y001491D01*
X022999Y001536D01*
X022982Y001583D01*
X022968Y001631D01*
X022958Y001680D01*
X022952Y001730D01*
X022950Y001780D01*
D11*
X019360Y013000D02*
X019360Y013520D01*
X019100Y013520D01*
X019013Y013434D01*
X019013Y013260D01*
X019100Y013173D01*
X019360Y013173D01*
X019187Y013173D02*
X019013Y013000D01*
X018844Y013087D02*
X018758Y013000D01*
X018584Y013000D01*
X018497Y013173D02*
X018844Y013173D01*
X018844Y013087D02*
X018844Y013260D01*
X018758Y013347D01*
X018584Y013347D01*
X018497Y013260D01*
X018497Y013173D01*
X018329Y013173D02*
X017982Y013173D01*
X017982Y013260D01*
X018068Y013347D01*
X018242Y013347D01*
X018329Y013260D01*
X018329Y013087D01*
X018242Y013000D01*
X018068Y013000D01*
X017726Y013000D02*
X017726Y013434D01*
X017640Y013520D01*
X017640Y013260D02*
X017813Y013260D01*
X017469Y013260D02*
X017383Y013347D01*
X017122Y013347D01*
X016954Y013260D02*
X016867Y013347D01*
X016693Y013347D01*
X016607Y013260D01*
X016607Y013173D01*
X016954Y013173D01*
X016954Y013087D02*
X016954Y013260D01*
X016954Y013087D02*
X016867Y013000D01*
X016693Y013000D01*
X016438Y013000D02*
X016438Y013347D01*
X016178Y013347D01*
X016091Y013260D01*
X016091Y013000D01*
X015922Y013000D02*
X015662Y013000D01*
X015575Y013087D01*
X015662Y013173D01*
X015836Y013173D01*
X015922Y013260D01*
X015836Y013347D01*
X015575Y013347D01*
X015407Y013260D02*
X015407Y013087D01*
X015320Y013000D01*
X015147Y013000D01*
X015060Y013173D02*
X015407Y013173D01*
X015407Y013260D02*
X015320Y013347D01*
X015147Y013347D01*
X015060Y013260D01*
X015060Y013173D01*
X014891Y013087D02*
X014891Y013000D01*
X014804Y013000D01*
X014804Y013087D01*
X014891Y013087D01*
X014633Y013087D02*
X014547Y013000D01*
X014286Y013000D01*
X014118Y013087D02*
X014031Y013000D01*
X013857Y013000D01*
X013771Y013087D01*
X013771Y013260D01*
X013857Y013347D01*
X014031Y013347D01*
X014118Y013260D01*
X014118Y013087D01*
X014286Y013347D02*
X014547Y013347D01*
X014633Y013260D01*
X014633Y013087D01*
X013602Y013000D02*
X013602Y013347D01*
X013515Y013347D01*
X013429Y013260D01*
X013342Y013347D01*
X013255Y013260D01*
X013255Y013000D01*
X013429Y013000D02*
X013429Y013260D01*
X017122Y013087D02*
X017209Y013173D01*
X017383Y013173D01*
X017469Y013260D01*
X017469Y013000D02*
X017209Y013000D01*
X017122Y013087D01*
M02*
